<svg width="31" height="32" viewBox="0 0 31 32" fill="none" xmlns="http://www.w3.org/2000/svg">
    <ellipse cx="15.3818" cy="16" rx="15.3818" ry="16" fill="#E8E7ED"/>
    <path fill-rule="evenodd" clip-rule="evenodd" d="M15.3836 17.3332C16.0915 17.3332 16.6654 16.7362 16.6654 15.9998C16.6654 15.2635 16.0915 14.6665 15.3836 14.6665C14.6756 14.6665 14.1017 15.2635 14.1017 15.9998C14.1017 16.7362 14.6756 17.3332 15.3836 17.3332ZM24.3563 17.3332C25.0642 17.3332 25.6381 16.7362 25.6381 15.9998C25.6381 15.2635 25.0642 14.6665 24.3563 14.6665C23.6484 14.6665 23.0745 15.2635 23.0745 15.9998C23.0745 16.7362 23.6484 17.3332 24.3563 17.3332ZM7.69255 16.0002C7.69255 16.7366 7.11866 17.3336 6.41073 17.3336C5.7028 17.3336 5.12891 16.7366 5.12891 16.0002C5.12891 15.2639 5.7028 14.6669 6.41073 14.6669C7.11866 14.6669 7.69255 15.2639 7.69255 16.0002Z" fill="#5B476B"/>
</svg>