<svg width="24" height="24" viewBox="0 0 24 24" fill="none" xmlns="http://www.w3.org/2000/svg">
<path fill-rule="evenodd" clip-rule="evenodd" d="M12 24C18.6274 24 24 18.6274 24 12C24 5.37258 18.6274 0 12 0C5.37258 0 0 5.37258 0 12C0 18.6274 5.37258 24 12 24Z" fill="#E8E7ED"/>
<path fill-rule="evenodd" clip-rule="evenodd" d="M12.2954 7.74583C12.27 7.60588 12.1475 7.49976 12.0002 7.49976C11.8345 7.49976 11.7002 7.63407 11.7002 7.79976V11.7002H7.79976L7.74583 11.705C7.60588 11.7304 7.49976 11.8529 7.49976 12.0002C7.49976 12.1659 7.63407 12.3002 7.79976 12.3002H11.7002V16.1998L11.705 16.2537C11.7304 16.3936 11.8529 16.4998 12.0002 16.4998C12.1659 16.4998 12.3002 16.3654 12.3002 16.1998V12.3002H16.1998L16.2537 12.2954C16.3936 12.27 16.4998 12.1475 16.4998 12.0002C16.4998 11.8345 16.3654 11.7002 16.1998 11.7002H12.3002V7.79976L12.2954 7.74583Z" fill="#5B476B"/>
</svg>
