<svg width="32" height="32" viewBox="0 0 32 32" fill="none" xmlns="http://www.w3.org/2000/svg">
<path fill-rule="evenodd" clip-rule="evenodd" d="M16 32C24.8366 32 32 24.8366 32 16C32 7.16344 24.8366 0 16 0C7.16344 0 0 7.16344 0 16C0 24.8366 7.16344 32 16 32Z" fill="#E8E7ED"/>
<path fill-rule="evenodd" clip-rule="evenodd" d="M16.3936 10.3281C16.3597 10.1415 16.1964 10 16 10C15.7791 10 15.6 10.1791 15.6 10.4V15.6H10.4L10.3281 15.6064C10.1415 15.6403 10 15.8036 10 16C10 16.2209 10.1791 16.4 10.4 16.4H15.6V21.6L15.6064 21.6719C15.6403 21.8585 15.8036 22 16 22C16.2209 22 16.4 21.8209 16.4 21.6V16.4H21.6L21.6719 16.3936C21.8585 16.3597 22 16.1964 22 16C22 15.7791 21.8209 15.6 21.6 15.6H16.4V10.4L16.3936 10.3281Z" fill="#5B476B"/>
</svg>
