<svg width="19" height="19" viewBox="0 0 19 19" fill="none" xmlns="http://www.w3.org/2000/svg">
    <path d="M12.0726 1.54844C12.0726 1.47091 12.0418 1.39655 11.987 1.34173C11.9322 1.28691 11.8578 1.25611 11.7803 1.2561H10.6109C10.5334 1.25611 10.4591 1.28691 10.4042 1.34173C10.3494 1.39655 10.3186 1.47091 10.3186 1.54844V3.30246C10.3186 3.37999 10.3494 3.45434 10.4042 3.50917C10.4591 3.56399 10.5334 3.59479 10.6109 3.59479H11.7803C11.8578 3.59479 11.9322 3.56399 11.987 3.50917C12.0418 3.45434 12.0726 3.37999 12.0726 3.30246V1.54844ZM11.4879 3.01012H10.9033V1.84078H11.4879V3.01012Z" fill="#5B476B"/>
    <path d="M14.4114 1.54844C14.4114 1.47091 14.3806 1.39655 14.3257 1.34173C14.2709 1.28691 14.1966 1.25611 14.119 1.2561H12.9497C12.8722 1.25611 12.7978 1.28691 12.743 1.34173C12.6882 1.39655 12.6574 1.47091 12.6573 1.54844V3.30246C12.6574 3.37999 12.6882 3.45434 12.743 3.50917C12.7978 3.56399 12.8722 3.59479 12.9497 3.59479H14.119C14.1966 3.59479 14.2709 3.56399 14.3257 3.50917C14.3806 3.45434 14.4114 3.37999 14.4114 3.30246V1.54844ZM13.8267 3.01012H13.242V1.84078H13.8267V3.01012Z" fill="#5B476B"/>
    <path d="M12.0726 4.47202C12.0726 4.39449 12.0418 4.32014 11.987 4.26532C11.9322 4.21049 11.8578 4.17969 11.7803 4.17969H10.6109C10.5334 4.17969 10.4591 4.21049 10.4042 4.26532C10.3494 4.32014 10.3186 4.39449 10.3186 4.47202V6.22604C10.3186 6.30357 10.3494 6.37793 10.4042 6.43275C10.4591 6.48757 10.5334 6.51837 10.6109 6.51838H11.7803C11.8578 6.51837 11.9322 6.48757 11.987 6.43275C12.0418 6.37793 12.0726 6.30357 12.0726 6.22604V4.47202ZM11.4879 5.93371H10.9033V4.76436H11.4879V5.93371Z" fill="#5B476B"/>
    <path d="M14.4114 4.47202C14.4114 4.39449 14.3806 4.32014 14.3257 4.26532C14.2709 4.21049 14.1966 4.17969 14.119 4.17969H12.9497C12.8722 4.17969 12.7978 4.21049 12.743 4.26532C12.6882 4.32014 12.6574 4.39449 12.6573 4.47202V6.22604C12.6574 6.30357 12.6882 6.37793 12.743 6.43275C12.7978 6.48757 12.8722 6.51837 12.9497 6.51838H14.119C14.1966 6.51837 14.2709 6.48757 14.3257 6.43275C14.3806 6.37793 14.4114 6.30357 14.4114 6.22604V4.47202ZM13.8267 5.93371H13.242V4.76436H13.8267V5.93371Z" fill="#5B476B"/>
    <path d="M9.734 1.54844C9.73399 1.47091 9.70319 1.39655 9.64837 1.34173C9.59355 1.28691 9.51919 1.25611 9.44166 1.2561H8.27232C8.19479 1.25611 8.12043 1.28691 8.06561 1.34173C8.01079 1.39655 7.97998 1.47091 7.97998 1.54844V3.30246C7.97998 3.37999 8.01079 3.45434 8.06561 3.50917C8.12043 3.56399 8.19479 3.59479 8.27232 3.59479H9.44166C9.51919 3.59479 9.59355 3.56399 9.64837 3.50917C9.70319 3.45434 9.73399 3.37999 9.734 3.30246V1.54844ZM9.14933 3.01012H8.56465V1.84078H9.14933V3.01012Z" fill="#5B476B"/>
    <path d="M9.734 4.47202C9.73399 4.39449 9.70319 4.32014 9.64837 4.26532C9.59355 4.21049 9.51919 4.17969 9.44166 4.17969H8.27232C8.19479 4.17969 8.12043 4.21049 8.06561 4.26532C8.01079 4.32014 7.97998 4.39449 7.97998 4.47202V6.22604C7.97998 6.30357 8.01079 6.37793 8.06561 6.43275C8.12043 6.48757 8.19479 6.51837 8.27232 6.51838H9.44166C9.51919 6.51837 9.59355 6.48757 9.64837 6.43275C9.70319 6.37793 9.73399 6.30357 9.734 6.22604V4.47202ZM9.14933 5.93371H8.56465V4.76436H9.14933V5.93371Z" fill="#5B476B"/>
    <path d="M7.39538 1.54844C7.39537 1.47091 7.36457 1.39655 7.30975 1.34173C7.25492 1.28691 7.18057 1.25611 7.10304 1.2561H5.93369C5.85616 1.25611 5.78181 1.28691 5.72698 1.34173C5.67216 1.39655 5.64136 1.47091 5.64136 1.54844V3.30246C5.64136 3.37999 5.67216 3.45434 5.72698 3.50917C5.78181 3.56399 5.85616 3.59479 5.93369 3.59479H7.10304C7.18057 3.59479 7.25492 3.56399 7.30975 3.50917C7.36457 3.45434 7.39537 3.37999 7.39538 3.30246V1.54844ZM6.8107 3.01012H6.22603V1.84078H6.8107V3.01012Z" fill="#5B476B"/>
    <path d="M7.39538 4.47202C7.39537 4.39449 7.36457 4.32014 7.30975 4.26532C7.25492 4.21049 7.18057 4.17969 7.10304 4.17969H5.93369C5.85616 4.17969 5.78181 4.21049 5.72698 4.26532C5.67216 4.32014 5.64136 4.39449 5.64136 4.47202V6.22604C5.64136 6.30357 5.67216 6.37793 5.72698 6.43275C5.78181 6.48757 5.85616 6.51837 5.93369 6.51838H7.10304C7.18057 6.51837 7.25492 6.48757 7.30975 6.43275C7.36457 6.37793 7.39537 6.30357 7.39538 6.22604V4.47202ZM6.8107 5.93371H6.22603V4.76436H6.8107V5.93371Z" fill="#5B476B"/>
    <path d="M11.7803 7.10303H10.6109C10.5334 7.10303 10.4591 7.13383 10.4042 7.18865C10.3494 7.24348 10.3186 7.31783 10.3186 7.39536V9.14938C10.3186 9.22691 10.3494 9.30127 10.4042 9.35609C10.4591 9.41091 10.5334 9.44171 10.6109 9.44172H11.7803C11.8578 9.44171 11.9322 9.41091 11.987 9.35609C12.0418 9.30127 12.0726 9.22691 12.0726 9.14938V7.39536C12.0726 7.31783 12.0418 7.24348 11.987 7.18865C11.9322 7.13383 11.8578 7.10303 11.7803 7.10303ZM11.4879 8.85705H10.9033V7.6877H11.4879V8.85705Z" fill="#5B476B"/>
    <path d="M14.119 7.10303H12.9497C12.8722 7.10303 12.7978 7.13383 12.743 7.18865C12.6882 7.24348 12.6574 7.31783 12.6573 7.39536V9.14938C12.6574 9.22691 12.6882 9.30127 12.743 9.35609C12.7978 9.41091 12.8722 9.44171 12.9497 9.44172H14.119C14.1966 9.44171 14.2709 9.41091 14.3257 9.35609C14.3806 9.30127 14.4114 9.22691 14.4114 9.14938V7.39536C14.4114 7.31783 14.3806 7.24348 14.3257 7.18865C14.2709 7.13383 14.1966 7.10303 14.119 7.10303ZM13.8267 8.85705H13.242V7.6877H13.8267V8.85705Z" fill="#5B476B"/>
    <path d="M9.44166 7.10303H8.27232C8.19479 7.10303 8.12043 7.13383 8.06561 7.18865C8.01079 7.24348 7.97998 7.31783 7.97998 7.39536V9.14938C7.97998 9.22691 8.01079 9.30127 8.06561 9.35609C8.12043 9.41091 8.19479 9.44171 8.27232 9.44172H9.44166C9.51919 9.44171 9.59355 9.41091 9.64837 9.35609C9.70319 9.30127 9.73399 9.22691 9.734 9.14938V7.39536C9.73399 7.31783 9.70319 7.24348 9.64837 7.18865C9.59355 7.13383 9.51919 7.10303 9.44166 7.10303ZM9.14933 8.85705H8.56465V7.6877H9.14933V8.85705Z" fill="#5B476B"/>
    <path d="M7.10304 7.10303H5.93369C5.85616 7.10303 5.78181 7.13383 5.72698 7.18865C5.67216 7.24348 5.64136 7.31783 5.64136 7.39536V9.14938C5.64136 9.22691 5.67216 9.30127 5.72698 9.35609C5.78181 9.41091 5.85616 9.44171 5.93369 9.44172H7.10304C7.18057 9.44171 7.25492 9.41091 7.30975 9.35609C7.36457 9.30127 7.39537 9.22691 7.39538 9.14938V7.39536C7.39537 7.31783 7.36457 7.24348 7.30975 7.18865C7.25492 7.13383 7.18057 7.10303 7.10304 7.10303ZM6.8107 8.85705H6.22603V7.6877H6.8107V8.85705Z" fill="#5B476B"/>
    <path d="M15.5808 9.95327V0.963923C15.5806 0.731407 15.4881 0.508489 15.3237 0.344075C15.1593 0.179661 14.9363 0.0871771 14.7038 0.0869141L5.34905 0.0869141C5.11654 0.0871771 4.89362 0.179661 4.72921 0.344075C4.56479 0.508489 4.47231 0.731407 4.47205 0.963923V10.0994H5.05672V0.963923C5.05672 0.886391 5.08752 0.812034 5.14234 0.75721C5.19717 0.702386 5.27152 0.671587 5.34905 0.671587H14.7038C14.7813 0.671587 14.8557 0.702386 14.9105 0.75721C14.9654 0.812034 14.9962 0.886391 14.9962 0.963923V9.95327H15.5808Z" fill="#5B476B"/>
    <path d="M18.2118 10.5381H14.1191C13.964 10.5382 13.8154 10.5999 13.7058 10.7095C13.5962 10.8191 13.5345 10.9677 13.5344 11.1228V11.7074H7.54149V11.2689C7.54134 11.1139 7.47969 10.9653 7.37007 10.8557C7.26046 10.7461 7.11184 10.6844 6.95682 10.6843H0.671587C0.516569 10.6844 0.367946 10.7461 0.258332 10.8557C0.148718 10.9653 0.0870688 11.1139 0.0869141 11.2689L0.0869141 18.285C0.0870688 18.44 0.148718 18.5886 0.258332 18.6983C0.367946 18.8079 0.516569 18.8695 0.671587 18.8697H18.2118C18.3668 18.8695 18.5154 18.8079 18.625 18.6983C18.7346 18.5886 18.7963 18.44 18.7964 18.285V11.1228C18.7963 10.9677 18.7346 10.8191 18.625 10.7095C18.5154 10.5999 18.3668 10.5382 18.2118 10.5381ZM14.1191 11.1228H18.2118V16.9695H14.1191V11.1228ZM7.54149 12.2921H13.5344V12.8768H7.54149V12.2921ZM7.54149 13.4614H13.5344V16.9695H11.9265V15.5078C11.9262 15.1978 11.8029 14.9006 11.5836 14.6813C11.3644 14.4621 11.0672 14.3388 10.7572 14.3385H10.1725C9.8625 14.3388 9.56527 14.4621 9.34606 14.6813C9.12684 14.9006 9.00353 15.1978 9.00317 15.5078V16.9695H7.54149V13.4614ZM11.3419 15.5078V16.9695H9.58784V15.5078C9.588 15.3528 9.64965 15.2042 9.75926 15.0945C9.86888 14.9849 10.0175 14.9233 10.1725 14.9231H10.7572C10.9122 14.9233 11.0608 14.9849 11.1704 15.0945C11.2801 15.2042 11.3417 15.3528 11.3419 15.5078ZM0.671587 11.2689H6.95682V16.9695H0.671587V11.2689ZM0.671587 18.285V17.5542H18.2119L18.2122 18.285H0.671587Z" fill="#5B476B"/>
    <path d="M1.76778 12.146H1.47544C1.39791 12.146 1.32355 12.1768 1.26873 12.2316C1.21391 12.2864 1.18311 12.3608 1.18311 12.4383C1.18311 12.5159 1.21391 12.5902 1.26873 12.645C1.32355 12.6999 1.39791 12.7307 1.47544 12.7307H1.76778C1.84531 12.7307 1.91967 12.6999 1.97449 12.645C2.02931 12.5902 2.06011 12.5159 2.06011 12.4383C2.06011 12.3608 2.02931 12.2864 1.97449 12.2316C1.91967 12.1768 1.84531 12.146 1.76778 12.146Z" fill="#5B476B"/>
    <path d="M1.76778 13.3154H1.47544C1.39791 13.3154 1.32355 13.3462 1.26873 13.4011C1.21391 13.4559 1.18311 13.5302 1.18311 13.6078C1.18311 13.6853 1.21391 13.7597 1.26873 13.8145C1.32355 13.8693 1.39791 13.9001 1.47544 13.9001H1.76778C1.84531 13.9001 1.91967 13.8693 1.97449 13.8145C2.02931 13.7597 2.06011 13.6853 2.06011 13.6078C2.06011 13.5302 2.02931 13.4559 1.97449 13.4011C1.91967 13.3462 1.84531 13.3154 1.76778 13.3154Z" fill="#5B476B"/>
    <path d="M1.76778 14.4846H1.47544C1.39791 14.4846 1.32355 14.5154 1.26873 14.5702C1.21391 14.6251 1.18311 14.6994 1.18311 14.777C1.18311 14.8545 1.21391 14.9288 1.26873 14.9837C1.32355 15.0385 1.39791 15.0693 1.47544 15.0693H1.76778C1.84531 15.0693 1.91967 15.0385 1.97449 14.9837C2.02931 14.9288 2.06011 14.8545 2.06011 14.777C2.06011 14.6994 2.02931 14.6251 1.97449 14.5702C1.91967 14.5154 1.84531 14.4846 1.76778 14.4846Z" fill="#5B476B"/>
    <path d="M1.76778 15.6538H1.47544C1.39791 15.6538 1.32355 15.6846 1.26873 15.7394C1.21391 15.7943 1.18311 15.8686 1.18311 15.9461C1.18311 16.0237 1.21391 16.098 1.26873 16.1529C1.32355 16.2077 1.39791 16.2385 1.47544 16.2385H1.76778C1.84531 16.2385 1.91967 16.2077 1.97449 16.1529C2.02931 16.098 2.06011 16.0237 2.06011 15.9461C2.06011 15.8686 2.02931 15.7943 1.97449 15.7394C1.91967 15.6846 1.84531 15.6538 1.76778 15.6538Z" fill="#5B476B"/>
    <path d="M3.22957 12.146H2.93723C2.8597 12.146 2.78534 12.1768 2.73052 12.2316C2.6757 12.2864 2.6449 12.3608 2.6449 12.4383C2.6449 12.5159 2.6757 12.5902 2.73052 12.645C2.78534 12.6999 2.8597 12.7307 2.93723 12.7307H3.22957C3.3071 12.7307 3.38146 12.6999 3.43628 12.645C3.49111 12.5902 3.52191 12.5159 3.52191 12.4383C3.52191 12.3608 3.49111 12.2864 3.43628 12.2316C3.38146 12.1768 3.3071 12.146 3.22957 12.146Z" fill="#5B476B"/>
    <path d="M3.22957 13.3154H2.93723C2.8597 13.3154 2.78534 13.3462 2.73052 13.4011C2.6757 13.4559 2.6449 13.5302 2.6449 13.6078C2.6449 13.6853 2.6757 13.7597 2.73052 13.8145C2.78534 13.8693 2.8597 13.9001 2.93723 13.9001H3.22957C3.3071 13.9001 3.38146 13.8693 3.43628 13.8145C3.49111 13.7597 3.52191 13.6853 3.52191 13.6078C3.52191 13.5302 3.49111 13.4559 3.43628 13.4011C3.38146 13.3462 3.3071 13.3154 3.22957 13.3154Z" fill="#5B476B"/>
    <path d="M3.22957 14.4846H2.93723C2.8597 14.4846 2.78534 14.5154 2.73052 14.5702C2.6757 14.6251 2.6449 14.6994 2.6449 14.777C2.6449 14.8545 2.6757 14.9288 2.73052 14.9837C2.78534 15.0385 2.8597 15.0693 2.93723 15.0693H3.22957C3.3071 15.0693 3.38146 15.0385 3.43628 14.9837C3.49111 14.9288 3.52191 14.8545 3.52191 14.777C3.52191 14.6994 3.49111 14.6251 3.43628 14.5702C3.38146 14.5154 3.3071 14.4846 3.22957 14.4846Z" fill="#5B476B"/>
    <path d="M3.22957 15.6538H2.93723C2.8597 15.6538 2.78534 15.6846 2.73052 15.7394C2.6757 15.7943 2.6449 15.8686 2.6449 15.9461C2.6449 16.0237 2.6757 16.098 2.73052 16.1529C2.78534 16.2077 2.8597 16.2385 2.93723 16.2385H3.22957C3.3071 16.2385 3.38146 16.2077 3.43628 16.1529C3.49111 16.098 3.52191 16.0237 3.52191 15.9461C3.52191 15.8686 3.49111 15.7943 3.43628 15.7394C3.38146 15.6846 3.3071 15.6538 3.22957 15.6538Z" fill="#5B476B"/>
    <path d="M4.69112 12.146H4.39878C4.32125 12.146 4.24689 12.1768 4.19207 12.2316C4.13724 12.2864 4.10645 12.3608 4.10645 12.4383C4.10645 12.5159 4.13724 12.5902 4.19207 12.645C4.24689 12.6999 4.32125 12.7307 4.39878 12.7307H4.69112C4.76865 12.7307 4.84301 12.6999 4.89783 12.645C4.95265 12.5902 4.98345 12.5159 4.98345 12.4383C4.98345 12.3608 4.95265 12.2864 4.89783 12.2316C4.84301 12.1768 4.76865 12.146 4.69112 12.146Z" fill="#5B476B"/>
    <path d="M4.69112 13.3154H4.39878C4.32125 13.3154 4.24689 13.3462 4.19207 13.4011C4.13724 13.4559 4.10645 13.5302 4.10645 13.6078C4.10645 13.6853 4.13724 13.7597 4.19207 13.8145C4.24689 13.8693 4.32125 13.9001 4.39878 13.9001H4.69112C4.76865 13.9001 4.84301 13.8693 4.89783 13.8145C4.95265 13.7597 4.98345 13.6853 4.98345 13.6078C4.98345 13.5302 4.95265 13.4559 4.89783 13.4011C4.84301 13.3462 4.76865 13.3154 4.69112 13.3154Z" fill="#5B476B"/>
    <path d="M4.69112 14.4846H4.39878C4.32125 14.4846 4.24689 14.5154 4.19207 14.5702C4.13724 14.6251 4.10645 14.6994 4.10645 14.777C4.10645 14.8545 4.13724 14.9288 4.19207 14.9837C4.24689 15.0385 4.32125 15.0693 4.39878 15.0693H4.69112C4.76865 15.0693 4.84301 15.0385 4.89783 14.9837C4.95265 14.9288 4.98345 14.8545 4.98345 14.777C4.98345 14.6994 4.95265 14.6251 4.89783 14.5702C4.84301 14.5154 4.76865 14.4846 4.69112 14.4846Z" fill="#5B476B"/>
    <path d="M4.69112 15.6538H4.39878C4.32125 15.6538 4.24689 15.6846 4.19207 15.7394C4.13724 15.7943 4.10645 15.8686 4.10645 15.9461C4.10645 16.0237 4.13724 16.098 4.19207 16.1529C4.24689 16.2077 4.32125 16.2385 4.39878 16.2385H4.69112C4.76865 16.2385 4.84301 16.2077 4.89783 16.1529C4.95265 16.098 4.98345 16.0237 4.98345 15.9461C4.98345 15.8686 4.95265 15.7943 4.89783 15.7394C4.84301 15.6846 4.76865 15.6538 4.69112 15.6538Z" fill="#5B476B"/>
    <path d="M17.3542 12.3796L15.1617 11.6488C15.1253 11.6367 15.0868 11.6318 15.0485 11.6345C15.0102 11.6372 14.9729 11.6475 14.9385 11.6646C14.8692 11.6993 14.8164 11.7601 14.7919 11.8337C14.7797 11.8701 14.7749 11.9085 14.7776 11.9468C14.7803 11.9851 14.7905 12.0225 14.8077 12.0569C14.8249 12.0912 14.8486 12.1218 14.8776 12.147C14.9066 12.1722 14.9403 12.1914 14.9767 12.2035L17.1692 12.9343C17.2057 12.9465 17.2441 12.9513 17.2824 12.9486C17.3207 12.9459 17.3581 12.9357 17.3925 12.9185C17.4268 12.9014 17.4574 12.8776 17.4826 12.8486C17.5077 12.8196 17.5269 12.7859 17.5391 12.7495C17.5512 12.7131 17.5561 12.6746 17.5534 12.6363C17.5507 12.598 17.5404 12.5606 17.5233 12.5263C17.5061 12.4919 17.4823 12.4613 17.4533 12.4362C17.4243 12.411 17.3907 12.3918 17.3542 12.3796H17.3542Z" fill="#5B476B"/>
    <path d="M17.3542 13.5491L15.1617 12.8182C15.0882 12.7937 15.0079 12.7994 14.9385 12.8341C14.8692 12.8687 14.8164 12.9295 14.7919 13.0031C14.7673 13.0766 14.773 13.1569 14.8077 13.2263C14.8424 13.2957 14.9032 13.3484 14.9767 13.3729L17.1692 14.1038C17.2428 14.1283 17.3231 14.1226 17.3925 14.088C17.4618 14.0533 17.5146 13.9925 17.5391 13.9189C17.5636 13.8454 17.5579 13.7651 17.5233 13.6957C17.4886 13.6264 17.4278 13.5736 17.3542 13.5491H17.3542Z" fill="#5B476B"/>
    <path d="M17.3542 14.7183L15.1617 13.9874C15.0882 13.9629 15.0079 13.9686 14.9385 14.0033C14.8692 14.0379 14.8164 14.0987 14.7919 14.1723C14.7673 14.2458 14.773 14.3261 14.8077 14.3955C14.8424 14.4648 14.9032 14.5176 14.9767 14.5421L17.1692 15.273C17.2057 15.2851 17.2441 15.29 17.2824 15.2873C17.3207 15.2845 17.3581 15.2743 17.3925 15.2571C17.4268 15.24 17.4574 15.2162 17.4826 15.1872C17.5077 15.1582 17.5269 15.1245 17.5391 15.0881C17.5512 15.0517 17.5561 15.0132 17.5534 14.9749C17.5507 14.9366 17.5404 14.8993 17.5233 14.8649C17.5061 14.8306 17.4823 14.7999 17.4533 14.7748C17.4243 14.7496 17.3907 14.7304 17.3542 14.7183H17.3542Z" fill="#5B476B"/>
    <path d="M17.3542 15.8879L15.1617 15.1571C15.0882 15.1326 15.0079 15.1383 14.9385 15.1729C14.8692 15.2076 14.8164 15.2684 14.7919 15.342C14.7673 15.4155 14.773 15.4958 14.8077 15.5652C14.8424 15.6345 14.9032 15.6873 14.9767 15.7118L17.1692 16.4426C17.2057 16.4548 17.2441 16.4596 17.2824 16.4569C17.3207 16.4542 17.3581 16.444 17.3925 16.4268C17.4268 16.4097 17.4574 16.3859 17.4826 16.3569C17.5077 16.3279 17.5269 16.2942 17.5391 16.2578C17.5512 16.2214 17.5561 16.1829 17.5534 16.1446C17.5507 16.1063 17.5404 16.0689 17.5233 16.0346C17.5061 16.0002 17.4823 15.9696 17.4533 15.9445C17.4243 15.9193 17.3907 15.9001 17.3542 15.8879H17.3542Z" fill="#5B476B"/>
    <path d="M6.15291 12.146H5.86057C5.78304 12.146 5.70868 12.1768 5.65386 12.2316C5.59904 12.2864 5.56824 12.3608 5.56824 12.4383C5.56824 12.5159 5.59904 12.5902 5.65386 12.645C5.70868 12.6999 5.78304 12.7307 5.86057 12.7307H6.15291C6.23044 12.7307 6.3048 12.6999 6.35962 12.645C6.41445 12.5902 6.44525 12.5159 6.44525 12.4383C6.44525 12.3608 6.41445 12.2864 6.35962 12.2316C6.3048 12.1768 6.23044 12.146 6.15291 12.146Z" fill="#5B476B"/>
    <path d="M6.15291 13.3154H5.86057C5.78304 13.3154 5.70868 13.3462 5.65386 13.4011C5.59904 13.4559 5.56824 13.5302 5.56824 13.6078C5.56824 13.6853 5.59904 13.7597 5.65386 13.8145C5.70868 13.8693 5.78304 13.9001 5.86057 13.9001H6.15291C6.23044 13.9001 6.3048 13.8693 6.35962 13.8145C6.41445 13.7597 6.44525 13.6853 6.44525 13.6078C6.44525 13.5302 6.41445 13.4559 6.35962 13.4011C6.3048 13.3462 6.23044 13.3154 6.15291 13.3154Z" fill="#5B476B"/>
    <path d="M6.15291 14.4846H5.86057C5.78304 14.4846 5.70868 14.5154 5.65386 14.5702C5.59904 14.6251 5.56824 14.6994 5.56824 14.777C5.56824 14.8545 5.59904 14.9288 5.65386 14.9837C5.70868 15.0385 5.78304 15.0693 5.86057 15.0693H6.15291C6.23044 15.0693 6.3048 15.0385 6.35962 14.9837C6.41445 14.9288 6.44525 14.8545 6.44525 14.777C6.44525 14.6994 6.41445 14.6251 6.35962 14.5702C6.3048 14.5154 6.23044 14.4846 6.15291 14.4846Z" fill="#5B476B"/>
    <path d="M6.15291 15.6538H5.86057C5.78304 15.6538 5.70868 15.6846 5.65386 15.7394C5.59904 15.7943 5.56824 15.8686 5.56824 15.9461C5.56824 16.0237 5.59904 16.098 5.65386 16.1529C5.70868 16.2077 5.78304 16.2385 5.86057 16.2385H6.15291C6.23044 16.2385 6.3048 16.2077 6.35962 16.1529C6.41445 16.098 6.44525 16.0237 6.44525 15.9461C6.44525 15.8686 6.41445 15.7943 6.35962 15.7394C6.3048 15.6846 6.23044 15.6538 6.15291 15.6538Z" fill="#5B476B"/>
</svg>
