<svg width="57" height="56" viewBox="0 0 57 56" fill="none" xmlns="http://www.w3.org/2000/svg">
<path fill-rule="evenodd" clip-rule="evenodd" d="M28.5 52C41.7548 52 52.5 41.2548 52.5 28C52.5 14.7452 41.7548 4 28.5 4C15.2452 4 4.5 14.7452 4.5 28C4.5 41.2548 15.2452 52 28.5 52Z" fill="#F4E5FF"/>
<path d="M36.7783 9.06806C34.5557 7.73447 31.6153 7 28.4986 7C25.382 7 22.4415 7.73447 20.2189 9.06806C17.8844 10.4688 16.5986 12.3694 16.5986 14.42V41.58C16.5986 43.6307 17.8844 45.5314 20.2189 46.9321C22.4415 48.2656 25.382 49 28.4986 49C31.6153 49 34.5557 48.2656 36.7783 46.9321C39.1129 45.5314 40.3986 43.6307 40.3986 41.58V14.42C40.3986 12.3694 39.1129 10.4688 36.7783 9.06806ZM36.058 45.7316C34.0499 46.9365 31.3652 47.6 28.4986 47.6C25.632 47.6 22.9474 46.9365 20.9392 45.7316C19.0541 44.6006 18.0113 43.1367 17.9992 41.6069C18.6369 42.33 19.3863 42.9461 20.2189 43.4319C22.4415 44.7655 25.382 45.5 28.4986 45.5C31.6153 45.5 34.5557 44.7655 36.7783 43.4319C37.611 42.9461 38.3604 42.33 38.998 41.6069C38.986 43.1367 37.9432 44.6006 36.058 45.7316ZM38.9986 38.08C38.9986 39.6194 37.9543 41.0938 36.0581 42.2315C34.0499 43.4364 31.3652 44.1 28.4986 44.1C25.632 44.1 22.9474 43.4364 20.9392 42.2315C19.0429 41.0938 17.9986 39.6194 17.9986 38.08V24.1062C18.6364 24.8296 19.386 25.446 20.2189 25.9319C22.4415 27.2655 25.382 28 28.4986 28C31.6153 28 34.5557 27.2655 36.7783 25.9319C37.6113 25.446 38.3609 24.8296 38.9986 24.1062V38.08ZM38.9986 20.58C38.9986 22.1194 37.9543 23.5938 36.0581 24.7315C34.0499 25.9364 31.3652 26.6 28.4986 26.6C25.632 26.6 22.9474 25.9364 20.9392 24.7315C19.0429 23.5938 17.9986 22.1194 17.9986 20.58V17.9462C18.6364 18.6696 19.386 19.2859 20.2189 19.7719C22.4414 21.1054 25.382 21.8399 28.4986 21.8399C31.6153 21.8399 34.5558 21.1054 36.7783 19.7719C37.6112 19.2859 38.3609 18.6696 38.9986 17.9462V20.58ZM36.0581 18.5715C34.0499 19.7764 31.3652 20.44 28.4986 20.44C25.632 20.44 22.9474 19.7764 20.9392 18.5715C19.0429 17.4338 17.9986 15.9595 17.9986 14.42C17.9986 12.8805 19.0429 11.4062 20.9392 10.2685C22.9474 9.0636 25.632 8.4 28.4986 8.4C31.3652 8.4 34.0499 9.0636 36.0581 10.2685C37.9543 11.4062 38.9986 12.8806 38.9986 14.42C38.9986 15.9594 37.9543 17.4338 36.0581 18.5715Z" fill="#5B476B"/>
<path d="M28.5014 11.2734C25.3088 11.2734 22.9014 12.6276 22.9014 14.4234C22.9014 16.2193 25.3088 17.5734 28.5014 17.5734C31.6939 17.5734 34.1014 16.2192 34.1014 14.4234C34.1014 12.6277 31.6939 11.2734 28.5014 11.2734ZM28.5014 16.1734C25.8992 16.1734 24.3014 15.1542 24.3014 14.4234C24.3014 13.6927 25.8992 12.6734 28.5014 12.6734C31.1035 12.6734 32.7014 13.6926 32.7014 14.4234C32.7014 15.1542 31.1035 16.1734 28.5014 16.1734Z" fill="#5B476B"/>
<path d="M27.8027 41.2988H29.2027V42.6988H27.8027V41.2988Z" fill="#5B476B"/>
<path d="M30.6025 41.2988H32.0025V42.6988H30.6025V41.2988Z" fill="#5B476B"/>
<path d="M25 41.2988H26.4V42.6988H25V41.2988Z" fill="#5B476B"/>
<path d="M45.2979 39.8953C44.9267 39.8949 44.5708 39.7472 44.3084 39.4848C44.0459 39.2223 43.8983 38.8665 43.8979 38.4953H42.4979C42.4979 39.0491 42.6621 39.5905 42.9697 40.0509C43.2774 40.5114 43.7147 40.8703 44.2263 41.0822C44.738 41.2941 45.301 41.3496 45.8441 41.2415C46.3873 41.1335 46.8862 40.8668 47.2778 40.4752C47.6693 40.0836 47.936 39.5847 48.0441 39.0416C48.1521 38.4984 48.0966 37.9354 47.8847 37.4238C47.6728 36.9122 47.3139 36.4749 46.8535 36.1672C46.393 35.8595 45.8516 35.6953 45.2979 35.6953H41.7979V37.0953H45.2979C45.6692 37.0953 46.0253 37.2428 46.2878 37.5054C46.5504 37.7679 46.6979 38.124 46.6979 38.4953C46.6979 38.8666 46.5504 39.2227 46.2878 39.4853C46.0253 39.7478 45.6692 39.8953 45.2979 39.8953Z" fill="#5B476B"/>
<path d="M46.6979 25.8984C45.9555 25.8993 45.2438 26.1945 44.7189 26.7195C44.194 27.2444 43.8987 27.9561 43.8979 28.6984H45.2979C45.2979 28.4215 45.38 28.1509 45.5338 27.9206C45.6876 27.6904 45.9063 27.511 46.1621 27.405C46.4179 27.299 46.6994 27.2713 46.971 27.3253C47.2426 27.3794 47.492 27.5127 47.6878 27.7085C47.8836 27.9043 48.0169 28.1537 48.071 28.4253C48.125 28.6969 48.0972 28.9784 47.9913 29.2342C47.8853 29.49 47.7059 29.7087 47.4757 29.8625C47.2454 30.0163 46.9747 30.0984 46.6979 30.0984H41.7979V31.4984H46.6979C47.4405 31.4984 48.1526 31.2034 48.6778 30.6783C49.2029 30.1532 49.4979 29.441 49.4979 28.6984C49.4979 27.9558 49.2029 27.2436 48.6778 26.7185C48.1526 26.1934 47.4405 25.8984 46.6979 25.8984Z" fill="#5B476B"/>
<path d="M41.7979 32.9004H49.4979V34.3004H41.7979V32.9004Z" fill="#5B476B"/>
<path d="M11.7009 37.0953H15.2009V35.6953H11.7009C11.1471 35.6953 10.6057 35.8595 10.1453 36.1672C9.68483 36.4749 9.32594 36.9122 9.11402 37.4238C8.90209 37.9354 8.84664 38.4984 8.95468 39.0416C9.06272 39.5847 9.32939 40.0836 9.72098 40.4752C10.1126 40.8668 10.6115 41.1335 11.1546 41.2415C11.6978 41.3496 12.2608 41.2941 12.7724 41.0822C13.284 40.8703 13.7213 40.5114 14.029 40.0509C14.3367 39.5905 14.5009 39.0491 14.5009 38.4953H13.1009C13.1009 38.7722 13.0188 39.0429 12.8649 39.2731C12.7111 39.5033 12.4925 39.6828 12.2366 39.7887C11.9808 39.8947 11.6993 39.9224 11.4278 39.8684C11.1562 39.8144 10.9067 39.6811 10.7109 39.4853C10.5151 39.2895 10.3818 39.04 10.3278 38.7684C10.2738 38.4969 10.3015 38.2154 10.4074 37.9596C10.5134 37.7037 10.6929 37.4851 10.9231 37.3313C11.1533 37.1774 11.424 37.0953 11.7009 37.0953Z" fill="#5B476B"/>
<path d="M10.3 31.4984H15.2V30.0984H10.3C10.0231 30.0984 9.75243 30.0163 9.5222 29.8625C9.29197 29.7087 9.11253 29.49 9.00657 29.2342C8.90061 28.9784 8.87288 28.6969 8.9269 28.4253C8.98092 28.1537 9.11426 27.9043 9.31005 27.7085C9.50585 27.5127 9.7553 27.3794 10.0269 27.3253C10.2984 27.2713 10.5799 27.299 10.8358 27.405C11.0916 27.511 11.3102 27.6904 11.4641 27.9206C11.6179 28.1509 11.7 28.4215 11.7 28.6984H13.1C13.1 28.1447 12.9358 27.6033 12.6281 27.1428C12.3204 26.6824 11.8831 26.3235 11.3715 26.1116C10.8599 25.8997 10.2969 25.8442 9.75375 25.9522C9.2106 26.0603 8.71169 26.327 8.3201 26.7185C7.92852 27.1101 7.66184 27.609 7.5538 28.1522C7.44576 28.6953 7.50121 29.2583 7.71314 29.77C7.92506 30.2816 8.28395 30.7189 8.7444 31.0266C9.20486 31.3342 9.74621 31.4984 10.3 31.4984Z" fill="#5B476B"/>
<path d="M7.5 32.9004H15.2V34.3004H7.5V32.9004Z" fill="#5B476B"/>
<path d="M30.3789 23.1336C29.159 23.5376 27.8415 23.5376 26.6216 23.1336C26.4455 23.0749 26.2532 23.0885 26.0872 23.1716C25.9211 23.2546 25.7948 23.4002 25.7361 23.5763C25.6774 23.7525 25.6911 23.9447 25.7741 24.1108C25.8571 24.2768 26.0027 24.4031 26.1789 24.4618C27.6862 24.9608 29.3143 24.9608 30.8216 24.4618C30.9978 24.4031 31.1434 24.2768 31.2264 24.1108C31.3094 23.9447 31.3231 23.7525 31.2644 23.5763C31.2057 23.4002 31.0794 23.2546 30.9133 23.1716C30.7473 23.0885 30.555 23.0749 30.3789 23.1336Z" fill="#5B476B"/>
</svg>
