<svg width="56" height="56" viewBox="0 0 56 56" fill="none" xmlns="http://www.w3.org/2000/svg">
<path fill-rule="evenodd" clip-rule="evenodd" d="M28 52C41.2548 52 52 41.2548 52 28C52 14.7452 41.2548 4 28 4C14.7452 4 4 14.7452 4 28C4 41.2548 14.7452 52 28 52Z" fill="#F4E5FF"/>
<path d="M52 32.2C52.0002 29.7747 51.4192 27.3847 50.3057 25.2302C49.1922 23.0757 47.5785 21.2194 45.6 19.8168V14.6C45.5983 13.1153 45.0078 11.6919 43.9579 10.6421C42.9081 9.59224 41.4847 9.00169 40 9H33.6C32.1153 9.00169 30.6919 9.59224 29.6421 10.6421C28.5922 11.6919 28.0017 13.1153 28 14.6V17H18.4V17.08L4.71201 18.6C4.51544 18.6217 4.33389 18.7155 4.2024 18.8633C4.07092 19.011 3.99881 19.2022 4.00001 19.4V24.2C4 24.3969 4.07264 24.587 4.20401 24.7337C4.33538 24.8804 4.51626 24.9735 4.71201 24.9952L18.4 26.52V26.6H22.6864C21.9684 28.3797 21.5996 30.2809 21.6 32.2C21.5977 35.7589 22.8504 39.2046 25.1376 41.9312L23.2 43.8688V47.4H26.7312L28.944 45.1872C31.3091 46.6341 34.0278 47.3998 36.8004 47.3998C39.573 47.3998 42.2917 46.6341 44.6568 45.1872L46.8688 47.4H50.4V43.8688L48.4624 41.9312C50.7496 39.2046 52.0023 35.7589 52 32.2ZM29.6 14.6C29.6013 13.5395 30.0231 12.5228 30.773 11.773C31.5229 11.0231 32.5395 10.6013 33.6 10.6H40C41.0605 10.6013 42.0772 11.0231 42.827 11.773C43.5769 12.5228 43.9987 13.5395 44 14.6V18.8184C43.964 18.7992 43.924 18.7856 43.8888 18.7672C43.444 18.5352 42.9832 18.3219 42.5064 18.1272C42.4696 18.1128 42.4376 18.0928 42.4008 18.0784V14.6C42.4008 13.9635 42.1479 13.353 41.6979 12.9029C41.2478 12.4529 40.6373 12.2 40.0008 12.2H33.6C32.9635 12.2 32.353 12.4529 31.903 12.9029C31.4529 13.353 31.2 13.9635 31.2 14.6V17H29.6V14.6ZM40.1448 17.3888C39.9181 17.3355 39.6907 17.2888 39.4624 17.2488C39.2488 17.2088 39.0352 17.1688 38.8224 17.1392C38.4789 17.0917 38.1347 17.0565 37.7896 17.0336C37.6296 17.024 37.4696 17.0216 37.3096 17.0176C37.1496 17.0136 36.9704 17 36.8 17H32.8V14.6C32.8 14.3878 32.8843 14.1843 33.0343 14.0343C33.1843 13.8843 33.3878 13.8 33.6 13.8H40C40.2122 13.8 40.4157 13.8843 40.5657 14.0343C40.7157 14.1843 40.8 14.3878 40.8 14.6V17.5472C40.7448 17.532 40.6896 17.5216 40.6344 17.5072C40.4712 17.4632 40.3088 17.4272 40.1448 17.3888ZM5.60001 23.48V20.12L18.4 18.6976V24.9104L5.60001 23.48ZM20 18.6H30.0272C29.449 18.8827 28.8902 19.2034 28.3544 19.56C28.0877 19.7376 27.8288 19.9243 27.5776 20.12C27.4976 20.184 27.4176 20.2528 27.3376 20.3176C27.1704 20.452 27.0024 20.5856 26.8408 20.7264C26.748 20.8064 26.66 20.8928 26.5688 20.976C26.424 21.1088 26.2792 21.2408 26.14 21.376C26.0464 21.468 25.9576 21.5648 25.8672 21.6592C25.7368 21.7952 25.6072 21.9304 25.4816 22.0712C25.3912 22.1728 25.3048 22.2768 25.2176 22.3808C25.0992 22.5216 24.9776 22.6624 24.8672 22.808C24.7824 22.9168 24.7008 23.028 24.6184 23.1384C24.5096 23.2848 24.4024 23.432 24.2984 23.5832C24.2184 23.6984 24.1432 23.8144 24.0672 23.932C23.968 24.0848 23.8712 24.2384 23.7776 24.3944C23.7056 24.5152 23.6352 24.6344 23.5664 24.76C23.5216 24.84 23.4736 24.9152 23.4304 24.9952H20V18.6ZM26.0688 45.8H24.8V44.5312L26.2304 43.1008C26.6631 43.5171 27.1199 43.9077 27.5984 44.2704L26.0688 45.8ZM29.212 43.48L26.4 40.6688L26.272 40.7968C24.6828 38.8561 23.6623 36.5131 23.3236 34.0277C22.985 31.5423 23.3414 29.0117 24.3534 26.7166C25.3654 24.4214 26.9935 22.4515 29.0569 21.0253C31.1203 19.5991 33.5385 18.7723 36.0432 18.6368H36.0488L36.3344 18.6208C38.0349 18.5384 39.7345 18.7994 41.332 19.388C43.3895 20.1119 45.2422 21.3209 46.7334 22.9127C48.2245 24.5045 49.3102 26.4321 49.8985 28.5324C50.4867 30.6327 50.5602 32.8438 50.1128 34.9785C49.6653 37.1132 48.7101 39.1087 47.328 40.796L47.2 40.668L44.388 43.48C42.1461 44.9916 39.5039 45.7992 36.8 45.7992C34.0961 45.7992 31.4539 44.9916 29.212 43.48ZM48.8 45.8H47.5312L46 44.2704C46.4785 43.9077 46.9353 43.5171 47.368 43.1008L48.8 44.5312V45.8Z" fill="#5B476B"/>
<path d="M48.7998 32.1992C48.7964 29.0177 47.531 25.9674 45.2813 23.7177C43.0316 21.468 39.9814 20.2026 36.7998 20.1992C36.5446 20.1992 36.2934 20.216 36.043 20.2344L35.9438 20.2424C34.1601 20.3657 32.4269 20.8879 30.872 21.7704C29.317 22.653 27.9801 23.8734 26.9598 25.3416L27.6158 25.7992L26.9598 25.3416C25.8811 26.887 25.1816 28.6647 24.9179 30.5307C24.6542 32.3967 24.8336 34.2986 25.4418 36.0824C26.05 37.8662 27.0697 39.4816 28.4184 40.7979C29.7671 42.1142 31.4069 43.0943 33.2049 43.6588C35.003 44.2234 36.9087 44.3566 38.7678 44.0475C40.6268 43.7384 42.387 42.9959 43.9056 41.8799C45.4242 40.7639 46.6587 39.306 47.509 37.6241C48.3593 35.9423 48.8015 34.0838 48.7998 32.1992ZM26.3998 32.1992C26.3973 30.0729 27.051 27.9977 28.2718 26.2568C29.1561 24.9847 30.3146 23.9272 31.6619 23.1624C33.0092 22.3976 34.511 21.9448 36.0566 21.8376L36.159 21.8304C36.3718 21.8144 36.5838 21.7992 36.799 21.7992C38.856 21.7991 40.8668 22.4089 42.5771 23.5515C44.2875 24.6942 45.6206 26.3184 46.4079 28.2188C47.1952 30.1191 47.4013 32.2102 47.0001 34.2277C46.5989 36.2451 45.6084 38.0983 44.154 39.5528C42.6996 41.0074 40.8465 41.998 38.829 42.3993C36.8116 42.8007 34.7205 42.5948 32.8201 41.8076C30.9197 41.0205 29.2954 39.6875 28.1526 37.9772C27.0098 36.2669 26.3998 34.2562 26.3998 32.1992Z" fill="#5B476B"/>
<path d="M40.7998 32.1992C40.7998 31.4081 40.5652 30.6347 40.1257 29.9769C39.6862 29.3191 39.0614 28.8065 38.3305 28.5037C37.5996 28.201 36.7954 28.1217 36.0194 28.2761C35.2435 28.4304 34.5308 28.8114 33.9714 29.3708C33.412 29.9302 33.031 30.6429 32.8767 31.4189C32.7223 32.1948 32.8015 32.999 33.1043 33.73C33.407 34.4609 33.9197 35.0856 34.5775 35.5251C35.2353 35.9646 36.0087 36.1992 36.7998 36.1992C37.8603 36.1979 38.877 35.7761 39.6268 35.0262C40.3767 34.2764 40.7985 33.2597 40.7998 32.1992ZM34.3998 32.1992C34.3998 31.7245 34.5406 31.2605 34.8043 30.8659C35.068 30.4712 35.4428 30.1636 35.8814 29.9819C36.3199 29.8003 36.8025 29.7527 37.268 29.8453C37.7336 29.9379 38.1612 30.1665 38.4969 30.5022C38.8325 30.8378 39.0611 31.2654 39.1537 31.731C39.2463 32.1966 39.1988 32.6791 39.0171 33.1177C38.8355 33.5562 38.5279 33.931 38.1332 34.1947C37.7385 34.4585 37.2745 34.5992 36.7998 34.5992C36.1633 34.5992 35.5528 34.3464 35.1028 33.8963C34.6527 33.4462 34.3998 32.8357 34.3998 32.1992Z" fill="#5B476B"/>
</svg>
