
<svg width="25" height="25" viewBox="0 0 25 25" fill="none" xmlns="http://www.w3.org/2000/svg">
    <path fill-rule="evenodd" clip-rule="evenodd" d="M14.4423 6.22123C13.9824 6.40397 13.5048 6.49963 13.008 6.48644C12.9137 6.48512 12.8774 6.46005 12.8721 6.36043C12.7949 5.42032 13.0469 4.56005 13.5002 3.74991C14.2747 2.36647 15.453 1.51213 16.9842 1.13675C17.1152 1.10377 17.25 1.08637 17.3924 1.068C17.4551 1.05991 17.5192 1.05163 17.5852 1.04175C17.5875 1.10469 17.5904 1.16419 17.5932 1.22162C17.5974 1.30865 17.6014 1.39093 17.603 1.47321C17.636 3.17001 16.5395 5.38866 14.4423 6.22123ZM22.379 18.5389C22.4034 18.4672 22.4275 18.3965 22.4518 18.3278C20.598 17.4055 19.4673 15.9845 19.3267 13.8839C19.1875 11.7847 20.1461 10.2343 21.8297 9.06068C21.8181 9.04267 21.8014 9.01852 21.7854 8.99544L21.7789 8.98613C21.1113 8.04933 20.2273 7.4061 19.1407 7.04259C18.3741 6.78596 17.5864 6.68106 16.7789 6.74638C16.2392 6.78926 15.722 6.94099 15.2134 7.12638C14.7173 7.31044 14.2225 7.49846 13.7283 7.68714C13.2817 7.85801 12.8377 7.85801 12.3917 7.69044C11.9075 7.50901 11.4239 7.32627 10.9417 7.14155C10.0253 6.7886 9.09049 6.69624 8.12928 6.92252C6.53143 7.29658 5.31688 8.2037 4.45594 9.58846C3.76983 10.6902 3.47164 11.9127 3.39577 13.1965C3.33112 14.2672 3.43667 15.3234 3.65702 16.3711C4.1683 18.8074 5.22716 20.9825 6.80455 22.9063C7.13771 23.3113 7.49396 23.694 7.91817 24.008C8.2599 24.2607 8.62803 24.4566 9.04893 24.5351C9.53119 24.6262 10.0049 24.5642 10.4614 24.4111C10.736 24.3187 11.0044 24.2086 11.2729 24.0985C11.3895 24.0507 11.5061 24.0029 11.6232 23.9565C12.6952 23.533 13.7791 23.4809 14.869 23.8767C15.0865 23.9558 15.2999 24.047 15.5132 24.1382C15.6292 24.1878 15.7452 24.2374 15.8619 24.2851C16.3191 24.4711 16.7934 24.5609 17.2875 24.545C17.9453 24.5219 18.514 24.2693 19.0081 23.851C19.2581 23.6405 19.5002 23.4136 19.7081 23.1629C20.7847 21.8751 21.6721 20.4699 22.2566 18.8872C22.3 18.7711 22.34 18.6537 22.379 18.5389Z" fill="black"/>
</svg>
