<svg width="65" height="64" viewBox="0 0 65 64" fill="none" xmlns="http://www.w3.org/2000/svg">
<path fill-rule="evenodd" clip-rule="evenodd" d="M32.3331 58.8801C47.1785 58.8801 59.2131 46.8455 59.2131 32.0001C59.2131 17.1547 47.1785 5.12012 32.3331 5.12012C17.4877 5.12012 5.45312 17.1547 5.45312 32.0001C5.45312 46.8455 17.4877 58.8801 32.3331 58.8801Z" fill="#F4E5FF"/>
<path d="M46.0656 11.4285H19.5782C18.4186 11.4285 17.4756 12.3715 17.4756 13.5311C17.4756 18.5453 17.4756 42.9705 17.4756 47.2233C17.4756 48.3828 18.4186 49.3259 19.5782 49.3259H22.689V50.956C22.689 51.2169 22.9007 51.4285 23.1615 51.4285H26.885C27.1459 51.4285 27.3575 51.2169 27.3575 50.956V49.3259H38.2864V50.956C38.2864 51.2169 38.498 51.4285 38.7588 51.4285H42.4823C42.7432 51.4285 42.9548 51.2169 42.9548 50.956V49.3259H46.0656C47.2252 49.3259 48.1682 48.3828 48.1682 47.2233C48.1682 42.9847 48.1682 18.5816 48.1682 13.5311C48.1682 12.3715 47.2252 11.4285 46.0656 11.4285ZM18.4205 13.5311C18.4205 12.8925 18.9397 12.3733 19.5782 12.3733H25.691V18.3398H18.4205V13.5311ZM26.4126 50.4836H23.6339V49.3259H26.4126V50.4836ZM42.0099 50.4836H39.2312V49.3259H42.0099V50.4836H42.0099ZM47.2234 47.2233C47.2234 47.8618 46.7042 48.381 46.0656 48.381C37.8452 48.381 27.6226 48.381 19.5782 48.381C18.9397 48.381 18.4205 47.8618 18.4205 47.2233V19.2846H47.2234V47.2233ZM47.2234 18.3398H26.6359V12.3733H46.0656C46.7042 12.3733 47.2234 12.8925 47.2234 13.5311V18.3398H47.2234Z" fill="#5B476B" stroke="#5B476B" stroke-width="0.5"/>
<path d="M32.8247 44.0201C38.438 44.0201 43.0043 39.4501 43.0043 33.8325C43.0043 28.2155 38.438 23.6455 32.8247 23.6455C27.2077 23.6455 22.6377 28.2155 22.6377 33.8325C22.6377 39.4501 27.2077 44.0201 32.8247 44.0201ZM32.8247 24.5904C37.917 24.5904 42.0595 28.7366 42.0595 33.8325C42.0595 38.9291 37.917 43.0753 32.8247 43.0753C27.7287 43.0753 23.5826 38.9291 23.5826 33.8325C23.5826 28.7366 27.7287 24.5904 32.8247 24.5904Z" fill="#5B476B" stroke="#5B476B" stroke-width="0.5"/>
<path d="M32.8249 41.1756C36.8552 41.1756 40.1346 37.9044 40.1579 33.8753C40.1588 33.8653 40.1591 33.8559 40.1594 33.846C40.1594 33.8414 40.1601 33.837 40.1601 33.8325C40.1601 29.7835 36.8696 26.49 32.8249 26.49C28.776 26.49 25.4824 29.7835 25.4824 33.8325C25.4824 37.8815 28.776 41.1756 32.8249 41.1756ZM32.8249 40.2308C30.7514 40.2308 28.9108 39.2348 27.741 37.7009C31.3382 37.435 33.8686 35.0462 33.9888 34.9306C35.8774 33.043 38.3741 33.8058 39.1999 34.1349C39.0406 37.522 36.2466 40.2308 32.8249 40.2308ZM26.4273 33.8325C26.4273 30.3046 29.297 27.4349 32.8249 27.4349C36.1115 27.4349 38.8243 29.9321 39.1747 33.1308C37.9324 32.731 35.3355 32.2478 33.3275 34.2557C33.3005 34.2816 30.6924 36.7464 27.1501 36.7752C26.6909 35.8932 26.4273 34.8938 26.4273 33.8325Z" fill="#5B476B" stroke="#5B476B" stroke-width="0.5"/>
<path d="M43.379 13.2542C42.2194 13.2542 41.2764 14.1972 41.2764 15.3561C41.2764 16.5157 42.2194 17.4587 43.379 17.4587C44.5379 17.4587 45.481 16.5157 45.481 15.3561C45.481 14.1972 44.5379 13.2542 43.379 13.2542ZM43.379 16.5139C42.7405 16.5139 42.2212 15.9947 42.2212 15.3561C42.2212 14.7182 42.7405 14.199 43.379 14.199C44.0169 14.199 44.5361 14.7182 44.5361 15.3561C44.5361 15.9947 44.0169 16.5139 43.379 16.5139Z" fill="#5B476B" stroke="#5B476B" stroke-width="0.5"/>
<path d="M30.1352 13.7063H28.9129C28.652 13.7063 28.4404 13.9179 28.4404 14.1787C28.4404 14.4396 28.652 14.6512 28.9129 14.6512H30.1352C30.396 14.6512 30.6076 14.4396 30.6076 14.1787C30.6076 13.9179 30.396 13.7063 30.1352 13.7063Z" fill="#5B476B" stroke="#5B476B" stroke-width="0.5"/>
<path d="M33.892 13.7063H32.6697C32.4089 13.7063 32.1973 13.9179 32.1973 14.1787C32.1973 14.4396 32.4089 14.6512 32.6697 14.6512H33.892C34.1529 14.6512 34.3645 14.4396 34.3645 14.1787C34.3645 13.9179 34.1529 13.7063 33.892 13.7063Z" fill="#5B476B" stroke="#5B476B" stroke-width="0.5"/>
<path d="M37.6459 13.7063H36.4236C36.1628 13.7063 35.9512 13.9179 35.9512 14.1787C35.9512 14.4396 36.1628 14.6512 36.4236 14.6512H37.6459C37.9068 14.6512 38.1184 14.4396 38.1184 14.1787C38.1184 13.9179 37.9068 13.7063 37.6459 13.7063Z" fill="#5B476B" stroke="#5B476B" stroke-width="0.5"/>
</svg>
