<svg width="32" height="32" viewBox="0 0 32 32" fill="none" xmlns="http://www.w3.org/2000/svg">
    <path fill-rule="evenodd" clip-rule="evenodd" d="M16.0005 29.44C23.4233 29.44 29.4405 23.4227 29.4405 16C29.4405 8.57728 23.4233 2.55998 16.0005 2.55998C8.57784 2.55998 2.56055 8.57728 2.56055 16C2.56055 23.4227 8.57784 29.44 16.0005 29.44Z" fill="#F4E5FF"/>
    <path d="M22.8673 5.71428H9.62357C9.04378 5.71428 8.57227 6.1858 8.57227 6.76558C8.57227 9.27268 8.57227 21.4853 8.57227 23.6117C8.57227 24.1915 9.04378 24.663 9.62357 24.663H11.179V25.4781C11.179 25.6085 11.2848 25.7143 11.4152 25.7143H13.277C13.4074 25.7143 13.5132 25.6085 13.5132 25.4781V24.663H18.9777V25.4781C18.9777 25.6085 19.0835 25.7143 19.2139 25.7143H21.0756C21.2061 25.7143 21.3119 25.6085 21.3119 25.4781V24.663H22.8673C23.4471 24.663 23.9186 24.1915 23.9186 23.6117C23.9186 21.4924 23.9186 9.29086 23.9186 6.76558C23.9186 6.1858 23.4471 5.71428 22.8673 5.71428ZM9.04471 6.76558C9.04471 6.44632 9.3043 6.18672 9.62357 6.18672H12.68V9.16993H9.04471V6.76558ZM13.0408 25.2418H11.6514V24.663H13.0408V25.2418ZM20.8394 25.2418H19.4501V24.663H20.8394V25.2418H20.8394ZM23.4462 23.6117C23.4462 23.9309 23.1866 24.1905 22.8673 24.1905C18.7571 24.1905 13.6458 24.1905 9.62357 24.1905C9.3043 24.1905 9.0447 23.9309 9.0447 23.6117V9.64237H23.4462V23.6117ZM23.4462 9.16993H13.1524V6.18672H22.8673C23.1866 6.18672 23.4462 6.44632 23.4462 6.76558V9.16993H23.4462Z" fill="#5B476B" stroke="#5B476B" stroke-width="0.285714"/>
    <path d="M16.2458 22.0102C19.0525 22.0102 21.3357 19.7252 21.3357 16.9164C21.3357 14.1079 19.0525 11.8229 16.2458 11.8229C13.4373 11.8229 11.1523 14.1079 11.1523 16.9164C11.1523 19.7252 13.4373 22.0102 16.2458 22.0102ZM16.2458 12.2953C18.792 12.2953 20.8632 14.3684 20.8632 16.9164C20.8632 19.4647 18.792 21.5378 16.2458 21.5378C13.6979 21.5378 11.6248 19.4647 11.6248 16.9164C11.6248 14.3684 13.6979 12.2953 16.2458 12.2953Z" fill="#5B476B" stroke="#5B476B" stroke-width="0.285714"/>
    <path d="M16.2455 20.5879C18.2606 20.5879 19.9003 18.9523 19.912 16.9377C19.9124 16.9327 19.9126 16.928 19.9127 16.9231C19.9127 16.9208 19.913 16.9186 19.913 16.9163C19.913 14.8919 18.2678 13.2451 16.2455 13.2451C14.221 13.2451 12.5742 14.8919 12.5742 16.9163C12.5742 18.9408 14.221 20.5879 16.2455 20.5879ZM16.2455 20.1155C15.2087 20.1155 14.2884 19.6175 13.7035 18.8506C15.5021 18.7176 16.7673 17.5232 16.8274 17.4654C17.7717 16.5216 19.0201 16.903 19.433 17.0675C19.3533 18.7611 17.9563 20.1155 16.2455 20.1155ZM13.0467 16.9163C13.0467 15.1524 14.4815 13.7175 16.2455 13.7175C17.8888 13.7175 19.2451 14.9661 19.4204 16.5655C18.7992 16.3656 17.5007 16.124 16.4968 17.128C16.4833 17.1409 15.1792 18.3733 13.4081 18.3877C13.1785 17.9467 13.0467 17.447 13.0467 16.9163Z" fill="#5B476B" stroke="#5B476B" stroke-width="0.285714"/>
    <path d="M21.524 6.62721C20.9442 6.62721 20.4727 7.09873 20.4727 7.67821C20.4727 8.25799 20.9442 8.72951 21.524 8.72951C22.1034 8.72951 22.575 8.25799 22.575 7.67821C22.575 7.09873 22.1034 6.62721 21.524 6.62721ZM21.524 8.25707C21.2047 8.25707 20.9451 7.99747 20.9451 7.67821C20.9451 7.35925 21.2047 7.09965 21.524 7.09965C21.8429 7.09965 22.1025 7.35925 22.1025 7.67821C22.1025 7.99747 21.8429 8.25707 21.524 8.25707Z" fill="#5B476B" stroke="#5B476B" stroke-width="0.285714"/>
    <path d="M14.9001 6.85329H14.289C14.1585 6.85329 14.0527 6.95909 14.0527 7.08951C14.0527 7.21992 14.1585 7.32573 14.289 7.32573H14.9001C15.0305 7.32573 15.1363 7.21992 15.1363 7.08951C15.1363 6.95909 15.0305 6.85329 14.9001 6.85329Z" fill="#5B476B" stroke="#5B476B" stroke-width="0.285714"/>
    <path d="M16.779 6.85329H16.1679C16.0374 6.85329 15.9316 6.95909 15.9316 7.08951C15.9316 7.21992 16.0374 7.32573 16.1679 7.32573H16.779C16.9094 7.32573 17.0152 7.21992 17.0152 7.08951C17.0152 6.95909 16.9094 6.85329 16.779 6.85329Z" fill="#5B476B" stroke="#5B476B" stroke-width="0.285714"/>
    <path d="M18.656 6.85329H18.0448C17.9144 6.85329 17.8086 6.95909 17.8086 7.08951C17.8086 7.21992 17.9144 7.32573 18.0448 7.32573H18.656C18.7864 7.32573 18.8922 7.21992 18.8922 7.08951C18.8922 6.95909 18.7864 6.85329 18.656 6.85329Z" fill="#5B476B" stroke="#5B476B" stroke-width="0.285714"/>
</svg>
