<svg width="32" height="32" viewBox="0 0 32 32" fill="none" xmlns="http://www.w3.org/2000/svg">
<path fill-rule="evenodd" clip-rule="evenodd" d="M15.6209 6.11812C15.8808 5.93813 16.24 5.96384 16.4714 6.19526L16.5485 6.28759C16.7285 6.54742 16.7028 6.90665 16.4714 7.13807L8.27601 15.3333H25.3333L25.4532 15.3441C25.7642 15.4005 26 15.6727 26 16C26 16.3682 25.7015 16.6667 25.3333 16.6667H8.27601L16.4714 24.8619L16.5485 24.9543C16.7285 25.2141 16.7028 25.5733 16.4714 25.8047C16.2111 26.0651 15.7889 26.0651 15.5286 25.8047L6.19526 16.4714C6.16704 16.4432 6.14134 16.4124 6.11852 16.3795L6.11812 16.3791C6.09091 16.3398 6.0684 16.2982 6.05059 16.2552C6.02054 16.1826 6.00388 16.1057 6.0006 16.0284C6.0002 16.019 6 16.0095 6 16C6 15.909 6.01821 15.8223 6.05119 15.7434C6.08251 15.6682 6.12819 15.5976 6.18825 15.5357C6.19083 15.5331 6.19343 15.5304 6.19605 15.5278M6.19605 15.5278L15.5286 6.19526L15.6209 6.11812" fill="#5B476B"/>
</svg>