<svg width="49" height="48" viewBox="0 0 49 48" fill="none" xmlns="http://www.w3.org/2000/svg">
<path fill-rule="evenodd" clip-rule="evenodd" d="M24.4998 44.1598C35.6339 44.1598 44.6598 35.1339 44.6598 23.9998C44.6598 12.8658 35.6339 3.83984 24.4998 3.83984C13.3658 3.83984 4.33984 12.8658 4.33984 23.9998C4.33984 35.1339 13.3658 44.1598 24.4998 44.1598Z" fill="#F4E5FF"/>
<path d="M22.7121 8.72559C20.0449 8.72559 17.4376 9.5165 15.2199 10.9983C13.0022 12.4801 11.2738 14.5863 10.2531 17.0504C9.23241 19.5146 8.96535 22.226 9.48569 24.842C10.006 27.4579 11.2904 29.8608 13.1764 31.7468C15.0624 33.6327 17.4652 34.9171 20.0812 35.4375C22.6971 35.9578 25.4086 35.6907 27.8727 34.67C30.3369 33.6494 32.443 31.9209 33.9248 29.7032C35.4066 27.4855 36.1976 24.8783 36.1976 22.2111C36.1976 18.6345 34.7768 15.2044 32.2477 12.6754C29.7187 10.1464 26.2886 8.72559 22.7121 8.72559V8.72559ZM22.7121 34.7975C20.2227 34.7975 17.7892 34.0594 15.7194 32.6763C13.6496 31.2933 12.0363 29.3276 11.0837 27.0277C10.131 24.7278 9.8818 22.1971 10.3674 19.7556C10.8531 17.314 12.0518 15.0714 13.8121 13.3111C15.5723 11.5509 17.815 10.3521 20.2566 9.86646C22.6981 9.38081 25.2288 9.63007 27.5287 10.5827C29.8286 11.5353 31.7943 13.1486 33.1773 15.2184C34.5603 17.2882 35.2985 19.7217 35.2985 22.2111C35.2985 25.5492 33.9725 28.7506 31.612 31.111C29.2516 33.4715 26.0502 34.7975 22.7121 34.7975Z" fill="#5B476B"/>
<path d="M22.7125 12.3213C20.9767 12.3243 19.2721 12.7825 17.7687 13.6502C16.2653 14.5178 15.0158 15.7646 14.1447 17.266C14.0872 17.3701 14.0712 17.4921 14.0998 17.6076C14.1151 17.665 14.1417 17.7188 14.178 17.7659C14.2142 17.8129 14.2595 17.8523 14.3111 17.8818L20.1548 21.2532C20.2239 21.2904 20.301 21.3104 20.3795 21.3116C20.4184 21.316 20.4576 21.316 20.4964 21.3116C20.5538 21.2963 20.6076 21.2697 20.6547 21.2334C20.7017 21.1972 20.7411 21.1519 20.7706 21.1003C20.9658 20.7568 21.248 20.4708 21.589 20.2712C21.9299 20.0715 22.3174 19.9652 22.7125 19.9631C22.8317 19.9631 22.9461 19.9157 23.0304 19.8314C23.1147 19.7471 23.162 19.6328 23.162 19.5135V12.7708C23.162 12.6516 23.1147 12.5373 23.0304 12.4529C22.9461 12.3686 22.8317 12.3213 22.7125 12.3213ZM22.263 19.0955C21.4637 19.2111 20.7395 19.6295 20.2402 20.2642L15.1606 17.3334C15.9349 16.1351 16.9824 15.1374 18.217 14.4225C19.4517 13.7075 20.8383 13.2955 22.263 13.2203V19.0955Z" fill="#5B476B"/>
<path d="M22.7125 24.4589C22.3188 24.4581 21.9321 24.3538 21.5913 24.1566C21.2505 23.9594 20.9675 23.6761 20.7706 23.3351C20.7411 23.2835 20.7017 23.2382 20.6547 23.202C20.6076 23.1657 20.5538 23.1391 20.4964 23.1238C20.4393 23.1085 20.3797 23.1045 20.3211 23.1122C20.2625 23.12 20.206 23.1392 20.1548 23.1688L14.3111 26.5401C14.2595 26.5696 14.2142 26.609 14.178 26.6561C14.1417 26.7031 14.1151 26.7569 14.0998 26.8143C14.0712 26.9298 14.0872 27.0518 14.1447 27.156C15.0158 28.6574 16.2653 29.9041 17.7687 30.7718C19.2721 31.6394 20.9767 32.0976 22.7125 32.1006C22.8317 32.1006 22.9461 32.0533 23.0304 31.969C23.1147 31.8847 23.162 31.7703 23.162 31.6511V24.9084C23.162 24.7892 23.1147 24.6748 23.0304 24.5905C22.9461 24.5062 22.8317 24.4589 22.7125 24.4589ZM22.263 31.2016C20.8395 31.1279 19.4536 30.718 18.2191 30.0054C16.9846 29.2928 15.9364 28.2978 15.1606 27.102L20.2402 24.1712C20.7395 24.8059 21.4637 25.2243 22.263 25.3399V31.2016Z" fill="#5B476B"/>
<path d="M31.2796 17.2669C31.2502 17.2154 31.2109 17.1702 31.164 17.1339C31.1171 17.0977 31.0635 17.071 31.0063 17.0556C30.949 17.0401 30.8893 17.0361 30.8305 17.0439C30.7717 17.0516 30.715 17.0709 30.6637 17.1006L24.82 20.472C24.768 20.5019 24.7224 20.5421 24.6862 20.5899C24.6499 20.6378 24.6235 20.6925 24.6087 20.7507C24.5941 20.8081 24.5909 20.8678 24.5994 20.9264C24.6078 20.985 24.6278 21.0414 24.6582 21.0923C24.8555 21.434 24.9593 21.8216 24.9593 22.2161C24.9593 22.6106 24.8555 22.9982 24.6582 23.3399C24.6278 23.3908 24.6078 23.4471 24.5994 23.5058C24.5909 23.5644 24.5941 23.6241 24.6087 23.6815C24.6235 23.7397 24.6499 23.7944 24.6862 23.8423C24.7224 23.8901 24.768 23.9302 24.82 23.9602L30.6637 27.3316C30.7156 27.3609 30.7727 27.3797 30.8319 27.3868C30.891 27.3939 30.951 27.3891 31.0083 27.3728C31.0656 27.3565 31.1191 27.3289 31.1657 27.2918C31.2122 27.2546 31.251 27.2085 31.2796 27.1563C32.1475 25.6529 32.6045 23.9475 32.6045 22.2116C32.6045 20.4756 32.1475 18.7703 31.2796 17.2669ZM30.7132 26.3112L25.6336 23.3803C25.9338 22.6301 25.9338 21.7931 25.6336 21.0429L30.7132 18.112C31.3633 19.3808 31.7023 20.786 31.7023 22.2116C31.7023 23.6372 31.3633 25.0424 30.7132 26.3112V26.3112Z" fill="#5B476B"/>
<path d="M22.7118 10.5234C20.4003 10.5234 18.1406 11.2089 16.2187 12.4931C14.2967 13.7774 12.7987 15.6027 11.9141 17.7383C11.0295 19.8739 10.798 22.2238 11.249 24.491C11.7 26.7581 12.8131 28.8406 14.4476 30.4751C16.0821 32.1096 18.1646 33.2228 20.4317 33.6737C22.6989 34.1247 25.0488 33.8932 27.1844 33.0086C29.32 32.124 31.1454 30.626 32.4296 28.704C33.7138 26.7821 34.3993 24.5224 34.3993 22.2109C34.3993 19.1112 33.1679 16.1384 30.9761 13.9466C28.7843 11.7548 25.8115 10.5234 22.7118 10.5234V10.5234ZM22.7118 32.9993C20.5781 32.9993 18.4923 32.3665 16.7181 31.1811C14.944 29.9956 13.5612 28.3107 12.7447 26.3394C11.9281 24.3681 11.7145 22.1989 12.1307 20.1062C12.547 18.0134 13.5745 16.0911 15.0833 14.5823C16.5921 13.0735 18.5144 12.046 20.6071 11.6298C22.6999 11.2135 24.8691 11.4271 26.8404 12.2437C28.8117 13.0602 30.4966 14.443 31.6821 16.2172C32.8675 17.9913 33.5002 20.0771 33.5002 22.2109C33.5002 25.0721 32.3636 27.8162 30.3404 29.8394C28.3172 31.8626 25.5731 32.9993 22.7118 32.9993Z" fill="#5B476B"/>
<path d="M16.9535 17.3289L19.8214 18.9831C19.8895 19.0235 19.967 19.0452 20.0462 19.046C20.1419 19.0451 20.2348 19.0136 20.3114 18.9561C20.5548 18.778 20.8171 18.6272 21.0935 18.5066C21.2032 18.4589 21.2895 18.3696 21.3333 18.2583C21.3771 18.1471 21.375 18.0229 21.3273 17.9132C21.2796 17.8036 21.1903 17.7173 21.079 17.6735C20.9677 17.6296 20.8436 17.6318 20.7339 17.6795C20.4875 17.788 20.25 17.9158 20.0237 18.0616L17.403 16.5512C17.3003 16.4975 17.1807 16.4855 17.0694 16.5178C16.958 16.5501 16.8635 16.6242 16.8055 16.7246C16.7474 16.8249 16.7304 16.9439 16.758 17.0565C16.7856 17.1691 16.8556 17.2667 16.9535 17.3289V17.3289Z" fill="#5B476B"/>
<path d="M29.8185 19.6625L26.9551 21.3122C26.8771 21.3563 26.8141 21.4226 26.774 21.5027C26.734 21.5828 26.7188 21.673 26.7303 21.7618C26.7656 22.0604 26.7656 22.3622 26.7303 22.6608C26.7235 22.7199 26.7284 22.7798 26.7449 22.8369C26.7613 22.8941 26.7889 22.9474 26.8261 22.9938C26.8634 23.0403 26.9094 23.0788 26.9616 23.1073C27.0139 23.1358 27.0712 23.1536 27.1304 23.1598H27.1798C27.291 23.1604 27.3984 23.1199 27.4814 23.046C27.5644 22.9722 27.6171 22.8701 27.6294 22.7597C27.6494 22.5776 27.6584 22.3945 27.6563 22.2113C27.6563 22.1259 27.6563 22.0405 27.6563 21.9551L30.2725 20.4447C30.3239 20.4152 30.3689 20.3758 30.4051 20.3289C30.4412 20.282 30.4678 20.2284 30.4832 20.1712C30.4987 20.114 30.5027 20.0544 30.4951 19.9956C30.4875 19.9369 30.4684 19.8802 30.4388 19.8288C30.4093 19.7775 30.37 19.7324 30.3231 19.6963C30.2761 19.6601 30.2226 19.6336 30.1654 19.6181C30.1082 19.6027 30.0485 19.5987 29.9898 19.6063C29.931 19.6139 29.8744 19.633 29.823 19.6625H29.8185Z" fill="#5B476B"/>
<path d="M19.6824 25.5597C19.6475 25.6074 19.6223 25.6616 19.6084 25.7191C19.5944 25.7767 19.592 25.8364 19.6012 25.8949C19.6103 25.9533 19.631 26.0094 19.6619 26.0599C19.6928 26.1104 19.7334 26.1542 19.7813 26.189C19.9976 26.3476 20.226 26.4889 20.4646 26.6115V29.6368C20.4646 29.756 20.5119 29.8703 20.5962 29.9546C20.6805 30.0389 20.7949 30.0863 20.9141 30.0863C21.0333 30.0863 21.1477 30.0389 21.232 29.9546C21.3163 29.8703 21.3636 29.756 21.3636 29.6368V26.3283C21.3639 26.2406 21.3386 26.1547 21.2906 26.0812C21.2427 26.0077 21.1743 25.9499 21.0939 25.9148C20.8174 25.7942 20.5551 25.6434 20.3118 25.4653C20.2643 25.4301 20.2103 25.4046 20.1529 25.3903C20.0956 25.376 20.036 25.3732 19.9775 25.3819C19.9191 25.3907 19.8629 25.4109 19.8123 25.4414C19.7616 25.4719 19.7175 25.5121 19.6824 25.5597Z" fill="#5B476B"/>
</svg>
