<svg width="32" height="33" viewBox="0 0 32 33" fill="none" xmlns="http://www.w3.org/2000/svg">
<path fill-rule="evenodd" clip-rule="evenodd" d="M15.7256 29.6661C23.1484 29.6661 29.1656 23.6488 29.1656 16.2261C29.1656 8.80343 23.1484 2.78613 15.7256 2.78613C8.30294 2.78613 2.28564 8.80343 2.28564 16.2261C2.28564 23.6488 8.30294 29.6661 15.7256 29.6661Z" fill="#F4E5FF"/>
<path fill-rule="evenodd" clip-rule="evenodd" d="M19.6043 17.4867C19.438 19.3313 17.8878 20.7768 16 20.7768C14.1121 20.7768 12.5619 19.3313 12.3957 17.4867H9.41988C9.23817 17.4867 9.09087 17.3394 9.09087 17.1577C9.09087 13.4522 12.0079 10.4281 15.671 10.2563V6.30059H5.47183C5.29012 6.30059 5.14282 6.15329 5.14282 5.97158C5.14282 5.78988 5.29012 5.64258 5.47183 5.64258H26.5281C26.7098 5.64258 26.8571 5.78988 26.8571 5.97158C26.8571 6.15329 26.7098 6.30059 26.5281 6.30059H16.329V10.2563C19.992 10.4281 22.9091 13.4522 22.9091 17.1577C22.9091 17.3394 22.7618 17.4867 22.5801 17.4867H19.6043ZM16 20.1188C17.5241 20.1188 18.7793 18.9672 18.9429 17.4867H13.057C13.2207 18.9672 14.4758 20.1188 16 20.1188ZM16 10.9066C12.6579 10.9066 9.92848 13.5293 9.7574 16.8287H22.2425C22.0714 13.5293 19.342 10.9066 16 10.9066ZM20.8854 21.5779L23.2118 23.9043C23.522 24.2145 23.0567 24.6798 22.7466 24.3696L20.4202 22.0432C20.11 21.733 20.5752 21.2677 20.8854 21.5779ZM11.5798 22.0432L9.25337 24.3696C8.94318 24.6798 8.47791 24.2145 8.7881 23.9043L11.1145 21.5779C11.4247 21.2677 11.89 21.733 11.5798 22.0432ZM15.671 23.7378C15.671 23.5561 15.8183 23.4088 16 23.4088C16.1817 23.4088 16.329 23.5561 16.329 23.7378V27.0279C16.329 27.2096 16.1817 27.3569 16 27.3569C15.8183 27.3569 15.671 27.2096 15.671 27.0279V23.7378Z" fill="#5B476B" stroke="#5B476B" stroke-width="0.114286"/>
</svg>
