<svg width="33" height="32" viewBox="0 0 33 32" fill="none" xmlns="http://www.w3.org/2000/svg">
    <path fill-rule="evenodd" clip-rule="evenodd" d="M16.5001 29.4405C23.9228 29.4405 29.9401 23.4233 29.9401 16.0005C29.9401 8.57784 23.9228 2.56055 16.5001 2.56055C9.07735 2.56055 3.06006 8.57784 3.06006 16.0005C3.06006 23.4233 9.07735 29.4405 16.5001 29.4405Z" fill="#F4E5FF"/>
    <path d="M30.2477 6.65424H2.76511C2.49311 6.65424 2.27295 6.43408 2.27295 6.16208C2.27295 5.89008 2.49311 5.66992 2.76511 5.66992H30.2477C30.5197 5.66992 30.7395 5.89008 30.7395 6.16208C30.7395 6.43408 30.5193 6.65424 30.2477 6.65424Z" fill="#5B476B"/>
    <path d="M16.5062 24.8069C10.9338 24.8069 6.86975 24.582 5.32703 21.6658C4.88447 20.8325 4.73535 18.8079 4.73535 18.0133C4.73535 17.7413 4.95551 17.5215 5.22751 17.5215H17.1942C17.4662 17.5215 17.6864 17.7416 17.6864 18.0133C17.6864 18.2856 17.4662 18.5055 17.1942 18.5055H5.73183C5.78079 19.5224 5.96671 20.773 6.19615 21.2056C7.48255 23.6354 11.2806 23.8229 16.5059 23.8229C16.9357 23.8008 17.4339 23.8229 17.8867 23.8181C17.8886 23.8181 17.8909 23.8181 17.8922 23.8181C18.1619 23.8181 18.3814 24.0354 18.3843 24.3052C18.3869 24.5765 18.1686 24.7992 17.8973 24.8024C17.4406 24.8069 16.9773 24.8069 16.5062 24.8069Z" fill="#5B476B"/>
    <path d="M9.1971 26.1337C9.10206 26.1337 9.00574 26.1055 8.92126 26.0489C8.6963 25.8959 8.63774 25.59 8.79006 25.3653L9.77438 23.9138C9.92798 23.6892 10.2345 23.6332 10.4582 23.7826C10.6832 23.9353 10.7417 24.2412 10.5894 24.4658L9.6051 25.9173C9.51006 26.0575 9.35486 26.1337 9.1971 26.1337Z" fill="#5B476B"/>
    <path d="M17.871 18.5055H3.98874C3.71642 18.5055 3.49658 18.2853 3.49658 18.0133C3.49658 17.7413 3.71674 17.5215 3.98874 17.5215H17.871C18.1433 17.5215 18.3631 17.7416 18.3631 18.0133C18.3631 18.2856 18.1433 18.5055 17.871 18.5055Z" fill="#5B476B"/>
    <path d="M6.48996 18.406C6.21796 18.406 5.9978 18.1859 5.9978 17.9139V10.1628C5.9978 9.14588 6.93604 8.31836 8.08932 8.31836C9.2426 8.31836 10.1812 9.14588 10.1812 10.1628V10.9011C10.1812 11.1731 9.961 11.3932 9.689 11.3932C9.417 11.3932 9.19684 11.1731 9.19684 10.9011V10.1628C9.19684 9.68892 8.69988 9.30268 8.08964 9.30268C7.4794 9.30268 6.98244 9.68892 6.98244 10.1628V17.9139C6.98212 18.1856 6.76196 18.406 6.48996 18.406Z" fill="#5B476B"/>
    <path d="M28.1444 26.6471H18.1786C17.9066 26.6471 17.6868 26.4269 17.6868 26.1552V6.53122C17.6868 6.25922 17.9069 6.03906 18.1786 6.03906C18.4503 6.03906 18.6711 6.25922 18.6711 6.53122V25.6627H27.6519V6.53122C27.6519 6.25922 27.872 6.03906 28.144 6.03906C28.4164 6.03906 28.6362 6.25922 28.6362 6.53122V26.1552C28.6365 26.4269 28.4164 26.6471 28.1444 26.6471Z" fill="#5B476B"/>
    <path d="M25.6526 26.6471C25.3806 26.6471 25.1604 26.4269 25.1604 26.1552V6.53122C25.1604 6.25922 25.3806 6.03906 25.6526 6.03906C25.9246 6.03906 26.1444 6.25922 26.1444 6.53122V26.1552C26.1447 26.4269 25.9246 26.6471 25.6526 26.6471Z" fill="#5B476B"/>
    <path d="M23.1613 26.6471C22.8893 26.6471 22.6692 26.4269 22.6692 26.1552V6.53122C22.6692 6.25922 22.8893 6.03906 23.1613 6.03906C23.4333 6.03906 23.6535 6.25922 23.6535 6.53122V26.1552C23.6535 26.4269 23.4333 26.6471 23.1613 26.6471Z" fill="#5B476B"/>
    <path d="M20.6701 26.6471C20.3981 26.6471 20.178 26.4269 20.178 26.1552V6.53122C20.178 6.25922 20.3981 6.03906 20.6701 6.03906C20.9421 6.03906 21.1623 6.25922 21.1623 6.53122V26.1552C21.1623 26.4269 20.9421 26.6471 20.6701 26.6471Z" fill="#5B476B"/>
    <path d="M11.3304 11.9677H8.09006C7.81806 11.9677 7.5979 11.7476 7.5979 11.4756C7.5979 11.2036 7.81806 10.9834 8.09006 10.9834H11.3301C11.6024 10.9834 11.8222 11.2036 11.8222 11.4756C11.8222 11.7476 11.6024 11.9677 11.3304 11.9677Z" fill="#5B476B"/>
</svg>
