<svg width="33" height="32" viewBox="0 0 33 32" fill="none" xmlns="http://www.w3.org/2000/svg">
    <path fill-rule="evenodd" clip-rule="evenodd" d="M16.5001 29.4405C23.9228 29.4405 29.9401 23.4233 29.9401 16.0005C29.9401 8.57784 23.9228 2.56055 16.5001 2.56055C9.07735 2.56055 3.06006 8.57784 3.06006 16.0005C3.06006 23.4233 9.07735 29.4405 16.5001 29.4405Z" fill="#F4E5FF"/>
    <path d="M23.1071 27.125C22.8458 27.125 22.6345 26.9133 22.6345 26.6523V19.6035H4.33722V26.6523C4.33722 26.9136 4.12555 27.125 3.86426 27.125C3.60298 27.125 3.3916 26.9133 3.3916 26.6523V19.1309C3.3916 18.8693 3.60298 18.6582 3.86426 18.6582H23.1071C23.3687 18.6582 23.5801 18.8696 23.5801 19.1309V26.6523C23.5801 26.9133 23.3684 27.125 23.1071 27.125Z" fill="#5B476B"/>
    <path d="M23.1071 24.0989H3.86426C3.60298 24.0989 3.3916 23.8873 3.3916 23.6263C3.3916 23.3647 3.60298 23.1533 3.86426 23.1533H23.1071C23.3687 23.1533 23.5801 23.365 23.5801 23.6263C23.5801 23.8876 23.3684 24.0989 23.1071 24.0989Z" fill="#5B476B"/>
    <path fill-rule="evenodd" clip-rule="evenodd" d="M5.84332 19.6028H21.1282C21.3894 19.6028 21.6011 19.3912 21.6008 19.1302V13.389C21.6008 13.1277 21.3894 12.916 21.1282 12.916H5.84332C5.58174 12.916 5.37036 13.1277 5.37036 13.389V19.1302C5.37036 19.3912 5.58174 19.6028 5.84332 19.6028ZM20.6543 18.6578H6.31477V13.8622H20.6543V18.6578Z" fill="#5B476B"/>
    <path fill-rule="evenodd" clip-rule="evenodd" d="M8.1438 19.2881H19.0062C19.2675 19.2881 19.4788 19.0764 19.4788 18.8148V15.8655C19.4788 15.6042 19.2678 15.3926 19.0062 15.3926H8.1438C7.88252 15.3926 7.67114 15.604 7.67114 15.8655V18.8151C7.67114 19.0764 7.88252 19.2881 8.1438 19.2881ZM18.5333 18.3424H8.61621V16.3387H18.5333V18.3424Z" fill="#5B476B"/>
    <path d="M13.5742 19.2885C13.3129 19.2885 13.1016 19.0768 13.1016 18.8155V16.1025C13.1016 15.8413 13.3129 15.6299 13.5742 15.6299C13.8358 15.6299 14.0472 15.8416 14.0472 16.1025V18.8155C14.0472 19.0768 13.8355 19.2885 13.5742 19.2885Z" fill="#5B476B"/>
    <path d="M25.6956 27.1251C25.695 27.1251 25.6947 27.1251 25.6941 27.1251C25.4331 27.1242 25.2223 26.9117 25.2229 26.6516L25.2617 11.5919C25.2622 11.3306 25.4742 11.1201 25.7343 11.1201C25.7349 11.1201 25.7355 11.1201 25.7358 11.1201C25.9968 11.121 26.2076 11.3335 26.2073 11.594L26.1682 26.6536C26.1679 26.9146 25.956 27.1251 25.6956 27.1251Z" fill="#5B476B"/>
    <path fill-rule="evenodd" clip-rule="evenodd" d="M29.0181 11.5113H29.0369C29.2976 11.5113 29.5096 11.2997 29.5096 11.0384C29.5096 10.9571 29.489 10.8804 29.4529 10.8129L28.3112 5.5705C28.2636 5.35325 28.0716 5.19824 27.8488 5.19824H23.6509C23.4284 5.19824 23.2364 5.35354 23.1888 5.5705L22.0198 10.9377C21.9896 11.0774 22.0236 11.2242 22.1138 11.3349C22.2036 11.4468 22.3389 11.5113 22.4819 11.5113H29.0181ZM28.4313 10.5656H23.0688L24.0317 6.14397H27.4684L28.4313 10.5656Z" fill="#5B476B"/>
    <path d="M24.4549 11.5112C24.4276 11.5112 24.3997 11.5082 24.3721 11.5038C24.115 11.4586 23.9435 11.2129 23.989 10.9551L24.895 5.86418C24.9408 5.6073 25.183 5.43644 25.4431 5.48195C25.7003 5.52716 25.8714 5.77288 25.8259 6.03035L24.9199 11.1213C24.8797 11.3506 24.6801 11.5112 24.4549 11.5112Z" fill="#5B476B"/>
    <path d="M26.9757 11.2265C26.7505 11.2265 26.5515 11.0659 26.5106 10.837L25.6038 5.75424C25.5583 5.49736 25.7288 5.25193 25.9863 5.20584C26.2502 5.16709 26.4889 5.33149 26.5347 5.58808L27.4416 10.6705C27.4871 10.9274 27.3162 11.1728 27.059 11.2192C27.0312 11.2239 27.003 11.2265 26.9757 11.2265Z" fill="#5B476B"/>
</svg>
