<svg width="50" height="50" viewBox="0 0 50 50" fill="none" xmlns="http://www.w3.org/2000/svg">
    <path fill-rule="evenodd" clip-rule="evenodd" d="M25 1C11.7452 1 1 11.7452 1 25C1 38.2548 11.7452 49 25 49C38.2548 49 49 38.2548 49 25C49 11.7452 38.2548 1 25 1Z" fill="#5B476B" stroke="#F3F3F6"/>
    <path fill-rule="evenodd" clip-rule="evenodd" d="M29.7347 33.9698C29.4896 34.2148 29.1093 34.242 28.8342 34.0514L28.7364 33.9698L20.2658 25.4992C20.0208 25.2541 19.9935 24.8738 20.1841 24.5987L20.2658 24.5009L28.7364 16.0303C29.0121 15.7547 29.459 15.7547 29.7347 16.0303C29.9797 16.2754 30.0069 16.6557 29.8163 16.9308L29.7347 17.0286L21.7631 25L29.7347 32.9715C29.9797 33.2165 30.0069 33.5969 29.8163 33.872L29.7347 33.9698Z" fill="white"/>
</svg>
