<svg width="50" height="50" viewBox="0 0 50 50" fill="none" xmlns="http://www.w3.org/2000/svg">
    <path fill-rule="evenodd" clip-rule="evenodd" d="M25 49C38.2548 49 49 38.2548 49 25C49 11.7452 38.2548 1 25 1C11.7452 1 1 11.7452 1 25C1 38.2548 11.7452 49 25 49Z" fill="#5B476B" stroke="#F3F3F6"/>
    <path fill-rule="evenodd" clip-rule="evenodd" d="M20.2653 16.0302C20.5104 15.7852 20.8907 15.758 21.1658 15.9486L21.2636 16.0302L29.7342 24.5008C29.9792 24.7459 30.0065 25.1262 29.8159 25.4013L29.7342 25.4991L21.2636 33.9697C20.9879 34.2453 20.541 34.2453 20.2653 33.9697C20.0203 33.7246 19.9931 33.3443 20.1837 33.0692L20.2653 32.9714L28.2369 25L20.2653 17.0285C20.0203 16.7835 19.9931 16.4031 20.1837 16.128L20.2653 16.0302Z" fill="white"/>
</svg>
