<svg width="50" height="50" viewBox="0 0 50 50" fill="none" xmlns="http://www.w3.org/2000/svg">
<path fill-rule="evenodd" clip-rule="evenodd" d="M24.5715 45.5715C36.1695 45.5715 45.5715 36.1695 45.5715 24.5715C45.5715 12.9736 36.1695 3.57153 24.5715 3.57153C12.9736 3.57153 3.57153 12.9736 3.57153 24.5715C3.57153 36.1695 12.9736 45.5715 24.5715 45.5715Z" fill="#F4E5FF"/>
<path d="M42.2694 27.3495C41.9643 27.3495 41.6549 27.3495 41.3498 27.3495C40.5161 27.3495 39.6781 27.3495 38.8445 27.3495C37.6068 27.3495 36.3735 27.3495 35.1359 27.3495C33.6275 27.3495 32.1191 27.3495 30.6108 27.3495C28.9563 27.3495 27.3061 27.3495 25.6517 27.3495C23.9843 27.3495 22.3169 27.3495 20.6453 27.3495C19.0853 27.3495 17.5211 27.3495 15.9612 27.3495C14.6505 27.3495 13.3441 27.3495 12.0334 27.3495C11.0837 27.3495 10.134 27.3495 9.1843 27.3495C8.73738 27.3495 8.29045 27.3409 7.84353 27.3495C7.82634 27.3495 7.80486 27.3495 7.78767 27.3495C7.43958 27.3495 7.14307 27.646 7.14307 27.9941C7.14307 29.6099 7.14307 31.2214 7.14307 32.8372C7.14307 35.3898 7.14307 37.9381 7.14307 40.4908C7.14307 41.0752 7.14307 41.6553 7.14307 42.2398C7.14307 42.5879 7.43958 42.8844 7.78767 42.8844C8.09278 42.8844 8.40218 42.8844 8.70729 42.8844C9.54098 42.8844 10.379 42.8844 11.2126 42.8844C12.4503 42.8844 13.6836 42.8844 14.9212 42.8844C16.4296 42.8844 17.938 42.8844 19.4463 42.8844C21.1008 42.8844 22.751 42.8844 24.4054 42.8844C26.0728 42.8844 27.7402 42.8844 29.4118 42.8844C30.9718 42.8844 32.536 42.8844 34.0959 42.8844C35.4066 42.8844 36.713 42.8844 38.0237 42.8844C38.9734 42.8844 39.9231 42.8844 40.8728 42.8844C41.3197 42.8844 41.7666 42.893 42.2136 42.8844C42.2308 42.8844 42.2522 42.8844 42.2694 42.8844C42.6175 42.8844 42.914 42.5879 42.914 42.2398C42.914 40.624 42.914 39.0125 42.914 37.3967C42.914 34.8441 42.914 32.2957 42.914 29.7431C42.914 29.1587 42.914 28.5786 42.914 27.9941C42.914 27.6589 42.6175 27.3323 42.2694 27.3495C41.9214 27.3667 41.6248 27.6331 41.6248 27.9941C41.6248 29.6099 41.6248 31.2214 41.6248 32.8372C41.6248 35.3898 41.6248 37.9381 41.6248 40.4908C41.6248 41.0752 41.6248 41.6553 41.6248 42.2398C41.8397 42.0249 42.0546 41.81 42.2694 41.5952C41.9643 41.5952 41.6549 41.5952 41.3498 41.5952C40.5161 41.5952 39.6781 41.5952 38.8445 41.5952C37.6068 41.5952 36.3735 41.5952 35.1359 41.5952C33.6275 41.5952 32.1191 41.5952 30.6108 41.5952C28.9563 41.5952 27.3061 41.5952 25.6517 41.5952C23.9843 41.5952 22.3169 41.5952 20.6453 41.5952C19.0853 41.5952 17.5211 41.5952 15.9612 41.5952C14.6505 41.5952 13.3441 41.5952 12.0334 41.5952C11.0837 41.5952 10.134 41.5952 9.1843 41.5952C8.73738 41.5952 8.29045 41.578 7.84353 41.5952C7.82634 41.5952 7.80486 41.5952 7.78767 41.5952C8.00253 41.81 8.2174 42.0249 8.43227 42.2398C8.43227 40.624 8.43227 39.0125 8.43227 37.3967C8.43227 34.8441 8.43227 32.2957 8.43227 29.7431C8.43227 29.1587 8.43227 28.5786 8.43227 27.9941C8.2174 28.209 8.00253 28.4239 7.78767 28.6387C8.09278 28.6387 8.40218 28.6387 8.70729 28.6387C9.54098 28.6387 10.379 28.6387 11.2126 28.6387C12.4503 28.6387 13.6836 28.6387 14.9212 28.6387C16.4296 28.6387 17.938 28.6387 19.4463 28.6387C21.1008 28.6387 22.751 28.6387 24.4054 28.6387C26.0728 28.6387 27.7402 28.6387 29.4118 28.6387C30.9718 28.6387 32.536 28.6387 34.0959 28.6387C35.4066 28.6387 36.713 28.6387 38.0237 28.6387C38.9734 28.6387 39.9231 28.6387 40.8728 28.6387C41.3197 28.6387 41.7666 28.6473 42.2136 28.6387C42.2308 28.6387 42.2522 28.6387 42.2694 28.6387C42.6046 28.6387 42.9312 28.3422 42.914 27.9941C42.9011 27.646 42.6304 27.3495 42.2694 27.3495Z" fill="#5B476B"/>
<path d="M16.9197 27.9941C16.9197 29.6099 16.9197 31.2214 16.9197 32.8372C16.9197 35.3898 16.9197 37.9381 16.9197 40.4908C16.9197 41.0752 16.9197 41.6553 16.9197 42.2398C16.9197 42.575 17.2162 42.9016 17.5643 42.8844C17.9124 42.8672 18.2089 42.6007 18.2089 42.2398C18.2089 40.624 18.2089 39.0125 18.2089 37.3967C18.2089 34.8441 18.2089 32.2958 18.2089 29.7431C18.2089 29.1587 18.2089 28.5786 18.2089 27.9941C18.2089 27.6589 17.9124 27.3323 17.5643 27.3495C17.2119 27.3667 16.9197 27.6332 16.9197 27.9941Z" fill="#5B476B"/>
<path d="M31.8484 27.9941C31.8484 29.6099 31.8484 31.2214 31.8484 32.8372C31.8484 35.3898 31.8484 37.9381 31.8484 40.4908C31.8484 41.0752 31.8484 41.6553 31.8484 42.2398C31.8484 42.575 32.1449 42.9016 32.493 42.8844C32.8411 42.8672 33.1376 42.6007 33.1376 42.2398C33.1376 40.624 33.1376 39.0125 33.1376 37.3967C33.1376 34.8441 33.1376 32.2958 33.1376 29.7431C33.1376 29.1587 33.1376 28.5786 33.1376 27.9941C33.1376 27.6589 32.8411 27.3323 32.493 27.3495C32.1449 27.3667 31.8484 27.6332 31.8484 27.9941Z" fill="#5B476B"/>
<path d="M9.72168 34.1824C9.72168 34.8055 9.72168 35.4286 9.72168 36.0517C9.72168 36.3869 10.0182 36.7135 10.3663 36.6963C10.7144 36.6791 11.0109 36.4127 11.0109 36.0517C11.0109 35.4286 11.0109 34.8055 11.0109 34.1824C11.0109 33.8472 10.7144 33.5206 10.3663 33.5378C10.0139 33.5549 9.72168 33.8214 9.72168 34.1824Z" fill="#5B476B"/>
<path d="M34.4268 34.1824C34.4268 34.8055 34.4268 35.4286 34.4268 36.0517C34.4268 36.3869 34.7233 36.7135 35.0714 36.6963C35.4194 36.6791 35.716 36.4127 35.716 36.0517C35.716 35.4286 35.716 34.8055 35.716 34.1824C35.716 33.8472 35.4194 33.5206 35.0714 33.5378C34.7233 33.5549 34.4268 33.8214 34.4268 34.1824Z" fill="#5B476B"/>
<path d="M9.72168 12.2917C9.72168 12.9148 9.72168 13.538 9.72168 14.1611C9.72168 14.4963 10.0182 14.8229 10.3663 14.8057C10.7144 14.7885 11.0109 14.522 11.0109 14.1611C11.0109 13.538 11.0109 12.9148 11.0109 12.2917C11.0109 11.9565 10.7144 11.6299 10.3663 11.6471C10.0139 11.6643 9.72168 11.9308 9.72168 12.2917Z" fill="#5B476B"/>
<path d="M32.4929 29.9107C31.9987 29.9107 31.5002 29.9107 31.006 29.9107C29.8242 29.9107 28.6382 29.9107 27.4564 29.9107C26.0168 29.9107 24.5772 29.9107 23.1376 29.9107C21.8914 29.9107 20.6494 29.9107 19.4032 29.9107C18.8016 29.9107 18.1914 29.8892 17.5897 29.9107C17.5811 29.9107 17.5725 29.9107 17.564 29.9107C17.2288 29.9107 16.9022 30.2072 16.9194 30.5553C16.9365 30.9034 17.203 31.1999 17.564 31.1999C18.0581 31.1999 18.5566 31.1999 19.0508 31.1999C20.2326 31.1999 21.4187 31.1999 22.6004 31.1999C24.04 31.1999 25.4796 31.1999 26.9192 31.1999C28.1655 31.1999 29.4074 31.1999 30.6536 31.1999C31.2552 31.1999 31.8655 31.2214 32.4671 31.1999C32.4757 31.1999 32.4843 31.1999 32.4929 31.1999C32.8281 31.1999 33.1547 30.9034 33.1375 30.5553C33.1246 30.2072 32.8581 29.9107 32.4929 29.9107Z" fill="#5B476B"/>
<path d="M41.6248 6.89866C41.6248 8.32967 41.6248 9.76498 41.6248 11.196C41.6248 13.4607 41.6248 15.7254 41.6248 17.9901C41.6248 18.51 41.6248 19.03 41.6248 19.55C41.8397 19.3351 42.0546 19.1203 42.2694 18.9054C41.0834 18.9054 39.893 18.9054 38.7069 18.9054C36.8161 18.9054 34.921 18.9054 33.0302 18.9054C32.5961 18.9054 32.1621 18.9054 31.7281 18.9054C31.943 19.1203 32.1578 19.3351 32.3727 19.55C32.3727 18.235 32.3727 16.92 32.3727 15.6051C32.3727 15.416 32.3727 15.2269 32.3727 15.0378C32.3727 14.6897 32.0762 14.3932 31.7281 14.3932C30.2154 14.3932 28.6985 14.3932 27.1858 14.3932C24.7879 14.3932 22.39 14.3932 19.9921 14.3932C19.4377 14.3932 18.8834 14.3932 18.329 14.3932C17.9809 14.3932 17.6844 14.6897 17.6844 15.0378C17.6844 16.3528 17.6844 17.6678 17.6844 18.9828C17.6844 19.1718 17.6844 19.3609 17.6844 19.55C17.8993 19.3351 18.1141 19.1203 18.329 18.9054C17.143 18.9054 15.9526 18.9054 14.7665 18.9054C12.8757 18.9054 10.9806 18.9054 9.08976 18.9054C8.65573 18.9054 8.2217 18.9054 7.78767 18.9054C8.00253 19.1203 8.2174 19.3351 8.43227 19.55C8.43227 18.119 8.43227 16.6837 8.43227 15.2527C8.43227 12.988 8.43227 10.7233 8.43227 8.45859C8.43227 7.93862 8.43227 7.41864 8.43227 6.89866C8.2174 7.11353 8.00253 7.3284 7.78767 7.54326C8.09278 7.54326 8.40218 7.54326 8.70729 7.54326C9.54098 7.54326 10.379 7.54326 11.2126 7.54326C12.4503 7.54326 13.6836 7.54326 14.9212 7.54326C16.4296 7.54326 17.938 7.54326 19.4463 7.54326C21.1008 7.54326 22.751 7.54326 24.4054 7.54326C26.0728 7.54326 27.7402 7.54326 29.4118 7.54326C30.9718 7.54326 32.536 7.54326 34.0959 7.54326C35.4066 7.54326 36.713 7.54326 38.0237 7.54326C38.9734 7.54326 39.9231 7.54326 40.8728 7.54326C41.3197 7.54326 41.7666 7.55186 42.2136 7.54326C42.2308 7.54326 42.2522 7.54326 42.2694 7.54326C42.6046 7.54326 42.9312 7.24675 42.914 6.89866C42.8968 6.55058 42.6304 6.25406 42.2694 6.25406C41.9643 6.25406 41.6549 6.25406 41.3498 6.25406C40.5161 6.25406 39.6781 6.25406 38.8445 6.25406C37.6068 6.25406 36.3735 6.25406 35.1359 6.25406C33.6275 6.25406 32.1191 6.25406 30.6108 6.25406C28.9563 6.25406 27.3061 6.25406 25.6517 6.25406C23.9843 6.25406 22.3169 6.25406 20.6453 6.25406C19.0853 6.25406 17.5211 6.25406 15.9612 6.25406C14.6505 6.25406 13.3441 6.25406 12.0334 6.25406C11.0837 6.25406 10.134 6.25406 9.1843 6.25406C8.73738 6.25406 8.29045 6.24547 7.84353 6.25406C7.82634 6.25406 7.80486 6.25406 7.78767 6.25406C7.43958 6.25406 7.14307 6.55058 7.14307 6.89866C7.14307 8.32967 7.14307 9.76498 7.14307 11.196C7.14307 13.4607 7.14307 15.7254 7.14307 17.9901C7.14307 18.51 7.14307 19.03 7.14307 19.55C7.14307 19.8981 7.43958 20.1946 7.78767 20.1946C8.97373 20.1946 10.1641 20.1946 11.3502 20.1946C13.241 20.1946 15.1361 20.1946 17.0269 20.1946C17.461 20.1946 17.895 20.1946 18.329 20.1946C18.6771 20.1946 18.9736 19.8981 18.9736 19.55C18.9736 18.235 18.9736 16.92 18.9736 15.6051C18.9736 15.416 18.9736 15.2269 18.9736 15.0378C18.7587 15.2527 18.5439 15.4675 18.329 15.6824C19.8417 15.6824 21.3586 15.6824 22.8713 15.6824C25.2692 15.6824 27.6671 15.6824 30.065 15.6824C30.6194 15.6824 31.1737 15.6824 31.7281 15.6824C31.5132 15.4675 31.2984 15.2527 31.0835 15.0378C31.0835 16.3528 31.0835 17.6678 31.0835 18.9828C31.0835 19.1718 31.0835 19.3609 31.0835 19.55C31.0835 19.8981 31.38 20.1946 31.7281 20.1946C32.9142 20.1946 34.1045 20.1946 35.2906 20.1946C37.1814 20.1946 39.0765 20.1946 40.9673 20.1946C41.4014 20.1946 41.8354 20.1946 42.2694 20.1946C42.6175 20.1946 42.914 19.8981 42.914 19.55C42.914 18.119 42.914 16.6837 42.914 15.2527C42.914 12.988 42.914 10.7233 42.914 8.45859C42.914 7.93862 42.914 7.41864 42.914 6.89866C42.914 6.56347 42.6175 6.23687 42.2694 6.25406C41.9214 6.27125 41.6248 6.53769 41.6248 6.89866Z" fill="#5B476B"/>
<path d="M31.0836 6.89867C31.0836 7.814 31.0836 8.72933 31.0836 9.64036C31.0836 11.1058 31.0836 12.5711 31.0836 14.0365C31.0836 14.3717 31.0836 14.7069 31.0836 15.0378C31.2985 14.8229 31.5134 14.6081 31.7282 14.3932C30.2156 14.3932 28.6986 14.3932 27.186 14.3932C24.7881 14.3932 22.3901 14.3932 19.9922 14.3932C19.4379 14.3932 18.8835 14.3932 18.3292 14.3932C18.544 14.6081 18.7589 14.8229 18.9738 15.0378C18.9738 14.1225 18.9738 13.2071 18.9738 12.2961C18.9738 10.8307 18.9738 9.36533 18.9738 7.89994C18.9738 7.56475 18.9738 7.22956 18.9738 6.89867C18.7589 7.11353 18.544 7.3284 18.3292 7.54327C19.8418 7.54327 21.3588 7.54327 22.8714 7.54327C25.2694 7.54327 27.6673 7.54327 30.0652 7.54327C30.6195 7.54327 31.1739 7.54327 31.7282 7.54327C32.0634 7.54327 32.39 7.24675 32.3728 6.89867C32.3557 6.55058 32.0892 6.25407 31.7282 6.25407C30.2156 6.25407 28.6986 6.25407 27.186 6.25407C24.7881 6.25407 22.3901 6.25407 19.9922 6.25407C19.4379 6.25407 18.8835 6.25407 18.3292 6.25407C17.9811 6.25407 17.6846 6.55058 17.6846 6.89867C17.6846 7.814 17.6846 8.72933 17.6846 9.64036C17.6846 11.1058 17.6846 12.5711 17.6846 14.0365C17.6846 14.3717 17.6846 14.7069 17.6846 15.0378C17.6846 15.3859 17.9811 15.6824 18.3292 15.6824C19.8418 15.6824 21.3588 15.6824 22.8714 15.6824C25.2694 15.6824 27.6673 15.6824 30.0652 15.6824C30.6195 15.6824 31.1739 15.6824 31.7282 15.6824C32.0763 15.6824 32.3728 15.3859 32.3728 15.0378C32.3728 14.1225 32.3728 13.2071 32.3728 12.2961C32.3728 10.8307 32.3728 9.36533 32.3728 7.89994C32.3728 7.56475 32.3728 7.22956 32.3728 6.89867C32.3728 6.56348 32.0763 6.23688 31.7282 6.25407C31.3802 6.27126 31.0836 6.53769 31.0836 6.89867Z" fill="#5B476B"/>
<path d="M24.0962 13.3143C24.7193 13.3143 25.3424 13.3143 25.9655 13.3143C26.3007 13.3143 26.6273 13.0178 26.6101 12.6697C26.5929 12.3217 26.3265 12.0251 25.9655 12.0251C25.3424 12.0251 24.7193 12.0251 24.0962 12.0251C23.761 12.0251 23.4344 12.3217 23.4516 12.6697C23.4645 13.0178 23.7309 13.3143 24.0962 13.3143Z" fill="#5B476B"/>
<path d="M33.6619 12.2917C33.6619 12.9148 33.6619 13.538 33.6619 14.1611C33.6619 14.4963 33.9584 14.8229 34.3065 14.8057C34.6545 14.7885 34.9511 14.522 34.9511 14.1611C34.9511 13.538 34.9511 12.9148 34.9511 12.2917C34.9511 11.9565 34.6545 11.6299 34.3065 11.6471C33.9584 11.6643 33.6619 11.9308 33.6619 12.2917Z" fill="#5B476B"/>
<path d="M26.9194 34.4357C25.8021 35.553 24.6848 36.6703 23.5632 37.7919C23.4042 37.9509 23.2452 38.1099 23.0819 38.2732C22.837 38.5181 22.837 38.9393 23.0819 39.1842C23.3269 39.4292 23.748 39.4292 23.9929 39.1842C25.1102 38.0669 26.2275 36.9496 27.3492 35.828C27.5082 35.669 27.6672 35.51 27.8305 35.3467C28.0754 35.1018 28.0754 34.6806 27.8305 34.4357C27.5855 34.1907 27.1644 34.1907 26.9194 34.4357Z" fill="#5B476B"/>
<path d="M24.3321 33.5763C23.6317 34.2768 22.9269 34.9815 22.2264 35.682C21.9815 35.9269 21.9815 36.3481 22.2264 36.593C22.4714 36.838 22.8925 36.838 23.1375 36.593C23.8379 35.8925 24.5427 35.1878 25.2432 34.4873C25.4881 34.2424 25.4881 33.8212 25.2432 33.5763C24.9939 33.3313 24.5771 33.3313 24.3321 33.5763Z" fill="#5B476B"/>
</svg>
