<svg width="65" height="64" viewBox="0 0 65 64" fill="none" xmlns="http://www.w3.org/2000/svg">
<path fill-rule="evenodd" clip-rule="evenodd" d="M32.6661 58.8801C47.5116 58.8801 59.5461 46.8455 59.5461 32.0001C59.5461 17.1547 47.5116 5.12012 32.6661 5.12012C17.8207 5.12012 5.78613 17.1547 5.78613 32.0001C5.78613 46.8455 17.8207 58.8801 32.6661 58.8801Z" fill="#F4E5FF"/>
<path fill-rule="evenodd" clip-rule="evenodd" d="M59.1996 37.3705L52.5351 32.1263C52.3243 31.9591 52.0585 31.9021 51.8034 31.9424L48.7762 26.7008C48.6138 26.4175 48.3258 26.2518 48.0225 26.2303V23.5689H54.8595C55.3804 23.5689 55.8039 23.146 55.8039 22.6238V17.585C55.8039 17.0628 55.3804 16.6399 54.8595 16.6399H9.84752C9.32598 16.6399 8.90244 17.0628 8.90244 17.585V22.6238C8.90244 23.146 9.32598 23.5689 9.84752 23.5689H16.6852V26.2303C16.6248 26.2343 16.5644 26.2444 16.5047 26.2605C16.263 26.3256 16.0556 26.484 15.9314 26.7008L12.9049 31.9424C12.6492 31.9014 12.3827 31.9591 12.1713 32.1263L5.50674 37.3705C5.26107 37.5645 5.12616 37.8679 5.14898 38.1807C5.17113 38.4935 5.34766 38.7747 5.61883 38.9311L7.48482 40.0084C7.24453 40.7763 7.22238 41.5965 7.43582 42.3926C7.7325 43.4994 8.44198 44.4244 9.43539 44.9982C10.0965 45.3802 10.8302 45.5748 11.5746 45.5748C11.9478 45.5748 12.3223 45.5258 12.6921 45.4265C13.4889 45.2137 14.1876 44.7835 14.7327 44.1914L16.598 45.2681C16.7443 45.3526 16.9067 45.3949 17.0705 45.3949C17.2115 45.3949 17.3531 45.3634 17.4833 45.2996C17.7645 45.1627 17.9612 44.8949 18.0048 44.5848L19.2144 36.1912C19.2533 35.9254 19.1708 35.6649 19.007 35.4642L22.0328 30.2234C22.2939 29.7716 22.1389 29.1937 21.6872 28.9326L21.5663 28.8628V23.5675H29.913V27.5828H29.7747C29.2538 27.5828 28.8303 28.0057 28.8303 28.5279V34.5802C28.5886 34.6735 28.3873 34.8561 28.2873 35.1058L25.1379 42.9792C25.0218 43.2705 25.0574 43.6001 25.2332 43.8599C25.4091 44.1196 25.7017 44.2747 26.0159 44.2747H28.1711C28.6034 46.1876 30.3123 47.6214 32.3535 47.6214C34.3954 47.6214 36.1049 46.187 36.5359 44.2747H38.6918C39.0053 44.2747 39.2979 44.1196 39.4738 43.8599C39.6503 43.6001 39.6846 43.2705 39.5691 42.9792L36.4198 35.1058C36.3204 34.8561 36.119 34.6729 35.8767 34.5802V28.5279C35.8767 28.0057 35.4539 27.5828 34.9323 27.5828H34.7947V23.5675H43.1413V28.8615L43.0192 28.9319C42.8017 29.0575 42.6433 29.2642 42.5789 29.5058C42.5138 29.7481 42.548 30.0059 42.6735 30.2227L45.7 35.4649C45.5383 35.6656 45.455 35.9254 45.4933 36.1905L46.7028 44.5861C46.7471 44.8969 46.9431 45.164 47.225 45.301C47.3553 45.3647 47.4969 45.3963 47.6378 45.3963C47.801 45.3963 47.9641 45.354 48.1097 45.2694L49.9811 44.1894C50.804 45.0795 51.9531 45.5728 53.1331 45.5728C53.8607 45.5728 54.5984 45.3882 55.2723 44.9989C57.0396 43.9787 57.8035 41.8818 57.2208 40.0097L59.0868 38.9324C59.358 38.776 59.5352 38.4948 59.5567 38.182C59.5802 37.8679 59.4459 37.5645 59.1996 37.3705ZM10.7926 18.5302H53.9144V21.6795H10.7926V18.5302ZM12.2028 43.6015C11.5833 43.7672 10.9356 43.6827 10.3798 43.3618C9.82469 43.041 9.42733 42.5235 9.26154 41.9039C9.181 41.6039 9.1622 41.2972 9.19778 40.9971L13.019 43.2034C12.7787 43.384 12.5035 43.5216 12.2028 43.6015ZM16.3349 42.9355L14.9555 42.1387C14.9542 42.1381 14.9535 42.1367 14.9521 42.1367C14.9508 42.1354 14.9495 42.1354 14.9481 42.1347L9.16153 38.7934C9.16019 38.792 9.15884 38.7907 9.15683 38.79C9.15482 38.7894 9.15347 38.7887 9.15146 38.788L7.7721 37.9913L12.8378 34.0056L17.2531 36.5549L16.3349 42.9355ZM17.4048 34.4622L14.5756 32.8278L17.0947 28.4642L19.9245 30.098L17.4048 34.4622ZM19.6775 27.7734L18.5747 27.1371V23.5695H19.6775V27.7734ZM33.9879 29.4743V34.5138H30.7204V29.4743H33.9879ZM32.3542 45.7332C31.3648 45.7332 30.5157 45.1318 30.1479 44.2766H34.5605C34.1927 45.1318 33.3429 45.7332 32.3542 45.7332ZM37.297 42.3878H27.4113L29.8042 36.4032H34.9028L37.297 42.3878ZM32.9052 27.5848H31.8024V23.5695H32.9052V27.5848ZM45.0308 23.5688H46.1336V27.1357L45.0308 27.772V23.5688ZM47.613 28.4642L50.1328 32.8278L47.3016 34.4629L44.7818 30.0986L47.613 28.4642ZM47.4553 36.5563L51.8692 34.007L56.9342 37.9927L49.7589 42.1361C49.7582 42.1361 49.7569 42.1361 49.7562 42.1375C49.7555 42.1375 49.7555 42.1388 49.7542 42.1388L48.3742 42.9362L47.4553 36.5563ZM54.3279 43.3618C53.7721 43.6833 53.1244 43.7679 52.5049 43.6014C52.2042 43.5215 51.9303 43.3839 51.688 43.2034L55.5092 40.9964C55.6193 41.9214 55.183 42.8671 54.3279 43.3618Z" fill="#5B476B"/>
</svg>
