<svg width="33" height="32" viewBox="0 0 33 32" fill="none" xmlns="http://www.w3.org/2000/svg">
    <path fill-rule="evenodd" clip-rule="evenodd" d="M16.5005 29.44C23.9233 29.44 29.9405 23.4227 29.9405 16C29.9405 8.57728 23.9233 2.55999 16.5005 2.55999C9.07784 2.55999 3.06055 8.57728 3.06055 16C3.06055 23.4227 9.07784 29.44 16.5005 29.44Z" fill="#F4E5FF"/>
    <path fill-rule="evenodd" clip-rule="evenodd" d="M29.7668 18.6853L26.4345 16.0632C26.3291 15.9797 26.1962 15.9511 26.0687 15.9713L24.5551 13.3505C24.4739 13.2089 24.3299 13.126 24.1782 13.1152V11.7845H27.5967C27.8572 11.7845 28.0689 11.5731 28.0689 11.312V8.79257C28.0689 8.53147 27.8572 8.32003 27.5967 8.32003H5.09075C4.82998 8.32003 4.61821 8.53147 4.61821 8.79257V11.312C4.61821 11.5731 4.82998 11.7845 5.09075 11.7845H8.50961V13.1152C8.4794 13.1172 8.4492 13.1223 8.41933 13.1303C8.29851 13.1629 8.1948 13.2421 8.13272 13.3505L6.61945 15.9713C6.49158 15.9508 6.35835 15.9797 6.25263 16.0632L2.92036 18.6853C2.79753 18.7823 2.73007 18.934 2.74148 19.0904C2.75256 19.2468 2.84082 19.3874 2.97641 19.4656L3.9094 20.0043C3.78926 20.3882 3.77818 20.7983 3.8849 21.1964C4.03324 21.7498 4.38798 22.2123 4.88469 22.4992C5.21526 22.6902 5.58208 22.7875 5.95427 22.7875C6.14087 22.7875 6.32814 22.763 6.51306 22.7133C6.91143 22.6069 7.2608 22.3918 7.53332 22.0958L8.46598 22.6341C8.53914 22.6764 8.62036 22.6976 8.70225 22.6976C8.77272 22.6976 8.84354 22.6818 8.90865 22.6499C9.04927 22.5814 9.1476 22.4475 9.16941 22.2925L9.77418 18.0957C9.79365 17.9628 9.75237 17.8326 9.67048 17.7322L11.1834 15.1118C11.314 14.8859 11.2364 14.5969 11.0106 14.4664L10.9502 14.4315V11.7839H15.1235V13.7915H15.0543C14.7939 13.7915 14.5821 14.0029 14.5821 14.264V17.2902C14.4613 17.3369 14.3606 17.4281 14.3106 17.553L12.7359 21.4897C12.6779 21.6353 12.6957 21.8001 12.7836 21.93C12.8715 22.0599 13.0179 22.1374 13.1749 22.1374H14.2526C14.4687 23.0939 15.3232 23.8108 16.3437 23.8108C17.3647 23.8108 18.2195 23.0936 18.4349 22.1374H19.5129C19.6696 22.1374 19.816 22.0599 19.9039 21.93C19.9922 21.8001 20.0093 21.6353 19.9515 21.4897L18.3769 17.553C18.3272 17.4281 18.2265 17.3365 18.1054 17.2902V14.264C18.1054 14.0029 17.8939 13.7915 17.6332 13.7915H17.5644V11.7839H21.7377V14.4308L21.6766 14.4661C21.5678 14.5288 21.4886 14.6322 21.4564 14.753C21.4239 14.8742 21.441 15.003 21.5037 15.1114L23.017 17.7325C22.9361 17.8329 22.8945 17.9628 22.9136 18.0953L23.5184 22.2931C23.5406 22.4485 23.6386 22.5821 23.7795 22.6506C23.8446 22.6825 23.9154 22.6982 23.9859 22.6982C24.0675 22.6982 24.149 22.6771 24.2218 22.6348L25.1575 22.0948C25.569 22.5398 26.1435 22.7865 26.7335 22.7865C27.0974 22.7865 27.4662 22.6942 27.8031 22.4995C28.6868 21.9894 29.0687 20.941 28.7774 20.005L29.7104 19.4663C29.846 19.3881 29.9346 19.2475 29.9453 19.0911C29.9571 18.934 29.89 18.7823 29.7668 18.6853ZM5.5625 9.2651H27.1234V10.8398H5.5625V9.2651ZM6.26782 21.8008C5.95806 21.8837 5.63419 21.8414 5.35631 21.681C5.07876 21.5206 4.88008 21.2618 4.79718 20.952C4.75691 20.802 4.74751 20.6487 4.7653 20.4986L6.67593 21.6018C6.55578 21.6921 6.41818 21.7609 6.26782 21.8008ZM8.33383 21.4678L7.64415 21.0694C7.64348 21.0691 7.64314 21.0684 7.64247 21.0684C7.6418 21.0677 7.64113 21.0677 7.64046 21.0674L4.74717 19.3967C4.7465 19.3961 4.74582 19.3954 4.74482 19.3951C4.74381 19.3947 4.74314 19.3944 4.74213 19.394L4.05246 18.9957L6.5853 17.0028L8.79294 18.2775L8.33383 21.4678ZM8.86884 17.2312L7.45424 16.414L8.71378 14.2322L10.1287 15.0491L8.86884 17.2312ZM10.0056 13.8868L9.45424 13.5686V11.7848H10.0056V13.8868ZM17.1605 14.7372V17.257H15.5268V14.7372H17.1605ZM16.3442 22.8666C15.8495 22.8666 15.425 22.5659 15.2411 22.1384H17.4474C17.2635 22.5659 16.8386 22.8666 16.3442 22.8666ZM18.8156 21.194H13.8728L15.0692 18.2017H17.6185L18.8156 21.194ZM16.6195 13.7925H16.0681V11.7848H16.6195V13.7925ZM22.6819 11.7845H23.2333V13.5679L22.6819 13.8861V11.7845ZM23.9736 14.2322L25.2335 16.414L23.8179 17.2315L22.558 15.0494L23.9736 14.2322ZM23.894 18.2782L26.1009 17.0035L28.6335 18.9964L25.0458 21.0681C25.0454 21.0681 25.0448 21.0681 25.0444 21.0688C25.0441 21.0688 25.0441 21.0694 25.0434 21.0694L24.3534 21.4681L23.894 18.2782ZM27.3311 21.681C27.0532 21.8417 26.7294 21.884 26.4196 21.8008C26.2692 21.7609 26.1323 21.6921 26.0112 21.6018L27.9218 20.4983C27.9768 20.9608 27.7587 21.4336 27.3311 21.681Z" fill="#5B476B"/>
</svg>
