<svg width="34" height="34" viewBox="0 0 34 34" fill="none" xmlns="http://www.w3.org/2000/svg">
    <path fill-rule="evenodd" clip-rule="evenodd" d="M17 33C25.8366 33 33 25.8366 33 17C33 8.16344 25.8366 1 17 1C8.16344 1 1 8.16344 1 17C1 25.8366 8.16344 33 17 33Z" fill="white" stroke="#777185"/>
    <rect x="1" y="1" width="32" height="32" rx="16" fill="#9A00FF"/>
    <path fill-rule="evenodd" clip-rule="evenodd" d="M24.9638 9.39052C25.4845 8.86983 26.3288 8.86983 26.8495 9.39052C27.3301 9.87117 27.3671 10.6275 26.9604 11.1505L26.8495 11.2761L14.3095 23.8161C13.8288 24.2968 13.0725 24.3338 12.5494 23.9271L12.4238 23.8161L6.72384 18.1161C6.20314 17.5954 6.20314 16.7512 6.72384 16.2305C7.20448 15.7499 7.96079 15.7129 8.48385 16.1196L8.60946 16.2305L13.3666 20.9867L24.9638 9.39052Z" fill="white"/>
</svg>
