<svg width="56" height="56" viewBox="0 0 56 56" fill="none" xmlns="http://www.w3.org/2000/svg">
<path fill-rule="evenodd" clip-rule="evenodd" d="M28 51.52C40.9897 51.52 51.52 40.9897 51.52 28C51.52 15.0102 40.9897 4.47998 28 4.47998C15.0102 4.47998 4.47998 15.0102 4.47998 28C4.47998 40.9897 15.0102 51.52 28 51.52Z" fill="#F4E5FF"/>
<path d="M15.8255 33.556C15.8254 33.5558 15.8254 33.5558 15.8253 33.5556C15.7857 33.4869 15.8014 33.4041 15.8599 33.3707L19.2476 31.4356C19.3064 31.402 19.3859 31.4305 19.4255 31.4988C19.4256 31.499 19.4257 31.4991 19.4257 31.4992C19.4653 31.5679 19.4496 31.6507 19.3911 31.6843L16.0033 33.6192C15.9447 33.6529 15.8651 33.6244 15.8255 33.556Z" fill="#5B476B"/>
<path d="M21.9962 34.7101C21.9963 34.7102 21.9964 34.7102 21.9965 34.7103C22.0572 34.7614 22.0641 34.8527 22.0123 34.914L19.0093 38.4612C18.9572 38.5227 18.866 38.5311 18.8053 38.4804C18.8052 38.4803 18.805 38.4801 18.8049 38.4801C18.7443 38.429 18.7374 38.3377 18.7892 38.2763L21.7922 34.7292C21.8442 34.6677 21.9355 34.6593 21.9962 34.7101Z" fill="#5B476B"/>
<path d="M26.9133 33.2757C27.0332 33.276 27.1494 33.234 27.2412 33.1571L27.8696 32.6314C28.1362 32.41 28.3561 32.138 28.5165 31.8313C28.6769 31.5246 28.7745 31.1892 28.8039 30.8446C28.9095 30.3425 28.861 29.8204 28.6647 29.3461L29.9141 28.0284C30.0178 27.9415 30.0826 27.8171 30.0943 27.6826C30.106 27.5481 30.0635 27.4144 29.9763 27.3111L27.8696 25.057C27.7824 24.9542 27.6579 24.89 27.5234 24.8784C27.3888 24.8667 27.2551 24.9087 27.1514 24.9949L25.739 26.1357C25.2758 25.7767 24.6975 25.5973 24.1117 25.6309C23.5258 25.6645 22.972 25.9087 22.5531 26.3182L21.9248 26.8438C21.8211 26.9307 21.7563 27.0551 21.7446 27.1896C21.7329 27.3241 21.7753 27.4577 21.8625 27.5611L26.5286 33.0932C26.5757 33.1495 26.6344 33.1949 26.7008 33.2264C26.7673 33.258 26.8397 33.2748 26.9133 33.2757V33.2757ZM28.6647 27.6834L27.3566 28.8442C27.2529 28.9311 27.1881 29.0555 27.1764 29.19C27.1647 29.3245 27.2072 29.4581 27.2943 29.5615C27.6061 29.8834 27.783 30.3115 27.7889 30.7588C27.7505 31.1877 27.7468 31.3721 27.4226 31.6495L27.1844 31.8484L23.1815 27.103L23.4197 26.904C24.1048 26.3309 24.8743 26.8274 25.4495 27.51C25.5367 27.6128 25.6612 27.677 25.7957 27.6886C25.9303 27.7003 26.064 27.6584 26.1677 27.5721L27.5526 26.3291L28.6647 27.6834Z" fill="#5B476B"/>
<path d="M47.2596 10.9517L47.2619 10.9544C47.6697 11.4407 47.7493 12.0422 47.4417 12.2975L29.6268 27.0675C29.3179 27.3239 28.7377 27.1371 28.3302 26.6533L28.3279 26.6506C27.9201 26.1643 27.8405 25.5628 28.148 25.3067L45.9633 10.5372C46.2714 10.2806 46.8516 10.4674 47.2596 10.9517Z" fill="#5B476B"/>
<path d="M21.2681 32.7731C21.2683 32.7733 21.2683 32.7734 21.2685 32.7736C21.3408 32.8598 21.3482 32.9721 21.2855 33.0242L17.653 36.0391C17.59 36.0914 17.4805 36.0638 17.4082 35.978C17.4081 35.9779 17.4079 35.9777 17.4078 35.9776C17.3355 35.8913 17.3281 35.779 17.3908 35.7268L21.0234 32.712C21.0862 32.6596 21.1958 32.6872 21.2681 32.7731Z" fill="#5B476B"/>
<path fill-rule="evenodd" clip-rule="evenodd" d="M20.0925 40.2131L20.1115 40.2357C20.3753 40.5489 20.846 40.5894 21.1623 40.325C21.2607 40.2427 21.3326 40.1405 21.3778 40.0288L26.5681 33.3524C26.7829 33.0754 26.7763 32.6879 26.5508 32.4201L22.303 27.3767C22.0778 27.1093 21.6956 27.0358 21.3848 27.1982L13.7053 31.2247C13.5056 31.3297 13.3624 31.5192 13.3196 31.7395C13.2751 31.9606 13.3339 32.1885 13.4786 32.3603L20.0925 40.2131ZM20.6432 38.5512L15.217 32.1085L21.5434 28.7913L25.0209 32.9202L20.6432 38.5512Z" fill="#5B476B"/>
</svg>
