<svg width="33" height="32" viewBox="0 0 33 32" fill="none" xmlns="http://www.w3.org/2000/svg">
    <path fill-rule="evenodd" clip-rule="evenodd" d="M16.5 32C25.3366 32 32.5 24.8366 32.5 16C32.5 7.16344 25.3366 0 16.5 0C7.66344 0 0.5 7.16344 0.5 16C0.5 24.8366 7.66344 32 16.5 32Z" fill="white"/>
    <path fill-rule="evenodd" clip-rule="evenodd" d="M11.9272 10.8709C11.7714 10.7629 11.5558 10.7784 11.417 10.9172C11.2608 11.0734 11.2608 11.3267 11.417 11.4829L15.9341 16L11.417 20.5172L11.3707 20.5726C11.2627 20.7285 11.2781 20.944 11.417 21.0829C11.5732 21.2391 11.8264 21.2391 11.9826 21.0829L16.4998 16.5657L21.017 21.0829L21.0724 21.1292C21.2283 21.2372 21.4438 21.2217 21.5826 21.0829C21.7389 20.9267 21.7389 20.6734 21.5826 20.5172L17.0655 16L21.5826 11.4829L21.6289 11.4275C21.7369 11.2716 21.7215 11.0561 21.5826 10.9172C21.4264 10.761 21.1732 10.761 21.017 10.9172L16.4998 15.4344L11.9826 10.9172L11.9272 10.8709Z" fill="#5B476B"/>
</svg>
