<svg width="80" height="80" viewBox="0 0 80 80" fill="none" xmlns="http://www.w3.org/2000/svg">
    <path fill-rule="evenodd" clip-rule="evenodd" d="M39.9996 77.1427C58.9351 77.1427 74.2853 61.7925 74.2853 42.857C74.2853 23.9215 58.9351 8.57129 39.9996 8.57129C21.0641 8.57129 5.71387 23.9215 5.71387 42.857C5.71387 61.7925 21.0641 77.1427 39.9996 77.1427Z" fill="#F4E5FF"/>
    <path d="M45.57 16.434C45.57 16.1866 45.4717 15.9493 45.2967 15.7743C45.1217 15.5993 44.8844 15.501 44.637 15.501H40.9047C40.6573 15.501 40.42 15.5993 40.245 15.7743C40.07 15.9493 39.9717 16.1866 39.9717 16.434V22.0324C39.9717 22.2798 40.07 22.5172 40.245 22.6921C40.42 22.8671 40.6573 22.9654 40.9047 22.9654H44.637C44.8844 22.9654 45.1217 22.8671 45.2967 22.6921C45.4717 22.5172 45.57 22.2798 45.57 22.0324V16.434ZM43.7039 21.0993H41.8378V17.3671H43.7039V21.0993Z" fill="#5B476B"/>
    <path d="M53.0339 16.434C53.0339 16.1866 52.9356 15.9493 52.7606 15.7743C52.5856 15.5993 52.3483 15.501 52.1008 15.501H48.3686C48.1211 15.501 47.8838 15.5993 47.7088 15.7743C47.5339 15.9493 47.4356 16.1866 47.4355 16.434V22.0324C47.4356 22.2798 47.5339 22.5172 47.7088 22.6921C47.8838 22.8671 48.1211 22.9654 48.3686 22.9654H52.1008C52.3483 22.9654 52.5856 22.8671 52.7606 22.6921C52.9356 22.5172 53.0339 22.2798 53.0339 22.0324V16.434ZM51.1678 21.0993H49.3017V17.3671H51.1678V21.0993Z" fill="#5B476B"/>
    <path d="M45.57 25.7651C45.57 25.5176 45.4717 25.2803 45.2967 25.1053C45.1217 24.9304 44.8844 24.832 44.637 24.832H40.9047C40.6573 24.832 40.42 24.9304 40.245 25.1053C40.07 25.2803 39.9717 25.5176 39.9717 25.7651V31.3634C39.9717 31.6109 40.07 31.8482 40.245 32.0232C40.42 32.1982 40.6573 32.2965 40.9047 32.2965H44.637C44.8844 32.2965 45.1217 32.1982 45.2967 32.0232C45.4717 31.8482 45.57 31.6109 45.57 31.3634V25.7651ZM43.7039 30.4304H41.8378V26.6981H43.7039V30.4304Z" fill="#5B476B"/>
    <path d="M53.0339 25.7651C53.0339 25.5176 52.9356 25.2803 52.7606 25.1053C52.5856 24.9304 52.3483 24.832 52.1008 24.832H48.3686C48.1211 24.832 47.8838 24.9304 47.7088 25.1053C47.5339 25.2803 47.4356 25.5176 47.4355 25.7651V31.3634C47.4356 31.6109 47.5339 31.8482 47.7088 32.0232C47.8838 32.1982 48.1211 32.2965 48.3686 32.2965H52.1008C52.3483 32.2965 52.5856 32.1982 52.7606 32.0232C52.9356 31.8482 53.0339 31.6109 53.0339 31.3634V25.7651ZM51.1678 30.4304H49.3017V26.6981H51.1678V30.4304Z" fill="#5B476B"/>
    <path d="M38.1052 16.434C38.1052 16.1866 38.0069 15.9493 37.8319 15.7743C37.6569 15.5993 37.4196 15.501 37.1721 15.501H33.4399C33.1924 15.501 32.9551 15.5993 32.7801 15.7743C32.6052 15.9493 32.5068 16.1866 32.5068 16.434V22.0324C32.5068 22.2798 32.6052 22.5172 32.7801 22.6921C32.9551 22.8671 33.1924 22.9654 33.4399 22.9654H37.1721C37.4196 22.9654 37.6569 22.8671 37.8319 22.6921C38.0069 22.5172 38.1052 22.2798 38.1052 22.0324V16.434ZM36.2391 21.0993H34.373V17.3671H36.2391V21.0993Z" fill="#5B476B"/>
    <path d="M38.1052 25.7651C38.1052 25.5176 38.0069 25.2803 37.8319 25.1053C37.6569 24.9304 37.4196 24.832 37.1721 24.832H33.4399C33.1924 24.832 32.9551 24.9304 32.7801 25.1053C32.6052 25.2803 32.5068 25.5176 32.5068 25.7651V31.3634C32.5068 31.6109 32.6052 31.8482 32.7801 32.0232C32.9551 32.1982 33.1924 32.2965 33.4399 32.2965H37.1721C37.4196 32.2965 37.6569 32.1982 37.8319 32.0232C38.0069 31.8482 38.1052 31.6109 38.1052 31.3634V25.7651ZM36.2391 30.4304H34.373V26.6981H36.2391V30.4304Z" fill="#5B476B"/>
    <path d="M30.6394 16.434C30.6394 16.1866 30.541 15.9493 30.3661 15.7743C30.1911 15.5993 29.9538 15.501 29.7063 15.501H25.9741C25.7266 15.501 25.4893 15.5993 25.3143 15.7743C25.1393 15.9493 25.041 16.1866 25.041 16.434V22.0324C25.041 22.2798 25.1393 22.5172 25.3143 22.6921C25.4893 22.8671 25.7266 22.9654 25.9741 22.9654H29.7063C29.9538 22.9654 30.1911 22.8671 30.3661 22.6921C30.541 22.5172 30.6394 22.2798 30.6394 22.0324V16.434ZM28.7732 21.0993H26.9071V17.3671H28.7732V21.0993Z" fill="#5B476B"/>
    <path d="M30.6394 25.7651C30.6394 25.5176 30.541 25.2803 30.3661 25.1053C30.1911 24.9304 29.9538 24.832 29.7063 24.832H25.9741C25.7266 24.832 25.4893 24.9304 25.3143 25.1053C25.1393 25.2803 25.041 25.5176 25.041 25.7651V31.3634C25.041 31.6109 25.1393 31.8482 25.3143 32.0232C25.4893 32.1982 25.7266 32.2965 25.9741 32.2965H29.7063C29.9538 32.2965 30.1911 32.1982 30.3661 32.0232C30.541 31.8482 30.6394 31.6109 30.6394 31.3634V25.7651ZM28.7732 30.4304H26.9071V26.6981H28.7732V30.4304Z" fill="#5B476B"/>
    <path d="M44.637 34.1631H40.9047C40.6573 34.1631 40.42 34.2614 40.245 34.4364C40.07 34.6114 39.9717 34.8487 39.9717 35.0961V40.6945C39.9717 40.942 40.07 41.1793 40.245 41.3543C40.42 41.5292 40.6573 41.6275 40.9047 41.6276H44.637C44.8844 41.6275 45.1217 41.5292 45.2967 41.3543C45.4717 41.1793 45.57 40.942 45.57 40.6945V35.0961C45.57 34.8487 45.4717 34.6114 45.2967 34.4364C45.1217 34.2614 44.8844 34.1631 44.637 34.1631ZM43.7039 39.7614H41.8378V36.0292H43.7039V39.7614Z" fill="#5B476B"/>
    <path d="M52.1008 34.1631H48.3686C48.1211 34.1631 47.8838 34.2614 47.7088 34.4364C47.5339 34.6114 47.4356 34.8487 47.4355 35.0961V40.6945C47.4356 40.942 47.5339 41.1793 47.7088 41.3543C47.8838 41.5292 48.1211 41.6275 48.3686 41.6276H52.1008C52.3483 41.6275 52.5856 41.5292 52.7606 41.3543C52.9356 41.1793 53.0339 40.942 53.0339 40.6945V35.0961C53.0339 34.8487 52.9356 34.6114 52.7606 34.4364C52.5856 34.2614 52.3483 34.1631 52.1008 34.1631ZM51.1678 39.7614H49.3017V36.0292H51.1678V39.7614Z" fill="#5B476B"/>
    <path d="M37.1721 34.1631H33.4399C33.1924 34.1631 32.9551 34.2614 32.7801 34.4364C32.6052 34.6114 32.5068 34.8487 32.5068 35.0961V40.6945C32.5068 40.942 32.6052 41.1793 32.7801 41.3543C32.9551 41.5292 33.1924 41.6275 33.4399 41.6276H37.1721C37.4196 41.6275 37.6569 41.5292 37.8319 41.3543C38.0069 41.1793 38.1052 40.942 38.1052 40.6945V35.0961C38.1052 34.8487 38.0069 34.6114 37.8319 34.4364C37.6569 34.2614 37.4196 34.1631 37.1721 34.1631ZM36.2391 39.7614H34.373V36.0292H36.2391V39.7614Z" fill="#5B476B"/>
    <path d="M29.7063 34.1631H25.9741C25.7266 34.1631 25.4893 34.2614 25.3143 34.4364C25.1393 34.6114 25.041 34.8487 25.041 35.0961V40.6945C25.041 40.942 25.1393 41.1793 25.3143 41.3543C25.4893 41.5292 25.7266 41.6275 25.9741 41.6276H29.7063C29.9538 41.6275 30.1911 41.5292 30.3661 41.3543C30.541 41.1793 30.6394 40.942 30.6394 40.6945V35.0961C30.6394 34.8487 30.541 34.6114 30.3661 34.4364C30.1911 34.2614 29.9538 34.1631 29.7063 34.1631ZM28.7732 39.7614H26.9071V36.0292H28.7732V39.7614Z" fill="#5B476B"/>
    <path d="M56.7619 43.2602V14.5687C56.761 13.8266 56.4659 13.1151 55.9411 12.5903C55.4163 12.0656 54.7048 11.7704 53.9627 11.7695H24.1048C23.3627 11.7704 22.6512 12.0656 22.1265 12.5903C21.6017 13.1151 21.3065 13.8266 21.3057 14.5687V43.7268H23.1718V14.5687C23.1718 14.3212 23.2701 14.0839 23.4451 13.9089C23.62 13.734 23.8574 13.6356 24.1048 13.6356H53.9627C54.2102 13.6356 54.4475 13.734 54.6225 13.9089C54.7975 14.0839 54.8958 14.3212 54.8958 14.5687V43.2602H56.7619Z" fill="#5B476B"/>
    <path d="M65.1621 45.126H52.0993C51.6045 45.1265 51.1301 45.3232 50.7803 45.6731C50.4304 46.023 50.2337 46.4973 50.2332 46.9921V48.8582H31.1055V47.4586C31.105 46.9638 30.9082 46.4895 30.5584 46.1396C30.2085 45.7898 29.7341 45.593 29.2394 45.5925H9.17862C8.68384 45.593 8.20948 45.7898 7.85962 46.1396C7.50976 46.4895 7.31299 46.9638 7.3125 47.4586V69.852C7.31299 70.3468 7.50976 70.8212 7.85962 71.171C8.20948 71.5209 8.68384 71.7176 9.17862 71.7181H65.1621C65.6569 71.7176 66.1312 71.5209 66.4811 71.171C66.831 70.8212 67.0277 70.3468 67.0282 69.852V46.9921C67.0277 46.4973 66.831 46.023 66.4811 45.6731C66.1312 45.3232 65.6569 45.1265 65.1621 45.126ZM52.0993 46.9921H65.1621V65.6533H52.0993V46.9921ZM31.1055 50.7243H50.2332V52.5904H31.1055V50.7243ZM31.1055 54.4566H50.2332V65.6533H45.1014V60.988C45.1002 59.9985 44.7066 59.0498 44.007 58.3501C43.3073 57.6504 42.3586 57.2569 41.3691 57.2557H39.503C38.5135 57.2569 37.5649 57.6504 36.8652 58.3501C36.1655 59.0498 35.7719 59.9985 35.7708 60.988V65.6533H31.1055V54.4566ZM43.2352 60.988V65.6533H37.6369V60.988C37.6374 60.4932 37.8342 60.0188 38.184 59.669C38.5339 59.3191 39.0082 59.1223 39.503 59.1218H41.3691C41.8639 59.1223 42.3383 59.3191 42.6881 59.669C43.038 60.0188 43.2347 60.4932 43.2352 60.988ZM9.17862 47.4586H29.2394V65.6533H9.17862V47.4586ZM9.17862 69.852V67.5194H65.1626L65.1635 69.852H9.17862Z" fill="#5B476B"/>
    <path d="M12.6806 50.2588H11.7475C11.5 50.2588 11.2627 50.3571 11.0877 50.5321C10.9128 50.7071 10.8145 50.9444 10.8145 51.1918C10.8145 51.4393 10.9128 51.6766 11.0877 51.8516C11.2627 52.0266 11.5 52.1249 11.7475 52.1249H12.6806C12.928 52.1249 13.1654 52.0266 13.3403 51.8516C13.5153 51.6766 13.6136 51.4393 13.6136 51.1918C13.6136 50.9444 13.5153 50.7071 13.3403 50.5321C13.1654 50.3571 12.928 50.2588 12.6806 50.2588Z" fill="#5B476B"/>
    <path d="M12.6806 53.9902H11.7475C11.5 53.9902 11.2627 54.0885 11.0877 54.2635C10.9128 54.4385 10.8145 54.6758 10.8145 54.9233C10.8145 55.1708 10.9128 55.4081 11.0877 55.5831C11.2627 55.758 11.5 55.8564 11.7475 55.8564H12.6806C12.928 55.8564 13.1654 55.758 13.3403 55.5831C13.5153 55.4081 13.6136 55.1708 13.6136 54.9233C13.6136 54.6758 13.5153 54.4385 13.3403 54.2635C13.1654 54.0885 12.928 53.9902 12.6806 53.9902Z" fill="#5B476B"/>
    <path d="M12.6806 57.7227H11.7475C11.5 57.7227 11.2627 57.821 11.0877 57.9959C10.9128 58.1709 10.8145 58.4083 10.8145 58.6557C10.8145 58.9032 10.9128 59.1405 11.0877 59.3155C11.2627 59.4905 11.5 59.5888 11.7475 59.5888H12.6806C12.928 59.5888 13.1654 59.4905 13.3403 59.3155C13.5153 59.1405 13.6136 58.9032 13.6136 58.6557C13.6136 58.4083 13.5153 58.1709 13.3403 57.9959C13.1654 57.821 12.928 57.7227 12.6806 57.7227Z" fill="#5B476B"/>
    <path d="M12.6806 61.4561H11.7475C11.5 61.4561 11.2627 61.5544 11.0877 61.7293C10.9128 61.9043 10.8145 62.1417 10.8145 62.3891C10.8145 62.6366 10.9128 62.8739 11.0877 63.0489C11.2627 63.2239 11.5 63.3222 11.7475 63.3222H12.6806C12.928 63.3222 13.1654 63.2239 13.3403 63.0489C13.5153 62.8739 13.6136 62.6366 13.6136 62.3891C13.6136 62.1417 13.5153 61.9043 13.3403 61.7293C13.1654 61.5544 12.928 61.4561 12.6806 61.4561Z" fill="#5B476B"/>
    <path d="M17.3427 50.2588H16.4096C16.1622 50.2588 15.9248 50.3571 15.7498 50.5321C15.5749 50.7071 15.4766 50.9444 15.4766 51.1918C15.4766 51.4393 15.5749 51.6766 15.7498 51.8516C15.9248 52.0266 16.1622 52.1249 16.4096 52.1249H17.3427C17.5901 52.1249 17.8275 52.0266 18.0025 51.8516C18.1774 51.6766 18.2757 51.4393 18.2757 51.1918C18.2757 50.9444 18.1774 50.7071 18.0025 50.5321C17.8275 50.3571 17.5901 50.2588 17.3427 50.2588Z" fill="#5B476B"/>
    <path d="M17.3427 53.9902H16.4096C16.1622 53.9902 15.9248 54.0885 15.7498 54.2635C15.5749 54.4385 15.4766 54.6758 15.4766 54.9233C15.4766 55.1708 15.5749 55.4081 15.7498 55.5831C15.9248 55.758 16.1622 55.8564 16.4096 55.8564H17.3427C17.5901 55.8564 17.8275 55.758 18.0025 55.5831C18.1774 55.4081 18.2757 55.1708 18.2757 54.9233C18.2757 54.6758 18.1774 54.4385 18.0025 54.2635C17.8275 54.0885 17.5901 53.9902 17.3427 53.9902Z" fill="#5B476B"/>
    <path d="M17.3427 57.7227H16.4096C16.1622 57.7227 15.9248 57.821 15.7498 57.9959C15.5749 58.1709 15.4766 58.4083 15.4766 58.6557C15.4766 58.9032 15.5749 59.1405 15.7498 59.3155C15.9248 59.4905 16.1622 59.5888 16.4096 59.5888H17.3427C17.5901 59.5888 17.8275 59.4905 18.0025 59.3155C18.1774 59.1405 18.2757 58.9032 18.2757 58.6557C18.2757 58.4083 18.1774 58.1709 18.0025 57.9959C17.8275 57.821 17.5901 57.7227 17.3427 57.7227Z" fill="#5B476B"/>
    <path d="M17.3427 61.4561H16.4096C16.1622 61.4561 15.9248 61.5544 15.7498 61.7293C15.5749 61.9043 15.4766 62.1417 15.4766 62.3891C15.4766 62.6366 15.5749 62.8739 15.7498 63.0489C15.9248 63.2239 16.1622 63.3222 16.4096 63.3222H17.3427C17.5901 63.3222 17.8275 63.2239 18.0025 63.0489C18.1774 62.8739 18.2757 62.6366 18.2757 62.3891C18.2757 62.1417 18.1774 61.9043 18.0025 61.7293C17.8275 61.5544 17.5901 61.4561 17.3427 61.4561Z" fill="#5B476B"/>
    <path d="M22.0067 50.2588H21.0737C20.8262 50.2588 20.5889 50.3571 20.4139 50.5321C20.2389 50.7071 20.1406 50.9444 20.1406 51.1918C20.1406 51.4393 20.2389 51.6766 20.4139 51.8516C20.5889 52.0266 20.8262 52.1249 21.0737 52.1249H22.0067C22.2542 52.1249 22.4915 52.0266 22.6665 51.8516C22.8415 51.6766 22.9398 51.4393 22.9398 51.1918C22.9398 50.9444 22.8415 50.7071 22.6665 50.5321C22.4915 50.3571 22.2542 50.2588 22.0067 50.2588Z" fill="#5B476B"/>
    <path d="M22.0067 53.9902H21.0737C20.8262 53.9902 20.5889 54.0885 20.4139 54.2635C20.2389 54.4385 20.1406 54.6758 20.1406 54.9233C20.1406 55.1708 20.2389 55.4081 20.4139 55.5831C20.5889 55.758 20.8262 55.8564 21.0737 55.8564H22.0067C22.2542 55.8564 22.4915 55.758 22.6665 55.5831C22.8415 55.4081 22.9398 55.1708 22.9398 54.9233C22.9398 54.6758 22.8415 54.4385 22.6665 54.2635C22.4915 54.0885 22.2542 53.9902 22.0067 53.9902Z" fill="#5B476B"/>
    <path d="M22.0067 57.7227H21.0737C20.8262 57.7227 20.5889 57.821 20.4139 57.9959C20.2389 58.1709 20.1406 58.4083 20.1406 58.6557C20.1406 58.9032 20.2389 59.1405 20.4139 59.3155C20.5889 59.4905 20.8262 59.5888 21.0737 59.5888H22.0067C22.2542 59.5888 22.4915 59.4905 22.6665 59.3155C22.8415 59.1405 22.9398 58.9032 22.9398 58.6557C22.9398 58.4083 22.8415 58.1709 22.6665 57.9959C22.4915 57.821 22.2542 57.7227 22.0067 57.7227Z" fill="#5B476B"/>
    <path d="M22.0067 61.4561H21.0737C20.8262 61.4561 20.5889 61.5544 20.4139 61.7293C20.2389 61.9043 20.1406 62.1417 20.1406 62.3891C20.1406 62.6366 20.2389 62.8739 20.4139 63.0489C20.5889 63.2239 20.8262 63.3222 21.0737 63.3222H22.0067C22.2542 63.3222 22.4915 63.2239 22.6665 63.0489C22.8415 62.8739 22.9398 62.6366 22.9398 62.3891C22.9398 62.1417 22.8415 61.9043 22.6665 61.7293C22.4915 61.5544 22.2542 61.4561 22.0067 61.4561Z" fill="#5B476B"/>
    <path d="M62.4236 51.0056L55.4256 48.6729C55.3094 48.6342 55.1866 48.6187 55.0644 48.6273C54.9422 48.636 54.8228 48.6687 54.7132 48.7235C54.4919 48.8341 54.3235 49.0282 54.2452 49.2629C54.2064 49.3792 54.1909 49.5019 54.1996 49.6242C54.2083 49.7464 54.2409 49.8657 54.2957 49.9753C54.3505 50.085 54.4263 50.1827 54.5189 50.263C54.6115 50.3433 54.7189 50.4046 54.8352 50.4434L61.8331 52.776C61.9494 52.8148 62.0721 52.8303 62.1944 52.8216C62.3166 52.8129 62.4359 52.7803 62.5455 52.7255C62.6552 52.6707 62.7529 52.5949 62.8332 52.5023C62.9135 52.4097 62.9748 52.3023 63.0136 52.186C63.0524 52.0698 63.0678 51.947 63.0592 51.8248C63.0505 51.7026 63.0178 51.5832 62.9631 51.4736C62.9083 51.364 62.8324 51.2662 62.7399 51.1859C62.6473 51.1056 62.5398 51.0443 62.4236 51.0056H62.4236Z" fill="#5B476B"/>
    <path d="M62.4236 54.739L55.4256 52.4063C55.1909 52.328 54.9346 52.3462 54.7132 52.4569C54.4919 52.5675 54.3235 52.7616 54.2452 52.9963C54.1669 53.2311 54.1851 53.4874 54.2957 53.7087C54.4064 53.9301 54.6004 54.0985 54.8352 54.1768L61.8331 56.5094C62.0679 56.5877 62.3242 56.5695 62.5455 56.4589C62.7669 56.3483 62.9353 56.1542 63.0136 55.9194C63.0919 55.6846 63.0737 55.4284 62.9631 55.207C62.8524 54.9856 62.6584 54.8173 62.4236 54.739H62.4236Z" fill="#5B476B"/>
    <path d="M62.4236 58.4704L55.4256 56.1378C55.1909 56.0595 54.9346 56.0777 54.7132 56.1883C54.4919 56.2989 54.3235 56.493 54.2452 56.7278C54.1669 56.9625 54.1851 57.2188 54.2957 57.4402C54.4064 57.6616 54.6004 57.8299 54.8352 57.9082L61.8331 60.2409C61.9494 60.2796 62.0721 60.2951 62.1944 60.2865C62.3166 60.2778 62.4359 60.2451 62.5455 60.1903C62.6552 60.1356 62.7529 60.0597 62.8332 59.9672C62.9135 59.8746 62.9748 59.7671 63.0136 59.6509C63.0523 59.5346 63.0678 59.4119 63.0592 59.2896C63.0505 59.1674 63.0178 59.0481 62.9631 58.9385C62.9083 58.8288 62.8324 58.7311 62.7399 58.6508C62.6473 58.5705 62.5398 58.5092 62.4236 58.4704H62.4236Z" fill="#5B476B"/>
    <path d="M62.4236 62.2009L55.4256 59.8682C55.1909 59.7899 54.9346 59.8081 54.7132 59.9188C54.4919 60.0294 54.3235 60.2235 54.2452 60.4582C54.1669 60.693 54.1851 60.9493 54.2957 61.1707C54.4064 61.392 54.6004 61.5604 54.8352 61.6387L61.8331 63.9713C61.9494 64.0101 62.0721 64.0256 62.1944 64.0169C62.3166 64.0083 62.4359 63.9756 62.5455 63.9208C62.6552 63.866 62.7529 63.7902 62.8332 63.6976C62.9135 63.6051 62.9748 63.4976 63.0136 63.3813C63.0523 63.2651 63.0678 63.1423 63.0592 63.0201C63.0505 62.8979 63.0178 62.7785 62.9631 62.6689C62.9083 62.5593 62.8324 62.4616 62.7399 62.3813C62.6473 62.3009 62.5398 62.2397 62.4236 62.2009H62.4236Z" fill="#5B476B"/>
    <path d="M26.6747 50.2588H25.7417C25.4942 50.2588 25.2569 50.3571 25.0819 50.5321C24.9069 50.7071 24.8086 50.9444 24.8086 51.1918C24.8086 51.4393 24.9069 51.6766 25.0819 51.8516C25.2569 52.0266 25.4942 52.1249 25.7417 52.1249H26.6747C26.9222 52.1249 27.1595 52.0266 27.3345 51.8516C27.5095 51.6766 27.6078 51.4393 27.6078 51.1918C27.6078 50.9444 27.5095 50.7071 27.3345 50.5321C27.1595 50.3571 26.9222 50.2588 26.6747 50.2588Z" fill="#5B476B"/>
    <path d="M26.6747 53.9902H25.7417C25.4942 53.9902 25.2569 54.0885 25.0819 54.2635C24.9069 54.4385 24.8086 54.6758 24.8086 54.9233C24.8086 55.1708 24.9069 55.4081 25.0819 55.5831C25.2569 55.758 25.4942 55.8564 25.7417 55.8564H26.6747C26.9222 55.8564 27.1595 55.758 27.3345 55.5831C27.5095 55.4081 27.6078 55.1708 27.6078 54.9233C27.6078 54.6758 27.5095 54.4385 27.3345 54.2635C27.1595 54.0885 26.9222 53.9902 26.6747 53.9902Z" fill="#5B476B"/>
    <path d="M26.6747 57.7227H25.7417C25.4942 57.7227 25.2569 57.821 25.0819 57.9959C24.9069 58.1709 24.8086 58.4083 24.8086 58.6557C24.8086 58.9032 24.9069 59.1405 25.0819 59.3155C25.2569 59.4905 25.4942 59.5888 25.7417 59.5888H26.6747C26.9222 59.5888 27.1595 59.4905 27.3345 59.3155C27.5095 59.1405 27.6078 58.9032 27.6078 58.6557C27.6078 58.4083 27.5095 58.1709 27.3345 57.9959C27.1595 57.821 26.9222 57.7227 26.6747 57.7227Z" fill="#5B476B"/>
    <path d="M26.6747 61.4561H25.7417C25.4942 61.4561 25.2569 61.5544 25.0819 61.7293C24.9069 61.9043 24.8086 62.1417 24.8086 62.3891C24.8086 62.6366 24.9069 62.8739 25.0819 63.0489C25.2569 63.2239 25.4942 63.3222 25.7417 63.3222H26.6747C26.9222 63.3222 27.1595 63.2239 27.3345 63.0489C27.5095 62.8739 27.6078 62.6366 27.6078 62.3891C27.6078 62.1417 27.5095 61.9043 27.3345 61.7293C27.1595 61.5544 26.9222 61.4561 26.6747 61.4561Z" fill="#5B476B"/>
</svg>
