<svg width="34" height="34" viewBox="0 0 34 34" fill="none" xmlns="http://www.w3.org/2000/svg">
    <path fill-rule="evenodd" clip-rule="evenodd" d="M17 33C25.8366 33 33 25.8366 33 17C33 8.16344 25.8366 1 17 1C8.16344 1 1 8.16344 1 17C1 25.8366 8.16344 33 17 33Z" fill="#9A00FF" stroke="white"/>
    <path fill-rule="evenodd" clip-rule="evenodd" d="M24.6464 11.6464C24.8417 11.4512 25.1583 11.4512 25.3536 11.6464C25.5271 11.82 25.5464 12.0894 25.4114 12.2843L25.3536 12.3536L14.3536 23.3536C14.18 23.5271 13.9106 23.5464 13.7157 23.4114L13.6464 23.3536L8.64645 18.3536C8.45118 18.1583 8.45118 17.8417 8.64645 17.6464C8.82001 17.4729 9.08944 17.4536 9.28431 17.5886L9.35355 17.6464L14 22.293L24.6464 11.6464Z" stroke="white" stroke-width="2"/>
</svg>
