<svg width="32" height="32" viewBox="0 0 32 32" fill="none" xmlns="http://www.w3.org/2000/svg">
<path d="M31 16C31 24.2843 24.2843 31 16 31C7.71573 31 1 24.2843 1 16C1 7.71573 7.71573 1 16 1C24.2843 1 31 7.71573 31 16Z" stroke="#9A00FF" stroke-width="2"/>
<path fill-rule="evenodd" clip-rule="evenodd" d="M23.6464 10.6464C23.8417 10.4512 24.1583 10.4512 24.3536 10.6464C24.5271 10.82 24.5464 11.0894 24.4114 11.2843L24.3536 11.3536L13.3536 22.3536C13.18 22.5271 12.9106 22.5464 12.7157 22.4114L12.6464 22.3536L7.64645 17.3536C7.45118 17.1583 7.45118 16.8417 7.64645 16.6464C7.82001 16.4729 8.08944 16.4536 8.28431 16.5886L8.35355 16.6464L13 21.293L23.6464 10.6464Z" stroke="#9A00FF" stroke-width="2"/>
</svg>
