<svg width="20" height="20" viewBox="0 0 20 20" fill="none" xmlns="http://www.w3.org/2000/svg">
<path fill-rule="evenodd" clip-rule="evenodd" d="M10 20C15.5228 20 20 15.5228 20 10C20 4.47715 15.5228 0 10 0C4.47715 0 0 4.47715 0 10C0 15.5228 4.47715 20 10 20Z" fill="white"/>
<path fill-rule="evenodd" clip-rule="evenodd" d="M14.779 6.65403C14.9011 6.53199 15.0989 6.53199 15.221 6.65403C15.3295 6.76251 15.3415 6.9309 15.2571 7.05269L15.221 7.09597L8.34597 13.971C8.23749 14.0795 8.0691 14.0915 7.94731 14.0071L7.90403 13.971L4.77903 10.846C4.65699 10.7239 4.65699 10.5261 4.77903 10.404C4.88751 10.2956 5.0559 10.2835 5.17769 10.3679L5.22097 10.404L8.125 13.3081L14.779 6.65403Z" fill="#777185"/>
</svg>
