<svg width="17" height="20" viewBox="0 0 17 20" fill="none" xmlns="http://www.w3.org/2000/svg">
<path d="M11.2747 3.49902H1.97976C1.56044 3.49935 1.15838 3.66608 0.861876 3.96258C0.565369 4.25909 0.398647 4.66115 0.398315 5.08047L0.398315 18.4221C0.399308 18.841 0.566323 19.2424 0.862758 19.5384C1.15919 19.8344 1.56087 20.0008 1.97976 20.0011H11.2747C11.694 20.0008 12.0961 19.834 12.3926 19.5375C12.6891 19.241 12.8558 18.839 12.8561 18.4196V5.08047C12.8545 4.66155 12.6873 4.26026 12.3911 3.96404C12.0949 3.66781 11.6936 3.50067 11.2747 3.49902ZM11.7497 18.4184C11.7497 18.5444 11.6997 18.6652 11.6106 18.7543C11.5215 18.8434 11.4007 18.8934 11.2747 18.8934H1.97601C1.85002 18.8934 1.72919 18.8434 1.64009 18.7543C1.551 18.6652 1.50095 18.5444 1.50095 18.4184V5.08047C1.50095 4.95448 1.551 4.83364 1.64009 4.74455C1.72919 4.65546 1.85002 4.60541 1.97601 4.60541H11.2747C11.4007 4.60541 11.5215 4.65546 11.6106 4.74455C11.6997 4.83364 11.7497 4.95448 11.7497 5.08047V18.4184Z" fill="#5B476B"/>
<path d="M14.8305 0H5.53555C5.11622 0.000331089 4.71417 0.167054 4.41766 0.463561C4.12116 0.760068 3.95443 1.16212 3.9541 1.58145C3.9541 1.72816 4.01238 1.86887 4.11613 1.97262C4.21987 2.07636 4.36058 2.13464 4.5073 2.13464C4.65401 2.13464 4.79472 2.07636 4.89846 1.97262C5.00221 1.86887 5.06049 1.72816 5.06049 1.58145C5.06049 1.45545 5.11054 1.33462 5.19963 1.24553C5.28872 1.15644 5.40956 1.10639 5.53555 1.10639H14.8305C14.9565 1.10639 15.0773 1.15644 15.1664 1.24553C15.2555 1.33462 15.3055 1.45545 15.3055 1.58145V14.9231C15.3055 14.9855 15.2932 15.0473 15.2694 15.1049C15.2455 15.1625 15.2105 15.2149 15.1664 15.259C15.1223 15.3031 15.0699 15.3381 15.0123 15.362C14.9546 15.3859 14.8928 15.3982 14.8305 15.3982C14.6837 15.3982 14.543 15.4565 14.4393 15.5602C14.3355 15.6639 14.2773 15.8047 14.2773 15.9514C14.2773 16.0981 14.3355 16.2388 14.4393 16.3425C14.543 16.4463 14.6837 16.5046 14.8305 16.5046C15.2498 16.5042 15.6518 16.3375 15.9483 16.041C16.2449 15.7445 16.4116 15.3424 16.4119 14.9231V1.58145C16.4116 1.16212 16.2449 0.760068 15.9483 0.463561C15.6518 0.167054 15.2498 0.000331089 14.8305 0Z" fill="#5B476B"/>
</svg>
