<svg width="40" height="40" viewBox="0 0 40 40" fill="none" xmlns="http://www.w3.org/2000/svg">
<path fill-rule="evenodd" clip-rule="evenodd" d="M20 40C31.0457 40 40 31.0457 40 20C40 8.95431 31.0457 0 20 0C8.95431 0 0 8.95431 0 20C0 31.0457 8.95431 40 20 40Z" fill="#F4E5FF"/>
<path d="M17.0916 13.6854C15.3664 14.416 13.9827 15.7999 13.252 17.5249H13.8644C14.5263 16.1068 15.6733 14.9596 17.0916 14.2979V13.6854Z" fill="#5B476B" stroke="#5B476B" stroke-width="0.185858"/>
<path d="M22.6956 13.6854V14.2979C24.1137 14.9597 25.2609 16.1068 25.9225 17.5249H26.535C25.8045 15.7999 24.4207 14.416 22.6956 13.6854Z" fill="#5B476B" stroke="#5B476B" stroke-width="0.185858"/>
<path d="M17.0916 26.9686V26.3561C15.6733 25.6943 14.5263 24.5472 13.8644 23.129H13.252C13.9827 24.8541 15.3664 26.2381 17.0916 26.9686Z" fill="#5B476B" stroke="#5B476B" stroke-width="0.185858"/>
<path d="M25.9225 23.129C25.2607 24.5472 24.1137 25.6943 22.6956 26.3561V26.9686C24.4207 26.2381 25.8045 24.8541 26.5352 23.129H25.9225Z" fill="#5B476B" stroke="#5B476B" stroke-width="0.185858"/>
<path d="M20.6975 23.129C20.4623 22.9867 20.1877 22.9034 19.8934 22.9034C19.5991 22.9034 19.3245 22.9867 19.0893 23.129C18.6369 23.4025 18.333 23.8976 18.333 24.4638C18.333 25.3242 19.0331 26.0241 19.8934 26.0241C20.7536 26.0241 21.4538 25.324 21.4538 24.4638C21.4538 23.8978 21.1499 23.4027 20.6975 23.129ZM19.8934 25.4661C19.3408 25.4661 18.891 25.0165 18.891 24.4638C18.891 23.911 19.3406 23.4614 19.8934 23.4614C20.4462 23.4614 20.8957 23.911 20.8957 24.4638C20.8957 25.0165 20.446 25.4661 19.8934 25.4661Z" fill="#5B476B" stroke="#5B476B" stroke-width="0.185858"/>
<path d="M17.8583 27.9998H18.1374C18.1374 27.3359 18.6776 26.7957 19.3415 26.7957H20.4454C21.1093 26.7957 21.6495 27.3359 21.6495 27.9998H21.9286H22.2077C22.2077 27.028 21.4171 26.2376 20.4456 26.2376H19.3415C18.3698 26.2376 17.5793 27.0282 17.5793 27.9998H17.8583Z" fill="#5B476B" stroke="#5B476B" stroke-width="0.185858"/>
<path d="M21.4538 13.5604C21.4538 12.6999 20.7536 12 19.8934 12C19.0331 12 18.333 12.7001 18.333 13.5604C18.333 14.4206 19.0331 15.1207 19.8934 15.1207C20.7536 15.1207 21.4538 14.4208 21.4538 13.5604ZM18.891 13.5604C18.891 13.0078 19.3406 12.558 19.8934 12.558C20.4462 12.558 20.8957 13.0076 20.8957 13.5604C20.8957 14.1132 20.4462 14.5627 19.8934 14.5627C19.3406 14.5627 18.891 14.113 18.891 13.5604Z" fill="#5B476B" stroke="#5B476B" stroke-width="0.185858"/>
<path d="M17.5791 17.0966H18.1373C18.1373 16.4327 18.6775 15.8927 19.3414 15.8927H20.4453C21.1092 15.8927 21.6492 16.4327 21.6494 17.0966H22.2077C22.2077 16.1249 21.4171 15.3345 20.4455 15.3345H19.3414C18.3697 15.3345 17.5791 16.1249 17.5791 17.0966Z" fill="#5B476B" stroke="#5B476B" stroke-width="0.185858"/>
<path d="M26.0259 17.6392C25.1655 17.6392 24.4656 18.3393 24.4656 19.1995C24.4656 20.0598 25.1657 20.7599 26.0259 20.7599C26.8864 20.7599 27.5863 20.0598 27.5863 19.1995C27.5863 18.3393 26.8864 17.6392 26.0259 17.6392ZM26.0259 20.2019C25.4734 20.2019 25.0236 19.7523 25.0236 19.1995C25.0236 18.6469 25.4732 18.1972 26.0259 18.1972C26.5785 18.1972 27.0283 18.6467 27.0283 19.1995C27.0281 19.7523 26.5785 20.2019 26.0259 20.2019Z" fill="#5B476B" stroke="#5B476B" stroke-width="0.185858"/>
<path d="M27.7818 22.7356H28.0609H28.34C28.34 21.7639 27.5494 20.9734 26.5779 20.9734H25.4738C24.5021 20.9734 23.7117 21.7641 23.7117 22.7356H23.9908H24.2699C24.2699 22.0717 24.8101 21.5315 25.474 21.5315H26.5779C27.2418 21.5315 27.7818 22.0717 27.7818 22.7356Z" fill="#5B476B" stroke="#5B476B" stroke-width="0.185858"/>
<path d="M13.7608 17.6392C12.9004 17.6392 12.2004 18.3393 12.2004 19.1995C12.2004 20.0598 12.9006 20.7599 13.7608 20.7599C14.6211 20.7599 15.3212 20.0598 15.3212 19.1995C15.3212 18.3393 14.6212 17.6392 13.7608 17.6392ZM13.7608 20.2019C13.2082 20.2019 12.7585 19.7523 12.7585 19.1995C12.7585 18.6469 13.208 18.1972 13.7608 18.1972C14.3136 18.1972 14.7631 18.6467 14.7631 19.1995C14.7631 19.7523 14.3136 20.2019 13.7608 20.2019Z" fill="#5B476B" stroke="#5B476B" stroke-width="0.185858"/>
<path d="M12.005 22.7356C12.005 22.0717 12.5452 21.5315 13.2091 21.5315H14.313C14.9769 21.5315 15.5171 22.0717 15.5171 22.7356H15.7962H16.0753C16.0753 21.7639 15.2847 20.9734 14.3132 20.9734H13.2093C12.2374 20.9733 11.4468 21.7639 11.4468 22.7356H11.7259H12.005Z" fill="#5B476B" stroke="#5B476B" stroke-width="0.185858"/>
</svg>
