<svg width="18" height="18" viewBox="0 0 18 18" fill="none" xmlns="http://www.w3.org/2000/svg">
<path d="M16.9956 3.90441L11.9766 0.202012C11.7987 0.071672 11.5842 0.000959974 11.3636 0L1.56602 2.43808C1.29682 2.44976 1.04254 2.56498 0.85627 2.75968C0.670003 2.95438 0.566154 3.21352 0.566407 3.48297V13.2353C0.567173 13.4011 0.607371 13.5643 0.68368 13.7114C0.759989 13.8586 0.870218 13.9855 1.00526 14.0817L5.97895 17.7632C6.16494 17.9263 6.40373 18.0167 6.65116 18.0174H6.69296L16.4453 15.5793C16.7139 15.5668 16.9673 15.4512 17.1528 15.2566C17.3383 15.062 17.4417 14.8033 17.4414 14.5344V4.78212C17.4449 4.61045 17.4061 4.44056 17.3283 4.28747C17.2506 4.13439 17.1363 4.00282 16.9956 3.90441ZM15.7974 3.86958L12.4085 4.71246V1.39319L15.7974 3.86958ZM11.3984 0.696594C11.4847 0.705258 11.5645 0.745744 11.6225 0.810148C11.6805 0.874551 11.7124 0.958247 11.7119 1.04489V4.87616L8.78274 5.60758L6.60588 6.15093C6.43883 6.15992 6.27638 6.2089 6.1322 6.29373L1.76455 3.09636L11.3984 0.696594ZM1.263 3.59094L5.67593 6.83011C5.63112 6.94931 5.60754 7.07545 5.60627 7.20279V12.5735L1.57647 13.5836C1.49026 13.5749 1.41037 13.5344 1.35241 13.47C1.29444 13.4056 1.26257 13.3219 1.263 13.2353V3.59094ZM5.60627 13.291V16.6103L2.23475 14.1339L5.60627 13.291ZM16.7518 14.517C16.7518 14.6094 16.7151 14.698 16.6498 14.7633C16.5844 14.8286 16.4959 14.8653 16.4035 14.8653L6.61633 17.3034C6.53548 17.2945 6.46031 17.2575 6.40387 17.1989C6.34661 17.1359 6.31439 17.0542 6.31331 16.969V13.1378V7.21672C6.31331 7.12434 6.35001 7.03575 6.41532 6.97044C6.48064 6.90512 6.56923 6.86842 6.66161 6.86842L12.4085 5.42647L16.4383 4.42337C16.5245 4.43204 16.6044 4.47252 16.6624 4.53693C16.7203 4.60133 16.7522 4.68503 16.7518 4.77167V14.517Z" fill="#777185"/>
<path d="M14.8875 10.1015C14.8638 10.0125 14.8058 9.93643 14.7261 9.89008C14.6465 9.84373 14.5517 9.83083 14.4626 9.85421L12.1952 10.4498V8.15103C12.1952 8.05866 12.1585 7.97007 12.0932 7.90475C12.0278 7.83943 11.9392 7.80273 11.8469 7.80273C11.7545 7.80273 11.6659 7.83943 11.6006 7.90475C11.5353 7.97007 11.4986 8.05866 11.4986 8.15103V10.6309L8.92466 11.3275C8.83229 11.339 8.74828 11.3868 8.69113 11.4603C8.63397 11.5338 8.60835 11.627 8.6199 11.7193C8.63145 11.8117 8.67922 11.8957 8.7527 11.9529C8.82618 12.01 8.91936 12.0356 9.01173 12.0241C9.04182 12.0275 9.0722 12.0275 9.10229 12.0241L11.4986 11.3902V13.5566C11.4986 13.649 11.5353 13.7376 11.6006 13.8029C11.6659 13.8682 11.7545 13.9049 11.8469 13.9049C11.9392 13.9049 12.0278 13.8682 12.0932 13.8029C12.1585 13.7376 12.1952 13.649 12.1952 13.5566V11.1673L14.6333 10.5229C14.7228 10.5007 14.7999 10.4438 14.8476 10.3648C14.8952 10.2858 14.9096 10.1911 14.8875 10.1015Z" fill="#777185"/>
</svg>
