<svg width="31" height="32" viewBox="0 0 31 32" fill="none" xmlns="http://www.w3.org/2000/svg">
<path d="M30.1996 6.94118L21.277 0.359133C20.9608 0.127417 20.5793 0.00170662 20.1872 0L2.76928 4.33437C2.2907 4.35512 1.83864 4.55996 1.5075 4.9061C1.17636 5.25224 0.991738 5.71292 0.992188 6.19195V23.5294C0.993551 23.8241 1.06501 24.1143 1.20067 24.3759C1.33633 24.6375 1.5323 24.8631 1.77237 25.0341L10.6145 31.5789C10.9451 31.8691 11.3696 32.0296 11.8095 32.031H11.8838L29.2213 27.6966C29.6988 27.6743 30.1493 27.4688 30.4791 27.1228C30.8089 26.7768 30.9927 26.317 30.9922 25.839V8.50155C30.9985 8.19636 30.9294 7.89433 30.7912 7.62217C30.6529 7.35002 30.4498 7.11612 30.1996 6.94118ZM28.0696 6.87926L22.0448 8.37771V2.47678L28.0696 6.87926ZM20.2492 1.23839C20.4024 1.25379 20.5444 1.32577 20.6475 1.44026C20.7505 1.55476 20.8072 1.70355 20.8064 1.85759V8.66873L15.599 9.96904L11.729 10.935C11.4321 10.951 11.1433 11.038 10.8869 11.1889L3.12222 5.50464L20.2492 1.23839ZM2.23058 6.3839L10.0758 12.1424C9.99612 12.3543 9.95421 12.5786 9.95194 12.805V22.3529L2.78785 24.1486C2.63459 24.1332 2.49257 24.0612 2.38952 23.9467C2.28648 23.8322 2.22981 23.6834 2.23058 23.5294V6.3839ZM9.95194 23.6285V29.5294L3.95813 25.1269L9.95194 23.6285ZM29.7662 25.8081C29.7662 25.9723 29.7009 26.1298 29.5848 26.2459C29.4687 26.362 29.3112 26.4272 29.147 26.4272L11.7476 30.7616C11.6039 30.7457 11.4702 30.68 11.3699 30.5759C11.2681 30.4639 11.2108 30.3185 11.2089 30.1672V23.356V12.8297C11.2089 12.6655 11.2741 12.508 11.3903 12.3919C11.5064 12.2758 11.6639 12.2105 11.8281 12.2105L22.0448 9.64706L29.2089 7.86378C29.3622 7.87918 29.5042 7.95115 29.6072 8.06565C29.7103 8.18014 29.767 8.32894 29.7662 8.48297V25.8081Z" fill="white"/>
<path d="M26.4519 17.9558C26.4098 17.7975 26.3066 17.6624 26.165 17.58C26.0234 17.4976 25.855 17.4746 25.6965 17.5162L21.6655 18.575V14.4883C21.6655 14.3241 21.6003 14.1666 21.4842 14.0505C21.3681 13.9344 21.2106 13.8691 21.0464 13.8691C20.8821 13.8691 20.7246 13.9344 20.6085 14.0505C20.4924 14.1666 20.4272 14.3241 20.4272 14.4883V18.897L15.8513 20.1354C15.6871 20.1559 15.5377 20.2408 15.4361 20.3715C15.3345 20.5021 15.289 20.6678 15.3095 20.832C15.33 20.9962 15.415 21.1455 15.5456 21.2472C15.6762 21.3488 15.8419 21.3943 16.0061 21.3738C16.0596 21.3799 16.1136 21.3799 16.1671 21.3738L20.4272 20.2469V24.0982C20.4272 24.2625 20.4924 24.42 20.6085 24.5361C20.7246 24.6522 20.8821 24.7174 21.0464 24.7174C21.2106 24.7174 21.3681 24.6522 21.4842 24.5361C21.6003 24.42 21.6655 24.2625 21.6655 24.0982V19.8506L25.9999 18.7051C26.1591 18.6655 26.2962 18.5644 26.3809 18.424C26.4657 18.2835 26.4912 18.1151 26.4519 17.9558Z" fill="white"/>
</svg>
