<svg width="17" height="18" viewBox="0 0 17 18" fill="none" xmlns="http://www.w3.org/2000/svg">
<path d="M16.4327 3.90093L11.4102 0.202012C11.2323 0.071672 11.0177 0.000959974 10.7972 0L0.999613 2.43808C0.730413 2.44976 0.476131 2.56498 0.289864 2.75968C0.103597 2.95438 -0.000252639 3.21352 4.61552e-07 3.48297V13.2353C0.000767015 13.4011 0.040965 13.5643 0.117274 13.7114C0.193582 13.8586 0.303811 13.9855 0.438855 14.0817L5.42299 17.7632C5.60817 17.9223 5.8441 18.01 6.08824 18.0104H6.13003L15.8824 15.5724C16.1516 15.5607 16.4058 15.4455 16.5921 15.2508C16.7784 15.0561 16.8822 14.7969 16.882 14.5275V4.77515C16.8845 4.60376 16.8449 4.43437 16.7665 4.28191C16.6882 4.12945 16.5735 3.99862 16.4327 3.90093ZM16.1923 14.2802L11.8073 11.0515C11.8293 10.9685 11.841 10.8831 11.8421 10.7972V5.42299L15.8789 4.41641C15.9651 4.42507 16.045 4.46556 16.1029 4.52996C16.1609 4.59437 16.1928 4.67806 16.1923 4.76471V14.2802ZM1.01006 13.5836C0.923851 13.5749 0.843963 13.5344 0.786 13.47C0.728037 13.4056 0.696161 13.3219 0.696595 13.2353V3.59094L5.11649 6.83359C5.0703 6.95119 5.04667 7.07644 5.04683 7.20279V12.577L1.01006 13.5836ZM5.04683 13.291V16.6138L1.66834 14.1339L5.04683 13.291ZM5.74342 7.20279C5.74342 7.11041 5.78012 7.02182 5.84544 6.9565C5.91075 6.89118 5.99934 6.85449 6.09172 6.85449L11.1455 5.59714V10.7972C11.1455 10.8896 11.1088 10.9782 11.0435 11.0435C10.9782 11.1088 10.8896 11.1455 10.7972 11.1455L5.74342 12.4029V7.20279ZM11.8421 4.71594V1.39319L15.231 3.88351L11.8421 4.71594ZM10.832 0.696594C10.9183 0.705258 10.9981 0.745744 11.0561 0.810148C11.1141 0.874551 11.1459 0.958247 11.1455 1.04489V4.87616L6.04644 6.15789C5.87895 6.16712 5.71628 6.21736 5.57276 6.30418L1.19814 3.09636L10.832 0.696594ZM6.05689 17.2999C5.97068 17.2913 5.89079 17.2508 5.83283 17.1864C5.77486 17.122 5.74299 17.0383 5.74342 16.9516V13.1204L10.8425 11.8421C11.0518 11.832 11.2533 11.7592 11.4207 11.6331L15.8301 14.8688L6.05689 17.2999Z" fill="url(#paint0_linear)"/>
<defs>
<linearGradient id="paint0_linear" x1="16.249" y1="18.0104" x2="-0.418625" y2="1.75368" gradientUnits="userSpaceOnUse">
<stop stop-color="#6D00E6"/>
<stop offset="1" stop-color="#9A00FF"/>
</linearGradient>
</defs>
</svg>
