<svg width="49" height="48" viewBox="0 0 49 48" fill="none" xmlns="http://www.w3.org/2000/svg">
<path fill-rule="evenodd" clip-rule="evenodd" d="M24.9452 43.7487C36.0792 43.7487 45.1052 34.7228 45.1052 23.5887C45.1052 12.4547 36.0792 3.42871 24.9452 3.42871C13.8111 3.42871 4.78516 12.4547 4.78516 23.5887C4.78516 34.7228 13.8111 43.7487 24.9452 43.7487Z" fill="#F4E5FF"/>
<path fill-rule="evenodd" clip-rule="evenodd" d="M26.06 13.872C25.9996 13.5388 25.7079 13.2861 25.3573 13.2861C24.9628 13.2861 24.643 13.6059 24.643 14.0004V23.2861H15.3569L15.2285 23.2976C14.8953 23.3581 14.6426 23.6497 14.6426 24.0004C14.6426 24.3949 14.9624 24.7147 15.3569 24.7147H24.643V34.0004L24.6545 34.1288C24.715 34.462 25.0066 34.7147 25.3573 34.7147C25.7518 34.7147 26.0716 34.3949 26.0716 34.0004V24.7147H35.3569L35.4853 24.7031C35.8185 24.6427 36.0712 24.351 36.0712 24.0004C36.0712 23.6059 35.7514 23.2861 35.3569 23.2861H26.0716V14.0004L26.06 13.872Z" fill="#5B476B"/>
</svg>
