<svg width="49" height="48" viewBox="0 0 49 48" fill="none" xmlns="http://www.w3.org/2000/svg">
<path fill-rule="evenodd" clip-rule="evenodd" d="M24.5887 45.4626C35.7228 45.4626 44.7487 36.4366 44.7487 25.3026C44.7487 14.1685 35.7228 5.14258 24.5887 5.14258C13.4546 5.14258 4.42871 14.1685 4.42871 25.3026C4.42871 36.4366 13.4546 45.4626 24.5887 45.4626Z" fill="#F4E5FF"/>
<mask id="path-2-inside-1_776_23515" fill="white">
<path fill-rule="evenodd" clip-rule="evenodd" d="M33.57 15.0064L30.5718 25.2857L28.0004 22.7143L25.0004 30L22.429 27.8571L17.8213 37.4017C19.9095 38.6871 22.3684 39.4286 25.0004 39.4286C32.5746 39.4286 38.7147 33.2885 38.7147 25.7143C38.7147 21.3825 36.7063 17.5197 33.57 15.0064ZM30.1967 13.0186L28.8576 19.7143L27.1433 17.5714L23.7147 26.1429L21.1433 24L17.3514 37.0991C13.6929 34.6362 11.2861 30.4563 11.2861 25.7143C11.2861 18.1401 17.4262 12 25.0004 12C26.8395 12 28.5941 12.362 30.1967 13.0186Z"/>
</mask>
<path d="M30.5718 25.2857L29.8647 25.9928L31.059 27.187L31.5318 25.5657L30.5718 25.2857ZM33.57 15.0064L34.1953 14.2261L33.0286 13.2911L32.61 14.7264L33.57 15.0064ZM28.0004 22.7143L28.7075 22.0072L27.6469 20.9465L27.0757 22.3335L28.0004 22.7143ZM25.0004 30L24.3602 30.7682L25.4065 31.6401L25.9251 30.3808L25.0004 30ZM22.429 27.8571L23.0692 27.0889L22.0853 26.269L21.5284 27.4224L22.429 27.8571ZM17.8213 37.4017L16.9207 36.9669L16.5282 37.78L17.2971 38.2533L17.8213 37.4017ZM30.1967 13.0186L31.1773 13.2148L31.339 12.406L30.5758 12.0933L30.1967 13.0186ZM28.8576 19.7143L28.0767 20.339L29.4173 22.0147L29.8381 19.9104L28.8576 19.7143ZM27.1433 17.5714L27.9241 16.9467L26.8521 15.6067L26.2148 17.2L27.1433 17.5714ZM23.7147 26.1429L23.0745 26.9111L24.132 27.7923L24.6432 26.5142L23.7147 26.1429ZM21.1433 24L21.7835 23.2318L20.6081 22.2523L20.1827 23.7219L21.1433 24ZM17.3514 37.0991L16.793 37.9286L17.9307 38.6945L18.312 37.3771L17.3514 37.0991ZM31.5318 25.5657L34.53 15.2864L32.61 14.7264L29.6118 25.0057L31.5318 25.5657ZM27.2933 23.4214L29.8647 25.9928L31.279 24.5786L28.7075 22.0072L27.2933 23.4214ZM25.9251 30.3808L28.9251 23.095L27.0757 22.3335L24.0757 29.6192L25.9251 30.3808ZM21.7888 28.6254L24.3602 30.7682L25.6406 29.2318L23.0692 27.0889L21.7888 28.6254ZM18.7218 37.8364L23.3295 28.2919L21.5284 27.4224L16.9207 36.9669L18.7218 37.8364ZM25.0004 38.4286C22.5587 38.4286 20.2806 37.7413 18.3455 36.5501L17.2971 38.2533C19.5384 39.6329 22.178 40.4286 25.0004 40.4286V38.4286ZM37.7147 25.7143C37.7147 32.7362 32.0223 38.4286 25.0004 38.4286V40.4286C33.1269 40.4286 39.7147 33.8408 39.7147 25.7143H37.7147ZM32.9446 15.7868C35.8544 18.1185 37.7147 21.6988 37.7147 25.7143H39.7147C39.7147 21.0662 37.5583 16.921 34.1953 14.2261L32.9446 15.7868ZM29.2161 12.8225L27.877 19.5182L29.8381 19.9104L31.1773 13.2148L29.2161 12.8225ZM29.6384 19.0896L27.9241 16.9467L26.3624 18.1961L28.0767 20.339L29.6384 19.0896ZM26.2148 17.2L22.7862 25.7715L24.6432 26.5142L28.0718 17.9428L26.2148 17.2ZM24.3549 25.3746L21.7835 23.2318L20.5031 24.7682L23.0745 26.9111L24.3549 25.3746ZM20.1827 23.7219L16.3909 36.821L18.312 37.3771L22.1038 24.2781L20.1827 23.7219ZM17.9099 36.2695C14.5156 33.9845 12.2861 30.1096 12.2861 25.7143H10.2861C10.2861 30.803 12.8702 35.2878 16.793 37.9286L17.9099 36.2695ZM12.2861 25.7143C12.2861 18.6924 17.9785 13 25.0004 13V11C16.8739 11 10.2861 17.5878 10.2861 25.7143H12.2861ZM25.0004 13C26.7073 13 28.3332 13.3358 29.8176 13.944L30.5758 12.0933C28.855 11.3882 26.9718 11 25.0004 11V13Z" fill="#5B476B" mask="url(#path-2-inside-1_776_23515)"/>
</svg>
