<svg width="33" height="32" viewBox="0 0 33 32" fill="none" xmlns="http://www.w3.org/2000/svg">
    <path fill-rule="evenodd" clip-rule="evenodd" d="M16.4998 29.4396C23.9225 29.4396 29.9398 23.4223 29.9398 15.9996C29.9398 8.57686 23.9225 2.55957 16.4998 2.55957C9.07711 2.55957 3.05981 8.57686 3.05981 15.9996C3.05981 23.4223 9.07711 29.4396 16.4998 29.4396Z" fill="#F4E5FF"/>
    <path fill-rule="evenodd" clip-rule="evenodd" d="M15.8049 3.14947L4.88936 9.45155V22.8264L8.12807 21.0504L8.1931 13.1234C8.19658 12.6989 8.49739 12.1828 8.86496 11.9706L12.8583 9.66505C13.2259 9.45283 13.5211 9.62486 13.5176 10.0493L13.4515 18.1053C13.4514 18.114 13.4512 18.1227 13.4509 18.1314L15.8049 16.8405L15.8049 3.14947ZM16.7655 2.8156L16.7655 16.6089C16.907 16.6308 17.0455 16.6772 17.1746 16.748L28.2593 22.8267V9.45155L16.7655 2.8156ZM16.5743 29.6905L5.758 23.4457L16.4355 17.5903C16.5219 17.543 16.6264 17.543 16.7127 17.5903L27.3905 23.4458L16.5743 29.6905ZM16.9586 1.81781C16.7208 1.68052 16.4279 1.68052 16.1901 1.81781L4.31297 8.67506C4.07519 8.81234 3.92871 9.06605 3.92871 9.34062V23.0551C3.92871 23.3297 4.07519 23.5834 4.31297 23.7207L16.1901 30.5779C16.4279 30.7152 16.7208 30.7152 16.9586 30.5779L28.8357 23.7207C29.0735 23.5834 29.22 23.3297 29.22 23.0551V9.34062C29.22 9.06605 29.0735 8.81234 28.8357 8.67506L16.9586 1.81781ZM20.3634 10.7215L20.3981 14.9482L24.0586 17.0617L24.024 12.835L20.3634 10.7215ZM19.5677 14.66C19.5712 15.0845 19.872 15.6006 20.2395 15.8128L24.2329 18.1184C24.6005 18.3306 24.8956 18.1586 24.8922 17.7341L24.8543 13.1232C24.8509 12.6987 24.55 12.1826 24.1825 11.9704L20.1891 9.66483C19.8215 9.45261 19.5264 9.62464 19.5299 10.0491L19.5677 14.66ZM8.96054 20.507L9.02347 12.8352L12.6841 10.7217L12.6211 18.3935L8.96054 20.507ZM17.175 19.4432C16.8047 19.2349 16.3539 19.2292 15.9784 19.428L11.033 22.0462C10.1693 22.5034 10.1417 23.7308 10.9841 24.2263L15.9286 27.1349C16.3299 27.3709 16.829 27.3642 17.2237 27.1175L21.8783 24.2084C22.6823 23.7058 22.6551 22.5258 21.8286 22.0609L17.175 19.4432ZM16.4279 20.277C16.5146 20.2311 16.6186 20.2325 16.7041 20.2805L21.3577 22.8982C21.5484 23.0055 21.5547 23.2778 21.3691 23.3938L16.7146 26.3028C16.6235 26.3598 16.5083 26.3613 16.4157 26.3069L11.4712 23.3983C11.2768 23.284 11.2831 23.0007 11.4825 22.8952L16.4279 20.277Z" fill="#5B476B"/>
</svg>
