<svg width="16" height="16" viewBox="0 0 16 16" fill="none" xmlns="http://www.w3.org/2000/svg">
    <path fill-rule="evenodd" clip-rule="evenodd" d="M6.31579 0H0.421053C0.188512 0 0 0.188512 0 0.421053V6.31579C0 6.54833 0.188512 6.73685 0.421053 6.73685H6.31579C6.54833 6.73685 6.73685 6.54833 6.73685 6.31579V0.421053C6.73685 0.188512 6.54833 0 6.31579 0ZM5.89468 0.842286V5.89492H0.842041V0.842286H5.89468ZM15.579 0H9.68429C9.45175 0 9.26324 0.188512 9.26324 0.421053V6.31579C9.26324 6.54833 9.45175 6.73685 9.68429 6.73685H15.579C15.8116 6.73685 16.0001 6.54833 16.0001 6.31579V0.421053C16.0001 0.188512 15.8116 0 15.579 0ZM15.1579 0.842286V5.89492H10.1053V0.842286H15.1579ZM9.68429 9.26307H15.579C15.8116 9.26307 16.0001 9.45158 16.0001 9.68412V15.5789C16.0001 15.8114 15.8116 15.9999 15.579 15.9999H9.68429C9.45175 15.9999 9.26324 15.8114 9.26324 15.5789V9.68412C9.26324 9.45158 9.45175 9.26307 9.68429 9.26307ZM15.1579 15.1579V10.1052H10.1053V15.1579H15.1579ZM6.31579 9.26307H0.421053C0.188512 9.26307 0 9.45158 0 9.68412V15.5789C0 15.8114 0.188512 15.9999 0.421053 15.9999H6.31579C6.54833 15.9999 6.73685 15.8114 6.73685 15.5789V9.68412C6.73685 9.45158 6.54833 9.26307 6.31579 9.26307ZM5.89468 10.1052V15.1579H0.842041V10.1052H5.89468Z" fill="current"/>
</svg>
