<svg width="32" height="32" viewBox="0 0 32 32" fill="none" xmlns="http://www.w3.org/2000/svg">
<path fill-rule="evenodd" clip-rule="evenodd" d="M15.7256 29.1656C23.1484 29.1656 29.1656 23.1484 29.1656 15.7256C29.1656 8.30294 23.1484 2.28564 15.7256 2.28564C8.30294 2.28564 2.28564 8.30294 2.28564 15.7256C2.28564 23.1484 8.30294 29.1656 15.7256 29.1656Z" fill="#F4E5FF"/>
<path d="M24.3858 5.71436V6.86247H25.0728V5.71436H24.3858ZM22.18 6.56414L21.7189 7.06135L22.5687 7.83882L23.0297 7.3416L22.18 6.56414ZM27.2696 6.62742L26.4831 7.46817L26.9803 7.92922L27.7668 7.08848L27.2696 6.62742ZM13.8177 7.01615C10.4779 7.01615 7.76978 9.7251 7.76978 13.0641C7.76938 13.1175 7.78183 13.1701 7.80608 13.2177C7.83033 13.2653 7.86566 13.3063 7.9091 13.3373C7.95254 13.3684 8.00281 13.3885 8.05566 13.396C8.10851 13.4035 8.16239 13.3982 8.21275 13.3805C8.6481 13.2267 8.99135 13.0187 9.31567 12.9556C9.63998 12.8925 9.94835 12.9189 10.4457 13.3263C10.5012 13.3718 10.5699 13.3981 10.6416 13.4014C10.7133 13.4046 10.7841 13.3846 10.8435 13.3443C11.2274 13.0823 11.6166 12.9103 12.0549 12.8833C12.4207 12.8608 12.8422 12.9418 13.3476 13.1907V20.7574H13.2301C13.2243 20.751 13.2183 20.7449 13.212 20.7394L7.6161 15.1164C7.61031 15.1101 7.60426 15.1041 7.59802 15.0983C7.52184 15.0339 7.41567 15.0065 7.31777 15.026C7.25222 15.0408 7.19144 15.076 7.146 15.1254L5.96173 16.3007C5.84127 16.4207 5.83703 16.6371 5.9527 16.7617L7.45339 18.2714L5.85326 20.7575H4.32545C4.23817 20.7594 4.15513 20.7955 4.09424 20.8581C4.03336 20.9207 3.99951 21.0047 4.00001 21.092V22.2943C3.99951 22.3816 4.03336 22.4656 4.09424 22.5282C4.15513 22.5908 4.23817 22.627 4.32545 22.6289H4.61474V26.2631C4.61388 26.4384 4.77384 26.5985 4.94923 26.5975H6.15159C6.32698 26.5975 6.48702 26.4384 6.48608 26.2631V22.6289H25.8684V26.2631C25.8675 26.4384 26.0275 26.5985 26.2029 26.5975H27.4052C27.5806 26.5975 27.7407 26.4384 27.7397 26.2631V22.6289H27.8392C27.8832 22.6291 27.9268 22.6206 27.9675 22.6039C28.0082 22.5871 28.0451 22.5625 28.0762 22.5314C28.1073 22.5003 28.132 22.4633 28.1487 22.4226C28.1654 22.3819 28.1739 22.3383 28.1737 22.2943V21.092C28.1739 21.048 28.1654 21.0044 28.1487 20.9637C28.132 20.923 28.1073 20.8861 28.0762 20.855C28.0451 20.8239 28.0082 20.7992 27.9675 20.7825C27.9268 20.7658 27.8832 20.7573 27.8392 20.7575H14.3421V13.2179C14.5527 13.12 14.7305 13.0221 14.9297 12.9829C15.2456 12.9207 15.6783 12.9478 16.4936 13.3626C16.5529 13.393 16.6198 13.4049 16.6859 13.3968C16.752 13.3888 16.8141 13.3611 16.8643 13.3174C17.3617 12.8769 17.7293 12.8092 18.1209 12.8653C18.5125 12.9215 18.9332 13.1484 19.3956 13.3716C19.447 13.3968 19.504 13.4083 19.5611 13.4051C19.6183 13.4018 19.6736 13.3838 19.7218 13.3529C19.7699 13.322 19.8093 13.2792 19.8361 13.2287C19.8629 13.1781 19.8762 13.1214 19.8747 13.0642C19.8747 9.72524 17.1575 7.01629 13.8177 7.01629L13.8177 7.01615ZM24.666 7.41393C23.3751 7.41393 22.3156 8.46483 22.3156 9.75535C22.3156 11.0459 23.3751 12.1058 24.666 12.1058C25.9569 12.1058 27.0075 11.0459 27.0075 9.75535C27.0075 8.46483 25.9569 7.41393 24.666 7.41393ZM13.8177 7.67609C16.6087 7.67609 18.8718 9.79752 19.1515 12.5126C18.8614 12.3786 18.5512 12.254 18.2113 12.2053C17.714 12.134 17.1592 12.2911 16.6112 12.7025C15.83 12.3375 15.2501 12.2348 14.8031 12.3228C14.3617 12.4097 14.0913 12.603 13.8177 12.7115C13.1568 12.353 12.5515 12.181 12.0097 12.2143C11.4944 12.246 11.0553 12.4455 10.6536 12.6934C10.1264 12.338 9.61502 12.2128 9.1891 12.2957C8.90116 12.3517 8.70197 12.4637 8.47492 12.5669C8.72922 9.82543 11.008 7.67609 13.8177 7.67609ZM24.666 8.07386C25.5973 8.07386 26.3385 8.82437 26.3385 9.75535C26.3385 10.6863 25.5973 11.4278 24.666 11.4278C23.7348 11.4278 22.9845 10.6863 22.9845 9.75535C22.9845 8.82437 23.7348 8.07386 24.666 8.07386ZM20.8058 9.44798V10.126H21.954V9.44798H20.8058ZM27.4233 9.44798V10.126H28.5714V9.44798H27.4233ZM22.1709 11.247L21.294 11.9883L21.737 12.5126L22.6139 11.7623L22.1709 11.247ZM26.908 11.3284L26.4741 11.8437L27.351 12.585L27.7849 12.0697L26.908 11.3284ZM24.3858 12.4855V13.6336H25.0728V12.4855H24.3858ZM7.38105 15.8214L12.2899 20.7574H10.8706L6.66687 16.5356L7.38105 15.8214ZM8.32124 19.1392L9.9304 20.7574H7.28161L8.32124 19.1392ZM4.65993 21.4263H27.5137V21.9597H4.65993V21.4263ZM5.28371 22.6287H5.81708V25.9284H5.28371V22.6287ZM26.5374 22.6287H27.0707V25.9284H26.5374V22.6287Z" fill="#5B476B"/>
</svg>
