<svg width="56" height="56" viewBox="0 0 56 56" fill="none" xmlns="http://www.w3.org/2000/svg">
<path fill-rule="evenodd" clip-rule="evenodd" d="M28 52C41.2548 52 52 41.2548 52 28C52 14.7452 41.2548 4 28 4C14.7452 4 4 14.7452 4 28C4 41.2548 14.7452 52 28 52Z" fill="#F4E5FF"/>
<g clip-path="url(#clip0_2863_264176)">
<path d="M42.5033 31.4375C42.3942 29.3816 42.1566 27.3346 41.7917 25.3084L38.6396 9.03875C38.4434 8.19388 37.9732 7.43766 37.3023 6.88799C36.6314 6.33832 35.7974 6.0261 34.9305 6L21.0739 6C20.2065 6.02593 19.3721 6.33802 18.7006 6.88766C18.0291 7.4373 17.5583 8.1936 17.3614 9.03875L14.192 25.305C13.8252 27.332 13.5876 29.3803 13.4805 31.4375L12.8755 46.9062C12.8592 47.3088 12.9248 47.7104 13.0684 48.0868C13.2121 48.4632 13.4307 48.8064 13.711 49.0957C13.9913 49.3851 14.3275 49.6144 14.6991 49.7698C15.0708 49.9253 15.4702 50.0036 15.873 50H40.128C40.5307 50.0036 40.9299 49.9253 41.3014 49.7698C41.6728 49.6143 42.0088 49.3849 42.2889 49.0956C42.5689 48.8062 42.7872 48.4629 42.9304 48.0865C43.0736 47.7102 43.1389 47.3086 43.1221 46.9062L42.5033 31.4375ZM41.2933 48.1403C41.1418 48.2955 40.9604 48.4184 40.7602 48.5017C40.5599 48.585 40.3449 48.6269 40.128 48.625H15.8764C15.6587 48.627 15.4429 48.5847 15.242 48.5008C15.0411 48.4169 14.8593 48.2931 14.7077 48.1369C14.555 47.9827 14.4357 47.7987 14.3571 47.5965C14.2784 47.3943 14.2421 47.1781 14.2505 46.9613L14.4636 41.4613L19.4067 42.0938H19.4961H22.8683C22.694 41.6524 22.5784 41.1902 22.5246 40.7188H19.5374L14.5289 40.0759L14.5942 38.7181L19.4067 39.3438H19.4961H22.5005C22.5544 38.8723 22.6699 38.4101 22.8442 37.9688H19.5374L14.6355 37.3397L14.8624 31.4959C14.9677 29.5104 15.1973 27.5334 15.5499 25.5766L18.7192 9.3C18.8535 8.7691 19.1548 8.2954 19.5788 7.9488C20.0028 7.60219 20.5269 7.40104 21.0739 7.375H34.9305C35.4766 7.401 35.9999 7.60179 36.4232 7.94776C36.8466 8.29373 37.1475 8.76657 37.2817 9.29656L40.4339 25.5628C40.7847 27.5211 41.0143 29.4991 41.1214 31.4856L41.3552 37.3294L36.4671 37.9688H33.1361C33.3104 38.4101 33.426 38.8723 33.4799 39.3438H36.4946H36.5942L41.4067 38.725L41.4617 40.0828L36.4671 40.7188H33.5005C33.4466 41.1902 33.331 41.6524 33.1567 42.0938H36.5289H36.6183L41.5374 41.4613L41.7574 46.9613C41.7659 47.1789 41.7295 47.396 41.6502 47.5989C41.5709 47.8018 41.4506 47.9861 41.2967 48.1403H41.2933Z" fill="#5B476B"/>
<path d="M27.9998 35.9064C27.1855 35.9132 26.3913 36.1609 25.7175 36.6182C25.0437 37.0756 24.5203 37.7222 24.2134 38.4765C23.9065 39.2308 23.8297 40.0591 23.9927 40.857C24.1557 41.6549 24.5513 42.3867 25.1295 42.9601C25.7077 43.5336 26.4428 43.9231 27.242 44.0795C28.0412 44.2359 28.8688 44.1522 29.6206 43.839C30.3723 43.5258 31.0145 42.9971 31.4663 42.3195C31.9181 41.6419 32.1591 40.8458 32.1592 40.0314C32.1592 39.4868 32.0514 38.9476 31.8419 38.4448C31.6325 37.9421 31.3256 37.4858 30.9389 37.1024C30.5522 36.7189 30.0934 36.4157 29.5889 36.2105C29.0845 36.0052 28.5444 35.9019 27.9998 35.9064ZM27.9998 42.7814C27.4568 42.7773 26.9272 42.6126 26.4776 42.3079C26.0281 42.0033 25.6789 41.5724 25.4739 41.0696C25.2689 40.5667 25.2174 40.0144 25.3258 39.4824C25.4342 38.9503 25.6978 38.4622 26.0832 38.0797C26.4686 37.6971 26.9586 37.4373 27.4915 37.3328C28.0243 37.2284 28.5762 37.284 29.0775 37.4928C29.5788 37.7015 30.0071 38.054 30.3084 38.5057C30.6096 38.9575 30.7704 39.4884 30.7704 40.0314C30.7704 40.3943 30.6986 40.7536 30.5591 41.0886C30.4197 41.4236 30.2152 41.7276 29.9577 41.9833C29.7001 42.2389 29.3945 42.441 29.0585 42.578C28.7225 42.715 28.3627 42.7841 27.9998 42.7814Z" fill="#5B476B"/>
<path d="M28.2065 38.8594L26.8315 40.2344C26.7676 40.2982 26.7169 40.3741 26.6823 40.4575C26.6477 40.541 26.6299 40.6304 26.6299 40.7208C26.6299 40.8111 26.6477 40.9006 26.6823 40.9841C26.7169 41.0675 26.7676 41.1433 26.8315 41.2072C26.8955 41.2722 26.9717 41.3237 27.0558 41.359C27.1399 41.3942 27.2302 41.4123 27.3214 41.4123C27.4125 41.4123 27.5028 41.3942 27.5869 41.359C27.671 41.3237 27.7472 41.2722 27.8112 41.2072L29.1862 39.8322C29.2501 39.7684 29.3008 39.6925 29.3354 39.6091C29.37 39.5256 29.3878 39.4361 29.3878 39.3458C29.3878 39.2555 29.37 39.166 29.3354 39.0825C29.3008 38.9991 29.2501 38.9232 29.1862 38.8594C29.1222 38.7944 29.046 38.7429 28.9619 38.7076C28.8778 38.6724 28.7875 38.6543 28.6964 38.6543C28.6052 38.6543 28.5149 38.6724 28.4308 38.7076C28.3467 38.7429 28.2705 38.7944 28.2065 38.8594Z" fill="#5B476B"/>
<path d="M16.9141 44.8438C17.2976 44.8438 17.6085 44.5359 17.6085 44.1562C17.6085 43.7766 17.2976 43.4688 16.9141 43.4688C16.5306 43.4688 16.2197 43.7766 16.2197 44.1562C16.2197 44.5359 16.5306 44.8438 16.9141 44.8438Z" fill="#5B476B"/>
<path d="M19.6885 44.8438C20.072 44.8438 20.3829 44.5359 20.3829 44.1562C20.3829 43.7766 20.072 43.4688 19.6885 43.4688C19.305 43.4688 18.9941 43.7766 18.9941 44.1562C18.9941 44.5359 19.305 44.8438 19.6885 44.8438Z" fill="#5B476B"/>
<path d="M34.3627 30.2177C34.3915 30.1926 34.4179 30.165 34.4418 30.1352C34.4554 30.1164 34.468 30.0969 34.4796 30.0767C35.667 28.6205 36.3165 26.7995 36.3187 24.9205C36.3267 22.9734 35.6483 21.0858 34.4028 19.5892C33.1573 18.0926 31.4242 17.0827 29.508 16.737C27.5919 16.3913 25.6152 16.7319 23.9252 17.6989C22.2352 18.6659 20.94 20.1975 20.2671 22.0246C19.5942 23.8517 19.5866 25.8575 20.2457 27.6896C20.9049 29.5218 22.1885 31.0631 23.8712 32.0428C25.5538 33.0225 27.5279 33.3779 29.4466 33.0466C31.3653 32.7154 33.1059 31.7186 34.3627 30.2314V30.2177ZM27.9999 18.0318C29.83 18.0263 31.5875 18.7471 32.8868 20.036C34.186 21.3249 34.9208 23.0767 34.9299 24.9067C34.9317 26.2766 34.5195 27.615 33.7474 28.7464L31.8052 27.2717C31.8911 25.7317 31.0524 24.4117 30.2927 23.2189C29.9195 22.6739 29.5918 22.099 29.313 21.5002C29.0974 21.0121 28.9215 20.5075 28.7871 19.9911C28.7286 19.7505 28.5533 19.063 27.9036 19.063C27.254 19.063 27.0752 19.7505 27.0168 19.9671C26.8348 20.6336 26.605 21.2861 26.3293 21.9196C26.2055 22.2083 26.0543 22.4936 25.8927 22.7824L22.7715 20.4139C23.4221 19.6662 24.2254 19.0667 25.1273 18.6558C26.0292 18.2448 27.0088 18.0321 27.9999 18.0318V18.0318ZM26.3121 24.8346L30.2961 27.8561C30.2961 27.9077 30.2652 27.9558 30.248 28.0074C29.8733 29.0146 28.849 29.3824 28.0171 29.3824C26.924 29.3824 25.6968 28.7636 25.5868 27.4092C25.5146 26.4983 25.8583 25.6733 26.3121 24.8346ZM26.9996 23.6246C27.2188 23.2472 27.4173 22.8582 27.5943 22.4592C27.7043 22.2049 27.8074 21.9539 27.9002 21.703L28.0308 22.0192C28.338 22.6926 28.7014 23.3388 29.1171 23.9511C29.5861 24.6172 29.9706 25.3388 30.2618 26.0996L26.9996 23.6246ZM21.0733 24.9067C21.0729 23.7252 21.3809 22.5639 21.9671 21.538L25.1983 23.9889C24.6036 25.0477 24.0949 26.1649 24.2015 27.5089C24.3733 29.6367 26.264 30.7471 28.0136 30.7471C28.72 30.7746 29.4194 30.5988 30.0288 30.2405C30.6381 29.8822 31.1318 29.3565 31.4511 28.7258L32.864 29.7983C31.8927 30.7519 30.6623 31.3985 29.326 31.6575C27.9898 31.9165 26.6069 31.7765 25.3497 31.255C24.0924 30.7334 23.0166 29.8533 22.2561 28.7244C21.4957 27.5955 21.0843 26.2678 21.0733 24.9067V24.9067Z" fill="#5B476B"/>
<path d="M21.0732 13.2188H22.4482C22.6306 13.2188 22.8054 13.1463 22.9344 13.0174C23.0633 12.8885 23.1357 12.7136 23.1357 12.5312C23.1357 12.3489 23.0633 12.174 22.9344 12.0451C22.8054 11.9162 22.6306 11.8438 22.4482 11.8438H21.0732C20.8909 11.8438 20.716 11.9162 20.5871 12.0451C20.4582 12.174 20.3857 12.3489 20.3857 12.5312C20.3857 12.7136 20.4582 12.8885 20.5871 13.0174C20.716 13.1463 20.8909 13.2188 21.0732 13.2188Z" fill="#5B476B"/>
<path d="M33.5449 13.2188H34.9199C35.1023 13.2188 35.2771 13.1463 35.4061 13.0174C35.535 12.8885 35.6074 12.7136 35.6074 12.5312C35.6074 12.3489 35.535 12.174 35.4061 12.0451C35.2771 11.9162 35.1023 11.8438 34.9199 11.8438H33.5449C33.3626 11.8438 33.1877 11.9162 33.0588 12.0451C32.9299 12.174 32.8574 12.3489 32.8574 12.5312C32.8574 12.7136 32.9299 12.8885 33.0588 13.0174C33.1877 13.1463 33.3626 13.2188 33.5449 13.2188Z" fill="#5B476B"/>
</g>
<defs>
<clipPath id="clip0_2863_264176">
<rect width="44" height="44" fill="white" transform="translate(6 6)"/>
</clipPath>
</defs>
</svg>
