<svg width="33" height="32" viewBox="0 0 33 32" fill="none" xmlns="http://www.w3.org/2000/svg">
    <path fill-rule="evenodd" clip-rule="evenodd" d="M16.7857 29.1433C24.2021 29.1433 30.2143 23.1311 30.2143 15.7147C30.2143 8.29831 24.2021 2.28613 16.7857 2.28613C9.36935 2.28613 3.35718 8.29831 3.35718 15.7147C3.35718 23.1311 9.36935 29.1433 16.7857 29.1433Z" fill="#F4E5FF"/>
    <path d="M13.2327 8.2207C11.4549 8.22269 9.75047 8.9298 8.49337 10.1869C7.23626 11.444 6.52915 13.1484 6.52717 14.9262V15.8532C6.06666 16.0169 5.66811 16.3191 5.38627 16.7184C5.10443 17.1177 4.95312 17.5944 4.95312 18.0832C4.95312 18.5719 5.10443 19.0487 5.38627 19.448C5.66811 19.8472 6.06666 20.1495 6.52717 20.3132V25.5762C6.52717 25.6808 6.56873 25.7812 6.6427 25.8551C6.71667 25.9291 6.817 25.9707 6.92161 25.9707H7.40283L7.72233 27.2495C7.74362 27.3348 7.79285 27.4106 7.86218 27.4648C7.93151 27.519 8.01696 27.5484 8.10494 27.5485H9.28827C9.37626 27.5484 9.46171 27.519 9.53104 27.4648C9.60037 27.4106 9.64959 27.3348 9.67088 27.2495L9.99038 25.9707H16.475L16.7945 27.2495C16.8158 27.3348 16.8651 27.4106 16.9344 27.4648C17.0037 27.519 17.0892 27.5484 17.1771 27.5485H18.3605C18.4485 27.5484 18.5339 27.519 18.6032 27.4648C18.6726 27.4106 18.7218 27.3348 18.7431 27.2495L19.0626 25.9707H19.5438C19.6484 25.9707 19.7488 25.9291 19.8227 25.8551C19.8967 25.7812 19.9383 25.6808 19.9383 25.5762V20.3132C20.3988 20.1495 20.7973 19.8472 21.0792 19.448C21.361 19.0487 21.5123 18.5719 21.5123 18.0832C21.5123 17.5944 21.361 17.1177 21.0792 16.7184C20.7973 16.3191 20.3988 16.0169 19.9383 15.8532V14.9262C19.9363 13.1484 19.2292 11.444 17.9721 10.1869C16.715 8.9298 15.0105 8.22269 13.2327 8.2207ZM7.31606 14.9262C7.31606 13.3571 7.93942 11.8521 9.049 10.7425C10.1586 9.63295 11.6635 9.00959 13.2327 9.00959C14.8019 9.00959 16.3068 9.63295 17.4164 10.7425C18.526 11.8521 19.1494 13.3571 19.1494 14.9262V15.7151C18.8805 15.7158 18.6136 15.7625 18.3605 15.8532V14.9262C18.3605 13.5663 17.8202 12.262 16.8586 11.3004C15.8969 10.3387 14.5927 9.79848 13.2327 9.79848C11.8727 9.79848 10.5685 10.3387 9.60683 11.3004C8.64519 12.262 8.10494 13.5663 8.10494 14.9262V15.8532C7.85178 15.7625 7.58497 15.7158 7.31606 15.7151V14.9262ZM9.68272 21.2373H16.7827V22.8151H9.68272V21.2373ZM16.7827 18.0818V20.4485H9.68272V18.0818C9.68247 17.7496 9.61206 17.4211 9.47612 17.118C9.34018 16.8148 9.14175 16.5438 8.89383 16.3226V14.9262C8.89383 13.7755 9.35096 12.6719 10.1647 11.8582C10.9784 11.0445 12.082 10.5874 13.2327 10.5874C14.3835 10.5874 15.4871 11.0445 16.3008 11.8582C17.1145 12.6719 17.5716 13.7755 17.5716 14.9262V16.3226C17.3237 16.5438 17.1252 16.8148 16.9893 17.118C16.8534 17.4211 16.783 17.7496 16.7827 18.0818ZM8.98021 26.7596H8.413L8.21578 25.9707H9.17744L8.98021 26.7596ZM18.0524 26.7596H17.4852L17.288 25.9707H18.2496L18.0524 26.7596ZM20.7271 18.0818C20.7263 18.4453 20.6004 18.7974 20.3705 19.079C20.1407 19.3606 19.8209 19.5545 19.4649 19.628C19.3759 19.6462 19.2959 19.6945 19.2384 19.7649C19.1809 19.8353 19.1494 19.9233 19.1494 20.0142V25.1818H7.31606V20.0146C7.31598 19.9237 7.28454 19.8357 7.22705 19.7653C7.16955 19.6949 7.08953 19.6466 7.0005 19.6284C6.70802 19.5687 6.43848 19.4273 6.22318 19.2205C6.00788 19.0137 5.85565 18.7501 5.78418 18.4603C5.7127 18.1705 5.72491 17.8663 5.81939 17.5832C5.91386 17.3 6.08673 17.0494 6.31791 16.8606C6.54909 16.6718 6.8291 16.5524 7.12542 16.5163C7.42174 16.4802 7.72221 16.529 7.99194 16.6568C8.26167 16.7847 8.48959 16.9865 8.64924 17.2387C8.80888 17.4909 8.89369 17.7833 8.89383 18.0818V23.2096C8.89383 23.3142 8.93539 23.4145 9.00936 23.4885C9.08333 23.5625 9.18366 23.604 9.28827 23.604H17.1771C17.2818 23.604 17.3821 23.5625 17.4561 23.4885C17.53 23.4145 17.5716 23.3142 17.5716 23.2096V18.0818C17.5716 17.6633 17.7378 17.262 18.0337 16.9661C18.3296 16.6703 18.7309 16.504 19.1494 16.504C19.5678 16.504 19.9691 16.6703 20.265 16.9661C20.5609 17.262 20.7271 17.6633 20.7271 18.0818Z" fill="#5B476B"/>
    <path d="M13.5121 12.6739C13.4358 12.6035 13.3359 12.5645 13.2321 12.5645C13.1283 12.5645 13.0283 12.6035 12.952 12.6739C12.9164 12.7116 12.8882 12.7558 12.8692 12.8041C12.8484 12.8513 12.8376 12.9024 12.8376 12.954C12.8376 13.0056 12.8484 13.0566 12.8692 13.1039C12.8893 13.1516 12.9173 13.1956 12.952 13.234C13.0268 13.3074 13.1273 13.3484 13.2321 13.3484C13.3368 13.3484 13.4374 13.3074 13.5121 13.234C13.5469 13.1956 13.5749 13.1516 13.595 13.1039C13.6158 13.0566 13.6265 13.0056 13.6265 12.954C13.6265 12.9024 13.6158 12.8513 13.595 12.8041C13.5759 12.7558 13.5478 12.7116 13.5121 12.6739Z" fill="#5B476B"/>
    <path d="M12.3293 14.252C12.253 14.1817 12.153 14.1426 12.0492 14.1426C11.9455 14.1426 11.8455 14.1817 11.7692 14.252C11.7335 14.2898 11.7054 14.3339 11.6864 14.3822C11.6655 14.4294 11.6548 14.4805 11.6548 14.5321C11.6548 14.5837 11.6655 14.6348 11.6864 14.682C11.7065 14.7297 11.7345 14.7737 11.7692 14.8122C11.8076 14.847 11.8516 14.875 11.8994 14.895C11.9711 14.9257 12.0504 14.9343 12.127 14.9195C12.2037 14.9047 12.2741 14.8673 12.3293 14.8122C12.364 14.7737 12.392 14.7297 12.4121 14.682C12.4329 14.6348 12.4437 14.5837 12.4437 14.5321C12.4437 14.4805 12.4329 14.4294 12.4121 14.3822C12.3931 14.3339 12.365 14.2898 12.3293 14.252Z" fill="#5B476B"/>
    <path d="M14.6963 14.2514C14.6411 14.1958 14.5706 14.1579 14.4938 14.1425C14.417 14.1271 14.3373 14.1349 14.265 14.1649C14.1926 14.195 14.1308 14.2459 14.0875 14.3112C14.0442 14.3765 14.0213 14.4532 14.0218 14.5315C14.021 14.5828 14.0303 14.6337 14.049 14.6814C14.0722 14.7284 14.1015 14.7722 14.1362 14.8116C14.2007 14.8759 14.2856 14.9158 14.3763 14.9246C14.467 14.9335 14.558 14.9106 14.6337 14.8599C14.7095 14.8093 14.7654 14.7339 14.7919 14.6467C14.8184 14.5595 14.8139 14.4659 14.7791 14.3816C14.76 14.3333 14.7319 14.2892 14.6963 14.2514Z" fill="#5B476B"/>
    <path d="M13.5121 15.8292C13.4358 15.7588 13.3359 15.7197 13.2321 15.7197C13.1283 15.7197 13.0283 15.7588 12.952 15.8292C12.9172 15.8676 12.8892 15.9116 12.8692 15.9594C12.8484 16.0066 12.8376 16.0576 12.8376 16.1092C12.8376 16.1609 12.8484 16.2119 12.8692 16.2591C12.8893 16.3069 12.9173 16.3509 12.952 16.3893C12.9904 16.4241 13.0344 16.4521 13.0822 16.4721C13.1539 16.5029 13.2332 16.5114 13.3099 16.4966C13.3865 16.4819 13.4569 16.4445 13.5121 16.3893C13.5469 16.3509 13.5749 16.3069 13.595 16.2591C13.6158 16.2119 13.6265 16.1609 13.6265 16.1092C13.6265 16.0576 13.6158 16.0066 13.595 15.9594C13.575 15.9116 13.5469 15.8676 13.5121 15.8292Z" fill="#5B476B"/>
    <path d="M11.1466 15.8295C11.1082 15.7948 11.0642 15.7668 11.0165 15.7467C10.9446 15.7165 10.8655 15.7082 10.789 15.7229C10.7124 15.7377 10.642 15.7748 10.5865 15.8295C10.5509 15.8672 10.5228 15.9114 10.5037 15.9597C10.4829 16.0069 10.4722 16.0579 10.4722 16.1095C10.4722 16.1612 10.4829 16.2122 10.5037 16.2594C10.5238 16.3072 10.5518 16.3512 10.5865 16.3896C10.6249 16.4244 10.6689 16.4524 10.7167 16.4724C10.7639 16.4933 10.815 16.504 10.8666 16.504C10.9182 16.504 10.9693 16.4933 11.0165 16.4724C11.0654 16.4547 11.1099 16.4265 11.1467 16.3896C11.1835 16.3528 11.2118 16.3084 11.2295 16.2594C11.2503 16.2122 11.2611 16.1612 11.2611 16.1095C11.2611 16.0579 11.2503 16.0069 11.2295 15.9597C11.2095 15.9119 11.1815 15.8679 11.1466 15.8295Z" fill="#5B476B"/>
    <path d="M15.8788 15.8292C15.8025 15.7588 15.7026 15.7197 15.5988 15.7197C15.495 15.7197 15.395 15.7588 15.3187 15.8292C15.2839 15.8676 15.2559 15.9116 15.2359 15.9594C15.2151 16.0066 15.2043 16.0576 15.2043 16.1092C15.2043 16.1609 15.2151 16.2119 15.2359 16.2591C15.256 16.3069 15.284 16.3509 15.3187 16.3893C15.3571 16.4241 15.4011 16.4521 15.4489 16.4721C15.4961 16.4929 15.5472 16.5037 15.5988 16.5037C15.6504 16.5037 15.7014 16.4929 15.7487 16.4721C15.7976 16.4544 15.8421 16.4262 15.8789 16.3893C15.9157 16.3525 15.9439 16.3081 15.9617 16.2591C15.9825 16.2119 15.9932 16.1609 15.9932 16.1092C15.9932 16.0576 15.9825 16.0066 15.9617 15.9594C15.9416 15.9116 15.9136 15.8676 15.8788 15.8292Z" fill="#5B476B"/>
    <path d="M12.3293 17.4074C12.3099 17.3895 12.2887 17.3737 12.2662 17.36C12.246 17.3445 12.2233 17.3325 12.1991 17.3245C12.1755 17.3125 12.15 17.3045 12.1238 17.3009C12.0733 17.289 12.0208 17.289 11.9703 17.3009C11.9456 17.3052 11.9217 17.3131 11.8993 17.3245C11.8741 17.3332 11.8501 17.3452 11.828 17.36C11.8075 17.3747 11.7879 17.3905 11.7692 17.4074C11.7335 17.4451 11.7054 17.4893 11.6863 17.5375C11.6556 17.6093 11.6471 17.6886 11.6618 17.7652C11.6766 17.8418 11.714 17.9123 11.7692 17.9675C11.8075 18.0023 11.8516 18.0303 11.8993 18.0503C11.9462 18.0722 11.9975 18.083 12.0492 18.0819C12.154 18.082 12.2546 18.0409 12.3293 17.9675C12.3845 17.9123 12.4219 17.8418 12.4366 17.7652C12.4514 17.6886 12.4429 17.6093 12.4121 17.5375C12.3931 17.4893 12.3649 17.4451 12.3293 17.4074Z" fill="#5B476B"/>
    <path d="M14.2664 17.3248C14.2174 17.3425 14.173 17.3708 14.1362 17.4076C14.0994 17.4444 14.0711 17.4888 14.0534 17.5378C14.0313 17.5846 14.0205 17.6359 14.0218 17.6877C14.0213 17.7396 14.0312 17.7911 14.0508 17.8392C14.0704 17.8873 14.0995 17.931 14.1362 17.9678C14.1729 18.0045 14.2166 18.0335 14.2647 18.0532C14.3128 18.0728 14.3643 18.0826 14.4163 18.0821C14.468 18.0833 14.5193 18.0725 14.5662 18.0506C14.6151 18.0328 14.6596 18.0046 14.6964 17.9678C14.7332 17.931 14.7615 17.8865 14.7792 17.8376C14.8011 17.7907 14.8119 17.7394 14.8107 17.6877C14.8093 17.5832 14.7684 17.4832 14.6963 17.4076C14.6409 17.3529 14.5704 17.3158 14.4939 17.3011C14.4174 17.2863 14.3382 17.2946 14.2664 17.3248Z" fill="#5B476B"/>
    <path d="M13.5123 18.9845C13.4929 18.9667 13.4717 18.9508 13.4491 18.9372C13.429 18.9216 13.4063 18.9096 13.3821 18.9017C13.3585 18.8897 13.333 18.8817 13.3068 18.878C13.2563 18.8662 13.2038 18.8662 13.1533 18.878C13.1286 18.8823 13.1047 18.8903 13.0823 18.9017C13.0571 18.9104 13.0331 18.9223 13.0109 18.9372C12.9905 18.9518 12.9708 18.9676 12.9522 18.9845C12.9173 19.0229 12.8893 19.0669 12.8693 19.1147C12.8472 19.1615 12.8364 19.2128 12.8378 19.2646C12.8371 19.3232 12.8495 19.3813 12.8741 19.4346C12.8987 19.4879 12.9349 19.535 12.98 19.5725C13.0251 19.61 13.0781 19.637 13.1349 19.6515C13.1918 19.6659 13.2512 19.6675 13.3088 19.6561C13.3663 19.6448 13.4206 19.6207 13.4677 19.5856C13.5148 19.5506 13.5534 19.5055 13.5809 19.4536C13.6083 19.4017 13.6238 19.3444 13.6263 19.2857C13.6287 19.2271 13.6181 19.1687 13.5951 19.1147C13.5751 19.0669 13.5471 19.0229 13.5123 18.9845Z" fill="#5B476B"/>
    <path d="M11.1455 18.9854C11.0692 18.9151 10.9692 18.876 10.8654 18.876C10.7616 18.876 10.6616 18.9151 10.5853 18.9854C10.5505 19.0238 10.5225 19.0678 10.5025 19.1156C10.4718 19.1873 10.4632 19.2666 10.478 19.3433C10.4928 19.4199 10.5302 19.4904 10.5853 19.5456C10.6237 19.5804 10.6677 19.6084 10.7155 19.6284C10.7872 19.6591 10.8666 19.6677 10.9432 19.6529C11.0198 19.6382 11.0903 19.6008 11.1455 19.5456C11.2007 19.4904 11.2381 19.4199 11.2528 19.3433C11.2676 19.2667 11.259 19.1873 11.2283 19.1156C11.2083 19.0678 11.1803 19.0238 11.1455 18.9854Z" fill="#5B476B"/>
    <path d="M15.879 18.9855C15.823 18.9316 15.7526 18.895 15.6763 18.8803C15.6 18.8656 15.521 18.8734 15.449 18.9027C15.4007 18.9218 15.3566 18.9499 15.3188 18.9855C15.284 19.0239 15.256 19.0679 15.236 19.1157C15.2139 19.1625 15.2031 19.2138 15.2045 19.2656C15.2038 19.3306 15.2194 19.3946 15.2497 19.4521C15.2801 19.5095 15.3243 19.5584 15.3783 19.5945C15.4324 19.6305 15.4946 19.6525 15.5593 19.6584C15.6239 19.6644 15.6891 19.6541 15.7488 19.6285C15.7965 19.6084 15.8405 19.5804 15.879 19.5456C15.9341 19.4905 15.9715 19.42 15.9863 19.3434C16.0011 19.2667 15.9925 19.1874 15.9618 19.1157C15.9418 19.0679 15.9138 19.0239 15.879 18.9855Z" fill="#5B476B"/>
    <path d="M11.1466 12.6739C11.0704 12.6035 10.9704 12.5645 10.8666 12.5645C10.7628 12.5645 10.6628 12.6035 10.5865 12.6739C10.5509 12.7116 10.5228 12.7558 10.5037 12.8041C10.4829 12.8513 10.4722 12.9024 10.4722 12.954C10.4722 13.0056 10.4829 13.0566 10.5037 13.1039C10.5238 13.1516 10.5518 13.1956 10.5865 13.234C10.6613 13.3074 10.7619 13.3484 10.8666 13.3484C10.9713 13.3484 11.0719 13.3074 11.1466 13.234C11.1814 13.1956 11.2094 13.1516 11.2295 13.1039C11.2503 13.0566 11.2611 13.0056 11.2611 12.954C11.2611 12.9024 11.2503 12.8513 11.2295 12.8041C11.2104 12.7558 11.1823 12.7116 11.1466 12.6739Z" fill="#5B476B"/>
    <path d="M15.7488 12.5909C15.7013 12.5696 15.65 12.5583 15.5981 12.5577C15.5461 12.557 15.4945 12.5669 15.4465 12.5868C15.3985 12.6068 15.355 12.6363 15.3189 12.6736C15.2827 12.7109 15.2545 12.7553 15.236 12.8039C15.2158 12.8513 15.2051 12.9022 15.2045 12.9538C15.2031 13.0055 15.2139 13.0568 15.236 13.1036C15.2561 13.1514 15.2841 13.1954 15.3188 13.2338C15.3936 13.3071 15.4942 13.3482 15.5989 13.3482C15.7036 13.3482 15.8042 13.3071 15.879 13.2338C15.9137 13.1954 15.9417 13.1514 15.9618 13.1036C15.982 13.0562 15.9927 13.0053 15.9933 12.9538C15.9952 12.8754 15.9726 12.7984 15.9288 12.7334C15.885 12.6684 15.8221 12.6186 15.7488 12.5909Z" fill="#5B476B"/>
    <path d="M28.2212 10.9818C28.2771 10.9818 28.3324 10.9699 28.3834 10.9469C28.4343 10.9239 28.4798 10.8903 28.5168 10.8484C28.5538 10.8065 28.5815 10.7571 28.598 10.7037C28.6145 10.6503 28.6194 10.594 28.6125 10.5385L27.8236 4.22737C27.8117 4.13199 27.7653 4.04424 27.6933 3.98062C27.6212 3.91699 27.5284 3.88186 27.4323 3.88184H21.1212C21.0251 3.88186 20.9323 3.91699 20.8602 3.98062C20.7882 4.04424 20.7418 4.13199 20.7299 4.22737L19.941 10.5385C19.9341 10.594 19.939 10.6503 19.9555 10.7037C19.972 10.7571 19.9997 10.8065 20.0367 10.8484C20.0737 10.8903 20.1192 10.9239 20.1702 10.9469C20.2211 10.9699 20.2764 10.9818 20.3323 10.9818H23.8823V25.1818H22.699C22.3851 25.1818 22.0842 25.3065 21.8622 25.5284C21.6403 25.7503 21.5157 26.0513 21.5157 26.3651V27.154C21.5157 27.2586 21.5572 27.359 21.6312 27.4329C21.7052 27.5069 21.8055 27.5485 21.9101 27.5485H26.6434C26.748 27.5485 26.8484 27.5069 26.9223 27.4329C26.9963 27.359 27.0379 27.2586 27.0379 27.154V26.3651C27.0379 26.0513 26.9132 25.7503 26.6913 25.5284C26.4694 25.3065 26.1684 25.1818 25.8545 25.1818H24.6712V10.9818H28.2212ZM26.249 26.3651V26.7596H22.3045V26.3651C22.3045 26.2605 22.3461 26.1602 22.4201 26.0862C22.494 26.0122 22.5944 25.9707 22.699 25.9707H25.8545C25.9591 25.9707 26.0595 26.0122 26.1334 26.0862C26.2074 26.1602 26.249 26.2605 26.249 26.3651ZM21.4695 4.67072H27.084L27.7743 10.1929H20.7792L21.4695 4.67072Z" fill="#5B476B"/>
</svg>
