<svg width="32" height="32" viewBox="0 0 32 32" fill="none" xmlns="http://www.w3.org/2000/svg">
    <path fill-rule="evenodd" clip-rule="evenodd" d="M12.0999 7.19922H8.2C5.8804 7.19922 4 9.07963 4 11.3992V24.7992C4 27.1188 5.8804 28.9992 8.2 28.9992H23C25.3196 28.9992 27.2 27.1188 27.2 24.7992V11.3992C27.2 9.07962 25.3196 7.19922 23 7.19922H18.9999V8.59922H23C24.5464 8.59922 25.8 9.85282 25.8 11.3992V24.7992C25.8 26.3456 24.5464 27.5992 23 27.5992H8.2C6.6536 27.5992 5.4 26.3456 5.4 24.7992V11.3992C5.4 9.85282 6.6536 8.59922 8.2 8.59922H12.0999V7.19922Z" fill="#9A00FF"/>
    <path fill-rule="evenodd" clip-rule="evenodd" d="M9.20038 15.8222C9.04738 15.6013 9.06924 15.296 9.26595 15.0993L9.34443 15.0337C9.56528 14.8807 9.87063 14.9026 10.0673 15.0993L15.0999 20.132L15.0999 2.67L15.1096 2.54957C15.1604 2.23701 15.4054 2 15.6999 2C16.0313 2 16.2999 2.29997 16.2999 2.67L16.2999 20.1321L21.8326 14.5993L21.9111 14.5337C22.1319 14.3807 22.4373 14.4026 22.634 14.5993C22.8553 14.8206 22.8553 15.1794 22.634 15.4007L16.1007 21.934L16.0222 21.9996C15.9329 22.0614 15.8299 22.0947 15.7258 22.0994C15.7172 22.0998 15.7086 22.1 15.6999 22.1C15.69 22.1 15.6802 22.0997 15.6704 22.0992C15.5354 22.0922 15.4024 22.0371 15.2993 21.934L9.26595 15.9007L9.20038 15.8222Z" fill="#9A00FF"/>
</svg>
