<svg width="32" height="32" viewBox="0 0 32 32" fill="none" xmlns="http://www.w3.org/2000/svg">
    <path fill-rule="evenodd" clip-rule="evenodd" d="M12.0999 7.19922H8.2C5.8804 7.19922 4 9.07963 4 11.3992V24.7992C4 27.1188 5.8804 28.9992 8.2 28.9992H23C25.3196 28.9992 27.2 27.1188 27.2 24.7992V11.3992C27.2 9.07962 25.3196 7.19922 23 7.19922H18.9999V8.59922H23C24.5464 8.59922 25.8 9.85282 25.8 11.3992V24.7992C25.8 26.3456 24.5464 27.5992 23 27.5992H8.2C6.6536 27.5992 5.4 26.3456 5.4 24.7992V11.3992C5.4 9.85282 6.6536 8.59922 8.2 8.59922H12.0999V7.19922Z" fill="#5B476B"/>
    <path fill-rule="evenodd" clip-rule="evenodd" d="M9.2005 15.8222C9.0475 15.6013 9.06936 15.296 9.26607 15.0993L9.34455 15.0337C9.5654 14.8807 9.87075 14.9026 10.0675 15.0993L15.1 20.132L15.1 2.67L15.1097 2.54957C15.1605 2.23701 15.4055 2 15.7 2C16.0314 2 16.3 2.29997 16.3 2.67L16.3 20.1321L21.8327 14.5993L21.9112 14.5337C22.1321 14.3807 22.4374 14.4026 22.6341 14.5993C22.8554 14.8206 22.8554 15.1794 22.6341 15.4007L16.1008 21.934L16.0223 21.9996C15.9331 22.0614 15.83 22.0947 15.7259 22.0994C15.7173 22.0998 15.7087 22.1 15.7 22.1C15.6901 22.1 15.6803 22.0997 15.6705 22.0992C15.5355 22.0922 15.4025 22.0371 15.2994 21.934L9.26607 15.9007L9.2005 15.8222Z" fill="#5B476B"/>
</svg>
