<svg viewBox="0 0 32 32" fill="none" xmlns="http://www.w3.org/2000/svg">
    <path fill-rule="evenodd" clip-rule="evenodd" 
    d="M4.21053 0H27.7895C30.1149 0 32 1.88512 32 4.21053V21.0415C32.0001 21.0487 32.0001 21.0558 32 21.0629V27.7895C32 30.1149 30.1149 32 27.7895 32H4.21053C1.88512 32 0 30.1149 0 27.7895V4.21053C0 1.88512 1.88512 0 4.21053 0ZM30.3152 19.0185V4.21121C30.3152 2.81597 29.1841 1.6849 27.7889 1.6849H4.20991C2.81466 1.6849 1.68359 2.81597 1.68359 4.21121V27.7902C1.68359 29.0742 2.64157 30.1345 3.8818 30.2954L22.1415 12.0357C22.4338 11.7434 22.8875 11.7109 23.2157 11.9383L23.3324 12.0357L30.3152 19.0185ZM6.24251 30.3165L22.7369 13.8219L30.3152 21.4003V27.7902C30.3152 29.1854 29.1841 30.3165 27.7889 30.3165H6.24251ZM6.73698 10.1054C6.73698 8.24507 8.24507 6.73698 10.1054 6.73698C11.9657 6.73698 13.4738 8.24507 13.4738 10.1054C13.4738 11.9657 11.9657 13.4738 10.1054 13.4738C8.24507 13.4738 6.73698 11.9657 6.73698 10.1054ZM11.7887 10.1067C11.7887 9.17657 11.0346 8.42253 10.1045 8.42253C9.17429 8.42253 8.42025 9.17657 8.42025 10.1067C8.42025 11.0369 9.17429 11.7909 10.1045 11.7909C11.0346 11.7909 11.7887 11.0369 11.7887 10.1067Z" 
    fill="#5B476B"/>
</svg>
