<svg width="56" height="56" viewBox="0 0 56 56" fill="none" xmlns="http://www.w3.org/2000/svg">
<path fill-rule="evenodd" clip-rule="evenodd" d="M28 52C41.2548 52 52 41.2548 52 28C52 14.7452 41.2548 4 28 4C14.7452 4 4 14.7452 4 28C4 41.2548 14.7452 52 28 52Z" fill="#F4E5FF"/>
<path fill-rule="evenodd" clip-rule="evenodd" d="M20.75 14.5V25C20.75 27.6234 18.6234 29.75 16 29.75H5.5V41C5.5 42.3807 6.61929 43.5 8 43.5H48C49.3807 43.5 50.5 42.3807 50.5 41V17C50.5 15.6193 49.3807 14.5 48 14.5H20.75ZM20 13H48C50.2091 13 52 14.7909 52 17V41C52 43.2091 50.2091 45 48 45H8C5.79086 45 4 43.2091 4 41V29L20 13ZM19.25 15.8713L6.87132 28.25H16C17.7949 28.25 19.25 26.7949 19.25 25V15.8713Z" fill="#5B476B"/>
<path d="M33.4526 19.7243C33.8511 19.1621 34.253 18.5953 34.657 18.02C34.6893 18.058 34.7181 18.0916 34.744 18.1219C34.8283 18.2203 34.8829 18.284 34.9345 18.3524C37.1355 21.2689 39.2618 24.2255 40.9742 27.4563L40.9742 27.4563C41.041 27.5824 41.1645 27.6649 41.2735 27.727C41.3146 27.7504 41.3582 27.7733 41.3995 27.795C41.4142 27.8027 41.4286 27.8103 41.4424 27.8177C41.4973 27.8469 41.5469 27.8745 41.5903 27.9036L41.7821 28.0326L41.785 27.8015C41.7857 27.7488 41.7912 27.6919 41.7985 27.6297C41.8003 27.6139 41.8023 27.5976 41.8043 27.581C41.81 27.5344 41.8159 27.4851 41.8201 27.4377C41.831 27.3118 41.8334 27.1624 41.7669 27.035C39.9313 23.5167 37.6159 20.3188 35.201 17.197C35.0554 17.0088 34.89 16.871 34.6932 16.8751C34.4972 16.8792 34.3312 17.0232 34.1809 17.2311C33.8656 17.6674 33.5362 18.094 33.2054 18.5224L33.1946 18.5363C32.8606 18.9689 32.5253 19.4034 32.2044 19.8487C30.1397 22.7143 28.1485 25.6381 26.7309 28.9116C26.1017 30.3648 25.7003 31.8768 25.9502 33.4922C27.0115 40.3527 34.7213 43.4311 40.2084 39.1762C40.6947 38.799 41.107 38.3216 41.5049 37.8608C41.5649 37.7913 41.6246 37.7221 41.6842 37.6537L41.593 37.5742L41.6842 37.6537C41.7299 37.6014 41.7464 37.5378 41.7523 37.484C41.7583 37.4296 41.7548 37.3722 41.7492 37.3198C41.7451 37.2808 41.7391 37.2395 41.7335 37.2011C41.7316 37.1881 41.7298 37.1754 41.7281 37.1633C41.721 37.1126 41.7158 37.0686 41.7149 37.0305L41.7113 36.8844L41.5675 36.9106C41.3965 36.9418 41.2284 36.9869 41.0648 37.0456L41.0647 37.0453L41.0567 37.0488C40.9848 37.0805 40.9336 37.1371 40.8978 37.1818C40.8793 37.2049 40.8614 37.2295 40.8463 37.25C40.8303 37.2716 40.8165 37.2898 40.803 37.3056C38.097 40.4612 33.9643 41.1228 30.4202 38.9322L30.3623 39.0259L30.4202 38.9322C27.6323 37.2091 25.9315 33.3339 27.2915 29.9639C28.1863 27.7968 29.3031 25.7282 30.6238 23.791L30.6244 23.7901C31.5366 22.4272 32.4848 21.0896 33.4526 19.7243Z" fill="#5B476B" stroke="#5B476B" stroke-width="0.25"/>
<path d="M46.9632 37.0668L46.884 37.0052C46.7542 36.9043 46.6287 36.8133 46.5053 36.7238C46.4362 36.6737 46.3677 36.6241 46.2996 36.5735C46.1127 36.4347 45.9338 36.2926 45.7748 36.1281M46.9632 37.0668L37.2723 36.2038C37.7097 36.6526 38.1555 36.8998 38.6139 36.8992C39.0737 36.8987 39.5105 36.6491 39.9293 36.1855C40.1178 35.9769 40.2703 35.827 40.4035 35.7292C40.536 35.632 40.6392 35.594 40.7307 35.593C40.8216 35.5919 40.9223 35.627 41.0506 35.7203C41.18 35.8143 41.3273 35.96 41.5094 36.1641C41.9426 36.6501 42.4033 36.9118 42.8822 36.9074C43.3606 36.9029 43.8201 36.6329 44.2519 36.1394C44.583 35.7611 44.8011 35.6201 44.9962 35.6199C45.0929 35.6198 45.199 35.6541 45.3275 35.7371C45.4569 35.8208 45.6021 35.9495 45.7748 36.1281M46.9632 37.0668L47.0405 37.0027L46.9632 37.0668ZM45.7748 36.1281L45.8646 36.0412L45.7748 36.1281C45.7748 36.1281 45.7748 36.1281 45.7748 36.1281ZM39.489 35.4727L39.4001 35.3849C39.8655 34.9132 40.3075 34.6545 40.7644 34.6602C41.2218 34.666 41.6532 34.9361 42.099 35.4197C42.2836 35.62 42.4297 35.7631 42.5565 35.856C42.6822 35.9482 42.778 35.9828 42.8636 35.9828C42.9496 35.9829 43.0473 35.9483 43.1771 35.8559L39.489 35.4727ZM39.489 35.4727L39.4001 35.3849C39.1909 35.5968 39.0303 35.7471 38.8938 35.8439C38.7581 35.94 38.659 35.974 38.5714 35.9722C38.483 35.9704 38.3828 35.9317 38.246 35.8315C38.1088 35.731 37.9482 35.5788 37.7393 35.3688C37.4581 35.0863 37.0576 34.9151 36.7052 34.7644M39.489 35.4727L36.7052 34.7644M46.3085 35.5166L46.3979 35.4304C46.5027 35.539 46.6325 35.6277 46.7771 35.7189C46.8032 35.7354 46.8299 35.752 46.8569 35.7689C46.9759 35.8429 47.1023 35.9215 47.2166 36.0118C47.2858 36.0665 47.372 36.1465 47.4386 36.2264C47.4716 36.266 47.5036 36.3101 47.5255 36.3543C47.5441 36.3918 47.5714 36.4607 47.5458 36.5326C47.5457 36.5326 47.5457 36.5326 47.5457 36.5326L47.428 36.4905L46.3085 35.5166ZM46.3085 35.5166L46.3979 35.4304M46.3085 35.5166L46.3979 35.4304M36.7052 34.7644C36.6743 34.7513 36.6439 34.7382 36.6139 34.7253L36.7052 34.7644ZM46.3979 35.4304C45.9317 34.9469 45.4885 34.6755 45.0251 34.6718M46.3979 35.4304L45.0251 34.6718M45.0251 34.6718C44.5608 34.6682 44.1172 34.9333 43.6507 35.4199L45.0251 34.6718Z" fill="#5B476B" stroke="#5B476B" stroke-width="0.25"/>
<path d="M46.9534 33.8448L46.8779 33.7884C46.7601 33.7003 46.6443 33.6209 46.5288 33.5417C46.4626 33.4963 46.3966 33.451 46.3302 33.4042C46.1518 33.2782 45.9785 33.1456 45.8276 32.9877C45.6329 32.7839 45.4769 32.6363 45.3415 32.5393C45.2066 32.4427 45.1028 32.4041 45.0112 32.4022C44.9208 32.4003 44.8216 32.4338 44.6946 32.5247C44.5664 32.6166 44.4197 32.76 44.2368 32.9626M46.9534 33.8448L44.2368 32.9626M46.9534 33.8448L47.0284 33.7877M46.9534 33.8448L47.0284 33.7877M44.2368 32.9626C43.8102 33.4349 43.3556 33.6919 42.8833 33.6952C42.4108 33.6984 41.9551 33.4476 41.5268 32.9807C41.3375 32.7744 41.1876 32.6267 41.0575 32.5307C40.9283 32.4353 40.8297 32.3993 40.7415 32.399C40.6531 32.3987 40.5528 32.4342 40.4201 32.5291C40.2867 32.6245 40.132 32.7713 39.9364 32.9763C39.4748 33.46 39.0255 33.7192 38.557 33.7078C38.0899 33.6965 37.6442 33.4169 37.1871 32.9229C37.0867 32.8143 36.9583 32.7269 36.8133 32.6363C36.7884 32.6208 36.763 32.6051 36.7371 32.5892C36.6166 32.515 36.4877 32.4356 36.3727 32.3428L36.3661 32.3374L36.3602 32.3312C36.2402 32.2036 36.1385 32.0601 36.058 31.9046L36.0011 31.7948L36.1102 31.7368C36.1409 31.7204 36.1767 31.6974 36.2176 31.6699C36.2275 31.6632 36.2378 31.6563 36.2484 31.6491C36.2792 31.6283 36.3121 31.606 36.3432 31.5864C36.3844 31.5604 36.4311 31.5333 36.4767 31.5163C36.5161 31.5017 36.5898 31.4809 36.6606 31.5185L36.6607 31.5185C36.6714 31.5242 36.6821 31.5299 36.6928 31.5356C37.1038 31.7542 37.5476 31.9902 37.8968 32.3217C38.2266 32.6347 38.4397 32.7602 38.6223 32.76C38.7998 32.7598 38.9962 32.6393 39.2897 32.3041M44.2368 32.9626L39.2897 32.3041M39.2897 32.3041C39.2897 32.3041 39.2897 32.3041 39.2897 32.3041L39.3838 32.3864M39.2897 32.3041L46.8032 32.6772C46.6354 32.574 46.4682 32.4711 46.3329 32.3354M39.2897 32.3041C39.7537 31.7742 40.2256 31.4834 40.7216 31.4819C41.2173 31.4803 41.6953 31.7678 42.1713 32.2942L42.0862 32.3711L42.1713 32.2942C42.4848 32.641 42.6923 32.7708 42.8747 32.7698C43.0582 32.7687 43.27 32.6352 43.5915 32.2844C44.0724 31.7596 44.5161 31.4674 44.9888 31.4629C45.4604 31.4585 45.9167 31.7411 46.4214 32.2471L46.3329 32.3354M39.2897 32.3041L47.2416 32.8225C47.123 32.7271 46.9911 32.646 46.8674 32.5699C46.8458 32.5566 46.8244 32.5435 46.8034 32.5305C46.6585 32.4405 46.5278 32.3539 46.4214 32.2471L46.3329 32.3354M39.3838 32.3864C38.7951 33.0587 38.4667 33.0349 37.8108 32.4124C37.4741 32.0928 37.0434 31.8637 36.6278 31.6426C36.6192 31.6381 36.6106 31.6335 36.602 31.6289C36.5456 31.599 36.4328 31.6753 36.3199 31.7517C36.2677 31.787 36.2156 31.8223 36.1689 31.8471C36.1752 31.8591 36.1815 31.871 36.188 31.8829L36.2277 31.9574C36.2286 31.9569 36.2295 31.9565 36.2303 31.956C36.2938 32.0598 36.3678 32.1568 36.4512 32.2455C36.5594 32.3328 36.68 32.4071 36.8002 32.4812C36.9734 32.5879 37.1458 32.6942 37.2789 32.838C38.1764 33.808 38.9421 33.837 39.8459 32.89C40.6314 32.0672 40.8589 32.068 41.6189 32.8962C42.4487 33.8007 43.3168 33.7947 44.144 32.8788L39.3838 32.3864ZM39.3838 32.3864C40.2916 31.3497 41.1464 31.3471 42.0785 32.3781C42.7037 33.0695 43.0434 33.0676 43.6837 32.3689C44.6336 31.3322 45.3342 31.3342 46.3329 32.3354M47.0284 33.7877C47.0993 33.7338 47.1646 33.6921 47.2278 33.6518C47.2611 33.6306 47.2938 33.6097 47.3264 33.5876C47.3701 33.558 47.4143 33.5255 47.4502 33.4889C47.4861 33.4522 47.5216 33.4034 47.534 33.3404L47.4114 33.3162L47.0284 33.7877Z" fill="#5B476B" stroke="#5B476B" stroke-width="0.25"/>
<path d="M42.4824 30.4229L42.4825 30.4227C42.1224 30.286 41.7993 30.067 41.5389 29.7831C41.3349 29.5746 41.176 29.4246 41.0396 29.327C40.9037 29.2296 40.803 29.1938 40.7141 29.1949C40.6253 29.196 40.5249 29.2343 40.3902 29.3363C40.2548 29.4389 40.0972 29.5961 39.8952 29.816L39.8952 29.816C39.4887 30.2587 39.0675 30.4991 38.6235 30.5048C38.1805 30.5105 37.7486 30.2819 37.3213 29.8634C37.1808 29.7259 37.0178 29.608 36.8436 29.4902C36.8029 29.4626 36.7614 29.4349 36.7194 29.4069C36.5848 29.3171 36.4457 29.2244 36.3154 29.1239L36.3154 29.1239C36.2557 29.0779 36.1855 29.0077 36.1328 28.9408C36.1066 28.9075 36.0809 28.8703 36.0633 28.8335C36.0546 28.8153 36.0455 28.7926 36.0411 28.7675C36.0367 28.7434 36.0345 28.7049 36.0537 28.6653L36.0538 28.6652C36.0932 28.5846 36.166 28.4953 36.2384 28.4294C36.275 28.396 36.3165 28.3641 36.3588 28.3417C36.3948 28.3227 36.4591 28.2955 36.5281 28.3149M42.4824 30.4229L38.5826 29.5711C38.4331 29.5687 38.2688 29.491 38.0818 29.3037L38.0818 29.3037C38.0227 29.2445 37.9709 29.1791 37.9144 29.1077C37.8932 29.0808 37.8713 29.0531 37.848 29.0246C37.7675 28.9256 37.6736 28.8204 37.553 28.747L37.553 28.747L37.5513 28.746C37.2307 28.5578 36.8867 28.4128 36.5281 28.3149M42.4824 30.4229L42.4888 30.4249C43.164 30.641 43.7139 30.3381 44.154 29.8485L44.061 29.765M42.4824 30.4229L44.061 29.765M36.5281 28.3149C36.5285 28.315 36.5288 28.3151 36.5292 28.3152L36.4946 28.4353M36.5281 28.3149C36.5279 28.3148 36.5277 28.3148 36.5276 28.3147L36.4946 28.4353M36.4946 28.4353C36.8428 28.5303 37.1768 28.671 37.488 28.8538L36.7862 29.3012C36.6523 29.2119 36.5183 29.1225 36.3917 29.0249C36.2903 28.9467 36.1398 28.7741 36.1661 28.7201C36.2274 28.5947 36.4125 28.4117 36.4946 28.4353ZM44.061 29.765L44.154 29.8485C44.3237 29.6597 44.5177 29.5003 44.7401 29.3175C44.8254 29.2474 44.9149 29.1739 45.0088 29.094C45.0904 29.1645 45.167 29.2322 45.2402 29.2969C45.4424 29.4758 45.6192 29.6322 45.8081 29.7636C46.1722 30.0239 46.5574 30.2534 46.9597 30.4498L46.9596 30.4498L46.9612 30.4506C47.033 30.4843 47.1052 30.4628 47.1464 30.4462C47.1927 30.4276 47.2396 30.3987 47.2811 30.3708C47.3124 30.3497 47.3455 30.3259 47.3764 30.3035C47.3869 30.296 47.3971 30.2887 47.4069 30.2816C47.4479 30.2523 47.4838 30.2277 47.5149 30.2099L47.6288 30.145L47.5586 30.0344C47.4666 29.8894 47.3592 29.7548 47.2383 29.6329L47.2387 29.6324M44.061 29.765L47.2387 29.6324M41.9126 28.8056L41.9126 28.8056C41.9512 28.8453 41.9912 28.8934 42.0269 28.9362C42.0457 28.9588 42.0633 28.9799 42.0788 28.9976C42.2621 29.2062 42.4094 29.3554 42.5384 29.4524C42.6665 29.5486 42.7661 29.5853 42.8559 29.5857C42.9462 29.586 43.0485 29.5498 43.1822 29.4539C43.3165 29.3576 43.4713 29.2091 43.6646 29.0019L43.6647 29.0019C43.6814 28.9839 43.6991 28.9653 43.7163 28.9471L41.9126 28.8056ZM41.9126 28.8056C41.5974 28.4815 41.2194 28.3006 40.8268 28.2794C40.4341 28.2582 40.0387 28.3976 39.6907 28.6921C39.5743 28.7906 39.4719 28.9023 39.3757 29.0102C39.3625 29.025 39.3494 29.0397 39.3364 29.0543C39.2532 29.1479 39.1739 29.2371 39.0881 29.3191L41.9126 28.8056ZM47.2387 29.6324L47.2288 29.6243M47.2387 29.6324L47.2288 29.6243M47.2288 29.6243C47.1083 29.5256 46.9772 29.4362 46.8518 29.3508C46.8187 29.3282 46.786 29.306 46.754 29.2839C46.5975 29.1757 46.4536 29.0691 46.334 28.9431M47.2288 29.6243L46.2434 29.0292L46.334 28.9431M46.334 28.9431C45.9327 28.5202 45.4928 28.287 45.0402 28.2788C44.5863 28.2706 44.1474 28.489 43.75 28.9114L46.334 28.9431Z" fill="#5B476B" stroke="#5B476B" stroke-width="0.25"/>
</svg>
