<svg width="32" height="33" viewBox="0 0 32 33" fill="none" xmlns="http://www.w3.org/2000/svg">
<path fill-rule="evenodd" clip-rule="evenodd" d="M15.9999 30.2147C23.5741 30.2147 29.7142 24.0746 29.7142 16.5004C29.7142 8.92623 23.5741 2.78613 15.9999 2.78613C8.42574 2.78613 2.28564 8.92623 2.28564 16.5004C2.28564 24.0746 8.42574 30.2147 15.9999 30.2147Z" fill="#F4E5FF"/>
<path d="M14.0591 21.2637V14.8535H18.2836V15.928H15.2713V17.48H17.9346V18.5545H15.2713V20.1892H18.2836V21.2637H14.0591Z" fill="#5B476B"/>
<path d="M23.4335 10.4826C21.8749 8.92405 19.9206 7.90553 17.7973 7.51934C17.9211 7.2493 17.9907 6.9494 17.9907 6.63338C17.9907 5.45703 17.0337 4.5 15.8574 4.5C14.681 4.5 13.724 5.45703 13.724 6.63338C13.724 6.9494 13.7936 7.2493 13.9174 7.51934C11.7941 7.90553 9.83976 8.92405 8.28121 10.4826C6.25754 12.5063 5.14307 15.1969 5.14307 18.0588C5.14307 20.9207 6.25754 23.6112 8.28121 25.635C10.3048 27.6586 12.9955 28.7731 15.8574 28.7731C18.7192 28.7731 21.4098 27.6586 23.4335 25.635C25.4572 23.6112 26.5716 20.9207 26.5716 18.0588C26.5716 15.1969 25.4572 12.5063 23.4335 10.4826ZM15.8574 5.92225C16.2495 5.92225 16.5685 6.24126 16.5685 6.63338C16.5685 7.02549 16.2495 7.3445 15.8574 7.3445C15.4652 7.3445 15.1462 7.02549 15.1462 6.63338C15.1462 6.24126 15.4652 5.92225 15.8574 5.92225ZM15.8574 27.3508C10.7337 27.3508 6.56532 23.1824 6.56532 18.0588C6.56532 12.9351 10.7337 8.76675 15.8574 8.76675C20.981 8.76675 25.1494 12.9351 25.1494 18.0588C25.1494 23.1824 20.981 27.3508 15.8574 27.3508Z" fill="#5B476B"/>
<path d="M16.5682 10.1895H15.146V12.0858H16.5682V10.1895Z" fill="#5B476B"/>
<path d="M9.88364 17.3477H7.9873V18.7699H9.88364V17.3477Z" fill="#5B476B"/>
<path d="M16.5682 24.0322H15.146V25.9286H16.5682V24.0322Z" fill="#5B476B"/>
<path d="M23.7269 17.3477H21.8306V18.7699H23.7269V17.3477Z" fill="#5B476B"/>
</svg>
