<svg width="20" height="20" viewBox="0 0 20 20" fill="none" xmlns="http://www.w3.org/2000/svg">
<path fill-rule="evenodd" clip-rule="evenodd" d="M18.2112 4.87793L10.2945 12.7946C10.2411 12.848 10.1742 12.8859 10.101 12.9042L6.76764 13.7375C6.46248 13.8138 6.18607 13.5374 6.26236 13.2322L7.09569 9.89891C7.11401 9.82565 7.15189 9.75874 7.20529 9.70534L15.122 1.78868C15.975 0.9356 17.3581 0.9356 18.2112 1.78868C19.0643 2.64175 19.0643 4.02486 18.2112 4.87793ZM17.5252 2.2904C16.9945 1.85222 16.2075 1.88143 15.7109 2.37803L7.87709 10.2126L7.23959 12.7609L9.78792 12.1234L17.6216 4.28878C18.1493 3.76114 18.1493 2.90567 17.6216 2.37803L17.5252 2.2904ZM16.6668 10.4167C16.8969 10.4167 17.0834 10.6032 17.0834 10.8333L17.0834 16.6667L17.079 16.8036C17.0085 17.8904 16.1047 18.75 15.0001 18.75L3.33343 18.75L3.19646 18.7456C2.10971 18.675 1.2501 17.7712 1.2501 16.6667L1.2501 5L1.25453 4.86302C1.32507 3.77628 2.22886 2.91666 3.33343 2.91666L9.16677 2.91666L9.24166 2.92338C9.43604 2.95866 9.58344 3.12878 9.58344 3.33333C9.58344 3.56345 9.39689 3.75 9.16677 3.75L3.33343 3.75L3.21305 3.75572C2.57917 3.81629 2.08344 4.35025 2.08344 5L2.08344 16.6667L2.08916 16.787C2.14973 17.4209 2.68369 17.9167 3.33343 17.9167L15.0001 17.9167L15.1205 17.9109C15.7544 17.8504 16.2501 17.3164 16.2501 16.6667L16.2501 10.8333L16.2568 10.7584C16.2921 10.5641 16.4622 10.4167 16.6668 10.4167Z" fill="#5B476B"/>
</svg>
