<svg width="22" height="22" viewBox="0 0 22 22" fill="none" xmlns="http://www.w3.org/2000/svg">
<path fill-rule="evenodd" clip-rule="evenodd" d="M17.1469 1.1457L7.6469 10.6457C7.58282 10.7098 7.53736 10.7901 7.51538 10.878L6.51538 14.878C6.42384 15.2442 6.75553 15.5759 7.12172 15.4843L11.1217 14.4843C11.2096 14.4623 11.2899 14.4169 11.354 14.3528L20.854 4.8528C21.8777 3.82911 21.8777 2.16939 20.854 1.1457C19.8303 0.122007 18.1706 0.122007 17.1469 1.1457ZM20.2511 1.96846C20.7769 2.60538 20.7419 3.54978 20.146 4.1457L10.7445 13.5462L7.68652 14.3112L8.45152 11.2532L17.8531 1.8528C18.4862 1.21964 19.5128 1.21964 20.146 1.8528L20.2511 1.96846ZM10.5 2.99902C10.5 2.72288 10.2761 2.49902 10 2.49902H3L2.83562 2.50434C1.53154 2.58898 0.5 3.67354 0.5 4.99902V18.999L0.505318 19.1634C0.589961 20.4675 1.67452 21.499 3 21.499H17L17.1644 21.4937C18.4685 21.4091 19.5 20.3245 19.5 18.999V11.999L19.4919 11.9091C19.4496 11.6759 19.2455 11.499 19 11.499C18.7239 11.499 18.5 11.7229 18.5 11.999V18.999L18.4931 19.1435C18.4205 19.9041 17.7797 20.499 17 20.499H3L2.85554 20.4922C2.09489 20.4195 1.5 19.7787 1.5 18.999V4.99902L1.50687 4.85456C1.57955 4.09391 2.2203 3.49902 3 3.49902H10L10.0899 3.49097C10.3231 3.44863 10.5 3.24448 10.5 2.99902Z" fill="#5B476B"/>
</svg>
