<svg width="33" height="32" viewBox="0 0 33 32" fill="none" xmlns="http://www.w3.org/2000/svg">
<path fill-rule="evenodd" clip-rule="evenodd" d="M24.6953 2.86158L12.0286 15.5282C11.9432 15.6137 11.8826 15.7207 11.8533 15.838L10.52 21.1713C10.3979 21.6595 10.8402 22.1018 11.3284 21.9797L16.6617 20.6464C16.779 20.6171 16.886 20.5565 16.9715 20.4711L29.6381 7.80439C31.003 6.43947 31.003 4.2265 29.6381 2.86158C28.2732 1.49666 26.0602 1.49666 24.6953 2.86158ZM28.8354 3.95912C29.5364 4.80834 29.4897 6.06754 28.6951 6.8621L16.1599 19.3962L12.0826 20.4162L13.1026 16.3388L25.638 3.80491C26.4822 2.96069 27.8509 2.96069 28.6951 3.80491L28.8354 3.95912ZM15.8333 5.33268C15.8333 4.96449 15.5349 4.66602 15.1667 4.66602H5.83333L5.61417 4.67311C3.87538 4.78596 2.5 6.23204 2.5 7.99935V26.666L2.50709 26.8852C2.61995 28.624 4.06602 29.9994 5.83333 29.9994H24.5L24.7192 29.9923C26.458 29.8794 27.8333 28.4333 27.8333 26.666V17.3327L27.8226 17.2129C27.7661 16.9019 27.4939 16.666 27.1667 16.666C26.7985 16.666 26.5 16.9645 26.5 17.3327V26.666L26.4908 26.8586C26.3939 27.8728 25.5396 28.666 24.5 28.666H5.83333L5.64072 28.6569C4.62652 28.5599 3.83333 27.7056 3.83333 26.666V7.99935L3.84249 7.80674C3.9394 6.79253 4.79374 5.99935 5.83333 5.99935H15.1667L15.2865 5.98861C15.5975 5.93216 15.8333 5.65996 15.8333 5.33268Z" fill="#5B476B"/>
</svg>
