<svg width="32" height="32" viewBox="0 0 32 32" fill="none" xmlns="http://www.w3.org/2000/svg">
    <path fill-rule="evenodd" clip-rule="evenodd" d="M15.7261 29.1656C23.1488 29.1656 29.1661 23.1484 29.1661 15.7256C29.1661 8.30294 23.1488 2.28564 15.7261 2.28564C8.30343 2.28564 2.28613 8.30294 2.28613 15.7256C2.28613 23.1484 8.30343 29.1656 15.7261 29.1656Z" fill="#F4E5FF"/>
    <path d="M11.2816 24.7049H14.9099V27.3477C14.9099 28.154 15.5594 28.8035 16.3657 28.8035H18.695V28.8259C19.0309 29.2738 19.5685 29.5426 20.1284 29.5426C20.1956 29.5426 20.2628 29.5426 20.33 29.5202C21.3154 29.4082 22.0321 28.5123 21.9201 27.5269C21.8082 26.5414 20.9123 25.8247 19.9268 25.9367C19.3893 26.0039 18.8966 26.295 18.6278 26.7654H16.948V24.7049H20.8451C21.6962 24.7049 22.4129 24.0106 22.4129 23.1371V10.8188C22.4129 9.96776 21.7186 9.25106 20.8451 9.25106H17.9559V7.77287C17.9559 7.34733 17.6199 6.98898 17.1944 6.96658V4.59252H20.4419V2.28564H16.5897C15.6714 2.28564 14.9099 3.04714 14.9099 3.96541V6.96658C14.4844 6.98898 14.1484 7.34733 14.1484 7.77287V9.25106H11.2816C10.4306 9.25106 9.71387 9.94536 9.71387 10.8188V23.1371C9.71387 23.9882 10.4082 24.7049 11.2816 24.7049ZM19.994 26.6086C20.2852 26.5638 20.5763 26.6534 20.8227 26.855C21.0467 27.0341 21.2034 27.3029 21.2482 27.6165C21.3154 28.2212 20.8675 28.7811 20.2628 28.8483C20.0164 28.8707 19.7924 28.8259 19.5909 28.7139C19.9492 28.5571 20.1956 28.1988 20.1956 27.7956C20.1956 27.3477 19.882 26.967 19.4789 26.8326C19.6133 26.6982 19.7924 26.631 19.994 26.6086ZM19.1653 27.4373C19.3445 27.4373 19.5013 27.5941 19.5013 27.7732C19.5013 27.9524 19.3445 28.1092 19.1653 28.1092H16.3433C15.9178 28.1092 15.5594 27.7508 15.5594 27.3253V24.6825H16.2313V27.4149H19.1653V27.4373ZM16.5897 2.95755H19.7924V3.92061H16.5225V6.96658H15.5594V3.96541C15.5818 3.40549 16.0298 2.95755 16.5897 2.95755ZM14.8203 7.77287C14.8203 7.70568 14.8875 7.63849 14.9547 7.63849H17.172C17.2392 7.63849 17.3064 7.70568 17.3064 7.77287V9.25106H14.8203V7.77287ZM10.3858 10.8188C10.3858 10.3261 10.7889 9.92296 11.2816 9.92296H14.1484H17.9783H20.8451C21.3378 9.92296 21.741 10.3261 21.741 10.8188V23.1371C21.741 23.6298 21.3378 24.033 20.8451 24.033H11.2816C10.7889 24.033 10.3858 23.6298 10.3858 23.1371V10.8188Z" fill="#5B476B" stroke="#5B476B" stroke-width="0.171429"/>
    <path d="M16.0526 20.2031C15.2687 20.2031 14.6416 20.8302 14.6416 21.6141C14.6416 22.398 15.2687 23.0251 16.0526 23.0251C16.8365 23.0251 17.4636 22.398 17.4636 21.6141C17.4636 20.8302 16.8365 20.2031 16.0526 20.2031ZM16.0526 22.3532C15.6495 22.3532 15.3135 22.0173 15.3135 21.6141C15.3135 21.211 15.6495 20.875 16.0526 20.875C16.4557 20.875 16.7917 21.211 16.7917 21.6141C16.7917 22.0173 16.4557 22.3532 16.0526 22.3532Z" fill="#5B476B" stroke="#5B476B" stroke-width="0.171429"/>
    <path d="M14.507 14.5371C14.395 14.6267 14.2382 14.7611 14.1262 15.0075C13.8575 15.6122 14.1486 16.2393 14.1934 16.3065C14.507 16.9336 15.2237 17.2471 15.8956 17.2471C16.1419 17.2471 16.3883 17.2024 16.6123 17.1128C17.1498 16.9112 17.4409 16.5081 17.5529 16.3737C17.8217 16.0153 17.9785 15.6122 18.0233 15.1642C18.0457 14.9403 18.0233 14.4699 17.7769 13.9772C17.6425 13.7084 17.4409 13.4621 17.217 13.2605L16.8138 12.9246L16.6795 13.4397C16.6347 13.6189 16.5675 13.798 16.4779 13.9548C16.3659 13.7756 16.2539 13.5741 16.1195 13.4397C15.694 12.9694 14.9773 12.9918 14.5742 13.0365L14.0366 13.1261L14.3726 13.5741C14.6189 13.91 14.7309 14.2012 14.6637 14.358C14.6413 14.4475 14.5966 14.4699 14.507 14.5371ZM14.7533 15.2986C14.7981 15.1866 14.8653 15.1418 14.9549 15.0747C15.0669 14.9851 15.2013 14.8507 15.2909 14.6267C15.3804 14.358 15.3804 14.0668 15.2237 13.7308C15.4028 13.7532 15.5596 13.8204 15.6492 13.91C15.694 13.9772 15.806 14.1116 15.9852 14.4251C16.0523 14.5371 16.0971 14.6715 16.1643 14.7835L16.3883 15.2986L16.7466 14.8731C16.8362 14.7611 16.9258 14.6267 17.0154 14.5147C17.0826 14.4251 17.1274 14.3132 17.1722 14.2012C17.1946 14.246 17.217 14.2684 17.2394 14.3132C17.4186 14.6491 17.4186 14.9851 17.4186 15.1418C17.3962 15.5898 17.1722 15.8809 17.0826 15.9929C16.993 16.1049 16.7914 16.3961 16.4331 16.5081C15.8956 16.7096 15.0893 16.5304 14.8429 16.0153C14.7981 16.0153 14.5966 15.6122 14.7533 15.2986Z" fill="#5B476B" stroke="#5B476B" stroke-width="0.171429"/>
    <path d="M13.3652 18.815H18.7404C19.3227 18.815 19.793 18.3447 19.793 17.7624V12.3871C19.793 11.8048 19.3227 11.3345 18.7404 11.3345H13.3652C12.7828 11.3345 12.3125 11.8048 12.3125 12.3871V17.7848C12.3125 18.3447 12.7828 18.815 13.3652 18.815ZM12.9844 12.3871C12.9844 12.1856 13.1636 12.0064 13.3652 12.0064H18.7404C18.942 12.0064 19.1211 12.1856 19.1211 12.3871V17.7848C19.1211 17.9863 18.942 18.1655 18.7404 18.1655H13.3652C13.1636 18.1655 12.9844 17.9863 12.9844 17.7848V12.3871Z" fill="#5B476B" stroke="#5B476B" stroke-width="0.171429"/>
</svg>
