<svg width="32" height="32" viewBox="0 0 32 32" fill="none" xmlns="http://www.w3.org/2000/svg">
    <path fill-rule="evenodd" clip-rule="evenodd" d="M16.0001 29.44C23.4228 29.44 29.4401 23.4227 29.4401 16C29.4401 8.57729 23.4228 2.56 16.0001 2.56C8.57735 2.56 2.56006 8.57729 2.56006 16C2.56006 23.4227 8.57735 29.44 16.0001 29.44Z" fill="#F4E5FF"/>
    <path d="M26.1878 9.95997C26.0574 9.82953 25.8461 9.82953 25.7157 9.95997L23.9318 11.744L21.4043 9.21629L23.1933 7.42709C23.3237 7.29666 23.3237 7.08542 23.1933 6.95498C23.0628 6.82454 22.8516 6.82454 22.7211 6.95498L20.9322 8.74417L19.8392 7.65147C19.6207 7.4331 19.3293 7.3129 19.0188 7.3129C18.7083 7.3129 18.4171 7.4331 18.1983 7.65147C17.9802 7.86983 17.8597 8.16143 17.8597 8.47194C17.8597 8.78268 17.9802 9.07383 18.1983 9.29242L18.2462 9.34027L16.4741 11.1121C15.348 12.2384 15.0898 13.9056 15.6924 15.2837L13.5341 17.4417L14.4305 18.3381C13.7792 18.8872 13.2265 19.5537 12.6451 20.2571C11.0266 22.2163 9.35315 24.2424 5.14282 24.2424V24.9101C9.66768 24.9101 11.523 22.664 13.1601 20.6822C13.7347 19.9866 14.28 19.3293 14.9046 18.8122L15.7427 19.6503L17.8998 17.4932C18.3701 17.6988 18.8814 17.8097 19.4114 17.8097C20.4182 17.8097 21.3636 17.4193 22.0725 16.7103L23.8446 14.9382L23.892 14.9861C24.1106 15.2045 24.4019 15.3249 24.7125 15.3249C25.023 15.3249 25.3146 15.2045 25.5329 14.9861C25.7515 14.7677 25.8719 14.4764 25.8719 14.1658C25.8719 13.8551 25.7515 13.5637 25.5329 13.3452L24.4044 12.2164L26.1882 10.4323C26.3182 10.3016 26.3182 10.0904 26.1878 9.95997ZM15.7424 18.7058L14.4781 17.4415L16.0274 15.892C16.1578 16.0826 16.3047 16.2651 16.4739 16.4343L16.7499 16.7099C16.9177 16.8777 17.0994 17.0259 17.2912 17.157L15.7424 18.7058ZM21.6002 16.2377C21.0172 16.8205 20.2399 17.1417 19.4112 17.1417C18.5825 17.1417 17.8048 16.8207 17.2222 16.2377L16.9462 15.9622C15.7395 14.7553 15.7395 12.7911 16.9462 11.584L18.7183 9.81217L23.3722 14.4657L21.6002 16.2377ZM25.0604 14.5135C24.8756 14.6983 24.5486 14.6983 24.3639 14.5135L18.6704 8.82008C18.5783 8.7277 18.5273 8.60394 18.5273 8.47194C18.5273 8.33994 18.5783 8.21618 18.6704 8.12381C18.763 8.03143 18.8866 7.98046 19.0185 7.98046C19.1505 7.98046 19.2745 8.03143 19.3667 8.12381L25.0601 13.8173C25.2527 14.0089 25.2527 14.3214 25.0604 14.5135Z" fill="#5B476B" stroke="#5B476B" stroke-width="0.5"/>
</svg>
