<svg width="64" height="64" viewBox="0 0 64 64" fill="none" xmlns="http://www.w3.org/2000/svg">
<path fill-rule="evenodd" clip-rule="evenodd" d="M32.0001 58.8801C46.8455 58.8801 58.8801 46.8455 58.8801 32.0001C58.8801 17.1547 46.8455 5.12012 32.0001 5.12012C17.1547 5.12012 5.12012 17.1547 5.12012 32.0001C5.12012 46.8455 17.1547 58.8801 32.0001 58.8801Z" fill="#F4E5FF"/>
<path d="M52.3761 19.92C52.1152 19.6591 51.6927 19.6591 51.4318 19.92L47.8641 23.4882L42.8091 18.4326L46.387 14.8542C46.6479 14.5934 46.6479 14.1709 46.387 13.91C46.1261 13.6491 45.7037 13.6491 45.4428 13.91L41.8648 17.4884L39.679 15.303C39.2418 14.8663 38.6591 14.6259 38.038 14.6259C37.417 14.6259 36.8347 14.8663 36.3971 15.303C35.9608 15.7397 35.72 16.3229 35.72 16.9439C35.72 17.5654 35.9608 18.1477 36.3971 18.5849L36.4928 18.6806L32.9487 22.2243C30.6965 24.4769 30.1801 27.8113 31.3852 30.5675L27.0687 34.8835L28.8614 36.6763C27.5588 37.7746 26.4534 39.1074 25.2906 40.5142C22.0537 44.4327 18.7068 48.4848 10.2861 48.4848V49.8204C19.3358 49.8204 23.0465 45.328 26.3208 41.3645C27.4698 39.9733 28.5605 38.6587 29.8097 37.6245L31.4858 39.3007L35.8001 34.9864C36.7408 35.3977 37.7634 35.6194 38.8233 35.6194C40.8369 35.6194 42.7276 34.8386 44.1455 33.4207L47.6896 29.8765L47.7845 29.9723C48.2216 30.409 48.8044 30.6498 49.4254 30.6498C50.0464 30.6498 50.6296 30.409 51.0663 29.9723C51.5035 29.5355 51.7444 28.9528 51.7444 28.3318C51.7444 27.7103 51.5035 27.1275 51.0663 26.6904L48.8093 24.4328L52.377 20.8647C52.637 20.6034 52.637 20.1809 52.3761 19.92ZM31.4854 37.4117L28.9567 34.8831L32.0552 31.7842C32.3161 32.1652 32.6099 32.5303 32.9482 32.8686L33.5003 33.4198C33.8359 33.7554 34.1992 34.0519 34.583 34.3141L31.4854 37.4117ZM43.2008 32.4755C42.0349 33.641 40.4803 34.2834 38.8229 34.2834C37.1655 34.2834 35.61 33.6415 34.445 32.4755L33.8929 31.9244C31.4796 29.5106 31.4796 25.5823 33.8929 23.1681L37.437 19.6244L46.7449 28.9314L43.2008 32.4755ZM50.1212 29.0271C49.7517 29.3966 49.0977 29.3966 48.7282 29.0271L37.3413 17.6402C37.157 17.4555 37.0551 17.2079 37.0551 16.9439C37.0551 16.6799 37.157 16.4324 37.3413 16.2477C37.5265 16.0629 37.7736 15.961 38.0376 15.961C38.3016 15.961 38.5495 16.0629 38.7339 16.2477L50.1208 27.6346C50.5059 28.0179 50.5059 28.6429 50.1212 29.0271Z" fill="#5B476B" stroke="#5B476B" stroke-width="0.5"/>
</svg>
