<svg width="32" height="32" viewBox="0 0 32 32" fill="none" xmlns="http://www.w3.org/2000/svg">
    <path fill-rule="evenodd" clip-rule="evenodd" d="M15.7261 29.1656C23.1488 29.1656 29.1661 23.1484 29.1661 15.7256C29.1661 8.30294 23.1488 2.28564 15.7261 2.28564C8.30343 2.28564 2.28613 8.30294 2.28613 15.7256C2.28613 23.1484 8.30343 29.1656 15.7261 29.1656Z" fill="#F4E5FF"/>
    <path d="M6.28516 27.5225H21.7518V7.54468H6.28516V27.5225ZM19.8185 26.878H14.3407V9.47801H19.8185V26.878ZM13.6963 26.878H8.21849V9.47801H13.6963V26.878ZM6.9296 8.18912H21.1074V26.878H20.4629V8.83357H7.57405V26.878H6.9296V8.18912Z" fill="#5B476B"/>
    <path d="M9.50764 4C9.16581 4 8.83797 4.13579 8.59626 4.37751C8.35454 4.61922 8.21875 4.94706 8.21875 5.28889C8.21875 5.63073 8.35454 5.95856 8.59626 6.20027C8.83797 6.44199 9.16581 6.57778 9.50764 6.57778H18.5299C18.8717 6.57778 19.1995 6.44199 19.4413 6.20027C19.683 5.95856 19.8188 5.63073 19.8188 5.28889C19.8188 4.94706 19.683 4.61922 19.4413 4.37751C19.1995 4.13579 18.8717 4 18.5299 4H9.50764ZM19.1743 5.28889C19.1743 5.45981 19.1064 5.62372 18.9856 5.74458C18.8647 5.86544 18.7008 5.93334 18.5299 5.93334H9.50764C9.33672 5.93334 9.17281 5.86544 9.05195 5.74458C8.93109 5.62372 8.8632 5.45981 8.8632 5.28889C8.8632 5.11797 8.93109 4.95406 9.05195 4.8332C9.17281 4.71234 9.33672 4.64445 9.50764 4.64445H18.5299C18.7008 4.64445 18.8647 4.71234 18.9856 4.8332C19.1064 4.95406 19.1743 5.11797 19.1743 5.28889Z" fill="#5B476B"/>
    <path d="M10.1523 5.61124C10.3303 5.61124 10.4745 5.46698 10.4745 5.28902C10.4745 5.11106 10.3303 4.9668 10.1523 4.9668C9.97434 4.9668 9.83008 5.11106 9.83008 5.28902C9.83008 5.46698 9.97434 5.61124 10.1523 5.61124Z" fill="#5B476B"/>
    <path d="M11.6982 5.61124C11.8762 5.61124 12.0204 5.46698 12.0204 5.28902C12.0204 5.11106 11.8762 4.9668 11.6982 4.9668C11.5202 4.9668 11.376 5.11106 11.376 5.28902C11.376 5.46698 11.5202 5.61124 11.6982 5.61124Z" fill="#5B476B"/>
    <path d="M13.2451 5.61124C13.423 5.61124 13.5673 5.46698 13.5673 5.28902C13.5673 5.11106 13.423 4.9668 13.2451 4.9668C13.0671 4.9668 12.9229 5.11106 12.9229 5.28902C12.9229 5.46698 13.0671 5.61124 13.2451 5.61124Z" fill="#5B476B"/>
    <path d="M14.7919 5.61124C14.9699 5.61124 15.1142 5.46698 15.1142 5.28902C15.1142 5.11106 14.9699 4.9668 14.7919 4.9668C14.614 4.9668 14.4697 5.11106 14.4697 5.28902C14.4697 5.46698 14.614 5.61124 14.7919 5.61124Z" fill="#5B476B"/>
    <path d="M16.3388 5.61124C16.5168 5.61124 16.661 5.46698 16.661 5.28902C16.661 5.11106 16.5168 4.9668 16.3388 4.9668C16.1609 4.9668 16.0166 5.11106 16.0166 5.28902C16.0166 5.46698 16.1609 5.61124 16.3388 5.61124Z" fill="#5B476B"/>
    <path d="M17.8857 5.61124C18.0637 5.61124 18.2079 5.46698 18.2079 5.28902C18.2079 5.11106 18.0637 4.9668 17.8857 4.9668C17.7077 4.9668 17.5635 5.11106 17.5635 5.28902C17.5635 5.46698 17.7077 5.61124 17.8857 5.61124Z" fill="#5B476B"/>
    <path d="M22.7188 19.1441H25.941V14.3108H22.7188V19.1441ZM23.3632 14.9552H25.2965V18.4997H23.3632V14.9552Z" fill="#5B476B"/>
    <path d="M23.6855 16.5665H24.9744L24.33 15.2776L23.6855 16.5665Z" fill="#5B476B"/>
    <path d="M24.33 18.1776L24.9744 16.8887H23.6855L24.33 18.1776Z" fill="#5B476B"/>
    <path d="M19.1737 10.4446H18.5293V11.089H19.1737V10.4446Z" fill="#5B476B"/>
    <path d="M19.1737 11.4109H18.5293V13.022H19.1737V11.4109Z" fill="#5B476B"/>
</svg>
