<svg width="32" height="32" viewBox="0 0 32 32" fill="none" xmlns="http://www.w3.org/2000/svg">
<path fill-rule="evenodd" clip-rule="evenodd" d="M9.47343 2.00016L5.47993 2.00013C4.54352 2.00117 3.65135 2.39529 3.02058 3.0863C2.38975 3.77735 2.07842 4.70171 2.16263 5.63359C2.61237 9.86944 4.05011 13.9298 6.36041 17.4961C8.45686 20.7953 11.2582 23.5967 14.5624 25.6963C18.1073 27.9952 22.148 29.4326 26.3546 29.8897C27.3014 29.9754 28.2284 29.6618 28.9201 29.0273C29.6117 28.3928 30.0037 27.4961 29.9999 26.5576L29.9999 22.5603C30.0417 20.8848 28.809 19.4299 27.1331 19.1935C25.8969 19.0304 24.6889 18.7295 23.5263 18.2957L23.2965 18.2187C22.1398 17.8774 20.8787 18.1884 20.0112 19.0462L18.6786 20.3776L18.6102 20.3368C15.937 18.7147 13.6688 16.5083 11.9743 13.8864L11.6213 13.3203L12.9513 11.9917C13.869 11.0637 14.1619 9.69048 13.704 8.47235C13.2707 7.31127 12.9698 6.10333 12.8075 4.87309C12.5725 3.21028 11.1465 1.98386 9.47343 2.00016ZM5.48066 3.33346L9.48641 3.33343C10.4903 3.32365 11.346 4.05953 11.4865 5.05356C11.661 6.37737 11.9863 7.68319 12.4553 8.94C12.7306 9.67237 12.5549 10.4963 12.0059 11.0515L10.3152 12.7422C10.103 12.9544 10.0587 13.2822 10.2071 13.5431C12.1644 16.9855 15.0147 19.8357 18.4571 21.7931C18.7179 21.9415 19.0458 21.8972 19.258 21.685L20.9513 19.9917C21.5039 19.4453 22.3278 19.2696 23.0587 19.5443C24.317 20.0138 25.6228 20.3391 26.9527 20.5145C27.9524 20.6556 28.692 21.5285 28.6668 22.5437L28.6666 26.5603C28.6689 27.1261 28.4336 27.6641 28.0187 28.0448C27.6037 28.4255 27.0475 28.6137 26.4866 28.563C22.4994 28.1296 18.6578 26.763 15.2827 24.5742C12.1385 22.5763 9.47722 19.915 7.48259 16.776C5.28301 13.3806 3.91612 9.52039 3.48952 5.50319C3.44002 4.95446 3.62682 4.39984 4.00531 3.98521C4.3838 3.57059 4.91917 3.33409 5.48066 3.33346Z" fill="#5B476B"/>
</svg>
