<svg width="33" height="32" viewBox="0 0 33 32" fill="none" xmlns="http://www.w3.org/2000/svg">
    <path fill-rule="evenodd" clip-rule="evenodd" d="M16.653 29.3749C24.1336 29.3749 30.1979 23.3106 30.1979 15.83C30.1979 8.34939 24.1336 2.28516 16.653 2.28516C9.17239 2.28516 3.10815 8.34939 3.10815 15.83C3.10815 23.3106 9.17239 29.3749 16.653 29.3749Z" fill="#F4E5FF"/>
    <path d="M29.8766 3.50941H28.6302V2.60737C28.6302 2.43002 28.4863 2.28613 28.309 2.28613C28.1316 2.28613 27.9877 2.43002 27.9877 2.60737V3.50941C24.3202 3.50636 4.913 3.48181 4.99339 3.50941V2.60737C4.99339 2.43002 4.8495 2.28613 4.67215 2.28613C4.4948 2.28613 4.35091 2.43002 4.35091 2.60737V3.50941H3.10688C2.927 3.50941 2.78564 3.65074 2.78564 3.83065C2.78564 4.00624 2.927 4.15188 3.10688 4.15188H4.35091V5.05324C4.35091 5.23059 4.4948 5.37448 4.67215 5.37448C4.8495 5.37448 4.99339 5.23059 4.99339 5.05324V4.15188H5.61254C5.61253 4.20363 5.60883 24.5793 5.61683 29.1312C5.61683 29.2554 5.68964 29.3711 5.80529 29.4225C5.92092 29.4739 6.0537 29.4567 6.15223 29.3711C6.92319 28.6815 7.29153 28.8528 7.9597 29.1569C8.83233 29.5597 9.58257 29.7646 10.7138 29.4396C10.8594 29.3968 10.9536 29.264 10.9451 29.1141C10.9194 28.6215 10.868 28.0091 10.7909 27.3152C14.9724 27.3152 18.0165 27.3152 22.1883 27.3152C22.1112 28.0091 22.0598 28.6216 22.0341 29.1141C22.0256 29.264 22.1241 29.3968 22.2697 29.4396C23.3784 29.7615 24.1406 29.5646 25.0238 29.1569C25.6919 28.8528 26.0603 28.6815 26.8313 29.3711C26.9255 29.4567 27.0583 29.4739 27.1782 29.4225C27.2896 29.3711 27.3667 29.2555 27.3667 29.1313C27.3667 11.5913 27.3667 29.2194 27.3667 4.15189H27.9877V5.05325C27.9877 5.2306 28.1316 5.37448 28.309 5.37448C28.4863 5.37448 28.6302 5.2306 28.6302 5.05325V4.15188H29.8766C30.0522 4.15188 30.1978 4.00624 30.1978 3.83065C30.1978 3.65074 30.0522 3.50941 29.8766 3.50941ZM20.0896 13.0351H17.5154V12.2685H19.6656C19.7983 12.5297 19.944 12.7867 20.0896 13.0351ZM26.7242 17.6952H25.0623V17.1555H26.7242V17.6952ZM24.4199 17.9394C24.2185 18.3334 24.0301 18.7874 23.8545 19.2842H17.5154V13.6776H20.4922C21.5501 15.2838 22.8479 16.5516 24.4199 17.0699V17.9394H24.4199ZM23.4133 20.6891H17.5154V19.9267H23.6403C23.5632 20.1752 23.4861 20.4279 23.4133 20.6891ZM17.5154 11.626V6.7389C17.9737 8.33225 18.5733 10.0498 19.3358 11.626H17.5154ZM15.4638 11.626H13.6435C14.4058 10.0541 15.0055 8.3408 15.4638 6.75176V11.626ZM15.4638 13.0351H12.8896C13.0352 12.7867 13.1809 12.5297 13.3136 12.2685H15.4638V13.0351ZM15.4638 19.2843H9.12474C8.9534 18.7874 8.76494 18.3334 8.56364 17.9394V17.0699C10.1356 16.5516 11.429 15.2838 12.487 13.6776H15.4638V19.2843H15.4638ZM9.34315 19.9267H15.4638V20.6891H9.56589C9.49308 20.4279 9.42027 20.1752 9.34315 19.9267ZM6.2593 4.15188H15.4638C14.437 8.10796 12.5323 15.2855 8.18244 16.5131H6.2593C6.2593 9.45661 6.2593 11.109 6.2593 4.15188ZM6.2593 17.1555H7.92117V17.6952H6.2593V17.1555ZM10.2897 28.8828C9.35173 29.0884 8.7778 28.8271 8.22526 28.5744C7.50963 28.2428 6.98135 28.0819 6.2593 28.4973C6.2593 27.8287 6.2593 18.1379 6.2593 18.3377H8.04108C9.26869 20.7927 10.1101 26.0346 10.2897 28.8828ZM10.7138 26.6727C10.5125 25.0408 10.1827 23.092 9.73722 21.3316H15.4638V26.6727H10.7138ZM16.1063 26.6727C16.1063 16.366 16.091 4.40857 16.1277 4.15188H16.8558C16.8826 4.31314 16.8729 2.61969 16.8729 26.6727H16.1063ZM17.5154 26.6727V21.3316H23.2463C22.8008 23.0877 22.471 25.0408 22.2654 26.6727H17.5154ZM26.7242 28.4973C25.2366 27.6461 24.601 29.3008 22.6937 28.8828C22.8656 26.1584 23.7159 20.7819 24.9381 18.3377H26.7242C26.7242 22.1022 26.7242 24.7583 26.7242 28.4973ZM26.7242 16.5131H24.8011C22.6234 15.8985 21.0426 13.6661 20.0425 11.626C18.6147 8.77033 17.5154 4.4353 17.5154 4.15188H26.7242C26.7242 8.05786 26.7242 11.9144 26.7242 16.5131Z" fill="#5B476B"/>
</svg>
