<svg width="32" height="32" viewBox="0 0 32 32" fill="none" xmlns="http://www.w3.org/2000/svg">
<path fill-rule="evenodd" clip-rule="evenodd" d="M16.0001 29.4405C23.4228 29.4405 29.4401 23.4233 29.4401 16.0005C29.4401 8.57784 23.4228 2.56055 16.0001 2.56055C8.57735 2.56055 2.56006 8.57784 2.56006 16.0005C2.56006 23.4233 8.57735 29.4405 16.0001 29.4405Z" fill="#F4E5FF"/>
<path d="M22.1515 4.02344H8.9483C8.45823 4.02398 7.98838 4.2189 7.64185 4.56543C7.29531 4.91197 7.10039 5.38181 7.09985 5.87189L7 25.0722C7.00063 25.5165 7.16103 25.9458 7.45191 26.2816C7.74278 26.6174 8.14473 26.8375 8.58439 26.9015V27.4488C8.58439 27.5889 8.64003 27.7232 8.73907 27.8222C8.83811 27.9213 8.97245 27.9769 9.11251 27.9769C9.25258 27.9769 9.38691 27.9213 9.48596 27.8222C9.585 27.7232 9.64064 27.5889 9.64064 27.4488V26.9207H21.2595V27.4488C21.2595 27.5889 21.3151 27.7232 21.4142 27.8222C21.5132 27.9213 21.6475 27.9769 21.7876 27.9769C21.9277 27.9769 22.062 27.9213 22.161 27.8222C22.2601 27.7232 22.3157 27.5889 22.3157 27.4488V26.9015C22.7554 26.8375 23.1573 26.6174 23.4482 26.2816C23.7391 25.9458 23.8995 25.5165 23.9001 25.0722L24 5.87189C23.9995 5.38181 23.8045 4.91197 23.458 4.56543C23.1114 4.2189 22.6416 4.02398 22.1515 4.02344ZM22.8439 25.0722C22.8437 25.2823 22.7602 25.4837 22.6116 25.6322C22.4631 25.7807 22.2617 25.8642 22.0517 25.8644H8.84845C8.6384 25.8642 8.437 25.7807 8.28848 25.6322C8.13995 25.4837 8.05643 25.2823 8.05626 25.0722V19.1968H22.8439V25.0722ZM22.8439 18.1405H8.05626L8.15611 11.4172H22.9437L22.8439 18.1405ZM22.9437 10.361H8.15611V5.87189C8.15628 5.66184 8.2398 5.46044 8.38833 5.31192C8.53686 5.16339 8.73825 5.07987 8.9483 5.07969H22.1515C22.3616 5.07987 22.563 5.16339 22.7115 5.31192C22.86 5.46044 22.9435 5.66184 22.9437 5.87189V10.361Z" fill="#5B476B" stroke="#E3D5FD" stroke-width="0.2"/>
<path d="M12.907 9.8344H18.1883C18.3284 9.8344 18.4627 9.77876 18.5618 9.67972C18.6608 9.58067 18.7164 9.44634 18.7164 9.30627V6.1375C18.7164 5.99744 18.6608 5.8631 18.5618 5.76406C18.4627 5.66502 18.3284 5.60938 18.1883 5.60938H12.907C12.767 5.60938 12.6326 5.66502 12.5336 5.76406C12.4345 5.8631 12.3789 5.99744 12.3789 6.1375V9.30627C12.3789 9.44634 12.4345 9.58067 12.5336 9.67972C12.6326 9.77876 12.767 9.8344 12.907 9.8344ZM13.4352 6.66563H17.6602V8.77815H13.4352V6.66563Z" fill="#5B476B" stroke="#E3D5FD" stroke-width="0.2"/>
<path d="M17.6586 13.5312H16.6023C16.4623 13.5312 16.3279 13.5869 16.2289 13.6859C16.1299 13.785 16.0742 13.9193 16.0742 14.0594C16.0742 14.1994 16.1299 14.3338 16.2289 14.4328C16.3279 14.5319 16.4623 14.5875 16.6023 14.5875H17.6586C17.7987 14.5875 17.933 14.5319 18.032 14.4328C18.1311 14.3338 18.1867 14.1994 18.1867 14.0594C18.1867 13.9193 18.1311 13.785 18.032 13.6859C17.933 13.5869 17.7987 13.5312 17.6586 13.5312Z" fill="#5B476B" stroke="#E3D5FD" stroke-width="0.2"/>
<path d="M15.0219 13.5312H13.9656C13.8256 13.5312 13.6912 13.5869 13.5922 13.6859C13.4931 13.785 13.4375 13.9193 13.4375 14.0594C13.4375 14.1994 13.4931 14.3338 13.5922 14.4328C13.6912 14.5319 13.8256 14.5875 13.9656 14.5875H15.0219C15.162 14.5875 15.2963 14.5319 15.3953 14.4328C15.4944 14.3338 15.55 14.1994 15.55 14.0594C15.55 13.9193 15.4944 13.785 15.3953 13.6859C15.2963 13.5869 15.162 13.5312 15.0219 13.5312Z" fill="#5B476B" stroke="#E3D5FD" stroke-width="0.2"/>
<path d="M12.3774 13.5312H11.3211C11.181 13.5312 11.0467 13.5869 10.9477 13.6859C10.8486 13.785 10.793 13.9193 10.793 14.0594C10.793 14.1994 10.8486 14.3338 10.9477 14.4328C11.0467 14.5319 11.181 14.5875 11.3211 14.5875H12.3774C12.5174 14.5875 12.6518 14.5319 12.7508 14.4328C12.8498 14.3338 12.9055 14.1994 12.9055 14.0594C12.9055 13.9193 12.8498 13.785 12.7508 13.6859C12.6518 13.5869 12.5174 13.5312 12.3774 13.5312Z" fill="#5B476B" stroke="#E3D5FD" stroke-width="0.2"/>
<path d="M20.3031 14.5875C20.4432 14.5875 20.5775 14.5319 20.6766 14.4328C20.7756 14.3338 20.8313 14.1994 20.8313 14.0594C20.8313 13.9193 20.7756 13.785 20.6766 13.6859C20.5775 13.5869 20.4432 13.5312 20.3031 13.5312H19.2469C19.1068 13.5312 18.9725 13.5869 18.8734 13.6859C18.7744 13.785 18.7188 13.9193 18.7188 14.0594C18.7188 14.1994 18.7744 14.3338 18.8734 14.4328C18.9725 14.5319 19.1068 14.5875 19.2469 14.5875H20.3031Z" fill="#5B476B" stroke="#E3D5FD" stroke-width="0.2"/>
<path d="M17.6586 16.4352C17.7987 16.4352 17.933 16.3795 18.032 16.2805C18.1311 16.1814 18.1867 16.0471 18.1867 15.907C18.1867 15.767 18.1311 15.6326 18.032 15.5336C17.933 15.4345 17.7987 15.3789 17.6586 15.3789H16.6023C16.4623 15.3789 16.3279 15.4345 16.2289 15.5336C16.1299 15.6326 16.0742 15.767 16.0742 15.907C16.0742 16.0471 16.1299 16.1814 16.2289 16.2805C16.3279 16.3795 16.4623 16.4352 16.6023 16.4352H17.6586Z" fill="#5B476B" stroke="#E3D5FD" stroke-width="0.2"/>
<path d="M15.0219 16.4342C15.162 16.4342 15.2963 16.3785 15.3953 16.2795C15.4944 16.1805 15.55 16.0461 15.55 15.9061C15.55 15.766 15.4944 15.6317 15.3953 15.5326C15.2963 15.4336 15.162 15.3779 15.0219 15.3779H13.9656C13.8256 15.3779 13.6912 15.4336 13.5922 15.5326C13.4931 15.6317 13.4375 15.766 13.4375 15.9061C13.4375 16.0461 13.4931 16.1805 13.5922 16.2795C13.6912 16.3785 13.8256 16.4342 13.9656 16.4342H15.0219Z" fill="#5B476B" stroke="#E3D5FD" stroke-width="0.2"/>
<path d="M10.793 15.907C10.793 16.0471 10.8486 16.1814 10.9477 16.2805C11.0467 16.3795 11.181 16.4352 11.3211 16.4352H12.3774C12.5174 16.4352 12.6518 16.3795 12.7508 16.2805C12.8498 16.1814 12.9055 16.0471 12.9055 15.907C12.9055 15.767 12.8498 15.6326 12.7508 15.5336C12.6518 15.4345 12.5174 15.3789 12.3774 15.3789H11.3211C11.181 15.3789 11.0467 15.4345 10.9477 15.5336C10.8486 15.6326 10.793 15.767 10.793 15.907Z" fill="#5B476B" stroke="#E3D5FD" stroke-width="0.2"/>
<path d="M20.3036 16.4342C20.4437 16.4342 20.578 16.3785 20.6771 16.2795C20.7761 16.1805 20.8318 16.0461 20.8318 15.9061C20.8318 15.766 20.7761 15.6317 20.6771 15.5326C20.578 15.4336 20.4437 15.3779 20.3036 15.3779H19.2474C19.1073 15.3779 18.973 15.4336 18.8739 15.5326C18.7749 15.6317 18.7192 15.766 18.7192 15.9061C18.7192 16.0461 18.7749 16.1805 18.8739 16.2795C18.973 16.3785 19.1073 16.4342 19.2474 16.4342H20.3036Z" fill="#5B476B" stroke="#E3D5FD" stroke-width="0.2"/>
<path d="M14.4274 21.2539H11.2586C11.1185 21.2539 10.9842 21.3095 10.8852 21.4086C10.7861 21.5076 10.7305 21.642 10.7305 21.782V23.3664C10.7305 23.5065 10.7861 23.6408 10.8852 23.7399C10.9842 23.8389 11.1185 23.8945 11.2586 23.8945H14.4274C14.5674 23.8945 14.7018 23.8389 14.8008 23.7399C14.8999 23.6408 14.9555 23.5065 14.9555 23.3664V21.782C14.9555 21.642 14.8999 21.5076 14.8008 21.4086C14.7018 21.3095 14.5674 21.2539 14.4274 21.2539ZM13.8992 22.8383H11.7867V22.3102H13.8992V22.8383Z" fill="#5B476B" stroke="#E3D5FD" stroke-width="0.2"/>
<path d="M19.7086 21.2539H16.5398C16.3998 21.2539 16.2654 21.3095 16.1664 21.4086C16.0674 21.5076 16.0117 21.642 16.0117 21.782V23.3664C16.0117 23.5065 16.0674 23.6408 16.1664 23.7399C16.2654 23.8389 16.3998 23.8945 16.5398 23.8945H19.7086C19.8487 23.8945 19.983 23.8389 20.0821 23.7399C20.1811 23.6408 20.2367 23.5065 20.2367 23.3664V21.782C20.2367 21.642 20.1811 21.5076 20.0821 21.4086C19.983 21.3095 19.8487 21.2539 19.7086 21.2539ZM19.1805 22.8383H17.068V22.3102H19.1805V22.8383Z" fill="#5B476B" stroke="#E3D5FD" stroke-width="0.2"/>
</svg>
