<svg width="72" height="66" viewBox="0 0 72 66" fill="none" xmlns="http://www.w3.org/2000/svg">
    <path fill-rule="evenodd" clip-rule="evenodd" d="M33.0003 60.7198C48.3096 60.7198 60.7203 48.3091 60.7203 32.9998C60.7203 17.6905 48.3096 5.27979 33.0003 5.27979C17.6909 5.27979 5.28027 17.6905 5.28027 32.9998C5.28027 48.3091 17.6909 60.7198 33.0003 60.7198Z" fill="#F4E5FF"/>
    <path d="M56.01 43.9561H49.0771V40.751C49.786 40.0054 50.27 39.0998 50.479 38.1125C51.3652 38.6884 52.3998 38.9971 53.4813 38.9971C53.8126 38.9971 54.0814 38.7282 54.0814 38.3969C54.0814 37.3154 53.7704 36.2808 53.1961 35.4001C54.2291 35.1836 55.1786 34.6718 55.9444 33.9067C56.0569 33.7942 56.1202 33.6418 56.1202 33.4824C56.1202 33.323 56.0569 33.1706 55.9444 33.0581C55.1794 32.2931 54.2299 31.7804 53.1961 31.5616C53.7728 30.6755 54.0814 29.6416 54.0814 28.5601C54.0814 28.2288 53.8126 27.96 53.4813 27.96C52.3998 27.96 51.3652 28.2686 50.479 28.8446C50.2602 27.8107 49.7476 26.8613 48.9825 26.097C48.7575 25.872 48.3589 25.872 48.1339 26.097C47.3689 26.8613 46.8562 27.8107 46.6374 28.8446C45.7513 28.2686 44.7174 27.96 43.6359 27.96C43.3046 27.96 43.0358 28.2288 43.0358 28.5601C43.0358 29.6416 43.3444 30.6763 43.9204 31.5616C42.8912 31.7812 41.9449 32.2939 41.1806 33.0581C41.0681 33.1706 41.0048 33.323 41.0048 33.4824C41.0048 33.6418 41.0681 33.7942 41.1806 33.9067C41.9425 34.6687 42.8857 35.1789 43.9243 35.397C43.346 36.2831 43.0358 37.317 43.0358 38.3969C43.0358 38.7282 43.3046 38.9971 43.6359 38.9971C44.7174 38.9971 45.7513 38.6884 46.6374 38.1125C46.8295 39.0199 47.26 39.8543 47.8768 40.5636V43.9561H40.9438C40.761 43.9561 40.5875 44.0397 40.4742 44.1827C40.3601 44.3265 40.3179 44.5133 40.3593 44.6922L43.0076 56.1075C43.0709 56.3795 43.3132 56.5717 43.5921 56.5717H53.3617C53.6407 56.5717 53.883 56.3795 53.9463 56.1075L56.5946 44.6922C56.636 44.5133 56.5938 44.3265 56.4797 44.1827C56.3664 44.0397 56.1929 43.9561 56.01 43.9561ZM47.3462 36.4003C47.272 36.3699 47.1938 36.355 47.1165 36.355C46.9602 36.355 46.807 36.416 46.6921 36.5308C46.031 37.1919 45.1925 37.6131 44.2845 37.7491C44.4213 36.8442 44.8425 36.008 45.5098 35.3407C45.6817 35.1688 45.7177 34.9109 45.6247 34.6866C45.5317 34.4624 45.298 34.3162 45.055 34.3162C44.1329 34.3162 43.253 34.024 42.5216 33.4824C43.2593 32.9362 44.1462 32.6408 45.0777 32.6408C45.3207 32.6408 45.5395 32.4947 45.6325 32.2704C45.7247 32.0461 45.6739 31.7883 45.502 31.6163C44.8409 30.9545 44.4197 30.1168 44.2837 29.2079C45.1925 29.3439 46.0302 29.7651 46.6921 30.4262C46.8633 30.5981 47.1227 30.6489 47.3462 30.5567C47.5705 30.4637 47.7166 30.2449 47.7166 30.0019C47.7166 29.0665 48.012 28.1764 48.5582 27.438C49.1044 28.1764 49.3998 29.0665 49.3998 30.0019C49.3998 30.2449 49.546 30.4637 49.7702 30.5567C49.9945 30.6489 50.2524 30.5981 50.4243 30.4262C51.0862 29.7643 51.9247 29.3439 52.8335 29.2079C52.6975 30.116 52.2763 30.9545 51.6144 31.6163C51.4425 31.7883 51.3917 32.0461 51.4839 32.2704C51.5769 32.4947 51.7957 32.6408 52.0388 32.6408C52.9741 32.6408 53.8642 32.9362 54.6027 33.4824C53.8689 34.024 52.9827 34.3162 52.0356 34.3162C51.7567 34.3037 51.5754 34.4639 51.4816 34.689C51.3878 34.9132 51.4425 35.1766 51.6144 35.3485C52.2755 36.0096 52.6967 36.845 52.8327 37.7491C51.9239 37.6131 51.0862 37.1919 50.4243 36.5308C50.2524 36.3589 49.9945 36.3089 49.7702 36.4003C49.546 36.4933 49.3998 36.7121 49.3998 36.9552C49.3998 37.8905 49.1044 38.7806 48.5582 39.5191C48.012 38.7806 47.7166 37.8905 47.7166 36.9552C47.7166 36.7121 47.5705 36.4933 47.3462 36.4003ZM52.8851 55.3714H44.0688L42.6291 49.1644H46.2498V47.9641H42.3507L41.6995 45.1564H55.2544L52.8851 55.3714Z" fill="#5B476B" stroke="#5B476B" stroke-width="0.694515"/>
    <path d="M21.6567 9.42871C14.9144 9.42871 9.42871 14.9144 9.42871 21.6567C9.42871 39.063 9.42871 36.5775 9.42871 54.0397H33.8847C33.8847 36.5861 33.8847 39.0667 33.8847 21.6567C33.8847 14.9144 28.399 9.42871 21.6567 9.42871ZM32.6844 52.8394H10.629V48.4844H32.6844V52.8394ZM32.6844 47.2841H10.629V21.6567C10.629 15.5763 15.5763 10.629 21.6567 10.629C27.7371 10.629 32.6844 15.5763 32.6844 21.6567V47.2841Z" fill="#5B476B" stroke="#5B476B" stroke-width="0.694515"/>
    <path d="M21.6565 12.5293C16.6241 12.5293 12.5293 16.6241 12.5293 21.6565V22.2567H30.7838V21.6565C30.7838 16.6241 26.689 12.5293 21.6565 12.5293ZM13.7523 21.0564C14.0601 16.9648 17.4875 13.7296 21.6565 13.7296C25.8255 13.7296 29.2529 16.9648 29.5608 21.0564H13.7523Z" fill="#5B476B" stroke="#5B476B" stroke-width="0.694515"/>
    <path d="M28.0513 29.002C26.5446 29.002 25.3193 30.2273 25.3193 31.7339C25.3193 33.2405 26.5446 34.4658 28.0513 34.4658C29.5579 34.4658 30.7832 33.2405 30.7832 31.7339C30.7832 30.2273 29.5579 29.002 28.0513 29.002ZM28.0513 33.2655C27.2065 33.2655 26.5196 32.5786 26.5196 31.7339C26.5196 30.8891 27.2065 30.2022 28.0513 30.2022C28.896 30.2022 29.5829 30.8891 29.5829 31.7339C29.5829 32.5786 28.896 33.2655 28.0513 33.2655Z" fill="#5B476B" stroke="#5B476B" stroke-width="0.694515"/>
    <path fill-rule="evenodd" clip-rule="evenodd" d="M60.5 61.875C66.5751 61.875 71.5 56.9501 71.5 50.875C71.5 44.7999 66.5751 39.875 60.5 39.875C54.4249 39.875 49.5 44.7999 49.5 50.875C49.5 56.9501 54.4249 61.875 60.5 61.875Z" fill="#5B476B"/>
    <path fill-rule="evenodd" clip-rule="evenodd" d="M61.5313 49.8437V46.0318L61.5202 45.9084L61.5147 45.8779C61.4273 45.3964 61.007 45.0312 60.5 45.0312C59.9311 45.0312 59.4698 45.4919 59.4688 46.0605L59.4688 49.8437H55.6568L55.5334 49.8548L55.5029 49.8603C55.0214 49.9477 54.6562 50.368 54.6562 50.875C54.6562 51.4439 55.1169 51.9052 55.6855 51.9062L59.4688 51.9062V55.7182L59.4798 55.8416L59.4853 55.8721C59.5727 56.3536 59.993 56.7187 60.5 56.7187C61.0689 56.7187 61.5302 56.2581 61.5312 55.6895L61.5313 51.9062H65.3433L65.4666 51.8952L65.4971 51.8897C65.9786 51.8023 66.3438 51.382 66.3438 50.875C66.3438 50.3061 65.8831 49.8448 65.3145 49.8438L61.5313 49.8437ZM60.1563 55.6869C60.1563 55.6869 60.1563 55.6868 60.1563 55.6869ZM55.6881 50.5312C55.6881 50.5312 55.6882 50.5312 55.6881 50.5312Z" fill="white"/>
</svg>
