<svg width="80" height="80" viewBox="0 0 80 80" fill="none" xmlns="http://www.w3.org/2000/svg">
<path fill-rule="evenodd" clip-rule="evenodd" d="M40.0004 73.6009C58.5572 73.6009 73.6004 58.5577 73.6004 40.0009C73.6004 21.4441 58.5572 6.40088 40.0004 6.40088C21.4436 6.40088 6.40039 21.4441 6.40039 40.0009C6.40039 58.5577 21.4436 73.6009 40.0004 73.6009Z" fill="#F4E5FF"/>
<path d="M67.8918 53.2792H59.4882V49.3942C60.3475 48.4905 60.9342 47.3928 61.1875 46.196C62.2616 46.8941 63.5157 47.2683 64.8266 47.2683C65.2283 47.2683 65.5541 46.9424 65.5541 46.5408C65.5541 45.2299 65.1771 43.9758 64.4809 42.9083C65.7331 42.6459 66.884 42.0255 67.8122 41.0982C67.9486 40.9618 68.0254 40.7771 68.0254 40.5839C68.0254 40.3906 67.9486 40.2059 67.8122 40.0695C66.8849 39.1422 65.7341 38.5208 64.4809 38.2556C65.18 37.1815 65.5541 35.9284 65.5541 34.6174C65.5541 34.2158 65.2283 33.89 64.8266 33.89C63.5157 33.89 62.2616 34.2641 61.1875 34.9622C60.9223 33.7091 60.3009 32.5582 59.3736 31.6318C59.1008 31.359 58.6177 31.359 58.3449 31.6318C57.4176 32.5582 56.7963 33.7091 56.531 34.9622C55.4569 34.2641 54.2038 33.89 52.8928 33.89C52.4912 33.89 52.1654 34.2158 52.1654 34.6174C52.1654 35.9284 52.5395 37.1825 53.2376 38.2556C51.9902 38.5218 50.8431 39.1432 49.9167 40.0695C49.7803 40.2059 49.7036 40.3906 49.7036 40.5839C49.7036 40.7771 49.7803 40.9618 49.9167 41.0982C50.8402 42.0217 51.9835 42.6402 53.2424 42.9045C52.5414 43.9786 52.1654 45.2318 52.1654 46.5408C52.1654 46.9424 52.4912 47.2683 52.8928 47.2683C54.2038 47.2683 55.4569 46.8941 56.531 46.196C56.7638 47.296 57.2857 48.3074 58.0333 49.1671V53.2792H49.6297C49.4081 53.2792 49.1978 53.3806 49.0605 53.5539C48.9222 53.7282 48.871 53.9546 48.9212 54.1715L52.1313 68.0082C52.208 68.3379 52.5016 68.5709 52.8398 68.5709H64.6817C65.0199 68.5709 65.3135 68.3379 65.3902 68.0082L68.6003 54.1715C68.6505 53.9546 68.5994 53.7282 68.4611 53.5539C68.3237 53.3806 68.1134 53.2792 67.8918 53.2792ZM57.3902 44.1207C57.3002 44.0838 57.2055 44.0658 57.1117 44.0658C56.9222 44.0658 56.7366 44.1397 56.5973 44.2789C55.796 45.0802 54.7797 45.5908 53.679 45.7556C53.8448 44.6587 54.3553 43.6452 55.1642 42.8363C55.3726 42.6279 55.4162 42.3153 55.3035 42.0435C55.1908 41.7717 54.9075 41.5945 54.613 41.5945C53.4953 41.5945 52.4287 41.2403 51.5421 40.5839C52.4363 39.9218 53.5114 39.5637 54.6404 39.5637C54.935 39.5637 55.2002 39.3866 55.3129 39.1147C55.4247 38.8429 55.3631 38.5303 55.1548 38.3219C54.3534 37.5197 53.8429 36.5043 53.6781 35.4027C54.7797 35.5675 55.7951 36.078 56.5973 36.8793C56.8048 37.0877 57.1193 37.1493 57.3902 37.0375C57.662 36.9248 57.8391 36.6596 57.8391 36.365C57.8391 35.2312 58.1972 34.1523 58.8593 33.2572C59.5214 34.1523 59.8794 35.2312 59.8794 36.365C59.8794 36.6596 60.0565 36.9248 60.3284 37.0375C60.6002 37.1493 60.9128 37.0877 61.1212 36.8793C61.9235 36.0771 62.9398 35.5675 64.0414 35.4027C63.8766 36.5033 63.3661 37.5197 62.5638 38.3219C62.3554 38.5303 62.2938 38.8429 62.4056 39.1147C62.5183 39.3866 62.7835 39.5637 63.0781 39.5637C64.2119 39.5637 65.2908 39.9218 66.1859 40.5839C65.2965 41.2403 64.2223 41.5945 63.0743 41.5945C62.7362 41.5794 62.5164 41.7735 62.4028 42.0463C62.2891 42.3182 62.3554 42.6374 62.5638 42.8458C63.3651 43.6471 63.8757 44.6597 64.0405 45.7556C62.9389 45.5908 61.9235 45.0802 61.1212 44.2789C60.9128 44.0705 60.6002 44.0099 60.3284 44.1207C60.0565 44.2334 59.8794 44.4986 59.8794 44.7932C59.8794 45.927 59.5214 47.0059 58.8593 47.901C58.1972 47.0059 57.8391 45.927 57.8391 44.7932C57.8391 44.4986 57.662 44.2334 57.3902 44.1207ZM64.1039 67.116H53.4176L51.6725 59.5923H56.0612V58.1374H51.335L50.5457 54.7341H66.9759L64.1039 67.116Z" fill="#5B476B" stroke="#5B476B" stroke-width="0.714286"/>
<path d="M26.2505 11.4287C18.0781 11.4287 11.4287 18.0781 11.4287 26.2505C11.4287 47.3491 11.4287 44.3363 11.4287 65.5026H41.0724C41.0724 44.3468 41.0724 47.3536 41.0724 26.2505C41.0724 18.0781 34.423 11.4287 26.2505 11.4287ZM39.6175 64.0477H12.8836V58.769H39.6175V64.0477ZM39.6175 57.3141H12.8836V26.2505C12.8836 18.8804 18.8804 12.8836 26.2505 12.8836C33.6207 12.8836 39.6175 18.8804 39.6175 26.2505V57.3141Z" fill="#5B476B" stroke="#5B476B" stroke-width="0.714286"/>
<path d="M26.2499 15.187C20.1499 15.187 15.1865 20.1504 15.1865 26.2503V26.9778H37.3132V26.2503C37.3132 20.1504 32.3498 15.187 26.2499 15.187ZM16.6689 25.5229C17.0421 20.5633 21.1965 16.6419 26.2499 16.6419C31.3032 16.6419 35.4576 20.5633 35.8308 25.5229H16.6689Z" fill="#5B476B" stroke="#5B476B" stroke-width="0.714286"/>
<path d="M34.0019 35.1533C32.1756 35.1533 30.6904 36.6385 30.6904 38.4647C30.6904 40.2909 32.1756 41.7762 34.0019 41.7762C35.8281 41.7762 37.3133 40.2909 37.3133 38.4647C37.3133 36.6385 35.8281 35.1533 34.0019 35.1533ZM34.0019 40.3213C32.9779 40.3213 32.1453 39.4887 32.1453 38.4647C32.1453 37.4408 32.9779 36.6082 34.0019 36.6082C35.0258 36.6082 35.8584 37.4408 35.8584 38.4647C35.8584 39.4887 35.0258 40.3213 34.0019 40.3213Z" fill="#5B476B" stroke="#5B476B" stroke-width="0.714286"/>
</svg>
