<svg width="32" height="32" viewBox="0 0 32 32" fill="none" xmlns="http://www.w3.org/2000/svg">
    <path fill-rule="evenodd" clip-rule="evenodd" d="M16.0001 29.44C23.4228 29.44 29.4401 23.4227 29.4401 16C29.4401 8.57729 23.4228 2.56 16.0001 2.56C8.57735 2.56 2.56006 8.57729 2.56006 16C2.56006 23.4227 8.57735 29.44 16.0001 29.44Z" fill="#F4E5FF"/>
    <path d="M27.1566 21.3119H23.7951V19.7579C24.1389 19.3964 24.3735 18.9574 24.4749 18.4787C24.9045 18.7579 25.4061 18.9075 25.9305 18.9075C26.0912 18.9075 26.2215 18.7772 26.2215 18.6166C26.2215 18.0922 26.0707 17.5906 25.7922 17.1636C26.2931 17.0586 26.7534 16.8104 27.1247 16.4395C27.1793 16.385 27.21 16.3111 27.21 16.2338C27.21 16.1565 27.1793 16.0826 27.1247 16.028C26.7538 15.6571 26.2935 15.4086 25.7922 15.3025C26.0718 14.8728 26.2215 14.3716 26.2215 13.8472C26.2215 13.6866 26.0912 13.5562 25.9305 13.5562C25.4061 13.5562 24.9045 13.7059 24.4749 13.9851C24.3688 13.4839 24.1202 13.0235 23.7493 12.653C23.6402 12.5439 23.4469 12.5439 23.3378 12.653C22.9669 13.0235 22.7184 13.4839 22.6123 13.9851C22.1826 13.7059 21.6814 13.5562 21.157 13.5562C20.9963 13.5562 20.866 13.6866 20.866 13.8472C20.866 14.3716 21.0157 14.8732 21.2949 15.3025C20.7959 15.409 20.3371 15.6575 19.9665 16.028C19.912 16.0826 19.8813 16.1565 19.8813 16.2338C19.8813 16.3111 19.912 16.385 19.9665 16.4395C20.336 16.8089 20.7933 17.0563 21.2968 17.162C21.0164 17.5917 20.866 18.093 20.866 18.6166C20.866 18.7772 20.9963 18.9075 21.157 18.9075C21.6814 18.9075 22.1826 18.7579 22.6123 18.4787C22.7054 18.9186 22.9141 19.3232 23.2132 19.6671V21.3119H19.8517C19.7631 21.3119 19.679 21.3525 19.624 21.4218C19.5687 21.4915 19.5483 21.5821 19.5683 21.6688L20.8524 27.2035C20.8831 27.3354 21.0005 27.4286 21.1358 27.4286H25.8725C26.0078 27.4286 26.1253 27.3354 26.1559 27.2035L27.44 21.6688C27.4601 21.5821 27.4396 21.4915 27.3843 21.4218C27.3293 21.3525 27.2452 21.3119 27.1566 21.3119ZM22.9559 17.6485C22.9199 17.6337 22.882 17.6265 22.8445 17.6265C22.7687 17.6265 22.6945 17.6561 22.6388 17.7118C22.3183 18.0323 21.9117 18.2365 21.4715 18.3025C21.5378 17.8637 21.742 17.4583 22.0655 17.1348C22.1489 17.0514 22.1663 16.9264 22.1212 16.8176C22.0762 16.7089 21.9629 16.638 21.845 16.638C21.398 16.638 20.9713 16.4963 20.6167 16.2338C20.9744 15.9689 21.4044 15.8257 21.856 15.8257C21.9739 15.8257 22.0799 15.7549 22.125 15.6461C22.1697 15.5374 22.1451 15.4124 22.0618 15.329C21.7412 15.0081 21.537 14.6019 21.4711 14.1613C21.9117 14.2272 22.3179 14.4314 22.6388 14.752C22.7218 14.8353 22.8476 14.86 22.9559 14.8152C23.0647 14.7702 23.1355 14.6641 23.1355 14.5462C23.1355 14.0927 23.2787 13.6612 23.5436 13.3031C23.8084 13.6612 23.9516 14.0927 23.9516 14.5462C23.9516 14.6641 24.0225 14.7702 24.1312 14.8152C24.2399 14.86 24.365 14.8353 24.4483 14.752C24.7692 14.4311 25.1758 14.2272 25.6164 14.1613C25.5505 14.6016 25.3463 15.0081 25.0254 15.329C24.942 15.4124 24.9174 15.5374 24.9621 15.6461C25.0072 15.7549 25.1133 15.8257 25.2311 15.8257C25.6846 15.8257 26.1162 15.9689 26.4742 16.2338C26.1184 16.4963 25.6888 16.638 25.2296 16.638C25.0943 16.632 25.0064 16.7097 24.961 16.8188C24.9155 16.9275 24.942 17.0552 25.0254 17.1385C25.3459 17.4591 25.5501 17.8641 25.616 18.3025C25.1754 18.2365 24.7692 18.0323 24.4483 17.7118C24.365 17.6284 24.2399 17.6042 24.1312 17.6485C24.0225 17.6936 23.9516 17.7997 23.9516 17.9175C23.9516 18.371 23.8084 18.8026 23.5436 19.1606C23.2787 18.8026 23.1355 18.371 23.1355 17.9175C23.1355 17.7997 23.0647 17.6936 22.9559 17.6485ZM25.6414 26.8466H21.3669L20.6688 23.8372H22.4243V23.2552H20.5339L20.2181 21.8939H26.7902L25.6414 26.8466Z" fill="#5B476B" stroke="#5B476B" stroke-width="0.5"/>
    <path d="M10.5003 4.57144C7.23128 4.57144 4.57153 7.23119 4.57153 10.5002C4.57153 18.9396 4.57153 17.7345 4.57153 26.201H16.429C16.429 17.7387 16.429 18.9414 16.429 10.5002C16.429 7.23119 13.7693 4.57144 10.5003 4.57144ZM15.847 25.6191H5.15349V23.5075H15.847V25.6191ZM15.847 22.9256H5.15349V10.5002C5.15349 7.5521 7.55219 5.1534 10.5003 5.1534C13.4483 5.1534 15.847 7.5521 15.847 10.5002V22.9256Z" fill="#5B476B" stroke="#5B476B" stroke-width="0.5"/>
    <path d="M10.5003 6.07483C8.06029 6.07483 6.07495 8.06017 6.07495 10.5002V10.7911H14.9256V10.5002C14.9256 8.06017 12.9403 6.07483 10.5003 6.07483ZM6.6679 10.2092C6.81718 8.22536 8.47895 6.65679 10.5003 6.65679C12.5216 6.65679 14.1834 8.22536 14.3327 10.2092H6.6679Z" fill="#5B476B" stroke="#5B476B" stroke-width="0.5"/>
    <path d="M13.6009 14.0616C12.8705 14.0616 12.2764 14.6557 12.2764 15.3862C12.2764 16.1167 12.8705 16.7108 13.6009 16.7108C14.3314 16.7108 14.9255 16.1167 14.9255 15.3862C14.9255 14.6557 14.3314 14.0616 13.6009 14.0616ZM13.6009 16.1288C13.1914 16.1288 12.8583 15.7958 12.8583 15.3862C12.8583 14.9766 13.1914 14.6436 13.6009 14.6436C14.0105 14.6436 14.3435 14.9766 14.3435 15.3862C14.3435 15.7958 14.0105 16.1288 13.6009 16.1288Z" fill="#5B476B" stroke="#5B476B" stroke-width="0.5"/>
</svg>
