<svg width="24" height="24" viewBox="0 0 24 24" fill="none" xmlns="http://www.w3.org/2000/svg">
    <path fill-rule="evenodd" clip-rule="evenodd" d="M1.28431 0.588591C1.08944 0.453595 0.820013 0.47288 0.646447 0.646447C0.451185 0.841709 0.451185 1.15829 0.646447 1.35355L5.30845 6.01556C3.36188 7.59695 1.74705 9.55031 0.559422 11.7636C0.482605 11.9067 0.480131 12.0783 0.552786 12.2236L0.749759 12.5889C0.908419 12.8709 1.09675 13.1843 1.31436 13.5212C1.93517 14.4825 2.66791 15.4435 3.51023 16.3419C5.94003 18.9337 8.77885 20.5 12 20.5C14.1171 20.4654 16.165 19.8006 17.889 18.5961L22.6464 23.3536L22.7157 23.4114C22.9106 23.5464 23.18 23.5271 23.3536 23.3536C23.5488 23.1583 23.5488 22.8417 23.3536 22.6464L18.2993 17.5921C18.2952 17.588 18.2911 17.5839 18.2869 17.5798L14.4772 13.7701C14.4749 13.7678 14.4726 13.7655 14.4703 13.7632L10.2368 9.52966C10.2345 9.52733 10.2322 9.52503 10.2299 9.52276L6.41925 5.71215C6.41521 5.70796 6.4111 5.70386 6.40694 5.69984L1.35355 0.646447L1.28431 0.588591ZM6.01955 6.72666C4.26426 8.13592 2.78976 9.86276 1.67295 11.8169L1.568 12.004L1.62133 12.0986C1.77029 12.3634 1.94817 12.6594 2.15439 12.9787C2.74452 13.8924 3.44147 14.8065 4.23977 15.658C6.49747 18.0662 9.09615 19.5 11.9918 19.5C13.8423 19.4698 15.6399 18.9038 17.1697 17.8768L14.1056 14.8127C13.2563 15.4893 12.1301 15.7395 11.0591 15.466C9.81903 15.1493 8.8507 14.1809 8.53401 12.9409C8.26049 11.8698 8.51071 10.7436 9.18725 9.89436L6.01955 6.72666ZM9.90073 10.6078C9.46966 11.2026 9.3171 11.9659 9.50291 12.6934C9.72912 13.5792 10.4208 14.2709 11.3066 14.4971C12.0341 14.6829 12.7973 14.5303 13.3921 14.0992L9.90073 10.6078ZM20.4898 7.65799C18.06 5.0662 15.2212 3.49995 12 3.49995C11.2554 3.49823 10.5121 3.58319 9.78604 3.75313C9.51717 3.81607 9.35022 4.08506 9.41316 4.35393C9.4761 4.62281 9.74508 4.78975 10.014 4.72682C10.6645 4.57453 11.3306 4.4984 11.9988 4.49995C14.9038 4.49995 17.5025 5.93371 19.7602 8.34193C20.5585 9.19346 21.2555 10.1075 21.8456 11.0212C22.0518 11.3405 22.2297 11.6365 22.3787 11.9014L22.43 11.995L22.299 12.2338C21.7651 13.1647 21.1488 14.0464 20.4574 14.8681C20.2796 15.0793 20.3068 15.3948 20.5181 15.5726C20.7294 15.7503 21.0448 15.7232 21.2226 15.5119C22.074 14.5 22.8175 13.402 23.441 12.2357C23.5174 12.0927 23.5197 11.9214 23.4472 11.7764C23.4263 11.7346 23.3943 11.6732 23.3512 11.5937L23.1257 11.1938C22.9956 10.9709 22.8488 10.7314 22.6856 10.4787C22.0648 9.51744 21.3321 8.55647 20.4898 7.65799Z" fill="#5B476B"/>
</svg>
