<svg width="24" height="24" viewBox="0 0 24 24" fill="none" xmlns="http://www.w3.org/2000/svg">
    <path fill-rule="evenodd" clip-rule="evenodd" d="M12 4C8.77885 4 5.94003 5.56625 3.51023 8.15803C2.66791 9.05651 1.93517 10.0175 1.31436 10.9787C1.09675 11.3157 0.908419 11.6291 0.749759 11.9111L0.552786 12.2764C0.482405 12.4172 0.482405 12.5828 0.552786 12.7236L0.648808 12.9063C0.677547 12.9593 0.711207 13.0203 0.749759 13.0889L1.00995 13.5345C1.10407 13.6902 1.20555 13.8528 1.31436 14.0213C1.93517 14.9825 2.66791 15.9435 3.51023 16.842C5.94003 19.4338 8.77885 21 12 21C15.2212 21 18.06 19.4338 20.4898 16.842C21.3321 15.9435 22.0648 14.9825 22.6856 14.0213C22.8488 13.7686 22.9956 13.5291 23.1257 13.3062L23.3512 12.9063C23.3943 12.8268 23.4263 12.7654 23.4472 12.7236C23.5176 12.5828 23.5176 12.4172 23.4472 12.2764L23.3512 12.0937C23.3225 12.0407 23.2888 11.9797 23.2502 11.9111C23.0916 11.6291 22.9032 11.3157 22.6856 10.9787C22.0648 10.0175 21.3321 9.05651 20.4898 8.15803C18.06 5.56625 15.2212 4 12 4ZM12 5C14.9038 5 17.5025 6.43375 19.7602 8.84197C20.5585 9.69349 21.2555 10.6075 21.8456 11.5213C22.0003 11.7607 22.139 11.9871 22.2615 12.197L22.433 12.5L22.3787 12.5986C22.2297 12.8634 22.0518 13.1594 21.8456 13.4787C21.2555 14.3925 20.5585 15.3065 19.7602 16.158C17.5025 18.5662 14.9038 20 12 20C9.09615 20 6.49747 18.5662 4.23977 16.158C3.44147 15.3065 2.74452 14.3925 2.15439 13.4787C1.99973 13.2393 1.861 13.0129 1.73847 12.803L1.566 12.5L1.62133 12.4014C1.77029 12.1366 1.94817 11.8406 2.15439 11.5213C2.74452 10.6075 3.44147 9.69349 4.23977 8.84197C6.49747 6.43375 9.09615 5 12 5ZM12 9C10.067 9 8.5 10.567 8.5 12.5C8.5 14.433 10.067 16 12 16C13.933 16 15.5 14.433 15.5 12.5C15.5 10.567 13.933 9 12 9ZM12 10C13.3807 10 14.5 11.1193 14.5 12.5C14.5 13.8807 13.3807 15 12 15C10.6193 15 9.5 13.8807 9.5 12.5C9.5 11.1193 10.6193 10 12 10Z" fill="#5B476B"/>
</svg>
