<svg width="49" height="48" viewBox="0 0 49 48" fill="none" xmlns="http://www.w3.org/2000/svg">
<path fill-rule="evenodd" clip-rule="evenodd" d="M24.4998 44.1598C35.6339 44.1598 44.6598 35.1339 44.6598 23.9998C44.6598 12.8658 35.6339 3.83984 24.4998 3.83984C13.3658 3.83984 4.33984 12.8658 4.33984 23.9998C4.33984 35.1339 13.3658 44.1598 24.4998 44.1598Z" fill="#F4E5FF"/>
<g clip-path="url(#clip0_776_21540)">
<path fill-rule="evenodd" clip-rule="evenodd" d="M19.2093 36.7234C19.1055 36.7234 19.0017 36.7102 18.9014 36.6804C16.4346 36.0076 13.7256 34.8975 12.359 31.7692C10.0755 26.5399 13.435 21.0753 16.4 16.2537C18.026 13.6092 19.5587 11.1138 19.9497 9.00622C20.0327 8.54891 20.3545 8.18107 20.8077 8.01869C21.2644 7.853 21.766 7.92921 22.1501 8.22415C26.2395 11.3657 35.003 20.9063 34.4183 28.7768C34.1865 31.9084 32.5085 34.3805 29.4363 36.1203C28.9692 36.3854 28.3914 36.2993 28.0247 35.9115C27.6649 35.5304 27.6372 34.977 27.9555 34.5661C29.419 32.6772 29.8134 30.9209 29.3256 28.5117C28.6613 25.9865 27.2774 23.7032 24.9767 21.3305C25.0113 23.8756 24.603 25.9964 23.7831 27.6335C23.5097 28.1737 22.9423 28.5117 22.3196 28.4951C21.6795 28.4852 21.1225 28.1339 20.863 27.5772C20.6485 27.1165 20.3752 26.6924 20.05 26.3146C19.9808 26.235 19.8978 26.2317 19.8528 26.2384C19.8009 26.245 19.7282 26.2715 19.6902 26.3543C18.8944 28.0378 17.6904 30.5795 17.8358 31.6764C17.8323 31.7029 17.8358 31.7228 17.8358 31.7427C17.8807 32.9556 18.7457 33.8006 19.96 34.8577C20.3475 35.1957 20.4409 35.7359 20.1849 36.1733C19.9808 36.5213 19.6071 36.7234 19.2093 36.7234ZM21.3059 9.27779C20.8631 11.6108 19.275 14.1923 17.5936 16.9295C14.7912 21.4828 11.6186 26.6425 13.6357 31.2587C14.5871 33.4425 16.3204 34.4466 18.1887 35.0796C17.3203 34.2445 16.5176 33.2139 16.4554 31.8187C16.2927 30.4567 17.2511 28.2928 18.4239 25.814C18.6523 25.3302 19.1159 25.0021 19.6625 24.9292C20.2126 24.8596 20.7558 25.0618 21.1087 25.4694C21.517 25.9399 21.8595 26.4702 22.1259 27.0401C22.1778 27.1561 22.2919 27.1694 22.3369 27.1694C22.4096 27.1661 22.4857 27.1528 22.5341 27.0567C23.2641 25.6019 23.6274 23.6766 23.6136 21.337C23.6101 20.7869 23.9526 20.303 24.4854 20.1009C25.0148 19.9021 25.6064 20.028 25.9904 20.4257C28.4607 22.974 29.9484 25.4462 30.6714 28.2033C30.6749 28.2133 30.6784 28.2265 30.6784 28.2365C31.1593 30.5794 30.8963 32.455 29.7927 34.2975C31.7751 32.8593 32.8649 30.9737 33.0345 28.6805C33.5534 21.7512 25.6617 12.6381 21.3059 9.27779Z" fill="#5B476B"/>
</g>
<defs>
<clipPath id="clip0_776_21540">
<rect width="28.5575" height="28.5575" fill="white" transform="translate(8.43262 7.93262)"/>
</clipPath>
</defs>
</svg>
