<svg width="65" height="64" viewBox="0 0 65 64" fill="none" xmlns="http://www.w3.org/2000/svg">
<path fill-rule="evenodd" clip-rule="evenodd" d="M32.6661 58.8801C47.5116 58.8801 59.5461 46.8455 59.5461 32.0001C59.5461 17.1547 47.5116 5.12012 32.6661 5.12012C17.8207 5.12012 5.78613 17.1547 5.78613 32.0001C5.78613 46.8455 17.8207 58.8801 32.6661 58.8801Z" fill="#F4E5FF"/>
<path fill-rule="evenodd" clip-rule="evenodd" d="M50.2984 13.4399H15.0344C14.5222 13.4399 14.1064 13.8557 14.1064 14.3679V49.6319C14.1064 50.1442 14.5222 50.5599 15.0344 50.5599H50.2984C50.8107 50.5599 51.2264 50.1442 51.2264 49.6319V14.3679C51.2264 13.8557 50.8107 13.4399 50.2984 13.4399ZM49.3704 39.424H44.2664V15.296H49.3704V39.424ZM42.4104 22.72H37.3064V15.296H42.4104V22.72ZM35.4504 39.424H29.8824V15.296H35.4504V39.424ZM28.0264 22.72H22.9224V15.296H28.0264V22.72ZM22.9224 24.576H28.0264V48.704H22.9224V24.576ZM29.8824 41.2799H35.4504V48.7039H29.8824V41.2799ZM37.3064 24.576H42.4104V48.704H37.3064V24.576ZM21.0664 15.296V39.424H15.9624V15.296H21.0664ZM15.9624 41.2799H21.0664V48.7039H15.9624V41.2799ZM44.2664 48.7039V41.2799H49.3704V48.7039H44.2664Z" fill="#5B476B"/>
</svg>
