<svg width="72" height="66" viewBox="0 0 72 66" fill="none" xmlns="http://www.w3.org/2000/svg">
    <path fill-rule="evenodd" clip-rule="evenodd" d="M32.9993 60.7198C48.3086 60.7198 60.7193 48.3091 60.7193 32.9998C60.7193 17.6905 48.3086 5.27979 32.9993 5.27979C17.69 5.27979 5.2793 17.6905 5.2793 32.9998C5.2793 48.3091 17.69 60.7198 32.9993 60.7198Z" fill="#F4E5FF"/>
    <path fill-rule="evenodd" clip-rule="evenodd" d="M10.663 32.8603H11.8482C12.1755 32.8603 12.4408 33.1256 12.4408 33.4529C12.4408 33.7802 12.1755 34.0455 11.8482 34.0455H10.663V37.6011C10.663 37.9284 10.3977 38.1937 10.0704 38.1937H7.70002C7.37274 38.1937 7.10742 37.9284 7.10742 37.6011V31.6751C7.10742 31.3478 7.37274 31.0825 7.70002 31.0825H10.0704C10.3977 31.0825 10.663 31.3478 10.663 31.6751V32.8603ZM8.29258 37.0085H9.47779V34.0455C9.1505 34.0455 8.88519 33.7802 8.88519 33.4529C8.88519 33.1256 9.1505 32.8603 9.47779 32.8603V32.2677H8.29258V37.0085Z" fill="#5B476B"/>
    <path d="M13.6235 21.6006H12.4383C12.111 21.6006 11.8457 21.8659 11.8457 22.1932C11.8457 22.5205 12.111 22.7858 12.4383 22.7858H13.6235C13.9508 22.7858 14.2161 22.5205 14.2161 22.1932C14.2161 21.8659 13.9508 21.6006 13.6235 21.6006Z" fill="#5B476B"/>
    <path fill-rule="evenodd" clip-rule="evenodd" d="M1.77131 50.0456H24.2902C24.6175 50.0456 24.8828 49.7803 24.8828 49.453C24.8828 49.1257 24.6175 48.8604 24.2902 48.8604H23.6976V18.0451C23.6976 17.3905 23.167 16.8599 22.5124 16.8599H3.54912C2.89455 16.8599 2.36392 17.3905 2.36392 18.0451V48.8604H1.77131C1.44403 48.8604 1.17871 49.1257 1.17871 49.453C1.17871 49.7803 1.44403 50.0456 1.77131 50.0456ZM5.91818 48.8604V20.4155H20.1406V48.8604H5.91818ZM22.5116 18.0451H3.54837V48.8604H4.73358V20.4155C4.73358 19.7609 5.26421 19.2303 5.91878 19.2303H20.1412C20.7958 19.2303 21.3264 19.7609 21.3264 20.4155V48.8604H22.5116V18.0451Z" fill="#5B476B"/>
    <path d="M62.9247 28.3357H60.7731V19.4553L63.2453 18.2188C63.5996 18.0417 63.743 17.6107 63.5659 17.2564C63.388 16.9021 62.9577 16.7586 62.6034 16.9358L28.1778 34.1486C27.8235 34.3257 27.68 34.7568 27.8572 35.1111C27.9834 35.3628 28.2366 35.5077 28.4998 35.5077C28.6074 35.5077 28.7171 35.4833 28.8196 35.4324L30.6507 34.5165V42.6797H28.4991C28.1032 42.6797 27.7819 43.0003 27.7819 43.3969V49.1345C27.7819 49.5311 28.1032 49.8517 28.4991 49.8517H62.9247C63.3213 49.8517 63.6419 49.5311 63.6419 49.1345V29.0529C63.6419 28.657 63.3213 28.3357 62.9247 28.3357ZM59.3387 28.3357H57.1871C56.7905 28.3357 56.4699 28.657 56.4699 29.0529V31.2045H55.0355V22.3241L59.3387 20.1725V28.3357ZM51.4495 31.2045C51.0529 31.2045 50.7323 31.5258 50.7323 31.9217V34.0733H49.2979V25.1929L53.6011 23.0413V31.2045H51.4495ZM45.7119 34.0733C45.316 34.0733 44.9947 34.3939 44.9947 34.7905V36.9421H43.5603V28.0617L47.8635 25.9101V34.0733H45.7119ZM39.9743 36.9421C39.5784 36.9421 39.2571 37.2627 39.2571 37.6593V39.8109H37.8227V30.9305L42.1259 28.7789V36.9421H39.9743ZM32.0851 33.7993L36.3883 31.6477V39.8109H34.2367C33.8408 39.8109 33.5195 40.1315 33.5195 40.5281V42.6797H32.0851V33.7993ZM62.2075 48.4173H29.2163V44.1141H34.2367C34.6326 44.1141 34.9539 43.7935 34.9539 43.3969V41.2453H39.9743C40.3702 41.2453 40.6915 40.9247 40.6915 40.5281V38.3765H45.7119C46.1078 38.3765 46.4291 38.0559 46.4291 37.6593V35.5077H51.4495C51.8461 35.5077 52.1667 35.1871 52.1667 34.7905V32.6389H57.1871C57.5837 32.6389 57.9043 32.3176 57.9043 31.9217V29.7701H62.2075V48.4173Z" fill="#5B476B"/>
    <path fill-rule="evenodd" clip-rule="evenodd" d="M60.5 61.875C66.5751 61.875 71.5 56.9501 71.5 50.875C71.5 44.7999 66.5751 39.875 60.5 39.875C54.4249 39.875 49.5 44.7999 49.5 50.875C49.5 56.9501 54.4249 61.875 60.5 61.875Z" fill="#5B476B"/>
    <path fill-rule="evenodd" clip-rule="evenodd" d="M61.5313 49.8437V46.0318L61.5202 45.9084L61.5147 45.8779C61.4273 45.3964 61.007 45.0312 60.5 45.0312C59.9311 45.0312 59.4698 45.4919 59.4688 46.0605L59.4688 49.8437H55.6568L55.5334 49.8548L55.5029 49.8603C55.0214 49.9477 54.6562 50.368 54.6562 50.875C54.6562 51.4439 55.1169 51.9052 55.6855 51.9062L59.4688 51.9062V55.7182L59.4798 55.8416L59.4853 55.8721C59.5727 56.3536 59.993 56.7187 60.5 56.7187C61.0689 56.7187 61.5302 56.2581 61.5312 55.6895L61.5313 51.9062H65.3433L65.4666 51.8952L65.4971 51.8897C65.9786 51.8023 66.3438 51.382 66.3438 50.875C66.3438 50.3061 65.8831 49.8448 65.3145 49.8438L61.5313 49.8437ZM60.1563 55.6869C60.1563 55.6869 60.1563 55.6868 60.1563 55.6869V55.6869ZM55.6881 50.5312C55.6881 50.5312 55.6882 50.5312 55.6881 50.5312V50.5312Z" fill="white"/>
</svg>
