<svg width="32" height="32" viewBox="0 0 32 32" fill="none" xmlns="http://www.w3.org/2000/svg">
    <path fill-rule="evenodd" clip-rule="evenodd" d="M16.0001 29.44C23.4228 29.44 29.4401 23.4227 29.4401 16C29.4401 8.57729 23.4228 2.56 16.0001 2.56C8.57735 2.56 2.56006 8.57729 2.56006 16C2.56006 23.4227 8.57735 29.44 16.0001 29.44Z" fill="#F4E5FF"/>
    <path fill-rule="evenodd" clip-rule="evenodd" d="M24.816 6.72H7.18397C6.92784 6.72 6.71997 6.92787 6.71997 7.184V24.816C6.71997 25.0721 6.92784 25.28 7.18397 25.28H24.816C25.0721 25.28 25.28 25.0721 25.28 24.816V7.184C25.28 6.92787 25.0721 6.72 24.816 6.72ZM24.352 19.712H21.8V7.64802H24.352V19.712ZM20.872 11.36H18.32V7.64802H20.872V11.36ZM17.392 19.712H14.608V7.64802H17.392V19.712ZM13.68 11.36H11.128V7.64802H13.68V11.36ZM11.128 12.288H13.68V24.352H11.128V12.288ZM14.608 20.64H17.392V24.352H14.608V20.64ZM18.32 12.288H20.872V24.352H18.32V12.288ZM10.2 7.64802V19.712H7.64796V7.64802H10.2ZM7.64796 20.64H10.2V24.352H7.64796V20.64ZM21.8 24.352V20.64H24.352V24.352H21.8Z" fill="#5B476B"/>
</svg>
