<svg width="32" height="32" viewBox="0 0 32 32" fill="none" xmlns="http://www.w3.org/2000/svg">
<path fill-rule="evenodd" clip-rule="evenodd" d="M16.2743 29.9891C23.8485 29.9891 29.9886 23.849 29.9886 16.2748C29.9886 8.70064 23.8485 2.56055 16.2743 2.56055C8.70015 2.56055 2.56006 8.70064 2.56006 16.2748C2.56006 23.849 8.70015 29.9891 16.2743 29.9891Z" fill="#F4E5FF"/>
<path fill-rule="evenodd" clip-rule="evenodd" d="M5.03749 16.1142H5.66702C5.84086 16.1142 5.98178 16.2551 5.98178 16.429C5.98178 16.6028 5.84086 16.7437 5.66702 16.7437H5.03749V18.6323C5.03749 18.8061 4.89657 18.9471 4.72273 18.9471H3.46369C3.28985 18.9471 3.14893 18.8061 3.14893 18.6323V15.4847C3.14893 15.3108 3.28985 15.1699 3.46369 15.1699H4.72273C4.89657 15.1699 5.03749 15.3108 5.03749 15.4847V16.1142ZM3.77882 15.7995V18.3176H4.40835V16.7438C4.23451 16.7438 4.09358 16.6029 4.09358 16.429C4.09358 16.2552 4.23451 16.1143 4.40835 16.1143V15.7995H3.77882Z" fill="#5B476B"/>
<path d="M6.6103 10.1328H5.98078C5.80694 10.1328 5.66602 10.2737 5.66602 10.4476C5.66602 10.6214 5.80694 10.7623 5.98078 10.7623H6.6103C6.78414 10.7623 6.92506 10.6214 6.92506 10.4476C6.92506 10.2737 6.78414 10.1328 6.6103 10.1328Z" fill="#5B476B"/>
<path fill-rule="evenodd" clip-rule="evenodd" d="M0.314761 25.2419H12.2757C12.4495 25.2419 12.5905 25.101 12.5905 24.9271C12.5905 24.7533 12.4495 24.6124 12.2757 24.6124H11.9609V8.24476C11.9609 7.89708 11.6791 7.61523 11.3314 7.61523H1.25905C0.91137 7.61523 0.629523 7.89708 0.629523 8.24476V24.6124H0.314761C0.140923 24.6124 0 24.7533 0 24.9271C0 25.101 0.140923 25.2419 0.314761 25.2419ZM2.51773 24.6123V9.50374H10.072V24.6123H2.51773ZM11.3312 8.24481H1.25885V24.6124H1.88838V9.50386C1.88838 9.15618 2.17022 8.87434 2.5179 8.87434H10.0722C10.4198 8.87434 10.7017 9.15618 10.7017 9.50386V24.6124H11.3312V8.24481Z" fill="#5B476B"/>
<path d="M30.3116 14.8481H29.2796V10.5886L30.4654 9.99559C30.6353 9.91062 30.7041 9.70387 30.6191 9.53393C30.5338 9.36399 30.3274 9.29519 30.1575 9.38016L13.6453 17.6363C13.4753 17.7212 13.4065 17.928 13.4915 18.0979C13.552 18.2187 13.6735 18.2882 13.7997 18.2882C13.8513 18.2882 13.904 18.2765 13.9531 18.252L14.8314 17.8128V21.7282H13.7994C13.6095 21.7282 13.4554 21.882 13.4554 22.0722V24.8243C13.4554 25.0145 13.6095 25.1683 13.7994 25.1683H30.3116C30.5018 25.1683 30.6556 25.0145 30.6556 24.8243V15.1921C30.6556 15.0022 30.5018 14.8481 30.3116 14.8481ZM28.5916 14.8481H27.5596C27.3693 14.8481 27.2156 15.0022 27.2156 15.1921V16.2241H26.5276V11.9647L28.5916 10.9327V14.8481ZM24.8075 16.2241C24.6173 16.2241 24.4635 16.3783 24.4635 16.5681V17.6002H23.7755V13.3407L25.8395 12.3087V16.2241H24.8075ZM22.0555 17.6002C21.8656 17.6002 21.7115 17.7539 21.7115 17.9442V18.9762H21.0235V14.7167L23.0875 13.6847V17.6002H22.0555ZM19.3035 18.9762C19.1136 18.9762 18.9594 19.1299 18.9594 19.3202V20.3522H18.2714V16.0927L20.3355 15.0607V18.9762H19.3035ZM15.5194 17.4687L17.5834 16.4367V20.3522H16.5514C16.3615 20.3522 16.2074 20.506 16.2074 20.6962V21.7282H15.5194V17.4687ZM29.9676 24.4803H14.1434V22.4162H16.5514C16.7413 22.4162 16.8954 22.2625 16.8954 22.0722V21.0402H19.3035C19.4933 21.0402 19.6475 20.8864 19.6475 20.6962V19.6642H22.0555C22.2454 19.6642 22.3995 19.5104 22.3995 19.3202V18.2882H24.8075C24.9978 18.2882 25.1515 18.1344 25.1515 17.9442V16.9121H27.5596C27.7498 16.9121 27.9036 16.758 27.9036 16.5681V15.5361H29.9676V24.4803Z" fill="#5B476B"/>
</svg>
