<svg width="56" height="56" viewBox="0 0 56 56" fill="none" xmlns="http://www.w3.org/2000/svg">
<path fill-rule="evenodd" clip-rule="evenodd" d="M28 51.52C40.9897 51.52 51.52 40.9897 51.52 28C51.52 15.0103 40.9897 4.48001 28 4.48001C15.0103 4.48001 4.48 15.0103 4.48 28C4.48 40.9897 15.0103 51.52 28 51.52Z" fill="#F4E5FF"/>
<g transform="translate(-10,6.4) scale(0.75)">
  <path fill-rule="evenodd" clip-rule="evenodd" d="M25.0864 27.4965H26.5424C26.9445 27.4965 27.2704 27.8224 27.2704 28.2245C27.2704 28.6266 26.9445 28.9525 26.5424 28.9525H25.0864V33.3205C25.0864 33.7226 24.7605 34.0485 24.3584 34.0485H21.4464C21.0444 34.0485 20.7184 33.7226 20.7184 33.3205V26.0405C20.7184 25.6384 21.0444 25.3125 21.4464 25.3125H24.3584C24.7605 25.3125 25.0864 25.6384 25.0864 26.0405V27.4965ZM22.1753 26.7686V32.5926H23.6313V28.9526C23.2292 28.9526 22.9033 28.6266 22.9033 28.2246C22.9033 27.8225 23.2292 27.4966 23.6313 27.4966V26.7686H22.1753Z" fill="#5B476B"/>
  <path d="M28.7243 13.6642H27.2683C26.8662 13.6642 26.5403 13.9902 26.5403 14.3922C26.5403 14.7943 26.8662 15.1202 27.2683 15.1202H28.7243C29.1264 15.1202 29.4523 14.7943 29.4523 14.3922C29.4523 13.9902 29.1264 13.6642 28.7243 13.6642Z" fill="#5B476B"/>
  <path fill-rule="evenodd" clip-rule="evenodd" d="M14.1638 48.6085H41.8278C42.2298 48.6085 42.5558 48.2825 42.5558 47.8805C42.5558 47.4784 42.2298 47.1525 41.8278 47.1525H41.0998V9.29645C41.0998 8.49233 40.4479 7.84045 39.6438 7.84045H16.3478C15.5437 7.84045 14.8918 8.49233 14.8918 9.29645V47.1525H14.1638C13.7617 47.1525 13.4358 47.4784 13.4358 47.8805C13.4358 48.2825 13.7617 48.6085 14.1638 48.6085ZM19.2589 47.1523V12.2083H36.7309V47.1523H19.2589ZM39.6433 9.29651H16.3473V47.1525H17.8033V12.2085C17.8033 11.4044 18.4552 10.7525 19.2593 10.7525H36.7313C37.5355 10.7525 38.1873 11.4044 38.1873 12.2085V47.1525H39.6433V9.29651Z" fill="#5B476B"/>
</g>
<g  transform="translate(17,8) scale(0.75)">
  <path d="M46.9867 22.7305H44.5998V12.8789L47.3424 11.5073C47.7354 11.3107 47.8945 10.8326 47.698 10.4395C47.5007 10.0465 47.0233 9.88736 46.6303 10.0839L8.43974 29.1791C8.04669 29.3757 7.88757 29.8538 8.08409 30.2469C8.22412 30.5262 8.50498 30.6869 8.79698 30.6869C8.91632 30.6869 9.03806 30.6598 9.15183 30.6033L11.1831 29.5873V38.6432H8.79618C8.35699 38.6432 8.00055 38.9989 8.00055 39.4389V45.804C8.00055 46.244 8.35699 46.5996 8.79618 46.5996H46.9867C47.4267 46.5996 47.7824 46.244 47.7824 45.804V23.5262C47.7824 23.087 47.4267 22.7305 46.9867 22.7305ZM43.0085 22.7305H40.6216C40.1816 22.7305 39.826 23.087 39.826 23.5262V25.9131H38.2347V16.0615L43.0085 13.6746V22.7305ZM34.2565 25.9131C33.8166 25.9131 33.4609 26.2695 33.4609 26.7087V29.0956H31.8696V19.244L36.6434 16.8571V25.9131H34.2565ZM27.8915 29.0956C27.4523 29.0956 27.0958 29.4513 27.0958 29.8912V32.2782H25.5045V22.4266L30.2784 20.0397V29.0956H27.8915ZM21.5264 32.2782C21.0872 32.2782 20.7307 32.6338 20.7307 33.0738V35.4607H19.1395V25.6091L23.9133 23.2222V32.2782H21.5264ZM12.7744 28.7917L17.5482 26.4048V35.4607H15.1613C14.7221 35.4607 14.3656 35.8163 14.3656 36.2563V38.6432H12.7744V28.7917ZM46.1911 45.0083H9.59182V40.2345H15.1613C15.6005 40.2345 15.9569 39.8789 15.9569 39.4389V37.052H21.5264C21.9656 37.052 22.322 36.6963 22.322 36.2563V33.8694H27.8915C28.3306 33.8694 28.6871 33.5138 28.6871 33.0738V30.6869H34.2565C34.6965 30.6869 35.0522 30.3312 35.0522 29.8912V27.5043H40.6216C41.0616 27.5043 41.4173 27.1479 41.4173 26.7087V24.3218H46.1911V45.0083Z" fill="#5B476B"/>
</g>
</svg>