<svg width="121" height="120" viewBox="0 0 121 120" fill="none" xmlns="http://www.w3.org/2000/svg">
<circle cx="60.5" cy="60" r="60" fill="#F4E5FF"/>
<path fill-rule="evenodd" clip-rule="evenodd" d="M36.9211 28H84.0789C88.7298 28 92.5 31.7702 92.5 36.4211V70.0836C92.5002 70.0975 92.5002 70.1114 92.5 70.1253V83.5789C92.5 88.2298 88.7298 92 84.0789 92H36.9211C32.2702 92 28.5 88.2298 28.5 83.5789V36.4211C28.5 31.7702 32.2702 28 36.9211 28ZM89.1303 66.037V36.4224C89.1303 33.6319 86.8682 31.3698 84.0777 31.3698H36.9198C34.1293 31.3698 31.8672 33.6319 31.8672 36.4224V83.5803C31.8672 86.1484 33.7831 88.269 36.2636 88.5907L72.7829 52.0714C73.3675 51.4868 74.2751 51.4218 74.9315 51.8765L75.1647 52.0714L89.1303 66.037ZM40.985 88.6329L73.9738 55.6438L89.1303 70.8007V83.5803C89.1303 86.3708 86.8682 88.6329 84.0777 88.6329H40.985ZM41.974 48.2108C41.974 44.4901 44.9901 41.474 48.7108 41.474C52.4315 41.474 55.4476 44.4901 55.4476 48.2108C55.4476 51.9315 52.4315 54.9476 48.7108 54.9476C44.9901 54.9476 41.974 51.9315 41.974 48.2108ZM52.0773 48.2135C52.0773 46.3531 50.5692 44.8451 48.7089 44.8451C46.8486 44.8451 45.3405 46.3531 45.3405 48.2135C45.3405 50.0738 46.8486 51.5819 48.7089 51.5819C50.5692 51.5819 52.0773 50.0738 52.0773 48.2135Z" fill="#5B476B"/>
</svg>
