<svg width="32" height="32" viewBox="0 0 32 32" fill="none" xmlns="http://www.w3.org/2000/svg">
<path fill-rule="evenodd" clip-rule="evenodd" d="M15.7258 29.1656C23.1485 29.1656 29.1658 23.1484 29.1658 15.7256C29.1658 8.30294 23.1485 2.28564 15.7258 2.28564C8.30306 2.28564 2.28577 8.30294 2.28577 15.7256C2.28577 23.1484 8.30306 29.1656 15.7258 29.1656Z" fill="#F4E5FF"/>
<path d="M25.0286 26.2851H6.93364C6.66965 26.2851 6.45667 26.0721 6.45667 25.8081V12.9508C6.45667 12.6869 6.66965 12.4739 6.93364 12.4739C7.19762 12.4739 7.41061 12.6869 7.41061 12.9508V25.3311H24.5546V12.9508C24.5546 12.6869 24.7676 12.4739 25.0316 12.4739C25.2955 12.4739 25.5085 12.6869 25.5085 12.9508V25.8081C25.5025 26.0721 25.2895 26.2851 25.0286 26.2851Z" fill="#5B476B"/>
<path d="M5.04688 15.3123C4.92389 15.3123 4.8039 15.2643 4.7109 15.1713C4.52491 14.9853 4.52491 14.6853 4.7109 14.4993L15.6423 3.56796C15.8282 3.38197 16.1282 3.38197 16.3142 3.56796C16.5002 3.75395 16.5002 4.05393 16.3142 4.23992L5.38586 15.1743C5.29287 15.2673 5.16988 15.3123 5.04688 15.3123Z" fill="#5B476B"/>
<path d="M26.9336 15.315C26.8106 15.315 26.6906 15.267 26.5976 15.174L15.6633 4.23967C15.4773 4.05369 15.4773 3.7537 15.6633 3.56771C15.8493 3.38173 16.1493 3.38173 16.3353 3.56771L27.2696 14.5021C27.4556 14.6881 27.4556 14.988 27.2696 15.174C27.1766 15.267 27.0536 15.315 26.9336 15.315Z" fill="#5B476B"/>
<path d="M21.7048 26.2855C21.4408 26.2855 21.2278 26.0725 21.2278 25.8085V14.3792H10.7314V25.8085C10.7314 26.0725 10.5184 26.2855 10.2544 26.2855C9.99045 26.2855 9.77747 26.0725 9.77747 25.8085V13.9052C9.77747 13.6412 9.99045 13.4282 10.2544 13.4282H21.7018C21.9657 13.4282 22.1787 13.6412 22.1787 13.9052V25.8085C22.1817 26.0725 21.9687 26.2855 21.7048 26.2855Z" fill="#5B476B"/>
<path d="M21.7048 16.7613H10.2544C9.99045 16.7613 9.77747 16.5483 9.77747 16.2843C9.77747 16.0204 9.99045 15.8074 10.2544 15.8074H21.7018C21.9657 15.8074 22.1787 16.0204 22.1787 16.2843C22.1787 16.5483 21.9687 16.7613 21.7048 16.7613Z" fill="#5B476B"/>
<path d="M21.7048 19.1432H10.2544C9.99045 19.1432 9.77747 18.9302 9.77747 18.6662C9.77747 18.4022 9.99045 18.1892 10.2544 18.1892H21.7018C21.9657 18.1892 22.1787 18.4022 22.1787 18.6662C22.1787 18.9302 21.9687 19.1432 21.7048 19.1432Z" fill="#5B476B"/>
<path d="M21.7048 21.5213H10.2544C9.99045 21.5213 9.77747 21.3083 9.77747 21.0444C9.77747 20.7804 9.99045 20.5674 10.2544 20.5674H21.7018C21.9657 20.5674 22.1787 20.7804 22.1787 21.0444C22.1817 21.3083 21.9687 21.5213 21.7048 21.5213Z" fill="#5B476B"/>
<path d="M21.7048 23.9032H10.2544C9.99045 23.9032 9.77747 23.6902 9.77747 23.4262C9.77747 23.1622 9.99045 22.9492 10.2544 22.9492H21.7018C21.9657 22.9492 22.1787 23.1622 22.1787 23.4262C22.1787 23.6902 21.9687 23.9032 21.7048 23.9032Z" fill="#5B476B"/>
</svg>
