
<svg width="20" height="20" viewBox="0 0 20 20" fill="none" xmlns="http://www.w3.org/2000/svg">
    <mask id="mask0" mask-type="alpha" maskUnits="userSpaceOnUse" x="0" y="0" width="19" height="20">
        <path fill-rule="evenodd" clip-rule="evenodd" d="M18.3469 8.30311H9.81847V11.9092H14.7275C14.2699 14.2001 12.3562 15.5152 9.81847 15.5152C6.82312 15.5152 4.4102 13.0546 4.4102 10.0001C4.4102 6.94554 6.82312 4.48493 9.81847 4.48493C11.1081 4.48493 12.273 4.9516 13.1882 5.71523L15.8508 3.00008C14.2283 1.55766 12.1482 0.666748 9.81847 0.666748C4.74302 0.666748 0.666016 4.82432 0.666016 10.0001C0.666016 15.1758 4.74302 19.3334 9.81847 19.3334C14.3947 19.3334 18.5549 15.9395 18.5549 10.0001C18.5549 9.44857 18.4717 8.85463 18.3469 8.30311Z" fill="white"/>
    </mask>
    <g mask="url(#mask0)">
        <path d="M-0.166016 15.5152V4.48486L6.90634 10L-0.166016 15.5152Z" fill="#FBBC05"/>
    </g>
    <mask id="mask1" mask-type="alpha" maskUnits="userSpaceOnUse" x="0" y="0" width="19" height="20">
        <path fill-rule="evenodd" clip-rule="evenodd" d="M18.3469 8.30311H9.81847V11.9092H14.7275C14.2699 14.2001 12.3562 15.5152 9.81847 15.5152C6.82312 15.5152 4.4102 13.0546 4.4102 10.0001C4.4102 6.94554 6.82312 4.48493 9.81847 4.48493C11.1081 4.48493 12.273 4.9516 13.1882 5.71523L15.8508 3.00008C14.2283 1.55766 12.1482 0.666748 9.81847 0.666748C4.74302 0.666748 0.666016 4.82432 0.666016 10.0001C0.666016 15.1758 4.74302 19.3334 9.81847 19.3334C14.3947 19.3334 18.5549 15.9395 18.5549 10.0001C18.5549 9.44857 18.4717 8.85463 18.3469 8.30311Z" fill="white"/>
    </mask>
    <g mask="url(#mask1)">
        <path d="M-0.166016 4.48503L6.90634 10.0002L9.81848 7.4123L19.803 5.75775V-0.181641H-0.166016V4.48503Z" fill="#EA4335"/>
    </g>
    <mask id="mask2" mask-type="alpha" maskUnits="userSpaceOnUse" x="0" y="0" width="19" height="20">
        <path fill-rule="evenodd" clip-rule="evenodd" d="M18.3469 8.30311H9.81847V11.9092H14.7275C14.2699 14.2001 12.3562 15.5152 9.81847 15.5152C6.82312 15.5152 4.4102 13.0546 4.4102 10.0001C4.4102 6.94554 6.82312 4.48493 9.81847 4.48493C11.1081 4.48493 12.273 4.9516 13.1882 5.71523L15.8508 3.00008C14.2283 1.55766 12.1482 0.666748 9.81847 0.666748C4.74302 0.666748 0.666016 4.82432 0.666016 10.0001C0.666016 15.1758 4.74302 19.3334 9.81847 19.3334C14.3947 19.3334 18.5549 15.9395 18.5549 10.0001C18.5549 9.44857 18.4717 8.85463 18.3469 8.30311Z" fill="white"/>
    </mask>
    <g mask="url(#mask2)">
        <path d="M-0.166016 15.5153L12.3146 5.75775L15.6012 6.182L19.803 -0.181641V20.182H-0.166016V15.5153Z" fill="#34A853"/>
    </g>
    <mask id="mask3" mask-type="alpha" maskUnits="userSpaceOnUse" x="0" y="0" width="19" height="20">
        <path fill-rule="evenodd" clip-rule="evenodd" d="M18.6963 8.30311H9.99935V11.9092H15.0054C14.5387 14.2001 12.5872 15.5152 9.99935 15.5152C6.9448 15.5152 4.4842 13.0546 4.4842 10.0001C4.4842 6.94554 6.9448 4.48493 9.99935 4.48493C11.3145 4.48493 12.5024 4.9516 13.4357 5.71523L16.1509 3.00008C14.4963 1.55766 12.3751 0.666748 9.99935 0.666748C4.82359 0.666748 0.666016 4.82432 0.666016 10.0001C0.666016 15.1758 4.82359 19.3334 9.99935 19.3334C14.666 19.3334 18.9084 15.9395 18.9084 10.0001C18.9084 9.44857 18.8236 8.85463 18.6963 8.30311Z" fill="white"/>
    </mask>
    <g mask="url(#mask3)">
        <path d="M20.1805 20.1818L7.029 10L5.33203 8.72729L20.1805 4.48486V20.1818Z" fill="#4285F4"/>
    </g>
</svg>
