<svg width="32" height="32" viewBox="0 0 32 32" fill="none" xmlns="http://www.w3.org/2000/svg">
    <path fill-rule="evenodd" clip-rule="evenodd" d="M15.7261 29.1656C23.1488 29.1656 29.1661 23.1484 29.1661 15.7256C29.1661 8.30294 23.1488 2.28564 15.7261 2.28564C8.30343 2.28564 2.28613 8.30294 2.28613 15.7256C2.28613 23.1484 8.30343 29.1656 15.7261 29.1656Z" fill="#F4E5FF"/>
    <path d="M8.99511 18.7305V18.3213C8.99511 18.2128 8.952 18.1087 8.87526 18.032C8.79853 17.9552 8.69445 17.9121 8.58593 17.9121C8.47741 17.9121 8.37334 17.9552 8.2966 18.032C8.21987 18.1087 8.17676 18.2128 8.17676 18.3213V18.7305C8.17676 18.839 8.21987 18.9431 8.2966 19.0198C8.37334 19.0965 8.47741 19.1396 8.58593 19.1396C8.69445 19.1396 8.79853 19.0965 8.87526 19.0198C8.952 18.9431 8.99511 18.839 8.99511 18.7305Z" fill="#5B476B"/>
    <path d="M27.8171 9.31927H27.4079C27.4079 8.99371 27.2786 8.68149 27.0484 8.45128C26.8182 8.22108 26.5059 8.09175 26.1804 8.09175H25.7712C25.4457 8.09175 25.1334 8.22108 24.9032 8.45128C24.673 8.68149 24.5437 8.99371 24.5437 9.31927V10.5468H23.7253V4.81835C23.7253 4.60131 23.6391 4.39316 23.4857 4.23969C23.3322 4.08622 23.124 4 22.907 4H22.0886C21.8716 4 21.6635 4.08622 21.51 4.23969C21.3565 4.39316 21.2703 4.60131 21.2703 4.81835V10.5468H10.6317V4.81835C10.6317 4.60131 10.5455 4.39316 10.3921 4.23969C10.2386 4.08622 10.0304 4 9.81339 4H8.99504C8.77801 4 8.56985 4.08622 8.41638 4.23969C8.26291 4.39316 8.17669 4.60131 8.17669 4.81835V10.5468H7.35835V9.31927C7.35835 8.99371 7.22902 8.68149 6.99881 8.45128C6.76861 8.22108 6.45638 8.09175 6.13082 8.09175H5.72165C5.39609 8.09175 5.08386 8.22108 4.85365 8.45128C4.62345 8.68149 4.49412 8.99371 4.49412 9.31927H4.08495C3.75939 9.31927 3.44716 9.4486 3.21696 9.67881C2.98675 9.90901 2.85742 10.2212 2.85742 10.5468V13.0018C2.85742 13.3274 2.98675 13.6396 3.21696 13.8698C3.44716 14.1 3.75939 14.2294 4.08495 14.2294H4.49412C4.49412 14.5549 4.62345 14.8672 4.85365 15.0974C5.08386 15.3276 5.39609 15.4569 5.72165 15.4569H6.13082C6.45638 15.4569 6.76861 15.3276 6.99881 15.0974C7.22902 14.8672 7.35835 14.5549 7.35835 14.2294V13.0018H8.17669V16.6844C8.17669 16.7929 8.2198 16.897 8.29654 16.9738C8.37327 17.0505 8.47735 17.0936 8.58587 17.0936C8.69439 17.0936 8.79846 17.0505 8.8752 16.9738C8.95194 16.897 8.99504 16.7929 8.99504 16.6844V4.81835H9.81339V24.4587H8.99504V20.367C8.99504 20.2585 8.95194 20.1544 8.8752 20.0777C8.79846 20.0009 8.69439 19.9578 8.58587 19.9578C8.47735 19.9578 8.37327 20.0009 8.29654 20.0777C8.2198 20.1544 8.17669 20.2585 8.17669 20.367V24.602C7.69849 24.771 7.28439 25.0841 6.99131 25.498C6.69824 25.912 6.54058 26.4066 6.54 26.9138V27.323C6.54 27.4315 6.58311 27.5356 6.65984 27.6123C6.73658 27.689 6.84065 27.7321 6.94917 27.7321H11.8593C11.9678 27.7321 12.0719 27.689 12.1486 27.6123C12.2253 27.5356 12.2684 27.4315 12.2684 27.323V26.9138C12.2679 26.4066 12.1102 25.912 11.8171 25.498C11.524 25.0841 11.1099 24.771 10.6317 24.602V13.0018H21.2703V24.602C20.7921 24.771 20.378 25.0841 20.0849 25.498C19.7918 25.912 19.6342 26.4066 19.6336 26.9138V27.323C19.6336 27.4315 19.6767 27.5356 19.7534 27.6123C19.8302 27.689 19.9342 27.7321 20.0428 27.7321H24.9529C25.0614 27.7321 25.1655 27.689 25.2422 27.6123C25.3189 27.5356 25.362 27.4315 25.362 27.323V26.9138C25.3615 26.4066 25.2038 25.912 24.9107 25.498C24.6176 25.0841 24.2035 24.771 23.7253 24.602V13.0018H24.5437V14.2294C24.5437 14.5549 24.673 14.8672 24.9032 15.0974C25.1334 15.3276 25.4457 15.4569 25.7712 15.4569H26.1804C26.5059 15.4569 26.8182 15.3276 27.0484 15.0974C27.2786 14.8672 27.4079 14.5549 27.4079 14.2294H27.8171C28.1426 14.2294 28.4549 14.1 28.6851 13.8698C28.9153 13.6396 29.0446 13.3274 29.0446 13.0018V10.5468C29.0446 10.2212 28.9153 9.90901 28.6851 9.67881C28.4549 9.4486 28.1426 9.31927 27.8171 9.31927ZM4.49412 13.411H4.08495C3.97643 13.411 3.87235 13.3679 3.79562 13.2912C3.71888 13.2144 3.67577 13.1104 3.67577 13.0018V10.5468C3.67577 10.4383 3.71888 10.3342 3.79562 10.2575C3.87235 10.1807 3.97643 10.1376 4.08495 10.1376H4.49412V13.411ZM6.54 14.2294C6.54 14.3379 6.49689 14.442 6.42015 14.5187C6.34342 14.5954 6.23934 14.6385 6.13082 14.6385H5.72165C5.61313 14.6385 5.50905 14.5954 5.43232 14.5187C5.35558 14.442 5.31247 14.3379 5.31247 14.2294V9.31927C5.31247 9.21075 5.35558 9.10668 5.43232 9.02994C5.50905 8.95321 5.61313 8.9101 5.72165 8.9101H6.13082C6.23934 8.9101 6.34342 8.95321 6.42015 9.02994C6.49689 9.10668 6.54 9.21075 6.54 9.31927V14.2294ZM8.17669 12.1835H7.35835V11.3651H8.17669V12.1835ZM11.4501 26.9138H7.35835C7.35835 26.4797 7.53078 26.0634 7.83772 25.7565C8.14466 25.4495 8.56097 25.2771 8.99504 25.2771H9.81339C10.2475 25.2771 10.6638 25.4495 10.9707 25.7565C11.2777 26.0634 11.4501 26.4797 11.4501 26.9138ZM22.0886 4.81835H22.907V24.4587H22.0886V4.81835ZM10.6317 12.1835V11.3651H21.2703V12.1835H10.6317ZM24.5437 26.9138H20.4519C20.4519 26.4797 20.6244 26.0634 20.9313 25.7565C21.2383 25.4495 21.6546 25.2771 22.0886 25.2771H22.907C23.3411 25.2771 23.7574 25.4495 24.0643 25.7565C24.3713 26.0634 24.5437 26.4797 24.5437 26.9138ZM24.5437 12.1835H23.7253V11.3651H24.5437V12.1835ZM26.5896 14.2294C26.5896 14.3379 26.5465 14.442 26.4697 14.5187C26.393 14.5954 26.2889 14.6385 26.1804 14.6385H25.7712C25.6627 14.6385 25.5586 14.5954 25.4819 14.5187C25.4051 14.442 25.362 14.3379 25.362 14.2294V9.31927C25.362 9.21075 25.4051 9.10668 25.4819 9.02994C25.5586 8.95321 25.6627 8.9101 25.7712 8.9101H26.1804C26.2889 8.9101 26.393 8.95321 26.4697 9.02994C26.5465 9.10668 26.5896 9.21075 26.5896 9.31927V14.2294ZM28.2263 13.0018C28.2263 13.1104 28.1832 13.2144 28.1064 13.2912C28.0297 13.3679 27.9256 13.411 27.8171 13.411H27.4079V10.1376H27.8171C27.9256 10.1376 28.0297 10.1807 28.1064 10.2575C28.1832 10.3342 28.2263 10.4383 28.2263 10.5468V13.0018Z" fill="#5B476B"/>
</svg>
