<svg width="32" height="32" viewBox="0 0 32 32" fill="none" xmlns="http://www.w3.org/2000/svg">
    <path fill-rule="evenodd" clip-rule="evenodd" d="M15.7261 29.1656C23.1488 29.1656 29.1661 23.1484 29.1661 15.7256C29.1661 8.30294 23.1488 2.28564 15.7261 2.28564C8.30343 2.28564 2.28613 8.30294 2.28613 15.7256C2.28613 23.1484 8.30343 29.1656 15.7261 29.1656Z" fill="#F4E5FF"/>
    <path d="M24.2397 15.1091C24.2397 14.9816 24.1723 14.8636 24.0622 14.7963C23.9521 14.7291 23.8139 14.7236 23.6977 14.7802L21.4506 15.8827C21.3236 15.9451 21.2435 16.0723 21.2435 16.2116V21.4426L20.1199 20.7811V14.1201L25.6726 6.12853L25.0539 5.71436L19.5472 13.6391H12.4604L7.32745 5.72428L6.69524 6.11897L11.8802 14.1135V20.7811L10.7566 21.4426V16.2116C10.7566 16.0646 10.6675 15.9315 10.5297 15.8738L7.90797 14.7714C7.79224 14.7228 7.65928 14.7342 7.55441 14.8022C7.44917 14.8702 7.38588 14.9856 7.38588 15.1091V23.427L4.57129 25.0841L4.95668 25.7144L12.3585 21.3566H19.6416L27.043 25.714L27.4284 25.0837L24.2397 23.2065V15.1091ZM21.9925 21.8835V19.8866H22.367V19.1516H21.9925V16.4387L23.4906 15.7037V22.7655L22.2064 22.0096L21.9925 21.8835ZM8.13493 15.6666L10.0076 16.4541V18.7841H9.63305V19.5191H10.0076V21.8835L9.25852 22.3245L8.13493 22.986V15.6666ZM14.1274 16.5791V20.6216H12.6293V14.3741H19.3708V20.6216H17.8727V16.5791C17.8727 16.3762 17.7049 16.2116 17.4982 16.2116H14.5019C14.2952 16.2116 14.1274 16.3762 14.1274 16.5791ZM14.8765 20.6216V16.9466H17.1236V18.4166H16.3746V19.1516H17.1236V20.6216H14.8765Z" fill="#5B476B" stroke="#5B476B" stroke-width="0.285714"/>
</svg>
