<svg width="40" height="40" viewBox="0 0 40 40" fill="none" xmlns="http://www.w3.org/2000/svg">
    <path fill-rule="evenodd" clip-rule="evenodd" d="M20 40C31.0457 40 40 31.0457 40 20C40 8.95431 31.0457 0 20 0C8.95431 0 0 8.95431 0 20C0 31.0457 8.95431 40 20 40Z" fill="#F4E5FF"/>
    <path d="M23.2613 9.94116C23.2613 9.83827 23.2204 9.73959 23.1477 9.66684C23.0749 9.59409 22.9762 9.55321 22.8733 9.55321H21.3215C21.2187 9.55321 21.12 9.59409 21.0472 9.66684C20.9745 9.73959 20.9336 9.83827 20.9336 9.94116V12.2689C20.9336 12.3717 20.9745 12.4704 21.0472 12.5432C21.12 12.6159 21.2187 12.6568 21.3215 12.6568H22.8733C22.9762 12.6568 23.0749 12.6159 23.1477 12.5432C23.2204 12.4704 23.2613 12.3717 23.2613 12.2689V9.94116ZM22.4854 11.8809H21.7095V10.3291H22.4854V11.8809Z" fill="#5B476B"/>
    <path d="M26.3619 9.94116C26.3619 9.83827 26.321 9.73959 26.2482 9.66684C26.1755 9.59409 26.0768 9.55321 25.9739 9.55321H24.4221C24.3192 9.55321 24.2206 9.59409 24.1478 9.66684C24.0751 9.73959 24.0342 9.83827 24.0342 9.94116V12.2689C24.0342 12.3717 24.0751 12.4704 24.1478 12.5432C24.2206 12.6159 24.3192 12.6568 24.4221 12.6568H25.9739C26.0768 12.6568 26.1755 12.6159 26.2482 12.5432C26.321 12.4704 26.3619 12.3717 26.3619 12.2689V9.94116ZM25.586 11.8809H24.8101V10.3291H25.586V11.8809Z" fill="#5B476B"/>
    <path d="M23.2613 13.8184C23.2613 13.7156 23.2204 13.6169 23.1477 13.5441C23.0749 13.4714 22.9762 13.4305 22.8733 13.4305H21.3215C21.2187 13.4305 21.12 13.4714 21.0472 13.5441C20.9745 13.6169 20.9336 13.7156 20.9336 13.8184V16.1461C20.9336 16.249 20.9745 16.3477 21.0472 16.4205C21.12 16.4932 21.2187 16.5341 21.3215 16.5341H22.8733C22.9762 16.5341 23.0749 16.4932 23.1477 16.4205C23.2204 16.3477 23.2613 16.249 23.2613 16.1461V13.8184ZM22.4854 15.7582H21.7095V14.2064H22.4854V15.7582Z" fill="#5B476B"/>
    <path d="M26.3619 13.8184C26.3619 13.7156 26.321 13.6169 26.2482 13.5441C26.1755 13.4714 26.0768 13.4305 25.9739 13.4305H24.4221C24.3192 13.4305 24.2206 13.4714 24.1478 13.5441C24.0751 13.6169 24.0342 13.7156 24.0342 13.8184V16.1461C24.0342 16.249 24.0751 16.3477 24.1478 16.4205C24.2206 16.4932 24.3192 16.5341 24.4221 16.5341H25.9739C26.0768 16.5341 26.1755 16.4932 26.2482 16.4205C26.321 16.3477 26.3619 16.249 26.3619 16.1461V13.8184ZM25.586 15.7582H24.8101V14.2064H25.586V15.7582Z" fill="#5B476B"/>
    <path d="M20.1548 9.94116C20.1548 9.83827 20.114 9.73959 20.0412 9.66684C19.9685 9.59409 19.8698 9.55321 19.7669 9.55321H18.2151C18.1122 9.55321 18.0135 9.59409 17.9408 9.66684C17.868 9.73959 17.8272 9.83827 17.8271 9.94116V12.2689C17.8272 12.3717 17.868 12.4704 17.9408 12.5432C18.0135 12.6159 18.1122 12.6568 18.2151 12.6568H19.7669C19.8698 12.6568 19.9685 12.6159 20.0412 12.5432C20.114 12.4704 20.1548 12.3717 20.1548 12.2689V9.94116ZM19.3789 11.8809H18.603V10.3291H19.3789V11.8809Z" fill="#5B476B"/>
    <path d="M20.1548 13.8184C20.1548 13.7156 20.114 13.6169 20.0412 13.5441C19.9685 13.4714 19.8698 13.4305 19.7669 13.4305H18.2151C18.1122 13.4305 18.0135 13.4714 17.9408 13.5441C17.868 13.6169 17.8272 13.7156 17.8271 13.8184V16.1461C17.8272 16.249 17.868 16.3477 17.9408 16.4205C18.0135 16.4932 18.1122 16.5341 18.2151 16.5341H19.7669C19.8698 16.5341 19.9685 16.4932 20.0412 16.4205C20.114 16.3477 20.1548 16.249 20.1548 16.1461V13.8184ZM19.3789 15.7582H18.603V14.2064H19.3789V15.7582Z" fill="#5B476B"/>
    <path d="M17.0484 9.94116C17.0484 9.83827 17.0075 9.73959 16.9348 9.66684C16.862 9.59409 16.7633 9.55321 16.6605 9.55321H15.1087C15.0058 9.55321 14.9071 9.59409 14.8343 9.66684C14.7616 9.73959 14.7207 9.83827 14.7207 9.94116V12.2689C14.7207 12.3717 14.7616 12.4704 14.8343 12.5432C14.9071 12.6159 15.0058 12.6568 15.1087 12.6568H16.6605C16.7633 12.6568 16.862 12.6159 16.9348 12.5432C17.0075 12.4704 17.0484 12.3717 17.0484 12.2689V9.94116ZM16.2725 11.8809H15.4966V10.3291H16.2725V11.8809Z" fill="#5B476B"/>
    <path d="M17.0484 13.8184C17.0484 13.7156 17.0075 13.6169 16.9348 13.5441C16.862 13.4714 16.7633 13.4305 16.6605 13.4305H15.1087C15.0058 13.4305 14.9071 13.4714 14.8343 13.5441C14.7616 13.6169 14.7207 13.7156 14.7207 13.8184V16.1461C14.7207 16.249 14.7616 16.3477 14.8343 16.4205C14.9071 16.4932 15.0058 16.5341 15.1087 16.5341H16.6605C16.7633 16.5341 16.862 16.4932 16.9348 16.4205C17.0075 16.3477 17.0484 16.249 17.0484 16.1461V13.8184ZM16.2725 15.7582H15.4966V14.2064H16.2725V15.7582Z" fill="#5B476B"/>
    <path d="M22.8733 17.3078H21.3215C21.2187 17.3078 21.12 17.3487 21.0472 17.4214C20.9745 17.4942 20.9336 17.5928 20.9336 17.6957V20.0234C20.9336 20.1263 20.9745 20.225 21.0472 20.2978C21.12 20.3705 21.2187 20.4114 21.3215 20.4114H22.8733C22.9762 20.4114 23.0749 20.3705 23.1477 20.2978C23.2204 20.225 23.2613 20.1263 23.2613 20.0234V17.6957C23.2613 17.5928 23.2204 17.4942 23.1477 17.4214C23.0749 17.3487 22.9762 17.3078 22.8733 17.3078ZM22.4854 19.6355H21.7095V18.0837H22.4854V19.6355Z" fill="#5B476B"/>
    <path d="M25.9739 17.3078H24.4221C24.3192 17.3078 24.2206 17.3487 24.1478 17.4214C24.0751 17.4942 24.0342 17.5928 24.0342 17.6957V20.0234C24.0342 20.1263 24.0751 20.225 24.1478 20.2978C24.2206 20.3705 24.3192 20.4114 24.4221 20.4114H25.9739C26.0768 20.4114 26.1755 20.3705 26.2482 20.2978C26.321 20.225 26.3619 20.1263 26.3619 20.0234V17.6957C26.3619 17.5928 26.321 17.4942 26.2482 17.4214C26.1755 17.3487 26.0768 17.3078 25.9739 17.3078ZM25.586 19.6355H24.8101V18.0837H25.586V19.6355Z" fill="#5B476B"/>
    <path d="M19.7669 17.3078H18.2151C18.1122 17.3078 18.0135 17.3487 17.9408 17.4214C17.868 17.4942 17.8272 17.5928 17.8271 17.6957V20.0234C17.8272 20.1263 17.868 20.225 17.9408 20.2978C18.0135 20.3705 18.1122 20.4114 18.2151 20.4114H19.7669C19.8698 20.4114 19.9685 20.3705 20.0412 20.2978C20.114 20.225 20.1548 20.1263 20.1548 20.0234V17.6957C20.1548 17.5928 20.114 17.4942 20.0412 17.4214C19.9685 17.3487 19.8698 17.3078 19.7669 17.3078ZM19.3789 19.6355H18.603V18.0837H19.3789V19.6355Z" fill="#5B476B"/>
    <path d="M16.6605 17.3078H15.1087C15.0058 17.3078 14.9071 17.3487 14.8343 17.4214C14.7616 17.4942 14.7207 17.5928 14.7207 17.6957V20.0234C14.7207 20.1263 14.7616 20.225 14.8343 20.2978C14.9071 20.3705 15.0058 20.4114 15.1087 20.4114H16.6605C16.7633 20.4114 16.862 20.3705 16.9348 20.2978C17.0075 20.225 17.0484 20.1263 17.0484 20.0234V17.6957C17.0484 17.5928 17.0075 17.4942 16.9348 17.4214C16.862 17.3487 16.7633 17.3078 16.6605 17.3078ZM16.2725 19.6355H15.4966V18.0837H16.2725V19.6355Z" fill="#5B476B"/>
    <path d="M27.9096 21.0933V9.16385C27.9092 8.85529 27.7865 8.55946 27.5683 8.34127C27.3501 8.12308 27.0543 8.00035 26.7457 8H14.3313C14.0228 8.00035 13.7269 8.12308 13.5088 8.34127C13.2906 8.55946 13.1678 8.85529 13.1675 9.16385V21.2873H13.9434V9.16385C13.9434 9.06096 13.9843 8.96228 14.057 8.88953C14.1298 8.81677 14.2284 8.7759 14.3313 8.7759H26.7457C26.8486 8.7759 26.9473 8.81677 27.0201 8.88953C27.0928 8.96228 27.1337 9.06096 27.1337 9.16385V21.0933H27.9096Z" fill="#5B476B"/>
    <path d="M31.4045 21.8696H25.9732C25.7675 21.8698 25.5702 21.9516 25.4248 22.0971C25.2793 22.2426 25.1975 22.4398 25.1973 22.6455V23.4214H17.2443V22.8395C17.2441 22.6338 17.1623 22.4366 17.0168 22.2911C16.8713 22.1456 16.6741 22.0638 16.4684 22.0636H8.12746C7.92174 22.0638 7.72451 22.1456 7.57905 22.2911C7.43358 22.4366 7.35177 22.6338 7.35156 22.8395V32.1503C7.35177 32.356 7.43358 32.5533 7.57905 32.6987C7.72451 32.8442 7.92174 32.926 8.12746 32.9262H31.4045C31.6102 32.926 31.8074 32.8442 31.9529 32.6987C32.0984 32.5533 32.1802 32.356 32.1804 32.1503V22.6455C32.1802 22.4398 32.0984 22.2426 31.9529 22.0971C31.8074 21.9516 31.6102 21.8698 31.4045 21.8696ZM25.9732 22.6455H31.4045V30.4045H25.9732V22.6455ZM17.2443 24.1973H25.1973V24.9732H17.2443V24.1973ZM17.2443 25.7491H25.1973V30.4045H23.0635V28.4648C23.0631 28.0534 22.8994 27.6589 22.6085 27.368C22.3176 27.0771 21.9232 26.9135 21.5117 26.913H20.7358C20.3244 26.9135 19.93 27.0771 19.6391 27.368C19.3482 27.6589 19.1845 28.0534 19.184 28.4648V30.4045H17.2443V25.7491ZM22.2876 28.4648V30.4045H19.9599V28.4648C19.9602 28.2591 20.042 28.0618 20.1874 27.9164C20.3329 27.7709 20.5301 27.6891 20.7358 27.6889H21.5117C21.7175 27.6891 21.9147 27.7709 22.0602 27.9164C22.2056 28.0618 22.2874 28.2591 22.2876 28.4648ZM8.12746 22.8395H16.4684V30.4045H8.12746V22.8395ZM8.12746 32.1503V31.1804H31.4047L31.4051 32.1503H8.12746Z" fill="#5B476B"/>
    <path d="M9.58279 24.0039H9.19483C9.09194 24.0039 8.99327 24.0447 8.92051 24.1175C8.84776 24.1902 8.80688 24.2889 8.80688 24.3918C8.80688 24.4947 8.84776 24.5934 8.92051 24.6661C8.99327 24.7389 9.09194 24.7798 9.19483 24.7798H9.58279C9.68568 24.7798 9.78435 24.7389 9.85711 24.6661C9.92986 24.5934 9.97074 24.4947 9.97074 24.3918C9.97074 24.2889 9.92986 24.1902 9.85711 24.1175C9.78435 24.0447 9.68568 24.0039 9.58279 24.0039Z" fill="#5B476B"/>
    <path d="M9.58279 25.5513H9.19483C9.09194 25.5513 8.99327 25.5922 8.92051 25.6649C8.84776 25.7377 8.80688 25.8364 8.80688 25.9393C8.80688 26.0422 8.84776 26.1408 8.92051 26.2136C8.99327 26.2863 9.09194 26.3272 9.19483 26.3272H9.58279C9.68568 26.3272 9.78435 26.2863 9.85711 26.2136C9.92986 26.1408 9.97074 26.0422 9.97074 25.9393C9.97074 25.8364 9.92986 25.7377 9.85711 25.6649C9.78435 25.5922 9.68568 25.5513 9.58279 25.5513Z" fill="#5B476B"/>
    <path d="M9.58279 27.1045H9.19483C9.09194 27.1045 8.99327 27.1454 8.92051 27.2182C8.84776 27.2909 8.80688 27.3896 8.80688 27.4925C8.80688 27.5954 8.84776 27.6941 8.92051 27.7668C8.99327 27.8396 9.09194 27.8804 9.19483 27.8804H9.58279C9.68568 27.8804 9.78435 27.8396 9.85711 27.7668C9.92986 27.6941 9.97074 27.5954 9.97074 27.4925C9.97074 27.3896 9.92986 27.2909 9.85711 27.2182C9.78435 27.1454 9.68568 27.1045 9.58279 27.1045Z" fill="#5B476B"/>
    <path d="M9.58279 28.6577H9.19483C9.09194 28.6577 8.99327 28.6986 8.92051 28.7714C8.84776 28.8441 8.80688 28.9428 8.80688 29.0457C8.80688 29.1486 8.84776 29.2473 8.92051 29.32C8.99327 29.3928 9.09194 29.4336 9.19483 29.4336H9.58279C9.68568 29.4336 9.78435 29.3928 9.85711 29.32C9.92986 29.2473 9.97074 29.1486 9.97074 29.0457C9.97074 28.9428 9.92986 28.8441 9.85711 28.7714C9.78435 28.6986 9.68568 28.6577 9.58279 28.6577Z" fill="#5B476B"/>
    <path d="M11.5215 24.0039H11.1336C11.0307 24.0039 10.932 24.0447 10.8592 24.1175C10.7865 24.1902 10.7456 24.2889 10.7456 24.3918C10.7456 24.4947 10.7865 24.5934 10.8592 24.6661C10.932 24.7389 11.0307 24.7798 11.1336 24.7798H11.5215C11.6244 24.7798 11.7231 24.7389 11.7958 24.6661C11.8686 24.5934 11.9095 24.4947 11.9095 24.3918C11.9095 24.2889 11.8686 24.1902 11.7958 24.1175C11.7231 24.0447 11.6244 24.0039 11.5215 24.0039Z" fill="#5B476B"/>
    <path d="M11.5215 25.5513H11.1336C11.0307 25.5513 10.932 25.5922 10.8592 25.6649C10.7865 25.7377 10.7456 25.8364 10.7456 25.9393C10.7456 26.0422 10.7865 26.1408 10.8592 26.2136C10.932 26.2863 11.0307 26.3272 11.1336 26.3272H11.5215C11.6244 26.3272 11.7231 26.2863 11.7958 26.2136C11.8686 26.1408 11.9095 26.0422 11.9095 25.9393C11.9095 25.8364 11.8686 25.7377 11.7958 25.6649C11.7231 25.5922 11.6244 25.5513 11.5215 25.5513Z" fill="#5B476B"/>
    <path d="M11.5215 27.1045H11.1336C11.0307 27.1045 10.932 27.1454 10.8592 27.2182C10.7865 27.2909 10.7456 27.3896 10.7456 27.4925C10.7456 27.5954 10.7865 27.6941 10.8592 27.7668C10.932 27.8396 11.0307 27.8804 11.1336 27.8804H11.5215C11.6244 27.8804 11.7231 27.8396 11.7958 27.7668C11.8686 27.6941 11.9095 27.5954 11.9095 27.4925C11.9095 27.3896 11.8686 27.2909 11.7958 27.2182C11.7231 27.1454 11.6244 27.1045 11.5215 27.1045Z" fill="#5B476B"/>
    <path d="M11.5215 28.6577H11.1336C11.0307 28.6577 10.932 28.6986 10.8592 28.7714C10.7865 28.8441 10.7456 28.9428 10.7456 29.0457C10.7456 29.1486 10.7865 29.2473 10.8592 29.32C10.932 29.3928 11.0307 29.4336 11.1336 29.4336H11.5215C11.6244 29.4336 11.7231 29.3928 11.7958 29.32C11.8686 29.2473 11.9095 29.1486 11.9095 29.0457C11.9095 28.9428 11.8686 28.8441 11.7958 28.7714C11.7231 28.6986 11.6244 28.6577 11.5215 28.6577Z" fill="#5B476B"/>
    <path d="M13.4602 24.0039H13.0723C12.9694 24.0039 12.8707 24.0447 12.798 24.1175C12.7252 24.1902 12.6843 24.2889 12.6843 24.3918C12.6843 24.4947 12.7252 24.5934 12.798 24.6661C12.8707 24.7389 12.9694 24.7798 13.0723 24.7798H13.4602C13.5631 24.7798 13.6618 24.7389 13.7346 24.6661C13.8073 24.5934 13.8482 24.4947 13.8482 24.3918C13.8482 24.2889 13.8073 24.1902 13.7346 24.1175C13.6618 24.0447 13.5631 24.0039 13.4602 24.0039Z" fill="#5B476B"/>
    <path d="M13.4602 25.5513H13.0723C12.9694 25.5513 12.8707 25.5922 12.798 25.6649C12.7252 25.7377 12.6843 25.8364 12.6843 25.9393C12.6843 26.0422 12.7252 26.1408 12.798 26.2136C12.8707 26.2863 12.9694 26.3272 13.0723 26.3272H13.4602C13.5631 26.3272 13.6618 26.2863 13.7346 26.2136C13.8073 26.1408 13.8482 26.0422 13.8482 25.9393C13.8482 25.8364 13.8073 25.7377 13.7346 25.6649C13.6618 25.5922 13.5631 25.5513 13.4602 25.5513Z" fill="#5B476B"/>
    <path d="M13.4602 27.1045H13.0723C12.9694 27.1045 12.8707 27.1454 12.798 27.2182C12.7252 27.2909 12.6843 27.3896 12.6843 27.4925C12.6843 27.5954 12.7252 27.6941 12.798 27.7668C12.8707 27.8396 12.9694 27.8804 13.0723 27.8804H13.4602C13.5631 27.8804 13.6618 27.8396 13.7346 27.7668C13.8073 27.6941 13.8482 27.5954 13.8482 27.4925C13.8482 27.3896 13.8073 27.2909 13.7346 27.2182C13.6618 27.1454 13.5631 27.1045 13.4602 27.1045Z" fill="#5B476B"/>
    <path d="M13.4602 28.6577H13.0723C12.9694 28.6577 12.8707 28.6986 12.798 28.7714C12.7252 28.8441 12.6843 28.9428 12.6843 29.0457C12.6843 29.1486 12.7252 29.2473 12.798 29.32C12.8707 29.3928 12.9694 29.4336 13.0723 29.4336H13.4602C13.5631 29.4336 13.6618 29.3928 13.7346 29.32C13.8073 29.2473 13.8482 29.1486 13.8482 29.0457C13.8482 28.9428 13.8073 28.8441 13.7346 28.7714C13.6618 28.6986 13.5631 28.6577 13.4602 28.6577Z" fill="#5B476B"/>
    <path d="M30.2675 24.3148L27.3579 23.345C27.3096 23.3289 27.2585 23.3224 27.2077 23.326C27.1569 23.3296 27.1073 23.3432 27.0617 23.366C26.9697 23.412 26.8997 23.4927 26.8671 23.5903C26.851 23.6386 26.8445 23.6897 26.8481 23.7405C26.8517 23.7913 26.8653 23.8409 26.8881 23.8865C26.9109 23.9321 26.9424 23.9727 26.9809 24.0061C27.0194 24.0395 27.0641 24.065 27.1124 24.0811L30.022 25.051C30.0704 25.0671 30.1214 25.0735 30.1722 25.0699C30.2231 25.0663 30.2727 25.0527 30.3182 25.03C30.3638 25.0072 30.4045 24.9757 30.4379 24.9372C30.4712 24.8987 30.4967 24.854 30.5128 24.8057C30.529 24.7573 30.5354 24.7063 30.5318 24.6555C30.5282 24.6046 30.5146 24.555 30.4918 24.5094C30.4691 24.4639 30.4375 24.4232 30.399 24.3898C30.3606 24.3564 30.3159 24.331 30.2675 24.3148H30.2675Z" fill="#5B476B"/>
    <path d="M30.2675 25.8623L27.3579 24.8924C27.2603 24.8599 27.1537 24.8674 27.0617 24.9134C26.9697 24.9595 26.8997 25.0401 26.8671 25.1378C26.8345 25.2354 26.8421 25.3419 26.8881 25.434C26.9341 25.526 27.0148 25.596 27.1124 25.6286L30.022 26.5984C30.1197 26.631 30.2262 26.6234 30.3182 26.5774C30.4103 26.5314 30.4803 26.4507 30.5128 26.3531C30.5454 26.2555 30.5378 26.149 30.4918 26.0569C30.4458 25.9649 30.3652 25.8949 30.2675 25.8623H30.2675Z" fill="#5B476B"/>
    <path d="M30.2675 27.4155L27.3579 26.4456C27.2603 26.4131 27.1537 26.4207 27.0617 26.4667C26.9697 26.5127 26.8997 26.5933 26.8671 26.691C26.8345 26.7886 26.8421 26.8951 26.8881 26.9872C26.9341 27.0792 27.0148 27.1492 27.1124 27.1818L30.022 28.1516C30.0704 28.1678 30.1214 28.1742 30.1722 28.1706C30.2231 28.167 30.2727 28.1534 30.3182 28.1306C30.3638 28.1079 30.4045 28.0763 30.4379 28.0378C30.4712 27.9994 30.4967 27.9547 30.5128 27.9063C30.529 27.858 30.5354 27.807 30.5318 27.7561C30.5282 27.7053 30.5146 27.6557 30.4918 27.6101C30.4691 27.5645 30.4375 27.5239 30.399 27.4905C30.3606 27.4571 30.3159 27.4316 30.2675 27.4155H30.2675Z" fill="#5B476B"/>
    <path d="M30.2675 28.9687L27.3579 27.9989C27.2603 27.9663 27.1537 27.9739 27.0617 28.0199C26.9697 28.0659 26.8997 28.1466 26.8671 28.2442C26.8345 28.3418 26.8421 28.4483 26.8881 28.5404C26.9341 28.6324 27.0148 28.7024 27.1124 28.735L30.022 29.7049C30.0704 29.721 30.1214 29.7274 30.1722 29.7238C30.2231 29.7202 30.2727 29.7066 30.3182 29.6839C30.3638 29.6611 30.4045 29.6296 30.4379 29.5911C30.4712 29.5526 30.4967 29.5079 30.5128 29.4596C30.529 29.4112 30.5354 29.3602 30.5318 29.3094C30.5282 29.2585 30.5146 29.2089 30.4918 29.1633C30.4691 29.1178 30.4375 29.0771 30.399 29.0437C30.3606 29.0103 30.3159 28.9849 30.2675 28.9687H30.2675Z" fill="#5B476B"/>
    <path d="M15.3987 24.0039H15.0108C14.9079 24.0039 14.8092 24.0447 14.7364 24.1175C14.6637 24.1902 14.6228 24.2889 14.6228 24.3918C14.6228 24.4947 14.6637 24.5934 14.7364 24.6661C14.8092 24.7389 14.9079 24.7798 15.0108 24.7798H15.3987C15.5016 24.7798 15.6003 24.7389 15.673 24.6661C15.7458 24.5934 15.7867 24.4947 15.7867 24.3918C15.7867 24.2889 15.7458 24.1902 15.673 24.1175C15.6003 24.0447 15.5016 24.0039 15.3987 24.0039Z" fill="#5B476B"/>
    <path d="M15.3987 25.5513H15.0108C14.9079 25.5513 14.8092 25.5922 14.7364 25.6649C14.6637 25.7377 14.6228 25.8364 14.6228 25.9393C14.6228 26.0422 14.6637 26.1408 14.7364 26.2136C14.8092 26.2863 14.9079 26.3272 15.0108 26.3272H15.3987C15.5016 26.3272 15.6003 26.2863 15.673 26.2136C15.7458 26.1408 15.7867 26.0422 15.7867 25.9393C15.7867 25.8364 15.7458 25.7377 15.673 25.6649C15.6003 25.5922 15.5016 25.5513 15.3987 25.5513Z" fill="#5B476B"/>
    <path d="M15.3987 27.1045H15.0108C14.9079 27.1045 14.8092 27.1454 14.7364 27.2182C14.6637 27.2909 14.6228 27.3896 14.6228 27.4925C14.6228 27.5954 14.6637 27.6941 14.7364 27.7668C14.8092 27.8396 14.9079 27.8804 15.0108 27.8804H15.3987C15.5016 27.8804 15.6003 27.8396 15.673 27.7668C15.7458 27.6941 15.7867 27.5954 15.7867 27.4925C15.7867 27.3896 15.7458 27.2909 15.673 27.2182C15.6003 27.1454 15.5016 27.1045 15.3987 27.1045Z" fill="#5B476B"/>
    <path d="M15.3987 28.6577H15.0108C14.9079 28.6577 14.8092 28.6986 14.7364 28.7714C14.6637 28.8441 14.6228 28.9428 14.6228 29.0457C14.6228 29.1486 14.6637 29.2473 14.7364 29.32C14.8092 29.3928 14.9079 29.4336 15.0108 29.4336H15.3987C15.5016 29.4336 15.6003 29.3928 15.673 29.32C15.7458 29.2473 15.7867 29.1486 15.7867 29.0457C15.7867 28.9428 15.7458 28.8441 15.673 28.7714C15.6003 28.6986 15.5016 28.6577 15.3987 28.6577Z" fill="#5B476B"/>
</svg>
