<svg width="81" height="80" viewBox="0 0 81 80" fill="none" xmlns="http://www.w3.org/2000/svg">
<path fill-rule="evenodd" clip-rule="evenodd" d="M39.7863 75.7151C58.3273 75.7151 73.3577 60.6847 73.3577 42.1437C73.3577 23.6027 58.3273 8.57227 39.7863 8.57227C21.2453 8.57227 6.21484 23.6027 6.21484 42.1437C6.21484 60.6847 21.2453 75.7151 39.7863 75.7151Z" fill="#F4E5FF"/>
<g clip-path="url(#clip0)">
<path d="M22.9834 56.002V15.5367C22.9614 15.2704 22.9926 15.0024 23.0752 14.7484C23.1578 14.4943 23.2901 14.2592 23.4645 14.0567C23.6388 13.8543 23.8517 13.6886 24.0907 13.5692C24.3297 13.4498 24.59 13.3791 24.8566 13.3613H48.6644C49.1884 13.4174 49.6696 13.6765 50.0047 14.0832C50.3398 14.4898 50.5022 15.0116 50.4571 15.5367V49.7781" stroke="#5B476B" stroke-width="1.85714" stroke-miterlimit="10" stroke-linecap="round"/>
<path d="M28.2397 17.5508H27.011C26.4548 17.5508 26.0039 18.0017 26.0039 18.5579V20.9951C26.0039 21.5513 26.4548 22.0022 27.011 22.0022H28.2397C28.7959 22.0022 29.2468 21.5513 29.2468 20.9951V18.5579C29.2468 18.0017 28.7959 17.5508 28.2397 17.5508Z" stroke="#5B476B" stroke-width="1.42857" stroke-miterlimit="10"/>
<path d="M34.3217 17.5508H33.093C32.5368 17.5508 32.0859 18.0017 32.0859 18.5579V20.9951C32.0859 21.5513 32.5368 22.0022 33.093 22.0022H34.3217C34.8779 22.0022 35.3288 21.5513 35.3288 20.9951V18.5579C35.3288 18.0017 34.8779 17.5508 34.3217 17.5508Z" stroke="#5B476B" stroke-width="1.42857" stroke-miterlimit="10"/>
<path d="M40.4272 17.5508H39.1985C38.6423 17.5508 38.1914 18.0017 38.1914 18.5579V20.9951C38.1914 21.5513 38.6423 22.0022 39.1985 22.0022H40.4272C40.9834 22.0022 41.4343 21.5513 41.4343 20.9951V18.5579C41.4343 18.0017 40.9834 17.5508 40.4272 17.5508Z" stroke="#5B476B" stroke-width="1.42857" stroke-miterlimit="10"/>
<path d="M46.5092 17.5508H45.2805C44.7243 17.5508 44.2734 18.0017 44.2734 18.5579V20.9951C44.2734 21.5513 44.7243 22.0022 45.2805 22.0022H46.5092C47.0654 22.0022 47.5163 21.5513 47.5163 20.9951V18.5579C47.5163 18.0017 47.0654 17.5508 46.5092 17.5508Z" stroke="#5B476B" stroke-width="1.42857" stroke-miterlimit="10"/>
<path d="M28.2397 24.4395H27.011C26.4548 24.4395 26.0039 24.8903 26.0039 25.4466V27.8837C26.0039 28.4399 26.4548 28.8908 27.011 28.8908H28.2397C28.7959 28.8908 29.2468 28.4399 29.2468 27.8837V25.4466C29.2468 24.8903 28.7959 24.4395 28.2397 24.4395Z" stroke="#5B476B" stroke-width="1.42857" stroke-miterlimit="10"/>
<path d="M34.3217 24.4395H33.093C32.5368 24.4395 32.0859 24.8903 32.0859 25.4466V27.8837C32.0859 28.4399 32.5368 28.8908 33.093 28.8908H34.3217C34.8779 28.8908 35.3288 28.4399 35.3288 27.8837V25.4466C35.3288 24.8903 34.8779 24.4395 34.3217 24.4395Z" stroke="#5B476B" stroke-width="1.42857" stroke-miterlimit="10"/>
<path d="M40.4272 24.4395H39.1985C38.6423 24.4395 38.1914 24.8903 38.1914 25.4466V27.8837C38.1914 28.4399 38.6423 28.8908 39.1985 28.8908H40.4272C40.9834 28.8908 41.4343 28.4399 41.4343 27.8837V25.4466C41.4343 24.8903 40.9834 24.4395 40.4272 24.4395Z" stroke="#5B476B" stroke-width="1.42857" stroke-miterlimit="10"/>
<path d="M46.5092 24.4395H45.2805C44.7243 24.4395 44.2734 24.8903 44.2734 25.4466V27.8837C44.2734 28.4399 44.7243 28.8908 45.2805 28.8908H46.5092C47.0654 28.8908 47.5163 28.4399 47.5163 27.8837V25.4466C47.5163 24.8903 47.0654 24.4395 46.5092 24.4395Z" stroke="#5B476B" stroke-width="1.42857" stroke-miterlimit="10"/>
<path d="M28.2397 31.3086H27.011C26.4548 31.3086 26.0039 31.7595 26.0039 32.3157V34.7529C26.0039 35.3091 26.4548 35.76 27.011 35.76H28.2397C28.7959 35.76 29.2468 35.3091 29.2468 34.7529V32.3157C29.2468 31.7595 28.7959 31.3086 28.2397 31.3086Z" stroke="#5B476B" stroke-width="1.42857" stroke-miterlimit="10"/>
<path d="M34.3217 31.3086H33.093C32.5368 31.3086 32.0859 31.7595 32.0859 32.3157V34.7529C32.0859 35.3091 32.5368 35.76 33.093 35.76H34.3217C34.8779 35.76 35.3288 35.3091 35.3288 34.7529V32.3157C35.3288 31.7595 34.8779 31.3086 34.3217 31.3086Z" stroke="#5B476B" stroke-width="1.42857" stroke-miterlimit="10"/>
<path d="M40.4272 31.3086H39.1985C38.6423 31.3086 38.1914 31.7595 38.1914 32.3157V34.7529C38.1914 35.3091 38.6423 35.76 39.1985 35.76H40.4272C40.9834 35.76 41.4343 35.3091 41.4343 34.7529V32.3157C41.4343 31.7595 40.9834 31.3086 40.4272 31.3086Z" stroke="#5B476B" stroke-width="1.42857" stroke-miterlimit="10"/>
<path d="M46.5092 31.3086H45.2805C44.7243 31.3086 44.2734 31.7595 44.2734 32.3157V34.7529C44.2734 35.3091 44.7243 35.76 45.2805 35.76H46.5092C47.0654 35.76 47.5163 35.3091 47.5163 34.7529V32.3157C47.5163 31.7595 47.0654 31.3086 46.5092 31.3086Z" stroke="#5B476B" stroke-width="1.42857" stroke-miterlimit="10"/>
<path d="M28.2397 38.1758H27.011C26.4548 38.1758 26.0039 38.6267 26.0039 39.1829V41.6201C26.0039 42.1763 26.4548 42.6272 27.011 42.6272H28.2397C28.7959 42.6272 29.2468 42.1763 29.2468 41.6201V39.1829C29.2468 38.6267 28.7959 38.1758 28.2397 38.1758Z" stroke="#5B476B" stroke-width="1.42857" stroke-miterlimit="10"/>
<path d="M34.3217 38.1758H33.093C32.5368 38.1758 32.0859 38.6267 32.0859 39.1829V41.6201C32.0859 42.1763 32.5368 42.6272 33.093 42.6272H34.3217C34.8779 42.6272 35.3288 42.1763 35.3288 41.6201V39.1829C35.3288 38.6267 34.8779 38.1758 34.3217 38.1758Z" stroke="#5B476B" stroke-width="1.42857" stroke-miterlimit="10"/>
<path d="M40.4272 38.1758H39.1985C38.6423 38.1758 38.1914 38.6267 38.1914 39.1829V41.6201C38.1914 42.1763 38.6423 42.6272 39.1985 42.6272H40.4272C40.9834 42.6272 41.4343 42.1763 41.4343 41.6201V39.1829C41.4343 38.6267 40.9834 38.1758 40.4272 38.1758Z" stroke="#5B476B" stroke-width="1.42857" stroke-miterlimit="10"/>
<path d="M46.5092 38.1758H45.2805C44.7243 38.1758 44.2734 38.6267 44.2734 39.1829V41.6201C44.2734 42.1763 44.7243 42.6272 45.2805 42.6272H46.5092C47.0654 42.6272 47.5163 42.1763 47.5163 41.6201V39.1829C47.5163 38.6267 47.0654 38.1758 46.5092 38.1758Z" stroke="#5B476B" stroke-width="1.42857" stroke-miterlimit="10"/>
<path d="M28.2397 45.0449H27.011C26.4548 45.0449 26.0039 45.4958 26.0039 46.052V48.4892C26.0039 49.0454 26.4548 49.4963 27.011 49.4963H28.2397C28.7959 49.4963 29.2468 49.0454 29.2468 48.4892V46.052C29.2468 45.4958 28.7959 45.0449 28.2397 45.0449Z" stroke="#5B476B" stroke-width="1.42857" stroke-miterlimit="10"/>
<path d="M34.3217 45.0449H33.093C32.5368 45.0449 32.0859 45.4958 32.0859 46.052V48.4892C32.0859 49.0454 32.5368 49.4963 33.093 49.4963H34.3217C34.8779 49.4963 35.3288 49.0454 35.3288 48.4892V46.052C35.3288 45.4958 34.8779 45.0449 34.3217 45.0449Z" stroke="#5B476B" stroke-width="1.42857" stroke-miterlimit="10"/>
<path d="M40.4272 45.0449H39.1985C38.6423 45.0449 38.1914 45.4958 38.1914 46.052V48.4892C38.1914 49.0454 38.6423 49.4963 39.1985 49.4963H40.4272C40.9834 49.4963 41.4343 49.0454 41.4343 48.4892V46.052C41.4343 45.4958 40.9834 45.0449 40.4272 45.0449Z" stroke="#5B476B" stroke-width="1.42857" stroke-miterlimit="10"/>
<path d="M46.5092 45.0449H45.2805C44.7243 45.0449 44.2734 45.4958 44.2734 46.052V48.4892C44.2734 49.0454 44.7243 49.4963 45.2805 49.4963H46.5092C47.0654 49.4963 47.5163 49.0454 47.5163 48.4892V46.052C47.5163 45.4958 47.0654 45.0449 46.5092 45.0449Z" stroke="#5B476B" stroke-width="1.42857" stroke-miterlimit="10"/>
<path d="M28.2397 51.9336H27.011C26.4548 51.9336 26.0039 52.3845 26.0039 52.9407V55.3779C26.0039 55.9341 26.4548 56.385 27.011 56.385H28.2397C28.7959 56.385 29.2468 55.9341 29.2468 55.3779V52.9407C29.2468 52.3845 28.7959 51.9336 28.2397 51.9336Z" stroke="#5B476B" stroke-width="1.42857" stroke-miterlimit="10"/>
<path d="M34.3217 51.9336H33.093C32.5368 51.9336 32.0859 52.3845 32.0859 52.9407V55.3779C32.0859 55.9341 32.5368 56.385 33.093 56.385H34.3217C34.8779 56.385 35.3288 55.9341 35.3288 55.3779V52.9407C35.3288 52.3845 34.8779 51.9336 34.3217 51.9336Z" stroke="#5B476B" stroke-width="1.42857" stroke-miterlimit="10"/>
<path d="M40.4272 51.9336H39.1985C38.6423 51.9336 38.1914 52.3845 38.1914 52.9407V55.3779C38.1914 55.9341 38.6423 56.385 39.1985 56.385H40.4272C40.9834 56.385 41.4343 55.9341 41.4343 55.3779V52.9407C41.4343 52.3845 40.9834 51.9336 40.4272 51.9336Z" stroke="#5B476B" stroke-width="1.42857" stroke-miterlimit="10"/>
<path d="M16.7148 66.8387V58.4999C16.7148 58.2985 17.0371 58.1172 17.4198 58.1172H26.2823C26.665 58.1172 26.9873 58.2985 26.9873 58.4999V66.8387" stroke="#5B476B" stroke-width="1.42857" stroke-miterlimit="10" stroke-linecap="round"/>
<path d="M25.3725 60.3125L24.4258 60.3326" stroke="#5B476B" stroke-width="1.0071" stroke-miterlimit="10" stroke-linecap="round"/>
<path d="M22.349 60.3516L21.4023 60.3717" stroke="#5B476B" stroke-width="1.0071" stroke-miterlimit="10" stroke-linecap="round"/>
<path d="M19.3373 60.3516L18.3906 60.3717" stroke="#5B476B" stroke-width="1.0071" stroke-miterlimit="10" stroke-linecap="round"/>
<path d="M25.3725 61.9648L24.4258 61.985" stroke="#5B476B" stroke-width="1.0071" stroke-miterlimit="10" stroke-linecap="round"/>
<path d="M22.349 62.0039L21.4023 62.024" stroke="#5B476B" stroke-width="1.0071" stroke-miterlimit="10" stroke-linecap="round"/>
<path d="M19.3373 62.0039L18.3906 62.024" stroke="#5B476B" stroke-width="1.0071" stroke-miterlimit="10" stroke-linecap="round"/>
<path d="M25.3725 63.6152L24.4258 63.6354" stroke="#5B476B" stroke-width="1.0071" stroke-miterlimit="10" stroke-linecap="round"/>
<path d="M22.349 63.6562L21.4023 63.6764" stroke="#5B476B" stroke-width="1.0071" stroke-miterlimit="10" stroke-linecap="round"/>
<path d="M19.3373 63.6562L18.3906 63.6764" stroke="#5B476B" stroke-width="1.0071" stroke-miterlimit="10" stroke-linecap="round"/>
<path d="M25.3725 65.2676L24.4258 65.2877" stroke="#5B476B" stroke-width="1.0071" stroke-miterlimit="10" stroke-linecap="round"/>
<path d="M22.349 65.3066L21.4023 65.3268" stroke="#5B476B" stroke-width="1.0071" stroke-miterlimit="10" stroke-linecap="round"/>
<path d="M19.3373 65.3066L18.3906 65.3268" stroke="#5B476B" stroke-width="1.0071" stroke-miterlimit="10" stroke-linecap="round"/>
<path d="M44.1016 66.8379V53.7054C44.1016 53.3629 44.7461 52.2148 45.5316 52.2148H63.6594C64.445 52.2148 65.0895 53.3629 65.0895 53.7054V66.8379" stroke="#5B476B" stroke-width="1.85714" stroke-miterlimit="10" stroke-linecap="round"/>
<path d="M46.75 55.0352H62.4205" stroke="#5B476B" stroke-width="1.0071" stroke-miterlimit="10" stroke-linecap="round"/>
<path d="M46.75 57.7148H62.4205" stroke="#5B476B" stroke-width="1.0071" stroke-miterlimit="10" stroke-linecap="round"/>
<path d="M46.75 60.4141H62.4205" stroke="#5B476B" stroke-width="1.0071" stroke-miterlimit="10" stroke-linecap="round"/>
<path d="M46.75 63.1113H62.4205" stroke="#5B476B" stroke-width="1.0071" stroke-miterlimit="10" stroke-linecap="round"/>
<path d="M46.75 65.8105H62.4205" stroke="#5B476B" stroke-width="1.0071" stroke-miterlimit="10" stroke-linecap="round"/>
<path d="M16.7148 69.4961H65.0556" stroke="#5B476B" stroke-width="1.0071" stroke-miterlimit="10" stroke-linecap="round"/>
</g>
<defs>
<clipPath id="clip0">
<rect width="49.3479" height="57.1429" fill="white" transform="translate(16.2148 12.8574)"/>
</clipPath>
</defs>
</svg>
