<svg width="49" height="48" viewBox="0 0 49 48" fill="none" xmlns="http://www.w3.org/2000/svg">
<path fill-rule="evenodd" clip-rule="evenodd" d="M24.4998 44.1598C35.6339 44.1598 44.6598 35.1339 44.6598 23.9998C44.6598 12.8658 35.6339 3.83984 24.4998 3.83984C13.3658 3.83984 4.33984 12.8658 4.33984 23.9998C4.33984 35.1339 13.3658 44.1598 24.4998 44.1598Z" fill="#F4E5FF"/>
<path fill-rule="evenodd" clip-rule="evenodd" d="M23.1523 9.52622C22.8852 9.56225 22.6695 9.76142 22.613 10.0242L21.2448 16.2387C21.1949 16.4611 21.2677 16.6932 21.4358 16.8475C21.604 17.0018 21.8419 17.055 22.06 16.9869C22.2781 16.9189 22.4432 16.74 22.4932 16.5176L23.4319 12.2252L25.0697 16.0096C25.1561 16.2111 25.3402 16.3541 25.5571 16.3885C25.7741 16.4229 25.9936 16.3438 26.1383 16.179L28.6649 13.3904L28.2755 18.0911C28.2606 18.2758 28.327 18.4577 28.4573 18.5897C28.5877 18.7216 28.7692 18.7905 28.9546 18.7783L32.2102 18.5492L30.0231 20.8996C29.8965 21.0387 29.8379 21.2265 29.8629 21.4127C29.8879 21.5989 29.9941 21.7647 30.153 21.8656L34.1476 24.4451L30.3827 24.6642C30.1635 24.6776 29.9666 24.8023 29.8612 24.9944C29.7558 25.1864 29.7566 25.419 29.8633 25.6103L31.8707 29.1458L28.8547 27.6918C28.6477 27.5921 28.4032 27.6101 28.2132 27.739C28.0232 27.8679 27.9166 28.0882 27.9335 28.3167C27.9505 28.5453 28.0885 28.7474 28.2954 28.847L33.159 31.1874C33.4131 31.3172 33.7228 31.2632 33.9176 31.055C34.1124 30.8468 34.1452 30.535 33.9978 30.2911L31.4912 25.8792L36.1749 25.6103C36.447 25.5906 36.6766 25.4008 36.7464 25.1378C36.8163 24.8748 36.7111 24.5966 36.4845 24.4451L31.4812 21.2083L34.2575 18.2305C34.4324 18.039 34.4737 17.7609 34.3619 17.527C34.2501 17.2932 34.0075 17.15 33.7482 17.1649L29.6037 17.4637L30.083 11.6176C30.1032 11.3469 29.9492 11.0932 29.6993 10.9854C29.4494 10.8777 29.1585 10.9395 28.9745 11.1396L25.8587 14.5855L23.8314 9.90467C23.7169 9.63986 23.4384 9.48467 23.1523 9.52622ZM19.8366 17.882C18.6859 17.9616 17.4258 18.1908 16.3812 18.4397C15.8589 18.5642 15.3944 18.6918 15.023 18.8082C14.7128 18.9054 14.5129 18.9781 14.304 19.0871C14.2991 19.0887 14.2988 19.0954 14.294 19.097C14.2563 19.117 14.2023 19.1232 14.1642 19.1468L14.1841 19.1767C13.6587 19.4142 13.3506 19.899 13.2054 20.3917C13.0469 20.9296 12.9866 21.5313 12.9258 22.1346C12.8067 23.3174 12.614 24.4759 12.1768 24.963L9.62021 26.4071C9.39271 26.501 9.23957 26.717 9.22649 26.9622C9.21342 27.2074 9.34274 27.4383 9.55897 27.5558C9.77519 27.6733 10.0399 27.6564 10.2394 27.5125L12.9358 25.9987C12.9873 25.9689 13.0343 25.932 13.0756 25.8892C14.0257 24.9137 14.0833 23.4532 14.2041 22.2541C14.2645 21.6545 14.3285 21.1176 14.4338 20.7602C14.5391 20.4028 14.6215 20.3251 14.6935 20.3021C14.7427 20.2846 14.7897 20.2612 14.8333 20.2324C14.7892 20.2596 15.068 20.138 15.4025 20.0332C15.737 19.9284 16.1741 19.803 16.6708 19.6846C17.6124 19.4603 18.755 19.2594 19.7567 19.1767L22.1735 20.4614C22.2112 20.4855 22.2514 20.5055 22.2933 20.5212C22.2486 20.5154 22.3138 20.5597 22.2833 20.6706L21.9837 21.7462C21.9576 21.8413 21.8793 21.8698 21.8839 21.8856L18.1588 20.9096C17.8176 20.8208 17.4686 21.0237 17.3779 21.3636C17.2872 21.7034 17.4889 22.0524 17.8293 22.1445L18.6082 22.3537C18.0458 22.6444 17.6595 23.2268 17.6595 23.8974C17.6595 24.6948 18.211 25.3747 18.9478 25.5805C18.7215 25.8761 18.5883 26.2398 18.5883 26.6361C18.5883 27.2808 18.95 27.8485 19.4771 28.1499C19.2634 28.4408 19.1375 28.7903 19.1375 29.1757C19.1375 30.1296 19.9251 30.9186 20.8852 30.9186C21.3254 30.9186 22.2224 30.816 23.1522 30.7094C23.6171 30.6561 24.0676 30.603 24.4105 30.5601C24.5819 30.5384 24.7222 30.5149 24.83 30.5003C24.8838 30.493 24.9334 30.4858 24.9698 30.4804C25.0061 30.475 24.9925 30.485 25.0896 30.4605C26.0258 30.222 26.7075 29.3742 26.7075 28.379C26.7075 27.7115 26.395 27.112 25.9085 26.7158C26.4083 26.3203 26.7374 25.7108 26.7374 25.0327C26.7374 24.0985 26.1206 23.3061 25.2794 23.011C25.4163 22.7303 25.4891 22.4156 25.4891 22.0848C25.4891 20.9327 24.5573 19.9914 23.4118 19.9436C23.2776 19.6895 23.0653 19.4724 22.7727 19.356L22.7827 19.346L20.1861 17.9517C20.0786 17.8959 19.9574 17.8717 19.8366 17.882ZM23.4618 21.2282C23.8893 21.2943 24.2108 21.6451 24.2108 22.0847C24.2108 22.4482 23.9874 22.7478 23.6715 22.8815C23.7417 22.8518 23.4025 22.9825 23.0424 23.1105C22.6823 23.2385 22.22 23.4007 21.7441 23.5687C20.7924 23.9046 19.8384 24.2404 19.587 24.3355C19.5368 24.3546 19.4798 24.3654 19.4172 24.3654C19.1436 24.3654 18.9378 24.1627 18.9378 23.8973C18.9378 23.7041 19.0536 23.5445 19.2175 23.4691C19.1991 23.4777 19.4017 23.3839 19.6569 23.2699C19.8911 23.1652 20.2166 23.026 20.5657 22.8616L21.5943 23.1305C22.3598 23.3306 23.0275 22.7935 23.2221 22.0847L23.4618 21.2282ZM24.5702 24.1564C25.0713 24.1564 25.459 24.5456 25.459 25.0328C25.459 25.4134 25.2084 25.7262 24.8698 25.8495C24.9367 25.8249 24.8091 25.8747 24.69 25.9092C24.5709 25.9438 24.4144 25.9836 24.2206 26.0387C23.8331 26.1489 23.3194 26.292 22.8025 26.437C21.7688 26.7271 20.6948 27.0348 20.4756 27.0944C20.4351 27.1052 20.3913 27.1043 20.3458 27.1043C20.0722 27.1043 19.8664 26.9016 19.8664 26.6362C19.8664 26.4529 19.9654 26.2981 20.1161 26.2179C20.0852 26.2345 23.9993 24.3123 24.2706 24.2161C24.3643 24.183 24.4631 24.1564 24.5702 24.1564ZM24.5503 27.5026C25.0515 27.5026 25.4291 27.8874 25.4291 28.379C25.4291 28.7943 25.1486 29.1292 24.77 29.2256C24.7438 29.2294 24.7064 29.2295 24.6602 29.2355C24.5593 29.2492 24.4194 29.2741 24.2507 29.2953C23.9133 29.3376 23.4626 29.3919 23.0024 29.4447C22.082 29.5502 21.0233 29.6438 20.8852 29.6438C20.6116 29.6438 20.4158 29.4473 20.4158 29.1758C20.4158 28.9649 20.5384 28.8035 20.7154 28.7376C20.6771 28.7519 20.7786 28.7136 20.8852 28.6778C20.9918 28.6421 21.1421 28.5858 21.3146 28.5284C21.6597 28.4136 22.1075 28.2676 22.553 28.1201C23.4439 27.8249 24.3206 27.5325 24.3206 27.5325C24.3239 27.5325 24.3273 27.5325 24.3306 27.5325C24.3612 27.5213 24.4371 27.5026 24.5503 27.5026ZM19.4772 31.6158C19.3783 31.6236 19.2826 31.6543 19.1976 31.7054C18.7425 31.9616 18.2204 31.9243 17.5098 31.8648C16.7993 31.8052 15.8869 31.7354 15.0331 32.283L13.5951 33.2093C13.3918 33.3283 13.2707 33.5493 13.28 33.7842C13.2894 34.0191 13.4276 34.2298 13.6397 34.3324C13.8518 34.4351 14.1033 34.4129 14.2941 34.2749L15.7322 33.3586C16.2059 33.0548 16.7066 33.0715 17.4 33.1296C18.0933 33.1877 18.9699 33.3033 19.8268 32.8208C20.1036 32.6838 20.2424 32.3688 20.1565 32.0728C20.0706 31.7767 19.7847 31.5843 19.4772 31.6158Z" fill="#5B476B"/>
</svg>
