<svg width="24" height="24" viewBox="0 0 24 24" fill="none" xmlns="http://www.w3.org/2000/svg">
<path fill-rule="evenodd" clip-rule="evenodd" d="M12 22.875C18.0061 22.875 22.875 18.0061 22.875 12C22.875 5.9939 18.0061 1.125 12 1.125C5.9939 1.125 1.125 5.9939 1.125 12C1.125 18.0061 5.9939 22.875 12 22.875ZM12 24C18.6274 24 24 18.6274 24 12C24 5.37258 18.6274 0 12 0C5.37258 0 0 5.37258 0 12C0 18.6274 5.37258 24 12 24Z" fill="#5B476B"/>
<path d="M11.9977 7.83913C11.4777 7.83913 11.1007 7.72213 10.8667 7.48813C10.6457 7.25413 10.5352 6.95513 10.5352 6.59113V6.20113C10.5352 5.83713 10.6457 5.53813 10.8667 5.30413C11.1007 5.07013 11.4777 4.95312 11.9977 4.95312C12.5047 4.95312 12.8752 5.07013 13.1092 5.30413C13.3432 5.53813 13.4602 5.83713 13.4602 6.20113V6.59113C13.4602 6.95513 13.3432 7.25413 13.1092 7.48813C12.8752 7.72213 12.5047 7.83913 11.9977 7.83913ZM10.7497 9.32113H13.2457V19.5001H10.7497V9.32113Z" fill="#5B476B"/>
</svg>
