<svg width="57" height="56" viewBox="0 0 57 56" fill="none" xmlns="http://www.w3.org/2000/svg">
<path fill-rule="evenodd" clip-rule="evenodd" d="M28.5 52C41.7548 52 52.5 41.2548 52.5 28C52.5 14.7452 41.7548 4 28.5 4C15.2452 4 4.5 14.7452 4.5 28C4.5 41.2548 15.2452 52 28.5 52Z" fill="#F4E5FF"/>
<g clip-path="url(#clip0_3169_79501)">
<path d="M38.7691 28.7613C35.4947 28.7613 32.2204 28.7612 28.9461 28.761C28.2479 28.7608 27.9596 28.5806 27.9679 28.1557C27.9761 27.7399 28.26 27.5729 28.9672 27.5728C35.3829 27.5725 41.7986 27.572 48.2143 27.5715C50.1232 27.5706 51.541 26.6181 52.1273 24.9167C52.6879 23.2903 52.3916 21.8083 51.2551 20.5856C50.0975 19.3404 48.6614 19.0241 47.1261 19.6385C45.6072 20.2464 44.7935 21.4898 44.6284 23.202C44.6234 23.2544 44.6253 23.3075 44.6228 23.3602C44.6038 23.7663 44.4381 24.0617 44.0227 24.0326C43.6375 24.0057 43.5025 23.7097 43.5178 23.324C43.5915 21.4677 44.3635 20.0163 45.8283 19.0098C46.6855 18.4324 47.6886 18.1456 48.7038 18.1876C49.719 18.2297 50.6979 18.5987 51.5098 19.2453C52.3216 19.8919 52.9278 20.7853 53.2472 21.8062C53.5667 22.8271 53.5843 23.9269 53.2976 24.9587C52.7334 27.0402 50.9714 28.6069 48.8894 28.7109C47.0318 28.8036 45.1678 28.7536 43.3066 28.7602C41.7941 28.7655 40.2816 28.7613 38.7691 28.7613Z" fill="#5B476B"/>
<path d="M38.1369 31.1113C41.1963 31.1115 44.2558 31.1022 47.3152 31.1147C49.4377 31.1233 51.0173 32.6318 51.2655 34.8502C51.5184 37.1104 49.8048 39.1872 47.5669 39.3329C45.4863 39.4683 43.5485 37.5961 43.5205 35.4234C43.5131 34.8578 43.8021 34.5381 44.2074 34.6686C44.5604 34.7823 44.6049 35.0825 44.6305 35.4188C44.6555 35.8124 44.7554 36.1965 44.9241 36.5482C45.0928 36.9 45.3269 37.212 45.6123 37.4657C45.8976 37.7193 46.2285 37.9094 46.5849 38.0244C46.9414 38.1394 47.3161 38.1771 47.6866 38.1351C48.0571 38.0931 48.4158 37.9724 48.7412 37.7801C49.0666 37.5879 49.3519 37.328 49.5802 37.0162C49.8084 36.7043 49.9748 36.3469 50.0693 35.9654C50.1639 35.5838 50.1847 35.186 50.1305 34.7958C50.0421 34.0993 49.7172 33.4608 49.2165 32.9994C48.7157 32.5381 48.0734 32.2857 47.4095 32.2892C43.3027 32.2767 39.1957 32.2838 35.0888 32.2834C33.0104 32.2831 30.932 32.2826 28.8536 32.2817C28.6886 32.2815 28.482 32.3184 28.3684 32.231C28.1999 32.1013 27.9803 31.8627 27.997 31.6942C28.017 31.4926 28.2369 31.2762 28.4202 31.1433C28.5358 31.0595 28.7428 31.1119 28.9088 31.1118C31.9849 31.1108 35.0609 31.1106 38.1369 31.1113Z" fill="#5B476B"/>
<path d="M33.469 25.2218C31.9401 25.2218 30.4111 25.2216 28.8821 25.2212C28.7328 25.2211 28.5459 25.2703 28.4422 25.195C28.2572 25.0607 28.0071 24.8545 27.9988 24.6676C27.9903 24.4782 28.21 24.2282 28.3896 24.0954C28.5163 24.0017 28.7429 24.0509 28.9249 24.0508C31.9496 24.0483 34.9744 24.0629 37.9989 24.0397C39.1285 24.0311 39.9678 23.4362 40.4528 22.3593C40.9402 21.277 40.8155 20.2214 40.1128 19.2896C39.3805 18.3184 38.3881 17.9697 37.2608 18.2805C36.1361 18.5906 35.4481 19.4013 35.2282 20.6265C35.1972 20.799 35.1811 20.9746 35.1611 21.1492C35.1203 21.5046 34.8952 21.75 34.6012 21.6685C34.3896 21.6098 34.088 21.2885 34.0945 21.0945C34.1058 20.5518 34.205 20.0151 34.3877 19.5078C35.1061 17.6278 37.0916 16.6149 38.9319 17.1364C39.8387 17.3829 40.6306 17.9686 41.1612 18.7851C41.6919 19.6017 41.9253 20.594 41.8185 21.5786C41.7117 22.5632 41.2718 23.4736 40.5802 24.1416C39.8885 24.8096 38.9918 25.19 38.0558 25.2125C36.5272 25.2382 34.998 25.2177 33.469 25.2177V25.2218Z" fill="#5B476B"/>
</g>
<path fill-rule="evenodd" clip-rule="evenodd" d="M15.2666 32.9567V24.446C15.2666 23.8232 14.7617 23.3184 14.1389 23.3184C13.5161 23.3184 13.0112 23.8232 13.0112 24.446V32.9567C13.0112 33.5795 13.5161 34.0843 14.1389 34.0843C14.7617 34.0843 15.2666 33.5795 15.2666 32.9567ZM14.1389 22.3184C12.9638 22.3184 12.0112 23.2709 12.0112 24.446V32.9567C12.0112 34.1318 12.9638 35.0843 14.1389 35.0843C15.314 35.0843 16.2666 34.1318 16.2666 32.9567V24.446C16.2666 23.2709 15.314 22.3184 14.1389 22.3184Z" fill="#5B476B"/>
<path fill-rule="evenodd" clip-rule="evenodd" d="M15.2017 24.4453V32.956L25.84 30.8283V26.573L15.2017 24.4453ZM16.2017 25.6651V31.7362L24.84 30.0085V27.3928L16.2017 25.6651Z" fill="#5B476B"/>
<path fill-rule="evenodd" clip-rule="evenodd" d="M4.03192 24.4453C3.73815 24.4453 3.5 24.6835 3.5 24.9772C3.5 25.271 3.73815 25.5091 4.03192 25.5091H12.5426C12.8363 25.5091 13.0745 25.271 13.0745 24.9772C13.0745 24.6835 12.8363 24.4453 12.5426 24.4453H4.03192Z" fill="#5B476B"/>
<path fill-rule="evenodd" clip-rule="evenodd" d="M4.03192 31.8926C3.73815 31.8926 3.5 32.1307 3.5 32.4245C3.5 32.7183 3.73815 32.9564 4.03192 32.9564H12.5426C12.8363 32.9564 13.0745 32.7183 13.0745 32.4245C13.0745 32.1307 12.8363 31.8926 12.5426 31.8926H4.03192Z" fill="#5B476B"/>
<defs>
<clipPath id="clip0_3169_79501">
<rect width="25.532" height="22.3405" fill="white" transform="translate(27.9678 17)"/>
</clipPath>
</defs>
</svg>
