<svg width="49" height="48" viewBox="0 0 49 48" fill="none" xmlns="http://www.w3.org/2000/svg">
<path fill-rule="evenodd" clip-rule="evenodd" d="M24.5008 44.1598C35.6349 44.1598 44.6608 35.1339 44.6608 23.9998C44.6608 12.8658 35.6349 3.83984 24.5008 3.83984C13.3668 3.83984 4.34082 12.8658 4.34082 23.9998C4.34082 35.1339 13.3668 44.1598 24.5008 44.1598Z" fill="#F4E5FF"/>
<path d="M36.1972 24.299C36.1972 24.1809 36.1494 24.0678 36.0645 23.9857L34.3193 22.295C34.238 22.2162 34.1291 22.1721 34.0158 22.1721H31.1424L30.9617 21.9914V12.5736C30.9617 12.3327 30.7664 12.1373 30.5254 12.1373H26.96C26.7799 11.6295 26.2949 11.2647 25.7262 11.2647H25.246C25.0433 10.2702 24.1618 9.51953 23.1084 9.51953C22.0549 9.51953 21.1734 10.2702 20.9707 11.2647H20.4906C19.9218 11.2647 19.4369 11.6295 19.2568 12.1373H15.6914C15.4504 12.1373 15.2551 12.3327 15.2551 12.5736V23.0447H12.201C12.0853 23.0447 11.9743 23.0906 11.8925 23.1725L10.1473 24.9176C10.0655 24.9995 10.0195 25.1104 10.0195 25.2262V35.261C10.0195 35.5019 10.2149 35.6972 10.4558 35.6972H35.761C36.0019 35.6972 36.1972 35.5019 36.1972 35.261V27.4078C36.1972 27.4077 36.1972 24.299 36.1972 24.299ZM35.3247 24.4838V26.3543L33.5795 24.6091V23.0447H33.8391L35.3247 24.4838ZM35.3247 32.2069H33.5795V30.0254C33.5795 29.9097 33.5335 29.7987 33.4517 29.7169L31.052 27.3173C30.9997 27.2649 30.961 27.2038 30.9364 27.1337C30.8992 27.029 30.8992 26.9137 30.9371 26.807C30.961 26.7389 30.9997 26.6778 31.0521 26.6254C31.1444 26.533 31.2673 26.4822 31.398 26.4822C31.5287 26.4822 31.6516 26.533 31.7439 26.6254L32.8347 27.7162L34.1436 29.025C34.2288 29.1102 34.3404 29.1528 34.4521 29.1528C34.5637 29.1528 34.6754 29.1102 34.7606 29.025L35.3247 28.461V32.2069ZM30.9617 32.2069V28.461L32.7069 30.2061V32.2069H30.9617ZM35.1439 27.4076L34.4521 28.0995L33.4517 27.0991L33.4517 27.0991L32.361 26.0084L27.9076 21.5551V20.8632H28.5995L35.1439 27.4076ZM32.7069 23.0447V23.7365L32.015 23.0447H32.7069ZM20.4906 12.1373H21.3632C21.6042 12.1373 21.7995 11.9419 21.7995 11.701C21.7995 10.9793 22.3867 10.3921 23.1084 10.3921C23.8301 10.3921 24.4173 10.9793 24.4173 11.701C24.4173 11.9419 24.6126 12.1373 24.8536 12.1373H25.7262C25.9667 12.1373 26.1625 12.333 26.1625 12.5736V13.0099H20.0543V12.5736C20.0543 12.333 20.25 12.1373 20.4906 12.1373ZM15.2551 25.6818C14.78 25.5219 14.2337 25.6306 13.8558 26.0084L13.5099 26.3543V23.9173H15.2551V25.6818ZM10.8921 25.4069L12.3817 23.9173H12.6373V27.4076C12.6373 27.5841 12.7436 27.7432 12.9066 27.8107C13.0697 27.8783 13.2573 27.8409 13.3821 27.7162L14.4728 26.6254C14.6636 26.4347 14.9739 26.4347 15.1647 26.6254C15.2571 26.7178 15.308 26.8406 15.308 26.9713C15.308 27.102 15.2571 27.2249 15.1647 27.3173L12.7651 29.7169C12.6833 29.7987 12.6373 29.9097 12.6373 30.0254V32.2069H10.8921V25.4069ZM13.5099 30.2061L15.2551 28.461V32.2069H13.5099V30.2061ZM10.8921 33.0795H13.0736H15.2551V34.8247H10.8921V33.0795ZM16.1277 13.0099H19.1817V13.4462C19.1817 13.6871 19.3771 13.8825 19.618 13.8825H26.5988C26.8397 13.8825 27.035 13.6871 27.035 13.4462V13.0099H30.0891V21.1188L29.0887 20.1184C29.0069 20.0366 28.8959 19.9906 28.7802 19.9906H27.4713C27.2304 19.9906 27.035 20.186 27.035 20.4269V21.7358C27.035 21.8515 27.081 21.9625 27.1628 22.0443L30.0891 24.9706V34.8247H16.1277V13.0099ZM35.3247 34.8247H30.9617V33.0795H35.3247V34.8247Z" fill="#5B476B"/>
<path d="M17.8727 17.5534V18.6815C17.8727 18.9225 18.0681 19.1178 18.309 19.1178H20.9268C21.1678 19.1178 21.3631 18.9225 21.3631 18.6815V17.5534L21.4909 17.6812L22.1079 17.0641L21.2353 16.1915L19.9264 14.8826C19.756 14.7123 19.4798 14.7123 19.3094 14.8826L18.0005 16.1915L17.1279 17.0641L17.7449 17.6812L17.8727 17.5534ZM20.4905 16.6808V18.2452H18.7453V16.6808L19.6179 15.8082L20.4905 16.6808Z" fill="#5B476B"/>
<path d="M19.6182 26.5349C20.5805 26.5349 21.3634 25.752 21.3634 24.7897C21.3634 24.337 21.1901 23.9241 20.9064 23.6136C20.9198 23.5717 20.9271 23.5272 20.9271 23.4808V21.7356C20.9271 21.4947 20.7318 21.2993 20.4908 21.2993H20.0545V20.4268H19.1819V21.2993H18.7456C18.5047 21.2993 18.3093 21.4947 18.3093 21.7356V23.4808C18.3093 23.5272 18.3167 23.5717 18.3301 23.6136C18.0464 23.9241 17.873 24.337 17.873 24.7897C17.873 25.752 18.6559 26.5349 19.6182 26.5349ZM19.6182 25.6623C19.1371 25.6623 18.7456 25.2708 18.7456 24.7897C18.7456 24.3086 19.1371 23.9171 19.6182 23.9171C20.0994 23.9171 20.4908 24.3086 20.4908 24.7897C20.4908 25.2708 20.0994 25.6623 19.6182 25.6623ZM19.1819 22.1719H20.0545V23.0445H19.1819V22.1719Z" fill="#5B476B"/>
<path d="M21.3639 29.1524H20.055V28.2798H20.4913V27.4072H18.7462V28.2798H19.1825V29.1524H17.4373C17.1963 29.1524 17.001 29.3478 17.001 29.5887V31.3339C17.001 31.5748 17.1963 31.7702 17.4373 31.7702H19.6187V32.6428C19.6187 32.8837 19.8141 33.0791 20.055 33.0791H21.8002C22.0412 33.0791 22.2365 32.8837 22.2365 32.6428V30.025C22.2365 29.5439 21.8451 29.1524 21.3639 29.1524ZM21.3639 32.2065H20.4913V31.3339C20.4913 31.0929 20.296 30.8976 20.055 30.8976H17.8736V30.025H21.3639V32.2065Z" fill="#5B476B"/>
<path d="M28.7805 18.2451H23.5449V19.1177H28.7805V18.2451Z" fill="#5B476B"/>
<path d="M28.7805 24.79H23.5449V25.6626H28.7805V24.79Z" fill="#5B476B"/>
<path d="M28.7805 31.334H23.5449V32.2066H28.7805V31.334Z" fill="#5B476B"/>
<path d="M23.5445 11.2646H22.6719V12.1372H23.5445V11.2646Z" fill="#5B476B"/>
</svg>
