<svg width="33" height="32" viewBox="0 0 33 32" fill="none" xmlns="http://www.w3.org/2000/svg">
    <path fill-rule="evenodd" clip-rule="evenodd" d="M16.5001 29.4405C23.9228 29.4405 29.9401 23.4233 29.9401 16.0005C29.9401 8.57784 23.9228 2.56055 16.5001 2.56055C9.07735 2.56055 3.06006 8.57784 3.06006 16.0005C3.06006 23.4233 9.07735 29.4405 16.5001 29.4405Z" fill="#F4E5FF"/>
    <path fill-rule="evenodd" clip-rule="evenodd" d="M6.86235 28.1489H14.9956C15.2205 28.1489 15.4025 27.9675 15.4022 27.7424V10.9983C15.4022 10.7735 15.2205 10.5918 14.9956 10.5918H6.86235C6.63751 10.5918 6.45581 10.7735 6.45581 10.9983V27.7424C6.45581 27.9675 6.63751 28.1489 6.86235 28.1489ZM14.5879 27.3358H7.26796V11.4051H14.5879V27.3358Z" fill="#5B476B"/>
    <path d="M27.9269 17.7076H5.21611C4.99127 17.7076 4.80957 17.5262 4.80957 17.3011C4.80957 17.076 4.99155 16.8945 5.21611 16.8945H27.9269C28.1518 16.8945 28.3335 17.076 28.3335 17.3011C28.3335 17.5262 28.1515 17.7076 27.9269 17.7076Z" fill="#5B476B"/>
    <path d="M13.0635 15.7965C12.8387 15.7965 12.657 15.6145 12.657 15.3899V13.7435C12.657 13.5186 12.839 13.3369 13.0635 13.3369C13.2884 13.3369 13.4701 13.5189 13.4701 13.7435V15.3899C13.4703 15.6145 13.2884 15.7965 13.0635 15.7965Z" fill="#5B476B"/>
    <path d="M13.0635 21.4698C12.8387 21.4698 12.657 21.2878 12.657 21.0627V19.535C12.657 19.3099 12.839 19.1279 13.0635 19.1279C13.2884 19.1279 13.4701 19.3099 13.4701 19.535V21.0627C13.4703 21.2878 13.2884 21.4698 13.0635 21.4698Z" fill="#5B476B"/>
    <path d="M25.5993 12.2184H16.7542C16.5294 12.2184 16.3474 12.0364 16.3474 11.8118C16.3474 11.587 16.5294 11.4053 16.7542 11.4053H25.5993C25.8241 11.4053 26.0058 11.587 26.0058 11.8118C26.0058 12.0366 25.8241 12.2184 25.5993 12.2184Z" fill="#5B476B"/>
    <path d="M24.71 5.13437H17.6441C17.4193 5.13437 17.2375 4.95322 17.2375 4.72783C17.2375 4.50383 17.4193 4.32129 17.6441 4.32129H24.7102C24.9351 4.32129 25.1171 4.50411 25.1171 4.72783C25.1168 4.9535 24.9348 5.13437 24.71 5.13437Z" fill="#5B476B"/>
    <path fill-rule="evenodd" clip-rule="evenodd" d="M25.2135 12.2185C25.2148 12.2184 25.216 12.2183 25.2169 12.2183C25.4418 12.2183 25.6235 12.0366 25.6232 11.8118C25.6232 11.7227 25.5957 11.6409 25.5472 11.5741L23.9561 7.19933C23.8983 7.03794 23.7447 6.93164 23.5741 6.93164H18.776C18.6052 6.93164 18.4519 7.03794 18.394 7.19933L16.7673 11.6726C16.7222 11.7973 16.7403 11.9364 16.8165 12.0452C16.8922 12.154 17.0166 12.2183 17.1493 12.2183H25.2008C25.2056 12.2189 25.2101 12.2187 25.2135 12.2185ZM24.621 11.4049H17.7304L19.0616 7.74498H23.2898L24.621 11.4049Z" fill="#5B476B"/>
    <path fill-rule="evenodd" clip-rule="evenodd" d="M18.2424 14.4212C18.2424 16.0384 19.5586 17.3535 21.1759 17.3535C22.7928 17.3535 24.109 16.0384 24.109 14.4212C24.109 14.1966 23.9273 14.0146 23.7025 14.0146H18.6492C18.4244 14.0146 18.2424 14.1964 18.2424 14.4212ZM21.176 16.5405C20.1456 16.5405 19.2855 15.8026 19.0949 14.8281H23.2571C23.0662 15.8026 22.2064 16.5405 21.176 16.5405Z" fill="#5B476B"/>
    <path d="M26.751 27.6543H14.9964C14.7716 27.6543 14.5896 27.4729 14.5896 27.2478C14.5896 27.0227 14.7716 26.8412 14.9964 26.8412H26.3442V17.3011C26.3442 17.076 26.5262 16.8945 26.751 16.8945C26.9758 16.8945 27.1578 17.076 27.1578 17.3011V27.2478C27.1578 27.4726 26.9758 27.6543 26.751 27.6543Z" fill="#5B476B"/>
    <path fill-rule="evenodd" clip-rule="evenodd" d="M17.4895 25.5747H24.325C24.5501 25.5747 24.7318 25.3927 24.7318 25.1681V20.4524C24.7318 20.2273 24.5501 20.0459 24.325 20.0459H17.4895C17.2647 20.0459 17.083 20.2273 17.083 20.4524V25.1681C17.083 25.3927 17.2647 25.5747 17.4895 25.5747ZM23.9193 24.762H17.8969V20.8594H23.9193V24.762Z" fill="#5B476B"/>
    <path d="M23.8715 19.4875H17.9415C17.7164 19.4875 17.5347 19.3055 17.5347 19.0809C17.5347 18.8558 17.7164 18.6738 17.9415 18.6738H23.8715C24.0963 18.6738 24.2783 18.8558 24.2783 19.0809C24.278 19.3055 24.0961 19.4875 23.8715 19.4875Z" fill="#5B476B"/>
    <path fill-rule="evenodd" clip-rule="evenodd" d="M18.6492 7.74445H23.5745C23.7993 7.74445 23.9813 7.56247 23.9813 7.33791V4.72783C23.9813 4.50411 23.7993 4.32129 23.5745 4.32129H18.6492C18.4244 4.32129 18.2424 4.50383 18.2424 4.72783V7.33791C18.2424 7.56247 18.4244 7.74445 18.6492 7.74445ZM23.1679 6.93122H19.0561V5.13449H23.1679V6.93122Z" fill="#5B476B"/>
    <path d="M21.0388 23.3024C20.9856 23.3024 20.9322 23.2819 20.8927 23.2404C20.8151 23.16 20.8167 23.0311 20.8977 22.953L22.0503 21.8343C22.1304 21.7567 22.2609 21.7584 22.3377 21.8394C22.4156 21.9192 22.4139 22.048 22.333 22.1268L21.1801 23.2454C21.1412 23.2835 21.0894 23.3024 21.0388 23.3024Z" fill="#5B476B"/>
    <path d="M22.1679 24.4218C22.1148 24.4218 22.0614 24.4012 22.0218 24.3597C21.9439 24.2793 21.9456 24.1505 22.0266 24.0723L23.1791 22.9537C23.2595 22.8761 23.3889 22.8772 23.4668 22.9587C23.5445 23.0386 23.5428 23.1674 23.4618 23.2461L22.3093 24.3642C22.2706 24.4023 22.2188 24.4218 22.1679 24.4218Z" fill="#5B476B"/>
    <path d="M21.039 24.421C20.9867 24.421 20.9341 24.4009 20.8943 24.36C20.8159 24.2807 20.8159 24.1524 20.896 24.0726L23.1533 21.8362C23.2326 21.7574 23.3614 21.7574 23.4407 21.8379C23.5192 21.9172 23.5192 22.046 23.439 22.1253L21.1818 24.3617C21.1423 24.4009 21.0905 24.421 21.039 24.421Z" fill="#5B476B"/>
</svg>
