<svg width="23" height="24" viewBox="0 0 23 24" fill="none" xmlns="http://www.w3.org/2000/svg">
<path fill-rule="evenodd" clip-rule="evenodd" d="M3.02632 0.5H19.9737C21.6451 0.5 23 1.85493 23 3.52632V15.6236C23.0001 15.6287 23.0001 15.6338 23 15.639V20.4737C23 22.1451 21.6451 23.5 19.9737 23.5H3.02632C1.35493 23.5 0 22.1451 0 20.4737V3.52632C0 1.85493 1.35493 0.5 3.02632 0.5ZM21.789 14.1696V3.52681C21.789 2.52398 20.9761 1.71102 19.9732 1.71102H3.02587C2.02304 1.71102 1.21008 2.52398 1.21008 3.52681V20.4742C1.21008 21.3971 1.89863 22.1592 2.79004 22.2748L15.9142 9.15067C16.1243 8.94056 16.4504 8.91721 16.6863 9.08063L16.7701 9.15067L21.789 14.1696ZM4.4868 22.29L16.3422 10.4345L21.789 15.8815V20.4742C21.789 21.477 20.9761 22.29 19.9732 22.29H4.4868ZM4.8422 7.76326C4.8422 6.42615 5.92615 5.3422 7.26326 5.3422C8.60037 5.3422 9.68431 6.42615 9.68431 7.76326C9.68431 9.10037 8.60037 10.1843 7.26326 10.1843C5.92615 10.1843 4.8422 9.10037 4.8422 7.76326ZM8.4731 7.76422C8.4731 7.09566 7.93113 6.55369 7.26258 6.55369C6.59402 6.55369 6.05205 7.09566 6.05205 7.76422C6.05205 8.43277 6.59402 8.97474 7.26258 8.97474C7.93113 8.97474 8.4731 8.43277 8.4731 7.76422Z" fill="#5B476B"/>
</svg>
