<svg width="33" height="32" viewBox="0 0 33 32" fill="none" xmlns="http://www.w3.org/2000/svg">
    <path fill-rule="evenodd" clip-rule="evenodd" d="M16.5001 29.4405C23.9228 29.4405 29.9401 23.4233 29.9401 16.0005C29.9401 8.57784 23.9228 2.56055 16.5001 2.56055C9.07735 2.56055 3.06006 8.57784 3.06006 16.0005C3.06006 23.4233 9.07735 29.4405 16.5001 29.4405Z" fill="#F4E5FF"/>
    <path fill-rule="evenodd" clip-rule="evenodd" d="M8.27944 28.3474H24.8701C25.1125 28.3474 25.3087 28.1512 25.3087 27.9085V8.71206C25.3087 8.46875 25.1125 8.27344 24.8701 8.27344H8.27944C8.03696 8.27344 7.84082 8.46875 7.84082 8.71206V27.9085C7.84082 28.1512 8.03696 28.3474 8.27944 28.3474ZM24.431 27.4696H8.71795V9.15067H24.431V27.4696Z" fill="#5B476B"/>
    <path d="M24.8701 12.806H8.27944C8.03696 12.806 7.84082 12.6098 7.84082 12.3673C7.84082 12.1248 8.03696 11.9287 8.27944 11.9287H24.8701C25.1125 11.9287 25.3087 12.1248 25.3087 12.3673C25.3087 12.6098 25.1125 12.806 24.8701 12.806Z" fill="#5B476B"/>
    <path d="M13.112 12.5203C12.8695 12.5203 12.6733 12.3242 12.6733 12.0817V8.71206C12.6733 8.46875 12.8695 8.27344 13.112 8.27344C13.3544 8.27344 13.5506 8.46875 13.5506 8.71206V12.0814C13.5506 12.3242 13.3544 12.5203 13.112 12.5203Z" fill="#5B476B"/>
    <path d="M11.7956 10.8352H9.74847C9.50598 10.8352 9.30957 10.6391 9.30957 10.3966C9.30957 10.1541 9.50571 9.95801 9.74847 9.95801H11.7956C12.0381 9.95801 12.2343 10.1541 12.2343 10.3966C12.2343 10.6391 12.0378 10.8352 11.7956 10.8352Z" fill="#5B476B"/>
    <path fill-rule="evenodd" clip-rule="evenodd" d="M11.1497 20.0794C11.1497 23.0708 13.5833 25.5045 16.5739 25.5045C19.5654 25.5045 21.9993 23.0708 21.9993 20.0794C21.9993 17.088 19.5654 14.6543 16.5739 14.6543C13.5833 14.6543 11.1497 17.088 11.1497 20.0794ZM12.0276 20.0794C12.0276 17.5721 14.0671 15.5318 16.5744 15.5318C19.0817 15.5318 21.122 17.5721 21.122 20.0794C21.122 22.5867 19.0817 24.627 16.5744 24.627C14.0671 24.627 12.0276 22.5867 12.0276 20.0794Z" fill="#5B476B"/>
    <path fill-rule="evenodd" clip-rule="evenodd" d="M12.8433 20.0786C12.8433 22.1359 14.5166 23.8102 16.574 23.8102C18.6314 23.8102 20.3051 22.1357 20.3051 20.0786C20.3051 18.022 18.6314 16.3486 16.574 16.3486C14.5166 16.3486 12.8433 18.022 12.8433 20.0786ZM13.7207 20.0787C13.7207 18.5055 15.001 17.226 16.5743 17.226C18.1475 17.226 19.4278 18.5052 19.4278 20.0787C19.4278 21.6528 18.1478 22.933 16.5743 22.933C15.001 22.933 13.7207 21.6528 13.7207 20.0787Z" fill="#5B476B"/>
    <path d="M21.5597 21.5642C21.3173 21.5642 21.1208 21.3681 21.1208 21.1256C21.1208 20.8831 21.3173 20.6867 21.5597 20.6867C21.9923 20.6867 22.3448 20.3347 22.3448 19.9019C22.3448 19.4691 21.9926 19.1168 21.5597 19.1168C21.3173 19.1168 21.1208 18.9206 21.1208 18.6779C21.1208 18.4354 21.3173 18.2393 21.5597 18.2393C22.4767 18.2393 23.2221 18.9846 23.2221 19.9016C23.2224 20.8188 22.477 21.5642 21.5597 21.5642Z" fill="#5B476B"/>
    <path d="M20.3866 10.9176C20.6742 10.9176 20.9074 10.6844 20.9074 10.3968C20.9074 10.1092 20.6742 9.87598 20.3866 9.87598C20.0989 9.87598 19.8657 10.1092 19.8657 10.3968C19.8657 10.6844 20.0989 10.9176 20.3866 10.9176Z" fill="#5B476B"/>
    <path d="M20.3867 11.356C20.9168 11.356 21.3465 10.9263 21.3465 10.3962C21.3465 9.86621 20.9168 9.43652 20.3867 9.43652C19.8567 9.43652 19.427 9.86621 19.427 10.3962C19.427 10.9263 19.8567 11.356 20.3867 11.356Z" fill="#5B476B"/>
    <path d="M22.3793 10.9182C22.6671 10.9182 22.9004 10.6849 22.9004 10.3971C22.9004 10.1093 22.6671 9.87598 22.3793 9.87598C22.0915 9.87598 21.8582 10.1093 21.8582 10.3971C21.8582 10.6849 22.0915 10.9182 22.3793 10.9182Z" fill="#5B476B"/>
    <path d="M22.3792 11.356C22.9092 11.356 23.3389 10.9263 23.3389 10.3962C23.3389 9.86621 22.9092 9.43652 22.3792 9.43652C21.8491 9.43652 21.4194 9.86621 21.4194 10.3962C21.4194 10.9263 21.8491 11.356 22.3792 11.356Z" fill="#5B476B"/>
    <path d="M20.6248 9.15085C20.574 9.15085 20.5227 9.14147 20.4731 9.12327C20.2452 9.0394 20.1293 8.78727 20.2135 8.5594L21.7498 4.39747H11.4019L12.9382 8.55968C13.0223 8.78754 12.9064 9.03968 12.6786 9.12354C12.454 9.20409 12.1994 9.09182 12.1155 8.86396L10.3605 4.11085C10.3109 3.97734 10.3296 3.82644 10.4121 3.70809C10.4943 3.59085 10.6289 3.52051 10.7721 3.52051H22.3798C22.523 3.52051 22.6576 3.59085 22.7398 3.70809C22.822 3.82644 22.8408 3.97734 22.7914 4.11085L21.0366 8.86396C20.971 9.04106 20.8027 9.15085 20.6248 9.15085Z" fill="#5B476B"/>
    <path d="M21.5599 5.93291H11.5883C11.3458 5.93291 11.1497 5.73677 11.1497 5.49428C11.1497 5.2518 11.3458 5.05566 11.5883 5.05566H21.5601C21.8026 5.05566 21.999 5.2518 21.999 5.49428C21.999 5.73677 21.8023 5.93291 21.5599 5.93291Z" fill="#5B476B"/>
    <path d="M16.5731 8.80216C16.3307 8.80216 16.1345 8.60602 16.1345 8.36354V3.95913C16.1345 3.71665 16.3307 3.52051 16.5731 3.52051C16.8156 3.52051 17.012 3.71665 17.012 3.95913V8.36354C17.012 8.6063 16.8156 8.80216 16.5731 8.80216Z" fill="#5B476B"/>
    <path d="M18.5967 9.15162C18.578 9.15162 18.5589 9.14996 18.541 9.1472C18.3002 9.11713 18.1297 8.89782 18.1606 8.657L18.7639 3.90389C18.7945 3.66389 19.026 3.49755 19.2538 3.52431C19.4947 3.55438 19.6652 3.77451 19.6345 4.01534L19.0309 8.76789C19.0028 8.98969 18.8144 9.15162 18.5967 9.15162Z" fill="#5B476B"/>
    <path d="M14.8407 9.15103C14.6445 9.15103 14.4655 9.01834 14.4156 8.81944L13.2145 4.06606C13.1543 3.8313 13.2967 3.59323 13.5323 3.5331C13.7687 3.47323 14.0054 3.61723 14.0644 3.85199L15.2658 8.60454C15.3256 8.8393 15.1836 9.07848 14.9477 9.13751C14.9118 9.14661 14.8757 9.15103 14.8407 9.15103Z" fill="#5B476B"/>
    <path d="M20.9082 7.57771H12.162C11.9195 7.57771 11.7234 7.38157 11.7234 7.13882C11.7234 6.89633 11.9195 6.7002 12.162 6.7002H20.9085C21.1512 6.7002 21.3474 6.89633 21.3474 7.13882C21.3471 7.38157 21.151 7.57771 20.9082 7.57771Z" fill="#5B476B"/>
</svg>
