<svg width="16" height="16" viewBox="0 0 16 16" fill="none" xmlns="http://www.w3.org/2000/svg">
<path d="M10.2132 1.48739C10.7808 1.48739 11.3483 1.48739 11.914 1.48739C12.8209 1.48739 13.7278 1.48739 14.6347 1.48739C14.8425 1.48739 15.0483 1.48739 15.256 1.48739C15.0094 1.24072 14.7609 0.992195 14.5142 0.745525C14.5142 1.31305 14.5142 1.88058 14.5142 2.44625C14.5142 3.35317 14.5142 4.2601 14.5142 5.16703C14.5142 5.37475 14.5142 5.58062 14.5142 5.78834C14.5142 6.17596 14.8554 6.54875 15.256 6.5302C15.6585 6.51166 15.9979 6.20378 15.9979 5.78834C15.9979 5.22082 15.9979 4.65329 15.9979 4.08762C15.9979 3.18069 15.9979 2.27376 15.9979 1.36684C15.9979 1.15911 15.9979 0.953247 15.9979 0.745525C15.9979 0.344919 15.6585 0.00366211 15.256 0.00366211C14.6885 0.00366211 14.121 0.00366211 13.5553 0.00366211C12.6484 0.00366211 11.7415 0.00366211 10.8345 0.00366211C10.6268 0.00366211 10.421 0.00366211 10.2132 0.00366211C9.82561 0.00366211 9.45282 0.344919 9.47137 0.745525C9.48806 1.14613 9.79593 1.48739 10.2132 1.48739Z" fill="#6D00E6"/>
<path d="M7.41274 9.6385C7.69093 9.3603 7.96728 9.08395 8.24548 8.80576C8.9113 8.13993 9.57712 7.47411 10.2448 6.80643C11.0516 5.99966 11.8565 5.19474 12.6633 4.38796C13.3606 3.69061 14.0561 2.99511 14.7535 2.29776C15.0929 1.95836 15.436 1.62452 15.7698 1.28141C15.7754 1.27584 15.7791 1.27213 15.7847 1.26657C16.0592 0.992081 16.0796 0.487614 15.7847 0.216834C15.4879 -0.0558006 15.028 -0.0762019 14.7349 0.216834C14.4567 0.495033 14.1804 0.771377 13.9022 1.04958C13.2364 1.7154 12.5705 2.38122 11.9029 3.0489C11.0961 3.85567 10.2893 4.66245 9.48439 5.46923C8.78704 6.16658 8.09154 6.86207 7.39419 7.55943C7.05479 7.89883 6.71168 8.23267 6.37784 8.57578C6.37227 8.58134 6.36856 8.58505 6.363 8.59062C6.08851 8.8651 6.06811 9.36957 6.363 9.64035C6.65975 9.90928 7.1197 9.93153 7.41274 9.6385Z" fill="#6D00E6"/>
<path d="M14.5163 9.12863C14.5163 9.69244 14.5163 10.2544 14.5163 10.8182C14.5163 11.6918 14.5163 12.5653 14.5163 13.4407C14.5163 13.6725 14.5348 13.9155 14.5033 14.1473C14.5126 14.0824 14.5218 14.0157 14.5293 13.9507C14.5126 14.0583 14.4847 14.1603 14.4439 14.2623C14.4681 14.203 14.494 14.1436 14.5181 14.0843C14.4736 14.19 14.4161 14.2864 14.3475 14.3792C14.3864 14.3291 14.4254 14.279 14.4643 14.2289C14.3939 14.318 14.3141 14.3977 14.2251 14.4682C14.2752 14.4292 14.3252 14.3903 14.3753 14.3513C14.2844 14.42 14.1861 14.4775 14.0804 14.522C14.1398 14.4979 14.1991 14.4719 14.2585 14.4478C14.1583 14.4886 14.0545 14.5164 13.9469 14.5331C14.0118 14.5238 14.0786 14.5146 14.1435 14.5071C13.9914 14.5275 13.8338 14.5201 13.6798 14.5201C13.3924 14.5201 13.1067 14.5201 12.8193 14.5201C11.8623 14.5201 10.9053 14.5201 9.94825 14.5201C8.78538 14.5201 7.62065 14.5201 6.45778 14.5201C5.45627 14.5201 4.45475 14.5201 3.45324 14.5201C2.98215 14.5201 2.51107 14.5238 2.04184 14.5201C1.97879 14.5201 1.91573 14.5164 1.85267 14.5071C1.91758 14.5164 1.98435 14.5257 2.04926 14.5331C1.94169 14.5164 1.83969 14.4886 1.73768 14.4478C1.79703 14.4719 1.85638 14.4979 1.91573 14.522C1.81001 14.4775 1.71357 14.42 1.62084 14.3513C1.67091 14.3903 1.72099 14.4292 1.77106 14.4682C1.68204 14.3977 1.60229 14.318 1.53181 14.2289C1.57076 14.279 1.60971 14.3291 1.64866 14.3792C1.58003 14.2883 1.52254 14.19 1.47803 14.0843C1.50214 14.1436 1.5281 14.203 1.55221 14.2623C1.51141 14.1622 1.48359 14.0583 1.4669 13.9507C1.47617 14.0157 1.48545 14.0824 1.49286 14.1473C1.47246 13.9953 1.47988 13.8376 1.47988 13.6837C1.47988 13.3962 1.47988 13.1106 1.47988 12.8231C1.47988 11.8661 1.47988 10.9091 1.47988 9.9521C1.47988 8.78923 1.47988 7.6245 1.47988 6.46163C1.47988 5.46011 1.47988 4.4586 1.47988 3.45708C1.47988 2.986 1.47617 2.51492 1.47988 2.04569C1.47988 1.98263 1.48359 1.91957 1.49286 1.85651C1.48359 1.92143 1.47432 1.98819 1.4669 2.05311C1.48359 1.94554 1.51141 1.84353 1.55221 1.74152C1.5281 1.80087 1.50214 1.86022 1.47803 1.91957C1.52254 1.81386 1.58003 1.71741 1.64866 1.62468C1.60971 1.67476 1.57076 1.72483 1.53181 1.77491C1.60229 1.68588 1.68204 1.60613 1.77106 1.53566C1.72099 1.5746 1.67091 1.61355 1.62084 1.6525C1.71171 1.58388 1.81001 1.52638 1.91573 1.48187C1.85638 1.50598 1.79703 1.53195 1.73768 1.55606C1.83783 1.51526 1.94169 1.48744 2.04926 1.47074C1.98435 1.48002 1.91758 1.48929 1.85267 1.49671C2.04926 1.47074 2.25327 1.48373 2.44987 1.48373C2.83193 1.48373 3.21399 1.48373 3.5979 1.48373C4.48443 1.48373 5.3691 1.48373 6.25563 1.48373C6.46149 1.48373 6.66551 1.48373 6.87137 1.48373C7.259 1.48373 7.63178 1.14247 7.61324 0.741863C7.59469 0.339402 7.28682 0 6.87137 0C6.36691 0 5.86244 0 5.35797 0C4.51596 0 3.67209 0 2.83007 0C2.58711 0 2.34415 0 2.10305 0C1.53367 0 0.980979 0.198448 0.580373 0.613892C0.203877 1.00522 0.00171947 1.52267 0.00171947 2.06423C0.00171947 2.17737 0.00171947 2.2905 0.00171947 2.40178C0.00171947 2.92851 0.00171947 3.45337 0.00171947 3.9801C0.00171947 4.77018 0.00171947 5.56027 0.00171947 6.35035C0.00171947 7.24059 0.00171947 8.13268 0.00171947 9.02291C0.00171947 9.85194 0.00171947 10.6791 0.00171947 11.5082C0.00171947 12.1109 0.00171947 12.7137 0.00171947 13.3183C0.00171947 13.6688 -0.0131177 14.0194 0.0443767 14.3662C0.10929 14.7575 0.331849 15.1451 0.615611 15.4178C0.760275 15.5569 0.930903 15.6867 1.11451 15.7739C1.37231 15.8944 1.59858 15.9575 1.88049 15.9872C1.9862 15.9983 2.09006 15.9964 2.19578 15.9964C2.63162 15.9964 3.06932 15.9964 3.50517 15.9964C4.24518 15.9964 4.98704 15.9964 5.72705 15.9964C6.60801 15.9964 7.48897 15.9964 8.36994 15.9964C9.22679 15.9964 10.0818 15.9964 10.9386 15.9964C11.6137 15.9964 12.2907 15.9964 12.9658 15.9964C13.2903 15.9964 13.6149 15.9964 13.9395 15.9964C14.4959 15.9946 15.0541 15.7776 15.4362 15.3658C15.5697 15.2212 15.6977 15.0543 15.7812 14.8744C15.8998 14.6166 15.9592 14.3996 15.9907 14.1195C16 14.0398 16 13.96 16 13.8803C16 13.2256 16 12.5709 16 11.9162C16 11.1224 16 10.3286 16 9.5348C16 9.39941 16 9.26216 16 9.12677C16 8.73915 15.6587 8.36636 15.2581 8.38491C14.8557 8.40346 14.5163 8.71133 14.5163 9.12863Z" fill="#6D00E6"/>
</svg>
