<svg width="33" height="32" viewBox="0 0 33 32" fill="none" xmlns="http://www.w3.org/2000/svg">
    <path fill-rule="evenodd" clip-rule="evenodd" d="M16.5001 29.4405C23.9228 29.4405 29.9401 23.4233 29.9401 16.0005C29.9401 8.57784 23.9228 2.56055 16.5001 2.56055C9.07735 2.56055 3.06006 8.57784 3.06006 16.0005C3.06006 23.4233 9.07735 29.4405 16.5001 29.4405Z" fill="#F4E5FF"/>
    <path d="M21.2183 18.7942C20.9626 18.7942 20.7554 18.5873 20.7554 18.3313V16.0207H6.19142V18.3313C6.19142 18.5873 5.98457 18.7942 5.72828 18.7942C5.47228 18.7942 5.26514 18.5873 5.26514 18.3313V15.5576C5.26514 15.3016 5.47228 15.0947 5.72828 15.0947H21.218C21.474 15.0947 21.6814 15.3019 21.6814 15.5576V18.3313C21.6817 18.5873 21.4743 18.7942 21.2183 18.7942Z" fill="#5B476B"/>
    <path fill-rule="evenodd" clip-rule="evenodd" d="M4.51494 24.7852H22.4312C22.6867 24.7852 22.8938 24.579 22.8938 24.3227V21.4172C22.8938 21.161 22.6867 20.9541 22.4312 20.9541H4.51494C4.25866 20.9541 4.05151 21.161 4.05151 21.4172V24.3227C4.05151 24.5787 4.25894 24.7852 4.51494 24.7852ZM21.9671 23.86H4.97768V21.88H21.9671V23.86Z" fill="#5B476B"/>
    <path d="M13.6473 21.5256C13.391 21.5256 13.1838 21.319 13.1838 21.063V15.5576C13.1838 15.3016 13.391 15.0947 13.6473 15.0947C13.9033 15.0947 14.1101 15.3019 14.1101 15.5576V21.063C14.1104 21.3193 13.9033 21.5256 13.6473 21.5256Z" fill="#5B476B"/>
    <path d="M5.7295 26.6914C5.4735 26.6914 5.26636 26.4848 5.26636 26.2285V24.4997C5.26636 24.2437 5.4735 24.0371 5.7295 24.0371C5.9855 24.0371 6.19264 24.2437 6.19264 24.4997V26.2285C6.19236 26.4851 5.9855 26.6914 5.7295 26.6914Z" fill="#5B476B"/>
    <path d="M21.2192 26.6914C20.9635 26.6914 20.7563 26.4848 20.7563 26.2285V24.4997C20.7563 24.2437 20.9638 24.0371 21.2192 24.0371C21.4752 24.0371 21.6826 24.2437 21.6826 24.4997V26.2285C21.6826 26.4851 21.4752 26.6914 21.2192 26.6914Z" fill="#5B476B"/>
    <path fill-rule="evenodd" clip-rule="evenodd" d="M3.82373 19.8454C3.82373 20.8454 4.63716 21.6585 5.63744 21.6585C6.63687 21.6585 7.4503 20.8454 7.4503 19.8454C7.4503 18.8454 6.63716 18.0322 5.63744 18.0322C4.63687 18.0322 3.82373 18.8454 3.82373 19.8454ZM4.75014 19.8461C4.75014 19.3573 5.14814 18.9593 5.63757 18.9593C6.12614 18.9593 6.52385 19.357 6.52414 19.8461C6.52414 20.335 6.12614 20.7333 5.63757 20.7333C5.14814 20.7333 4.75014 20.3353 4.75014 19.8461Z" fill="#5B476B"/>
    <path fill-rule="evenodd" clip-rule="evenodd" d="M19.406 19.8454C19.406 20.8454 20.2194 21.6585 21.2197 21.6585C22.2206 21.6585 23.0334 20.8454 23.0334 19.8454C23.0334 18.8454 22.2206 18.0322 21.2197 18.0322C20.2194 18.0322 19.406 18.8454 19.406 19.8454ZM20.3322 19.8456C20.3322 19.3567 20.7299 18.9587 21.2193 18.9587C21.709 18.9587 22.1065 19.3564 22.1065 19.8456C22.1065 20.3344 21.709 20.7327 21.2193 20.7327C20.7302 20.7327 20.3322 20.3347 20.3322 19.8456Z" fill="#5B476B"/>
    <path fill-rule="evenodd" clip-rule="evenodd" d="M24.1955 22.4786H29.0875C29.3435 22.4786 29.551 22.2721 29.551 22.0158V19.8778C29.551 19.6215 29.3435 19.4141 29.0875 19.4141H24.1955C23.9401 19.4141 23.7327 19.6215 23.7327 19.8778V22.0158C23.7327 22.2718 23.9398 22.4786 24.1955 22.4786ZM28.6246 21.5524H24.6592V20.3404H28.6246V21.5524Z" fill="#5B476B"/>
    <path d="M25.5083 27.2997C25.2523 27.2997 25.0452 27.0928 25.0452 26.8366V22.0468C25.0452 21.7908 25.2526 21.584 25.5083 21.584C25.764 21.584 25.9717 21.7908 25.9717 22.0468V26.8366C25.9717 27.0931 25.764 27.2997 25.5083 27.2997Z" fill="#5B476B"/>
    <path d="M27.6703 27.2997C27.414 27.2997 27.2063 27.0928 27.2063 26.8366V22.0468C27.2063 21.7908 27.414 21.584 27.6703 21.584C27.9257 21.584 28.1329 21.7908 28.1329 22.0468V26.8366C28.1329 27.0931 27.9257 27.2997 27.6703 27.2997Z" fill="#5B476B"/>
    <path d="M27.6697 24.7858H25.5083C25.2523 24.7858 25.0452 24.5792 25.0452 24.3232C25.0452 24.0669 25.2526 23.8604 25.5083 23.8604H27.6697C27.9252 23.8604 28.1323 24.0669 28.1323 24.3232C28.1323 24.5795 27.9252 24.7858 27.6697 24.7858Z" fill="#5B476B"/>
    <path fill-rule="evenodd" clip-rule="evenodd" d="M6.70431 12.5001H20.3892C20.6449 12.5001 20.852 12.2933 20.852 12.037V5.06471C20.852 4.80871 20.6452 4.60156 20.3892 4.60156H6.70431C6.4486 4.60156 6.24146 4.80871 6.24146 5.06471V12.0367C6.24146 12.293 6.44831 12.5001 6.70431 12.5001ZM19.9261 11.5742H7.16783V5.5279H19.9261V11.5742Z" fill="#5B476B"/>
    <path fill-rule="evenodd" clip-rule="evenodd" d="M8.70733 10.7833H18.3836C18.6396 10.7833 18.847 10.5765 18.847 10.3202V6.78248C18.847 6.52648 18.6396 6.31934 18.3836 6.31934H8.70733C8.45133 6.31934 8.2439 6.52648 8.2439 6.78248V10.3202C8.2439 10.5765 8.45133 10.7833 8.70733 10.7833ZM17.9206 9.85669H9.17062V7.24498H17.9206V9.85669Z" fill="#5B476B"/>
    <path fill-rule="evenodd" clip-rule="evenodd" d="M24.8501 17.8165C24.8501 18.8676 25.6535 19.7228 26.6404 19.7228C27.6281 19.7228 28.431 18.8673 28.4235 17.731L27.6527 13.5876C27.6215 13.4208 27.5015 13.2845 27.3392 13.2319C27.1795 13.1788 27.0012 13.2196 26.8772 13.3379L25.6035 14.5536C25.5361 14.6179 25.4892 14.7019 25.4707 14.7933L24.8598 17.7219C24.8538 17.753 24.8501 17.785 24.8501 17.8165ZM26.6402 18.7954C26.1765 18.7954 25.7971 18.3791 25.7771 17.8594L26.3479 15.1226L26.8996 14.596L27.5053 17.8157C27.5053 18.356 27.1168 18.7954 26.6402 18.7954Z" fill="#5B476B"/>
</svg>
