<svg width="32" height="33" viewBox="0 0 32 33" fill="none" xmlns="http://www.w3.org/2000/svg">
<path fill-rule="evenodd" clip-rule="evenodd" d="M16.0001 29.9405C23.4228 29.9405 29.4401 23.9233 29.4401 16.5005C29.4401 9.07784 23.4228 3.06055 16.0001 3.06055C8.57735 3.06055 2.56006 9.07784 2.56006 16.5005C2.56006 23.9233 8.57735 29.9405 16.0001 29.9405Z" fill="#F4E5FF"/>
<path d="M6.1 25.4997H19.6667V24.7663H16.3667V21.833H18.2V21.0997H10.8667V20.3663H18.2V19.633H10.8667C10.6722 19.6332 10.4858 19.7105 10.3483 19.848C10.2109 19.9855 10.1335 20.1719 10.1333 20.3663V20.733H7.93333V19.9997C7.93235 19.6754 7.82383 19.3606 7.62478 19.1046C7.42572 18.8486 7.14737 18.6659 6.83333 18.5851V17.433C6.83346 17.3358 6.87213 17.2426 6.94087 17.1739C7.0096 17.1051 7.10279 17.0665 7.2 17.0663H18.2V16.333H7.2C6.90836 16.3333 6.62876 16.4493 6.42253 16.6555C6.21631 16.8618 6.10032 17.1414 6.1 17.433V18.5851C5.78596 18.6659 5.50761 18.8486 5.30856 19.1046C5.1095 19.3606 5.00098 19.6754 5 19.9997V24.3997C5.00032 24.6913 5.11631 24.9709 5.32253 25.1771C5.52876 25.3834 5.80836 25.4994 6.1 25.4997ZM15.6333 21.833V24.7663H11.6V21.833H15.6333ZM10.2353 21.4663C10.2992 21.5774 10.3911 21.6698 10.5019 21.7342C10.6127 21.7985 10.7385 21.8326 10.8667 21.833V24.7663H7.93333V21.4663H10.2353ZM5.73333 19.9997C5.73333 19.8052 5.81059 19.6187 5.94812 19.4811C6.08565 19.3436 6.27217 19.2663 6.46667 19.2663C6.66116 19.2663 6.84769 19.3436 6.98521 19.4811C7.12274 19.6187 7.2 19.8052 7.2 19.9997V24.7663H6.1C6.00279 24.7662 5.9096 24.7275 5.84087 24.6588C5.77213 24.5901 5.73346 24.4969 5.73333 24.3997V19.9997Z" fill="#5B476B"/>
<path d="M15.6334 3.5V6.8H11.9667C11.6751 6.80032 11.3955 6.91631 11.1892 7.12253C10.983 7.32876 10.867 7.60836 10.8667 7.9V8.63333C10.867 8.92497 10.983 9.20458 11.1892 9.4108C11.3955 9.61702 11.6751 9.73302 11.9667 9.73333H12.1067L12.9027 11.3253C12.9935 11.5085 13.1338 11.6625 13.3077 11.7699C13.4816 11.8774 13.6821 11.934 13.8865 11.9333H18.1136C18.318 11.934 18.5185 11.8774 18.6924 11.7699C18.8662 11.6625 19.0065 11.5085 19.0974 11.3253L19.8934 9.73333H20.0334C20.325 9.73302 20.6046 9.61702 20.8108 9.4108C21.0171 9.20458 21.133 8.92497 21.1334 8.63333V7.9C21.133 7.60836 21.0171 7.32876 20.8108 7.12253C20.6046 6.91631 20.325 6.80032 20.0334 6.8H16.3667V3.5H15.6334ZM17.4667 9V7.53333H18.9334V9H17.4667ZM13.0667 9V7.53333H14.5334V9H13.0667ZM17.24 9.73333L16.5067 11.2H15.4934L14.76 9.73333H17.24ZM16.7334 9H15.2667V7.53333H16.7334V9ZM11.6 8.63333V7.9C11.6002 7.80279 11.6388 7.7096 11.7076 7.64087C11.7763 7.57213 11.8695 7.53346 11.9667 7.53333H12.3334V9H11.9667C11.8695 8.99987 11.7763 8.9612 11.7076 8.89247C11.6388 8.82373 11.6002 8.73054 11.6 8.63333ZM13.5587 10.9973L12.9267 9.73333H13.94L14.6734 11.2H13.8865C13.8184 11.2002 13.7516 11.1813 13.6936 11.1455C13.6357 11.1097 13.589 11.0584 13.5587 10.9973ZM18.4414 10.9973C18.4111 11.0584 18.3644 11.1097 18.3064 11.1455C18.2485 11.1813 18.1817 11.2002 18.1136 11.2H17.3267L18.06 9.73333H19.0734L18.4414 10.9973ZM20.4 7.9V8.63333C20.3999 8.73054 20.3612 8.82373 20.2925 8.89247C20.2238 8.9612 20.1306 8.99987 20.0334 9H19.6667V7.53333H20.0334C20.1306 7.53346 20.2238 7.57213 20.2925 7.64087C20.3612 7.7096 20.3999 7.80279 20.4 7.9Z" fill="#5B476B"/>
<path d="M15.6333 14.1338H16.3666V15.2338H15.6333V14.1338Z" fill="#5B476B"/>
<path d="M10.2947 12.7188L11.0725 11.9409L11.591 12.4595L10.8132 13.2373L10.2947 12.7188Z" fill="#5B476B"/>
<path d="M8.30005 7.16699H9.40005V7.90033H8.30005V7.16699Z" fill="#5B476B"/>
<path d="M22.6001 7.16699H23.7001V7.90033H22.6001V7.16699Z" fill="#5B476B"/>
<path d="M20.4053 12.46L20.9238 11.9414L21.7016 12.7192L21.1831 13.2378L20.4053 12.46Z" fill="#5B476B"/>
<path d="M25.9 16.7H24.8V15.6C24.7997 15.3084 24.6837 15.0288 24.4775 14.8225C24.2713 14.6163 23.9917 14.5003 23.7 14.5H22.2333C21.9417 14.5003 21.6621 14.6163 21.4559 14.8225C21.2497 15.0288 21.1337 15.3084 21.1333 15.6V16.7H20.0333C19.7417 16.7003 19.4621 16.8163 19.2559 17.0225C19.0497 17.2288 18.9337 17.5084 18.9333 17.8V22.9333C18.9337 23.225 19.0497 23.5046 19.2559 23.7108C19.4621 23.917 19.7417 24.033 20.0333 24.0333H20.4676C20.4241 24.1508 20.4013 24.2748 20.4 24.4C20.4 24.6917 20.5159 24.9715 20.7222 25.1778C20.9285 25.3841 21.2083 25.5 21.5 25.5C21.7918 25.5 22.0715 25.3841 22.2778 25.1778C22.4841 24.9715 22.6 24.6917 22.6 24.4C22.5988 24.2748 22.5759 24.1508 22.5325 24.0333H23.4009C23.3574 24.1508 23.3346 24.2748 23.3333 24.4C23.3333 24.6917 23.4492 24.9715 23.6555 25.1778C23.8618 25.3841 24.1416 25.5 24.4333 25.5C24.7251 25.5 25.0049 25.3841 25.2112 25.1778C25.4175 24.9715 25.5333 24.6917 25.5333 24.4C25.5321 24.2748 25.5093 24.1508 25.4658 24.0333H25.9C26.1917 24.033 26.4713 23.917 26.6775 23.7108C26.8837 23.5046 26.9997 23.225 27 22.9333V17.8C26.9997 17.5084 26.8837 17.2288 26.6775 17.0225C26.4713 16.8163 26.1917 16.7003 25.9 16.7ZM21.8667 15.6C21.8668 15.5028 21.9055 15.4096 21.9742 15.3409C22.043 15.2721 22.1361 15.2335 22.2333 15.2333H23.7C23.7972 15.2335 23.8904 15.2721 23.9591 15.3409C24.0279 15.4096 24.0666 15.5028 24.0667 15.6V16.7H21.8667V15.6ZM21.8667 24.4C21.8667 24.4725 21.8452 24.5434 21.8049 24.6037C21.7646 24.664 21.7073 24.711 21.6403 24.7388C21.5733 24.7665 21.4996 24.7738 21.4285 24.7596C21.3574 24.7455 21.292 24.7106 21.2407 24.6593C21.1895 24.608 21.1545 24.5427 21.1404 24.4715C21.1262 24.4004 21.1335 24.3267 21.1613 24.2597C21.189 24.1927 21.236 24.1354 21.2963 24.0951C21.3566 24.0548 21.4275 24.0333 21.5 24.0333C21.5972 24.0335 21.6904 24.0721 21.7591 24.1409C21.8279 24.2096 21.8666 24.3028 21.8667 24.4ZM24.8 24.4C24.8 24.4725 24.7785 24.5434 24.7382 24.6037C24.6979 24.664 24.6407 24.711 24.5737 24.7388C24.5067 24.7665 24.4329 24.7738 24.3618 24.7596C24.2907 24.7455 24.2254 24.7106 24.1741 24.6593C24.1228 24.608 24.0879 24.5427 24.0737 24.4715C24.0596 24.4004 24.0668 24.3267 24.0946 24.2597C24.1223 24.1927 24.1693 24.1354 24.2296 24.0951C24.2899 24.0548 24.3608 24.0333 24.4333 24.0333C24.5306 24.0335 24.6237 24.0721 24.6925 24.1409C24.7612 24.2096 24.7999 24.3028 24.8 24.4ZM26.2667 22.9333C26.2666 23.0305 26.2279 23.1237 26.1591 23.1925C26.0904 23.2612 25.9972 23.2999 25.9 23.3H20.0333C19.9361 23.2999 19.843 23.2612 19.7742 23.1925C19.7055 23.1237 19.6668 23.0305 19.6667 22.9333V17.8C19.6668 17.7028 19.7055 17.6096 19.7742 17.5409C19.843 17.4721 19.9361 17.4335 20.0333 17.4333H20.7667V21.8333H21.5V17.4333H22.6V21.8333H23.3333V17.4333H24.4333V21.8333H25.1667V17.4333H25.9C25.9972 17.4335 26.0904 17.4721 26.1591 17.5409C26.2279 17.6096 26.2666 17.7028 26.2667 17.8V22.9333Z" fill="#5B476B"/>
</svg>
