<!-- <svg width="945" height="159" viewBox="0 0 945 159" fill="none" xmlns="http://www.w3.org/2000/svg"> -->
<svg viewBox="0 0 945 159" fill="none" xmlns="http://www.w3.org/2000/svg">
<path fill-rule="evenodd" clip-rule="evenodd" d="M222.538 92.1175H236.886L256.155 125.1H276.519L255.336 89.268C266.269 84.2448 273.786 73.5228 273.786 61.5793C273.772 53.2085 270.408 45.1865 264.436 39.2802C258.463 33.3739 250.372 30.0678 241.943 30.0901H203.678V125.1H222.538V92.1175ZM241.942 75.6939H222.538L222.539 47.5997H241.943C249.051 47.5997 254.92 53.7079 254.92 61.5792C254.92 69.4506 249.05 75.6939 241.942 75.6939Z" fill="#7F00F5"/>
<path fill-rule="evenodd" clip-rule="evenodd" d="M308.473 55.6964C294.857 61.3509 285.994 74.656 286.022 89.3986C285.919 99.0704 289.715 108.376 296.554 115.216C303.394 122.055 312.699 125.852 322.371 125.749C337.114 125.777 350.419 116.914 356.074 103.3C361.729 89.6846 358.618 74.0033 348.193 63.5785C337.769 53.1537 322.088 50.042 308.473 55.6964ZM322.371 70.3995C332.971 70.3995 341.096 78.2461 341.096 89.3985C341.096 100.552 332.974 108.4 322.371 108.4C311.908 108.4 303.783 100.551 303.783 89.3985C303.783 78.2461 311.908 70.3995 322.371 70.3995Z" fill="#7F00F5"/>
<path d="M368.362 89.3274C368.362 68.7734 383.563 52.9102 404.195 52.9102C417.495 52.9102 429.032 60.0824 434.597 70.7054L419.531 79.6723C416.565 73.8106 410.539 70.2117 404.057 70.4294C393.607 70.4294 385.87 78.2936 385.87 89.3274C385.87 100.226 393.607 108.089 404.057 108.089C411.117 108.089 416.953 104.64 419.666 98.985L434.869 107.815C428.627 119.03 416.872 125.903 404.195 125.748C383.563 125.747 368.362 109.883 368.362 89.3274Z" fill="#7F00F5"/>
<path d="M493.433 125.098L468.429 94.2891V125.098H450.704V30.09H468.429V87.0948L492.059 57.2353H513.215L485.603 90.7602L514.043 125.1L493.433 125.098Z" fill="#7F00F5"/>
<path fill-rule="evenodd" clip-rule="evenodd" d="M572.665 102.713C569.702 106.712 564.31 109.61 557.574 109.61C548.409 109.61 540.996 105.748 538.572 96.6406H589.377C589.815 94.229 590.041 91.7821 590.052 89.3293C590.052 69.0502 575.901 52.9102 555.955 52.9102C534.798 52.9102 520.378 68.7729 520.378 89.3293C520.378 109.886 534.662 125.751 557.303 125.751C570.24 125.751 580.344 120.372 586.681 110.99L572.665 102.713ZM555.957 68.9128C563.236 68.9128 570.513 72.9131 572.667 82.846H538.305C540.326 74.0159 546.66 68.9128 555.957 68.9128Z" fill="#7F00F5"/>
<path d="M628.661 72.774V101.413C628.661 108.846 633.916 108.984 643.89 108.434V124.542C619.496 127.295 611.275 119.999 611.275 101.413V72.774H599.552V55.7033H611.275V41.7984L628.661 36.4289V55.7033H643.89V72.774H628.661Z" fill="#7F00F5"/>
<path fill-rule="evenodd" clip-rule="evenodd" d="M699.259 93.882C718.073 93.882 732.566 79.7661 732.566 61.986C732.566 44.2084 718.073 30.09 699.255 30.09H662.892V125.1H682.118V93.882H699.259ZM699.259 47.5947C707.483 47.5947 713.476 53.7066 713.476 61.986C713.476 70.1302 707.478 76.3697 699.255 76.3697H682.118V47.5947H699.259Z" fill="#7F00F5"/>
<path d="M748.401 23.7511H767.403V125.095H748.401V23.7511Z" fill="#7F00F5"/>
<path fill-rule="evenodd" clip-rule="evenodd" d="M859.246 123.821V54.841H841.678V62.9818C836.778 56.7732 829.425 52.9102 819.487 52.9102C801.385 52.9102 786.405 68.7719 786.405 89.3287C786.405 109.885 801.381 125.751 819.483 125.751C829.421 125.751 836.779 121.888 841.674 115.681V123.821H859.246ZM822.752 69.8773C833.641 69.8773 841.674 77.7421 841.674 89.33C841.674 100.92 833.647 108.783 822.752 108.783C811.999 108.783 803.966 100.918 803.966 89.33C803.966 77.7421 811.998 69.8773 822.752 69.8773Z" fill="#7F00F5"/>
<path d="M944.754 83.5035V125.12H927.256V85.6718C927.256 76.4538 921.695 71.7111 913.83 71.7111C905.284 71.7111 898.909 76.725 898.909 88.5175V125.116H881.415V57.3429H898.909V64.9325C902.978 58.8338 910.033 55.4458 919.119 55.4458C933.497 55.4458 944.754 65.4749 944.754 83.5035Z" fill="#7F00F5"/>
<g clip-path="url(#clip0_1)">
<path d="M79.2455 158.491C123.012 158.491 158.491 123.012 158.491 79.2455C158.491 35.4794 123.012 0 79.2455 0C35.4794 0 0 35.4794 0 79.2455C0 123.012 35.4794 158.491 79.2455 158.491Z" fill="url(#paint0_linear_1)"/>
<path fill-rule="evenodd" clip-rule="evenodd" d="M151.811 94.6696C154.223 83.214 153.894 71.3505 150.851 60.0462C147.807 48.7419 142.135 38.3169 134.298 29.6208C126.46 20.9248 116.678 14.204 105.75 10.0062C94.8215 5.8084 83.0559 4.25248 71.412 5.46527C58.6022 6.76675 46.366 11.4392 35.9489 19.0068C27.219 25.2844 19.9576 33.3841 14.6675 42.7454C9.37734 52.1067 6.18484 62.5058 5.31101 73.2229C4.43717 83.9399 5.90286 94.7188 9.60662 104.813C13.3104 114.908 19.1637 124.077 26.7614 131.686C34.3591 139.295 43.5196 145.162 53.6087 148.88C63.6979 152.599 74.4747 154.08 85.193 153.222C95.9113 152.364 106.315 149.187 115.684 143.91C125.053 138.634 133.164 131.384 139.454 122.664C145.572 114.349 149.79 104.793 151.811 94.6696ZM83.7998 68.0115L86.8361 64.9753C93.4115 58.7733 101.014 53.7599 109.304 50.1585C105.24 58.2051 99.8286 65.4963 93.3032 71.7157L90.267 74.752L83.7998 68.0115ZM77.7274 147.348C74.4161 147.243 71.1175 146.887 67.8596 146.285C43.5698 139.15 44.1771 118.534 61.7872 102.351L64.8234 105.387L64.2465 129.374L78.7597 115.377L79.1848 98.1613L94.3659 83.6785C106.258 72.3743 115.577 58.6433 121.692 43.4181L125.032 35.0381L116.409 38.0743C100.997 43.4066 86.9065 51.979 75.0859 63.2143L59.9047 77.7882L42.5072 77.3935L27.8118 91.3905L51.798 91.9674L54.8342 95.0036C39.9264 111.126 17.9441 112.523 12.0538 88.2024C11.8984 87.5631 11.7868 86.9138 11.7198 86.2593C10.3623 74.3513 12.2205 62.2971 17.101 51.3507C21.9815 40.4043 29.706 30.9656 39.4709 24.0166C48.9234 17.1198 60.0218 12.8271 71.6549 11.5681C81.9544 10.3963 92.3854 11.5985 102.148 15.0826C111.911 18.5667 120.746 24.2401 127.977 31.6679L128.554 32.2751C134.743 38.7279 139.591 46.3439 142.817 54.6826C146.043 63.0212 147.583 71.9169 147.348 80.8548C147.131 89.8056 145.153 98.6259 141.525 106.811C137.898 114.997 132.692 122.387 126.207 128.56C119.721 134.733 112.083 139.566 103.728 142.785C95.3727 146.004 86.4654 147.544 77.5149 147.318L77.7274 147.348Z" fill="white"/>
</g>
<defs>
<linearGradient id="paint0_linear_1" x1="23.2271" y1="135.294" x2="135.294" y2="23.2271" gradientUnits="userSpaceOnUse">
<stop stop-color="#6D00E6"/>
<stop offset="1" stop-color="#9601FF"/>
</linearGradient>
<clipPath id="clip0_1">
<rect width="158.521" height="158.521" fill="white"/>
</clipPath>
</defs>
</svg>
