<svg width="300" height="300" viewBox="0 0 300 300" fill="none" xmlns="http://www.w3.org/2000/svg">
<path d="M149.971 299.943C232.798 299.943 299.943 232.798 299.943 149.971C299.943 67.1444 232.798 0 149.971 0C67.1444 0 0 67.1444 0 149.971C0 232.798 67.1444 299.943 149.971 299.943Z" fill="url(#paint0_linear)"/>
<path fill-rule="evenodd" clip-rule="evenodd" d="M287.301 179.161C291.866 157.481 291.243 135.03 285.483 113.637C279.723 92.2433 268.989 72.514 254.156 56.0569C239.324 39.5998 220.812 26.8807 200.13 18.9364C179.448 10.9921 157.182 8.04756 135.146 10.3428C110.904 12.8058 87.7468 21.6483 68.0326 35.97C51.5113 47.8502 37.7692 63.1789 27.7577 80.895C17.7462 98.6111 11.7044 118.291 10.0507 138.573C8.39698 158.855 11.1708 179.254 18.1801 198.358C25.1894 217.462 36.2668 234.814 50.6453 249.214C65.0238 263.614 82.36 274.716 101.454 281.754C120.547 288.791 140.942 291.595 161.227 289.971C181.511 288.347 201.2 282.334 218.931 272.348C236.661 262.363 252.01 248.643 263.915 232.139C275.493 216.404 283.476 198.319 287.301 179.161ZM158.59 128.711L164.336 122.965C176.78 111.228 191.167 101.74 206.857 94.9242C199.166 110.152 188.924 123.951 176.575 135.721L170.829 141.467L158.59 128.711ZM147.098 278.855C140.831 278.655 134.589 277.983 128.423 276.843C82.4551 263.34 83.6043 224.325 116.931 193.698L122.677 199.444L121.586 244.838L149.052 218.349L149.856 185.769L178.586 158.36C201.091 136.967 218.728 110.982 230.3 82.1681L236.621 66.309L220.302 72.0551C191.135 82.1463 164.469 98.3694 142.099 119.632L113.369 147.213L80.444 146.466L52.6332 172.955L98.0268 174.047L103.773 179.793C75.5599 210.304 33.9587 212.948 22.8114 166.922C22.5172 165.712 22.306 164.483 22.1793 163.244C19.6103 140.709 23.1268 117.896 32.3631 97.1804C41.5993 76.4644 56.2179 58.6019 74.698 45.451C92.5867 32.3989 113.59 24.2749 135.606 21.8923C155.097 19.6746 174.838 21.9498 193.314 28.5434C211.79 35.137 228.511 45.8739 242.195 59.931L243.286 61.0802C254.999 73.2918 264.173 87.7052 270.278 103.486C276.384 119.267 279.298 136.102 278.854 153.017C278.444 169.956 274.7 186.648 267.835 202.139C260.969 217.631 251.118 231.617 238.844 243.298C226.571 254.98 212.115 264.128 196.303 270.219C180.492 276.31 163.634 279.225 146.696 278.797L147.098 278.855Z" fill="white"/>
<defs>
<linearGradient id="paint0_linear" x1="43.9571" y1="256.043" x2="256.043" y2="43.9571" gradientUnits="userSpaceOnUse">
<stop stop-color="#6D00E6"/>
<stop offset="1" stop-color="#9601FF"/>
</linearGradient>
</defs>
</svg>
