<svg width="32" height="32" viewBox="0 0 32 32" fill="none" xmlns="http://www.w3.org/2000/svg">
<path fill-rule="evenodd" clip-rule="evenodd" d="M15.7256 29.1657C23.1484 29.1657 29.1656 23.1484 29.1656 15.7257C29.1656 8.303 23.1484 2.28571 15.7256 2.28571C8.30294 2.28571 2.28564 8.303 2.28564 15.7257C2.28564 23.1484 8.30294 29.1657 15.7256 29.1657Z" fill="#F4E5FF"/>
<g clip-path="url(#clip0)">
<path d="M16.3693 23.5096C14.9125 23.5133 13.4874 23.0847 12.2743 22.2781C11.0613 21.4714 10.1148 20.323 9.55476 18.9782C8.99471 17.6333 8.84626 16.1526 9.1282 14.7234C9.41013 13.2941 10.1098 11.9807 11.1386 10.9493C12.1674 9.91787 13.479 9.21489 14.9075 8.92933C16.3361 8.64376 17.8172 8.78845 19.1634 9.34508C20.5097 9.9017 21.6605 10.8452 22.4702 12.0562C23.2799 13.2673 23.7122 14.6913 23.7122 16.1481C23.7097 18.0965 22.9359 19.9647 21.5599 21.3442C20.1839 22.7237 18.3177 23.5022 16.3693 23.5096ZM16.3693 9.60806C15.0767 9.60806 13.8132 9.99135 12.7384 10.7095C11.6637 11.4276 10.8261 12.4483 10.3314 13.6424C9.83677 14.8366 9.70735 16.1506 9.95952 17.4184C10.2117 18.6861 10.8341 19.8506 11.7481 20.7646C12.6621 21.6785 13.8266 22.301 15.0943 22.5531C16.362 22.8053 17.676 22.6759 18.8702 22.1812C20.0644 21.6866 21.0851 20.8489 21.8032 19.7742C22.5213 18.6995 22.9046 17.436 22.9046 16.1434C22.9046 14.4101 22.216 12.7478 20.9904 11.5222C19.7648 10.2966 18.1025 9.60806 16.3693 9.60806Z" fill="#5B476B"/>
<path d="M16.3723 20.7185C15.4684 20.7185 14.5849 20.4505 13.8333 19.9483C13.0818 19.4461 12.496 18.7324 12.1501 17.8973C11.8042 17.0622 11.7137 16.1434 11.8901 15.2569C12.0664 14.3704 12.5017 13.556 13.1408 12.9169C13.7799 12.2778 14.5942 11.8425 15.4807 11.6662C16.3672 11.4898 17.2861 11.5803 18.1212 11.9262C18.9563 12.2721 19.67 12.8579 20.1722 13.6094C20.6743 14.361 20.9424 15.2446 20.9424 16.1484C20.9411 17.3601 20.4592 18.5218 19.6025 19.3786C18.7457 20.2354 17.584 20.7173 16.3723 20.7185ZM16.3723 12.4C15.6337 12.4 14.9117 12.619 14.2975 13.0293C13.6834 13.4397 13.2048 14.0229 12.9221 14.7053C12.6395 15.3877 12.5655 16.1386 12.7096 16.863C12.8537 17.5874 13.2094 18.2528 13.7316 18.7751C14.2539 19.2974 14.9193 19.653 15.6437 19.7971C16.3682 19.9412 17.119 19.8673 17.8014 19.5846C18.4838 19.302 19.0671 18.8233 19.4774 18.2092C19.8878 17.5951 20.1068 16.873 20.1068 16.1344C20.1068 15.144 19.7133 14.1941 19.013 13.4938C18.3126 12.7934 17.3627 12.4 16.3723 12.4Z" fill="#5B476B"/>
<path d="M26.2447 23.5105C26.0436 23.5084 25.845 23.4661 25.6606 23.3859C25.4762 23.3057 25.3097 23.1893 25.1711 23.0437C25.0203 22.8953 24.9011 22.7178 24.8209 22.522C24.7406 22.3262 24.701 22.1162 24.7043 21.9047L24.8817 13.124C24.5449 12.9032 24.2686 12.6019 24.0779 12.2473C23.8871 11.8927 23.7879 11.496 23.7893 11.0934V6.41128C23.7893 6.29737 23.8346 6.18814 23.9151 6.1076C23.9956 6.02706 24.1049 5.98181 24.2188 5.98181C24.3327 5.98181 24.4419 6.02706 24.5225 6.1076C24.603 6.18814 24.6482 6.29737 24.6482 6.41128V11.0794C24.6419 11.3774 24.7184 11.6714 24.8692 11.9285C25.02 12.1857 25.2393 12.3959 25.5025 12.5358C25.5702 12.5714 25.6267 12.6253 25.6654 12.6913C25.7042 12.7572 25.7238 12.8327 25.7219 12.9093L25.5445 21.928C25.5409 22.0296 25.5581 22.1308 25.5951 22.2256C25.632 22.3203 25.6879 22.4065 25.7593 22.4788C25.8231 22.5433 25.899 22.5945 25.9828 22.6295C26.0665 22.6644 26.1563 22.6824 26.2471 22.6824C26.3378 22.6824 26.4276 22.6644 26.5114 22.6295C26.5951 22.5945 26.6711 22.5433 26.7349 22.4788C26.8063 22.4065 26.8621 22.3203 26.8991 22.2256C26.936 22.1308 26.9532 22.0296 26.9496 21.928L26.7676 12.9093C26.7668 12.8335 26.7863 12.759 26.8241 12.6933C26.8618 12.6276 26.9165 12.5733 26.9823 12.5358C27.2455 12.4002 27.4662 12.1947 27.6202 11.9419C27.7742 11.6891 27.8555 11.3987 27.8552 11.1027V6.41128C27.8552 6.30233 27.8985 6.19784 27.9755 6.1208C28.0526 6.04376 28.1571 6.00048 28.266 6.00048C28.375 6.00048 28.4795 6.04376 28.5565 6.1208C28.6335 6.19784 28.6768 6.30233 28.6768 6.41128V11.0794C28.6782 11.482 28.579 11.8786 28.3883 12.2333C28.1975 12.5879 27.9212 12.8892 27.5845 13.11L27.7619 21.8907C27.7652 22.1022 27.7255 22.3122 27.6452 22.508C27.565 22.7038 27.4459 22.8813 27.2951 23.0297C27.1603 23.1751 26.9982 23.2925 26.8179 23.375C26.6377 23.4575 26.4429 23.5036 26.2447 23.5105Z" fill="#5B476B"/>
<path d="M25.58 10.7759C25.4714 10.7747 25.3676 10.7311 25.2908 10.6543C25.2141 10.5775 25.1704 10.4737 25.1692 10.3652V6.41128C25.1692 6.30233 25.2125 6.19784 25.2895 6.12081C25.3665 6.04377 25.471 6.00049 25.58 6.00049C25.6889 6.00049 25.7934 6.04377 25.8705 6.12081C25.9475 6.19784 25.9908 6.30233 25.9908 6.41128V10.3652C25.9908 10.4741 25.9475 10.5786 25.8705 10.6556C25.7934 10.7327 25.6889 10.7759 25.58 10.7759Z" fill="#5B476B"/>
<path d="M25.58 10.7759C25.4714 10.7747 25.3676 10.7311 25.2908 10.6543C25.2141 10.5775 25.1704 10.4737 25.1692 10.3652V6.41128C25.1692 6.30233 25.2125 6.19784 25.2895 6.12081C25.3665 6.04377 25.471 6.00049 25.58 6.00049C25.6889 6.00049 25.7934 6.04377 25.8705 6.12081C25.9475 6.19784 25.9908 6.30233 25.9908 6.41128V10.3652C25.9908 10.4741 25.9475 10.5786 25.8705 10.6556C25.7934 10.7327 25.6889 10.7759 25.58 10.7759Z" fill="#5B476B"/>
<path d="M26.9219 10.7756C26.8137 10.7744 26.7105 10.7306 26.6344 10.6536C26.5584 10.5767 26.5158 10.473 26.5158 10.3648V6.41094C26.5096 6.35363 26.5156 6.29568 26.5334 6.24084C26.5511 6.186 26.5802 6.1355 26.6187 6.09263C26.6572 6.04977 26.7043 6.01548 26.757 5.99202C26.8096 5.96855 26.8666 5.95642 26.9242 5.95642C26.9819 5.95642 27.0388 5.96855 27.0915 5.99202C27.1441 6.01548 27.1912 6.04977 27.2298 6.09263C27.2683 6.1355 27.2974 6.186 27.3151 6.24084C27.3328 6.29568 27.3388 6.35363 27.3327 6.41094V10.3648C27.3327 10.4738 27.2894 10.5782 27.2124 10.6553C27.1353 10.7323 27.0308 10.7756 26.9219 10.7756Z" fill="#5B476B"/>
<path d="M26.9289 10.7759C26.8745 10.7766 26.8206 10.7664 26.7703 10.746C26.7199 10.7257 26.674 10.6955 26.6354 10.6573C26.5968 10.6191 26.5661 10.5736 26.5451 10.5234C26.5242 10.4733 26.5134 10.4195 26.5134 10.3652V6.41128C26.5134 6.30233 26.5567 6.19784 26.6337 6.12081C26.7108 6.04377 26.8153 6.00049 26.9242 6.00049C27.0332 6.00049 27.1377 6.04377 27.2147 6.12081C27.2917 6.19784 27.335 6.30233 27.335 6.41128V10.3652C27.3338 10.4729 27.2908 10.576 27.215 10.6527C27.1392 10.7293 27.0366 10.7735 26.9289 10.7759Z" fill="#5B476B"/>
<path d="M5.37795 23.5106C5.03455 23.5169 4.70267 23.3868 4.45505 23.1488C4.20742 22.9108 4.06424 22.5843 4.05688 22.2409V7.06498C4.05932 6.92275 4.08974 6.78239 4.14643 6.65193C4.20311 6.52146 4.28494 6.40344 4.38724 6.3046C4.48955 6.20577 4.61032 6.12805 4.74266 6.0759C4.87501 6.02375 5.01633 5.99818 5.15855 6.00065C5.34387 6.00015 5.52637 6.04602 5.68944 6.13407C5.8525 6.22213 5.99095 6.34957 6.09217 6.50481C7.22622 8.25762 7.83375 10.2989 7.8427 12.3866V13.9364C7.84149 14.0198 7.82386 14.1021 7.79082 14.1787C7.75779 14.2552 7.71 14.3245 7.65018 14.3826C7.59035 14.4407 7.51968 14.4864 7.44218 14.5172C7.36468 14.548 7.28188 14.5632 7.19851 14.5619H6.7317V22.2409C6.72813 22.4138 6.69005 22.5842 6.6197 22.7422C6.54935 22.9001 6.44815 23.0424 6.32203 23.1607C6.19592 23.279 6.04744 23.3709 5.88532 23.431C5.72319 23.4911 5.5507 23.5181 5.37795 23.5106ZM5.15855 6.82224C5.12421 6.81969 5.08969 6.82396 5.057 6.8348C5.02431 6.84564 4.99408 6.86283 4.96806 6.88539C4.94203 6.90795 4.92072 6.93542 4.90534 6.96624C4.88997 6.99706 4.88083 7.03062 4.87847 7.06498V22.2409C4.87831 22.3051 4.89138 22.3686 4.91685 22.4275C4.94233 22.4863 4.97967 22.5393 5.02654 22.5831C5.07341 22.6269 5.1288 22.6606 5.18926 22.682C5.24973 22.7035 5.31396 22.7122 5.37795 22.7077C5.44232 22.7129 5.50706 22.7047 5.56808 22.6835C5.6291 22.6624 5.68507 22.6288 5.73245 22.585C5.77984 22.5411 5.8176 22.4879 5.84336 22.4286C5.86912 22.3694 5.88231 22.3055 5.88211 22.2409V14.4032C5.88271 14.3145 5.90086 14.2269 5.9355 14.1452C5.97014 14.0636 6.02058 13.9896 6.08394 13.9276C6.14728 13.8655 6.22229 13.8166 6.30462 13.7837C6.38695 13.7508 6.47498 13.7344 6.56365 13.7357H7.03046V12.3866C7.0252 10.4513 6.46286 8.5585 5.41063 6.93427C5.38098 6.89641 5.34249 6.8664 5.29854 6.84686C5.25459 6.82733 5.20653 6.81888 5.15855 6.82224Z" fill="#5B476B"/>
<path d="M7.19255 14.5754H5.60073C5.49178 14.5754 5.3873 14.5321 5.31026 14.4551C5.23322 14.3781 5.18994 14.2736 5.18994 14.1646C5.18994 14.0557 5.23322 13.9512 5.31026 13.8742C5.3873 13.7971 5.49178 13.7538 5.60073 13.7538H7.19255C7.3015 13.7538 7.40599 13.7971 7.48302 13.8742C7.56006 13.9512 7.60334 14.0557 7.60334 14.1646C7.60334 14.2736 7.56006 14.3781 7.48302 14.4551C7.40599 14.5321 7.3015 14.5754 7.19255 14.5754Z" fill="#5B476B"/>
<path d="M28.7778 23.5099H3.11733C3.06339 23.5099 3.00997 23.4993 2.96013 23.4786C2.91029 23.458 2.86501 23.4277 2.82686 23.3896C2.78872 23.3514 2.75846 23.3061 2.73781 23.2563C2.71717 23.2064 2.70654 23.153 2.70654 23.0991C2.70654 23.0451 2.71717 22.9917 2.73781 22.9419C2.75846 22.892 2.78872 22.8468 2.82686 22.8086C2.86501 22.7705 2.91029 22.7402 2.96013 22.7196C3.00997 22.6989 3.06339 22.6883 3.11733 22.6883H28.7918C28.8458 22.6883 28.8992 22.6989 28.949 22.7196C28.9989 22.7402 29.0441 22.7705 29.0823 22.8086C29.1204 22.8468 29.1507 22.892 29.1713 22.9419C29.192 22.9917 29.2026 23.0451 29.2026 23.0991C29.2026 23.153 29.192 23.2064 29.1713 23.2563C29.1507 23.3061 29.1204 23.3514 29.0823 23.3896C29.0441 23.4277 28.9989 23.458 28.949 23.4786C28.8992 23.4993 28.8458 23.5099 28.7918 23.5099H28.7778Z" fill="#5B476B"/>
</g>
<defs>
<clipPath id="clip0">
<rect width="26.4821" height="17.51" fill="white" transform="translate(2.70703 6)"/>
</clipPath>
</defs>
</svg>
