<svg width="32" height="32" viewBox="0 0 32 32" fill="none" xmlns="http://www.w3.org/2000/svg">
<path fill-rule="evenodd" clip-rule="evenodd" d="M15.7256 29.1657C23.1484 29.1657 29.1656 23.1484 29.1656 15.7257C29.1656 8.303 23.1484 2.28571 15.7256 2.28571C8.30294 2.28571 2.28564 8.303 2.28564 15.7257C2.28564 23.1484 8.30294 29.1657 15.7256 29.1657Z" fill="#F4E5FF"/>
<path d="M11.2821 24.7049H14.9104V27.3478C14.9104 28.154 15.5599 28.8036 16.3662 28.8036H18.6955V28.8259C19.0314 29.2739 19.569 29.5426 20.1289 29.5426C20.1961 29.5426 20.2633 29.5426 20.3305 29.5203C21.3159 29.4083 22.0326 28.5124 21.9206 27.5269C21.8086 26.5415 20.9128 25.8248 19.9273 25.9368C19.3898 26.004 18.8971 26.2951 18.6283 26.7654H16.9485V24.7049H20.8456C21.6967 24.7049 22.4134 24.0106 22.4134 23.1372V10.8189C22.4134 9.96782 21.7191 9.25112 20.8456 9.25112H17.9564V7.77293C17.9564 7.34739 17.6204 6.98904 17.1949 6.96664V4.59258H20.4424V2.28571H16.5902C15.6719 2.28571 14.9104 3.0472 14.9104 3.96547V6.96664C14.4849 6.98904 14.1489 7.34739 14.1489 7.77293V9.25112H11.2821C10.4311 9.25112 9.71436 9.94542 9.71436 10.8189V23.1372C9.71436 23.9882 10.4087 24.7049 11.2821 24.7049ZM19.9945 26.6087C20.2857 26.5639 20.5768 26.6535 20.8232 26.855C21.0472 27.0342 21.2039 27.303 21.2487 27.6165C21.3159 28.2212 20.868 28.7812 20.2633 28.8483C20.0169 28.8707 19.7929 28.8259 19.5914 28.714C19.9497 28.5572 20.1961 28.1988 20.1961 27.7957C20.1961 27.3478 19.8825 26.967 19.4794 26.8326C19.6138 26.6983 19.7929 26.6311 19.9945 26.6087ZM19.1658 27.4373C19.345 27.4373 19.5018 27.5941 19.5018 27.7733C19.5018 27.9525 19.345 28.1093 19.1658 28.1093H16.3438C15.9183 28.1093 15.5599 27.7509 15.5599 27.3254V24.6825H16.2318V27.4149H19.1658V27.4373ZM16.5902 2.95761H19.7929V3.92067H16.523V6.96664H15.5599V3.96547C15.5823 3.40555 16.0303 2.95761 16.5902 2.95761ZM14.8208 7.77293C14.8208 7.70574 14.888 7.63855 14.9552 7.63855H17.1725C17.2397 7.63855 17.3069 7.70574 17.3069 7.77293V9.25112H14.8208V7.77293ZM10.3863 10.8189C10.3863 10.3262 10.7894 9.92302 11.2821 9.92302H14.1489H17.9788H20.8456C21.3383 9.92302 21.7415 10.3262 21.7415 10.8189V23.1372C21.7415 23.6299 21.3383 24.033 20.8456 24.033H11.2821C10.7894 24.033 10.3863 23.6299 10.3863 23.1372V10.8189Z" fill="#5B476B" stroke="#5B476B" stroke-width="0.171429"/>
<path d="M16.0528 20.2032C15.269 20.2032 14.6418 20.8303 14.6418 21.6142C14.6418 22.3981 15.269 23.0252 16.0528 23.0252C16.8367 23.0252 17.4638 22.3981 17.4638 21.6142C17.4638 20.8303 16.8367 20.2032 16.0528 20.2032ZM16.0528 22.3533C15.6497 22.3533 15.3138 22.0173 15.3138 21.6142C15.3138 21.211 15.6497 20.8751 16.0528 20.8751C16.456 20.8751 16.7919 21.211 16.7919 21.6142C16.7919 22.0173 16.456 22.3533 16.0528 22.3533Z" fill="#5B476B" stroke="#5B476B" stroke-width="0.171429"/>
<path d="M14.5072 14.5373C14.3952 14.6269 14.2384 14.7613 14.1265 15.0076C13.8577 15.6124 14.1489 16.2395 14.1937 16.3067C14.5072 16.9338 15.2239 17.2473 15.8958 17.2473C16.1422 17.2473 16.3885 17.2025 16.6125 17.113C17.15 16.9114 17.4412 16.5082 17.5532 16.3739C17.8219 16.0155 17.9787 15.6124 18.0235 15.1644C18.0459 14.9405 18.0235 14.4701 17.7771 13.9774C17.6428 13.7086 17.4412 13.4623 17.2172 13.2607L16.8141 12.9247L16.6797 13.4399C16.6349 13.619 16.5677 13.7982 16.4781 13.955C16.3661 13.7758 16.2542 13.5743 16.1198 13.4399C15.6942 12.9695 14.9775 12.9919 14.5744 13.0367L14.0369 13.1263L14.3728 13.5743C14.6192 13.9102 14.7312 14.2014 14.664 14.3581C14.6416 14.4477 14.5968 14.4701 14.5072 14.5373ZM14.7536 15.2988C14.7984 15.1868 14.8656 15.142 14.9551 15.0748C15.0671 14.9853 15.2015 14.8509 15.2911 14.6269C15.3807 14.3581 15.3807 14.067 15.2239 13.731C15.4031 13.7534 15.5599 13.8206 15.6494 13.9102C15.6942 13.9774 15.8062 14.1118 15.9854 14.4253C16.0526 14.5373 16.0974 14.6717 16.1646 14.7837L16.3885 15.2988L16.7469 14.8733C16.8365 14.7613 16.9261 14.6269 17.0157 14.5149C17.0828 14.4253 17.1276 14.3133 17.1724 14.2014C17.1948 14.2462 17.2172 14.2686 17.2396 14.3133C17.4188 14.6493 17.4188 14.9853 17.4188 15.142C17.3964 15.59 17.1724 15.8811 17.0828 15.9931C16.9933 16.1051 16.7917 16.3963 16.4333 16.5082C15.8958 16.7098 15.0895 16.5306 14.8432 16.0155C14.7984 16.0155 14.5968 15.6124 14.7536 15.2988Z" fill="#5B476B" stroke="#5B476B" stroke-width="0.171429"/>
<path d="M13.3652 18.8151H18.7404C19.3227 18.8151 19.793 18.3448 19.793 17.7625V12.3872C19.793 11.8049 19.3227 11.3346 18.7404 11.3346H13.3652C12.7828 11.3346 12.3125 11.8049 12.3125 12.3872V17.7849C12.3125 18.3448 12.7828 18.8151 13.3652 18.8151ZM12.9844 12.3872C12.9844 12.1857 13.1636 12.0065 13.3652 12.0065H18.7404C18.942 12.0065 19.1211 12.1857 19.1211 12.3872V17.7849C19.1211 17.9865 18.942 18.1656 18.7404 18.1656H13.3652C13.1636 18.1656 12.9844 17.9865 12.9844 17.7849V12.3872Z" fill="#5B476B" stroke="#5B476B" stroke-width="0.171429"/>
</svg>
