<svg width="32" height="32" viewBox="0 0 32 32" fill="none" xmlns="http://www.w3.org/2000/svg">
<path fill-rule="evenodd" clip-rule="evenodd" d="M15.7256 29.1657C23.1484 29.1657 29.1656 23.1484 29.1656 15.7257C29.1656 8.303 23.1484 2.28571 15.7256 2.28571C8.30294 2.28571 2.28564 8.303 2.28564 15.7257C2.28564 23.1484 8.30294 29.1657 15.7256 29.1657Z" fill="#F4E5FF"/>
<g clip-path="url(#clip0)">
<path d="M24.8199 27.9998C24.7485 27.9999 24.6784 27.9806 24.6172 27.9438C24.556 27.907 24.5061 27.8542 24.4728 27.791L18.523 16.451C18.3096 16.0449 17.9197 15.7928 17.5042 15.7928H14.7595C14.342 15.7928 13.9542 16.0449 13.7413 16.451L7.79152 27.791C7.74307 27.883 7.66007 27.952 7.56077 27.9827C7.46148 28.0135 7.35402 28.0036 7.26204 27.9552C7.17006 27.9067 7.1011 27.8237 7.07031 27.7244C7.03953 27.6251 7.04945 27.5177 7.0979 27.4257L13.0482 16.0867C13.3968 15.4223 14.0529 15.0095 14.7595 15.0095H17.5016C18.2088 15.0095 18.8649 15.4223 19.2135 16.0867L25.1659 27.4267C25.1973 27.4864 25.2129 27.5531 25.211 27.6205C25.209 27.6879 25.1897 27.7537 25.1549 27.8115C25.1201 27.8692 25.071 27.917 25.0123 27.9502C24.9536 27.9833 24.8873 28.0008 24.8199 28.0008V27.9998Z" fill="#5B476B"/>
<path d="M26.6308 27.14H25.5588C25.455 27.14 25.3555 27.0988 25.2821 27.0254C25.2086 26.952 25.1674 26.8524 25.1674 26.7486C25.1674 26.6448 25.2086 26.5452 25.2821 26.4718C25.3555 26.3984 25.455 26.3572 25.5588 26.3572H26.6308C27.0484 26.3572 27.4268 26.0367 27.5494 25.578L28.5478 21.8333C28.5625 21.7804 28.5636 21.7247 28.5511 21.6712C28.5386 21.6178 28.5129 21.5683 28.4763 21.5274L27.2456 20.2748C27.2249 20.2503 27.1976 20.2322 27.1669 20.2225C27.1363 20.2128 27.1035 20.2119 27.0724 20.22C27.0313 20.2335 26.9945 20.2577 26.9658 20.2901C26.9371 20.3224 26.9175 20.3619 26.909 20.4043L26.1862 23.0973C25.9717 23.8969 25.2833 24.4543 24.5124 24.4543H24.158C24.0542 24.4543 23.9547 24.4131 23.8813 24.3396C23.8078 24.2662 23.7666 24.1667 23.7666 24.0629C23.7666 23.9591 23.8078 23.8595 23.8813 23.7861C23.9547 23.7127 24.0542 23.6714 24.158 23.6714H24.5124C24.9299 23.6714 25.3073 23.352 25.4299 22.8943L26.1533 20.2007C26.1965 20.0246 26.286 19.8633 26.4125 19.7334C26.5391 19.6036 26.6981 19.5099 26.873 19.4622C27.0373 19.419 27.2102 19.4204 27.3738 19.4662C27.5373 19.5121 27.6857 19.6008 27.8036 19.7232L29.0342 20.9758C29.1668 21.1139 29.2613 21.2842 29.3083 21.4698C29.3553 21.6554 29.3533 21.8501 29.3025 22.0347L28.3056 25.7794C28.0922 26.5806 27.4033 27.14 26.6308 27.14Z" fill="#5B476B"/>
<path d="M23.8743 22.6157H23.1368C23.033 22.6157 22.9335 22.5744 22.86 22.501C22.7866 22.4276 22.7454 22.328 22.7454 22.2242C22.7454 22.1204 22.7866 22.0209 22.86 21.9474C22.9335 21.874 23.033 21.8328 23.1368 21.8328H23.8743C24.1676 21.8328 24.4327 21.6047 24.5199 21.2785L25.3085 18.3224C25.3163 18.2944 25.3171 18.2649 25.3108 18.2365C25.3045 18.2081 25.2914 18.1817 25.2725 18.1596L24.3012 17.1722C24.2762 17.1466 24.2579 17.1466 24.2438 17.1508C24.2297 17.1549 24.1916 17.169 24.1739 17.2379L23.6029 19.3642C23.4239 20.0312 22.8477 20.4967 22.2016 20.4967H22.045C21.9412 20.4967 21.8416 20.4555 21.7682 20.3821C21.6948 20.3087 21.6536 20.2091 21.6536 20.1053C21.6536 20.0015 21.6948 19.9019 21.7682 19.8285C21.8416 19.7551 21.9412 19.7138 22.045 19.7138H22.2016C22.4944 19.7138 22.7595 19.4868 22.8466 19.1611L23.4176 17.0349C23.4557 16.882 23.5337 16.742 23.6438 16.6293C23.7539 16.5165 23.892 16.4351 24.0439 16.3935C24.1878 16.3557 24.3393 16.357 24.4825 16.3974C24.6257 16.4378 24.7556 16.5157 24.8586 16.6231L25.8304 17.6106C25.9451 17.7295 26.027 17.8762 26.068 18.0363C26.109 18.1964 26.1077 18.3644 26.0642 18.5239L25.2756 21.4805C25.0976 22.1486 24.5209 22.6157 23.8743 22.6157Z" fill="#5B476B"/>
<path d="M21.5699 18.828H21.1972C21.0934 18.828 20.9939 18.7868 20.9205 18.7134C20.8471 18.64 20.8058 18.5404 20.8058 18.4366C20.8058 18.3328 20.8471 18.2332 20.9205 18.1598C20.9939 18.0864 21.0934 18.0452 21.1972 18.0452H21.5699C21.7379 18.0452 21.8919 17.9095 21.9436 17.7153L22.5229 15.5432C22.5257 15.5361 22.5257 15.5283 22.5229 15.5212L21.8747 14.8626L21.4723 16.3625C21.3288 16.8975 20.8637 17.2717 20.3424 17.2717C20.2385 17.2717 20.139 17.2305 20.0656 17.1571C19.9922 17.0837 19.9509 16.9841 19.9509 16.8803C19.9509 16.7765 19.9922 16.6769 20.0656 16.6035C20.139 16.5301 20.2385 16.4888 20.3424 16.4888C20.5104 16.4888 20.6639 16.3532 20.716 16.1595L21.1336 14.5969C21.166 14.4667 21.2326 14.3475 21.3266 14.2517C21.4206 14.1559 21.5384 14.087 21.668 14.0521C21.7915 14.0195 21.9214 14.0206 22.0442 14.0552C22.1671 14.0898 22.2785 14.1567 22.3668 14.2488L23.0808 14.9743C23.1775 15.0744 23.2466 15.1978 23.2814 15.3325C23.3163 15.4672 23.3157 15.6086 23.2797 15.743L22.7003 17.9152C22.5573 18.4533 22.0923 18.828 21.5699 18.828Z" fill="#5B476B"/>
<path d="M6.76878 27.1398H5.70095C4.93061 27.1398 4.24378 26.5803 4.03084 25.7787L3.03608 22.0345C2.98599 21.8502 2.98441 21.6562 3.03151 21.4712C3.07861 21.2862 3.17278 21.1165 3.30487 20.9787L4.53083 19.7261C4.64791 19.6033 4.79571 19.5141 4.95888 19.4678C5.12206 19.4215 5.29466 19.4196 5.45879 19.4625C5.63377 19.5102 5.79279 19.6039 5.91927 19.7338C6.04576 19.8638 6.13509 20.0253 6.17798 20.2015L6.89821 22.8946C7.02086 23.3539 7.39611 23.6759 7.81103 23.6759H8.16489C8.2687 23.6759 8.36826 23.7171 8.44167 23.7905C8.51508 23.8639 8.55632 23.9635 8.55632 24.0673C8.55632 24.1711 8.51508 24.2707 8.44167 24.3441C8.36826 24.4175 8.2687 24.4587 8.16489 24.4587H7.81103C7.04226 24.4587 6.35595 23.9003 6.14092 23.1018L5.42069 20.4082C5.41245 20.3659 5.39313 20.3266 5.36471 20.2942C5.33628 20.2618 5.29976 20.2376 5.25889 20.224C5.22824 20.2164 5.19608 20.2175 5.16602 20.2271C5.13596 20.2368 5.1092 20.2547 5.08875 20.2788L3.86331 21.5314C3.82664 21.5724 3.80085 21.622 3.78827 21.6756C3.77569 21.7292 3.77672 21.7851 3.79129 21.8382L4.78657 25.5824C4.90817 26.0412 5.28395 26.3616 5.69991 26.3616H6.76878C6.87259 26.3616 6.97215 26.4029 7.04556 26.4763C7.11897 26.5497 7.16021 26.6492 7.16021 26.7531C7.16021 26.8569 7.11897 26.9564 7.04556 27.0298C6.97215 27.1032 6.87259 27.1445 6.76878 27.1445V27.1398Z" fill="#5B476B"/>
<path d="M9.18115 22.6161H8.44682C7.80122 22.6161 7.22607 22.149 7.04863 21.4804L6.26576 18.5238C6.22218 18.365 6.22038 18.1976 6.26052 18.0378C6.30066 17.8781 6.38139 17.7314 6.49488 17.612L7.4625 16.6241C7.56504 16.5166 7.6945 16.4386 7.8374 16.3981C7.98031 16.3576 8.13145 16.3562 8.27511 16.3939C8.4272 16.4353 8.56547 16.5166 8.67558 16.6293C8.7857 16.7421 8.86367 16.8823 8.9014 17.0353L9.46976 19.1621C9.55692 19.4873 9.82049 19.7143 10.1112 19.7143H10.2678C10.3716 19.7143 10.4711 19.7555 10.5445 19.8289C10.618 19.9023 10.6592 20.0019 10.6592 20.1057C10.6592 20.2095 10.618 20.3091 10.5445 20.3825C10.4711 20.4559 10.3716 20.4971 10.2678 20.4971H10.1112C9.46663 20.4971 8.89201 20.0316 8.71352 19.3641L8.14724 17.2378C8.12898 17.1695 8.08931 17.1538 8.07783 17.1507C8.06635 17.1475 8.04756 17.147 8.02564 17.1721L7.05541 18.1595C7.03657 18.1818 7.02348 18.2083 7.01729 18.2368C7.0111 18.2652 7.01201 18.2948 7.01992 18.3229L7.80278 21.2795C7.88942 21.6057 8.15299 21.8332 8.44421 21.8332H9.17854C9.28235 21.8332 9.38191 21.8745 9.45532 21.9479C9.52873 22.0213 9.56997 22.1209 9.56997 22.2247C9.56997 22.3285 9.52873 22.428 9.45532 22.5014C9.38191 22.5749 9.28235 22.6161 9.17854 22.6161H9.18115Z" fill="#5B476B"/>
<path d="M11.112 18.8276H10.7409C10.219 18.8276 9.75604 18.4529 9.61356 17.9163L9.03633 15.7426C9.00014 15.6081 8.99929 15.4666 9.03385 15.3318C9.06842 15.1969 9.13722 15.0732 9.23361 14.9728L9.94498 14.2473C10.0329 14.1551 10.144 14.0881 10.2667 14.0534C10.3893 14.0187 10.519 14.0175 10.6422 14.05C10.7719 14.0849 10.8899 14.1539 10.9839 14.2498C11.0779 14.3457 11.1445 14.4651 11.1767 14.5954L11.5942 16.1575C11.6464 16.3511 11.7983 16.4868 11.9648 16.4868C12.0686 16.4868 12.1681 16.5281 12.2415 16.6015C12.315 16.6749 12.3562 16.7744 12.3562 16.8783C12.3562 16.9821 12.315 17.0816 12.2415 17.155C12.1681 17.2285 12.0686 17.2697 11.9648 17.2697C11.4429 17.2697 10.981 16.8955 10.8374 16.36L10.4371 14.8626L9.79258 15.5208C9.79078 15.5274 9.79078 15.5345 9.79258 15.5411L10.3693 17.7133C10.4215 17.9075 10.5739 18.0432 10.7404 18.0432H11.1114C11.2153 18.0432 11.3148 18.0844 11.3882 18.1578C11.4616 18.2312 11.5029 18.3308 11.5029 18.4346C11.5029 18.5384 11.4616 18.638 11.3882 18.7114C11.3148 18.7848 11.2153 18.826 11.1114 18.826L11.112 18.8276Z" fill="#5B476B"/>
<path d="M26.8194 15.91H24.6989C24.5951 15.91 24.4955 15.8687 24.4221 15.7953C24.3487 15.7219 24.3075 15.6224 24.3075 15.5185C24.3075 15.4147 24.3487 15.3152 24.4221 15.2418C24.4955 15.1683 24.5951 15.1271 24.6989 15.1271H26.428V4.78286H5.91226V15.1271H7.7546C7.85841 15.1271 7.95797 15.1683 8.03138 15.2418C8.10479 15.3152 8.14603 15.4147 8.14603 15.5185C8.14603 15.6224 8.10479 15.7219 8.03138 15.7953C7.95797 15.8687 7.85841 15.91 7.7546 15.91H5.52083C5.41701 15.91 5.31745 15.8687 5.24404 15.7953C5.17063 15.7219 5.12939 15.6224 5.12939 15.5185V4.39143C5.12939 4.28762 5.17063 4.18806 5.24404 4.11465C5.31745 4.04124 5.41701 4 5.52083 4H26.8194C26.9232 4 27.0228 4.04124 27.0962 4.11465C27.1696 4.18806 27.2109 4.28762 27.2109 4.39143V15.5185C27.2109 15.6224 27.1696 15.7219 27.0962 15.7953C27.0228 15.8687 26.9232 15.91 26.8194 15.91Z" fill="#5B476B"/>
</g>
<defs>
<clipPath id="clip0">
<rect width="26.3444" height="24" fill="white" transform="translate(3 4)"/>
</clipPath>
</defs>
</svg>
