<svg width="50" height="50" viewBox="0 0 50 50" fill="none" xmlns="http://www.w3.org/2000/svg">
<path fill-rule="evenodd" clip-rule="evenodd" d="M24.4998 44.1598C35.6339 44.1598 44.6598 35.1339 44.6598 23.9998C44.6598 12.8658 35.6339 3.83984 24.4998 3.83984C13.3658 3.83984 4.33984 12.8658 4.33984 23.9998C4.33984 35.1339 13.3658 44.1598 24.4998 44.1598Z" fill="#F4E5FF"/>
<path transform="translate(5,3)" d="M17.9637 24.2437V20.1964C19.3383 20.1285 20.3904 19.8401 21.1201 19.331C21.8668 18.8049 22.2401 18.0328 22.2401 17.0146V16.6582C22.2401 15.8776 22.0025 15.2752 21.5274 14.851C21.0522 14.4098 20.4159 14.1891 19.6183 14.1891C18.7698 14.1891 18.091 14.4352 17.5819 14.9273C17.0728 15.4194 16.725 16.0473 16.5383 16.811L14.1201 15.8437C14.2728 15.3176 14.4934 14.8085 14.7819 14.3164C15.0874 13.8243 15.4692 13.3916 15.9274 13.0182C16.3856 12.6279 16.9286 12.3225 17.5565 12.1019C18.1844 11.8643 18.9056 11.7455 19.7201 11.7455C20.5516 11.7455 21.3068 11.8643 21.9856 12.1019C22.6644 12.3394 23.2413 12.6788 23.7165 13.1201C24.1916 13.5443 24.5565 14.0704 24.811 14.6982C25.0656 15.3091 25.1928 15.9879 25.1928 16.7346C25.1928 17.4982 25.0571 18.1855 24.7856 18.7964C24.531 19.3904 24.1831 19.8994 23.7419 20.3237C23.3177 20.7479 22.8341 21.0958 22.291 21.3673C21.748 21.6219 21.188 21.8001 20.611 21.9019V24.2437H17.9637ZM19.3128 30.1237C18.668 30.1237 18.1928 29.971 17.8874 29.6655C17.5989 29.3431 17.4547 28.9358 17.4547 28.4437V28.011C17.4547 27.5188 17.5989 27.1201 17.8874 26.8146C18.1928 26.4922 18.668 26.331 19.3128 26.331C19.9577 26.331 20.4244 26.4922 20.7128 26.8146C21.0183 27.1201 21.171 27.5188 21.171 28.011V28.4437C21.171 28.9358 21.0183 29.3431 20.7128 29.6655C20.4244 29.971 19.9577 30.1237 19.3128 30.1237Z" fill="#777185"/>
</svg>
