<svg width="142" height="132" viewBox="0 0 142 132" fill="none" xmlns="http://www.w3.org/2000/svg">
<path fill-rule="evenodd" clip-rule="evenodd" d="M71 132C110.212 132 142 102.451 142 66C142 29.5492 110.212 0 71 0C31.7878 0 0 29.5492 0 66C0 102.451 31.7878 132 71 132Z" fill="#F4E5FF"/>
<path d="M101.402 1.17871H40.9535C38.0917 1.18214 35.3481 2.32147 33.3245 4.34679C31.3009 6.37211 30.1625 9.11805 30.1591 11.9823V120.018C30.1625 122.882 31.3009 125.628 33.3245 127.653C35.3481 129.679 38.0917 130.818 40.9535 130.822H101.402C104.264 130.818 107.008 129.679 109.031 127.653C111.055 125.628 112.193 122.882 112.197 120.018V11.9823C112.193 9.11805 111.055 6.37211 109.031 4.34679C107.008 2.32147 104.264 1.18214 101.402 1.17871ZM53.9068 5.50014H88.4491V7.66085C88.4491 8.23391 88.2216 8.7835 87.8168 9.18871C87.4119 9.59392 86.8628 9.82157 86.2902 9.82157H56.0657C55.4932 9.82157 54.944 9.59392 54.5392 9.18871C54.1343 8.7835 53.9068 8.23391 53.9068 7.66085V5.50014ZM107.879 120.018C107.879 121.737 107.197 123.386 105.982 124.602C104.768 125.817 103.12 126.5 101.402 126.5H40.9535C39.2358 126.5 37.5884 125.817 36.3738 124.602C35.1592 123.386 34.4768 121.737 34.4768 120.018V11.9823C34.4768 10.2631 35.1592 8.61435 36.3738 7.39871C37.5884 6.18308 39.2358 5.50014 40.9535 5.50014H49.5891V7.66085C49.5891 9.38002 50.2714 11.0288 51.486 12.2444C52.7006 13.4601 54.348 14.143 56.0657 14.143H86.2902C88.0079 14.143 89.6553 13.4601 90.8699 12.2444C92.0845 11.0288 92.7669 9.38002 92.7669 7.66085V5.50014H101.402C103.12 5.50014 104.768 6.18308 105.982 7.39871C107.197 8.61435 107.879 10.2631 107.879 11.9823V120.018Z" fill="#5B476B"/>
<path d="M52.7043 76.8038H60.3835C60.7847 76.804 61.178 76.6923 61.5193 76.4813C61.8606 76.2702 62.1364 75.9682 62.3157 75.609L63.4383 73.3618L64.8114 77.4866C63.356 79.0671 62.5463 81.1367 62.5424 83.286C62.5424 87.7371 65.906 96.2503 71.178 96.2503C76.45 96.2503 79.8135 87.7371 79.8135 83.286C79.8074 81.1386 78.997 79.0716 77.5424 77.4931L78.9154 73.3683L80.0381 75.6155C80.2184 75.9738 80.495 76.2747 80.8366 76.4846C81.1782 76.6945 81.5715 76.805 81.9724 76.8038H89.6516C90.3487 76.8037 91.0355 76.6346 91.6531 76.3109C92.2707 75.9873 92.8009 75.5189 93.1982 74.9456C93.5956 74.3723 93.8484 73.7112 93.9349 73.0189C94.0214 72.3265 93.9392 71.6235 93.6952 70.9699L89.3623 59.4079C88.946 58.3083 88.2398 57.3421 87.3187 56.612C86.3977 55.8819 85.2962 55.4152 84.1313 55.2615V42.6322C84.1392 40.4694 83.491 38.3553 82.2725 36.5692C75.8066 27.1074 72.3222 27.1074 71.178 27.1074C70.0338 27.1074 66.5493 27.1074 60.0834 36.567C58.8651 38.354 58.217 40.4688 58.2246 42.6322V55.2615C57.0602 55.4148 55.9591 55.8809 55.0381 56.6101C54.117 57.3394 53.4106 58.3048 52.9936 59.4036L48.6607 70.9699C48.4167 71.6235 48.3345 72.3265 48.421 73.0189C48.5076 73.7112 48.7603 74.3723 49.1577 74.9456C49.5551 75.5189 50.0852 75.9873 50.7028 76.3109C51.3205 76.6346 52.0072 76.8037 52.7043 76.8038ZM74.6603 72.4824L73.9392 74.6431H68.4167L67.6957 72.4824H74.6603ZM71.178 91.9288C69.5631 91.9288 66.8602 86.5163 66.8602 83.286C66.8602 82.1399 67.3151 81.0407 68.1248 80.2303C68.9346 79.4198 70.0328 78.9646 71.178 78.9646C72.3231 78.9646 73.4214 79.4198 74.2311 80.2303C75.0408 81.0407 75.4957 82.1399 75.4957 83.286C75.4957 86.5271 72.7928 91.9288 71.178 91.9288ZM85.3187 60.9204L89.6516 72.4824H83.3066L83.1188 72.1065C83.4246 71.919 83.6779 71.6569 83.855 71.3448C84.0321 71.0326 84.1271 70.6806 84.1313 70.3217V59.7104C84.401 59.8208 84.6454 59.985 84.8495 60.193C85.0537 60.4011 85.2133 60.6486 85.3187 60.9204ZM62.5424 42.6322C62.536 41.3405 62.9206 40.0772 63.6456 39.0086C67.7453 33.0127 70.3662 31.4289 71.178 31.4289C71.9897 31.4289 74.6106 33.0127 78.7103 39.0086C79.4353 40.0772 79.82 41.3405 79.8135 42.6322V68.161H73.3369V55.1967H69.0191V68.161H62.5424V42.6322ZM57.0351 60.9204C57.1415 60.6488 57.3017 60.4016 57.5062 60.1936C57.7106 59.9857 57.955 59.8213 58.2246 59.7104V70.3217C58.2288 70.6806 58.3239 71.0326 58.5009 71.3448C58.678 71.6569 58.9313 71.919 59.2371 72.1065L59.0493 72.4824H52.7043L57.0351 60.9204Z" fill="#5B476B"/>
<path d="M71.178 48.7143C72.4589 48.7143 73.7111 48.3341 74.7762 47.6218C75.8413 46.9096 76.6714 45.8972 77.1616 44.7128C77.6518 43.5283 77.7801 42.225 77.5302 40.9675C77.2803 39.7101 76.6634 38.5551 75.7576 37.6486C74.8519 36.742 73.6978 36.1247 72.4415 35.8746C71.1851 35.6244 69.8829 35.7528 68.6994 36.2434C67.516 36.734 66.5045 37.5649 65.7928 38.6309C65.0811 39.6968 64.7013 40.9501 64.7013 42.2321C64.7013 43.9513 65.3837 45.6001 66.5983 46.8157C67.8129 48.0313 69.4602 48.7143 71.178 48.7143ZM71.178 40.0714C71.6049 40.0714 72.0223 40.1982 72.3774 40.4356C72.7324 40.673 73.0091 41.0105 73.1725 41.4053C73.3359 41.8001 73.3787 42.2345 73.2954 42.6537C73.2121 43.0728 73.0065 43.4578 72.7045 43.76C72.4026 44.0622 72.0179 44.268 71.5991 44.3513C71.1804 44.4347 70.7463 44.3919 70.3518 44.2284C69.9573 44.0648 69.6201 43.7879 69.3829 43.4326C69.1457 43.0772 69.0191 42.6595 69.0191 42.2321C69.0191 41.6591 69.2465 41.1095 69.6514 40.7043C70.0563 40.2991 70.6054 40.0714 71.178 40.0714Z" fill="#5B476B"/>
<path d="M88.4491 81.125H84.1313V89.7679H88.4491V81.125Z" fill="#5B476B"/>
<path d="M58.2246 81.125H53.9069V89.7679H58.2246V81.125Z" fill="#5B476B"/>
<path d="M99.2435 107.054C99.2379 106.174 99.0543 105.304 98.7037 104.496C98.3531 103.689 97.8427 102.961 97.2035 102.356C96.5642 101.752 95.8092 101.283 94.984 100.978C94.1588 100.673 93.2805 100.539 92.402 100.583C91.8958 99.1381 90.8951 97.9193 89.577 97.1424C88.2589 96.3654 86.7086 96.0805 85.2008 96.338C83.6929 96.5955 82.3247 97.3789 81.3387 98.5493C80.3526 99.7198 79.8123 101.202 79.8135 102.733H84.1313C84.1313 102.16 84.3587 101.61 84.7636 101.205C85.1685 100.8 85.7176 100.572 86.2902 100.572C86.8628 100.572 87.4119 100.8 87.8168 101.205C88.2216 101.61 88.4491 102.16 88.4491 102.733C88.4471 102.854 88.437 102.974 88.4188 103.094C88.3731 103.494 88.4403 103.9 88.6128 104.264C88.7854 104.628 89.0563 104.937 89.395 105.155C89.7338 105.374 90.1268 105.493 90.5296 105.499C90.9324 105.506 91.329 105.399 91.6745 105.192C92.0045 104.994 92.3823 104.891 92.7669 104.893C93.3394 104.893 93.8886 105.121 94.2934 105.526C94.6983 105.932 94.9257 106.481 94.9257 107.054C94.9257 107.627 94.6983 108.177 94.2934 108.582C93.8886 108.987 93.3394 109.215 92.7669 109.215H49.5891C49.0165 109.215 48.4674 108.987 48.0625 108.582C47.6576 108.177 47.4302 107.627 47.4302 107.054C47.4302 106.481 47.6576 105.932 48.0625 105.526C48.4674 105.121 49.0165 104.893 49.5891 104.893C49.9736 104.891 50.3514 104.994 50.6815 105.192C51.0269 105.399 51.4235 105.506 51.8263 105.499C52.2292 105.493 52.6222 105.374 52.9609 105.155C53.2996 104.937 53.5706 104.628 53.7431 104.264C53.9156 103.9 53.9828 103.494 53.9371 103.094C53.919 102.974 53.9089 102.854 53.9068 102.733C53.9068 102.16 54.1343 101.61 54.5392 101.205C54.944 100.8 55.4932 100.572 56.0657 100.572C56.6383 100.572 57.1874 100.8 57.5923 101.205C57.9972 101.61 58.2246 102.16 58.2246 102.733H62.5424C62.5436 101.202 62.0033 99.7198 61.0172 98.5493C60.0312 97.3789 58.6631 96.5955 57.1552 96.338C55.6473 96.0805 54.097 96.3654 52.7789 97.1424C51.4608 97.9193 50.4601 99.1381 49.9539 100.583C49.0749 100.537 48.1957 100.67 47.3695 100.974C46.5434 101.278 45.7875 101.746 45.1478 102.351C44.5081 102.957 43.9978 103.685 43.6479 104.494C43.2981 105.302 43.1159 106.173 43.1124 107.054C43.1196 107.792 43.2539 108.523 43.5096 109.215H38.7946V113.536H103.561V109.215H98.8463C99.102 108.523 99.2364 107.792 99.2435 107.054Z" fill="#5B476B"/>
</svg>
