<svg width="24" height="24" viewBox="0 0 24 24" fill="none" xmlns="http://www.w3.org/2000/svg">
    <path fill-rule="evenodd" clip-rule="evenodd" d="M6.28431 5.58859C6.08944 5.4536 5.82001 5.47288 5.64645 5.64645C5.45118 5.84171 5.45118 6.15829 5.64645 6.35355L11.2929 12L5.64645 17.6464L5.58859 17.7157C5.4536 17.9106 5.47288 18.18 5.64645 18.3536C5.84171 18.5488 6.15829 18.5488 6.35355 18.3536L12 12.7071L17.6464 18.3536L17.7157 18.4114C17.9106 18.5464 18.18 18.5271 18.3536 18.3536C18.5488 18.1583 18.5488 17.8417 18.3536 17.6464L12.7071 12L18.3536 6.35355L18.4114 6.28431C18.5464 6.08944 18.5271 5.82001 18.3536 5.64645C18.1583 5.45118 17.8417 5.45118 17.6464 5.64645L12 11.2929L6.35355 5.64645L6.28431 5.58859Z" fill="#5B476B"/>
</svg>
