<svg width="32" height="32" viewBox="0 0 32 32" fill="none" xmlns="http://www.w3.org/2000/svg">
<path fill-rule="evenodd" clip-rule="evenodd" d="M16.0001 29.4396C23.4228 29.4396 29.4401 23.4223 29.4401 15.9996C29.4401 8.57686 23.4228 2.55957 16.0001 2.55957C8.57735 2.55957 2.56006 8.57686 2.56006 15.9996C2.56006 23.4223 8.57735 29.4396 16.0001 29.4396Z" fill="#F4E5FF"/>
<path d="M25.3749 9H6.43756C5.54148 9 4.8125 9.79981 4.8125 10.783V14.3489C4.8125 14.5458 4.95798 14.7055 5.13751 14.7055C5.31705 14.7055 5.46252 14.5458 5.46252 14.3489V10.783C5.46252 10.1931 5.89995 9.71318 6.43756 9.71318H25.3749C25.9126 9.71318 26.35 10.1931 26.35 10.783V15.4187H5.13751C4.95798 15.4187 4.8125 15.5783 4.8125 15.7752V20.0544C4.8125 20.2513 4.95798 20.4109 5.13751 20.4109H26.675C26.8545 20.4109 27 20.2513 27 20.0544V10.783C27 9.79981 26.271 9 25.3749 9ZM25.0499 18.2714H6.76257V17.5582H25.0499V18.2714ZM6.76257 18.9846H25.0499V19.6978H6.76257V18.9846ZM26.35 19.6978H25.7V17.2016C25.7 17.0047 25.5545 16.845 25.3749 16.845H6.43756C6.25802 16.845 6.11255 17.0047 6.11255 17.2016V19.6978H5.46252V16.1318H26.35V19.6978Z" fill="#5B476B"/>
<path d="M14.325 24.5831C14.303 24.5391 12.4096 21.2876 12.4096 21.2876C12.3499 21.1851 12.2466 21.123 12.1357 21.123C12.0248 21.123 11.9216 21.1851 11.8619 21.2876L9.94338 24.5817C9.67666 25.0405 9.53564 25.5708 9.53564 26.1153C9.53564 27.6883 10.702 28.9681 12.1357 28.9681C13.5694 28.9681 14.7358 27.6883 14.7358 26.1153C14.7358 25.5704 14.5947 25.0399 14.3275 24.5814L14.325 24.5831ZM12.1357 28.2548C11.0605 28.2548 10.1857 27.295 10.1857 26.1153C10.1857 25.7069 10.2914 25.3092 10.4913 24.9654L12.1357 22.1419C12.8062 23.2929 13.7468 24.9082 13.778 24.9623C13.7786 24.9633 13.7792 24.9644 13.7798 24.9654C13.98 25.3091 14.0858 25.7067 14.0858 26.1153C14.0858 27.295 13.211 28.2548 12.1357 28.2548Z" fill="#5B476B"/>
<path d="M22.2744 22.4882C22.2744 22.3937 22.2401 22.3029 22.1791 22.2361L21.2598 21.2275C21.133 21.0882 20.9272 21.0882 20.8002 21.2275L18.699 23.533L16.5977 21.2275C16.4707 21.0882 16.265 21.0882 16.138 21.2275L15.2187 22.236C15.0918 22.3753 15.0918 22.6011 15.2187 22.7403L17.32 25.0458L15.2187 27.3513C15.0918 27.4906 15.0918 27.7163 15.2187 27.8556L16.138 28.8641C16.265 29.0034 16.4707 29.0034 16.5976 28.8641L18.6989 26.5587L20.8002 28.8641C20.8637 28.9338 20.9468 28.9686 21.03 28.9686C21.1132 28.9686 21.1964 28.9338 21.2598 28.8641L22.1791 27.8556C22.2401 27.7887 22.2744 27.698 22.2744 27.6034C22.2744 27.5089 22.2401 27.4181 22.1792 27.3513L20.0778 25.0458L22.1792 22.7403C22.2401 22.6735 22.2744 22.5828 22.2744 22.4882ZM19.3884 24.7937C19.3274 24.8605 19.2932 24.9512 19.2932 25.0458C19.2932 25.1404 19.3274 25.2311 19.3884 25.2979L21.4897 27.6034L21.0301 28.1077L18.9288 25.8022C18.8653 25.7326 18.7821 25.6978 18.699 25.6978C18.6158 25.6978 18.5326 25.7326 18.4691 25.8022L16.3678 28.1077L15.9082 27.6034L18.0095 25.2979C18.1365 25.1587 18.1365 24.9329 18.0095 24.7937L15.9082 22.4882L16.3678 21.9839L18.4691 24.2894C18.5961 24.4287 18.8018 24.4287 18.9288 24.2894L21.03 21.9839L21.4897 22.4882L19.3884 24.7937Z" fill="#5B476B"/>
</svg>
