<svg width="49" height="48" viewBox="0 0 49 48" fill="none" xmlns="http://www.w3.org/2000/svg">
<path fill-rule="evenodd" clip-rule="evenodd" d="M24.4998 44.1598C35.6339 44.1598 44.6598 35.1339 44.6598 23.9998C44.6598 12.8658 35.6339 3.83984 24.4998 3.83984C13.3658 3.83984 4.33984 12.8658 4.33984 23.9998C4.33984 35.1339 13.3658 44.1598 24.4998 44.1598Z" fill="#F4E5FF"/>
<path d="M29.0559 11.6371C29.2685 11.6371 29.4408 11.4648 29.4408 11.2522C29.4408 11.0395 29.2685 10.8672 29.0559 10.8672C28.8433 10.8672 28.6709 11.0395 28.6709 11.2522C28.6709 11.4648 28.8433 11.6371 29.0559 11.6371Z" fill="#5B476B"/>
<path d="M33.093 14.9047C33.3056 14.9047 33.478 14.7324 33.478 14.5197C33.478 14.3071 33.3056 14.1348 33.093 14.1348C32.8804 14.1348 32.708 14.3071 32.708 14.5197C32.708 14.7324 32.8804 14.9047 33.093 14.9047Z" fill="#5B476B"/>
<path d="M11.5627 29.5141C11.7753 29.5141 11.9477 29.3417 11.9477 29.1291C11.9477 28.9165 11.7753 28.7441 11.5627 28.7441C11.3501 28.7441 11.1777 28.9165 11.1777 29.1291C11.1777 29.3417 11.3501 29.5141 11.5627 29.5141Z" fill="#5B476B"/>
<path d="M15.0227 32.5893C15.2353 32.5893 15.4076 32.4169 15.4076 32.2043C15.4076 31.9917 15.2353 31.8193 15.0227 31.8193C14.8101 31.8193 14.6377 31.9917 14.6377 32.2043C14.6377 32.4169 14.8101 32.5893 15.0227 32.5893Z" fill="#5B476B"/>
<path d="M32.8039 28.8403C33.0165 28.8403 33.1889 28.6679 33.1889 28.4553C33.1889 28.2427 33.0165 28.0703 32.8039 28.0703C32.5913 28.0703 32.4189 28.2427 32.4189 28.4553C32.4189 28.6679 32.5913 28.8403 32.8039 28.8403Z" fill="#5B476B"/>
<path d="M29.5363 32.8774C29.749 32.8774 29.9213 32.705 29.9213 32.4924C29.9213 32.2798 29.749 32.1074 29.5363 32.1074C29.3237 32.1074 29.1514 32.2798 29.1514 32.4924C29.1514 32.705 29.3237 32.8774 29.5363 32.8774Z" fill="#5B476B"/>
<path d="M14.927 11.3481C15.1396 11.3481 15.3119 11.1757 15.3119 10.9631C15.3119 10.7505 15.1396 10.5781 14.927 10.5781C14.7144 10.5781 14.542 10.7505 14.542 10.9631C14.542 11.1757 14.7144 11.3481 14.927 11.3481Z" fill="#5B476B"/>
<path d="M11.8508 14.809C12.0634 14.809 12.2358 14.6366 12.2358 14.424C12.2358 14.2114 12.0634 14.0391 11.8508 14.0391C11.6382 14.0391 11.4658 14.2114 11.4658 14.424C11.4658 14.6366 11.6382 14.809 11.8508 14.809Z" fill="#5B476B"/>
<path d="M23.8643 22.7847C23.8643 23.7458 24.6332 24.5147 25.5943 24.5147C26.5554 24.5147 27.3243 23.7458 27.3243 22.7847C27.3243 21.8236 26.5554 21.0547 25.5943 21.0547C24.6332 21.0547 23.8643 21.8236 23.8643 22.7847ZM25.5943 21.8236C26.1325 21.8236 26.5554 22.2465 26.5554 22.7847C26.5554 23.3229 26.1325 23.7458 25.5943 23.7458C25.0561 23.7458 24.6332 23.3229 24.6332 22.7847C24.6332 22.2465 25.0561 21.8236 25.5943 21.8236Z" fill="#5B476B"/>
<path d="M20.2128 21.6316C20.9624 21.6316 21.5583 21.0357 21.5583 20.286C21.5583 19.5363 20.9624 18.9404 20.2128 18.9404C19.4631 18.9404 18.8672 19.5363 18.8672 20.286C18.8672 21.0357 19.4631 21.6316 20.2128 21.6316ZM20.2128 19.7093C20.5395 19.7093 20.7894 19.9592 20.7894 20.286C20.7894 20.6128 20.5395 20.8627 20.2128 20.8627C19.886 20.8627 19.6361 20.6128 19.6361 20.286C19.6361 19.9592 19.886 19.7093 20.2128 19.7093Z" fill="#5B476B"/>
<path d="M24.0567 19.5167C24.691 19.5167 25.21 18.9976 25.21 18.3633C25.21 17.729 24.691 17.21 24.0567 17.21C23.4223 17.21 22.9033 17.729 22.9033 18.3633C22.9033 18.9976 23.4223 19.5167 24.0567 19.5167ZM24.0567 17.9789C24.2681 17.9789 24.4411 18.1519 24.4411 18.3633C24.4411 18.5748 24.2681 18.7478 24.0567 18.7478C23.8452 18.7478 23.6722 18.5748 23.6722 18.3633C23.6722 18.1519 23.8452 17.9789 24.0567 17.9789Z" fill="#5B476B"/>
<path d="M19.4434 25.0915C19.4434 25.9373 20.1354 26.6293 20.9812 26.6293C21.8269 26.6293 22.519 25.9373 22.519 25.0915C22.519 24.2457 21.8269 23.5537 20.9812 23.5537C20.1354 23.5537 19.4434 24.2457 19.4434 25.0915ZM21.7501 25.0915C21.7501 25.5144 21.404 25.8604 20.9812 25.8604C20.5583 25.8604 20.2123 25.5144 20.2123 25.0915C20.2123 24.6686 20.5583 24.3226 20.9812 24.3226C21.404 24.3226 21.7501 24.6686 21.7501 25.0915Z" fill="#5B476B"/>
<path d="M31.996 22.2082C32.2074 22.9194 32.9571 23.3231 33.6683 23.1116C34.3796 22.9002 34.7832 22.1505 34.5718 21.4393C34.3603 20.728 33.6107 20.3244 32.8994 20.5358C32.4573 20.6704 32.1305 20.9972 31.996 21.4393H29.4394C29.4009 20.7857 29.2856 20.1321 29.0549 19.4978L32.5919 18.1138C32.9955 18.6136 33.726 18.6905 34.2066 18.2868C34.7063 17.8831 34.7832 17.1527 34.3796 16.6721C33.9759 16.1723 33.2454 16.0954 32.7649 16.4991C32.4958 16.7105 32.342 17.0373 32.342 17.4026L28.7858 18.7866C28.4975 18.1715 28.113 17.5948 27.6517 17.0758L28.7282 15.9993C29.3433 16.1915 29.9968 15.8648 30.1891 15.2689C30.3813 14.673 30.0545 14.0002 29.4586 13.808C28.8435 13.6157 28.1899 13.9425 27.9977 14.5384C27.8824 14.8652 27.94 15.2304 28.113 15.5188L27.1135 16.5183C26.4983 15.9609 25.7679 15.5188 24.999 15.2112L26.037 12.2125C26.7867 12.174 27.3634 11.5589 27.3249 10.8093C27.2865 10.0596 26.6713 9.4829 25.9217 9.52135C25.172 9.55979 24.5953 10.1749 24.6338 10.9246C24.653 11.3859 24.9029 11.7896 25.2873 12.0203L24.2301 14.9805C23.7303 14.846 23.2305 14.7499 22.7115 14.7306V12.1548C23.4228 11.9434 23.8264 11.1937 23.615 10.4825C23.4035 9.77124 22.6539 9.36757 21.9426 9.57901C21.2314 9.79046 20.8277 10.5401 21.0392 11.2514C21.1737 11.6935 21.5005 12.0203 21.9426 12.1548V14.7114C21.2891 14.7499 20.6355 14.8652 20.0204 15.0766L19.0593 12.6931C19.6359 12.2317 19.732 11.3859 19.2707 10.8093C18.9055 10.3479 18.2711 10.1749 17.7137 10.4056C17.0217 10.6939 16.6949 11.4628 16.964 12.1548C17.1755 12.6546 17.656 13.0006 18.2135 13.0006C18.2519 13.0006 18.2904 13.0006 18.348 13.0006L19.3091 15.3842C18.6171 15.711 17.9828 16.1339 17.4253 16.6721L16.272 15.5188C16.5796 14.9613 16.3681 14.2501 15.8107 13.9617C15.2532 13.6542 14.542 13.8656 14.2536 14.4231C13.9461 14.9805 14.1575 15.6918 14.715 15.9801C15.0225 16.1531 15.3878 16.1723 15.7146 16.0378L16.9063 17.2296C16.4642 17.7486 16.099 18.3445 15.8107 18.9788L12.8889 17.9792C12.8889 17.3449 12.3698 16.8259 11.7355 16.8259C11.1012 16.8259 10.5822 17.3449 10.5822 17.9792C10.5822 18.6136 11.1012 19.1326 11.7355 19.1326C12.0815 19.1326 12.4083 18.9788 12.639 18.6905L15.5415 19.69C15.3685 20.2667 15.2532 20.8434 15.234 21.4393H12.6582C12.4467 20.728 11.6971 20.3244 10.9858 20.5358C10.2746 20.7473 9.87093 21.4969 10.0824 22.2082C10.2938 22.9194 11.0435 23.3231 11.7547 23.1116C12.1968 22.9771 12.5236 22.6503 12.6582 22.2082H15.2148C15.2532 22.8041 15.3493 23.3807 15.5223 23.9382L12.0815 25.2838C11.6971 24.784 10.9666 24.6879 10.4668 25.0723C9.96704 25.4568 9.87093 26.1872 10.2554 26.687C10.6398 27.1868 11.3703 27.2829 11.8701 26.8984C12.1392 26.687 12.3122 26.3602 12.3314 26.0142L15.8107 24.6686C16.1182 25.3606 16.5219 26.0142 17.0409 26.5717L15.8876 27.725C15.3301 27.4175 14.6189 27.6289 14.3305 28.1863C14.023 28.7438 14.2344 29.455 14.7919 29.7434C15.3493 30.0509 16.0606 29.8395 16.3489 29.282C16.5219 28.9745 16.5411 28.6092 16.4066 28.2825L17.5984 27.0907C18.1558 27.5905 18.8094 28.0133 19.5014 28.3209L18.3672 31.4349C18.348 31.4349 18.3096 31.4349 18.2904 31.4349C17.5407 31.4349 16.9448 32.0308 16.9448 32.7805C16.9448 33.5302 17.5407 34.1261 18.2904 34.1261C19.04 34.1261 19.6359 33.5302 19.6359 32.7805C19.6359 32.3576 19.4437 31.954 19.0977 31.7041L20.1934 28.6092C20.7508 28.7822 21.3467 28.8976 21.9426 28.9168V31.4734C21.2314 31.6848 20.8277 32.4345 21.0392 33.1457C21.2506 33.857 22.0003 34.2606 22.7115 34.0492C23.4228 33.8377 23.8264 33.0881 23.615 32.3768C23.4804 31.9347 23.1536 31.6079 22.7115 31.4734V28.9168C23.3651 28.8784 24.0187 28.763 24.6338 28.5516L25.5949 30.9352C25.0182 31.3965 24.9221 32.2423 25.3834 32.819C25.7487 33.2803 26.383 33.4533 26.9405 33.2226C27.6325 32.9343 27.9593 32.1654 27.6901 31.4734C27.4787 30.9736 26.9981 30.6276 26.4407 30.6276C26.4022 30.6276 26.3638 30.6276 26.3061 30.6276L25.345 28.244C25.9217 27.9749 26.4599 27.6289 26.9405 27.2252L28.0169 28.3017C27.8247 28.9168 28.1515 29.5704 28.7474 29.7626C29.3433 29.9548 30.0161 29.628 30.2083 29.0321C30.4005 28.417 30.0737 27.7635 29.4778 27.5712C29.151 27.4559 28.7858 27.5136 28.4975 27.6866L27.4979 26.687C28.1515 25.995 28.6705 25.1684 29.0165 24.265L32.1497 25.3414C32.1497 25.3606 32.1497 25.3799 32.1497 25.3991C32.1497 26.0334 32.6688 26.5524 33.3031 26.5524C33.9374 26.5524 34.4564 26.0334 34.4564 25.3991C34.4564 24.7648 33.9374 24.2457 33.3031 24.2457C32.9763 24.2457 32.6688 24.3803 32.4381 24.6302L29.2279 23.5537C29.3433 23.1116 29.4009 22.6695 29.4394 22.2082H31.996ZM33.4761 17.0181C33.6875 17.0181 33.8605 17.1911 33.8605 17.4026C33.8605 17.614 33.6875 17.787 33.4761 17.787C33.2647 17.787 33.0916 17.614 33.0916 17.4026C33.0916 17.1911 33.2647 17.0181 33.4761 17.0181ZM28.6897 15.019C28.805 14.9997 28.9396 15.0382 29.0357 15.1343C29.0742 15.1727 29.1126 15.2304 29.1318 15.2881C29.1126 15.2881 29.0934 15.2881 29.0549 15.2881C28.8819 15.2881 28.7282 15.1727 28.6897 15.019ZM25.9793 10.2902C26.3061 10.2902 26.556 10.5401 26.556 10.8669C26.556 11.1937 26.3061 11.4436 25.9793 11.4436C25.6526 11.4436 25.4027 11.1937 25.4027 10.8669C25.4027 10.5401 25.6526 10.2902 25.9793 10.2902ZM17.6945 11.8857C17.5791 11.5781 17.7137 11.2514 18.002 11.136C18.2904 11.0207 18.6364 11.1553 18.7517 11.4628C18.867 11.7512 18.7325 12.0972 18.4249 12.2125C18.348 12.2317 18.2904 12.2509 18.2135 12.2509C17.9828 12.2509 17.7714 12.0972 17.6945 11.8857ZM11.7355 18.3637C11.5241 18.3637 11.3511 18.1907 11.3511 17.9792C11.3511 17.7678 11.5241 17.5948 11.7355 17.5948C11.9469 17.5948 12.12 17.7678 12.12 17.9792C12.12 18.1907 11.9469 18.3637 11.7355 18.3637ZM11.1781 26.3602C10.9666 26.3602 10.7936 26.1872 10.7936 25.9758C10.7936 25.7643 10.9666 25.5913 11.1781 25.5913C11.3895 25.5913 11.5625 25.7643 11.5625 25.9758C11.5625 26.1872 11.3895 26.3602 11.1781 26.3602ZM18.2904 33.3572C17.9636 33.3572 17.7137 33.1073 17.7137 32.7805C17.7137 32.4537 17.9636 32.2038 18.2904 32.2038C18.6171 32.2038 18.867 32.4537 18.867 32.7805C18.867 33.0881 18.6171 33.3572 18.2904 33.3572ZM26.9597 31.7617C27.075 32.0501 26.9405 32.3961 26.6329 32.5114C26.3446 32.6267 25.9986 32.4922 25.8832 32.1846C25.7679 31.8771 25.9025 31.5503 26.21 31.4349C26.2869 31.4157 26.3446 31.3965 26.4215 31.3965C26.6714 31.3965 26.8828 31.5503 26.9597 31.7617ZM33.2839 25.0339C33.4953 25.0339 33.6683 25.2069 33.6683 25.4183C33.6683 25.6298 33.4953 25.8028 33.2839 25.8028C33.0724 25.8028 32.8994 25.6298 32.8994 25.4183C32.8994 25.2069 33.0724 25.0339 33.2839 25.0339ZM33.2839 21.247C33.6107 21.247 33.8605 21.4969 33.8605 21.8237C33.8605 22.1505 33.6107 22.4004 33.2839 22.4004C32.9571 22.4004 32.7072 22.1505 32.7072 21.8237C32.7072 21.4969 32.9571 21.247 33.2839 21.247ZM21.7504 10.8669C21.7504 10.5401 22.0003 10.2902 22.3271 10.2902C22.6539 10.2902 22.9037 10.5401 22.9037 10.8669C22.9037 11.1937 22.6539 11.4436 22.3271 11.4436C22.0003 11.4436 21.7504 11.1937 21.7504 10.8669ZM22.3271 15.4803C25.8256 15.4803 28.6705 18.3252 28.6705 21.8237C28.6705 25.3222 25.8256 28.1671 22.3271 28.1671C18.8286 28.1671 15.9837 25.3222 15.9837 21.8237C15.9837 18.3252 18.8286 15.4803 22.3271 15.4803ZM14.888 14.9613C14.888 14.7499 15.061 14.5769 15.2724 14.5769C15.4839 14.5769 15.6569 14.7499 15.6569 14.9613C15.6569 15.1727 15.4839 15.3458 15.2724 15.3458C15.061 15.3458 14.888 15.1727 14.888 14.9613ZM11.3703 22.4004C11.0435 22.4004 10.7936 22.1505 10.7936 21.8237C10.7936 21.4969 11.0435 21.247 11.3703 21.247C11.6971 21.247 11.947 21.4969 11.947 21.8237C11.947 22.1313 11.6971 22.4004 11.3703 22.4004ZM15.3301 29.1282C15.1187 29.1282 14.9457 28.9552 14.9457 28.7438C14.9457 28.5324 15.1187 28.3594 15.3301 28.3594C15.5415 28.3594 15.7146 28.5324 15.7146 28.7438C15.7146 28.9552 15.5415 29.1282 15.3301 29.1282ZM22.9037 32.7805C22.9037 33.1073 22.6539 33.3572 22.3271 33.3572C22.0003 33.3572 21.7504 33.1073 21.7504 32.7805C21.7504 32.4537 22.0003 32.2038 22.3271 32.2038C22.6539 32.2038 22.9037 32.4537 22.9037 32.7805ZM29.1126 28.3017C29.324 28.3017 29.4971 28.4747 29.4971 28.6861C29.4971 28.8976 29.324 29.0706 29.1126 29.0706C28.9012 29.0706 28.7282 28.8976 28.7282 28.6861C28.7282 28.4747 28.9012 28.3017 29.1126 28.3017Z" fill="#5B476B"/>
</svg>
