<svg width="81" height="80" viewBox="0 0 81 80" fill="none" xmlns="http://www.w3.org/2000/svg">
<path fill-rule="evenodd" clip-rule="evenodd" d="M40.4996 77.1427C59.4351 77.1427 74.7853 61.7925 74.7853 42.857C74.7853 23.9215 59.4351 8.57129 40.4996 8.57129C21.5641 8.57129 6.21387 23.9215 6.21387 42.857C6.21387 61.7925 21.5641 77.1427 40.4996 77.1427Z" fill="#F4E5FF"/>
<g clip-path="url(#clip0_1318:136916)">
<path d="M22.7334 51.0881V15.8645C22.709 15.5764 22.7418 15.2864 22.83 15.0111C22.9181 14.7358 23.0598 14.4807 23.247 14.2603C23.4341 14.04 23.663 13.8589 23.9204 13.7274C24.1778 13.5959 24.4587 13.5166 24.7469 13.4941H50.5657C51.1498 13.5398 51.692 13.8146 52.0741 14.2588C52.4561 14.7029 52.6469 15.2802 52.6047 15.8645V50.8842" stroke="#5B476B" stroke-width="1.85714" stroke-miterlimit="10" stroke-linecap="round"/>
<path d="M28.239 18.0557H27.2705C26.5666 18.0557 25.9961 18.6262 25.9961 19.33V21.6239C25.9961 22.3277 26.5666 22.8983 27.2705 22.8983H28.239C28.9428 22.8983 29.5134 22.3277 29.5134 21.6239V19.33C29.5134 18.6262 28.9428 18.0557 28.239 18.0557Z" stroke="#5B476B" stroke-width="1.27437" stroke-miterlimit="10"/>
<path d="M34.8406 18.0557H33.872C33.1682 18.0557 32.5977 18.6262 32.5977 19.33V21.6239C32.5977 22.3277 33.1682 22.8983 33.872 22.8983H34.8406C35.5444 22.8983 36.1149 22.3277 36.1149 21.6239V19.33C36.1149 18.6262 35.5444 18.0557 34.8406 18.0557Z" stroke="#5B476B" stroke-width="1.27437" stroke-miterlimit="10"/>
<path d="M41.4421 18.0557H40.4736C39.7698 18.0557 39.1992 18.6262 39.1992 19.33V21.6239C39.1992 22.3277 39.7698 22.8983 40.4736 22.8983H41.4421C42.1459 22.8983 42.7165 22.3277 42.7165 21.6239V19.33C42.7165 18.6262 42.1459 18.0557 41.4421 18.0557Z" stroke="#5B476B" stroke-width="1.27437" stroke-miterlimit="10"/>
<path d="M48.0681 18.0557H47.0996C46.3958 18.0557 45.8252 18.6262 45.8252 19.33V21.6239C45.8252 22.3277 46.3958 22.8983 47.0996 22.8983H48.0681C48.7719 22.8983 49.3425 22.3277 49.3425 21.6239V19.33C49.3425 18.6262 48.7719 18.0557 48.0681 18.0557Z" stroke="#5B476B" stroke-width="1.27437" stroke-miterlimit="10"/>
<path d="M28.239 25.499H27.2705C26.5666 25.499 25.9961 26.0696 25.9961 26.7734V29.0673C25.9961 29.7711 26.5666 30.3416 27.2705 30.3416H28.239C28.9428 30.3416 29.5134 29.7711 29.5134 29.0673V26.7734C29.5134 26.0696 28.9428 25.499 28.239 25.499Z" stroke="#5B476B" stroke-width="1.27437" stroke-miterlimit="10"/>
<path d="M34.8406 25.499H33.872C33.1682 25.499 32.5977 26.0696 32.5977 26.7734V29.0673C32.5977 29.7711 33.1682 30.3416 33.872 30.3416H34.8406C35.5444 30.3416 36.1149 29.7711 36.1149 29.0673V26.7734C36.1149 26.0696 35.5444 25.499 34.8406 25.499Z" stroke="#5B476B" stroke-width="1.27437" stroke-miterlimit="10"/>
<path d="M41.4421 25.499H40.4736C39.7698 25.499 39.1992 26.0696 39.1992 26.7734V29.0673C39.1992 29.7711 39.7698 30.3416 40.4736 30.3416H41.4421C42.1459 30.3416 42.7165 29.7711 42.7165 29.0673V26.7734C42.7165 26.0696 42.1459 25.499 41.4421 25.499Z" stroke="#5B476B" stroke-width="1.27437" stroke-miterlimit="10"/>
<path d="M48.0681 25.499H47.0996C46.3958 25.499 45.8252 26.0696 45.8252 26.7734V29.0673C45.8252 29.7711 46.3958 30.3416 47.0996 30.3416H48.0681C48.7719 30.3416 49.3425 29.7711 49.3425 29.0673V26.7734C49.3425 26.0696 48.7719 25.499 48.0681 25.499Z" stroke="#5B476B" stroke-width="1.27437" stroke-miterlimit="10"/>
<path d="M28.239 32.9668H27.2705C26.5666 32.9668 25.9961 33.5374 25.9961 34.2412V36.535C25.9961 37.2389 26.5666 37.8094 27.2705 37.8094H28.239C28.9428 37.8094 29.5134 37.2389 29.5134 36.535V34.2412C29.5134 33.5374 28.9428 32.9668 28.239 32.9668Z" stroke="#5B476B" stroke-width="1.27437" stroke-miterlimit="10"/>
<path d="M34.8406 32.9668H33.872C33.1682 32.9668 32.5977 33.5374 32.5977 34.2412V36.535C32.5977 37.2389 33.1682 37.8094 33.872 37.8094H34.8406C35.5444 37.8094 36.1149 37.2389 36.1149 36.535V34.2412C36.1149 33.5374 35.5444 32.9668 34.8406 32.9668Z" stroke="#5B476B" stroke-width="1.27437" stroke-miterlimit="10"/>
<path d="M41.4421 32.9668H40.4736C39.7698 32.9668 39.1992 33.5374 39.1992 34.2412V36.535C39.1992 37.2389 39.7698 37.8094 40.4736 37.8094H41.4421C42.1459 37.8094 42.7165 37.2389 42.7165 36.535V34.2412C42.7165 33.5374 42.1459 32.9668 41.4421 32.9668Z" stroke="#5B476B" stroke-width="1.27437" stroke-miterlimit="10"/>
<path d="M48.0681 32.9668H47.0996C46.3958 32.9668 45.8252 33.5374 45.8252 34.2412V36.535C45.8252 37.2389 46.3958 37.8094 47.0996 37.8094H48.0681C48.7719 37.8094 49.3425 37.2389 49.3425 36.535V34.2412C49.3425 33.5374 48.7719 32.9668 48.0681 32.9668Z" stroke="#5B476B" stroke-width="1.27437" stroke-miterlimit="10"/>
<path d="M28.239 40.4082H27.2705C26.5666 40.4082 25.9961 40.9788 25.9961 41.6826V43.9764C25.9961 44.6803 26.5666 45.2508 27.2705 45.2508H28.239C28.9428 45.2508 29.5134 44.6803 29.5134 43.9764V41.6826C29.5134 40.9788 28.9428 40.4082 28.239 40.4082Z" stroke="#5B476B" stroke-width="1.27437" stroke-miterlimit="10"/>
<path d="M34.8406 40.4082H33.872C33.1682 40.4082 32.5977 40.9788 32.5977 41.6826V43.9764C32.5977 44.6803 33.1682 45.2508 33.872 45.2508H34.8406C35.5444 45.2508 36.1149 44.6803 36.1149 43.9764V41.6826C36.1149 40.9788 35.5444 40.4082 34.8406 40.4082Z" stroke="#5B476B" stroke-width="1.27437" stroke-miterlimit="10"/>
<path d="M41.4421 40.4082H40.4736C39.7698 40.4082 39.1992 40.9788 39.1992 41.6826V43.9764C39.1992 44.6803 39.7698 45.2508 40.4736 45.2508H41.4421C42.1459 45.2508 42.7165 44.6803 42.7165 43.9764V41.6826C42.7165 40.9788 42.1459 40.4082 41.4421 40.4082Z" stroke="#5B476B" stroke-width="1.27437" stroke-miterlimit="10"/>
<path d="M48.0681 40.4082H47.0996C46.3958 40.4082 45.8252 40.9788 45.8252 41.6826V43.9764C45.8252 44.6803 46.3958 45.2508 47.0996 45.2508H48.0681C48.7719 45.2508 49.3425 44.6803 49.3425 43.9764V41.6826C49.3425 40.9788 48.7719 40.4082 48.0681 40.4082Z" stroke="#5B476B" stroke-width="1.27437" stroke-miterlimit="10"/>
<path d="M59.7666 68.9299V63.5775C59.7666 63.4153 59.8311 63.2597 59.9458 63.145C60.0605 63.0303 60.2161 62.9658 60.3783 62.9658H63.3094C63.4716 62.9658 63.6272 63.0303 63.7419 63.145C63.8566 63.2597 63.9211 63.4153 63.9211 63.5775V68.9299" stroke="#5B476B" stroke-width="1.14286" stroke-miterlimit="10" stroke-linecap="round"/>
<path d="M45.3154 68.9299V63.5775C45.3154 63.4153 45.3799 63.2597 45.4946 63.145C45.6093 63.0303 45.7649 62.9658 45.9271 62.9658H48.8582C49.0204 62.9658 49.176 63.0303 49.2907 63.145C49.4054 63.2597 49.4699 63.4153 49.4699 63.5775V68.9299" stroke="#5B476B" stroke-width="1.14286" stroke-miterlimit="10" stroke-linecap="round"/>
<path d="M63.6669 61.284C63.6669 61.1565 63.6669 59.5763 63.6669 59.5763C63.6669 59.0896 63.4735 58.6228 63.1294 58.2787C62.7852 57.9345 62.3185 57.7412 61.8318 57.7412H61.6788C61.1921 57.7412 60.7254 57.9345 60.3812 58.2787C60.0371 58.6228 59.8438 59.0896 59.8438 59.5763C59.8438 59.5763 60.0476 61.284 60.0476 61.284H63.6669Z" stroke="#5B476B" stroke-width="1.14286" stroke-miterlimit="10" stroke-linecap="round"/>
<path d="M49.4451 61.284C49.4451 61.1565 49.4451 59.5763 49.4451 59.5763C49.4451 59.3353 49.3976 59.0967 49.3054 58.874C49.2132 58.6514 49.078 58.4491 48.9076 58.2787C48.7372 58.1083 48.5349 57.9731 48.3123 57.8809C48.0896 57.7887 47.851 57.7412 47.61 57.7412H47.4826C46.9959 57.7412 46.5291 57.9345 46.1849 58.2787C45.8408 58.6228 45.6475 59.0896 45.6475 59.5763C45.6475 59.5763 45.6475 61.1565 45.6475 61.284H49.4451Z" stroke="#5B476B" stroke-width="1.14286" stroke-miterlimit="10" stroke-linecap="round"/>
<path d="M70.6243 59.2945L62.1115 51.0876C61.9615 50.9515 61.7661 50.8761 61.5636 50.8761C61.361 50.8761 61.1656 50.9515 61.0156 51.0876L54.7202 57.1026L48.4248 51.0876C48.2733 50.9442 48.0726 50.8643 47.864 50.8643C47.6555 50.8643 47.4548 50.9442 47.3033 51.0876L40.2688 57.7908L33.2597 51.0876C33.1097 50.9515 32.9143 50.8761 32.7118 50.8761C32.5092 50.8761 32.3138 50.9515 32.1638 51.0876L25.8684 57.1791L19.573 51.0876C19.4229 50.9515 19.2276 50.8761 19.025 50.8761C18.8224 50.8761 18.6271 50.9515 18.477 51.0876L9.96421 59.2945C9.85433 59.4035 9.77887 59.5423 9.7472 59.6938C9.71552 59.8453 9.72902 60.0027 9.78603 60.1466C9.84303 60.2905 9.94103 60.4144 10.0679 60.5031C10.1947 60.5918 10.3448 60.6412 10.4994 60.6454H11.1621V68.572C11.1587 68.6745 11.176 68.7767 11.2128 68.8724C11.2497 68.9681 11.3055 69.0555 11.3769 69.1292C11.4482 69.2029 11.5337 69.2615 11.6281 69.3015C11.7226 69.3415 11.8242 69.3621 11.9267 69.3621H68.6618C68.7644 69.3621 68.866 69.3415 68.9604 69.3015C69.0549 69.2615 69.1403 69.2029 69.2117 69.1292C69.283 69.0555 69.3388 68.9681 69.3757 68.8724C69.4126 68.7767 69.4299 68.6745 69.4264 68.572V60.6454H70.0891C70.2438 60.6412 70.3939 60.5918 70.5207 60.5031C70.6475 60.4144 70.7455 60.2905 70.8025 60.1466C70.8595 60.0027 70.873 59.8453 70.8414 59.6938C70.8097 59.5423 70.7342 59.4035 70.6243 59.2945V59.2945Z" stroke="#5B476B" stroke-width="1.85714" stroke-miterlimit="10" stroke-linecap="round"/>
<path d="M30.915 68.9299V63.5775C30.915 63.4153 30.9795 63.2597 31.0942 63.145C31.2089 63.0303 31.3645 62.9658 31.5267 62.9658H34.5597C34.722 62.9658 34.8776 63.0303 34.9923 63.145C35.107 63.2597 35.1714 63.4153 35.1714 63.5775V68.9299" stroke="#5B476B" stroke-width="1.14286" stroke-miterlimit="10" stroke-linecap="round"/>
<path d="M16.4629 68.9299V63.5775C16.4629 63.4153 16.5273 63.2597 16.6421 63.145C16.7568 63.0303 16.9124 62.9658 17.0746 62.9658H20.0311C20.1934 62.9658 20.349 63.0303 20.4637 63.145C20.5784 63.2597 20.6428 63.4153 20.6428 63.5775V68.9299" stroke="#5B476B" stroke-width="1.14286" stroke-miterlimit="10" stroke-linecap="round"/>
<path d="M34.815 61.284C34.815 61.1565 34.815 59.5763 34.815 59.5763C34.815 59.0896 34.6217 58.6228 34.2775 58.2787C33.9334 57.9345 33.4666 57.7412 32.9799 57.7412H32.9035C32.4168 57.7412 31.95 57.9345 31.6058 58.2787C31.2617 58.6228 31.0684 59.0896 31.0684 59.5763C31.0684 59.5763 31.0684 61.1565 31.0684 61.284H34.815Z" stroke="#5B476B" stroke-width="1.14286" stroke-miterlimit="10" stroke-linecap="round"/>
<path d="M20.5925 61.284C20.5925 61.1565 20.5925 59.5763 20.5925 59.5763C20.5925 59.0896 20.3991 58.6228 20.055 58.2787C19.7108 57.9345 19.2441 57.7412 18.7574 57.7412H18.6554C18.1687 57.7412 17.7019 57.9345 17.3578 58.2787C17.0137 58.6228 16.8203 59.0896 16.8203 59.5763C16.8203 59.5763 16.8203 61.1565 16.8203 61.284H20.5925Z" stroke="#5B476B" stroke-width="1.14286" stroke-miterlimit="10" stroke-linecap="round"/>
</g>
<defs>
<clipPath id="clip0_1318:136916">
<rect width="62.4443" height="57.1429" fill="white" transform="translate(9.07129 12.8574)"/>
</clipPath>
</defs>
</svg>
