<svg width="49" height="48" viewBox="0 0 49 48" fill="none" xmlns="http://www.w3.org/2000/svg">
<path fill-rule="evenodd" clip-rule="evenodd" d="M24.4998 44.1598C35.6339 44.1598 44.6598 35.1339 44.6598 23.9998C44.6598 12.8658 35.6339 3.83984 24.4998 3.83984C13.3658 3.83984 4.33984 12.8658 4.33984 23.9998C4.33984 35.1339 13.3658 44.1598 24.4998 44.1598Z" fill="#F4E5FF"/>
<path d="M14.0973 20.0008C13.9228 20.0409 13.7444 20.0611 13.5654 20.0608C11.9378 20.0608 10.6182 18.4612 10.6182 16.4617C10.6182 14.4623 11.9378 12.8627 13.5654 12.8627H13.7614C14.0548 12.2069 14.5287 11.6482 15.1277 11.2517C15.7268 10.8552 16.4262 10.6372 17.1445 10.6232C17.7296 10.6283 18.3042 10.7795 18.816 11.0631C19.3719 8.66375 21.1514 7.62402 23.2589 7.62402C25.3663 7.62402 27.1259 8.62377 27.7017 10.9952C28.1821 10.7538 28.7117 10.6265 29.2493 10.6232C29.9683 10.6385 30.6681 10.8584 31.2666 11.2572C31.865 11.6559 32.3375 12.217 32.6285 12.8747H32.8284C34.456 12.8747 35.7757 14.4743 35.7757 16.4737C35.7757 18.4732 34.456 20.0728 32.8284 20.0728C32.6494 20.0733 32.471 20.0532 32.2966 20.0128" stroke="#5B476B" stroke-width="0.87259" stroke-miterlimit="10" stroke-linecap="round"/>
<path d="M11.79 23.2393H34.6041" stroke="#5B476B" stroke-width="0.87259" stroke-miterlimit="10" stroke-linecap="round"/>
<path d="M14.6328 25.1348H32.5562" stroke="#5B476B" stroke-width="0.87259" stroke-miterlimit="10" stroke-linecap="round"/>
<path d="M16.8604 27.0264H31.1287" stroke="#5B476B" stroke-width="0.87259" stroke-miterlimit="10" stroke-linecap="round"/>
<path d="M18.5918 28.9229H30.2008" stroke="#5B476B" stroke-width="0.87259" stroke-miterlimit="10" stroke-linecap="round"/>
<path d="M20.2197 30.8135H29.3734" stroke="#5B476B" stroke-width="0.87259" stroke-miterlimit="10" stroke-linecap="round"/>
<path d="M21.7598 32.7051H29.4338" stroke="#5B476B" stroke-width="0.87259" stroke-miterlimit="10" stroke-linecap="round"/>
<path d="M22.8711 34.6006H29.1175" stroke="#5B476B" stroke-width="0.87259" stroke-miterlimit="10" stroke-linecap="round"/>
<path d="M24.8906 36.4912H29.3295" stroke="#5B476B" stroke-width="0.87259" stroke-miterlimit="10" stroke-linecap="round"/>
<path d="M27.1533 38.3877H29.8126" stroke="#5B476B" stroke-width="0.87259" stroke-miterlimit="10" stroke-linecap="round"/>
</svg>
