<svg width="84" height="84" viewBox="0 0 84 84" fill="none" xmlns="http://www.w3.org/2000/svg">
<path fill-rule="evenodd" clip-rule="evenodd" d="M42 84C65.196 84 84 65.196 84 42C84 18.804 65.196 0 42 0C18.804 0 0 18.804 0 42C0 65.196 18.804 84 42 84Z" fill="#F4E5FF"/>
<path fill-rule="evenodd" clip-rule="evenodd" d="M36 11.499C21.9167 11.499 10.5 22.9158 10.5 36.999C10.5 51.0823 21.9167 62.499 36 62.499C42.5019 62.499 48.4354 60.0656 52.9395 56.0599L64.939 68.0593L65.1467 68.2329C65.7313 68.6379 66.5396 68.58 67.0603 68.0593C67.6461 67.4735 67.6461 66.5238 67.0603 65.938L55.0609 53.9386C59.0666 49.4344 61.5 43.5009 61.5 36.999C61.5 22.9158 50.0833 11.499 36 11.499ZM52.114 52.7026C56.0655 48.6483 58.4998 43.1083 58.4998 36.9997C58.4998 24.5733 48.4262 14.4997 35.9998 14.4997C23.5734 14.4997 13.4998 24.5733 13.4998 36.9997C13.4998 49.4261 23.5734 59.4997 35.9998 59.4997C42.1088 59.4997 47.6492 57.065 51.7035 53.1131C51.7569 53.0336 51.8187 52.9582 51.889 52.888C51.9592 52.8178 52.0346 52.756 52.114 52.7026Z" fill="#5B476B"/>
<path d="M32.3276 42.7033V36.5986C34.429 36.5188 35.9984 36.173 37.0358 35.5612C38.0998 34.9228 38.6318 33.8588 38.6318 32.3692V31.8106C38.6318 30.7998 38.3259 30.0284 37.7141 29.4964C37.1289 28.9644 36.3575 28.6984 35.3999 28.6984C34.3625 28.6984 33.498 29.0176 32.8064 29.656C32.1414 30.2944 31.6892 31.1057 31.4498 32.0899L26.582 30.055C26.8214 29.257 27.1672 28.4856 27.6194 27.7408C28.0716 26.9694 28.6568 26.2911 29.375 25.7059C30.1198 25.0941 30.9976 24.602 32.0084 24.2296C33.0458 23.8572 34.2428 23.671 35.5994 23.671C36.9826 23.671 38.2461 23.8705 39.3899 24.2695C40.5337 24.6685 41.5179 25.2271 42.3425 25.9453C43.1671 26.6635 43.7922 27.528 44.2178 28.5388C44.67 29.5496 44.8961 30.6668 44.8961 31.8904C44.8961 33.0076 44.7099 34.0184 44.3375 34.9228C43.9651 35.8272 43.4597 36.6252 42.8213 37.3168C42.1829 37.9818 41.4381 38.5271 40.5869 38.9527C39.7357 39.3783 38.8446 39.6709 37.9136 39.8305V42.7033H32.3276ZM35.2004 52.4788C33.9236 52.4788 33.0059 52.1862 32.4473 51.601C31.9153 51.0158 31.6493 50.2976 31.6493 49.4464V48.4888C31.6493 47.6376 31.9153 46.9194 32.4473 46.3342C33.0059 45.749 33.9236 45.4564 35.2004 45.4564C36.4772 45.4564 37.3816 45.749 37.9136 46.3342C38.4722 46.9194 38.7515 47.6376 38.7515 48.4888V49.4464C38.7515 50.2976 38.4722 51.0158 37.9136 51.601C37.3816 52.1862 36.4772 52.4788 35.2004 52.4788Z" fill="#5B476B"/>
<circle cx="63" cy="15" r="1.5" stroke="#5B476B"/>
<circle cx="52" cy="66" r="2" fill="#5B476B"/>
<circle cx="19" cy="65" r="1" fill="#5B476B"/>
<circle cx="5" cy="42" r="2" fill="#5B476B"/>
<circle cx="25" cy="70" r="2.25" stroke="#5B476B" stroke-width="1.5"/>
<circle cx="51" cy="14" r="3.25" stroke="#5B476B" stroke-width="1.5"/>
<circle cx="75" cy="45" r="3.25" stroke="#5B476B" stroke-width="1.5"/>
</svg>
