<svg width="32" height="33" viewBox="0 0 32 33" fill="none" xmlns="http://www.w3.org/2000/svg">
<path fill-rule="evenodd" clip-rule="evenodd" d="M15.9999 30.2147C23.5741 30.2147 29.7142 24.0746 29.7142 16.5004C29.7142 8.92623 23.5741 2.78613 15.9999 2.78613C8.42574 2.78613 2.28564 8.92623 2.28564 16.5004C2.28564 24.0746 8.42574 30.2147 15.9999 30.2147Z" fill="#F4E5FF"/>
<path d="M15.4471 17.5385L14.7859 16.2068H14.7583V20.8262H13.6104V14.416H14.942L16.8706 17.7038L17.5318 19.0354H17.5593V14.416H18.7073V20.8262H17.3757L15.4471 17.5385Z" fill="#5B476B"/>
<path d="M23.3992 10.2845C21.8922 8.77757 20.0026 7.79277 17.9496 7.41937C18.0693 7.15827 18.1366 6.8683 18.1366 6.56274C18.1366 5.42534 17.2113 4.5 16.0739 4.5C14.9365 4.5 14.0111 5.42534 14.0111 6.56274C14.0111 6.8683 14.0784 7.15827 14.1982 7.41937C12.1452 7.79277 10.2555 8.77757 8.7486 10.2845C6.79193 12.2412 5.71436 14.8427 5.71436 17.6099C5.71436 20.377 6.79193 22.9785 8.7486 24.9352C10.7052 26.8918 13.3067 27.9694 16.0739 27.9694C18.841 27.9694 21.4425 26.8918 23.3992 24.9352C25.3558 22.9785 26.4334 20.377 26.4334 17.6099C26.4334 14.8427 25.3558 12.2412 23.3992 10.2845ZM16.0739 5.87516C16.453 5.87516 16.7615 6.18361 16.7615 6.56274C16.7615 6.94187 16.453 7.25032 16.0739 7.25032C15.6948 7.25032 15.3863 6.94187 15.3863 6.56274C15.3863 6.18361 15.6948 5.87516 16.0739 5.87516ZM16.0739 26.5942C11.1199 26.5942 7.08951 22.5639 7.08951 17.6099C7.08951 12.6558 11.1199 8.62548 16.0739 8.62548C21.0279 8.62548 25.0583 12.6558 25.0583 17.6099C25.0583 22.5639 21.0279 26.5942 16.0739 26.5942Z" fill="#5B476B"/>
<path d="M16.7614 10.001H15.3862V11.8345H16.7614V10.001Z" fill="#5B476B"/>
<path d="M10.2979 16.9229H8.46436V18.298H10.2979V16.9229Z" fill="#5B476B"/>
<path d="M16.7614 23.3857H15.3862V25.2193H16.7614V23.3857Z" fill="#5B476B"/>
<path d="M23.6832 16.9229H21.8496V18.298H23.6832V16.9229Z" fill="#5B476B"/>
</svg>
