<svg width="32" height="32" viewBox="0 0 32 32" fill="none" xmlns="http://www.w3.org/2000/svg">
<path fill-rule="evenodd" clip-rule="evenodd" d="M16.0001 29.4399C23.4228 29.4399 29.4401 23.4226 29.4401 15.9999C29.4401 8.57723 23.4228 2.55994 16.0001 2.55994C8.57735 2.55994 2.56006 8.57723 2.56006 15.9999C2.56006 23.4226 8.57735 29.4399 16.0001 29.4399Z" fill="#F4E5FF"/>
<path d="M28.3386 27.1424H23.9786C23.7276 27.1424 23.5247 26.9392 23.5247 26.6888C23.5247 26.4375 23.7279 26.2349 23.9786 26.2349H28.3386C28.5895 26.2349 28.7922 26.4378 28.7922 26.6888C28.7922 26.9395 28.5895 27.1424 28.3386 27.1424Z" fill="#5B476B"/>
<path d="M28.7761 15.0935H3.42854C3.17757 15.0935 2.97461 14.8903 2.97461 14.6396C2.97461 14.3889 3.17787 14.1857 3.42854 14.1857H28.7761C29.0268 14.1857 29.2297 14.3889 29.2297 14.6396C29.2297 14.8903 29.0268 15.0935 28.7761 15.0935Z" fill="#5B476B"/>
<path fill-rule="evenodd" clip-rule="evenodd" d="M5.32868 27.1421H13.513C13.7639 27.1421 13.9666 26.9391 13.9669 26.6885V14.6396C13.9669 14.3889 13.7639 14.1857 13.513 14.1857H5.32868C5.07802 14.1857 4.87476 14.3886 4.87476 14.6396V26.6885C4.87476 26.9389 5.07772 27.1421 5.32868 27.1421ZM13.0588 26.2344H5.78233V15.0934H13.0588V26.2344Z" fill="#5B476B"/>
<path d="M13.513 19.4231H5.32868C5.07772 19.4231 4.87476 19.2201 4.87476 18.9694C4.87476 18.7182 5.07802 18.5155 5.32868 18.5155H13.513C13.7639 18.5155 13.9669 18.7185 13.9669 18.9694C13.9666 19.2204 13.7639 19.4231 13.513 19.4231Z" fill="#5B476B"/>
<path d="M13.513 23.7727H5.32868C5.07772 23.7727 4.87476 23.5694 4.87476 23.319C4.87476 23.0681 5.07802 22.8651 5.32868 22.8651H13.513C13.7639 22.8651 13.9669 23.0684 13.9669 23.319C13.9666 23.5697 13.7639 23.7727 13.513 23.7727Z" fill="#5B476B"/>
<path d="M26.8636 26.7619C26.6123 26.7619 26.4097 26.5589 26.4097 26.3083V14.9429C26.4097 14.692 26.6126 14.489 26.8636 14.489C27.1146 14.489 27.3172 14.6923 27.3172 14.9429V26.308C27.3172 26.5589 27.1143 26.7619 26.8636 26.7619Z" fill="#5B476B"/>
<path d="M25.3894 26.7619C25.1385 26.7619 24.9358 26.5589 24.9358 26.3083V14.9429C24.9358 14.692 25.1388 14.489 25.3894 14.489C25.6407 14.489 25.8436 14.6923 25.8436 14.9429V26.308C25.8436 26.5589 25.6407 26.7619 25.3894 26.7619Z" fill="#5B476B"/>
<path d="M6.89362 26.762C6.64266 26.762 6.4397 26.559 6.4397 26.3084V23.319C6.4397 23.0681 6.64266 22.8651 6.89362 22.8651C7.14429 22.8651 7.34725 23.0684 7.34725 23.319V26.3084C7.34725 26.559 7.14429 26.762 6.89362 26.762Z" fill="#5B476B"/>
<path d="M11.9996 26.762C11.7486 26.762 11.5457 26.559 11.5457 26.3084V23.319C11.5457 23.0681 11.7486 22.8651 11.9996 22.8651C12.2505 22.8651 12.4535 23.0684 12.4535 23.319V26.3084C12.4535 26.559 12.2505 26.762 11.9996 26.762Z" fill="#5B476B"/>
<path d="M10.2215 17.1156H8.32966C8.0787 17.1156 7.87573 16.9127 7.87573 16.662C7.87573 16.4107 8.0787 16.2078 8.32966 16.2078H10.2215C10.4725 16.2078 10.6754 16.411 10.6754 16.662C10.6754 16.9129 10.4725 17.1156 10.2215 17.1156Z" fill="#5B476B"/>
<path d="M10.2215 21.5031H8.32966C8.0787 21.5031 7.87573 21.2999 7.87573 21.0492C7.87573 20.7985 8.0787 20.5956 8.32966 20.5956H10.2215C10.4725 20.5956 10.6754 20.7988 10.6754 21.0492C10.6754 21.2999 10.4725 21.5031 10.2215 21.5031Z" fill="#5B476B"/>
<path fill-rule="evenodd" clip-rule="evenodd" d="M14.8914 13.1928H24.1874C24.4384 13.1928 24.6416 12.9898 24.6414 12.7389V7.12287C24.6414 6.87132 24.4384 6.66895 24.1874 6.66895H14.8914C14.6405 6.66895 14.4375 6.87102 14.4375 7.12287V12.7389C14.4375 12.9898 14.6405 13.1928 14.8914 13.1928ZM23.7347 12.2849H15.3463V7.57645H23.7347V12.2849Z" fill="#5B476B"/>
<path d="M21.5126 15.0936H17.5695C17.4074 15.0936 17.2586 15.0074 17.1772 14.8673C17.0954 14.7271 17.0954 14.5544 17.1763 14.4145L18.2637 12.5138C18.3881 12.2939 18.6664 12.2201 18.8826 12.3455C19.1007 12.4696 19.1763 12.747 19.0509 12.9641L18.3526 14.1858H20.7301L20.0317 12.9641C19.9066 12.747 19.9819 12.4696 20.2 12.3455C20.4148 12.2204 20.6948 12.2942 20.8186 12.5138L21.9066 14.4145C21.9872 14.5547 21.9872 14.7274 21.9058 14.8673C21.8243 15.0071 21.6752 15.0936 21.5126 15.0936Z" fill="#5B476B"/>
<path d="M24.1882 11.6309H14.8922C14.6412 11.6309 14.4382 11.428 14.4382 11.177C14.4382 10.9261 14.6412 10.7234 14.8922 10.7234H24.1882C24.4391 10.7234 24.6421 10.9264 24.6421 11.177C24.6424 11.428 24.4391 11.6309 24.1882 11.6309Z" fill="#5B476B"/>
<path fill-rule="evenodd" clip-rule="evenodd" d="M7.83627 14.808H10.1059C10.6786 14.808 11.1272 14.2433 11.1272 13.5227C11.1272 12.8012 10.6786 12.2365 10.1059 12.2365H7.83627C7.26353 12.2365 6.81494 12.8012 6.81494 13.5227C6.81494 14.2433 7.26353 14.808 7.83627 14.808ZM7.83725 13.1438L10.0864 13.1403C10.1261 13.1598 10.2201 13.2973 10.2204 13.5228C10.2204 13.7361 10.1353 13.8709 10.0927 13.9003L7.85681 13.9038C7.8177 13.8843 7.72377 13.7465 7.72377 13.5225C7.72377 13.2973 7.8177 13.1598 7.83725 13.1438Z" fill="#5B476B"/>
<path d="M8.97284 13.1442C8.77521 13.1442 8.59446 13.0147 8.53669 12.8162L7.74232 10.0565C7.71298 9.95368 7.72009 9.84465 7.76365 9.74717L9.00572 6.93857C9.10676 6.70983 9.3755 6.60524 9.60395 6.70806C9.83358 6.80909 9.93728 7.07694 9.83535 7.30568L8.65965 9.96346L9.40869 12.5644C9.47772 12.8055 9.33876 13.0574 9.09846 13.1264C9.05639 13.1389 9.01461 13.1442 8.97284 13.1442Z" fill="#5B476B"/>
<path fill-rule="evenodd" clip-rule="evenodd" d="M9.81569 9.12807C9.8628 9.14437 9.9105 9.15118 9.95939 9.15118C10.0293 9.15118 10.0987 9.13518 10.1624 9.10318L12.7733 7.7894C12.9976 7.6777 13.0871 7.40452 12.9754 7.18022L12.9743 7.17804C12.6152 6.46425 12.0744 5.3894 10.9683 5.3894C10.6764 5.3894 10.3671 5.47 10.0515 5.6297C8.34043 6.49074 9.1588 8.11918 9.55228 8.90111C9.6065 9.00955 9.70132 9.09103 9.81569 9.12807ZM10.4595 6.44C10.6482 6.34608 10.8195 6.29719 10.9682 6.29719C11.3741 6.29719 11.6692 6.67319 11.9531 7.18637L10.1676 8.08445C9.78212 7.22904 9.78479 6.78015 10.4595 6.44Z" fill="#5B476B"/>
</svg>
