<svg width="72" height="72" viewBox="0 0 72 72" fill="none" xmlns="http://www.w3.org/2000/svg">
<path fill-rule="evenodd" clip-rule="evenodd" d="M32.7835 63.1428C48.8786 63.1428 61.9263 50.0951 61.9263 33.9999C61.9263 17.9048 48.8786 4.85706 32.7835 4.85706C16.6883 4.85706 3.64062 17.9048 3.64062 33.9999C3.64062 50.0951 16.6883 63.1428 32.7835 63.1428Z" fill="#F4E5FF"/>
<path d="M34.7148 43.8549C34.2045 43.8549 33.7907 44.2686 33.7907 44.779V47.5513H32.4046C31.8942 47.5513 31.4805 47.9651 31.4805 48.4754C31.4805 48.9857 31.8942 49.3995 32.4046 49.3995H33.7907V52.1718C33.7907 52.6822 34.2045 53.0959 34.7148 53.0959C35.2252 53.0959 35.6389 52.6822 35.6389 52.1718V44.779C35.6389 44.2686 35.2252 43.8549 34.7148 43.8549Z" fill="#5B476B"/>
<path d="M9.76395 27.2209H17.1568C17.6671 27.2209 18.0809 26.8071 18.0809 26.2968C18.0809 25.7864 17.6671 25.3727 17.1568 25.3727H9.76395C9.25361 25.3727 8.83984 25.7864 8.83984 26.2968C8.83984 26.8071 9.25361 27.2209 9.76395 27.2209Z" fill="#5B476B"/>
<path d="M17.1568 29.0692H9.76395C9.25361 29.0692 8.83984 29.4829 8.83984 29.9933C8.83984 30.5036 9.25361 30.9174 9.76395 30.9174H17.1568C17.6671 30.9174 18.0809 30.5036 18.0809 29.9933C18.0809 29.4829 17.6671 29.0692 17.1568 29.0692Z" fill="#5B476B"/>
<path d="M17.1568 32.7656H9.76395C9.25361 32.7656 8.83984 33.1793 8.83984 33.6897C8.83984 34.2 9.25361 34.6138 9.76395 34.6138H17.1568C17.6671 34.6138 18.0809 34.2 18.0809 33.6897C18.0809 33.1793 17.6671 32.7656 17.1568 32.7656Z" fill="#5B476B"/>
<path d="M17.1568 36.462H9.76395C9.25361 36.462 8.83984 36.8758 8.83984 37.3861C8.83984 37.8965 9.25361 38.3103 9.76395 38.3103H17.1568C17.6671 38.3103 18.0809 37.8965 18.0809 37.3861C18.0809 36.8758 17.6671 36.462 17.1568 36.462Z" fill="#5B476B"/>
<path d="M17.1568 40.1584H9.76395C9.25361 40.1584 8.83984 40.5722 8.83984 41.0826C8.83984 41.5929 9.25361 42.0067 9.76395 42.0067H17.1568C17.6671 42.0067 18.0809 41.5929 18.0809 41.0826C18.0809 40.5722 17.6671 40.1584 17.1568 40.1584Z" fill="#5B476B"/>
<path d="M17.1568 43.8549H9.76395C9.25361 43.8549 8.83984 44.2686 8.83984 44.779C8.83984 45.2893 9.25361 45.7031 9.76395 45.7031H17.1568C17.6671 45.7031 18.0809 45.2893 18.0809 44.779C18.0809 44.2686 17.6671 43.8549 17.1568 43.8549Z" fill="#5B476B"/>
<path d="M17.1568 47.5513H9.76395C9.25361 47.5513 8.83984 47.965 8.83984 48.4754C8.83984 48.9857 9.25361 49.3995 9.76395 49.3995H17.1568C17.6671 49.3995 18.0809 48.9857 18.0809 48.4754C18.0809 47.965 17.6671 47.5513 17.1568 47.5513Z" fill="#5B476B"/>
<path d="M17.1568 51.2477H9.76395C9.25361 51.2477 8.83984 51.6615 8.83984 52.1719C8.83984 52.6822 9.25361 53.096 9.76395 53.096H17.1568C17.6671 53.096 18.0809 52.6822 18.0809 52.1719C18.0809 51.6615 17.6671 51.2477 17.1568 51.2477Z" fill="#5B476B"/>
<path d="M17.1568 54.9442H9.76395C9.25361 54.9442 8.83984 55.3579 8.83984 55.8683C8.83984 56.3786 9.25361 56.7924 9.76395 56.7924H17.1568C17.6671 56.7924 18.0809 56.3786 18.0809 55.8683C18.0809 55.3579 17.6671 54.9442 17.1568 54.9442Z" fill="#5B476B"/>
<path d="M64.2835 59.5646V24.4486C64.2835 22.9198 63.0462 21.6762 61.5256 21.6762H49.4978V8.27668C49.4978 7.256 48.6702 6.42847 47.6496 6.42847H21.7746C20.7539 6.42847 19.9263 7.256 19.9263 8.27668V21.6762H7.89852C6.37786 21.6762 5.14062 22.9198 5.14062 24.4486V59.5646C5.14062 60.075 5.55439 60.4887 6.06473 60.4887H10.4826L5.54131 63.8858C5.12076 64.1748 5.01429 64.7501 5.30308 65.1706C5.48221 65.4315 5.77141 65.5713 6.06566 65.5713C6.24613 65.5713 6.42841 65.5187 6.58814 65.4086L13.745 60.4887H55.6791L62.8359 65.4086C62.9957 65.5187 63.178 65.5713 63.3584 65.5713C63.6527 65.5713 63.9419 65.4315 64.121 65.1706C64.4098 64.7501 64.3033 64.1748 63.8828 63.8858L58.9414 60.4887H63.3594C63.8697 60.4887 64.2835 60.075 64.2835 59.5646ZM13.4513 58.6405C13.4504 58.6405 13.4494 58.6405 13.449 58.6405H6.98884V24.4486C6.98884 23.9389 7.39673 23.5245 7.89852 23.5245H19.9263V58.6405H13.4513ZM26.3951 58.6405V38.7722H43.029V58.6405H26.3951ZM43.029 36.924H26.3951C25.3744 36.924 24.5469 37.7515 24.5469 38.7722V58.6405H21.7746V8.27668H47.6496V58.6405H44.8772V38.7722C44.8772 37.7515 44.0497 36.924 43.029 36.924ZM62.4353 58.6405H55.976C55.9751 58.6405 55.9742 58.6405 55.9733 58.6405H49.4978V23.5245H61.5256C62.0274 23.5245 62.4353 23.9389 62.4353 24.4486V58.6405Z" fill="#5B476B"/>
<path d="M59.6607 25.3727H52.2679C51.7575 25.3727 51.3438 25.7864 51.3438 26.2968C51.3438 26.8071 51.7575 27.2209 52.2679 27.2209H59.6607C60.1711 27.2209 60.5848 26.8071 60.5848 26.2968C60.5848 25.7864 60.1711 25.3727 59.6607 25.3727Z" fill="#5B476B"/>
<path d="M59.6607 29.0692H52.2679C51.7575 29.0692 51.3438 29.4829 51.3438 29.9933C51.3438 30.5036 51.7575 30.9174 52.2679 30.9174H59.6607C60.1711 30.9174 60.5848 30.5036 60.5848 29.9933C60.5848 29.4829 60.1711 29.0692 59.6607 29.0692Z" fill="#5B476B"/>
<path d="M59.6607 32.7656H52.2679C51.7575 32.7656 51.3438 33.1793 51.3438 33.6897C51.3438 34.2 51.7575 34.6138 52.2679 34.6138H59.6607C60.1711 34.6138 60.5848 34.2 60.5848 33.6897C60.5848 33.1793 60.1711 32.7656 59.6607 32.7656Z" fill="#5B476B"/>
<path d="M59.6607 36.462H52.2679C51.7575 36.462 51.3438 36.8758 51.3438 37.3861C51.3438 37.8965 51.7575 38.3103 52.2679 38.3103H59.6607C60.1711 38.3103 60.5848 37.8965 60.5848 37.3861C60.5848 36.8758 60.1711 36.462 59.6607 36.462Z" fill="#5B476B"/>
<path d="M59.6607 40.1584H52.2679C51.7575 40.1584 51.3438 40.5722 51.3438 41.0826C51.3438 41.5929 51.7575 42.0067 52.2679 42.0067H59.6607C60.1711 42.0067 60.5848 41.5929 60.5848 41.0826C60.5848 40.5722 60.1711 40.1584 59.6607 40.1584Z" fill="#5B476B"/>
<path d="M59.6607 43.8549H52.2679C51.7575 43.8549 51.3438 44.2686 51.3438 44.779C51.3438 45.2893 51.7575 45.7031 52.2679 45.7031H59.6607C60.1711 45.7031 60.5848 45.2893 60.5848 44.779C60.5848 44.2686 60.1711 43.8549 59.6607 43.8549Z" fill="#5B476B"/>
<path d="M59.6607 47.5513H52.2679C51.7575 47.5513 51.3438 47.965 51.3438 48.4754C51.3438 48.9857 51.7575 49.3995 52.2679 49.3995H59.6607C60.1711 49.3995 60.5848 48.9857 60.5848 48.4754C60.5848 47.965 60.1711 47.5513 59.6607 47.5513Z" fill="#5B476B"/>
<path d="M59.6607 51.2477H52.2679C51.7575 51.2477 51.3438 51.6615 51.3438 52.1719C51.3438 52.6822 51.7575 53.096 52.2679 53.096H59.6607C60.1711 53.096 60.5848 52.6822 60.5848 52.1719C60.5848 51.6615 60.1711 51.2477 59.6607 51.2477Z" fill="#5B476B"/>
<path d="M59.6607 54.9442H52.2679C51.7575 54.9442 51.3438 55.3579 51.3438 55.8683C51.3438 56.3786 51.7575 56.7924 52.2679 56.7924H59.6607C60.1711 56.7924 60.5848 56.3786 60.5848 55.8683C60.5848 55.3579 60.1711 54.9442 59.6607 54.9442Z" fill="#5B476B"/>
<path d="M25.4749 11.049C24.9645 11.049 24.5508 11.4628 24.5508 11.9731V16.5937C24.5508 17.104 24.9645 17.5178 25.4749 17.5178C25.9852 17.5178 26.399 17.104 26.399 16.5937V11.9731C26.399 11.4628 25.9852 11.049 25.4749 11.049Z" fill="#5B476B"/>
<path d="M29.1702 11.049C28.6599 11.049 28.2461 11.4628 28.2461 11.9731V16.5937C28.2461 17.104 28.6599 17.5178 29.1702 17.5178C29.6805 17.5178 30.0943 17.104 30.0943 16.5937V11.9731C30.0943 11.4628 29.6805 11.049 29.1702 11.049Z" fill="#5B476B"/>
<path d="M32.8655 11.049C32.3552 11.049 31.9414 11.4628 31.9414 11.9731V16.5937C31.9414 17.104 32.3552 17.5178 32.8655 17.5178C33.3758 17.5178 33.7896 17.104 33.7896 16.5937V11.9731C33.7896 11.4628 33.3758 11.049 32.8655 11.049Z" fill="#5B476B"/>
<path d="M36.5608 11.049C36.0505 11.049 35.6367 11.4628 35.6367 11.9731V16.5937C35.6367 17.104 36.0505 17.5178 36.5608 17.5178C37.0712 17.5178 37.4849 17.104 37.4849 16.5937V11.9731C37.4849 11.4628 37.0712 11.049 36.5608 11.049Z" fill="#5B476B"/>
<path d="M40.26 11.049C39.7497 11.049 39.3359 11.4628 39.3359 11.9731V16.5937C39.3359 17.104 39.7497 17.5178 40.26 17.5178C40.7704 17.5178 41.1841 17.104 41.1841 16.5937V11.9731C41.1841 11.4628 40.7704 11.049 40.26 11.049Z" fill="#5B476B"/>
<path d="M43.9554 17.5178C44.4657 17.5178 44.8795 17.104 44.8795 16.5937V11.9731C44.8795 11.4628 44.4657 11.049 43.9554 11.049C43.445 11.049 43.0312 11.4628 43.0312 11.9731V16.5937C43.0312 17.104 43.445 17.5178 43.9554 17.5178Z" fill="#5B476B"/>
<path d="M25.4749 19.366C24.9645 19.366 24.5508 19.7798 24.5508 20.2901V24.9107C24.5508 25.421 24.9645 25.8348 25.4749 25.8348C25.9852 25.8348 26.399 25.421 26.399 24.9107V20.2901C26.399 19.7798 25.9852 19.366 25.4749 19.366Z" fill="#5B476B"/>
<path d="M29.1702 19.366C28.6599 19.366 28.2461 19.7798 28.2461 20.2901V24.9107C28.2461 25.421 28.6599 25.8348 29.1702 25.8348C29.6805 25.8348 30.0943 25.421 30.0943 24.9107V20.2901C30.0943 19.7798 29.6805 19.366 29.1702 19.366Z" fill="#5B476B"/>
<path d="M32.8655 19.366C32.3552 19.366 31.9414 19.7798 31.9414 20.2901V24.9107C31.9414 25.421 32.3552 25.8348 32.8655 25.8348C33.3758 25.8348 33.7896 25.421 33.7896 24.9107V20.2901C33.7896 19.7798 33.3758 19.366 32.8655 19.366Z" fill="#5B476B"/>
<path d="M36.5608 19.366C36.0505 19.366 35.6367 19.7798 35.6367 20.2901V24.9107C35.6367 25.421 36.0505 25.8348 36.5608 25.8348C37.0712 25.8348 37.4849 25.421 37.4849 24.9107V20.2901C37.4849 19.7798 37.0712 19.366 36.5608 19.366Z" fill="#5B476B"/>
<path d="M40.26 19.366C39.7497 19.366 39.3359 19.7798 39.3359 20.2901V24.9107C39.3359 25.421 39.7497 25.8348 40.26 25.8348C40.7704 25.8348 41.1841 25.421 41.1841 24.9107V20.2901C41.1841 19.7798 40.7704 19.366 40.26 19.366Z" fill="#5B476B"/>
<path d="M43.9554 25.8348C44.4657 25.8348 44.8795 25.421 44.8795 24.9107V20.2901C44.8795 19.7798 44.4657 19.366 43.9554 19.366C43.445 19.366 43.0312 19.7798 43.0312 20.2901V24.9107C43.0312 25.421 43.445 25.8348 43.9554 25.8348Z" fill="#5B476B"/>
<path d="M25.4749 27.683C24.9645 27.683 24.5508 28.0968 24.5508 28.6071V33.2276C24.5508 33.738 24.9645 34.1517 25.4749 34.1517C25.9852 34.1517 26.399 33.738 26.399 33.2276V28.6071C26.399 28.0968 25.9852 27.683 25.4749 27.683Z" fill="#5B476B"/>
<path d="M29.1702 27.683C28.6599 27.683 28.2461 28.0968 28.2461 28.6071V33.2276C28.2461 33.738 28.6599 34.1517 29.1702 34.1517C29.6805 34.1517 30.0943 33.738 30.0943 33.2276V28.6071C30.0943 28.0968 29.6805 27.683 29.1702 27.683Z" fill="#5B476B"/>
<path d="M32.8655 27.683C32.3552 27.683 31.9414 28.0968 31.9414 28.6071V33.2276C31.9414 33.738 32.3552 34.1517 32.8655 34.1517C33.3758 34.1517 33.7896 33.738 33.7896 33.2276V28.6071C33.7896 28.0968 33.3758 27.683 32.8655 27.683Z" fill="#5B476B"/>
<path d="M36.5608 27.683C36.0505 27.683 35.6367 28.0968 35.6367 28.6071V33.2276C35.6367 33.738 36.0505 34.1517 36.5608 34.1517C37.0712 34.1517 37.4849 33.738 37.4849 33.2276V28.6071C37.4849 28.0968 37.0712 27.683 36.5608 27.683Z" fill="#5B476B"/>
<path d="M40.26 27.683C39.7497 27.683 39.3359 28.0968 39.3359 28.6071V33.2276C39.3359 33.738 39.7497 34.1517 40.26 34.1517C40.7704 34.1517 41.1841 33.738 41.1841 33.2276V28.6071C41.1841 28.0968 40.7704 27.683 40.26 27.683Z" fill="#5B476B"/>
<path d="M44.8795 28.6071C44.8795 28.0968 44.4657 27.683 43.9554 27.683C43.445 27.683 43.0312 28.0968 43.0312 28.6071V33.2276C43.0312 33.738 43.445 34.1517 43.9554 34.1517C44.4657 34.1517 44.8795 33.738 44.8795 33.2276V28.6071Z" fill="#5B476B"/>
<path d="M44.4163 61.8749H25.01C24.4997 61.8749 24.0859 62.2887 24.0859 62.799C24.0859 63.3094 24.4997 63.7232 25.01 63.7232H44.4163C44.9266 63.7232 45.3404 63.3094 45.3404 62.799C45.3404 62.2887 44.9266 61.8749 44.4163 61.8749Z" fill="#5B476B"/>
</svg>
