<svg width="32" height="32" viewBox="0 0 32 32" fill="none" xmlns="http://www.w3.org/2000/svg">
<path fill-rule="evenodd" clip-rule="evenodd" d="M16.0001 29.4401C23.4228 29.4401 29.4401 23.4228 29.4401 16.0001C29.4401 8.57735 23.4228 2.56006 16.0001 2.56006C8.57735 2.56006 2.56006 8.57735 2.56006 16.0001C2.56006 23.4228 8.57735 29.4401 16.0001 29.4401Z" fill="#F4E5FF"/>
<path d="M27.4284 18.7176V14.6666H26.9431C25.4557 14.6666 24.1037 15.2457 23.0996 16.1904H16.3808V10.0952H26.0629C26.707 10.0952 26.9065 9.22374 26.3268 8.94316L16.1657 4.03787C16.061 3.98738 15.9391 3.98738 15.8344 4.03787L5.6733 8.94299C5.09325 9.22379 5.29276 10.0952 5.93682 10.0952H15.6189V16.1904H8.90008C7.89607 15.2457 6.5441 14.6666 5.0566 14.6666H4.57129V18.7176C4.57129 19.7646 5.3583 20.6269 6.37281 20.747L4.96361 26.3837C4.91258 26.5878 5.03669 26.7946 5.2408 26.8456C5.44491 26.8967 5.65174 26.7726 5.70276 26.5685L7.06709 21.1112L8.7791 26.5897C8.84187 26.7905 9.05553 26.9024 9.25633 26.8397C9.45714 26.7769 9.56906 26.5633 9.50633 26.3625L7.75611 20.7618H10.6665V20.2765C10.6665 19.6467 10.5628 19.0413 10.3714 18.4761H13.7141V19.9999H14.857V23.0475C14.857 24.7308 13.4927 26.0952 11.8093 26.0952H11.0474C10.837 26.0952 10.6665 26.2657 10.6665 26.4761C10.6665 26.6865 10.837 26.857 11.0474 26.857H11.8093H20.1903H20.9522C21.1626 26.857 21.3331 26.6865 21.3331 26.4761C21.3331 26.2657 21.1626 26.0952 20.9522 26.0952H20.1903C18.507 26.0952 17.1426 24.7309 17.1426 23.0475V19.9999H18.2855V18.4761H21.6282C21.4369 19.0412 21.3331 19.6467 21.3331 20.2765V20.7618H23.8928L22.4873 26.3837C22.4362 26.5878 22.5604 26.7946 22.7645 26.8456C22.9686 26.8967 23.1754 26.7726 23.2264 26.5685L24.5908 21.1112L26.3028 26.5897C26.3655 26.7905 26.5792 26.9024 26.78 26.8397C26.9808 26.7769 27.0927 26.5633 27.03 26.3625L25.2798 20.7618H25.3841C26.5133 20.7618 27.4284 19.8467 27.4284 18.7176ZM16 4.80394L25.3824 9.3333H6.61736L16 4.80394ZM7.23968 19.9999C7.23834 19.9999 7.23696 19.9999 7.23562 19.9999H6.61549C5.90727 19.9999 5.33321 19.4259 5.33321 18.7176V15.4363C6.53866 15.504 7.6262 16.0124 8.43794 16.8026L8.47682 16.8413C8.88156 17.2443 9.21383 17.7231 9.45816 18.2543L9.5529 18.4603C9.74691 18.9402 9.86642 19.4581 9.89691 19.9999H7.23968ZM17.5237 19.238H16.3808V23.0475C16.3808 24.2937 16.9791 25.4001 17.9041 26.0951H14.0956C15.0206 25.4001 15.6189 24.2937 15.6189 23.0475V19.238H14.476V18.4761H17.5237V19.238ZM18.2856 17.7142H13.7141H10.0484C9.91102 17.447 9.75258 17.1924 9.57566 16.9523H22.4241C22.2471 17.1924 22.0887 17.447 21.9513 17.7142H18.2856ZM22.4469 18.4603L22.5416 18.2543C22.7859 17.7231 23.1182 17.2443 23.5229 16.8413L23.5616 16.8027C24.3734 16.0124 25.461 15.504 26.6665 15.4362V18.7176C26.6665 19.4259 26.0924 19.9999 25.3842 19.9999H24.7635C24.7621 19.9999 24.7608 19.9999 24.7594 19.9999H22.1029C22.1333 19.4581 22.2529 18.9401 22.4469 18.4603Z" fill="#5B476B"/>
</svg>
