<svg width="40" height="40" viewBox="0 0 40 40" fill="none" xmlns="http://www.w3.org/2000/svg">
<path fill-rule="evenodd" clip-rule="evenodd" d="M20 40C31.0457 40 40 31.0457 40 20C40 8.95431 31.0457 0 20 0C8.95431 0 0 8.95431 0 20C0 31.0457 8.95431 40 20 40Z" fill="#F4E5FF"/>
<path fill-rule="evenodd" clip-rule="evenodd" d="M17.8572 13.2144C16.082 13.2144 14.643 14.6534 14.643 16.4286C14.643 18.2038 16.082 19.6429 17.8572 19.6429C19.6324 19.6429 21.0715 18.2038 21.0715 16.4286C21.0715 14.6534 19.6324 13.2144 17.8572 13.2144ZM17.8573 13.9285C19.2381 13.9285 20.3573 15.0478 20.3573 16.4285C20.3573 17.8092 19.2381 18.9285 17.8573 18.9285C16.4766 18.9285 15.3573 17.8092 15.3573 16.4285C15.3573 15.0478 16.4766 13.9285 17.8573 13.9285ZM23.9251 24.8488C23.8461 23.1438 22.4388 21.7858 20.7143 21.7858H15.0001L14.8487 21.7893C13.1438 21.8683 11.7858 23.2756 11.7858 25.0001V26.4287L11.7915 26.4929C11.8218 26.6595 11.9676 26.7858 12.1429 26.7858C12.3402 26.7858 12.5001 26.6259 12.5001 26.4287V25.0001L12.5038 24.8629C12.575 23.546 13.6654 22.5001 15.0001 22.5001H20.7143L20.8515 22.5038C22.1684 22.575 23.2143 23.6654 23.2143 25.0001V26.4287L23.2201 26.4929C23.2503 26.6595 23.3962 26.7858 23.5715 26.7858C23.7687 26.7858 23.9286 26.6259 23.9286 26.4287V25.0001L23.9251 24.8488ZM25.8036 21.8899C27.173 22.2435 28.1444 23.4478 28.2107 24.8491L28.2143 25V26.4286C28.2143 26.6258 28.0544 26.7857 27.8572 26.7857C27.6819 26.7857 27.536 26.6594 27.5058 26.4928L27.5 26.4286V25.0002C27.4992 23.8609 26.7282 22.8663 25.625 22.5815C25.4341 22.5322 25.3192 22.3374 25.3685 22.1464C25.4124 21.9767 25.5711 21.867 25.74 21.8794L25.8036 21.8899ZM22.9457 13.3183L22.8821 13.3079C22.7132 13.2959 22.5546 13.4058 22.5112 13.5756C22.4622 13.7667 22.5775 13.9613 22.7686 14.0102C23.8747 14.2934 24.6485 15.2902 24.6485 16.4321C24.6485 17.574 23.8747 18.5707 22.7686 18.854C22.5775 18.9029 22.4622 19.0975 22.5112 19.2885C22.5601 19.4796 22.7546 19.5949 22.9457 19.5459C24.368 19.1818 25.3627 17.9002 25.3627 16.4321C25.3627 14.964 24.368 13.6824 22.9457 13.3183Z" fill="#5B476B"/>
</svg>
