<svg width="56" height="56" viewBox="0 0 56 56" fill="none" xmlns="http://www.w3.org/2000/svg">
<path fill-rule="evenodd" clip-rule="evenodd" d="M28 56C43.464 56 56 43.464 56 28C56 12.536 43.464 0 28 0C12.536 0 0 12.536 0 28C0 43.464 12.536 56 28 56Z" fill="#F4E5FF"/>
<path fill-rule="evenodd" clip-rule="evenodd" d="M25 18.5C22.5147 18.5 20.5 20.5147 20.5 23C20.5 25.4853 22.5147 27.5 25 27.5C27.4853 27.5 29.5 25.4853 29.5 23C29.5 20.5147 27.4853 18.5 25 18.5ZM25 19.5C26.933 19.5 28.5 21.067 28.5 23C28.5 24.933 26.933 26.5 25 26.5C23.067 26.5 21.5 24.933 21.5 23C21.5 21.067 23.067 19.5 25 19.5ZM33.4951 34.7882C33.3845 32.4012 31.4143 30.5 29 30.5H21L20.7882 30.5049C18.4012 30.6155 16.5 32.5857 16.5 35V37L16.5081 37.0899C16.5504 37.3231 16.7545 37.5 17 37.5C17.2761 37.5 17.5 37.2761 17.5 37V35L17.5052 34.808C17.6049 32.9643 19.1314 31.5 21 31.5H29L29.192 31.5052C31.0357 31.6049 32.5 33.1314 32.5 35V37L32.5081 37.0899C32.5504 37.3231 32.7545 37.5 33 37.5C33.2761 37.5 33.5 37.2761 33.5 37V35L33.4951 34.7882ZM36.125 30.6459C38.0422 31.1409 39.402 32.8269 39.4949 34.7888L39.5 35V37C39.5 37.2761 39.2761 37.5 39 37.5C38.7545 37.5 38.5504 37.3231 38.5081 37.0899L38.5 37V35.0004C38.4988 33.4054 37.4194 32.0129 35.875 31.6141C35.6076 31.5451 35.4468 31.2724 35.5159 31.005C35.5772 30.7673 35.7995 30.6139 36.036 30.6312L36.125 30.6459ZM32.124 18.6456L32.035 18.6311C31.7985 18.6143 31.5765 18.7682 31.5156 19.006C31.4471 19.2735 31.6085 19.5459 31.876 19.6144C33.4247 20.0109 34.5078 21.4064 34.5078 23.005C34.5078 24.6036 33.4247 25.9991 31.876 26.3956C31.6085 26.4641 31.4471 26.7365 31.5156 27.004C31.5841 27.2715 31.8565 27.4329 32.124 27.3644C34.1152 26.8546 35.5078 25.0604 35.5078 23.005C35.5078 20.9496 34.1152 19.1554 32.124 18.6456Z" fill="#5B476B"/>
</svg>
