<svg width="80" height="80" xmlns="http://www.w3.org/2000/svg" fill="none">

 <g>
  <title>Layer 1</title>
  <path id="svg_1" fill="#F4E5FF" d="m40,80c22.0914,0 40,-17.9086 40,-40c0,-22.0914 -17.9086,-40 -40,-40c-22.0914,0 -40,17.9086 -40,40c0,22.0914 17.9086,40 40,40z" clip-rule="evenodd" fill-rule="evenodd"/>
  <path id="svg_2" fill="#5B476B" d="m32.2816,15.27c-6.1665,0 -11.1654,4.9989 -11.1654,11.1654c0,6.1665 4.9989,11.1654 11.1654,11.1654c6.1665,0 11.1654,-4.9989 11.1654,-11.1654c0,-6.1665 -4.9989,-11.1654 -11.1654,-11.1654zm-0.0003,2.481c4.7962,0 8.6843,3.888 8.6843,8.6842c0,4.7961 -3.8881,8.6842 -8.6843,8.6842c-4.7961,0 -8.6842,-3.8881 -8.6842,-8.6842c0,-4.7962 3.8881,-8.6842 8.6842,-8.6842zm21.0784,37.9326c-0.2744,-5.9225 -5.163,-10.6398 -11.1533,-10.6398l-19.8496,0l-0.5256,0.0121c-5.9224,0.2745 -10.6398,5.163 -10.6398,11.1533l0,4.9624l0.02,0.223c0.105,0.5787 0.6116,1.0176 1.2206,1.0176c0.6852,0 1.2406,-0.5554 1.2406,-1.2406l0,-4.9624l0.0129,-0.4765c0.2473,-4.5745 4.035,-8.2077 8.6713,-8.2077l19.8496,0l0.4765,0.0128c4.5746,0.2474 8.2078,4.0351 8.2078,8.6714l0,4.9624l0.0199,0.223c0.1051,0.5787 0.6116,1.0176 1.2207,1.0176c0.6851,0 1.2406,-0.5554 1.2406,-1.2406l0,-4.9624l-0.0122,-0.5256zm6.5256,-10.2779c4.7569,1.2283 8.131,5.4117 8.3615,10.2794l0.0126,0.5241l0,4.9624c0,0.6852 -0.5555,1.2406 -1.2406,1.2406c-0.6091,0 -1.1156,-0.4389 -1.2206,-1.0176l-0.02,-0.223l0,-4.9615c-0.003,-3.9575 -2.6813,-7.4125 -6.5132,-8.4019c-0.6634,-0.1713 -1.0623,-0.848 -0.891,-1.5114c0.1522,-0.5897 0.7038,-0.9704 1.2904,-0.9275l0.2209,0.0364zm-9.9272,-29.7743l-0.221,-0.036c-0.5867,-0.0418 -1.1375,0.3401 -1.2886,0.9301c-0.1699,0.6637 0.2304,1.3396 0.8941,1.5095c3.8426,0.9839 6.5302,4.4463 6.5302,8.4128c0,3.9666 -2.6876,7.429 -6.5302,8.4129c-0.6637,0.1699 -1.064,0.8458 -0.8941,1.5095c0.17,0.6638 0.8458,1.0641 1.5096,0.8941c4.9404,-1.2649 8.3959,-5.7166 8.3959,-10.8165c0,-5.0998 -3.4555,-9.5515 -8.3959,-10.8164z" clip-rule="evenodd" fill-rule="evenodd"/>
 </g>
</svg>