<svg width="24" height="20" viewBox="0 0 24 20" fill="none" xmlns="http://www.w3.org/2000/svg">
    <path fill-rule="evenodd" clip-rule="evenodd" d="M9 0.5C6.51472 0.5 4.5 2.51472 4.5 5C4.5 7.48528 6.51472 9.5 9 9.5C11.4853 9.5 13.5 7.48528 13.5 5C13.5 2.51472 11.4853 0.5 9 0.5ZM9 1.5C10.933 1.5 12.5 3.067 12.5 5C12.5 6.933 10.933 8.5 9 8.5C7.067 8.5 5.5 6.933 5.5 5C5.5 3.067 7.067 1.5 9 1.5ZM17.4951 16.7882C17.3845 14.4012 15.4143 12.5 13 12.5H5L4.78816 12.5049C2.40124 12.6155 0.5 14.5857 0.5 17V19L0.508056 19.0899C0.550392 19.3231 0.75454 19.5 1 19.5C1.27614 19.5 1.5 19.2761 1.5 19V17L1.50518 16.808C1.60487 14.9643 3.13144 13.5 5 13.5H13L13.192 13.5052C15.0357 13.6049 16.5 15.1314 16.5 17V19L16.5081 19.0899C16.5504 19.3231 16.7545 19.5 17 19.5C17.2761 19.5 17.5 19.2761 17.5 19V17L17.4951 16.7882ZM20.125 12.6459C22.0422 13.1409 23.402 14.8269 23.4949 16.7888L23.5 17V19C23.5 19.2761 23.2761 19.5 23 19.5C22.7545 19.5 22.5504 19.3231 22.5081 19.0899L22.5 19V17.0004C22.4988 15.4054 21.4194 14.0129 19.875 13.6141C19.6076 13.5451 19.4468 13.2724 19.5159 13.005C19.5772 12.7673 19.7995 12.6139 20.036 12.6312L20.125 12.6459ZM16.124 0.645628L16.035 0.631139C15.7985 0.614297 15.5765 0.768194 15.5156 1.00598C15.4471 1.2735 15.6085 1.54588 15.876 1.61438C17.4247 2.0109 18.5078 3.40637 18.5078 5.005C18.5078 6.60364 17.4247 7.9991 15.876 8.39563C15.6085 8.46412 15.4471 8.73651 15.5156 9.00402C15.5841 9.27154 15.8565 9.43287 16.124 9.36438C18.1152 8.85456 19.5078 7.06039 19.5078 5.005C19.5078 2.94962 18.1152 1.15544 16.124 0.645628Z" fill="current"/>
</svg>
