<svg width="23" height="26" viewBox="0 0 23 26" fill="none" xmlns="http://www.w3.org/2000/svg">
<path fill-rule="evenodd" clip-rule="evenodd" d="M11.1842 0.0369873C7.91407 0.0369873 5.26312 2.68793 5.26312 5.95804C5.26312 9.22815 7.91407 11.8791 11.1842 11.8791C14.4543 11.8791 17.1052 9.22815 17.1052 5.95804C17.1052 2.68793 14.4543 0.0369873 11.1842 0.0369873ZM11.184 1.3528C13.7274 1.3528 15.7893 3.41465 15.7893 5.95807C15.7893 8.50148 13.7274 10.5633 11.184 10.5633C8.64061 10.5633 6.57877 8.50148 6.57877 5.95807C6.57877 3.41465 8.64061 1.3528 11.184 1.3528ZM22.362 21.4688C22.2164 18.3281 19.624 15.8265 16.4474 15.8265H5.92105L5.64232 15.8329C2.50163 15.9785 0 18.5709 0 21.7476V24.3791L0.0105996 24.4974C0.0663048 24.8043 0.334921 25.037 0.657895 25.037C1.02124 25.037 1.31579 24.7425 1.31579 24.3791V21.7476L1.3226 21.4949C1.45378 19.069 3.46242 17.1423 5.92105 17.1423H16.4474L16.7 17.1491C19.1259 17.2803 21.0526 19.2889 21.0526 21.7476V24.3791L21.0632 24.4974C21.1189 24.8043 21.3876 25.037 21.7105 25.037C22.0739 25.037 22.3684 24.7425 22.3684 24.3791V21.7476L22.362 21.4688Z" fill="#5B476B"/>
</svg>
