<svg width="40" height="40" viewBox="0 0 40 40" fill="none" xmlns="http://www.w3.org/2000/svg">
    <circle cx="20" cy="20" r="20" fill="#F4E5FF"/>
    <path fill-rule="evenodd" clip-rule="evenodd" d="M20.0797 10.6665C17.7252 10.6665 15.8166 12.5752 15.8166 14.9297C15.8166 17.2841 17.7252 19.1928 20.0797 19.1928C22.4342 19.1928 24.3429 17.2841 24.3429 14.9297C24.3429 12.5752 22.4342 10.6665 20.0797 10.6665ZM20.0796 11.6139C21.9109 11.6139 23.3954 13.0985 23.3954 14.9297C23.3954 16.761 21.9109 18.2455 20.0796 18.2455C18.2484 18.2455 16.7638 16.761 16.7638 14.9297C16.7638 13.0985 18.2484 11.6139 20.0796 11.6139ZM28.128 26.0975C28.0232 23.8362 26.1567 22.035 23.8694 22.035H16.2905L16.0898 22.0396C13.8285 22.1444 12.0273 24.0109 12.0273 26.2982V28.1929L12.035 28.278C12.0751 28.499 12.2685 28.6666 12.501 28.6666C12.7626 28.6666 12.9747 28.4545 12.9747 28.1929V26.2982L12.9796 26.1162C13.0741 24.3696 14.5203 22.9824 16.2905 22.9824H23.8694L24.0514 22.9873C25.798 23.0817 27.1852 24.5279 27.1852 26.2982V28.1929L27.1929 28.278C27.233 28.499 27.4264 28.6666 27.6589 28.6666C27.9205 28.6666 28.1326 28.4545 28.1326 28.1929V26.2982L28.128 26.0975Z" fill="#5B476B"/>
</svg>
