<!-- <svg width="24" height="23" viewBox="0 0 24 23" fill="none" xmlns="http://www.w3.org/2000/svg">
    <path fill-rule="evenodd" clip-rule="evenodd" d="M7.10543 1.42571L4.11031 1.42569C3.408 1.42644 2.73888 1.7074 2.26579 2.2C1.79268 2.69265 1.55918 3.35161 1.62234 4.01594C1.95964 7.03562 3.03795 9.93018 4.77067 12.4725C6.343 14.8245 8.44402 16.8216 10.9221 18.3183C13.5809 19.9572 16.6114 20.9819 19.7663 21.3078C20.4764 21.3689 21.1717 21.1453 21.6904 20.693C22.2091 20.2407 22.5032 19.6014 22.5003 18.9323L22.5003 16.0827C22.5316 14.8883 21.6071 13.8511 20.3501 13.6826C19.423 13.5663 18.517 13.3518 17.6451 13.0426L17.4727 12.9877C16.6052 12.7444 15.6593 12.9661 15.0087 13.5776L14.0093 14.5267L13.958 14.4977C11.9531 13.3413 10.252 11.7684 8.98111 9.89927L8.7163 9.49566L9.71386 8.54852C10.4021 7.88698 10.6217 6.90803 10.2783 6.03965C9.95339 5.21193 9.7277 4.35081 9.60601 3.47378C9.42976 2.28839 8.36026 1.41409 7.10543 1.42571ZM4.11079 2.3762L7.11511 2.37618C7.86805 2.36921 8.50978 2.89381 8.61515 3.60244C8.74608 4.54616 8.99005 5.47707 9.34179 6.37303C9.54826 6.89513 9.41647 7.4825 9.00471 7.87829L7.73668 9.08356C7.57752 9.23484 7.54433 9.46855 7.65559 9.65453C9.12363 12.1086 11.2613 14.1405 13.8431 15.5358C14.0387 15.6416 14.2846 15.61 14.4438 15.4588L15.7138 14.2516C16.1282 13.8621 16.7461 13.7368 17.2943 13.9327C18.238 14.2674 19.2174 14.4993 20.2149 14.6244C20.9646 14.7249 21.5193 15.3472 21.5004 16.0709L21.5002 18.9343C21.5019 19.3377 21.3255 19.7212 21.0143 19.9926C20.7031 20.264 20.2859 20.3981 19.8652 20.362C16.8748 20.053 13.9937 19.0788 11.4623 17.5185C9.10418 16.0942 7.10821 14.197 5.61224 11.9592C3.96255 9.53868 2.93739 6.78678 2.61744 3.92298C2.58031 3.5318 2.72041 3.13642 3.00428 2.84083C3.28815 2.54525 3.68967 2.37665 4.11079 2.3762Z" 
    fill="#5B476B"/>
</svg> -->

<svg width="24" height="23" viewBox="0 0 24 23" fill="none" xmlns="http://www.w3.org/2000/svg">
    <path fill-rule="evenodd" clip-rule="evenodd" d="M7.10543 1.42571L4.11031 1.42569C3.408 1.42644 2.73888 1.7074 2.26579 2.2C1.79268 2.69265 1.55918 3.35161 1.62234 4.01594C1.95964 7.03562 3.03795 9.93018 4.77067 12.4725C6.343 14.8245 8.44402 16.8216 10.9221 18.3183C13.5809 19.9572 16.6114 20.9819 19.7663 21.3078C20.4764 21.3689 21.1717 21.1453 21.6904 20.693C22.2091 20.2407 22.5032 19.6014 22.5003 18.9323L22.5003 16.0827C22.5316 14.8883 21.6071 13.8511 20.3501 13.6826C19.423 13.5663 18.517 13.3518 17.6451 13.0426L17.4727 12.9877C16.6052 12.7444 15.6593 12.9661 15.0087 13.5776L14.0093 14.5267L13.958 14.4977C11.9531 13.3413 10.252 11.7684 8.98111 9.89927L8.7163 9.49566L9.71386 8.54852C10.4021 7.88698 10.6217 6.90803 10.2783 6.03965C9.95339 5.21193 9.7277 4.35081 9.60601 3.47378C9.42976 2.28839 8.36026 1.41409 7.10543 1.42571ZM4.11079 2.3762L7.11511 2.37618C7.86805 2.36921 8.50978 2.89381 8.61515 3.60244C8.74608 4.54616 8.99005 5.47707 9.34179 6.37303C9.54826 6.89513 9.41647 7.4825 9.00471 7.87829L7.73668 9.08356C7.57752 9.23484 7.54433 9.46855 7.65559 9.65453C9.12363 12.1086 11.2613 14.1405 13.8431 15.5358C14.0387 15.6416 14.2846 15.61 14.4438 15.4588L15.7138 14.2516C16.1282 13.8621 16.7461 13.7368 17.2943 13.9327C18.238 14.2674 19.2174 14.4993 20.2149 14.6244C20.9646 14.7249 21.5193 15.3472 21.5004 16.0709L21.5002 18.9343C21.5019 19.3377 21.3255 19.7212 21.0143 19.9926C20.7031 20.264 20.2859 20.3981 19.8652 20.362C16.8748 20.053 13.9937 19.0788 11.4623 17.5185C9.10418 16.0942 7.10821 14.197 5.61224 11.9592C3.96255 9.53868 2.93739 6.78678 2.61744 3.92298C2.58031 3.5318 2.72041 3.13642 3.00428 2.84083C3.28815 2.54525 3.68967 2.37665 4.11079 2.3762Z" 
    />
</svg>
