<svg width="160" height="160" viewBox="0 0 160 160" fill="none" xmlns="http://www.w3.org/2000/svg">
    <circle cx="80" cy="80" r="80" fill="#F4E5FF"/>
    <path fill-rule="evenodd" clip-rule="evenodd" d="M44.4211 38H91.5789C96.2298 38 100 41.7702 100 46.4211V93.5789C100 98.2298 96.2298 102 91.5789 102H44.4211C39.7702 102 36 98.2298 36 93.5789V46.4211C36 41.7702 39.7702 38 44.4211 38ZM91.5777 41.3711H44.4198C41.6293 41.3711 39.3672 43.6332 39.3672 46.4237V93.5816C39.3672 96.1485 41.2814 98.2684 43.7601 98.5916L80.2803 62.0714C80.8649 61.4868 81.7725 61.4218 82.4289 61.8765L82.6621 62.0714L96.6303 76.0396V46.4237C96.6303 43.6332 94.3682 41.3711 91.5777 41.3711ZM96.6303 80.8033L81.4712 65.6438L48.4811 98.6342H91.5777C94.3682 98.6342 96.6303 96.3721 96.6303 93.5816V80.8033ZM49.4766 58.2095C49.4766 54.4888 52.4927 51.4727 56.2134 51.4727C59.9341 51.4727 62.9502 54.4888 62.9502 58.2095C62.9502 61.9302 59.9341 64.9463 56.2134 64.9463C52.4927 64.9463 49.4766 61.9302 49.4766 58.2095ZM59.5806 58.2122C59.5806 56.3518 58.0725 54.8438 56.2122 54.8438C54.3518 54.8438 52.8438 56.3518 52.8438 58.2122C52.8438 60.0725 54.3518 61.5806 56.2122 61.5806C58.0725 61.5806 59.5806 60.0725 59.5806 58.2122Z" fill="#5B476B"/>
    <mask id="mask0" mask-type="alpha" maskUnits="userSpaceOnUse" x="60" y="58" width="64" height="64">
        <path fill-rule="evenodd" clip-rule="evenodd" d="M60 106V114C60 118.418 63.5817 122 68 122H116C120.418 122 124 118.418 124 114V66C124 61.5817 120.418 58 116 58H106V98C106 102.418 102.418 106 98 106H60Z" fill="#D2CFDA"/>
    </mask>
    <g mask="url(#mask0)">
        <path fill-rule="evenodd" clip-rule="evenodd" d="M68.4211 58H115.579C120.23 58 124 61.7702 124 66.4211V113.579C124 118.23 120.23 122 115.579 122H68.4211C63.7702 122 60 118.23 60 113.579V66.4211C60 61.7702 63.7702 58 68.4211 58ZM115.578 61.3711H68.4198C65.6293 61.3711 63.3672 63.6332 63.3672 66.4237V113.582C63.3672 116.372 65.6293 118.634 68.4198 118.634H115.578C118.368 118.634 120.63 116.372 120.63 113.582V66.4237C120.63 63.6332 118.368 61.3711 115.578 61.3711Z" fill="#5B476B"/>
    </g>
</svg>
