<svg width="16" height="16" viewBox="0 0 16 16" fill="none" xmlns="http://www.w3.org/2000/svg">
<path fill-rule="evenodd" clip-rule="evenodd" d="M8 16C12.4183 16 16 12.4183 16 8C16 3.58172 12.4183 0 8 0C3.58172 0 0 3.58172 0 8C0 12.4183 3.58172 16 8 16Z" fill="white"/>
<path fill-rule="evenodd" clip-rule="evenodd" d="M8.88793 3.22217C8.91121 3.22217 8.93394 3.22456 8.95587 3.2291C9.0194 3.24209 9.07827 3.27344 9.12481 3.31997L11.7915 5.98664C11.854 6.04915 11.8891 6.13394 11.8891 6.22234V11.5557C11.8891 12.2307 11.3419 12.7779 10.6669 12.7779H5.33355C4.65854 12.7779 4.11133 12.2307 4.11133 11.5557V4.44457C4.11133 3.76955 4.65854 3.22234 5.33355 3.22234H8.877L8.88793 3.22217ZM5.33352 3.88895H8.55459V6.22217L8.55764 6.2674C8.57971 6.4301 8.71917 6.5555 8.88793 6.5555H11.2224V11.5556C11.2224 11.8624 10.9737 12.1112 10.6668 12.1112H5.33352C5.02669 12.1112 4.77796 11.8624 4.77796 11.5556V4.44451C4.77796 4.13768 5.02669 3.88895 5.33352 3.88895ZM9.22126 5.88883H10.7507L9.22126 4.35936V5.88883ZM10.1108 8.44432C10.1108 8.26023 9.96155 8.11099 9.77746 8.11099H6.2219L6.17667 8.11403C6.01397 8.1361 5.88857 8.27557 5.88857 8.44432C5.88857 8.62842 6.03781 8.77765 6.2219 8.77765H9.77746L9.82269 8.77461C9.98539 8.75254 10.1108 8.61307 10.1108 8.44432ZM9.77746 9.8888C9.96155 9.8888 10.1108 10.038 10.1108 10.2221C10.1108 10.3909 9.98539 10.5304 9.82269 10.5524L9.77746 10.5555H6.2219C6.03781 10.5555 5.88857 10.4062 5.88857 10.2221C5.88857 10.0534 6.01397 9.91392 6.17667 9.89185L6.2219 9.8888H9.77746ZM7.44413 6.66668C7.44413 6.48258 7.29489 6.33335 7.11079 6.33335H6.2219L6.17667 6.33639C6.01397 6.35846 5.88857 6.49793 5.88857 6.66668C5.88857 6.85077 6.03781 7.00001 6.2219 7.00001H7.11079L7.15602 6.99697C7.31872 6.9749 7.44413 6.83543 7.44413 6.66668Z" fill="#5B476B"/>
</svg>
