<svg width="43" height="48" viewBox="0 0 43 48" fill="none" xmlns="http://www.w3.org/2000/svg">
<g filter="url(#filter0_d)">
<path d="M20.5079 28.5493C20.9008 29.1502 21.8175 29.1502 22.2103 28.5493C28.5833 19.5346 29.7619 18.5902 29.7619 15.242C29.7619 10.6917 26.0079 7 21.381 7C16.7103 7 13 10.6917 13 15.242C13 18.5902 14.1349 19.5346 20.5079 28.5493Z" fill="white"/>
<path d="M17.4403 25.1078C18.2065 26.1769 19.0864 27.4047 20.0949 28.8312C20.6862 29.7229 22.0321 29.7229 22.6233 28.8312C23.7059 27.3 24.6416 25.9976 25.4483 24.8747C27.0017 22.7127 28.077 21.216 28.8024 20.0319C29.3601 19.1215 29.73 18.3668 29.9571 17.6098C30.1853 16.8489 30.2619 16.1105 30.2619 15.242C30.2619 10.4077 26.2762 6.5 21.381 6.5C16.4404 6.5 12.5 10.4094 12.5 15.242C12.5 16.1092 12.5736 16.8469 12.7972 17.6072C13.0199 18.3642 13.3841 19.119 13.9366 20.03C14.6808 21.2573 15.8 22.8189 17.4403 25.1078Z" stroke="#9A00FF"/>
</g>
<path fill-rule="evenodd" clip-rule="evenodd" d="M26.0577 10.804C24.3762 11.4151 22.849 12.372 21.5793 13.6098L19.9349 15.2142H18.0406L16.4629 16.7555H19.1027L20.5522 18.1708L20.5528 20.7476L22.1305 19.2063L22.13 17.3568L23.7651 15.7614C25.0406 14.5177 26.026 13.0196 26.6537 11.3697L26.9993 10.4619L26.0577 10.804ZM23.599 14.4737L23.2682 14.7953L22.5581 14.1024L22.8953 13.7744C23.5939 13.0911 24.4083 12.5308 25.3023 12.1183C24.8781 12.9936 24.3018 13.7906 23.599 14.4737Z" fill="#9A00FF"/>
<path d="M17.1945 18.493C17.5156 18.1745 17.9869 18.0487 18.4294 18.1632C18.8718 18.2777 19.2173 18.615 19.3346 19.0469C19.4519 19.4788 19.323 19.9389 18.9968 20.2524C18.4991 20.7382 16.4629 20.9666 16.4629 20.9666C16.4629 20.9666 16.6968 18.9789 17.1945 18.493Z" fill="#9A00FF"/>
<defs>
<filter id="filter0_d" x="0" y="0" width="42.7619" height="48" filterUnits="userSpaceOnUse" color-interpolation-filters="sRGB">
<feFlood flood-opacity="0" result="BackgroundImageFix"/>
<feColorMatrix in="SourceAlpha" type="matrix" values="0 0 0 0 0 0 0 0 0 0 0 0 0 0 0 0 0 0 127 0" result="hardAlpha"/>
<feOffset dy="6"/>
<feGaussianBlur stdDeviation="6"/>
<feColorMatrix type="matrix" values="0 0 0 0 0.556863 0 0 0 0 0.52549 0 0 0 0 0.639216 0 0 0 0.2 0"/>
<feBlend mode="normal" in2="BackgroundImageFix" result="effect1_dropShadow"/>
<feBlend mode="normal" in="SourceGraphic" in2="effect1_dropShadow" result="shape"/>
</filter>
</defs>
</svg>
