<svg width="32" height="33" viewBox="0 0 32 33" fill="none" xmlns="http://www.w3.org/2000/svg">
<path fill-rule="evenodd" clip-rule="evenodd" d="M16.0001 29.9405C23.4228 29.9405 29.4401 23.9233 29.4401 16.5005C29.4401 9.07784 23.4228 3.06055 16.0001 3.06055C8.57735 3.06055 2.56006 9.07784 2.56006 16.5005C2.56006 23.9233 8.57735 29.9405 16.0001 29.9405Z" fill="#F4E5FF"/>
<path d="M27.2734 17.7015H27.1401C27.1937 17.5703 27.2235 17.4269 27.2235 17.2766C27.2235 16.6545 26.7174 16.1484 26.0954 16.1484C25.4733 16.1484 24.9672 16.6545 24.9672 17.2766C24.9672 17.4269 24.997 17.5703 25.0506 17.7015H24.9173C24.5166 17.7015 24.1907 18.0275 24.1907 18.4281V19.2312C24.1907 19.6319 24.5166 19.9578 24.9173 19.9578H24.9672V25.4564L23.3407 24.1009V6.79298C23.3407 6.17091 22.8346 5.66489 22.2126 5.66489H19.4579V5.22656C19.4579 4.82592 19.132 4.5 18.7313 4.5H15.3235C15.1294 4.5 14.972 4.65741 14.972 4.85156C14.972 5.04572 15.1294 5.20312 15.3235 5.20312H18.7313C18.7442 5.20312 18.7547 5.21362 18.7547 5.22656V7.19452C18.7547 7.20745 18.7442 7.21795 18.7313 7.21795H13.2687C13.2558 7.21795 13.2453 7.20745 13.2453 7.19452V5.22656C13.2453 5.21362 13.2558 5.20312 13.2687 5.20312H13.9172C14.1113 5.20312 14.2687 5.04572 14.2687 4.85156C14.2687 4.65741 14.1113 4.5 13.9172 4.5H13.2687C12.8681 4.5 12.5422 4.82592 12.5422 5.22656V5.66484H9.78747C9.16539 5.66484 8.65933 6.17091 8.65933 6.79294V24.1009L7.03277 25.4564V19.9578H7.08273C7.48337 19.9578 7.8093 19.6319 7.8093 19.2313V18.4282C7.8093 18.0275 7.48337 17.7016 7.08273 17.7016H6.94937C7.00295 17.5703 7.03277 17.4269 7.03277 17.2766C7.03277 16.6545 6.5267 16.1485 5.90462 16.1485C5.28259 16.1485 4.77653 16.6545 4.77653 17.2766C4.77653 17.427 4.8063 17.5703 4.85992 17.7016H4.72656C4.32592 17.7016 4 18.0275 4 18.4282V19.2313C4 19.6319 4.32592 19.9578 4.72656 19.9578H4.77658V26.2438H4.72656C4.32592 26.2438 4 26.5697 4 26.9703V27.7734C4 28.1741 4.32592 28.5 4.72656 28.5H9.86092C10.0551 28.5 10.2125 28.3426 10.2125 28.1484C10.2125 27.9543 10.0551 27.7969 9.86092 27.7969H7.80817C7.80841 27.789 7.80934 27.7814 7.80934 27.7734V26.9703C7.80934 26.602 7.53367 26.2976 7.17798 26.2507L9.1382 24.6172H22.8617L24.822 26.2507C24.4663 26.2976 24.1907 26.602 24.1907 26.9703V27.7734C24.1907 27.7814 24.1916 27.789 24.1918 27.7969H11.2672C11.073 27.7969 10.9156 27.9543 10.9156 28.1484C10.9156 28.3426 11.073 28.5 11.2672 28.5H27.2734C27.6741 28.5 28 28.1741 28 27.7734V26.9703C28 26.5697 27.6741 26.2438 27.2734 26.2438H27.2235V19.9578H27.2734C27.6741 19.9578 28 19.6319 28 19.2313V18.4282C28 18.0275 27.6741 17.7015 27.2734 17.7015ZM25.6703 17.2766C25.6703 17.0422 25.861 16.8516 26.0953 16.8516C26.3297 16.8516 26.5203 17.0422 26.5203 17.2766C26.5203 17.5109 26.3297 17.7015 26.0953 17.7015C25.861 17.7015 25.6703 17.5109 25.6703 17.2766ZM25.6703 21.5109H26.5203V26.2436H25.6703V21.5109ZM19.4578 7.19452V6.36797H22.2125C22.4469 6.36797 22.6375 6.55861 22.6375 6.79294V23.914H21.7875V7.94452C21.7875 7.54387 21.4616 7.21795 21.061 7.21795H19.4566C19.4569 7.21012 19.4578 7.20244 19.4578 7.19452ZM9.3625 6.79298C9.3625 6.55866 9.55314 6.36802 9.78752 6.36802H12.5422V7.19456C12.5422 7.20248 12.5432 7.21017 12.5434 7.218H10.939C10.5384 7.218 10.2125 7.54392 10.2125 7.94456V23.9141H9.3625V6.79298ZM6.32969 26.2091V26.2436H5.4797V21.5109H6.32969V26.2087V26.2091ZM5.4797 17.2766C5.4797 17.0422 5.67034 16.8516 5.90467 16.8516C6.13905 16.8516 6.32969 17.0422 6.32969 17.2766C6.32969 17.5109 6.13905 17.7015 5.90467 17.7015C5.67034 17.7015 5.4797 17.5109 5.4797 17.2766ZM4.70312 19.2313V18.4282C4.70312 18.4152 4.71362 18.4047 4.72656 18.4047H7.08283C7.09577 18.4047 7.10627 18.4152 7.10627 18.4282V19.2313C7.10627 19.2442 7.09577 19.2547 7.08283 19.2547H6.68125H5.12814H4.72656C4.71362 19.2547 4.70312 19.2442 4.70312 19.2313ZM6.32969 19.9578V20.8078H5.4797V19.9578H6.32969ZM4.72656 27.7969C4.71362 27.7969 4.70312 27.7864 4.70312 27.7734V26.9703C4.70312 26.9574 4.71362 26.9469 4.72656 26.9469H7.08283C7.09577 26.9469 7.10627 26.9574 7.10627 26.9703V27.7734C7.10627 27.7864 7.09577 27.7969 7.08283 27.7969H4.72656ZM10.9156 23.9141V7.94452C10.9156 7.93158 10.9261 7.92108 10.939 7.92108H21.061C21.0738 7.92108 21.0844 7.93158 21.0844 7.94452V23.914H10.9156V23.9141ZM27.2969 26.9703V27.7734C27.2969 27.7864 27.2863 27.7969 27.2734 27.7969H24.9172C24.9043 27.7969 24.8937 27.7864 24.8937 27.7734V26.9703C24.8937 26.9574 24.9043 26.9469 24.9172 26.9469H27.2734C27.2863 26.9469 27.2969 26.9574 27.2969 26.9703ZM26.5203 20.8078H25.6703V19.9578H26.5203V20.8078ZM27.2969 19.2313C27.2969 19.2442 27.2863 19.2547 27.2734 19.2547H26.8719H25.3187H24.9172C24.9043 19.2547 24.8938 19.2442 24.8938 19.2313V18.4282C24.8938 18.4152 24.9043 18.4047 24.9172 18.4047H27.2734C27.2863 18.4047 27.2969 18.4152 27.2969 18.4282V19.2313Z" fill="#5B476B"/>
</svg>
