<svg width="65" height="64" viewBox="0 0 65 64" fill="none" xmlns="http://www.w3.org/2000/svg">
<path fill-rule="evenodd" clip-rule="evenodd" d="M32.6661 58.8801C47.5116 58.8801 59.5461 46.8455 59.5461 32.0001C59.5461 17.1547 47.5116 5.12012 32.6661 5.12012C17.8207 5.12012 5.78613 17.1547 5.78613 32.0001C5.78613 46.8455 17.8207 58.8801 32.6661 58.8801Z" fill="#F4E5FF"/>
<path d="M51.625 34.4025H49.6704V30.9299C49.6599 27.5219 48.3011 24.2566 45.8908 21.8472C43.4805 19.4379 40.2147 18.0803 36.8067 18.0712H33.4829C33.3206 17.6164 33.022 17.2229 32.6278 16.9441C32.2336 16.6653 31.763 16.5149 31.2802 16.5134H28.8593V15.9826H30.6651C31.269 15.9826 31.8482 15.7427 32.2752 15.3157C32.7022 14.8886 32.9421 14.3095 32.9421 13.7055C32.9421 13.1016 32.7022 12.5224 32.2752 12.0954C31.8482 11.6684 31.269 11.4285 30.6651 11.4285H25.5503C24.9464 11.4285 24.3672 11.6684 23.9402 12.0954C23.5132 12.5224 23.2733 13.1016 23.2733 13.7055C23.2733 14.3095 23.5132 14.8886 23.9402 15.3157C24.3672 15.7427 24.9464 15.9826 25.5503 15.9826H27.371V16.5134H25.1535C24.6707 16.5149 24.2001 16.6653 23.8059 16.9441C23.4117 17.2229 23.1131 17.6164 22.9508 18.0712H13.9814C13.7841 18.0712 13.5948 18.1496 13.4553 18.2891C13.3157 18.4287 13.2373 18.6179 13.2373 18.8153V28.0228C13.2373 28.2201 13.3157 28.4094 13.4553 28.549C13.5948 28.6885 13.7841 28.7669 13.9814 28.7669H22.9508C23.1131 29.2216 23.4117 29.6152 23.8059 29.894C24.2001 30.1728 24.6707 30.3232 25.1535 30.3247H31.2752C31.758 30.3232 32.2286 30.1728 32.6228 29.894C33.017 29.6152 33.3156 29.2216 33.4779 28.7669H37.2681C37.7233 28.7669 38.1599 28.9478 38.4818 29.2697C38.8037 29.5916 38.9845 30.0282 38.9845 30.4834V34.4025H37.3127C37.1153 34.4025 36.9261 34.4809 36.7865 34.6205C36.647 34.7601 36.5686 34.9493 36.5686 35.1467C36.5686 35.344 36.647 35.5333 36.7865 35.6729C36.9261 35.8124 37.1153 35.8908 37.3127 35.8908H51.625C51.8223 35.8908 52.0116 35.8124 52.1512 35.6729C52.2907 35.5333 52.3691 35.344 52.3691 35.1467C52.3691 34.9493 52.2907 34.7601 52.1512 34.6205C52.0116 34.4809 51.8223 34.4025 51.625 34.4025ZM24.7615 13.7055C24.7615 13.6019 24.7819 13.4994 24.8216 13.4037C24.8612 13.308 24.9193 13.221 24.9926 13.1478C25.0658 13.0745 25.1528 13.0164 25.2485 12.9768C25.3442 12.9371 25.4468 12.9167 25.5503 12.9167H30.6651C30.8743 12.9167 31.0749 12.9999 31.2228 13.1478C31.3707 13.2957 31.4538 13.4963 31.4538 13.7055C31.4538 13.9147 31.3707 14.1154 31.2228 14.2633C31.0749 14.4112 30.8743 14.4943 30.6651 14.4943H25.5503C25.4468 14.4943 25.3442 14.4739 25.2485 14.4343C25.1528 14.3946 25.0658 14.3365 24.9926 14.2633C24.9193 14.19 24.8612 14.1031 24.8216 14.0074C24.7819 13.9117 24.7615 13.8091 24.7615 13.7055ZM14.7256 19.5594H22.802V27.2786H14.7256V19.5594ZM32.1385 27.993C32.1385 28.222 32.0475 28.4415 31.8856 28.6034C31.7237 28.7653 31.5042 28.8562 31.2752 28.8562H25.1535C25.0367 28.8563 24.9211 28.8328 24.8137 28.7869C24.7063 28.7411 24.6093 28.6739 24.5286 28.5895C24.4479 28.5051 24.3852 28.4052 24.3442 28.2959C24.3032 28.1865 24.2849 28.07 24.2903 27.9533V18.8649C24.2903 18.636 24.3812 18.4164 24.5431 18.2545C24.705 18.0926 24.9245 18.0017 25.1535 18.0017H27.9266C28.0497 18.0378 28.1806 18.0378 28.3037 18.0017H31.2802C31.5091 18.0017 31.7287 18.0926 31.8906 18.2545C32.0525 18.4164 32.1434 18.636 32.1434 18.8649V27.9533L32.1385 27.993ZM40.4728 34.4422V30.4834C40.4715 29.6339 40.1334 28.8195 39.5327 28.2187C38.932 27.618 38.1176 27.28 37.2681 27.2786H33.6664V19.5594H36.8067C39.82 19.5686 42.7073 20.7693 44.8385 22.8996C46.9696 25.0298 48.1716 27.9166 48.1821 30.9299V34.4025H40.4728V34.4422Z" fill="#5B476B" stroke="#5B476B" stroke-width="0.25"/>
<path d="M44.2937 38.1926C44.1765 38.193 44.061 38.2211 43.9567 38.2745C43.8524 38.328 43.7622 38.4053 43.6934 38.5002C43.2668 39.0856 39.5361 44.2797 39.5361 46.6709C39.5361 47.9326 40.0374 49.1427 40.9296 50.0349C41.8218 50.9272 43.0319 51.4284 44.2937 51.4284C45.5554 51.4284 46.7655 50.9272 47.6577 50.0349C48.55 49.1427 49.0512 47.9326 49.0512 46.6709C49.0512 44.2797 45.3206 39.0856 44.8939 38.5002C44.8252 38.4053 44.735 38.328 44.6307 38.2745C44.5263 38.2211 44.4109 38.193 44.2937 38.1926ZM44.2937 49.9352C43.427 49.9338 42.5962 49.589 41.9834 48.9762C41.3706 48.3633 41.0257 47.5326 41.0244 46.6659C41.0244 45.4108 42.8401 42.3499 44.2937 40.2167C45.7472 42.34 47.5629 45.4009 47.5629 46.6659C47.5616 47.5326 47.2167 48.3633 46.6039 48.9762C45.9911 49.589 45.1603 49.9338 44.2937 49.9352Z" fill="#5B476B" stroke="#5B476B" stroke-width="0.25"/>
</svg>
