<svg width="32" height="32" viewBox="0 0 32 32" fill="none" xmlns="http://www.w3.org/2000/svg">
    <path fill-rule="evenodd" clip-rule="evenodd" d="M16.0001 29.44C23.4228 29.44 29.4401 23.4227 29.4401 16C29.4401 8.57729 23.4228 2.56 16.0001 2.56C8.57735 2.56 2.56006 8.57729 2.56006 16C2.56006 23.4227 8.57735 29.44 16.0001 29.44Z" fill="#F4E5FF"/>
    <path d="M25.4795 17.2013H24.5022V15.465C24.4969 13.761 23.8175 12.1283 22.6124 10.9237C21.4073 9.71899 19.7743 9.04022 18.0703 9.03564H16.4084C16.3273 8.80828 16.178 8.6115 15.9809 8.47211C15.7838 8.33272 15.5485 8.25753 15.3071 8.25677H14.0966V7.99136H14.9995C15.3015 7.99136 15.5911 7.87141 15.8046 7.65789C16.0181 7.44438 16.1381 7.15479 16.1381 6.85283C16.1381 6.55087 16.0181 6.26128 15.8046 6.04776C15.5911 5.83425 15.3015 5.71429 14.9995 5.71429H12.4422C12.1402 5.71429 11.8506 5.83425 11.6371 6.04776C11.4236 6.26128 11.3036 6.55087 11.3036 6.85283C11.3036 7.15479 11.4236 7.44438 11.6371 7.65789C11.8506 7.87141 12.1402 7.99136 12.4422 7.99136H13.3525V8.25677H12.2437C12.0023 8.25753 11.767 8.33272 11.5699 8.47211C11.3728 8.6115 11.2235 8.80828 11.1424 9.03564H6.65771C6.55904 9.03564 6.4644 9.07484 6.39462 9.14462C6.32484 9.21439 6.28564 9.30903 6.28564 9.40771V14.0115C6.28564 14.1101 6.32484 14.2048 6.39462 14.2745C6.4644 14.3443 6.55904 14.3835 6.65771 14.3835H11.1424C11.2235 14.6109 11.3728 14.8077 11.5699 14.9471C11.767 15.0864 12.0023 15.1616 12.2437 15.1624H15.3046C15.546 15.1616 15.7813 15.0864 15.9784 14.9471C16.1755 14.8077 16.3248 14.6109 16.4059 14.3835H18.301C18.5286 14.3835 18.7469 14.4739 18.9079 14.6349C19.0688 14.7958 19.1593 15.0141 19.1593 15.2418V17.2013H18.3233C18.2247 17.2013 18.13 17.2405 18.0603 17.3103C17.9905 17.3801 17.9513 17.4747 17.9513 17.5734C17.9513 17.6721 17.9905 17.7667 18.0603 17.8365C18.13 17.9063 18.2247 17.9455 18.3233 17.9455H25.4795C25.5782 17.9455 25.6728 17.9063 25.7426 17.8365C25.8124 17.7667 25.8516 17.6721 25.8516 17.5734C25.8516 17.4747 25.8124 17.3801 25.7426 17.3103C25.6728 17.2405 25.5782 17.2013 25.4795 17.2013ZM12.0478 6.85283C12.0478 6.80104 12.058 6.74975 12.0778 6.7019C12.0976 6.65405 12.1267 6.61057 12.1633 6.57395C12.1999 6.53733 12.2434 6.50828 12.2912 6.48846C12.3391 6.46864 12.3904 6.45843 12.4422 6.45843H14.9995C15.1041 6.45843 15.2044 6.49999 15.2784 6.57395C15.3524 6.64791 15.3939 6.74823 15.3939 6.85283C15.3939 6.95743 15.3524 7.05774 15.2784 7.13171C15.2044 7.20567 15.1041 7.24722 14.9995 7.24722H12.4422C12.3904 7.24722 12.3391 7.23702 12.2912 7.2172C12.2434 7.19738 12.1999 7.16833 12.1633 7.13171C12.1267 7.09508 12.0976 7.05161 12.0778 7.00376C12.058 6.95591 12.0478 6.90462 12.0478 6.85283ZM7.02978 9.77978H11.068V13.6394H7.02978V9.77978ZM15.7362 13.9966C15.7362 14.111 15.6907 14.2208 15.6098 14.3018C15.5289 14.3827 15.4191 14.4282 15.3046 14.4282H12.2437C12.1853 14.4282 12.1275 14.4164 12.0738 14.3935C12.0201 14.3706 11.9716 14.337 11.9313 14.2948C11.8909 14.2526 11.8596 14.2027 11.8391 14.148C11.8186 14.0933 11.8094 14.0351 11.8121 13.9767V9.43251C11.8121 9.31805 11.8576 9.20827 11.9385 9.12733C12.0195 9.04638 12.1293 9.00091 12.2437 9.00091H13.6303C13.6918 9.01897 13.7573 9.01897 13.8188 9.00091H15.3071C15.4216 9.00091 15.5313 9.04638 15.6123 9.12733C15.6932 9.20827 15.7387 9.31805 15.7387 9.43251V13.9767L15.7362 13.9966ZM19.9034 17.2212V15.2418C19.9027 14.817 19.7337 14.4098 19.4333 14.1094C19.133 13.8091 18.7258 13.64 18.301 13.6394H16.5002V9.77978H18.0703C19.577 9.78435 21.0206 10.3847 22.0862 11.4499C23.1518 12.515 23.7528 13.9584 23.758 15.465V17.2013H19.9034V17.2212Z" fill="#5B476B" stroke="#5B476B" stroke-width="0.25"/>
    <path d="M21.8138 19.0964C21.7552 19.0966 21.6975 19.1106 21.6453 19.1373C21.5932 19.1641 21.5481 19.2027 21.5137 19.2502C21.3004 19.5429 19.4351 22.1399 19.4351 23.3355C19.4351 23.9664 19.6857 24.5715 20.1318 25.0176C20.5779 25.4637 21.1829 25.7143 21.8138 25.7143C22.4447 25.7143 23.0498 25.4637 23.4959 25.0176C23.942 24.5715 24.1926 23.9664 24.1926 23.3355C24.1926 22.1399 22.3273 19.5429 22.114 19.2502C22.0796 19.2027 22.0345 19.1641 21.9823 19.1373C21.9302 19.1106 21.8724 19.0966 21.8138 19.0964ZM21.8138 24.9677C21.3805 24.967 20.9651 24.7946 20.6587 24.4882C20.3523 24.1818 20.1799 23.7664 20.1792 23.333C20.1792 22.7055 21.087 21.175 21.8138 20.1084C22.5406 21.1701 23.4485 22.7005 23.4485 23.333C23.4478 23.7664 23.2754 24.1818 22.969 24.4882C22.6625 24.7946 22.2472 24.967 21.8138 24.9677Z" fill="#5B476B" stroke="#5B476B" stroke-width="0.25"/>
</svg>
