<svg width="32" height="32" viewBox="0 0 32 32" fill="none" xmlns="http://www.w3.org/2000/svg">
<path fill-rule="evenodd" clip-rule="evenodd" d="M15.9999 29.4401C23.4226 29.4401 29.4399 23.4228 29.4399 16.0001C29.4399 8.57735 23.4226 2.56006 15.9999 2.56006C8.57723 2.56006 2.55994 8.57735 2.55994 16.0001C2.55994 23.4228 8.57723 29.4401 15.9999 29.4401Z" fill="#F4E5FF"/>
<path d="M24.4734 21.8261C24.3718 21.5974 24.0924 21.4704 23.8637 21.5974C21.5774 22.5882 20.4596 22.1055 19.2656 21.5974C18.0462 21.0894 16.8014 20.5559 14.5912 21.5974C12.3048 22.5882 11.1871 22.1055 9.99307 21.5974C8.77367 21.0894 7.50346 20.5559 5.2933 21.5974C5.06466 21.6991 4.96304 21.9785 5.06466 22.2071C5.16627 22.4358 5.44572 22.5374 5.67436 22.4358C7.52886 21.572 8.49422 21.9785 9.612 22.4612C10.3487 22.766 11.1363 23.0963 12.1778 23.0963C12.9399 23.0963 13.8291 22.9184 14.9469 22.4358C16.8014 21.572 17.7667 21.9785 18.8845 22.4612C19.6212 22.766 20.4088 23.0963 21.4503 23.0963C22.2125 23.0963 23.1016 22.9184 24.2194 22.4358C24.448 22.3342 24.5751 22.0547 24.4734 21.8261Z" fill="#5B476B"/>
<path d="M24.4482 24.8261C24.3465 24.5974 24.0671 24.4704 23.8385 24.5974C21.5521 25.5882 20.4343 25.1055 19.2403 24.5974C18.0209 24.0894 16.7761 23.5559 14.566 24.5974C12.2796 25.5882 11.1618 25.1055 9.9678 24.5974C8.7484 24.0894 7.50359 23.5559 5.26803 24.5974C5.03939 24.6991 4.93777 24.9785 5.03939 25.2071C5.16641 25.4358 5.44586 25.5374 5.67449 25.4358C7.529 24.572 8.49436 24.9785 9.61214 25.4612C10.3489 25.766 11.1364 26.0963 12.178 26.0963C12.9401 26.0963 13.8292 25.9185 14.947 25.4358C16.8015 24.572 17.7669 24.9785 18.8847 25.4612C19.6214 25.766 20.4089 26.0963 21.4505 26.0963C22.2126 26.0963 23.1017 25.9185 24.2195 25.4358C24.4482 25.3342 24.5752 25.0547 24.4482 24.8261Z" fill="#5B476B"/>
<path d="M22.2125 5C20.3326 5 18.8084 6.52425 18.8084 8.40416V10.2079H10.7298V8.40416C10.7298 7.03233 11.8476 5.91455 13.2194 5.91455C14.5913 5.91455 15.7091 7.03233 15.7091 8.40416C15.7091 8.6582 15.9123 8.86143 16.1663 8.86143C16.4204 8.86143 16.6236 8.6582 16.6236 8.40416C16.6236 6.52425 15.0994 5 13.2194 5C11.3395 5 9.81529 6.52425 9.81529 8.40416V19.963C9.78989 20.2171 10.0185 20.4457 10.2726 20.4457C10.5266 20.4457 10.7298 20.2425 10.7298 19.9885V18.8453H18.8338V19.9885C18.8338 20.2425 19.037 20.4457 19.291 20.4457C19.5451 20.4457 19.7483 20.2425 19.7483 19.9885V8.40416C19.7483 7.03233 20.8661 5.91455 22.2379 5.91455C23.6097 5.91455 24.7021 7.03233 24.7021 8.40416C24.7021 8.6582 24.9054 8.86143 25.1594 8.86143C25.4134 8.86143 25.6167 8.6582 25.6167 8.40416C25.6167 6.52425 24.0924 5 22.2125 5ZM18.8338 17.8799H10.7298V16.254H18.8338V17.8799ZM18.8338 15.3395H10.7298V13.7136H18.8338V15.3395ZM18.8338 12.7483H10.7298V11.1224H18.8338V12.7483Z" fill="#5B476B"/>
</svg>
