<svg width="32" height="32" viewBox="0 0 32 32" fill="none" xmlns="http://www.w3.org/2000/svg">
<path fill-rule="evenodd" clip-rule="evenodd" d="M15.7256 29.1657C23.1484 29.1657 29.1656 23.1484 29.1656 15.7257C29.1656 8.303 23.1484 2.28571 15.7256 2.28571C8.30294 2.28571 2.28564 8.303 2.28564 15.7257C2.28564 23.1484 8.30294 29.1657 15.7256 29.1657Z" fill="#F4E5FF"/>
<g clip-path="url(#clip0)">
<path d="M15.622 12.5114C17.1694 12.5114 18.4239 11.2569 18.4239 9.70945C18.4239 8.16199 17.1694 6.90753 15.622 6.90753C14.0745 6.90753 12.8201 8.16199 12.8201 9.70945C12.8201 11.2569 14.0745 12.5114 15.622 12.5114Z" stroke="#5B476B" stroke-width="0.8" stroke-miterlimit="10"/>
<path d="M12.136 15.8225L11.5598 19.6745L15.3038 20.774C15.3038 20.774 15.7728 21.3702 15.6706 21.9782C15.5165 22.8993 14.5183 23.0266 14.5183 23.0266L9.51659 21.8735C9.51659 21.8735 8.70432 21.6382 8.73112 20.774C8.75791 19.9098 9.75274 14.2248 9.75274 14.2248C9.75274 14.2248 9.83061 13.4653 10.3289 13.2032C10.8271 12.941 13.1316 11.5007 13.1316 11.5007" stroke="#5B476B" stroke-width="0.8" stroke-miterlimit="10" stroke-linecap="round"/>
<path d="M19.231 15.8225L19.808 19.6745L16.0615 20.7749C16.0615 20.7749 15.5926 21.3711 15.6947 21.979C15.8497 22.9002 16.8478 23.0274 16.8478 23.0274L21.8512 21.8744C21.8512 21.8744 22.6627 21.639 22.6367 20.7749C22.6108 19.9107 21.6151 14.2256 21.6151 14.2256C21.6151 14.2256 21.5364 13.4661 21.039 13.204C20.5416 12.9419 18.2345 11.5007 18.2345 11.5007" stroke="#5B476B" stroke-width="0.8" stroke-miterlimit="10" stroke-linecap="round"/>
<path d="M18.2659 23.6941L18.8789 26.3344C18.8889 26.3737 18.8286 26.4089 18.7516 26.4089H12.6168C12.5398 26.4089 12.4795 26.3737 12.4887 26.3344L13.1025 23.6941" stroke="#5B476B" stroke-width="0.8" stroke-miterlimit="10" stroke-linecap="round"/>
<path d="M7.86523 20.0555V8.30693C7.86788 7.49719 8.19078 6.72139 8.76344 6.14889C9.33609 5.5764 10.112 5.25371 10.9217 5.25128H20.4194C21.2291 5.25371 22.0049 5.57642 22.5774 6.14894C23.1499 6.72146 23.4726 7.49727 23.4751 8.30693V20.0555" stroke="#5B476B" stroke-width="0.8" stroke-miterlimit="10" stroke-linecap="round"/>
<path d="M22.8484 20.2985H27.0287" stroke="#5B476B" stroke-width="0.8" stroke-miterlimit="10" stroke-linecap="round"/>
<path d="M4.25 20.2985H8.4311" stroke="#5B476B" stroke-width="0.8" stroke-miterlimit="10" stroke-linecap="round"/>
</g>
<defs>
<clipPath id="clip0">
<rect width="23.2812" height="21.66" fill="white" transform="translate(4 5)"/>
</clipPath>
</defs>
</svg>
