<svg width="21" height="19" viewBox="0 0 21 19" fill="none" xmlns="http://www.w3.org/2000/svg">
    <path fill-rule="evenodd" clip-rule="evenodd" d="M7.69688 0.515625H3.025C1.79238 0.515625 0.796875 1.53665 0.796875 2.79167V16.2083C0.796875 17.4633 1.79238 18.4844 3.025 18.4844H17.975C19.2076 18.4844 20.2031 17.4633 20.2031 16.2083V5.66667L20.1996 5.5377C20.1342 4.34245 19.1651 3.39062 17.975 3.39062H9.76041L7.99819 0.679145C7.9319 0.577157 7.81851 0.515625 7.69688 0.515625ZM3.025 1.23438H7.50138L9.26431 3.94586C9.3306 4.04784 9.44398 4.10938 9.56563 4.10938H17.975C18.8065 4.10938 19.4844 4.80459 19.4844 5.66667V16.2083C19.4844 17.0704 18.8065 17.7656 17.975 17.7656H3.025C2.19346 17.7656 1.51562 17.0704 1.51562 16.2083V2.79167C1.51562 1.92959 2.19346 1.23438 3.025 1.23438Z" fill="current"/>
</svg>
