<svg width="56" height="56" viewBox="0 0 56 56" fill="none" xmlns="http://www.w3.org/2000/svg">
<path fill-rule="evenodd" clip-rule="evenodd" d="M28 51.52C40.9897 51.52 51.52 40.9897 51.52 28C51.52 15.0102 40.9897 4.47998 28 4.47998C15.0102 4.47998 4.47998 15.0102 4.47998 28C4.47998 40.9897 15.0102 51.52 28 51.52Z" fill="#F4E5FF"/>
<path fill-rule="evenodd" clip-rule="evenodd" d="M12.6003 39.2001H43.8003V11.9001H12.6003V39.2001ZM44.4503 40.5001H11.9503C11.5908 40.5001 11.3003 40.2089 11.3003 39.8501V11.2501C11.3003 10.8913 11.5908 10.6001 11.9503 10.6001H44.4503C44.8097 10.6001 45.1003 10.8913 45.1003 11.2501V39.8501C45.1003 40.2089 44.8097 40.5001 44.4503 40.5001Z" fill="#5B476B"/>
<path fill-rule="evenodd" clip-rule="evenodd" d="M15.2004 36.6002H41.2004V14.5002H15.2004V36.6002ZM41.8504 37.9002H14.5504C14.1909 37.9002 13.9004 37.609 13.9004 37.2502V13.8502C13.9004 13.4914 14.1909 13.2002 14.5504 13.2002H41.8504C42.2098 13.2002 42.5004 13.4914 42.5004 13.8502V37.2502C42.5004 37.609 42.2098 37.9002 41.8504 37.9002Z" fill="#5B476B"/>
</svg>
