<svg width="32" height="32" viewBox="0 0 32 32" fill="none" xmlns="http://www.w3.org/2000/svg">
<path fill-rule="evenodd" clip-rule="evenodd" d="M15.7256 29.1658C23.1484 29.1658 29.1656 23.1485 29.1656 15.7258C29.1656 8.30306 23.1484 2.28577 15.7256 2.28577C8.30294 2.28577 2.28564 8.30306 2.28564 15.7258C2.28564 23.1485 8.30294 29.1658 15.7256 29.1658Z" fill="#F4E5FF"/>
<path d="M29.4583 21.8386H26.4426V16.8433H28.9076C29.0322 16.8433 29.1333 16.7422 29.1333 16.6176V15.6C29.1333 15.4754 29.0322 15.3743 28.9076 15.3743H27.591L27.7548 12.9898C27.7592 12.9275 27.7373 12.866 27.6947 12.8203C27.652 12.7746 27.5923 12.7486 27.5297 12.7486H26.4426V12.4573L26.7303 12.1726C26.8293 12.2225 26.938 12.2519 27.0522 12.2519C27.2441 12.2519 27.4247 12.1771 27.5604 12.0413C27.7939 11.8078 27.8615 11.1475 27.8766 10.9508C27.8818 10.8851 27.8578 10.8205 27.8112 10.7739C27.7648 10.7273 27.7003 10.7019 27.6343 10.7085C27.4376 10.7236 26.7773 10.7912 26.5437 11.0247C26.5038 11.0647 26.4711 11.1089 26.4426 11.155V10.8914C26.728 10.7961 26.9357 10.5294 26.9357 10.2125C26.9357 9.88232 26.5166 9.36763 26.3882 9.21776C26.3024 9.11784 26.1314 9.11784 26.0456 9.21776C25.9172 9.36763 25.4981 9.88232 25.4981 10.2125C25.4981 10.5294 25.7058 10.7961 25.9912 10.8914V11.1552C25.9626 11.109 25.93 11.0647 25.89 11.0247C25.6565 10.7912 24.9962 10.7236 24.7995 10.7085C24.7331 10.7022 24.6691 10.7273 24.6226 10.7739C24.576 10.8205 24.552 10.8851 24.5572 10.9508C24.5723 11.1475 24.6399 11.8078 24.8734 12.0415C25.0091 12.1771 25.1897 12.2519 25.3818 12.2519C25.4958 12.2519 25.6045 12.2225 25.7035 12.1726L25.9912 12.4573V12.7486H24.9041C24.8415 12.7486 24.7818 12.7746 24.7391 12.8203C24.6965 12.866 24.6746 12.9275 24.679 12.9898L24.8428 15.3743H23.5262C23.4016 15.3743 23.3005 15.4754 23.3005 15.6V16.6176C23.3005 16.7422 23.4016 16.8433 23.5262 16.8433H25.9912V21.8386H20.6514C20.6724 21.7747 20.6866 21.7076 20.6866 21.6368V21.0072H22.5391C22.6637 21.0072 22.7648 20.9061 22.7648 20.7815V18.6189V16.0352C22.7648 15.3713 22.2247 14.8312 21.5608 14.8312H20.2589V13.9921C20.2589 13.1934 19.6091 12.5437 18.8106 12.5437H12.811H6.81151C6.0128 12.5437 5.36308 13.1934 5.36308 13.9921V14.8312H4.06113C3.39729 14.8312 2.85718 15.3713 2.85718 16.0352V18.6189V20.7815C2.85718 20.9061 2.95827 21.0072 3.08286 21.0072H4.93551V21.6368C4.93551 21.7076 4.94972 21.7747 4.9707 21.8386H3.08286C2.95827 21.8386 2.85718 21.9397 2.85718 22.0643C2.85718 22.1889 2.95827 22.29 3.08286 22.29H29.4583C29.5829 22.29 29.684 22.1889 29.684 22.0643C29.684 21.9397 29.5829 21.8386 29.4583 21.8386ZM26.863 11.3438C26.9145 11.2923 27.1386 11.2304 27.3944 11.1907C27.3547 11.4465 27.2929 11.6706 27.2413 11.722C27.1399 11.823 26.9636 11.8228 26.8631 11.7222C26.7588 11.6179 26.7588 11.4482 26.863 11.3438ZM26.2169 9.72849C26.3697 9.93742 26.4843 10.1396 26.4843 10.2125C26.4843 10.36 26.3644 10.4799 26.2169 10.4799C26.0694 10.4799 25.9495 10.36 25.9495 10.2125C25.9495 10.1396 26.0641 9.93742 26.2169 9.72849ZM25.1925 11.7222C25.1409 11.6706 25.0791 11.4465 25.0394 11.1907C25.2952 11.2304 25.5193 11.2923 25.5707 11.3438C25.675 11.4482 25.675 11.6179 25.5709 11.722C25.4695 11.823 25.2933 11.8228 25.1925 11.7222ZM25.1458 13.2H27.288L27.1386 15.3743H25.2952L25.1458 13.2ZM23.7519 15.8257H25.0845H27.3493H28.682V16.3919H26.2446C26.2351 16.3907 26.2267 16.3863 26.2169 16.3863C26.2071 16.3863 26.1987 16.3907 26.1892 16.3919H23.7519V15.8257ZM20.2352 21.6368C20.2352 21.7481 20.1446 21.8386 20.0332 21.8386C19.9218 21.8386 19.8313 21.7481 19.8313 21.6368V21.0072H20.2352V21.6368ZM6.24201 21.0072H19.3799V21.6368C19.3799 21.7076 19.3942 21.7747 19.4151 21.8386H6.20682C6.2278 21.7747 6.24201 21.7076 6.24201 21.6368V21.0072ZM21.5608 15.2826C21.9758 15.2826 22.3134 15.6202 22.3134 16.0352V18.3933H20.2589V17.1245V15.2826H21.5608ZM13.0367 18.3933V17.3502H19.8075V18.3933H13.0367ZM5.81445 18.3933V17.3502H12.5853V18.3933H5.81445ZM19.8075 13.9921V15.0569V16.8988H13.0367V12.995H18.8106C19.3603 12.995 19.8075 13.4423 19.8075 13.9921ZM5.81445 13.9921C5.81445 13.4423 6.2617 12.995 6.81151 12.995H12.5853V16.8988H5.81445V15.0569V13.9921ZM3.30855 16.0352C3.30855 15.6202 3.64619 15.2826 4.06113 15.2826H5.36308V17.1245V18.3933H3.30855V16.0352ZM3.30855 18.8446H5.58876H12.811H20.0332H22.3134V20.5558H20.4609H19.6056H6.01633H5.16119H3.30855V18.8446ZM5.38688 21.6368V21.0072H5.79064V21.6368C5.79064 21.7481 5.70013 21.8386 5.58876 21.8386C5.47739 21.8386 5.38688 21.7481 5.38688 21.6368Z" fill="#5B476B" stroke="#5B476B" stroke-width="0.285714"/>
</svg>
