<svg width="178" height="230" viewBox="0 0 178 230" fill="none" xmlns="http://www.w3.org/2000/svg">
    <rect x="0.5" y="0.5" width="177" height="229" rx="8.5" fill="white" stroke="#5B476B"/>
    <rect x="14" y="115" width="46" height="46" fill="#777185"/>
    <rect x="66" y="115" width="46" height="46" fill="#777185"/>
    <rect x="118" y="115" width="46" height="46" fill="#777185"/>
    <rect x="14" y="165" width="46" height="46" fill="#777185"/>
    <rect x="66" y="165" width="46" height="46" fill="#777185"/>
    <rect x="118" y="165" width="46" height="46" fill="#777185"/>
    <rect x="14" y="24" width="52" height="7" fill="#1E0D47"/>
    <rect x="14" y="56" width="52" height="7" fill="#1E0D47"/>
    <rect x="14" y="95" width="52" height="7" fill="#1E0D47"/>
    <rect x="14" y="35" width="150" height="5" fill="#D2CFDA"/>
    <rect x="14" y="67" width="150" height="5" fill="#D2CFDA"/>
    <rect x="14" y="41" width="150" height="5" fill="#D2CFDA"/>
    <rect x="14" y="73" width="150" height="5" fill="#D2CFDA"/>
    <rect x="14" y="47" width="150" height="5" fill="#D2CFDA"/>
    <rect x="14" y="79" width="150" height="5" fill="#D2CFDA"/>
    <rect x="14" y="106" width="150" height="5" fill="#D2CFDA"/>
</svg>
