<svg width="32" height="32" viewBox="0 0 32 32" fill="none" xmlns="http://www.w3.org/2000/svg">
<path fill-rule="evenodd" clip-rule="evenodd" d="M15.7256 29.1657C23.1484 29.1657 29.1656 23.1484 29.1656 15.7257C29.1656 8.303 23.1484 2.28571 15.7256 2.28571C8.30294 2.28571 2.28564 8.303 2.28564 15.7257C2.28564 23.1484 8.30294 29.1657 15.7256 29.1657Z" fill="#F4E5FF"/>
<rect x="5.39844" y="8.39844" width="20.9844" height="16.2031" rx="3.85156" stroke="#5B476B" stroke-width="0.796875"/>
<path d="M9.97569 20.125L8.46481 13.4504H9.89919L10.5303 16.6538L10.8841 18.5089H10.9128L11.3336 16.6538L12.0699 13.4504H13.6572L14.4031 16.6538L14.8143 18.5089H14.843L15.1968 16.6538L15.8375 13.4504H17.2145L15.6654 20.125H14.0111L13.1696 16.5104L12.8444 15.0473H12.8157L12.4811 16.5104L11.6396 20.125H9.97569ZM20.6973 20.2397C20.2447 20.2397 19.8367 20.1696 19.4733 20.0294C19.11 19.8828 18.8008 19.6692 18.5458 19.3887C18.2908 19.1018 18.0932 18.748 17.9529 18.3273C17.8127 17.9001 17.7425 17.4029 17.7425 16.8355C17.7425 16.2745 17.8127 15.7773 17.9529 15.3438C18.0932 14.9039 18.2908 14.5373 18.5458 14.2441C18.8008 13.9444 19.11 13.7181 19.4733 13.5651C19.8367 13.4121 20.2447 13.3356 20.6973 13.3356C21.3157 13.3356 21.8257 13.4631 22.2273 13.7181C22.629 13.9668 22.9509 14.362 23.1932 14.9039L21.9405 15.5541C21.8512 15.2736 21.711 15.0505 21.5197 14.8848C21.3348 14.7126 21.0607 14.6266 20.6973 14.6266C20.2702 14.6266 19.926 14.7668 19.6646 15.0473C19.4096 15.3214 19.2821 15.7231 19.2821 16.2522V17.3232C19.2821 17.8523 19.4096 18.2571 19.6646 18.5376C19.926 18.8118 20.2702 18.9488 20.6973 18.9488C21.0543 18.9488 21.338 18.8532 21.5484 18.6619C21.7652 18.4643 21.9245 18.2284 22.0265 17.9543L23.2123 18.6428C22.9637 19.1528 22.6353 19.5481 22.2273 19.8286C21.8257 20.1027 21.3157 20.2397 20.6973 20.2397Z" fill="#5B476B"/>
</svg>
