<svg width="64" height="64" viewBox="0 0 64 64" fill="none" xmlns="http://www.w3.org/2000/svg">
<path fill-rule="evenodd" clip-rule="evenodd" d="M32.0001 58.8801C46.8455 58.8801 58.8801 46.8455 58.8801 32.0001C58.8801 17.1547 46.8455 5.12012 32.0001 5.12012C17.1547 5.12012 5.12012 17.1547 5.12012 32.0001C5.12012 46.8455 17.1547 58.8801 32.0001 58.8801Z" fill="#F4E5FF"/>
<path d="M14.2732 27.9535C12.2228 27.9535 10.5882 26.2622 10.5504 24.2307C10.541 23.437 10.5504 22.6434 10.5504 21.8497C10.5504 19.3836 10.5504 16.9175 10.5504 14.4608C10.5504 14.4514 10.5504 14.4325 10.5504 14.423C10.3142 14.6592 10.078 14.8954 9.84178 15.1317C12.7898 15.1317 15.7472 15.1317 18.6952 15.1317C18.459 14.8954 18.2228 14.6592 17.9865 14.423C17.9865 16.7285 17.9865 19.0434 17.9865 21.3489C17.9865 22.2938 17.9865 23.2481 17.9865 24.1929C17.9865 26.0543 16.6732 27.5661 14.859 27.9157C14.6795 27.9441 14.4716 27.9441 14.2732 27.9535C13.3567 27.963 13.3567 29.3803 14.2732 29.3708C16.5503 29.333 18.5062 27.8685 19.196 25.7047C19.4983 24.7599 19.4133 23.6922 19.4133 22.7C19.4133 20.045 19.4133 17.3993 19.4133 14.7443C19.4133 14.6403 19.4133 14.5269 19.4133 14.423C19.4133 14.0356 19.092 13.7144 18.7046 13.7144C15.7567 13.7144 12.7992 13.7144 9.85123 13.7144C9.46383 13.7144 9.14258 14.0356 9.14258 14.423C9.14258 16.7285 9.14258 19.0434 9.14258 21.3489C9.14258 22.2938 9.14258 23.2481 9.14258 24.1929C9.14258 26.1677 10.267 28.0008 12.0528 28.8606C12.7425 29.1913 13.5079 29.3708 14.2732 29.3708C15.1897 29.3708 15.1897 27.9535 14.2732 27.9535Z" fill="#5B476B"/>
<path d="M14.2732 27.9535C12.2228 27.9535 10.5882 26.2622 10.5504 24.2307C10.541 23.437 10.5504 22.6434 10.5504 21.8497C10.5504 19.3836 10.5504 16.9175 10.5504 14.4608C10.5504 14.4514 10.5504 14.4325 10.5504 14.423C10.3142 14.6592 10.078 14.8954 9.84178 15.1317C12.7898 15.1317 15.7472 15.1317 18.6952 15.1317C18.459 14.8954 18.2228 14.6592 17.9865 14.423C17.9865 16.7285 17.9865 19.0434 17.9865 21.3489C17.9865 22.2938 17.9865 23.2481 17.9865 24.1929C17.9865 26.0543 16.6732 27.5661 14.859 27.9157C14.6795 27.9441 14.4716 27.9441 14.2732 27.9535ZM14.2732 27.9535C13.3567 27.963 13.3567 29.3803 14.2732 29.3708C16.5503 29.333 18.5062 27.8685 19.196 25.7047C19.4983 24.7599 19.4133 23.6922 19.4133 22.7C19.4133 20.045 19.4133 17.3993 19.4133 14.7443C19.4133 14.6403 19.4133 14.5269 19.4133 14.423C19.4133 14.0356 19.092 13.7144 18.7046 13.7144C15.7567 13.7144 12.7992 13.7144 9.85123 13.7144C9.46383 13.7144 9.14258 14.0356 9.14258 14.423C9.14258 16.7285 9.14258 19.0434 9.14258 21.3489C9.14258 22.2938 9.14258 23.2481 9.14258 24.1929C9.14258 26.1677 10.267 28.0008 12.0528 28.8606C12.7425 29.1913 13.5079 29.3708 14.2732 29.3708C15.1897 29.3708 15.1897 27.9535 14.2732 27.9535Z" stroke="#5B476B" stroke-width="0.25"/>
<path d="M26.8492 14.4325C26.8492 16.738 26.8492 19.0529 26.8492 21.3584C26.8492 22.3033 26.8492 23.2576 26.8492 24.2025C26.8492 26.1205 25.4602 27.6323 23.5988 27.9441C21.5201 28.2843 19.5832 26.5741 19.4131 24.5426C19.3469 23.7111 19.4036 22.8608 19.4036 22.0293C19.4036 19.5254 19.4036 17.012 19.4036 14.5081C19.4036 14.4798 19.4036 14.4609 19.4036 14.4325C19.1674 14.6687 18.9312 14.905 18.695 15.1412C21.643 15.1412 24.6004 15.1412 27.5484 15.1412C28.4649 15.1412 28.4649 13.7239 27.5484 13.7239C24.6004 13.7239 21.643 13.7239 18.695 13.7239C18.3076 13.7239 17.9863 14.0451 17.9863 14.4325C17.9863 16.738 17.9863 19.0529 17.9863 21.3584C17.9863 22.3033 17.9863 23.2576 17.9863 24.2025C17.9863 26.215 19.158 28.0859 20.991 28.9174C23.0792 29.8622 25.602 29.2859 27.0665 27.519C28.0114 26.3851 28.257 25.0434 28.257 23.6166C28.257 20.9143 28.257 18.2026 28.257 15.5002C28.257 15.1412 28.257 14.7916 28.257 14.4325C28.2665 13.5255 26.8492 13.5255 26.8492 14.4325Z" fill="#5B476B" stroke="#5B476B" stroke-width="0.25"/>
<path d="M31.989 27.9535C29.9387 27.9535 28.304 26.2622 28.2663 24.2307C28.2568 23.437 28.2663 22.6434 28.2663 21.8497C28.2663 19.3836 28.2663 16.9175 28.2663 14.4608C28.2663 14.4514 28.2663 14.4325 28.2663 14.423C28.03 14.6592 27.7938 14.8954 27.5576 15.1317C30.5056 15.1317 33.463 15.1317 36.411 15.1317C36.1748 14.8954 35.9386 14.6592 35.7024 14.423C35.7024 16.7285 35.7024 19.0434 35.7024 21.3489C35.7024 22.2938 35.7024 23.2481 35.7024 24.1929C35.7024 26.0543 34.389 27.5661 32.5749 27.9157C32.3859 27.9441 32.1875 27.9441 31.989 27.9535C31.0725 27.963 31.0725 29.3803 31.989 29.3708C34.2662 29.333 36.222 27.8685 36.9118 25.7047C37.2142 24.7599 37.1291 23.6922 37.1291 22.7C37.1291 20.045 37.1291 17.3993 37.1291 14.7443C37.1291 14.6403 37.1291 14.5269 37.1291 14.423C37.1291 14.0356 36.8079 13.7144 36.4205 13.7144C33.4725 13.7144 30.515 13.7144 27.567 13.7144C27.1797 13.7144 26.8584 14.0356 26.8584 14.423C26.8584 16.7285 26.8584 19.0434 26.8584 21.3489C26.8584 22.2938 26.8584 23.2481 26.8584 24.1929C26.8584 26.1677 27.9828 28.0008 29.7686 28.8606C30.4583 29.1913 31.2237 29.3708 31.989 29.3708C32.9056 29.3708 32.9056 27.9535 31.989 27.9535Z" fill="#5B476B"/>
<path d="M31.989 27.9535C29.9387 27.9535 28.304 26.2622 28.2663 24.2307C28.2568 23.437 28.2663 22.6434 28.2663 21.8497C28.2663 19.3836 28.2663 16.9175 28.2663 14.4608C28.2663 14.4514 28.2663 14.4325 28.2663 14.423C28.03 14.6592 27.7938 14.8954 27.5576 15.1317C30.5056 15.1317 33.463 15.1317 36.411 15.1317C36.1748 14.8954 35.9386 14.6592 35.7024 14.423C35.7024 16.7285 35.7024 19.0434 35.7024 21.3489C35.7024 22.2938 35.7024 23.2481 35.7024 24.1929C35.7024 26.0543 34.389 27.5661 32.5749 27.9157C32.3859 27.9441 32.1875 27.9441 31.989 27.9535ZM31.989 27.9535C31.0725 27.963 31.0725 29.3803 31.989 29.3708C34.2662 29.333 36.222 27.8685 36.9118 25.7047C37.2142 24.7599 37.1291 23.6922 37.1291 22.7C37.1291 20.045 37.1291 17.3993 37.1291 14.7443C37.1291 14.6403 37.1291 14.5269 37.1291 14.423C37.1291 14.0356 36.8079 13.7144 36.4205 13.7144C33.4725 13.7144 30.515 13.7144 27.567 13.7144C27.1797 13.7144 26.8584 14.0356 26.8584 14.423C26.8584 16.7285 26.8584 19.0434 26.8584 21.3489C26.8584 22.2938 26.8584 23.2481 26.8584 24.1929C26.8584 26.1677 27.9828 28.0008 29.7686 28.8606C30.4583 29.1913 31.2237 29.3708 31.989 29.3708C32.9056 29.3708 32.9056 27.9535 31.989 27.9535Z" stroke="#5B476B" stroke-width="0.25"/>
<path d="M40.8425 27.9723C38.7922 27.9723 37.1576 26.281 37.1198 24.2495C37.1103 23.4558 37.1198 22.6622 37.1198 21.8685C37.1198 19.4024 37.1198 16.9363 37.1198 14.4796C37.1198 14.4702 37.1198 14.4513 37.1198 14.4418C36.8835 14.678 36.6473 14.9142 36.4111 15.1505C39.3591 15.1505 42.3165 15.1505 45.2645 15.1505C45.0283 14.9142 44.7921 14.678 44.5559 14.4418C44.5559 16.7473 44.5559 19.0622 44.5559 21.3677C44.5559 22.3126 44.5559 23.2669 44.5559 24.2117C44.5559 26.0731 43.2425 27.5849 41.4284 27.9345C41.2394 27.9629 41.041 27.9629 40.8425 27.9723C39.926 27.9818 39.926 29.3991 40.8425 29.3896C43.1197 29.3518 45.0756 27.8873 45.7653 25.7235C46.0677 24.7787 45.9826 23.711 45.9826 22.7188C45.9826 20.0638 45.9826 17.4181 45.9826 14.7631C45.9826 14.6591 45.9826 14.5457 45.9826 14.4418C45.9826 14.0544 45.6614 13.7332 45.274 13.7332C42.326 13.7332 39.3686 13.7332 36.4206 13.7332C36.0332 13.7332 35.7119 14.0544 35.7119 14.4418C35.7119 16.7473 35.7119 19.0622 35.7119 21.3677C35.7119 22.3126 35.7119 23.2669 35.7119 24.2117C35.7119 26.1865 36.8363 28.0196 38.6221 28.8794C39.3119 29.2101 40.0772 29.3896 40.8425 29.3896C41.7591 29.3896 41.7591 27.9723 40.8425 27.9723Z" fill="#5B476B"/>
<path d="M40.8425 27.9723C38.7922 27.9723 37.1576 26.281 37.1198 24.2495C37.1103 23.4558 37.1198 22.6622 37.1198 21.8685C37.1198 19.4024 37.1198 16.9363 37.1198 14.4796C37.1198 14.4702 37.1198 14.4513 37.1198 14.4418C36.8835 14.678 36.6473 14.9142 36.4111 15.1505C39.3591 15.1505 42.3165 15.1505 45.2645 15.1505C45.0283 14.9142 44.7921 14.678 44.5559 14.4418C44.5559 16.7473 44.5559 19.0622 44.5559 21.3677C44.5559 22.3126 44.5559 23.2669 44.5559 24.2117C44.5559 26.0731 43.2425 27.5849 41.4284 27.9345C41.2394 27.9629 41.041 27.9629 40.8425 27.9723ZM40.8425 27.9723C39.926 27.9818 39.926 29.3991 40.8425 29.3896C43.1197 29.3518 45.0756 27.8873 45.7653 25.7235C46.0677 24.7787 45.9826 23.711 45.9826 22.7188C45.9826 20.0638 45.9826 17.4181 45.9826 14.7631C45.9826 14.6591 45.9826 14.5457 45.9826 14.4418C45.9826 14.0544 45.6614 13.7332 45.274 13.7332C42.326 13.7332 39.3686 13.7332 36.4206 13.7332C36.0332 13.7332 35.7119 14.0544 35.7119 14.4418C35.7119 16.7473 35.7119 19.0622 35.7119 21.3677C35.7119 22.3126 35.7119 23.2669 35.7119 24.2117C35.7119 26.1865 36.8363 28.0196 38.6221 28.8794C39.3119 29.2101 40.0772 29.3896 40.8425 29.3896C41.7591 29.3896 41.7591 27.9723 40.8425 27.9723Z" stroke="#5B476B" stroke-width="0.25"/>
<path d="M49.7058 27.9723C47.6555 27.9723 46.0208 26.281 45.983 24.2495C45.9736 23.4558 45.983 22.6622 45.983 21.8685C45.983 19.4024 45.983 16.9363 45.983 14.4796C45.983 14.4702 45.983 14.4513 45.983 14.4418C45.7468 14.678 45.5106 14.9142 45.2744 15.1505C48.2224 15.1505 51.1798 15.1505 54.1278 15.1505C53.8916 14.9142 53.6554 14.678 53.4192 14.4418C53.4192 16.7473 53.4192 19.0622 53.4192 21.3677C53.4192 22.3126 53.4192 23.2669 53.4192 24.2117C53.4192 26.0731 52.1058 27.5849 50.2916 27.9345C50.1027 27.9629 49.8948 27.9629 49.7058 27.9723C48.7893 27.9818 48.7893 29.3991 49.7058 29.3896C51.983 29.3518 53.9388 27.8873 54.6286 25.7235C54.9309 24.7787 54.8459 23.711 54.8459 22.7188C54.8459 20.0638 54.8459 17.4181 54.8459 14.7631C54.8459 14.6591 54.8459 14.5457 54.8459 14.4418C54.8459 14.0544 54.5247 13.7332 54.1373 13.7332C51.1893 13.7332 48.2318 13.7332 45.2838 13.7332C44.8965 13.7332 44.5752 14.0544 44.5752 14.4418C44.5752 16.7473 44.5752 19.0622 44.5752 21.3677C44.5752 22.3126 44.5752 23.2669 44.5752 24.2117C44.5752 26.1865 45.6996 28.0196 47.4854 28.8794C48.1751 29.2101 48.9405 29.3896 49.7058 29.3896C50.6129 29.3896 50.6129 27.9723 49.7058 27.9723Z" fill="#5B476B"/>
<path d="M49.7058 27.9723C47.6555 27.9723 46.0208 26.281 45.983 24.2495C45.9736 23.4558 45.983 22.6622 45.983 21.8685C45.983 19.4024 45.983 16.9363 45.983 14.4796C45.983 14.4702 45.983 14.4513 45.983 14.4418C45.7468 14.678 45.5106 14.9142 45.2744 15.1505C48.2224 15.1505 51.1798 15.1505 54.1278 15.1505C53.8916 14.9142 53.6554 14.678 53.4192 14.4418C53.4192 16.7473 53.4192 19.0622 53.4192 21.3677C53.4192 22.3126 53.4192 23.2669 53.4192 24.2117C53.4192 26.0731 52.1058 27.5849 50.2916 27.9345C50.1027 27.9629 49.8948 27.9629 49.7058 27.9723ZM49.7058 27.9723C48.7893 27.9818 48.7893 29.3991 49.7058 29.3896C51.983 29.3518 53.9388 27.8873 54.6286 25.7235C54.9309 24.7787 54.8459 23.711 54.8459 22.7188C54.8459 20.0638 54.8459 17.4181 54.8459 14.7631C54.8459 14.6591 54.8459 14.5457 54.8459 14.4418C54.8459 14.0544 54.5247 13.7332 54.1373 13.7332C51.1893 13.7332 48.2318 13.7332 45.2838 13.7332C44.8965 13.7332 44.5752 14.0544 44.5752 14.4418C44.5752 16.7473 44.5752 19.0622 44.5752 21.3677C44.5752 22.3126 44.5752 23.2669 44.5752 24.2117C44.5752 26.1865 45.6996 28.0196 47.4854 28.8794C48.1751 29.2101 48.9405 29.3896 49.7058 29.3896C50.6129 29.3896 50.6129 27.9723 49.7058 27.9723Z" stroke="#5B476B" stroke-width="0.25"/>
<path d="M9.88902 24.1079C9.87958 24.1079 9.86068 24.1079 9.85123 24.1079C9.46383 24.1079 9.14258 24.4292 9.14258 24.8166C9.14258 27.122 9.14258 29.437 9.14258 31.7424C9.14258 32.6873 9.14258 33.6416 9.14258 34.5865C9.14258 36.5991 10.3142 38.4699 12.1567 39.3014C14.2449 40.2463 16.7582 39.6699 18.2228 37.9124C19.1676 36.7786 19.4133 35.4463 19.4133 34.029C19.4133 31.3362 19.4133 28.6338 19.4133 25.941C19.4133 25.563 19.4133 25.1945 19.4133 24.8166C19.4133 24.4292 19.092 24.1079 18.7046 24.1079C18.6952 24.1079 18.6763 24.1079 18.6668 24.1079C17.7503 24.1079 17.7503 25.5252 18.6668 25.5252C18.6763 25.5252 18.6952 25.5252 18.7046 25.5252C18.4684 25.289 18.2322 25.0528 17.996 24.8166C17.996 27.1126 17.996 29.4086 17.996 31.7046C17.996 32.6684 17.996 33.6322 17.996 34.5959C17.996 36.4573 16.6826 37.9597 14.8779 38.3093C12.8276 38.7061 10.8244 37.1093 10.5788 35.0873C10.4748 34.2463 10.5599 33.3487 10.5599 32.4983C10.5599 29.9661 10.5599 27.4433 10.5599 24.911C10.5599 24.8827 10.5599 24.8449 10.5599 24.8166C10.3237 25.0528 10.0874 25.289 9.85123 25.5252C9.86068 25.5252 9.87958 25.5252 9.88902 25.5252C10.8055 25.5252 10.8055 24.1079 9.88902 24.1079Z" fill="#5B476B" stroke="#5B476B" stroke-width="0.25"/>
<path d="M18.0622 35.4275C18.4307 37.922 20.6323 39.7456 23.1362 39.7833C25.6306 39.8211 27.8416 37.8747 28.2101 35.4275C28.2668 35.0496 28.1251 34.6716 27.7188 34.5582C27.3786 34.4637 26.9062 34.6716 26.8495 35.0496C26.5661 36.9298 25.0732 38.3377 23.1456 38.366C21.2275 38.3944 19.7158 36.892 19.4417 35.0496C19.3851 34.6622 18.9126 34.4637 18.5725 34.5582C18.1567 34.6716 18.0055 35.0496 18.0622 35.4275Z" fill="#5B476B" stroke="#5B476B" stroke-width="0.25"/>
<path d="M18.0617 25.0244C18.4302 27.5283 20.6318 29.3519 23.1357 29.3897C25.6301 29.4275 27.8505 27.4716 28.2096 25.0244C28.2663 24.6465 28.1246 24.2685 27.7183 24.1552C27.3781 24.0607 26.9057 24.2685 26.849 24.6465C26.575 26.5362 25.0726 27.9441 23.1451 27.9724C21.2176 28.0008 19.7058 26.489 19.4412 24.6465C19.3845 24.2591 18.9026 24.0607 18.5719 24.1552C18.1468 24.2591 18.005 24.637 18.0617 25.0244Z" fill="#5B476B" stroke="#5B476B" stroke-width="0.25"/>
<path d="M27.5961 24.1079C27.5866 24.1079 27.5677 24.1079 27.5583 24.1079C27.1709 24.1079 26.8496 24.4292 26.8496 24.8166C26.8496 27.1126 26.8496 29.4086 26.8496 31.7046C26.8496 32.6684 26.8496 33.6322 26.8496 34.5959C26.8496 36.5613 27.974 38.3943 29.7504 39.2541C31.8102 40.2557 34.3424 39.7266 35.8542 38.0164C36.8463 36.892 37.1298 35.5219 37.1298 34.0763C37.1298 31.3739 37.1298 28.6716 37.1298 25.9693C37.1298 25.5819 37.1298 25.204 37.1298 24.8166C37.1298 24.4292 36.8085 24.1079 36.4211 24.1079C36.4117 24.1079 36.3928 24.1079 36.3833 24.1079C35.4668 24.1079 35.4668 25.5252 36.3833 25.5252C36.3928 25.5252 36.4117 25.5252 36.4211 25.5252C36.1849 25.289 35.9487 25.0528 35.7125 24.8166C35.7125 27.1031 35.7125 29.3897 35.7125 31.6763C35.7125 32.6495 35.7125 33.6227 35.7125 34.5959C35.7125 36.4573 34.3991 37.9597 32.5944 38.3093C30.5535 38.7061 28.5409 37.1093 28.2953 35.0873C28.1913 34.2558 28.2764 33.3676 28.2764 32.5361C28.2764 30.0039 28.2764 27.4716 28.2764 24.9299C28.2764 24.8922 28.2764 24.8544 28.2764 24.8166C28.0401 25.0528 27.8039 25.289 27.5677 25.5252C27.5772 25.5252 27.5961 25.5252 27.6055 25.5252C28.5126 25.5252 28.5126 24.1079 27.5961 24.1079Z" fill="#5B476B" stroke="#5B476B" stroke-width="0.25"/>
<path d="M36.4584 24.1267C36.4489 24.1267 36.43 24.1267 36.4206 24.1267C36.0332 24.1267 35.7119 24.448 35.7119 24.8354C35.7119 27.1408 35.7119 29.4558 35.7119 31.7612C35.7119 32.7061 35.7119 33.6604 35.7119 34.6053C35.7119 36.6179 36.8835 38.4887 38.726 39.3202C40.8142 40.2651 43.3275 39.6887 44.7921 37.9312C45.737 36.7974 45.9826 35.4557 45.9826 34.0195C45.9826 31.3172 45.9826 28.6054 45.9826 25.9031C45.9826 25.544 45.9826 25.1944 45.9826 24.8354C45.9826 24.448 45.6614 24.1267 45.274 24.1267C45.2645 24.1267 45.2456 24.1267 45.2362 24.1267C44.3197 24.1267 44.3197 25.544 45.2362 25.544C45.2456 25.544 45.2645 25.544 45.274 25.544C45.0378 25.3078 44.8015 25.0716 44.5653 24.8354C44.5653 27.1408 44.5653 29.4558 44.5653 31.7612C44.5653 32.7061 44.5653 33.6604 44.5653 34.6053C44.5653 36.5234 43.1764 38.0352 41.315 38.347C39.2363 38.6871 37.3087 36.9769 37.1292 34.9549C37.0536 34.1234 37.1198 33.273 37.1198 32.4415C37.1198 29.9376 37.1198 27.4243 37.1198 24.9204C37.1198 24.8921 37.1198 24.8732 37.1198 24.8448C36.8835 25.081 36.6473 25.3172 36.4111 25.5535C36.4206 25.5535 36.4395 25.5535 36.4489 25.5535C37.3654 25.544 37.3654 24.1267 36.4584 24.1267Z" fill="#5B476B" stroke="#5B476B" stroke-width="0.25"/>
<path d="M54.0904 25.5441C54.0998 25.5441 54.1187 25.5441 54.1281 25.5441C53.8919 25.3079 53.6557 25.0717 53.4195 24.8355C53.4195 27.141 53.4195 29.4559 53.4195 31.7614C53.4195 32.7062 53.4195 33.6605 53.4195 34.6054C53.4195 36.5235 52.0305 38.0353 50.1692 38.3471C48.0904 38.6872 46.1629 36.977 45.9834 34.955C45.9078 34.1235 45.9739 33.2732 45.9739 32.4417C45.9739 29.9378 45.9739 27.4244 45.9739 24.9205C45.9739 24.8922 45.9739 24.8733 45.9739 24.8449C45.7377 25.0811 45.5015 25.3174 45.2653 25.5536C45.2747 25.5536 45.2936 25.5536 45.3031 25.5536C46.2196 25.5536 46.2196 24.1363 45.3031 24.1363C45.2936 24.1363 45.2747 24.1363 45.2653 24.1363C44.8779 24.1363 44.5566 24.4575 44.5566 24.8449C44.5566 27.1504 44.5566 29.4653 44.5566 31.7708C44.5566 32.7157 44.5566 33.67 44.5566 34.6149C44.5566 36.6274 45.7283 38.4983 47.5708 39.3298C49.6589 40.2746 52.1723 39.6983 53.6368 37.9408C54.5817 36.807 54.8274 35.4652 54.8274 34.029C54.8274 31.3267 54.8274 28.615 54.8274 25.9126C54.8274 25.5536 54.8274 25.204 54.8274 24.8449C54.8274 24.4575 54.5061 24.1363 54.1187 24.1363C54.1093 24.1363 54.0904 24.1363 54.0809 24.1363C53.1738 24.1268 53.1738 25.5441 54.0904 25.5441Z" fill="#5B476B" stroke="#5B476B" stroke-width="0.25"/>
<path d="M9.88902 34.511C9.87958 34.511 9.86068 34.511 9.85123 34.511C9.46383 34.511 9.14258 34.8322 9.14258 35.2196C9.14258 37.5251 9.14258 39.84 9.14258 42.1455C9.14258 43.0904 9.14258 44.0447 9.14258 44.9896C9.14258 46.9643 10.267 48.7974 12.0528 49.6572C14.1031 50.6493 16.5976 50.1297 18.1188 48.4383C19.1204 47.3234 19.4227 45.9628 19.4227 44.5171C19.4227 41.8243 19.4227 39.1219 19.4227 36.4291C19.4227 36.0228 19.4227 35.6165 19.4227 35.2196C19.4227 34.8322 19.1015 34.511 18.7141 34.511C18.7046 34.511 18.6857 34.511 18.6763 34.511C17.7598 34.511 17.7598 35.9283 18.6763 35.9283C18.6857 35.9283 18.7046 35.9283 18.7141 35.9283C18.4779 35.6921 18.2417 35.4559 18.0054 35.2196C18.0054 37.5062 18.0054 39.7928 18.0054 42.0794C18.0054 43.0526 18.0054 44.0258 18.0054 44.999C18.0054 46.8037 16.7488 48.2966 15.0008 48.6935C12.9315 49.1564 10.9945 47.6352 10.6071 45.6321C10.4465 44.8195 10.5599 43.8841 10.5599 43.062C10.5599 40.5014 10.5599 37.9314 10.5599 35.3708C10.5599 35.3236 10.5599 35.2763 10.5599 35.2291C10.3237 35.4653 10.0874 35.7015 9.85123 35.9377C9.86068 35.9377 9.87958 35.9377 9.88902 35.9377C10.8055 35.9283 10.8055 34.511 9.88902 34.511Z" fill="#5B476B" stroke="#5B476B" stroke-width="0.25"/>
<path d="M27.52 35.9473C27.5295 35.9473 27.5484 35.9473 27.5578 35.9473C27.3216 35.711 27.0854 35.4748 26.8492 35.2386C26.8492 37.5441 26.8492 39.8496 26.8492 42.155C26.8492 43.0999 26.8492 44.0448 26.8492 44.9896C26.8492 46.8038 25.6114 48.3061 23.8445 48.703C21.7752 49.166 19.8383 47.6447 19.4509 45.6416C19.2902 44.829 19.4036 43.8936 19.4036 43.0716C19.4036 40.5015 19.4036 37.9409 19.4036 35.3709C19.4036 35.3236 19.4036 35.2764 19.4036 35.2292C19.1674 35.4654 18.9312 35.7016 18.695 35.9378C18.7044 35.9378 18.7233 35.9378 18.7328 35.9378C19.6493 35.9378 19.6493 34.5205 18.7328 34.5205C18.7233 34.5205 18.7044 34.5205 18.695 34.5205C18.3076 34.5205 17.9863 34.8418 17.9863 35.2292C17.9863 37.5346 17.9863 39.8496 17.9863 42.155C17.9863 43.0999 17.9863 44.0542 17.9863 44.9991C17.9863 46.9739 19.1107 48.8069 20.8965 49.6667C22.9469 50.6589 25.4508 50.1297 26.9626 48.4479C27.9547 47.3424 28.257 45.9818 28.257 44.5361C28.257 41.8527 28.257 39.1693 28.257 36.4858C28.257 36.0701 28.257 35.6449 28.257 35.2292C28.257 34.8418 27.9358 34.5205 27.5484 34.5205C27.5389 34.5205 27.52 34.5205 27.5106 34.5205C26.6035 34.53 26.6035 35.9473 27.52 35.9473Z" fill="#5B476B" stroke="#5B476B" stroke-width="0.25"/>
<path d="M27.6048 34.511C27.5954 34.511 27.5765 34.511 27.567 34.511C27.1797 34.511 26.8584 34.8322 26.8584 35.2196C26.8584 37.5062 26.8584 39.7833 26.8584 42.0699C26.8584 43.0431 26.8584 44.0069 26.8584 44.9801C26.8584 46.8888 27.8883 48.6368 29.5513 49.5533C31.5449 50.6588 34.0677 50.2147 35.6646 48.6273C36.7512 47.5407 37.1291 46.1045 37.1291 44.6116C37.1291 41.9282 37.1291 39.2448 37.1291 36.5708C37.1291 36.1267 37.1291 35.6732 37.1291 35.2291C37.1291 34.8417 36.8079 34.5204 36.4205 34.5204C36.411 34.5204 36.3921 34.5204 36.3827 34.5204C35.4661 34.5204 35.4661 35.9377 36.3827 35.9377C36.3921 35.9377 36.411 35.9377 36.4205 35.9377C36.1842 35.7015 35.948 35.4653 35.7118 35.2291C35.7118 37.5157 35.7118 39.8022 35.7118 42.0888C35.7118 43.062 35.7118 44.0353 35.7118 45.0085C35.7118 46.8132 34.4551 48.3061 32.7071 48.7029C30.6379 49.1659 28.7103 47.6447 28.3135 45.6604C28.1529 44.8667 28.2663 43.9502 28.2663 43.1565C28.2663 40.577 28.2663 37.9975 28.2663 35.4275C28.2663 35.3708 28.2663 35.3047 28.2663 35.248C28.03 35.4842 27.7938 35.7204 27.5576 35.9566C27.5671 35.9566 27.5859 35.9566 27.5954 35.9566C28.5119 35.9283 28.5119 34.511 27.6048 34.511Z" fill="#5B476B" stroke="#5B476B" stroke-width="0.25"/>
<path d="M36.4584 34.53C36.4489 34.53 36.43 34.53 36.4206 34.53C36.0332 34.53 35.7119 34.8512 35.7119 35.2386C35.7119 37.5441 35.7119 39.859 35.7119 42.1645C35.7119 43.1094 35.7119 44.0637 35.7119 45.0085C35.7119 46.9833 36.8363 48.8164 38.6221 49.6762C40.6725 50.6683 43.1764 50.1392 44.6882 48.4573C45.6897 47.3424 45.9826 45.9723 45.9826 44.5172C45.9826 41.8243 45.9826 39.122 45.9826 36.4291C45.9826 36.0323 45.9826 35.6355 45.9826 35.2292C45.9826 34.8418 45.6614 34.5205 45.274 34.5205C45.2645 34.5205 45.2456 34.5205 45.2362 34.5205C44.3197 34.5205 44.3197 35.9378 45.2362 35.9378C45.2456 35.9378 45.2645 35.9378 45.274 35.9378C45.0378 35.7016 44.8015 35.4654 44.5653 35.2292C44.5653 37.5346 44.5653 39.8496 44.5653 42.155C44.5653 43.0999 44.5653 44.0542 44.5653 44.9991C44.5653 46.8605 43.252 48.3723 41.4378 48.7124C39.4347 49.0998 37.4221 47.5502 37.1576 45.566C37.0442 44.7251 37.1292 43.8275 37.1292 42.9865C37.1292 40.4354 37.1292 37.8937 37.1292 35.3425C37.1292 35.3047 37.1292 35.267 37.1292 35.2292C36.893 35.4654 36.6568 35.7016 36.4206 35.9378C36.43 35.9378 36.4489 35.9378 36.4584 35.9378C37.3749 35.9473 37.3749 34.53 36.4584 34.53Z" fill="#5B476B" stroke="#5B476B" stroke-width="0.25"/>
<path d="M45.3119 34.53C45.3024 34.53 45.2835 34.53 45.2741 34.53C44.8867 34.53 44.5654 34.8512 44.5654 35.2386C44.5654 37.5441 44.5654 39.859 44.5654 42.1645C44.5654 43.1094 44.5654 44.0637 44.5654 45.0085C44.5654 46.9833 45.6993 48.8164 47.4756 49.6762C49.526 50.6683 52.0299 50.1392 53.5417 48.4573C54.5432 47.3424 54.8361 45.9723 54.8361 44.5172C54.8361 41.8243 54.8361 39.122 54.8361 36.4291C54.8361 36.0323 54.8361 35.6355 54.8361 35.2292C54.8361 34.8418 54.5149 34.5205 54.1275 34.5205C54.118 34.5205 54.0991 34.5205 54.0897 34.5205C53.1732 34.5205 53.1732 35.9378 54.0897 35.9378C54.0991 35.9378 54.118 35.9378 54.1275 35.9378C53.8913 35.7016 53.6551 35.4654 53.4188 35.2292C53.4188 37.5346 53.4188 39.8496 53.4188 42.155C53.4188 43.0999 53.4188 44.0542 53.4188 44.9991C53.4188 46.8605 52.1055 48.3723 50.2913 48.7124C48.2882 49.0998 46.2756 47.5502 46.0111 45.566C45.8977 44.7251 45.9827 43.8275 45.9827 42.9865C45.9827 40.4354 45.9827 37.8937 45.9827 35.3425C45.9827 35.3047 45.9827 35.267 45.9827 35.2292C45.7465 35.4654 45.5103 35.7016 45.2741 35.9378C45.2835 35.9378 45.3024 35.9378 45.3119 35.9378C46.2284 35.9473 46.2284 34.53 45.3119 34.53Z" fill="#5B476B" stroke="#5B476B" stroke-width="0.25"/>
</svg>
