<svg width="32" height="33" viewBox="0 0 32 33" fill="none" xmlns="http://www.w3.org/2000/svg">
<path fill-rule="evenodd" clip-rule="evenodd" d="M15.7256 29.6661C23.1484 29.6661 29.1656 23.6488 29.1656 16.2261C29.1656 8.80343 23.1484 2.78613 15.7256 2.78613C8.30294 2.78613 2.28564 8.80343 2.28564 16.2261C2.28564 23.6488 8.30294 29.6661 15.7256 29.6661Z" fill="#F4E5FF"/>
<path d="M21.789 13.7729H21.2492V13.3823C21.2492 13.3055 21.1869 13.2432 21.1101 13.2432C21.0333 13.2432 20.971 13.3055 20.971 13.3823V13.7729C19.3828 13.7716 10.9784 13.761 11.0132 13.7729V13.3823C11.0132 13.3055 10.9509 13.2432 10.8741 13.2432C10.7973 13.2432 10.735 13.3055 10.735 13.3823V13.7729H10.1962C10.1183 13.7729 10.0571 13.8341 10.0571 13.912C10.0571 13.9881 10.1183 14.0511 10.1962 14.0511H10.735V14.4415C10.735 14.5183 10.7973 14.5806 10.8741 14.5806C10.9509 14.5806 11.0132 14.5183 11.0132 14.4415V14.0511H11.2813C11.2813 14.0735 11.2797 22.8973 11.2832 24.8686C11.2832 24.9224 11.3147 24.9724 11.3648 24.9947C11.4149 25.017 11.4724 25.0095 11.515 24.9724C11.8489 24.6738 12.0084 24.748 12.2978 24.8797C12.6757 25.0541 13.0006 25.1428 13.4904 25.0021C13.5535 24.9836 13.5943 24.9261 13.5906 24.8611C13.5795 24.6478 13.5572 24.3826 13.5238 24.0821C15.3347 24.0821 16.6529 24.0821 18.4596 24.0821C18.4262 24.3826 18.4039 24.6478 18.3928 24.8611C18.3891 24.9261 18.4317 24.9836 18.4948 25.0021C18.9749 25.1415 19.305 25.0562 19.6875 24.8797C19.9768 24.748 20.1363 24.6738 20.4702 24.9724C20.511 25.0095 20.5685 25.017 20.6205 24.9947C20.6687 24.9724 20.7021 24.9224 20.7021 24.8686C20.7021 17.2728 20.7021 24.9068 20.7021 14.0511H20.971V14.4415C20.971 14.5183 21.0333 14.5806 21.1101 14.5806C21.1869 14.5806 21.2492 14.5183 21.2492 14.4415V14.0511H21.789C21.8651 14.0511 21.9281 13.9881 21.9281 13.912C21.9281 13.8341 21.8651 13.7729 21.789 13.7729ZM17.5507 17.8981H16.4359V17.5661H17.3671C17.4246 17.6792 17.4876 17.7905 17.5507 17.8981ZM20.4238 19.9161H19.7042V19.6824H20.4238V19.9161ZM19.4259 20.0219C19.3388 20.1925 19.2571 20.3891 19.1811 20.6043H16.4359V18.1763H17.725C18.1832 18.8719 18.7452 19.4209 19.4259 19.6453V20.0219H19.4259ZM18.9901 21.2127H16.4359V20.8825H19.0884C19.055 20.9901 19.0216 21.0995 18.9901 21.2127ZM16.4359 17.2878V15.1715C16.6344 15.8615 16.8941 16.6052 17.2242 17.2878H16.4359ZM15.5475 17.2878H14.7592C15.0893 16.6071 15.349 15.8652 15.5475 15.177V17.2878ZM15.5475 17.8981H14.4327C14.4958 17.7905 14.5588 17.6792 14.6163 17.5661H15.5475V17.8981ZM15.5475 20.6043H12.8023C12.7281 20.3891 12.6465 20.1925 12.5593 20.0219V19.6453C13.24 19.4209 13.8002 18.8719 14.2583 18.1763H15.5475V20.6043H15.5475ZM12.8969 20.8825H15.5475V21.2127H12.9933C12.9618 21.0995 12.9303 20.9901 12.8969 20.8825ZM11.5614 14.0511H15.5475C15.1028 15.7643 14.278 18.8726 12.3942 19.4042H11.5614C11.5614 16.3484 11.5614 17.0639 11.5614 14.0511ZM11.5614 19.6824H12.2811V19.9161H11.5614V19.6824ZM13.3068 24.761C12.9006 24.85 12.6521 24.7369 12.4128 24.6274C12.1029 24.4838 11.8741 24.4142 11.5614 24.5941C11.5614 24.3045 11.5614 20.1079 11.5614 20.1944H12.333C12.8646 21.2575 13.229 23.5276 13.3068 24.761ZM13.4904 23.8039C13.4033 23.0972 13.2604 22.2532 13.0675 21.4909H15.5475V23.8039H13.4904ZM15.8257 23.8039C15.8257 19.3405 15.8191 14.1623 15.835 14.0511H16.1503C16.1619 14.121 16.1577 13.3876 16.1577 23.8039H15.8257ZM16.4359 23.8039V21.4909H18.9177C18.7248 22.2514 18.582 23.0972 18.4929 23.8039H16.4359ZM20.4238 24.5941C19.7796 24.2254 19.5044 24.942 18.6784 24.761C18.7528 23.5812 19.1211 21.2528 19.6504 20.1944H20.4238C20.4238 21.8246 20.4238 22.9748 20.4238 24.5941ZM20.4238 19.4042H19.591C18.648 19.1381 17.9634 18.1713 17.5303 17.2878C16.912 16.0512 16.4359 14.1739 16.4359 14.0511H20.4238C20.4238 15.7426 20.4238 17.4127 20.4238 19.4042Z" fill="#5B476B" stroke="#5B476B" stroke-width="0.285714"/>
<path d="M29.2857 22.0837C29.4108 22.2463 29.644 22.2766 29.8066 22.1515C29.9691 22.0263 29.9995 21.7931 29.8743 21.6306L29.2857 22.0837ZM2.56261 21.6306C2.43748 21.7931 2.46781 22.0263 2.63036 22.1515C2.79291 22.2766 3.02612 22.2463 3.15126 22.0837L2.56261 21.6306ZM18.1882 7.66761L29.2857 22.0837L29.8743 21.6306L18.7768 7.21447L18.1882 7.66761ZM3.15126 22.0837L14.2488 7.66761L13.6601 7.21447L2.56261 21.6306L3.15126 22.0837ZM18.7768 7.21447C17.4844 5.53559 14.9525 5.53559 13.6601 7.21447L14.2488 7.66761C15.2438 6.37502 17.1931 6.37502 18.1882 7.66761L18.7768 7.21447Z" fill="#5B476B"/>
</svg>
