<svg width="32" height="32" viewBox="0 0 32 32" fill="none" xmlns="http://www.w3.org/2000/svg">
    <path fill-rule="evenodd" clip-rule="evenodd" d="M16.0001 29.44C23.4228 29.44 29.4401 23.4227 29.4401 16C29.4401 8.57729 23.4228 2.56 16.0001 2.56C8.57735 2.56 2.56006 8.57729 2.56006 16C2.56006 23.4227 8.57735 29.44 16.0001 29.44Z" fill="#F4E5FF"/>
    <path d="M7.13685 13.9767C6.11167 13.9767 5.29436 13.1311 5.27546 12.1153C5.27074 11.7185 5.27546 11.3216 5.27546 10.9248C5.27546 9.69175 5.27546 8.4587 5.27546 7.23037C5.27546 7.22565 5.27546 7.2162 5.27546 7.21147C5.15735 7.32958 5.03924 7.44769 4.92113 7.5658C6.39513 7.5658 7.87385 7.5658 9.34784 7.5658C9.22973 7.44769 9.11162 7.32958 8.99352 7.21147C8.99352 8.36421 8.99352 9.52167 8.99352 10.6744C8.99352 11.1468 8.99352 11.624 8.99352 12.0964C8.99352 13.0271 8.33683 13.783 7.42976 13.9578C7.34 13.972 7.23606 13.972 7.13685 13.9767C6.67859 13.9815 6.67859 14.6901 7.13685 14.6854C8.27542 14.6665 9.25335 13.9342 9.59823 12.8523C9.74941 12.3799 9.70689 11.846 9.70689 11.35C9.70689 10.0225 9.70689 8.69964 9.70689 7.3721C9.70689 7.32013 9.70689 7.26344 9.70689 7.21147C9.70689 7.01777 9.54626 6.85715 9.35256 6.85715C7.87857 6.85715 6.39985 6.85715 4.92586 6.85715C4.73216 6.85715 4.57153 7.01777 4.57153 7.21147C4.57153 8.36421 4.57153 9.52167 4.57153 10.6744C4.57153 11.1468 4.57153 11.624 4.57153 12.0964C4.57153 13.0838 5.13373 14.0003 6.02663 14.4303C6.37151 14.5956 6.75418 14.6854 7.13685 14.6854C7.59511 14.6854 7.59511 13.9767 7.13685 13.9767Z" fill="#5B476B"/>
    <path d="M7.13685 13.9767C6.11167 13.9767 5.29436 13.1311 5.27546 12.1153C5.27074 11.7185 5.27546 11.3216 5.27546 10.9248C5.27546 9.69175 5.27546 8.4587 5.27546 7.23037C5.27546 7.22565 5.27546 7.2162 5.27546 7.21147C5.15735 7.32958 5.03924 7.44769 4.92113 7.5658C6.39513 7.5658 7.87385 7.5658 9.34784 7.5658C9.22973 7.44769 9.11162 7.32958 8.99352 7.21147C8.99352 8.36421 8.99352 9.52167 8.99352 10.6744C8.99352 11.1468 8.99352 11.624 8.99352 12.0964C8.99352 13.0271 8.33683 13.783 7.42976 13.9578C7.34 13.972 7.23606 13.972 7.13685 13.9767ZM7.13685 13.9767C6.67859 13.9815 6.67859 14.6901 7.13685 14.6854C8.27542 14.6665 9.25335 13.9342 9.59823 12.8523C9.74941 12.3799 9.70689 11.846 9.70689 11.35C9.70689 10.0225 9.70689 8.69964 9.70689 7.3721C9.70689 7.32013 9.70689 7.26344 9.70689 7.21147C9.70689 7.01777 9.54626 6.85715 9.35256 6.85715C7.87857 6.85715 6.39985 6.85715 4.92586 6.85715C4.73216 6.85715 4.57153 7.01777 4.57153 7.21147C4.57153 8.36421 4.57153 9.52167 4.57153 10.6744C4.57153 11.1468 4.57153 11.624 4.57153 12.0964C4.57153 13.0838 5.13373 14.0003 6.02663 14.4303C6.37151 14.5956 6.75418 14.6854 7.13685 14.6854C7.59511 14.6854 7.59511 13.9767 7.13685 13.9767Z" stroke="#5B476B" stroke-width="0.25"/>
    <path d="M13.4248 7.2162C13.4248 8.36894 13.4248 9.52641 13.4248 10.6791C13.4248 11.1516 13.4248 11.6287 13.4248 12.1012C13.4248 13.0602 12.7304 13.8161 11.7997 13.972C10.7603 14.1421 9.79182 13.287 9.70678 12.2712C9.67371 11.8555 9.70206 11.4303 9.70206 11.0146C9.70206 9.76262 9.70206 8.50595 9.70206 7.254C9.70206 7.23982 9.70206 7.23038 9.70206 7.2162C9.58395 7.33431 9.46584 7.45242 9.34773 7.57053C10.8217 7.57053 12.3004 7.57053 13.7744 7.57053C14.2327 7.57053 14.2327 6.86188 13.7744 6.86188C12.3004 6.86188 10.8217 6.86188 9.34773 6.86188C9.15404 6.86188 8.99341 7.02251 8.99341 7.2162C8.99341 8.36894 8.99341 9.52641 8.99341 10.6791C8.99341 11.1516 8.99341 11.6287 8.99341 12.1012C8.99341 13.1075 9.57923 14.0429 10.4957 14.4586C11.5398 14.9311 12.8012 14.6429 13.5335 13.7594C14.0059 13.1925 14.1288 12.5216 14.1288 11.8083C14.1288 10.4571 14.1288 9.10121 14.1288 7.75005C14.1288 7.57053 14.1288 7.39573 14.1288 7.2162C14.1335 6.76267 13.4248 6.76267 13.4248 7.2162Z" fill="#5B476B" stroke="#5B476B" stroke-width="0.25"/>
    <path d="M15.995 13.9767C14.9698 13.9767 14.1525 13.1311 14.1336 12.1153C14.1289 11.7185 14.1336 11.3216 14.1336 10.9248C14.1336 9.69175 14.1336 8.4587 14.1336 7.23037C14.1336 7.22565 14.1336 7.2162 14.1336 7.21147C14.0155 7.32958 13.8974 7.44769 13.7793 7.5658C15.2533 7.5658 16.732 7.5658 18.206 7.5658C18.0879 7.44769 17.9698 7.32958 17.8517 7.21147C17.8517 8.36421 17.8517 9.52167 17.8517 10.6744C17.8517 11.1468 17.8517 11.624 17.8517 12.0964C17.8517 13.0271 17.195 13.783 16.2879 13.9578C16.1934 13.972 16.0942 13.972 15.995 13.9767C15.5367 13.9815 15.5367 14.6901 15.995 14.6854C17.1336 14.6665 18.1115 13.9342 18.4564 12.8523C18.6076 12.3799 18.565 11.846 18.565 11.35C18.565 10.0225 18.565 8.69964 18.565 7.3721C18.565 7.32013 18.565 7.26344 18.565 7.21147C18.565 7.01777 18.4044 6.85715 18.2107 6.85715C16.7367 6.85715 15.258 6.85715 13.784 6.85715C13.5903 6.85715 13.4297 7.01777 13.4297 7.21147C13.4297 8.36421 13.4297 9.52167 13.4297 10.6744C13.4297 11.1468 13.4297 11.624 13.4297 12.0964C13.4297 13.0838 13.9919 14.0003 14.8848 14.4303C15.2297 14.5956 15.6123 14.6854 15.995 14.6854C16.4533 14.6854 16.4533 13.9767 15.995 13.9767Z" fill="#5B476B"/>
    <path d="M15.995 13.9767C14.9698 13.9767 14.1525 13.1311 14.1336 12.1153C14.1289 11.7185 14.1336 11.3216 14.1336 10.9248C14.1336 9.69175 14.1336 8.4587 14.1336 7.23037C14.1336 7.22565 14.1336 7.2162 14.1336 7.21147C14.0155 7.32958 13.8974 7.44769 13.7793 7.5658C15.2533 7.5658 16.732 7.5658 18.206 7.5658C18.0879 7.44769 17.9698 7.32958 17.8517 7.21147C17.8517 8.36421 17.8517 9.52167 17.8517 10.6744C17.8517 11.1468 17.8517 11.624 17.8517 12.0964C17.8517 13.0271 17.195 13.783 16.2879 13.9578C16.1934 13.972 16.0942 13.972 15.995 13.9767ZM15.995 13.9767C15.5367 13.9815 15.5367 14.6901 15.995 14.6854C17.1336 14.6665 18.1115 13.9342 18.4564 12.8523C18.6076 12.3799 18.565 11.846 18.565 11.35C18.565 10.0225 18.565 8.69964 18.565 7.3721C18.565 7.32013 18.565 7.26344 18.565 7.21147C18.565 7.01777 18.4044 6.85715 18.2107 6.85715C16.7367 6.85715 15.258 6.85715 13.784 6.85715C13.5903 6.85715 13.4297 7.01777 13.4297 7.21147C13.4297 8.36421 13.4297 9.52167 13.4297 10.6744C13.4297 11.1468 13.4297 11.624 13.4297 12.0964C13.4297 13.0838 13.9919 14.0003 14.8848 14.4303C15.2297 14.5956 15.6123 14.6854 15.995 14.6854C16.4533 14.6854 16.4533 13.9767 15.995 13.9767Z" stroke="#5B476B" stroke-width="0.25"/>
    <path d="M20.4218 13.9862C19.3966 13.9862 18.5793 13.1405 18.5604 12.1248C18.5556 11.728 18.5604 11.3311 18.5604 10.9343C18.5604 9.70121 18.5604 8.46816 18.5604 7.23983C18.5604 7.23511 18.5604 7.22566 18.5604 7.22093C18.4423 7.33904 18.3242 7.45715 18.206 7.57526C19.68 7.57526 21.1588 7.57526 22.6328 7.57526C22.5146 7.45715 22.3965 7.33904 22.2784 7.22093C22.2784 8.37367 22.2784 9.53114 22.2784 10.6839C22.2784 11.1563 22.2784 11.6335 22.2784 12.1059C22.2784 13.0366 21.6217 13.7925 20.7147 13.9673C20.6202 13.9815 20.521 13.9815 20.4218 13.9862C19.9635 13.9909 19.9635 14.6996 20.4218 14.6948C21.5603 14.6759 22.5383 13.9437 22.8831 12.8618C23.0343 12.3894 22.9918 11.8555 22.9918 11.3595C22.9918 10.0319 22.9918 8.7091 22.9918 7.38156C22.9918 7.32959 22.9918 7.2729 22.9918 7.22093C22.9918 7.02724 22.8312 6.86661 22.6375 6.86661C21.1635 6.86661 19.6848 6.86661 18.2108 6.86661C18.0171 6.86661 17.8564 7.02724 17.8564 7.22093C17.8564 8.37367 17.8564 9.53114 17.8564 10.6839C17.8564 11.1563 17.8564 11.6335 17.8564 12.1059C17.8564 13.0933 18.4186 14.0098 19.3115 14.4397C19.6564 14.6051 20.0391 14.6948 20.4218 14.6948C20.88 14.6948 20.88 13.9862 20.4218 13.9862Z" fill="#5B476B"/>
    <path d="M20.4218 13.9862C19.3966 13.9862 18.5793 13.1405 18.5604 12.1248C18.5556 11.728 18.5604 11.3311 18.5604 10.9343C18.5604 9.70121 18.5604 8.46816 18.5604 7.23983C18.5604 7.23511 18.5604 7.22566 18.5604 7.22093C18.4423 7.33904 18.3242 7.45715 18.206 7.57526C19.68 7.57526 21.1588 7.57526 22.6328 7.57526C22.5146 7.45715 22.3965 7.33904 22.2784 7.22093C22.2784 8.37367 22.2784 9.53114 22.2784 10.6839C22.2784 11.1563 22.2784 11.6335 22.2784 12.1059C22.2784 13.0366 21.6217 13.7925 20.7147 13.9673C20.6202 13.9815 20.521 13.9815 20.4218 13.9862ZM20.4218 13.9862C19.9635 13.9909 19.9635 14.6996 20.4218 14.6948C21.5603 14.6759 22.5383 13.9437 22.8831 12.8618C23.0343 12.3894 22.9918 11.8555 22.9918 11.3595C22.9918 10.0319 22.9918 8.7091 22.9918 7.38156C22.9918 7.32959 22.9918 7.2729 22.9918 7.22093C22.9918 7.02724 22.8312 6.86661 22.6375 6.86661C21.1635 6.86661 19.6848 6.86661 18.2108 6.86661C18.0171 6.86661 17.8564 7.02724 17.8564 7.22093C17.8564 8.37367 17.8564 9.53114 17.8564 10.6839C17.8564 11.1563 17.8564 11.6335 17.8564 12.1059C17.8564 13.0933 18.4186 14.0098 19.3115 14.4397C19.6564 14.6051 20.0391 14.6948 20.4218 14.6948C20.88 14.6948 20.88 13.9862 20.4218 13.9862Z" stroke="#5B476B" stroke-width="0.25"/>
    <path d="M24.8532 13.9862C23.828 13.9862 23.0107 13.1405 22.9918 12.1248C22.987 11.728 22.9918 11.3311 22.9918 10.9343C22.9918 9.70121 22.9918 8.46816 22.9918 7.23983C22.9918 7.23511 22.9918 7.22566 22.9918 7.22093C22.8737 7.33904 22.7556 7.45715 22.6374 7.57526C24.1114 7.57526 25.5902 7.57526 27.0641 7.57526C26.946 7.45715 26.8279 7.33904 26.7098 7.22093C26.7098 8.37367 26.7098 9.53114 26.7098 10.6839C26.7098 11.1563 26.7098 11.6335 26.7098 12.1059C26.7098 13.0366 26.0531 13.7925 25.1461 13.9673C25.0516 13.9815 24.9476 13.9815 24.8532 13.9862C24.3949 13.9909 24.3949 14.6996 24.8532 14.6948C25.9917 14.6759 26.9697 13.9437 27.3145 12.8618C27.4657 12.3894 27.4232 11.8555 27.4232 11.3595C27.4232 10.0319 27.4232 8.7091 27.4232 7.38156C27.4232 7.32959 27.4232 7.2729 27.4232 7.22093C27.4232 7.02724 27.2626 6.86661 27.0689 6.86661C25.5949 6.86661 24.1162 6.86661 22.6422 6.86661C22.4485 6.86661 22.2878 7.02724 22.2878 7.22093C22.2878 8.37367 22.2878 9.53114 22.2878 10.6839C22.2878 11.1563 22.2878 11.6335 22.2878 12.1059C22.2878 13.0933 22.85 14.0098 23.7429 14.4397C24.0878 14.6051 24.4705 14.6948 24.8532 14.6948C25.3067 14.6948 25.3067 13.9862 24.8532 13.9862Z" fill="#5B476B"/>
    <path d="M24.8532 13.9862C23.828 13.9862 23.0107 13.1405 22.9918 12.1248C22.987 11.728 22.9918 11.3311 22.9918 10.9343C22.9918 9.70121 22.9918 8.46816 22.9918 7.23983C22.9918 7.23511 22.9918 7.22566 22.9918 7.22093C22.8737 7.33904 22.7556 7.45715 22.6374 7.57526C24.1114 7.57526 25.5902 7.57526 27.0642 7.57526C26.946 7.45715 26.8279 7.33904 26.7098 7.22093C26.7098 8.37367 26.7098 9.53114 26.7098 10.6839C26.7098 11.1563 26.7098 11.6335 26.7098 12.1059C26.7098 13.0366 26.0531 13.7925 25.1461 13.9673C25.0516 13.9815 24.9476 13.9815 24.8532 13.9862ZM24.8532 13.9862C24.3949 13.9909 24.3949 14.6996 24.8532 14.6948C25.9917 14.6759 26.9697 13.9437 27.3145 12.8618C27.4657 12.3894 27.4232 11.8555 27.4232 11.3595C27.4232 10.0319 27.4232 8.7091 27.4232 7.38156C27.4232 7.32959 27.4232 7.2729 27.4232 7.22093C27.4232 7.02724 27.2626 6.86661 27.0689 6.86661C25.5949 6.86661 24.1162 6.86661 22.6422 6.86661C22.4485 6.86661 22.2878 7.02724 22.2878 7.22093C22.2878 8.37367 22.2878 9.53114 22.2878 10.6839C22.2878 11.1563 22.2878 11.6335 22.2878 12.1059C22.2878 13.0933 22.85 14.0098 23.7429 14.4397C24.0878 14.6051 24.4705 14.6948 24.8532 14.6948C25.3067 14.6948 25.3067 13.9862 24.8532 13.9862Z" stroke="#5B476B" stroke-width="0.25"/>
    <path d="M4.94476 12.0539C4.94003 12.0539 4.93058 12.0539 4.92586 12.0539C4.73216 12.0539 4.57153 12.2146 4.57153 12.4083C4.57153 13.561 4.57153 14.7185 4.57153 15.8712C4.57153 16.3436 4.57153 16.8208 4.57153 17.2932C4.57153 18.2995 5.15735 19.2349 6.0786 19.6507C7.12268 20.1231 8.37935 19.8349 9.11162 18.9562C9.58406 18.3893 9.70689 17.7231 9.70689 17.0145C9.70689 15.668 9.70689 14.3169 9.70689 12.9704C9.70689 12.7815 9.70689 12.5972 9.70689 12.4083C9.70689 12.2146 9.54626 12.0539 9.35257 12.0539C9.34784 12.0539 9.33839 12.0539 9.33367 12.0539C8.87541 12.0539 8.87541 12.7626 9.33367 12.7626C9.33839 12.7626 9.34784 12.7626 9.35257 12.7626C9.23446 12.6445 9.11635 12.5264 8.99824 12.4083C8.99824 13.5563 8.99824 14.7043 8.99824 15.8523C8.99824 16.3342 8.99824 16.8161 8.99824 17.2979C8.99824 18.2286 8.34156 18.9798 7.43921 19.1546C6.41403 19.353 5.41247 18.5546 5.28963 17.5436C5.23767 17.1231 5.28018 16.6743 5.28018 16.2491C5.28018 14.983 5.28018 13.7216 5.28018 12.4555C5.28018 12.4413 5.28018 12.4224 5.28018 12.4083C5.16208 12.5264 5.04397 12.6445 4.92586 12.7626C4.93058 12.7626 4.94003 12.7626 4.94476 12.7626C5.40302 12.7626 5.40302 12.0539 4.94476 12.0539Z" fill="#5B476B" stroke="#5B476B" stroke-width="0.25"/>
    <path d="M9.03136 17.7137C9.21561 18.9609 10.3164 19.8727 11.5683 19.8916C12.8156 19.9105 13.9211 18.9373 14.1053 17.7137C14.1336 17.5247 14.0628 17.3357 13.8596 17.279C13.6896 17.2318 13.4533 17.3357 13.425 17.5247C13.2833 18.4648 12.5368 19.1688 11.5731 19.1829C10.614 19.1971 9.85812 18.4459 9.72112 17.5247C9.69277 17.331 9.45655 17.2318 9.28648 17.279C9.07861 17.3357 9.00302 17.5247 9.03136 17.7137Z" fill="#5B476B" stroke="#5B476B" stroke-width="0.25"/>
    <path d="M9.03135 12.5122C9.2156 13.7641 10.3164 14.6759 11.5683 14.6948C12.8155 14.7137 13.9258 13.7358 14.1053 12.5122C14.1336 12.3232 14.0628 12.1342 13.8596 12.0775C13.6895 12.0303 13.4533 12.1342 13.425 12.3232C13.288 13.2681 12.5368 13.972 11.573 13.9862C10.6093 14.0004 9.85338 13.2445 9.7211 12.3232C9.69275 12.1295 9.45181 12.0303 9.28646 12.0775C9.07387 12.1295 9.003 12.3185 9.03135 12.5122Z" fill="#5B476B" stroke="#5B476B" stroke-width="0.25"/>
    <path d="M13.7983 12.0539C13.7935 12.0539 13.7841 12.0539 13.7794 12.0539C13.5857 12.0539 13.425 12.2146 13.425 12.4083C13.425 13.5563 13.425 14.7043 13.425 15.8523C13.425 16.3342 13.425 16.8161 13.425 17.2979C13.425 18.2806 13.9872 19.1971 14.8754 19.627C15.9053 20.1278 17.1715 19.8633 17.9273 19.0082C18.4234 18.446 18.5651 17.7609 18.5651 17.0381C18.5651 15.6869 18.5651 14.3358 18.5651 12.9846C18.5651 12.7909 18.5651 12.6019 18.5651 12.4083C18.5651 12.2146 18.4045 12.0539 18.2108 12.0539C18.2061 12.0539 18.1966 12.0539 18.1919 12.0539C17.7336 12.0539 17.7336 12.7626 18.1919 12.7626C18.1966 12.7626 18.2061 12.7626 18.2108 12.7626C18.0927 12.6445 17.9746 12.5264 17.8565 12.4083C17.8565 13.5515 17.8565 14.6948 17.8565 15.8381C17.8565 16.3247 17.8565 16.8113 17.8565 17.2979C17.8565 18.2286 17.1998 18.9798 16.2974 19.1546C15.277 19.353 14.2707 18.5546 14.1479 17.5436C14.0959 17.1279 14.1384 16.6838 14.1384 16.268C14.1384 15.0019 14.1384 13.7358 14.1384 12.4649C14.1384 12.446 14.1384 12.4271 14.1384 12.4083C14.0203 12.5264 13.9022 12.6445 13.7841 12.7626C13.7888 12.7626 13.7983 12.7626 13.803 12.7626C14.2565 12.7626 14.2565 12.0539 13.7983 12.0539Z" fill="#5B476B" stroke="#5B476B" stroke-width="0.25"/>
    <path d="M18.2297 12.0634C18.2249 12.0634 18.2155 12.0634 18.2108 12.0634C18.0171 12.0634 17.8564 12.224 17.8564 12.4177C17.8564 13.5704 17.8564 14.7279 17.8564 15.8806C17.8564 16.3531 17.8564 16.8302 17.8564 17.3026C17.8564 18.3089 18.4423 19.2444 19.3635 19.6601C20.4076 20.1325 21.6643 19.8443 22.3965 18.9656C22.869 18.3987 22.9918 17.7278 22.9918 17.0097C22.9918 15.6586 22.9918 14.3027 22.9918 12.9515C22.9918 12.772 22.9918 12.5972 22.9918 12.4177C22.9918 12.224 22.8312 12.0634 22.6375 12.0634C22.6328 12.0634 22.6233 12.0634 22.6186 12.0634C22.1603 12.0634 22.1603 12.772 22.6186 12.772C22.6233 12.772 22.6328 12.772 22.6375 12.772C22.5194 12.6539 22.4013 12.5358 22.2832 12.4177C22.2832 13.5704 22.2832 14.7279 22.2832 15.8806C22.2832 16.3531 22.2832 16.8302 22.2832 17.3026C22.2832 18.2617 21.5887 19.0176 20.658 19.1735C19.6186 19.3436 18.6549 18.4885 18.5651 17.4774C18.5273 17.0617 18.5604 16.6365 18.5604 16.2208C18.5604 14.9688 18.5604 13.7121 18.5604 12.4602C18.5604 12.446 18.5604 12.4366 18.5604 12.4224C18.4423 12.5405 18.3242 12.6586 18.206 12.7767C18.2108 12.7767 18.2202 12.7767 18.2249 12.7767C18.6832 12.772 18.6832 12.0634 18.2297 12.0634Z" fill="#5B476B" stroke="#5B476B" stroke-width="0.25"/>
    <path d="M27.0452 12.772C27.0499 12.772 27.0594 12.772 27.0641 12.772C26.946 12.6539 26.8279 12.5358 26.7098 12.4177C26.7098 13.5704 26.7098 14.7279 26.7098 15.8807C26.7098 16.3531 26.7098 16.8302 26.7098 17.3027C26.7098 18.2617 26.0153 19.0176 25.0846 19.1735C24.0452 19.3436 23.0815 18.4885 22.9917 17.4775C22.9539 17.0617 22.987 16.6365 22.987 16.2208C22.987 14.9689 22.987 13.7122 22.987 12.4602C22.987 12.4461 22.987 12.4366 22.987 12.4224C22.8689 12.5405 22.7508 12.6587 22.6326 12.7768C22.6374 12.7768 22.6468 12.7768 22.6515 12.7768C23.1098 12.7768 23.1098 12.0681 22.6515 12.0681C22.6468 12.0681 22.6374 12.0681 22.6326 12.0681C22.4389 12.0681 22.2783 12.2287 22.2783 12.4224C22.2783 13.5752 22.2783 14.7326 22.2783 15.8854C22.2783 16.3578 22.2783 16.835 22.2783 17.3074C22.2783 18.3137 22.8641 19.2491 23.7854 19.6648C24.8295 20.1373 26.0861 19.8491 26.8184 18.9704C27.2908 18.4034 27.4137 17.7326 27.4137 17.0145C27.4137 15.6633 27.4137 14.3074 27.4137 12.9563C27.4137 12.7768 27.4137 12.602 27.4137 12.4224C27.4137 12.2287 27.2531 12.0681 27.0594 12.0681C27.0546 12.0681 27.0452 12.0681 27.0405 12.0681C26.5869 12.0634 26.5869 12.772 27.0452 12.772Z" fill="#5B476B" stroke="#5B476B" stroke-width="0.25"/>
    <path d="M4.94476 17.2554C4.94003 17.2554 4.93058 17.2554 4.92586 17.2554C4.73216 17.2554 4.57153 17.4161 4.57153 17.6098C4.57153 18.7625 4.57153 19.92 4.57153 21.0727C4.57153 21.5451 4.57153 22.0223 4.57153 22.4947C4.57153 23.4821 5.13373 24.3986 6.02663 24.8285C7.05181 25.3246 8.29904 25.0648 9.05966 24.2191C9.56044 23.6616 9.71161 22.9813 9.71161 22.2585C9.71161 20.9121 9.71161 19.5609 9.71161 18.2145C9.71161 18.0113 9.71161 17.8082 9.71161 17.6098C9.71161 17.4161 9.55099 17.2554 9.35729 17.2554C9.35256 17.2554 9.34312 17.2554 9.33839 17.2554C8.88013 17.2554 8.88013 17.9641 9.33839 17.9641C9.34312 17.9641 9.35256 17.9641 9.35729 17.9641C9.23918 17.846 9.12107 17.7279 9.00296 17.6098C9.00296 18.753 9.00296 19.8963 9.00296 21.0396C9.00296 21.5262 9.00296 22.0128 9.00296 22.4994C9.00296 23.4018 8.37463 24.1482 7.50062 24.3467C6.46599 24.5782 5.4975 23.8175 5.30381 22.816C5.22349 22.4097 5.28018 21.942 5.28018 21.531C5.28018 20.2507 5.28018 18.9656 5.28018 17.6853C5.28018 17.6617 5.28018 17.6381 5.28018 17.6145C5.16208 17.7326 5.04397 17.8507 4.92586 17.9688C4.93058 17.9688 4.94003 17.9688 4.94476 17.9688C5.40302 17.9641 5.40302 17.2554 4.94476 17.2554Z" fill="#5B476B" stroke="#5B476B" stroke-width="0.25"/>
    <path d="M13.7603 17.9735C13.765 17.9735 13.7744 17.9735 13.7792 17.9735C13.6611 17.8554 13.5429 17.7373 13.4248 17.6192C13.4248 18.772 13.4248 19.9247 13.4248 21.0774C13.4248 21.5499 13.4248 22.0223 13.4248 22.4947C13.4248 23.4018 12.806 24.153 11.9225 24.3514C10.8879 24.5829 9.91938 23.8223 9.72568 22.8207C9.64537 22.4144 9.70206 21.9467 9.70206 21.5357C9.70206 20.2507 9.70206 18.9704 9.70206 17.6854C9.70206 17.6617 9.70206 17.6381 9.70206 17.6145C9.58395 17.7326 9.46584 17.8507 9.34773 17.9688C9.35246 17.9688 9.36191 17.9688 9.36663 17.9688C9.82489 17.9688 9.82489 17.2602 9.36663 17.2602C9.36191 17.2602 9.35246 17.2602 9.34773 17.2602C9.15404 17.2602 8.99341 17.4208 8.99341 17.6145C8.99341 18.7672 8.99341 19.9247 8.99341 21.0774C8.99341 21.5499 8.99341 22.027 8.99341 22.4995C8.99341 23.4868 9.5556 24.4034 10.4485 24.8333C11.4737 25.3293 12.7256 25.0648 13.4815 24.2238C13.9776 23.6711 14.1288 22.9908 14.1288 22.268C14.1288 20.9263 14.1288 19.5845 14.1288 18.2428C14.1288 18.035 14.1288 17.8224 14.1288 17.6145C14.1288 17.4208 13.9681 17.2602 13.7744 17.2602C13.7697 17.2602 13.7603 17.2602 13.7555 17.2602C13.302 17.2649 13.302 17.9735 13.7603 17.9735Z" fill="#5B476B" stroke="#5B476B" stroke-width="0.25"/>
    <path d="M13.8029 17.2554C13.7982 17.2554 13.7887 17.2554 13.784 17.2554C13.5903 17.2554 13.4297 17.4161 13.4297 17.6098C13.4297 18.753 13.4297 19.8916 13.4297 21.0349C13.4297 21.5215 13.4297 22.0034 13.4297 22.49C13.4297 23.4443 13.9446 24.3183 14.7761 24.7766C15.773 25.3293 17.0344 25.1073 17.8328 24.3136C18.3761 23.7703 18.565 23.0522 18.565 22.3057C18.565 20.964 18.565 19.6223 18.565 18.2853C18.565 18.0633 18.565 17.8365 18.565 17.6145C18.565 17.4208 18.4044 17.2602 18.2107 17.2602C18.206 17.2602 18.1965 17.2602 18.1918 17.2602C17.7336 17.2602 17.7336 17.9688 18.1918 17.9688C18.1965 17.9688 18.206 17.9688 18.2107 17.9688C18.0926 17.8507 17.9745 17.7326 17.8564 17.6145C17.8564 18.7578 17.8564 19.9011 17.8564 21.0444C17.8564 21.531 17.8564 22.0176 17.8564 22.5042C17.8564 23.4065 17.2281 24.153 16.3541 24.3514C15.3194 24.5829 14.3557 23.8223 14.1572 22.8302C14.0769 22.4333 14.1336 21.975 14.1336 21.5782C14.1336 20.2885 14.1336 18.9987 14.1336 17.7137C14.1336 17.6853 14.1336 17.6523 14.1336 17.6239C14.0155 17.742 13.8974 17.8601 13.7793 17.9783C13.784 17.9783 13.7935 17.9783 13.7982 17.9783C14.2564 17.9641 14.2564 17.2554 13.8029 17.2554Z" fill="#5B476B" stroke="#5B476B" stroke-width="0.25"/>
    <path d="M18.2297 17.2649C18.2249 17.2649 18.2155 17.2649 18.2108 17.2649C18.0171 17.2649 17.8564 17.4255 17.8564 17.6192C17.8564 18.7719 17.8564 19.9294 17.8564 21.0822C17.8564 21.5546 17.8564 22.0317 17.8564 22.5042C17.8564 23.4916 18.4186 24.4081 19.3115 24.838C20.3367 25.3341 21.5887 25.0695 22.3446 24.2286C22.8453 23.6711 22.9918 22.9861 22.9918 22.2585C22.9918 20.9121 22.9918 19.5609 22.9918 18.2145C22.9918 18.0161 22.9918 17.8176 22.9918 17.6145C22.9918 17.4208 22.8312 17.2602 22.6375 17.2602C22.6328 17.2602 22.6233 17.2602 22.6186 17.2602C22.1603 17.2602 22.1603 17.9688 22.6186 17.9688C22.6233 17.9688 22.6328 17.9688 22.6375 17.9688C22.5194 17.8507 22.4013 17.7326 22.2832 17.6145C22.2832 18.7672 22.2832 19.9247 22.2832 21.0774C22.2832 21.5499 22.2832 22.027 22.2832 22.4995C22.2832 23.4302 21.6265 24.186 20.7194 24.3561C19.7178 24.5498 18.7116 23.775 18.5793 22.7829C18.5226 22.3624 18.5651 21.9136 18.5651 21.4932C18.5651 20.2176 18.5651 18.9468 18.5651 17.6712C18.5651 17.6523 18.5651 17.6334 18.5651 17.6145C18.447 17.7326 18.3289 17.8507 18.2108 17.9688C18.2155 17.9688 18.2249 17.9688 18.2297 17.9688C18.6879 17.9735 18.6879 17.2649 18.2297 17.2649Z" fill="#5B476B" stroke="#5B476B" stroke-width="0.25"/>
    <path d="M22.6564 17.2649C22.6517 17.2649 22.6423 17.2649 22.6375 17.2649C22.4438 17.2649 22.2832 17.4255 22.2832 17.6192C22.2832 18.7719 22.2832 19.9294 22.2832 21.0822C22.2832 21.5546 22.2832 22.0317 22.2832 22.5042C22.2832 23.4916 22.8501 24.4081 23.7383 24.838C24.7635 25.3341 26.0154 25.0695 26.7713 24.2286C27.2721 23.6711 27.4186 22.9861 27.4186 22.2585C27.4186 20.9121 27.4186 19.5609 27.4186 18.2145C27.4186 18.0161 27.4186 17.8176 27.4186 17.6145C27.4186 17.4208 27.2579 17.2602 27.0642 17.2602C27.0595 17.2602 27.0501 17.2602 27.0453 17.2602C26.5871 17.2602 26.5871 17.9688 27.0453 17.9688C27.0501 17.9688 27.0595 17.9688 27.0642 17.9688C26.9461 17.8507 26.828 17.7326 26.7099 17.6145C26.7099 18.7672 26.7099 19.9247 26.7099 21.0774C26.7099 21.5499 26.7099 22.027 26.7099 22.4995C26.7099 23.4302 26.0532 24.186 25.1462 24.3561C24.1446 24.5498 23.1383 23.775 23.006 22.7829C22.9493 22.3624 22.9919 21.9136 22.9919 21.4932C22.9919 20.2176 22.9919 18.9468 22.9919 17.6712C22.9919 17.6523 22.9919 17.6334 22.9919 17.6145C22.8737 17.7326 22.7556 17.8507 22.6375 17.9688C22.6423 17.9688 22.6517 17.9688 22.6564 17.9688C23.1147 17.9735 23.1147 17.2649 22.6564 17.2649Z" fill="#5B476B" stroke="#5B476B" stroke-width="0.25"/>
</svg>
