<svg width="32" height="32" viewBox="0 0 32 32" fill="none" xmlns="http://www.w3.org/2000/svg">
    <path d="M12 9.60942V10.9427H8C6.53089 10.9427 5.33333 12.1432 5.33333 13.6221V26.9301C5.33333 28.4194 6.52255 29.6094 8.00016 29.6094H22.6665C24.1459 29.6094 25.3333 28.4157 25.3333 26.9301V13.6221C25.3333 12.1327 24.1442 10.9427 22.6667 10.9427H18.6667V9.60942H22.6667C24.8758 9.60942 26.6667 11.3916 26.6667 13.6221V26.9301C26.6667 29.1462 24.8881 30.9427 22.6665 30.9427H8.00016C5.79093 30.9427 4 29.1606 4 26.9301V13.6221C4 11.4059 5.79536 9.60942 8 9.60942H12ZM16 2.55223V20.2761H14.6667V2.5519L9.8029 7.41423L8.86027 6.47127L15.3334 0L21.8048 6.47135L20.8619 7.41414L16 2.55223ZM12 9.60942V10.9427H8C6.53089 10.9427 5.33333 12.1432 5.33333 13.6221V26.9301C5.33333 28.4194 6.52255 29.6094 8.00016 29.6094H22.6665C24.1459 29.6094 25.3333 28.4157 25.3333 26.9301V13.6221C25.3333 12.1327 24.1442 10.9427 22.6667 10.9427H18.6667V9.60942H22.6667C24.8758 9.60942 26.6667 11.3916 26.6667 13.6221V26.9301C26.6667 29.1462 24.8881 30.9427 22.6665 30.9427H8.00016C5.79093 30.9427 4 29.1606 4 26.9301V13.6221C4 11.4059 5.79536 9.60942 8 9.60942H12Z" fill="#5B476B"/>
</svg>
