<svg width="18" height="24" viewBox="0 0 18 24" fill="none" xmlns="http://www.w3.org/2000/svg">
<path d="M6.625 7.22242V8.21926H3.75C2.69408 8.21926 1.83333 9.11673 1.83333 10.2224V20.172C1.83333 21.2854 2.68808 22.1751 3.75012 22.1751H14.2915C15.3548 22.1751 16.2083 21.2826 16.2083 20.172V10.2224C16.2083 9.10892 15.3536 8.21926 14.2917 8.21926H11.4167V7.22242H14.2917C15.8795 7.22242 17.1667 8.55483 17.1667 10.2224V20.172C17.1667 21.8288 15.8883 23.172 14.2915 23.172H3.75012C2.16223 23.172 0.875 21.8395 0.875 20.172V10.2224C0.875 8.56555 2.16541 7.22242 3.75 7.22242H6.625ZM9.5 1.94622V15.1972H8.54167V1.94597L5.04583 5.58122L4.36832 4.87623L9.02089 0.0380859L13.6722 4.87629L12.9945 5.58116L9.5 1.94622ZM6.625 7.22242V8.21926H3.75C2.69408 8.21926 1.83333 9.11673 1.83333 10.2224V20.172C1.83333 21.2854 2.68808 22.1751 3.75012 22.1751H14.2915C15.3548 22.1751 16.2083 21.2826 16.2083 20.172V10.2224C16.2083 9.10892 15.3536 8.21926 14.2917 8.21926H11.4167V7.22242H14.2917C15.8795 7.22242 17.1667 8.55483 17.1667 10.2224V20.172C17.1667 21.8288 15.8883 23.172 14.2915 23.172H3.75012C2.16223 23.172 0.875 21.8395 0.875 20.172V10.2224C0.875 8.56555 2.16541 7.22242 3.75 7.22242H6.625Z" fill="#9A00FF"/>
</svg>
