<svg width="32" height="33" viewBox="0 0 32 33" fill="none" xmlns="http://www.w3.org/2000/svg">
<path fill-rule="evenodd" clip-rule="evenodd" d="M15.7256 29.6661C23.1484 29.6661 29.1656 23.6488 29.1656 16.2261C29.1656 8.80343 23.1484 2.78613 15.7256 2.78613C8.30294 2.78613 2.28564 8.80343 2.28564 16.2261C2.28564 23.6488 8.30294 29.6661 15.7256 29.6661Z" fill="#F4E5FF"/>
<path fill-rule="evenodd" clip-rule="evenodd" d="M23.8109 26.6143H24.286V25.1286H23.3158L23.8109 26.6143ZM24.6574 27.3572H23.5431C23.3834 27.3572 23.2415 27.255 23.191 27.1031L22.4481 24.8745C22.4102 24.7613 22.4292 24.6368 22.499 24.5403C22.5688 24.4429 22.681 24.3857 22.8002 24.3857H24.6574C24.8628 24.3857 25.0288 24.5521 25.0288 24.7572V26.9857C25.0288 27.1908 24.8628 27.3572 24.6574 27.3572Z" fill="#5B476B"/>
<path fill-rule="evenodd" clip-rule="evenodd" d="M7.94305 26.6143H8.41811L8.91322 25.1286H7.94305V26.6143ZM8.68591 27.3572H7.57162C7.36622 27.3572 7.2002 27.1908 7.2002 26.9857V24.7572C7.2002 24.5521 7.36622 24.3857 7.57162 24.3857H9.42877C9.548 24.3857 9.66017 24.4429 9.73037 24.5403C9.79982 24.6368 9.81914 24.7613 9.78088 24.8745L9.03802 27.1031C8.98788 27.255 8.846 27.3572 8.68591 27.3572Z" fill="#5B476B"/>
<path fill-rule="evenodd" clip-rule="evenodd" d="M7.20038 22.8995H25.0289V7.2995H7.20038V22.8995ZM25.4004 23.6424H6.82895C6.62355 23.6424 6.45752 23.476 6.45752 23.2709V6.92807C6.45752 6.72304 6.62355 6.55664 6.82895 6.55664H25.4004C25.6058 6.55664 25.7718 6.72304 25.7718 6.92807V23.2709C25.7718 23.476 25.6058 23.6424 25.4004 23.6424Z" fill="#5B476B"/>
<path fill-rule="evenodd" clip-rule="evenodd" d="M6.45721 6.557H25.7715V5.81415H6.45721V6.557ZM26.1429 7.29986H6.08578C5.88038 7.29986 5.71436 7.13346 5.71436 6.92843V5.44272C5.71436 5.23769 5.88038 5.07129 6.08578 5.07129H26.1429C26.3483 5.07129 26.5144 5.23769 26.5144 5.44272V6.92843C26.5144 7.13346 26.3483 7.29986 26.1429 7.29986Z" fill="#5B476B"/>
<path fill-rule="evenodd" clip-rule="evenodd" d="M6.45746 24.3861H25.7717V23.6432H6.45746V24.3861ZM26.1432 25.129H6.08603C5.88063 25.129 5.7146 24.9626 5.7146 24.7575V23.2718C5.7146 23.0668 5.88063 22.9004 6.08603 22.9004H26.1432C26.3486 22.9004 26.5146 23.0668 26.5146 23.2718V24.7575C26.5146 24.9626 26.3486 25.129 26.1432 25.129Z" fill="#5B476B"/>
<path fill-rule="evenodd" clip-rule="evenodd" d="M8.68597 21.4144H23.5431V8.78583H8.68597V21.4144ZM23.9145 22.1573H8.31454C8.10914 22.1573 7.94312 21.9909 7.94312 21.7858V8.4144C7.94312 8.20937 8.10914 8.04297 8.31454 8.04297H23.9145C24.1199 8.04297 24.286 8.20937 24.286 8.4144V21.7858C24.286 21.9909 24.1199 22.1573 23.9145 22.1573Z" fill="#5B476B"/>
<path fill-rule="evenodd" clip-rule="evenodd" d="M23.9145 11.3854H8.31454C8.10914 11.3854 7.94312 11.219 7.94312 11.014C7.94312 10.809 8.10914 10.6426 8.31454 10.6426H23.9145C24.1199 10.6426 24.286 10.809 24.286 11.014C24.286 11.219 24.1199 11.3854 23.9145 11.3854Z" fill="#5B476B"/>
<path fill-rule="evenodd" clip-rule="evenodd" d="M19.4574 13.614C19.252 13.614 19.086 13.4476 19.086 13.2426V12.1283C19.086 11.9233 19.252 11.7569 19.4574 11.7569C19.8671 11.7569 20.2003 11.4237 20.2003 11.014C20.2003 10.6043 19.8671 10.2712 19.4574 10.2712C19.0477 10.2712 18.7145 10.6043 18.7145 11.014C18.7145 11.2191 18.5485 11.3855 18.3431 11.3855C18.1377 11.3855 17.9717 11.2191 17.9717 11.014C17.9717 10.1947 18.638 9.52832 19.4574 9.52832C20.2768 9.52832 20.9431 10.1947 20.9431 11.014C20.9431 11.7049 20.4692 12.2873 19.8288 12.4529V13.2426C19.8288 13.4476 19.6628 13.614 19.4574 13.614Z" fill="#5B476B"/>
<path fill-rule="evenodd" clip-rule="evenodd" d="M16.1144 13.614C15.909 13.614 15.7429 13.4476 15.7429 13.2426V12.1283C15.7429 11.9233 15.909 11.7569 16.1144 11.7569C16.5241 11.7569 16.8572 11.4237 16.8572 11.014C16.8572 10.6043 16.5241 10.2712 16.1144 10.2712C15.7047 10.2712 15.3715 10.6043 15.3715 11.014C15.3715 11.2191 15.2055 11.3855 15.0001 11.3855C14.7947 11.3855 14.6287 11.2191 14.6287 11.014C14.6287 10.1947 15.295 9.52832 16.1144 9.52832C16.9337 9.52832 17.6001 10.1947 17.6001 11.014C17.6001 11.7049 17.1261 12.2873 16.4858 12.4529V13.2426C16.4858 13.4476 16.3198 13.614 16.1144 13.614Z" fill="#5B476B"/>
<path fill-rule="evenodd" clip-rule="evenodd" d="M12.7716 13.614C12.5662 13.614 12.4002 13.4476 12.4002 13.2426V12.1283C12.4002 11.9233 12.5662 11.7569 12.7716 11.7569C13.1813 11.7569 13.5145 11.4237 13.5145 11.014C13.5145 10.6043 13.1813 10.2712 12.7716 10.2712C12.3619 10.2712 12.0287 10.6043 12.0287 11.014C12.0287 11.2191 11.8627 11.3855 11.6573 11.3855C11.4519 11.3855 11.2859 11.2191 11.2859 11.014C11.2859 10.1947 11.9522 9.52832 12.7716 9.52832C13.591 9.52832 14.2573 10.1947 14.2573 11.014C14.2573 11.7049 13.7834 12.2873 13.143 12.4529V13.2426C13.143 13.4476 12.977 13.614 12.7716 13.614Z" fill="#5B476B"/>
<path fill-rule="evenodd" clip-rule="evenodd" d="M11.2861 18.8149H14.2575V15.4721C14.2575 15.267 14.4236 15.1006 14.629 15.1006H15.3718V14.7292C15.3718 14.1892 14.4607 13.6149 12.7718 13.6149C11.0829 13.6149 10.1718 14.1892 10.1718 14.7292V15.1006H10.9147C11.1201 15.1006 11.2861 15.267 11.2861 15.4721V18.8149ZM14.629 19.5578H10.9147C10.7093 19.5578 10.5432 19.3914 10.5432 19.1864V15.8435H9.80038C9.59498 15.8435 9.42896 15.6771 9.42896 15.4721V14.7292C9.42896 13.6183 10.7724 12.8721 12.7718 12.8721C14.7712 12.8721 16.1147 13.6183 16.1147 14.7292V15.4721C16.1147 15.6771 15.9486 15.8435 15.7432 15.8435H15.0004V19.1864C15.0004 19.3914 14.8344 19.5578 14.629 19.5578Z" fill="#5B476B"/>
<path fill-rule="evenodd" clip-rule="evenodd" d="M21.3146 19.5578H17.9717C17.7663 19.5578 17.6003 19.3914 17.6003 19.1864C17.6003 18.9813 17.7663 18.8149 17.9717 18.8149H20.9432V15.4721C20.9432 15.267 21.1092 15.1006 21.3146 15.1006H22.0575V14.7292C22.0575 14.1892 21.1463 13.6149 19.4575 13.6149C18.8658 13.6149 18.3413 13.6862 17.8986 13.827C17.7021 13.8898 17.4941 13.7806 17.4321 13.5852C17.37 13.3898 17.4781 13.1811 17.6735 13.1191C18.1894 12.9553 18.7896 12.8721 19.4575 12.8721C21.4569 12.8721 22.8003 13.6183 22.8003 14.7292V15.4721C22.8003 15.6771 22.6343 15.8435 22.4289 15.8435H21.686V19.1864C21.686 19.3914 21.52 19.5578 21.3146 19.5578Z" fill="#5B476B"/>
<path fill-rule="evenodd" clip-rule="evenodd" d="M17.9718 19.5578H14.629C14.4236 19.5578 14.2575 19.3914 14.2575 19.1864C14.2575 18.9813 14.4236 18.8149 14.629 18.8149H17.6004V15.4721C17.6004 15.267 17.7664 15.1006 17.9718 15.1006H18.7147V14.7292C18.7147 14.1892 17.8036 13.6149 16.1147 13.6149C15.523 13.6149 14.9985 13.6862 14.5558 13.827C14.3593 13.8898 14.1513 13.7806 14.0893 13.5852C14.0273 13.3898 14.1353 13.1811 14.3307 13.1191C14.8466 12.9553 15.4469 12.8721 16.1147 12.8721C18.1141 12.8721 19.4575 13.6183 19.4575 14.7292V15.4721C19.4575 15.6771 19.2915 15.8435 19.0861 15.8435H18.3432V19.1864C18.3432 19.3914 18.1772 19.5578 17.9718 19.5578Z" fill="#5B476B"/>
</svg>
