<svg width="14" height="14" viewBox="0 0 14 14" fill="none" xmlns="http://www.w3.org/2000/svg">
    <path fill-rule="evenodd" clip-rule="evenodd" d="M1.28431 0.588591C1.08944 0.453595 0.820013 0.47288 0.646447 0.646447C0.451184 0.841709 0.451184 1.15829 0.646447 1.35355L6.29289 7L0.646447 12.6464L0.588591 12.7157C0.453595 12.9106 0.47288 13.18 0.646447 13.3536C0.841709 13.5488 1.15829 13.5488 1.35355 13.3536L7 7.70711L12.6464 13.3536L12.7157 13.4114C12.9106 13.5464 13.18 13.5271 13.3536 13.3536C13.5488 13.1583 13.5488 12.8417 13.3536 12.6464L7.70711 7L13.3536 1.35355L13.4114 1.28431C13.5464 1.08944 13.5271 0.820013 13.3536 0.646447C13.1583 0.451184 12.8417 0.451184 12.6464 0.646447L7 6.29289L1.35355 0.646447L1.28431 0.588591Z" fill="#5B476B"/>
</svg>
