<svg width="40" height="40" viewBox="0 0 40 40" fill="none" xmlns="http://www.w3.org/2000/svg">
<path fill-rule="evenodd" clip-rule="evenodd" d="M19.9998 38.5709C29.4675 38.5709 37.1426 30.8958 37.1426 21.428C37.1426 11.9603 29.4675 4.28516 19.9998 4.28516C10.5321 4.28516 2.85693 11.9603 2.85693 21.428C2.85693 30.8958 10.5321 38.5709 19.9998 38.5709Z" fill="#F4E5FF"/>
<g clip-path="url(#clip0_2880_288960)">
<path d="M33.4113 18.0546L20.3572 5.62952C20.1365 5.41913 19.8433 5.30176 19.5383 5.30176C19.2334 5.30176 18.9402 5.41913 18.7195 5.62952L5.6654 18.0546C5.48593 18.2176 5.36065 18.4316 5.30643 18.6679C5.25221 18.9041 5.27165 19.1513 5.36212 19.3762C5.4526 19.6011 5.60977 19.7929 5.8125 19.9258C6.01524 20.0587 6.2538 20.1263 6.49612 20.1196H7.50484V32.2243C7.50484 32.539 7.62987 32.8409 7.85243 33.0634C8.07499 33.286 8.37684 33.411 8.69158 33.411H30.3732C30.688 33.411 30.9898 33.286 31.2124 33.0634C31.435 32.8409 31.56 32.539 31.56 32.2243V20.1077H32.5687C32.8094 20.1142 33.0465 20.0473 33.2483 19.9159C33.4501 19.7845 33.6071 19.5948 33.6986 19.372C33.79 19.1492 33.8115 18.9038 33.7602 18.6686C33.7089 18.4333 33.5872 18.2191 33.4113 18.0546V18.0546Z" stroke="#5B476B" stroke-width="0.947909" stroke-miterlimit="10" stroke-linecap="round"/>
<path d="M29.9225 17.2956L20.3574 8.16956C20.1367 7.95917 19.8435 7.8418 19.5385 7.8418C19.2336 7.8418 18.9404 7.95917 18.7197 8.16956L9.13086 17.2956" stroke="#5B476B" stroke-width="0.947909" stroke-miterlimit="10" stroke-linecap="round"/>
<path d="M15.9189 33.4111V24.107C15.9189 23.9673 15.9466 23.829 16.0005 23.7001C16.0543 23.5712 16.1331 23.4542 16.2325 23.356C16.3318 23.2577 16.4497 23.1802 16.5792 23.1278C16.7087 23.0754 16.8473 23.0493 16.987 23.0508H22.09C22.2297 23.0493 22.3683 23.0754 22.4978 23.1278C22.6273 23.1802 22.7452 23.2577 22.8445 23.356C22.9438 23.4542 23.0227 23.5712 23.0765 23.7001C23.1303 23.829 23.158 23.9673 23.158 24.107V33.4111" stroke="#5B476B" stroke-width="0.947909" stroke-miterlimit="10" stroke-linecap="round"/>
<path d="M22.7069 20.3213C22.7069 20.0958 22.79 17.3544 22.79 17.3544C22.7868 16.5087 22.4495 15.6986 21.8515 15.1006C21.2535 14.5026 20.4433 14.1652 19.5976 14.1621H19.3603C18.5146 14.1652 17.7044 14.5026 17.1064 15.1006C16.5084 15.6986 16.1711 16.5087 16.168 17.3544C16.168 17.3544 16.168 20.0958 16.251 20.3213H22.7069Z" stroke="#5B476B" stroke-width="0.729161" stroke-miterlimit="10" stroke-linecap="round"/>
<path d="M19.4795 14.1621V20.3213" stroke="#5B476B" stroke-width="0.605725" stroke-miterlimit="10" stroke-linecap="round"/>
<path d="M22.5581 17.2422L16.3989 17.2422" stroke="#5B476B" stroke-width="0.605725" stroke-miterlimit="10" stroke-linecap="round"/>
</g>
<defs>
<clipPath id="clip0_2880_288960">
<rect width="29.075" height="28.7071" fill="white" transform="translate(5 5)"/>
</clipPath>
</defs>
</svg>
