<svg width="82" height="81" viewBox="0 0 82 81" fill="none" xmlns="http://www.w3.org/2000/svg">
<path fill-rule="evenodd" clip-rule="evenodd" d="M40.1944 76.6701C58.9285 76.6701 74.1154 61.4832 74.1154 42.7491C74.1154 24.0151 58.9285 8.82812 40.1944 8.82812C21.4604 8.82812 6.27344 24.0151 6.27344 42.7491C6.27344 61.4832 21.4604 76.6701 40.1944 76.6701Z" fill="#F4E5FF"/>
<g clip-path="url(#clip0)">
<path d="M68.0159 36.6522L41.6359 11.5432C41.1899 11.118 40.5973 10.8809 39.9811 10.8809C39.3649 10.8809 38.7724 11.118 38.3264 11.5432L11.9463 36.6522C11.5836 36.9815 11.3305 37.4139 11.2209 37.8914C11.1113 38.3689 11.1506 38.8684 11.3335 39.3229C11.5163 39.7773 11.8339 40.1649 12.2436 40.4335C12.6533 40.702 13.1354 40.8387 13.6251 40.8251H15.6635V65.2866C15.6635 65.9226 15.9162 66.5326 16.3659 66.9823C16.8157 67.4321 17.4257 67.6847 18.0617 67.6847H61.8766C62.5126 67.6847 63.1226 67.4321 63.5723 66.9823C64.0221 66.5326 64.2747 65.9226 64.2747 65.2866V40.8011H66.3132C66.7997 40.8142 67.2786 40.679 67.6865 40.4134C68.0943 40.1479 68.4117 39.7645 68.5964 39.3143C68.7812 38.8641 68.8246 38.3683 68.7209 37.8928C68.6172 37.4173 68.3714 36.9846 68.0159 36.6522V36.6522Z" stroke="#5B476B" stroke-width="1.87648" stroke-miterlimit="10" stroke-linecap="round"/>
<path d="M60.9693 35.1181L41.64 16.676C41.194 16.2509 40.6014 16.0137 39.9852 16.0137C39.369 16.0137 38.7765 16.2509 38.3305 16.676L18.9531 35.1181" stroke="#5B476B" stroke-width="1.87648" stroke-miterlimit="10" stroke-linecap="round"/>
<path d="M32.6641 67.6843V48.8826C32.664 48.6002 32.72 48.3207 32.8288 48.0602C32.9376 47.7997 33.0969 47.5633 33.2977 47.3648C33.4984 47.1663 33.7365 47.0096 33.9983 46.9037C34.26 46.7979 34.5401 46.745 34.8224 46.7482H45.1346C45.4169 46.745 45.6971 46.7979 45.9588 46.9037C46.2205 47.0096 46.4586 47.1663 46.6594 47.3648C46.8601 47.5633 47.0195 47.7997 47.1283 48.0602C47.237 48.3207 47.293 48.6002 47.293 48.8826V67.6843" stroke="#5B476B" stroke-width="1.87648" stroke-miterlimit="10" stroke-linecap="round"/>
<path d="M46.3859 41.2337C46.3859 40.778 46.5538 35.2382 46.5538 35.2382C46.5474 33.5292 45.8657 31.892 44.6573 30.6836C43.4488 29.4751 41.8116 28.7934 40.1026 28.7871H39.623C37.914 28.7934 36.2768 29.4751 35.0683 30.6836C33.8599 31.892 33.1782 33.5292 33.1719 35.2382C33.1719 35.2382 33.1719 40.778 33.3397 41.2337H46.3859Z" stroke="#5B476B" stroke-width="1.44345" stroke-miterlimit="10" stroke-linecap="round"/>
<path d="M39.8594 28.7871V41.2337" stroke="#5B476B" stroke-width="1.19909" stroke-miterlimit="10" stroke-linecap="round"/>
<path d="M46.0859 35.0098L33.6394 35.0098" stroke="#5B476B" stroke-width="1.19909" stroke-miterlimit="10" stroke-linecap="round"/>
</g>
<defs>
<clipPath id="clip0">
<rect width="58.7556" height="58.0121" fill="white" transform="translate(10.6055 10.2715)"/>
</clipPath>
</defs>
</svg>
