<svg width="49" height="48" viewBox="0 0 49 48" fill="none" xmlns="http://www.w3.org/2000/svg">
<path fill-rule="evenodd" clip-rule="evenodd" d="M24.4998 44.1598C35.6339 44.1598 44.6598 35.1339 44.6598 23.9998C44.6598 12.8658 35.6339 3.83984 24.4998 3.83984C13.3658 3.83984 4.33984 12.8658 4.33984 23.9998C4.33984 35.1339 13.3658 44.1598 24.4998 44.1598Z" fill="#F4E5FF"/>
<path fill-rule="evenodd" clip-rule="evenodd" d="M23.8582 44.1498C23.7525 44.0018 23.6583 43.8352 23.5783 43.6467C22.7899 41.7941 24.03 39.7235 25.1255 37.8962L25.13 37.8887C25.7856 36.7929 26.4039 35.7595 26.5766 34.8254C28.2793 36.1739 31.3641 39.8312 31.1612 42.612C31.1503 42.7641 31.1295 42.9117 31.099 43.0548C31.2954 42.9868 31.4905 42.9158 31.6841 42.8419C31.6918 42.7787 31.6979 42.7149 31.7026 42.6503C31.9311 39.4917 28.5055 35.6629 26.907 34.4022C26.7569 34.2838 26.5608 34.2532 26.3823 34.3197C26.2051 34.3849 26.0793 34.5325 26.0469 34.716C25.894 35.5618 25.2949 36.5633 24.6593 37.6245C23.5003 39.5596 22.1871 41.7526 23.0797 43.8512C23.1196 43.9449 23.1624 44.0341 23.2078 44.1191C23.4237 44.1327 23.6405 44.143 23.8582 44.1498ZM24.72 44.1586C24.9064 44.1566 25.0923 44.1521 25.2775 44.145C25.2441 44.0491 25.2244 43.9485 25.2205 43.8406C25.2205 43.838 25.2204 43.8354 25.2203 43.8328C25.22 43.8272 25.2196 43.8212 25.2205 43.814C25.164 43.3755 25.6308 42.3615 25.9419 41.6859L25.9454 41.6781C25.9603 41.6449 25.9887 41.6342 26.009 41.6316C26.0266 41.6289 26.059 41.6303 26.0861 41.6622C26.2132 41.8138 26.32 41.984 26.4039 42.1689C26.5053 42.3923 26.7231 42.5333 26.9732 42.5373C27.2167 42.5439 27.4385 42.4083 27.5453 42.1915C27.8658 41.5345 28.0254 40.6834 28.0119 39.662C28.9112 40.6142 29.4522 41.5305 29.7119 42.5439C29.7773 42.876 29.8022 43.1772 29.7833 43.4602C29.9666 43.4106 30.1489 43.3584 30.33 43.3038C30.3322 43.0298 30.3018 42.7419 30.2402 42.4338C30.2402 42.4298 30.2389 42.4245 30.2375 42.4205C29.9549 41.314 29.3734 40.3219 28.4077 39.2992C28.2576 39.1396 28.0264 39.0891 27.8195 39.1689C27.6112 39.25 27.4773 39.4442 27.4787 39.6649C27.4841 40.6039 27.3421 41.3765 27.0567 41.9604C27.0378 41.9989 27.008 42.0043 26.9796 42.0056C26.962 42.0056 26.9174 42.0003 26.8971 41.9537C26.793 41.725 26.6591 41.5122 26.4995 41.3234C26.3616 41.1598 26.1492 41.0786 25.9342 41.1066C25.7205 41.1358 25.5393 41.2675 25.4501 41.4617C24.9916 42.4564 24.617 43.3249 24.6805 43.8715C24.6849 43.9717 24.6985 44.0673 24.72 44.1586Z" fill="#5B476B"/>
<path d="M11.9592 14.8699C9.32574 14.9119 8.88184 17.1434 8.88184 18.3911C8.88184 21.0906 11.8812 23.706 16.1703 24.6838C16.3448 25.6245 16.7719 26.4999 17.406 27.2164C18.04 27.9328 18.857 28.4633 19.7695 28.7509C19.707 29.0184 19.6748 29.292 19.6735 29.5667C19.6901 30.2745 19.8936 30.9652 20.2634 31.5689C20.6332 32.1726 21.1561 32.6677 21.7791 33.004L22.055 32.5601C22.735 31.6001 23.2556 30.5367 23.5967 29.4108C23.6141 29.312 23.6579 29.2197 23.7233 29.1437C23.7888 29.0677 23.8735 29.0108 23.9686 28.9789C24.0676 28.9392 24.1753 28.9266 24.2807 28.9424C24.3862 28.9583 24.4855 29.0019 24.5685 29.0688C25.8009 30.0707 26.896 31.2304 27.8258 32.5181C28.6264 31.8725 29.1395 30.9368 29.2534 29.9147C32.2528 29.6747 34.6223 27.5152 34.6223 24.8457C34.6004 24.0183 34.3687 23.21 33.949 22.4965C33.5293 21.783 32.9354 21.1878 32.2228 20.7666C32.9754 20.2501 33.5651 19.5297 33.9228 18.6899C34.2804 17.85 34.391 16.9256 34.2418 16.0251C34.0925 15.1246 33.6896 14.2853 33.0801 13.6058C32.4707 12.9262 31.6801 12.4345 30.8011 12.1885" stroke="#5B476B" stroke-width="0.793264" stroke-miterlimit="10" stroke-linecap="round"/>
<path d="M24.2988 26.0744C24.4946 25.0343 25.7133 24.3983 27.0201 24.6448C28.3269 24.8913 29.2275 25.9364 29.0317 26.9716" stroke="#5B476B" stroke-width="0.793264" stroke-miterlimit="10" stroke-linecap="round"/>
<path d="M22.6611 18.9434C23.087 16.7058 25.4805 15.2841 28.018 15.764C30.5554 16.2439 32.2711 18.4455 31.8512 20.677" stroke="#5B476B" stroke-width="0.793264" stroke-miterlimit="10" stroke-linecap="round"/>
<path d="M21.9232 12.7794C21.8177 10.6898 23.6837 8.88039 26.0828 8.73417C28.4819 8.58796 30.9477 10.5619 30.6145 13.4861" stroke="#5B476B" stroke-width="0.793264" stroke-miterlimit="10" stroke-linecap="round"/>
<path d="M14.3224 11.8053C14.2368 11.1809 14.282 10.5455 14.4554 9.93949C14.6287 9.33353 14.9262 8.77028 15.3291 8.28559C15.732 7.8009 16.2314 7.40538 16.7954 7.1242C17.3595 6.84302 17.9759 6.68234 18.6055 6.65239C21.0049 6.52642 23.0625 7.93011 23.1585 9.78971" stroke="#5B476B" stroke-width="0.793264" stroke-miterlimit="10" stroke-linecap="round"/>
<path d="M19.1956 25.4167C19.0756 24.1389 20.2994 22.9812 21.925 22.8372C23.5507 22.6932 24.9604 23.6051 25.0744 24.8828" stroke="#5B476B" stroke-width="0.793264" stroke-miterlimit="10" stroke-linecap="round"/>
<path d="M19.5445 20.6246C19.4637 19.8353 20.2888 19.1276 21.3822 19.0461C22.4755 18.9645 23.4246 19.517 23.5054 20.301" stroke="#5B476B" stroke-width="0.793264" stroke-miterlimit="10" stroke-linecap="round"/>
<path d="M17.9565 15.8896C18.0833 15.0803 19.0608 14.5667 20.146 14.7442C21.2312 14.9217 22.0072 15.7237 21.8804 16.5329" stroke="#5B476B" stroke-width="0.793264" stroke-miterlimit="10" stroke-linecap="round"/>
<path d="M12.2116 15.9443C12.0497 14.1447 12.3676 11.8352 15.409 11.5712C16.2347 11.5303 17.0432 11.8177 17.6579 12.3706C18.2726 12.9235 18.6437 13.6971 18.6902 14.5226" stroke="#5B476B" stroke-width="0.793264" stroke-miterlimit="10" stroke-linecap="round"/>
</svg>
