<svg width="17" height="15" viewBox="0 0 17 15" fill="none" xmlns="http://www.w3.org/2000/svg">
<mask id="path-1-inside-1" fill="white">
<path fill-rule="evenodd" clip-rule="evenodd" d="M2 0C0.895431 0 0 0.895431 0 2V10C0 10.8956 0.588688 11.6537 1.40023 11.9085C1.17247 12.8352 0.691059 13.5544 0 14.5C2.88588 14.2525 4.4707 13.6273 5.67617 12H15C16.1046 12 17 11.1046 17 10V2C17 0.895431 16.1046 0 15 0H2Z"/>
</mask>
<path d="M1.40023 11.9085L2.37133 12.1472L2.59536 11.2356L1.69976 10.9544L1.40023 11.9085ZM0 14.5L-0.807382 13.91L-2.1039 15.6841L0.0854426 15.4963L0 14.5ZM5.67617 12V11H5.17246L4.87263 11.4048L5.67617 12ZM1 2C1 1.44772 1.44772 1 2 1V-1C0.343146 -1 -1 0.343146 -1 2H1ZM1 10V2H-1V10H1ZM1.69976 10.9544C1.29309 10.8267 1 10.4463 1 10H-1C-1 11.3449 -0.115714 12.4807 1.10069 12.8626L1.69976 10.9544ZM0.807382 15.09C1.49746 14.1457 2.09162 13.2853 2.37133 12.1472L0.429124 11.6698C0.253328 12.3851 -0.115342 12.963 -0.807382 13.91L0.807382 15.09ZM4.87263 11.4048C4.36987 12.0834 3.81052 12.5314 3.07289 12.8489C2.30867 13.1778 1.31381 13.3837 -0.0854426 13.5037L0.0854426 15.4963C1.57207 15.3689 2.81256 15.1383 3.86359 14.686C4.94121 14.2221 5.777 13.5439 6.47971 12.5952L4.87263 11.4048ZM15 11H5.67617V13H15V11ZM16 10C16 10.5523 15.5523 11 15 11V13C16.6569 13 18 11.6569 18 10H16ZM16 2V10H18V2H16ZM15 1C15.5523 1 16 1.44772 16 2H18C18 0.343146 16.6569 -1 15 -1V1ZM2 1H15V-1H2V1Z" fill="#5B476B" mask="url(#path-1-inside-1)"/>
<path d="M3.794 8.072C3.434 8.072 3.128 8.008 2.876 7.88C2.628 7.752 2.414 7.584 2.234 7.376L2.768 6.86C2.912 7.028 3.072 7.156 3.248 7.244C3.428 7.332 3.626 7.376 3.842 7.376C4.086 7.376 4.27 7.324 4.394 7.22C4.518 7.112 4.58 6.968 4.58 6.788C4.58 6.648 4.54 6.534 4.46 6.446C4.38 6.358 4.23 6.294 4.01 6.254L3.614 6.194C2.778 6.062 2.36 5.656 2.36 4.976C2.36 4.788 2.394 4.618 2.462 4.466C2.534 4.314 2.636 4.184 2.768 4.076C2.9 3.968 3.058 3.886 3.242 3.83C3.43 3.77 3.642 3.74 3.878 3.74C4.194 3.74 4.47 3.792 4.706 3.896C4.942 4 5.144 4.154 5.312 4.358L4.772 4.868C4.668 4.74 4.542 4.636 4.394 4.556C4.246 4.476 4.06 4.436 3.836 4.436C3.608 4.436 3.436 4.48 3.32 4.568C3.208 4.652 3.152 4.772 3.152 4.928C3.152 5.088 3.198 5.206 3.29 5.282C3.382 5.358 3.53 5.414 3.734 5.45L4.124 5.522C4.548 5.598 4.86 5.734 5.06 5.93C5.264 6.122 5.366 6.392 5.366 6.74C5.366 6.94 5.33 7.122 5.258 7.286C5.19 7.446 5.088 7.586 4.952 7.706C4.82 7.822 4.656 7.912 4.46 7.976C4.268 8.04 4.046 8.072 3.794 8.072ZM9.32197 4.994H9.29797L8.97397 5.66L8.11597 7.244L7.25797 5.66L6.93397 4.994H6.90997V8H6.15997V3.812H7.05397L8.12797 5.858H8.15197L9.21397 3.812H10.072V8H9.32197V4.994ZM12.3604 8.072C12.0004 8.072 11.6944 8.008 11.4424 7.88C11.1944 7.752 10.9804 7.584 10.8004 7.376L11.3344 6.86C11.4784 7.028 11.6384 7.156 11.8144 7.244C11.9944 7.332 12.1924 7.376 12.4084 7.376C12.6524 7.376 12.8364 7.324 12.9604 7.22C13.0844 7.112 13.1464 6.968 13.1464 6.788C13.1464 6.648 13.1064 6.534 13.0264 6.446C12.9464 6.358 12.7964 6.294 12.5764 6.254L12.1804 6.194C11.3444 6.062 10.9264 5.656 10.9264 4.976C10.9264 4.788 10.9604 4.618 11.0284 4.466C11.1004 4.314 11.2024 4.184 11.3344 4.076C11.4664 3.968 11.6244 3.886 11.8084 3.83C11.9964 3.77 12.2084 3.74 12.4444 3.74C12.7604 3.74 13.0364 3.792 13.2724 3.896C13.5084 4 13.7104 4.154 13.8784 4.358L13.3384 4.868C13.2344 4.74 13.1084 4.636 12.9604 4.556C12.8124 4.476 12.6264 4.436 12.4024 4.436C12.1744 4.436 12.0024 4.48 11.8864 4.568C11.7744 4.652 11.7184 4.772 11.7184 4.928C11.7184 5.088 11.7644 5.206 11.8564 5.282C11.9484 5.358 12.0964 5.414 12.3004 5.45L12.6904 5.522C13.1144 5.598 13.4264 5.734 13.6264 5.93C13.8304 6.122 13.9324 6.392 13.9324 6.74C13.9324 6.94 13.8964 7.122 13.8244 7.286C13.7564 7.446 13.6544 7.586 13.5184 7.706C13.3864 7.822 13.2224 7.912 13.0264 7.976C12.8344 8.04 12.6124 8.072 12.3604 8.072Z" fill="#5B476B"/>
</svg>
