<svg width="12" height="6" viewBox="0 0 12 6" fill="none" xmlns="http://www.w3.org/2000/svg">
<path d="M1.794 5.072C1.434 5.072 1.128 5.008 0.876 4.88C0.628 4.752 0.414 4.584 0.234 4.376L0.768 3.86C0.912 4.028 1.072 4.156 1.248 4.244C1.428 4.332 1.626 4.376 1.842 4.376C2.086 4.376 2.27 4.324 2.394 4.22C2.518 4.112 2.58 3.968 2.58 3.788C2.58 3.648 2.54 3.534 2.46 3.446C2.38 3.358 2.23 3.294 2.01 3.254L1.614 3.194C0.778 3.062 0.36 2.656 0.36 1.976C0.36 1.788 0.394 1.618 0.462 1.466C0.534 1.314 0.636 1.184 0.768 1.076C0.9 0.968 1.058 0.886 1.242 0.83C1.43 0.77 1.642 0.74 1.878 0.74C2.194 0.74 2.47 0.792 2.706 0.896C2.942 1 3.144 1.154 3.312 1.358L2.772 1.868C2.668 1.74 2.542 1.636 2.394 1.556C2.246 1.476 2.06 1.436 1.836 1.436C1.608 1.436 1.436 1.48 1.32 1.568C1.208 1.652 1.152 1.772 1.152 1.928C1.152 2.088 1.198 2.206 1.29 2.282C1.382 2.358 1.53 2.414 1.734 2.45L2.124 2.522C2.548 2.598 2.86 2.734 3.06 2.93C3.264 3.122 3.366 3.392 3.366 3.74C3.366 3.94 3.33 4.122 3.258 4.286C3.19 4.446 3.088 4.586 2.952 4.706C2.82 4.822 2.656 4.912 2.46 4.976C2.268 5.04 2.046 5.072 1.794 5.072ZM7.32197 1.994H7.29797L6.97397 2.66L6.11597 4.244L5.25797 2.66L4.93397 1.994H4.90997V5H4.15997V0.812H5.05397L6.12797 2.858H6.15197L7.21397 0.812H8.07197V5H7.32197V1.994ZM10.3604 5.072C10.0004 5.072 9.69441 5.008 9.44241 4.88C9.19441 4.752 8.98041 4.584 8.80041 4.376L9.33441 3.86C9.47841 4.028 9.63841 4.156 9.81441 4.244C9.99441 4.332 10.1924 4.376 10.4084 4.376C10.6524 4.376 10.8364 4.324 10.9604 4.22C11.0844 4.112 11.1464 3.968 11.1464 3.788C11.1464 3.648 11.1064 3.534 11.0264 3.446C10.9464 3.358 10.7964 3.294 10.5764 3.254L10.1804 3.194C9.34441 3.062 8.92641 2.656 8.92641 1.976C8.92641 1.788 8.96041 1.618 9.02841 1.466C9.10041 1.314 9.20241 1.184 9.33441 1.076C9.46641 0.968 9.62441 0.886 9.80841 0.83C9.99641 0.77 10.2084 0.74 10.4444 0.74C10.7604 0.74 11.0364 0.792 11.2724 0.896C11.5084 1 11.7104 1.154 11.8784 1.358L11.3384 1.868C11.2344 1.74 11.1084 1.636 10.9604 1.556C10.8124 1.476 10.6264 1.436 10.4024 1.436C10.1744 1.436 10.0024 1.48 9.88641 1.568C9.77441 1.652 9.71841 1.772 9.71841 1.928C9.71841 2.088 9.76441 2.206 9.85641 2.282C9.94841 2.358 10.0964 2.414 10.3004 2.45L10.6904 2.522C11.1144 2.598 11.4264 2.734 11.6264 2.93C11.8304 3.122 11.9324 3.392 11.9324 3.74C11.9324 3.94 11.8964 4.122 11.8244 4.286C11.7564 4.446 11.6544 4.586 11.5184 4.706C11.3864 4.822 11.2224 4.912 11.0264 4.976C10.8344 5.04 10.6124 5.072 10.3604 5.072Z" fill="#5B476B"/>
</svg>
