<svg width="32" height="33" viewBox="0 0 32 33" fill="none" xmlns="http://www.w3.org/2000/svg">
<path fill-rule="evenodd" clip-rule="evenodd" d="M15.9999 30.2147C23.5741 30.2147 29.7142 24.0746 29.7142 16.5004C29.7142 8.92623 23.5741 2.78613 15.9999 2.78613C8.42574 2.78613 2.28564 8.92623 2.28564 16.5004C2.28564 24.0746 8.42574 30.2147 15.9999 30.2147Z" fill="#F4E5FF"/>
<path d="M15.9079 20.9484C15.2957 20.9484 14.7753 20.8396 14.3467 20.6219C13.925 20.4042 13.561 20.1185 13.2549 19.7647L14.163 18.8872C14.4079 19.1729 14.6801 19.3906 14.9794 19.5402C15.2855 19.6899 15.6222 19.7647 15.9896 19.7647C16.4045 19.7647 16.7175 19.6763 16.9284 19.4994C17.1392 19.3157 17.2447 19.0708 17.2447 18.7647C17.2447 18.5266 17.1767 18.3328 17.0406 18.1831C16.9045 18.0334 16.6494 17.9246 16.2753 17.8566L15.6018 17.7545C14.1801 17.53 13.4692 16.8396 13.4692 15.6831C13.4692 15.3634 13.527 15.0743 13.6426 14.8157C13.7651 14.5572 13.9386 14.3362 14.163 14.1525C14.3875 13.9688 14.6562 13.8294 14.9692 13.7341C15.2889 13.6321 15.6494 13.5811 16.0508 13.5811C16.5882 13.5811 17.0576 13.6695 17.459 13.8464C17.8603 14.0232 18.2039 14.2851 18.4896 14.6321L17.5712 15.4994C17.3943 15.2817 17.1801 15.1049 16.9284 14.9688C16.6767 14.8328 16.3603 14.7647 15.9794 14.7647C15.5916 14.7647 15.2991 14.8396 15.1018 14.9892C14.9113 15.1321 14.8161 15.3362 14.8161 15.6015C14.8161 15.8736 14.8943 16.0743 15.0508 16.2035C15.2073 16.3328 15.459 16.428 15.8059 16.4892L16.4692 16.6117C17.1903 16.7409 17.7209 16.9722 18.061 17.3055C18.4079 17.6321 18.5814 18.0913 18.5814 18.6831C18.5814 19.0232 18.5202 19.3328 18.3977 19.6117C18.2821 19.8838 18.1086 20.1219 17.8773 20.326C17.6528 20.5232 17.3739 20.6763 17.0406 20.7851C16.7141 20.894 16.3365 20.9484 15.9079 20.9484Z" fill="#5B476B"/>
<path d="M23.3992 10.2845C21.8922 8.77757 20.0026 7.79277 17.9496 7.41937C18.0693 7.15827 18.1366 6.8683 18.1366 6.56274C18.1366 5.42534 17.2113 4.5 16.0739 4.5C14.9365 4.5 14.0111 5.42534 14.0111 6.56274C14.0111 6.8683 14.0784 7.15827 14.1982 7.41937C12.1452 7.79277 10.2555 8.77757 8.7486 10.2845C6.79193 12.2412 5.71436 14.8427 5.71436 17.6099C5.71436 20.377 6.79193 22.9785 8.7486 24.9352C10.7052 26.8918 13.3067 27.9694 16.0739 27.9694C18.841 27.9694 21.4425 26.8918 23.3992 24.9352C25.3558 22.9785 26.4334 20.377 26.4334 17.6099C26.4334 14.8427 25.3558 12.2412 23.3992 10.2845ZM16.0739 5.87516C16.453 5.87516 16.7615 6.18361 16.7615 6.56274C16.7615 6.94187 16.453 7.25032 16.0739 7.25032C15.6948 7.25032 15.3863 6.94187 15.3863 6.56274C15.3863 6.18361 15.6948 5.87516 16.0739 5.87516ZM16.0739 26.5942C11.1199 26.5942 7.08951 22.5639 7.08951 17.6099C7.08951 12.6558 11.1199 8.62548 16.0739 8.62548C21.0279 8.62548 25.0583 12.6558 25.0583 17.6099C25.0583 22.5639 21.0279 26.5942 16.0739 26.5942Z" fill="#5B476B"/>
<path d="M16.7614 10.001H15.3862V11.8345H16.7614V10.001Z" fill="#5B476B"/>
<path d="M10.2979 16.9229H8.46436V18.298H10.2979V16.9229Z" fill="#5B476B"/>
<path d="M16.7614 23.3857H15.3862V25.2193H16.7614V23.3857Z" fill="#5B476B"/>
<path d="M23.6832 16.9229H21.8496V18.298H23.6832V16.9229Z" fill="#5B476B"/>
</svg>
