<svg width="32" height="32" viewBox="0 0 32 32" fill="none" xmlns="http://www.w3.org/2000/svg">
    <path fill-rule="evenodd" clip-rule="evenodd" d="M15.7261 29.1656C23.1488 29.1656 29.1661 23.1484 29.1661 15.7256C29.1661 8.30294 23.1488 2.28564 15.7261 2.28564C8.30343 2.28564 2.28613 8.30294 2.28613 15.7256C2.28613 23.1484 8.30343 29.1656 15.7261 29.1656Z" fill="#F4E5FF"/>
    <path d="M26.8495 12.9889H25.4855V7.35942L27.0527 6.5756C27.2773 6.4633 27.3682 6.19006 27.2559 5.96546C27.1432 5.74086 26.8704 5.64993 26.6458 5.76223L4.82264 16.6738C4.59804 16.7861 4.50711 17.0594 4.61941 17.284C4.69943 17.4435 4.85992 17.5354 5.02678 17.5354C5.09497 17.5354 5.16454 17.5199 5.22955 17.4876L6.39027 16.9071V22.0819H5.02632C4.77536 22.0819 4.57167 22.2851 4.57167 22.5365V26.1737C4.57167 26.4251 4.77536 26.6284 5.02632 26.6284H26.8495C27.1009 26.6284 27.3041 26.4251 27.3041 26.1737V13.4435C27.3041 13.1926 27.1009 12.9889 26.8495 12.9889ZM24.5762 12.9889H23.2123C22.9609 12.9889 22.7576 13.1926 22.7576 13.4435V14.8075H21.8483V9.17801L24.5762 7.81407V12.9889ZM19.5751 14.8075C19.3237 14.8075 19.1204 15.0112 19.1204 15.2621V16.6261H18.2112V10.9966L20.939 9.63266V14.8075H19.5751ZM15.9379 16.6261C15.6869 16.6261 15.4833 16.8293 15.4833 17.0807V18.4447H14.574V12.8152L17.3019 11.4513V16.6261H15.9379ZM12.3007 18.4447C12.0497 18.4447 11.8461 18.6479 11.8461 18.8993V20.2633H10.9368V14.6338L13.6647 13.2699V18.4447H12.3007ZM7.29957 16.4524L10.0275 15.0885V20.2633H8.66352C8.41255 20.2633 8.20887 20.4665 8.20887 20.7179V22.0819H7.29957V16.4524ZM26.3948 25.7191H5.48097V22.9912H8.66352C8.91448 22.9912 9.11817 22.7879 9.11817 22.5365V21.1726H12.3007C12.5517 21.1726 12.7554 20.9693 12.7554 20.7179V19.354H15.9379C16.1889 19.354 16.3926 19.1507 16.3926 18.8993V17.5354H19.5751C19.8265 17.5354 20.0297 17.3321 20.0297 17.0807V15.7168H23.2123C23.4637 15.7168 23.6669 15.5131 23.6669 15.2621V13.8982H26.3948V25.7191Z" fill="#5B476B"/>
</svg>
