<svg width="32" height="32" viewBox="0 0 32 32" fill="none" xmlns="http://www.w3.org/2000/svg">
    <path fill-rule="evenodd" clip-rule="evenodd" d="M15.7261 29.1656C23.1488 29.1656 29.1661 23.1484 29.1661 15.7256C29.1661 8.30294 23.1488 2.28564 15.7261 2.28564C8.30343 2.28564 2.28613 8.30294 2.28613 15.7256C2.28613 23.1484 8.30343 29.1656 15.7261 29.1656Z" fill="#F4E5FF"/>
    <path d="M23.7928 28.5715V26.1935H25.1527V2.85718H6.85742V26.1935H8.21733V28.5715H11.7545V26.1935H20.2556V28.5715H23.7928ZM23.1082 27.8868H20.9403V26.1935H22.6569H22.9992H23.1082V27.8868ZM22.6569 23.7312H16.3474V5.35302H22.6569V23.7312ZM8.66863 25.5088H7.54206V3.54181H24.4681V25.5088H23.3415V4.66839H8.66863V25.5088ZM15.6627 5.35302V23.7312H9.35327V5.35302H15.6627ZM11.0699 27.8868H8.90197V26.1935H9.01095H9.35327H11.0699V27.8868ZM9.35327 25.5088V24.4158H22.6569V25.5088H9.35327Z" fill="#5B476B"/>
    <path d="M13.4689 15.7446C14.2321 15.7446 14.8533 15.1237 14.8533 14.3603C14.8533 13.5971 14.2321 12.9763 13.4689 12.9763C12.7057 12.9763 12.085 13.5971 12.085 14.3603C12.085 15.1237 12.7057 15.7446 13.4689 15.7446ZM13.4689 13.661C13.8547 13.661 14.1686 13.9747 14.1686 14.3603C14.1686 14.7461 13.8547 15.06 13.4689 15.06C13.0832 15.06 12.7696 14.7461 12.7696 14.3603C12.7696 13.9747 13.0832 13.661 13.4689 13.661Z" fill="#5B476B"/>
    <path d="M18.5396 15.7446C19.3028 15.7446 19.9236 15.1237 19.9236 14.3603C19.9236 13.5971 19.3028 12.9763 18.5396 12.9763C17.7764 12.9763 17.1553 13.5971 17.1553 14.3603C17.1553 15.1237 17.7764 15.7446 18.5396 15.7446ZM18.5396 13.661C18.9254 13.661 19.2389 13.9747 19.2389 14.3603C19.2389 14.7461 18.9254 15.06 18.5396 15.06C18.1538 15.06 17.8399 14.7461 17.8399 14.3603C17.8399 13.9747 18.1538 13.661 18.5396 13.661Z" fill="#5B476B"/>
</svg>
