<svg width="32" height="32" viewBox="0 0 32 32" fill="none" xmlns="http://www.w3.org/2000/svg">
    <path fill-rule="evenodd" clip-rule="evenodd" d="M16.0001 29.44C23.4228 29.44 29.4401 23.4227 29.4401 16C29.4401 8.57729 23.4228 2.56 16.0001 2.56C8.57735 2.56 2.56006 8.57729 2.56006 16C2.56006 23.4227 8.57735 29.44 16.0001 29.44Z" fill="#F4E5FF"/>
    <path d="M19.9184 8.16327V7.78571H20.296C20.5045 7.78571 20.6735 7.61665 20.6735 7.40816V5.5204C20.6735 5.31192 20.5045 5.14285 20.296 5.14285H11.2347C11.0262 5.14285 10.8572 5.31192 10.8572 5.5204V7.40816C10.8572 7.61665 11.0262 7.78571 11.2347 7.78571H11.6123V8.16327C11.6123 9.0749 12.2619 9.83744 13.1225 10.0129V21.4157C12.2619 21.5911 11.6123 22.3537 11.6123 23.2653V23.6428H11.2347C11.0262 23.6428 10.8572 23.8119 10.8572 24.0204V25.9082C10.8572 26.1166 11.0262 26.2857 11.2347 26.2857H20.296C20.5045 26.2857 20.6735 26.1166 20.6735 25.9082V24.0204C20.6735 23.8119 20.5045 23.6428 20.296 23.6428H19.9184V23.2653C19.9184 22.3537 19.2688 21.5911 18.4082 21.4157V10.0129C19.2688 9.83744 19.9184 9.0749 19.9184 8.16327ZM11.6123 5.89796H19.9184V7.03061H11.6123V5.89796ZM12.3674 8.16327V7.78571H19.1633V8.16327C19.1633 8.78785 18.6552 9.29592 18.0307 9.29592H13.5C12.8755 9.29592 12.3674 8.78785 12.3674 8.16327ZM17.6531 21.3776H16.898V10.051H17.6531V21.3776ZM13.8776 21.3776V10.051H14.6327V21.3776H13.8776ZM15.3878 10.051H16.1429V21.3776H15.3878V10.051ZM19.9184 25.5306H11.6123V24.398H19.9184V25.5306ZM19.1633 23.2653V23.6429H12.3674V23.2653C12.3674 22.6408 12.8755 22.1327 13.5 22.1327H18.0307C18.6552 22.1327 19.1633 22.6408 19.1633 23.2653Z" fill="#5B476B"/>
</svg>
