<svg width="65" height="64" viewBox="0 0 65 64" fill="none" xmlns="http://www.w3.org/2000/svg">
<path fill-rule="evenodd" clip-rule="evenodd" d="M32.3331 58.8801C47.1785 58.8801 59.2131 46.8455 59.2131 32.0001C59.2131 17.1547 47.1785 5.12012 32.3331 5.12012C17.4877 5.12012 5.45312 17.1547 5.45312 32.0001C5.45312 46.8455 17.4877 58.8801 32.3331 58.8801Z" fill="#F4E5FF"/>
<path d="M40.1694 16.3265V15.5714H40.9245C41.3414 15.5714 41.6796 15.2332 41.6796 14.8163V11.0407C41.6796 10.6238 41.3414 10.2856 40.9245 10.2856H22.802C22.385 10.2856 22.0469 10.6238 22.0469 11.0407V14.8163C22.0469 15.2332 22.385 15.5714 22.802 15.5714H23.5571V16.3265C23.5571 18.1497 24.8564 19.6748 26.5775 20.0256V42.8314C24.8564 43.1822 23.5571 44.7073 23.5571 46.5305V47.2856H22.802C22.385 47.2856 22.0469 47.6238 22.0469 48.0407V51.8163C22.0469 52.2332 22.385 52.5714 22.802 52.5714H40.9245C41.3414 52.5714 41.6796 52.2332 41.6796 51.8163V48.0407C41.6796 47.6238 41.3414 47.2856 40.9245 47.2856H40.1694V46.5305C40.1694 44.7073 38.8701 43.1822 37.1489 42.8314V20.0256C38.8701 19.6748 40.1694 18.1497 40.1694 16.3265ZM23.5571 11.7959H40.1694V14.0612H23.5571V11.7959ZM25.0673 16.3265V15.5714H38.6591V16.3265C38.6591 17.5756 37.643 18.5918 36.3938 18.5918H27.3326C26.0834 18.5918 25.0673 17.5756 25.0673 16.3265ZM35.6387 42.7551H34.1285V20.102H35.6387V42.7551ZM28.0877 42.7551V20.102H29.5979V42.7551H28.0877ZM31.1081 20.102H32.6183V42.7551H31.1081V20.102ZM40.1694 51.0612H23.5571V48.7959H40.1694V51.0612ZM38.6591 46.5306V47.2857H25.0673V46.5306C25.0673 45.2814 26.0834 44.2653 27.3326 44.2653H36.3938C37.643 44.2653 38.6591 45.2814 38.6591 46.5306Z" fill="#5B476B"/>
</svg>
