<svg width="44" height="44" viewBox="0 0 44 44" fill="none" xmlns="http://www.w3.org/2000/svg">
    <rect width="44" height="44" rx="16" fill="#F4E5FF"/>
    <path d="M19.76 26.868V22.416C21.272 22.3413 22.4293 22.024 23.232 21.464C24.0533 20.8853 24.464 20.036 24.464 18.916V18.524C24.464 17.6653 24.2027 17.0027 23.68 16.536C23.1573 16.0507 22.4573 15.808 21.58 15.808C20.6467 15.808 19.9 16.0787 19.34 16.62C18.78 17.1613 18.3973 17.852 18.192 18.692L15.532 17.628C15.7 17.0493 15.9427 16.4893 16.26 15.948C16.596 15.4067 17.016 14.9307 17.52 14.52C18.024 14.0907 18.6213 13.7547 19.312 13.512C20.0027 13.2507 20.796 13.12 21.692 13.12C22.6067 13.12 23.4373 13.2507 24.184 13.512C24.9307 13.7733 25.5653 14.1467 26.088 14.632C26.6107 15.0987 27.012 15.6773 27.292 16.368C27.572 17.04 27.712 17.7867 27.712 18.608C27.712 19.448 27.5627 20.204 27.264 20.876C26.984 21.5293 26.6013 22.0893 26.116 22.556C25.6493 23.0227 25.1173 23.4053 24.52 23.704C23.9227 23.984 23.3067 24.18 22.672 24.292V26.868H19.76ZM21.244 33.336C20.5347 33.336 20.012 33.168 19.676 32.832C19.3587 32.4773 19.2 32.0293 19.2 31.488V31.012C19.2 30.4707 19.3587 30.032 19.676 29.696C20.012 29.3413 20.5347 29.164 21.244 29.164C21.9533 29.164 22.4667 29.3413 22.784 29.696C23.12 30.032 23.288 30.4707 23.288 31.012V31.488C23.288 32.0293 23.12 32.4773 22.784 32.832C22.4667 33.168 21.9533 33.336 21.244 33.336Z" fill="#9A00FF"/>
</svg>
