<svg width="13" height="4" viewBox="0 0 13 4" fill="none" xmlns="http://www.w3.org/2000/svg">
    <path d="M1.384 3.176C0.946667 3.176 0.621333 3.06933 0.408 2.856C0.205333 2.632 0.104 2.34933 0.104 2.008V1.72C0.104 1.37867 0.205333 1.096 0.408 0.872C0.621333 0.648 0.946667 0.536 1.384 0.536C1.832 0.536 2.15733 0.648 2.36 0.872C2.56267 1.096 2.664 1.37867 2.664 1.72V2.008C2.664 2.34933 2.56267 2.632 2.36 2.856C2.15733 3.06933 1.832 3.176 1.384 3.176ZM6.16525 3.176C5.72792 3.176 5.40258 3.06933 5.18925 2.856C4.98658 2.632 4.88525 2.34933 4.88525 2.008V1.72C4.88525 1.37867 4.98658 1.096 5.18925 0.872C5.40258 0.648 5.72792 0.536 6.16525 0.536C6.61325 0.536 6.93858 0.648 7.14125 0.872C7.34392 1.096 7.44525 1.37867 7.44525 1.72V2.008C7.44525 2.34933 7.34392 2.632 7.14125 2.856C6.93858 3.06933 6.61325 3.176 6.16525 3.176ZM10.9465 3.176C10.5092 3.176 10.1838 3.06933 9.9705 2.856C9.76783 2.632 9.6665 2.34933 9.6665 2.008V1.72C9.6665 1.37867 9.76783 1.096 9.9705 0.872C10.1838 0.648 10.5092 0.536 10.9465 0.536C11.3945 0.536 11.7198 0.648 11.9225 0.872C12.1252 1.096 12.2265 1.37867 12.2265 1.72V2.008C12.2265 2.34933 12.1252 2.632 11.9225 2.856C11.7198 3.06933 11.3945 3.176 10.9465 3.176Z" fill="#5B476B"/>
</svg>
