<svg width="19" height="22" viewBox="0 0 19 22" fill="none" xmlns="http://www.w3.org/2000/svg">
<path fill-rule="evenodd" clip-rule="evenodd" d="M11.4158 0.9375C12.6861 0.9375 13.7254 1.92606 13.8065 3.17581L13.8116 3.33333V4.7711H18.1256C18.3903 4.7711 18.6048 4.98563 18.6048 5.25026C18.6048 5.48549 18.4353 5.68114 18.2118 5.72171L18.1256 5.72943H16.6868V18.667C16.6868 19.9372 15.6982 20.9766 14.4485 21.0577L14.2909 21.0628H4.7076C3.43735 21.0628 2.39798 20.0742 2.31686 18.8245L2.31177 18.667V5.72943H0.875651C0.611015 5.72943 0.396484 5.5149 0.396484 5.25026C0.396484 5.01503 0.56599 4.81939 0.78952 4.77882L0.875651 4.7711H5.18664V3.33333C5.18664 2.06308 6.1752 1.02371 7.42495 0.942596L7.58248 0.9375H11.4158ZM6.14498 4.7711H12.8533V3.33333C12.8533 2.58612 12.2832 1.97207 11.5543 1.90241L11.4158 1.89583H7.58248C6.83527 1.89583 6.22121 2.46593 6.15156 3.19489L6.14498 3.33333V4.7711ZM3.2701 5.72943V18.667C3.2701 19.4142 3.8402 20.0282 4.56916 20.0979L4.7076 20.1045H14.2909C15.0381 20.1045 15.6522 19.5343 15.7219 18.8054L15.7284 18.667V5.72943H3.2701ZM7.58415 9.56245C7.81938 9.56245 8.01502 9.73195 8.05559 9.95548L8.06331 10.0416V15.7916C8.06331 16.0563 7.84878 16.2708 7.58415 16.2708C7.34891 16.2708 7.15327 16.1013 7.1127 15.8777L7.10498 15.7916V10.0416C7.10498 9.77698 7.31951 9.56245 7.58415 9.56245ZM11.8892 9.95548C11.8486 9.73195 11.653 9.56245 11.4178 9.56245C11.1531 9.56245 10.9386 9.77698 10.9386 10.0416V15.7916L10.9463 15.8777C10.9869 16.1013 11.1825 16.2708 11.4178 16.2708C11.6824 16.2708 11.8969 16.0563 11.8969 15.7916V10.0416L11.8892 9.95548Z" fill="#E82828"/>
</svg>
