<svg width="20" height="20" viewBox="0 0 20 20" fill="none" xmlns="http://www.w3.org/2000/svg">
<path fill-rule="evenodd" clip-rule="evenodd" d="M11.6665 1.25C12.771 1.25 13.6748 2.10961 13.7454 3.19635L13.7498 3.33333V4.58357H15.8331H17.4997C17.7298 4.58357 17.9163 4.77011 17.9163 5.00023C17.9163 5.20478 17.7689 5.37491 17.5746 5.41019L17.4997 5.4169H16.2498V16.6669C16.2498 17.7715 15.3902 18.6753 14.3034 18.7458L14.1665 18.7502H5.83312C4.72855 18.7502 3.82476 17.8906 3.75422 16.8039L3.74979 16.6669L3.74979 5.4169H2.49967C2.26956 5.4169 2.08301 5.23035 2.08301 5.00023C2.08301 4.79568 2.2304 4.62556 2.42478 4.59028L2.49967 4.58357H4.16646H6.24979V3.33333C6.24979 2.22876 7.1094 1.32497 8.19614 1.25443L8.33312 1.25L11.6665 1.25ZM7.08312 4.58357H12.9165V3.33333C12.9165 2.68359 12.4207 2.14963 11.7868 2.08906L11.6665 2.08333H8.33312C7.68338 2.08333 7.14942 2.57907 7.08885 3.21295L7.08312 3.33333V4.58357ZM4.58312 5.4169L4.58312 16.6669C4.58312 17.3166 5.07886 17.8506 5.71274 17.9112L5.83312 17.9169H14.1665C14.8162 17.9169 15.3502 17.4212 15.4107 16.7873L15.4165 16.6669L15.4165 5.4169L4.58312 5.4169ZM8.33289 8.75C8.53744 8.75 8.70756 8.8974 8.74285 9.09177L8.74956 9.16667V14.1667C8.74956 14.3968 8.56301 14.5833 8.33289 14.5833C8.12834 14.5833 7.95822 14.4359 7.92294 14.2416L7.91623 14.1667V9.16667C7.91623 8.93655 8.10277 8.75 8.33289 8.75ZM12.0764 9.09177C12.0411 8.8974 11.871 8.75 11.6665 8.75C11.4363 8.75 11.2498 8.93655 11.2498 9.16667V14.1667L11.2565 14.2416C11.2918 14.4359 11.4619 14.5833 11.6665 14.5833C11.8966 14.5833 12.0831 14.3968 12.0831 14.1667V9.16667L12.0764 9.09177Z" fill="#777185"/>
<line x1="20" y1="0" x2="0" y2="20" stroke="#777185" />
</svg>
