<svg width="22" height="22" viewBox="0 0 22 22" fill="none" xmlns="http://www.w3.org/2000/svg">
<path fill-rule="evenodd" clip-rule="evenodd" d="M12.8332 1.375C14.0482 1.375 15.0424 2.32057 15.12 3.51599L15.1249 3.66667V5.04211H17.4165H19.2497C19.5028 5.04211 19.708 5.24732 19.708 5.50045C19.708 5.72545 19.5459 5.91259 19.3321 5.9514L19.2497 5.95878H17.8749V18.3338C17.8749 19.5488 16.9293 20.543 15.7339 20.6206L15.5832 20.6254H6.41652C5.20149 20.6254 4.20732 19.6799 4.12973 18.4845L4.12485 18.3338V5.95878H2.74972C2.49658 5.95878 2.29138 5.75358 2.29138 5.50045C2.29138 5.27544 2.45352 5.08831 2.66733 5.0495L2.74972 5.04211H4.58319H6.87485V3.66667C6.87485 2.45164 7.82043 1.45746 9.01584 1.37987L9.16652 1.375H12.8332ZM7.79152 5.04211H14.2082V3.66667C14.2082 2.95194 13.6629 2.36459 12.9656 2.29796L12.8332 2.29167H9.16652C8.4518 2.29167 7.86444 2.83698 7.79782 3.53424L7.79152 3.66667V5.04211ZM5.04152 5.95878V18.3338C5.04152 19.0485 5.58684 19.6359 6.2841 19.7025L6.41652 19.7088H15.5832C16.2979 19.7088 16.8853 19.1635 16.9519 18.4662L16.9582 18.3338V5.95878H5.04152ZM9.16624 9.625C9.39125 9.625 9.57838 9.78713 9.61719 10.0009L9.62457 10.0833V15.5833C9.62457 15.8365 9.41937 16.0417 9.16624 16.0417C8.94124 16.0417 8.7541 15.8795 8.71529 15.6657L8.70791 15.5833V10.0833C8.70791 9.8302 8.91311 9.625 9.16624 9.625ZM13.2841 10.0009C13.2453 9.78713 13.0582 9.625 12.8332 9.625C12.5801 9.625 12.3749 9.8302 12.3749 10.0833V15.5833L12.3822 15.6657C12.421 15.8795 12.6082 16.0417 12.8332 16.0417C13.0863 16.0417 13.2915 15.8365 13.2915 15.5833V10.0833L13.2841 10.0009Z" fill="#E82828"/>
</svg>
