<svg width="24" height="24" viewBox="0 0 24 24" fill="none" xmlns="http://www.w3.org/2000/svg">
<path fill-rule="evenodd" clip-rule="evenodd" d="M14.001 1.5C15.3265 1.5 16.411 2.53154 16.4957 3.83562L16.501 4V5.50049H19.001H21C21.2761 5.50049 21.5 5.72435 21.5 6.00049C21.5 6.24595 21.3231 6.4501 21.0899 6.49243L21 6.50049H19.501V20.0005C19.501 21.326 18.4694 22.4105 17.1654 22.4952L17.001 22.5005H7.00098C5.67549 22.5005 4.59094 21.469 4.50629 20.1649L4.50098 20.0005V6.50049H3C2.72386 6.50049 2.5 6.27663 2.5 6.00049C2.5 5.75503 2.67688 5.55088 2.91012 5.50854L3 5.50049H5.00098H7.50098V4C7.50098 2.67452 8.53251 1.58996 9.8366 1.50532L10.001 1.5H14.001ZM8.50098 5.50049H15.501V4C15.501 3.2203 14.9061 2.57955 14.1454 2.50687L14.001 2.5H10.001C9.22128 2.5 8.58053 3.09489 8.50784 3.85554L8.50098 4V5.50049ZM5.50098 6.50049V20.0005C5.50098 20.7802 6.09586 21.4209 6.85652 21.4936L7.00098 21.5005H17.001C17.7807 21.5005 18.4214 20.9056 18.4941 20.1449L18.501 20.0005V6.50049H5.50098ZM9.99902 10.5C10.2445 10.5 10.4486 10.6769 10.491 10.9101L10.499 11V17C10.499 17.2761 10.2752 17.5 9.99902 17.5C9.75356 17.5 9.54942 17.3231 9.50708 17.0899L9.49902 17V11C9.49902 10.7239 9.72288 10.5 9.99902 10.5ZM14.4929 10.9101C14.4506 10.6769 14.2464 10.5 14.001 10.5C13.7248 10.5 13.501 10.7239 13.501 11V17L13.509 17.0899C13.5514 17.3231 13.7555 17.5 14.001 17.5C14.2771 17.5 14.501 17.2761 14.501 17V11L14.4929 10.9101Z" fill="#5B476B"/>
</svg>
