<svg width="32" height="32" viewBox="0 0 32 32" fill="none" xmlns="http://www.w3.org/2000/svg">
<path fill-rule="evenodd" clip-rule="evenodd" d="M18.6666 2C20.4339 2 21.8799 3.37538 21.9928 5.11417L21.9999 5.33333V7.33371H25.3332H27.9997C28.3679 7.33371 28.6664 7.63218 28.6664 8.00037C28.6664 8.32765 28.4305 8.59985 28.1195 8.6563L27.9997 8.66704H25.9999V26.667C25.9999 28.4343 24.6245 29.8804 22.8857 29.9933L22.6666 30.0004H9.33322C7.56591 30.0004 6.11984 28.625 6.00698 26.8862L5.99989 26.667V8.66704H3.9997C3.63152 8.66704 3.33304 8.36856 3.33304 8.00037C3.33304 7.67309 3.56887 7.40089 3.87987 7.34445L3.9997 7.33371H6.66656H9.99989V5.33333C9.99989 3.56602 11.3753 2.11995 13.1141 2.00709L13.3332 2H18.6666ZM11.3332 7.33371H20.6666V5.33333C20.6666 4.29374 19.8734 3.4394 18.8592 3.34249L18.6666 3.33333H13.3332C12.2936 3.33333 11.4393 4.12652 11.3424 5.14072L11.3332 5.33333V7.33371ZM7.33322 8.66704V26.667C7.33322 27.7066 8.12641 28.561 9.14061 28.6579L9.33322 28.667H22.6666C23.7062 28.667 24.5605 27.8739 24.6574 26.8596L24.6666 26.667V8.66704H7.33322ZM13.3329 14C13.6601 14 13.9323 14.2358 13.9888 14.5468L13.9995 14.6667V22.6667C13.9995 23.0349 13.701 23.3333 13.3329 23.3333C13.0056 23.3333 12.7334 23.0975 12.6769 22.7865L12.6662 22.6667V14.6667C12.6662 14.2985 12.9647 14 13.3329 14ZM19.3225 14.5468C19.266 14.2358 18.9938 14 18.6666 14C18.2984 14 17.9999 14.2985 17.9999 14.6667V22.6667L18.0106 22.7865C18.0671 23.0975 18.3393 23.3333 18.6666 23.3333C19.0347 23.3333 19.3332 23.0349 19.3332 22.6667V14.6667L19.3225 14.5468Z" fill="#5B476B"/>
</svg>
