<svg width="80" height="80" viewBox="0 0 80 80" fill="none" xmlns="http://www.w3.org/2000/svg">
<path fill-rule="evenodd" clip-rule="evenodd" d="M40.6861 74.9714C59.6216 74.9714 74.9718 59.6212 74.9718 40.6857C74.9718 21.7502 59.6216 6.39996 40.6861 6.39996C21.7506 6.39996 6.40039 21.7502 6.40039 40.6857C6.40039 59.6212 21.7506 74.9714 40.6861 74.9714Z" fill="#F4E5FF"/>
<path fill-rule="evenodd" clip-rule="evenodd" d="M35.8367 39.2807H37.9167C38.4911 39.2807 38.9567 39.7463 38.9567 40.3207C38.9567 40.8951 38.4911 41.3607 37.9167 41.3607H35.8367V47.6007C35.8367 48.1751 35.3711 48.6407 34.7967 48.6407H30.6367C30.0623 48.6407 29.5967 48.1751 29.5967 47.6007V37.2007C29.5967 36.6263 30.0623 36.1607 30.6367 36.1607H34.7967C35.3711 36.1607 35.8367 36.6263 35.8367 37.2007V39.2807ZM31.6783 38.2408V46.5608H33.7583V41.3608C33.1839 41.3608 32.7183 40.8952 32.7183 40.3208C32.7183 39.7464 33.1839 39.2808 33.7583 39.2808V38.2408H31.6783Z" fill="#5B476B"/>
<path d="M41.0341 19.5203H38.9541C38.3797 19.5203 37.9141 19.9859 37.9141 20.5603C37.9141 21.1347 38.3797 21.6003 38.9541 21.6003H41.0341C41.6084 21.6003 42.0741 21.1347 42.0741 20.5603C42.0741 19.9859 41.6084 19.5203 41.0341 19.5203Z" fill="#5B476B"/>
<path fill-rule="evenodd" clip-rule="evenodd" d="M20.2334 69.4406H59.7534C60.3277 69.4406 60.7934 68.975 60.7934 68.4006C60.7934 67.8263 60.3277 67.3606 59.7534 67.3606H58.7134V13.2806C58.7134 12.1319 57.7821 11.2006 56.6334 11.2006H23.3534C22.2046 11.2006 21.2734 12.1319 21.2734 13.2806V67.3606H20.2334C19.659 67.3606 19.1934 67.8263 19.1934 68.4006C19.1934 68.975 19.659 69.4406 20.2334 69.4406ZM27.5126 67.3605V17.4405H52.4726V67.3605H27.5126ZM56.6324 13.2807H23.3524V67.3607H25.4324V17.4407C25.4324 16.292 26.3637 15.3607 27.5124 15.3607H52.4724C53.6212 15.3607 54.5524 16.292 54.5524 17.4407V67.3607H56.6324V13.2807Z" fill="#5B476B"/>
</svg>
