<svg width="32" height="32" viewBox="0 0 32 32" fill="none" xmlns="http://www.w3.org/2000/svg">
<path fill-rule="evenodd" clip-rule="evenodd" d="M16.0005 29.4405C23.4233 29.4405 29.4405 23.4233 29.4405 16.0005C29.4405 8.57784 23.4233 2.56055 16.0005 2.56055C8.57784 2.56055 2.56055 8.57784 2.56055 16.0005C2.56055 23.4233 8.57784 29.4405 16.0005 29.4405Z" fill="#F4E5FF"/>
<path fill-rule="evenodd" clip-rule="evenodd" d="M14.3349 15.7128H15.1669C15.3966 15.7128 15.5829 15.8991 15.5829 16.1288C15.5829 16.3586 15.3966 16.5448 15.1669 16.5448H14.3349V19.0408C14.3349 19.2706 14.1486 19.4568 13.9189 19.4568H12.2549C12.0251 19.4568 11.8389 19.2706 11.8389 19.0408V14.8808C11.8389 14.6511 12.0251 14.4648 12.2549 14.4648H13.9189C14.1486 14.4648 14.3349 14.6511 14.3349 14.8808V15.7128ZM12.6713 15.2969V18.6249H13.5033V16.5449C13.2736 16.5449 13.0873 16.3586 13.0873 16.1289C13.0873 15.8991 13.2736 15.7129 13.5033 15.7129V15.2969H12.6713Z" fill="#5B476B"/>
<path d="M16.414 7.80859H15.582C15.3523 7.80859 15.166 7.99484 15.166 8.22459C15.166 8.45434 15.3523 8.64059 15.582 8.64059H16.414C16.6438 8.64059 16.83 8.45434 16.83 8.22459C16.83 7.99484 16.6438 7.80859 16.414 7.80859Z" fill="#5B476B"/>
<path fill-rule="evenodd" clip-rule="evenodd" d="M8.09373 27.7765H23.9017C24.1315 27.7765 24.3177 27.5902 24.3177 27.3605C24.3177 27.1307 24.1315 26.9445 23.9017 26.9445H23.4857V5.31247C23.4857 4.85297 23.1132 4.48047 22.6537 4.48047H9.34173C8.88223 4.48047 8.50973 4.85297 8.50973 5.31247V26.9445H8.09373C7.86398 26.9445 7.67773 27.1307 7.67773 27.3605C7.67773 27.5902 7.86398 27.7765 8.09373 27.7765ZM11.005 26.9434V6.97545H20.989V26.9434H11.005ZM22.653 5.3125H9.34096V26.9445H10.173V6.9765C10.173 6.517 10.5455 6.1445 11.005 6.1445H20.989C21.4485 6.1445 21.821 6.517 21.821 6.9765V26.9445H22.653V5.3125Z" fill="#5B476B"/>
</svg>
