<svg width="66" height="66" viewBox="0 0 66 66" fill="none" xmlns="http://www.w3.org/2000/svg">
    <path fill-rule="evenodd" clip-rule="evenodd" d="M33.565 61.8515C49.1868 61.8515 61.8507 49.1875 61.8507 33.5657C61.8507 17.944 49.1868 5.28003 33.565 5.28003C17.9432 5.28003 5.2793 17.944 5.2793 33.5657C5.2793 49.1875 17.9432 61.8515 33.565 61.8515Z" fill="#F4E5FF"/>
    <path fill-rule="evenodd" clip-rule="evenodd" d="M29.5669 32.4065H31.2829C31.7568 32.4065 32.1409 32.7907 32.1409 33.2645C32.1409 33.7384 31.7568 34.1225 31.2829 34.1225H29.5669V39.2705C29.5669 39.7444 29.1828 40.1285 28.7089 40.1285H25.2769C24.8031 40.1285 24.4189 39.7444 24.4189 39.2705V30.6905C24.4189 30.2167 24.8031 29.8325 25.2769 29.8325H28.7089C29.1828 29.8325 29.5669 30.2167 29.5669 30.6905V32.4065ZM26.1357 31.5487V38.4127H27.8517V34.1227C27.3779 34.1227 26.9937 33.7385 26.9937 33.2647C26.9937 32.7908 27.3779 32.4067 27.8517 32.4067V31.5487H26.1357Z" fill="#5B476B"/>
    <path d="M33.8533 16.1042H32.1373C31.6634 16.1042 31.2793 16.4884 31.2793 16.9622C31.2793 17.4361 31.6634 17.8202 32.1373 17.8202H33.8533C34.3272 17.8202 34.7113 17.4361 34.7113 16.9622C34.7113 16.4884 34.3272 16.1042 33.8533 16.1042Z" fill="#5B476B"/>
    <path fill-rule="evenodd" clip-rule="evenodd" d="M16.693 57.2885H49.297C49.7708 57.2885 50.155 56.9044 50.155 56.4305C50.155 55.9566 49.7708 55.5725 49.297 55.5725H48.439V10.9565C48.439 10.0088 47.6707 9.24048 46.723 9.24048H19.267C18.3192 9.24048 17.551 10.0088 17.551 10.9565V55.5725H16.693C16.2191 55.5725 15.835 55.9566 15.835 56.4305C15.835 56.9044 16.2191 57.2885 16.693 57.2885ZM22.6979 55.5723V14.3883H43.2899V55.5723H22.6979ZM46.7217 10.9565H19.2657V55.5725H20.9817V14.3885C20.9817 13.4407 21.75 12.6725 22.6977 12.6725H43.2897C44.2375 12.6725 45.0057 13.4407 45.0057 14.3885V55.5725H46.7217V10.9565Z" fill="#5B476B"/>
    <path fill-rule="evenodd" clip-rule="evenodd" d="M49.5 61.875C55.5751 61.875 60.5 56.9501 60.5 50.875C60.5 44.7999 55.5751 39.875 49.5 39.875C43.4249 39.875 38.5 44.7999 38.5 50.875C38.5 56.9501 43.4249 61.875 49.5 61.875Z" fill="#5B476B"/>
    <path fill-rule="evenodd" clip-rule="evenodd" d="M50.5313 49.8438V46.0318L50.5202 45.9084L50.5147 45.8779C50.4273 45.3964 50.007 45.0312 49.5 45.0312C48.9311 45.0312 48.4698 45.4919 48.4688 46.0605L48.4688 49.8438H44.6568L44.5334 49.8548L44.5029 49.8603C44.0214 49.9477 43.6562 50.368 43.6562 50.875C43.6562 51.4439 44.1169 51.9052 44.6855 51.9062L48.4688 51.9062V55.7182L48.4798 55.8416L48.4853 55.8721C48.5727 56.3536 48.993 56.7188 49.5 56.7188C50.0689 56.7188 50.5302 56.2581 50.5313 55.6895L50.5313 51.9062H54.3433L54.4666 51.8952L54.4971 51.8897C54.9786 51.8023 55.3438 51.382 55.3438 50.875C55.3438 50.3061 54.8831 49.8448 54.3145 49.8438L50.5313 49.8438ZM49.1563 55.6869C49.1563 55.6869 49.1563 55.6868 49.1563 55.6869V55.6869ZM44.6881 50.5313C44.6881 50.5313 44.6882 50.5313 44.6881 50.5313V50.5313Z" fill="white"/>
</svg>
