<svg width="28" height="20" viewBox="0 0 28 20" fill="none" xmlns="http://www.w3.org/2000/svg">
<rect width="28" height="20" rx="2" fill="white"/>
<mask id="mask0" style="mask-type:alpha" maskUnits="userSpaceOnUse" x="0" y="0" width="28" height="20">
<rect width="28" height="20" rx="2" fill="white"/>
</mask>
<g mask="url(#mask0)">
<path fill-rule="evenodd" clip-rule="evenodd" d="M28 0H0V1.33333H28V0ZM28 2.66667H0V4H28V2.66667ZM0 5.33333H28V6.66667H0V5.33333ZM28 8H0V9.33333H28V8ZM0 10.6667H28V12H0V10.6667ZM28 13.3333H0V14.6667H28V13.3333ZM0 16H28V17.3333H0V16ZM28 18.6667H0V20H28V18.6667Z" fill="#D02F44"/>
<rect width="12" height="9.33333" fill="#46467F"/>
<g filter="url(#filter0_d)">
<path fill-rule="evenodd" clip-rule="evenodd" d="M2.66536 2C2.66536 2.36819 2.36689 2.66667 1.9987 2.66667C1.63051 2.66667 1.33203 2.36819 1.33203 2C1.33203 1.63181 1.63051 1.33333 1.9987 1.33333C2.36689 1.33333 2.66536 1.63181 2.66536 2ZM5.33203 2C5.33203 2.36819 5.03355 2.66667 4.66536 2.66667C4.29717 2.66667 3.9987 2.36819 3.9987 2C3.9987 1.63181 4.29717 1.33333 4.66536 1.33333C5.03355 1.33333 5.33203 1.63181 5.33203 2ZM7.33203 2.66667C7.70022 2.66667 7.9987 2.36819 7.9987 2C7.9987 1.63181 7.70022 1.33333 7.33203 1.33333C6.96384 1.33333 6.66536 1.63181 6.66536 2C6.66536 2.36819 6.96384 2.66667 7.33203 2.66667ZM10.6654 2C10.6654 2.36819 10.3669 2.66667 9.9987 2.66667C9.63051 2.66667 9.33203 2.36819 9.33203 2C9.33203 1.63181 9.63051 1.33333 9.9987 1.33333C10.3669 1.33333 10.6654 1.63181 10.6654 2ZM3.33203 4C3.70022 4 3.9987 3.70152 3.9987 3.33333C3.9987 2.96514 3.70022 2.66667 3.33203 2.66667C2.96384 2.66667 2.66536 2.96514 2.66536 3.33333C2.66536 3.70152 2.96384 4 3.33203 4ZM6.66536 3.33333C6.66536 3.70152 6.36689 4 5.9987 4C5.63051 4 5.33203 3.70152 5.33203 3.33333C5.33203 2.96514 5.63051 2.66667 5.9987 2.66667C6.36689 2.66667 6.66536 2.96514 6.66536 3.33333ZM8.66536 4C9.03355 4 9.33203 3.70152 9.33203 3.33333C9.33203 2.96514 9.03355 2.66667 8.66536 2.66667C8.29717 2.66667 7.9987 2.96514 7.9987 3.33333C7.9987 3.70152 8.29717 4 8.66536 4ZM10.6654 4.66667C10.6654 5.03486 10.3669 5.33333 9.9987 5.33333C9.63051 5.33333 9.33203 5.03486 9.33203 4.66667C9.33203 4.29848 9.63051 4 9.9987 4C10.3669 4 10.6654 4.29848 10.6654 4.66667ZM7.33203 5.33333C7.70022 5.33333 7.9987 5.03486 7.9987 4.66667C7.9987 4.29848 7.70022 4 7.33203 4C6.96384 4 6.66536 4.29848 6.66536 4.66667C6.66536 5.03486 6.96384 5.33333 7.33203 5.33333ZM5.33203 4.66667C5.33203 5.03486 5.03355 5.33333 4.66536 5.33333C4.29717 5.33333 3.9987 5.03486 3.9987 4.66667C3.9987 4.29848 4.29717 4 4.66536 4C5.03355 4 5.33203 4.29848 5.33203 4.66667ZM1.9987 5.33333C2.36689 5.33333 2.66536 5.03486 2.66536 4.66667C2.66536 4.29848 2.36689 4 1.9987 4C1.63051 4 1.33203 4.29848 1.33203 4.66667C1.33203 5.03486 1.63051 5.33333 1.9987 5.33333ZM3.9987 6C3.9987 6.36819 3.70022 6.66667 3.33203 6.66667C2.96384 6.66667 2.66536 6.36819 2.66536 6C2.66536 5.63181 2.96384 5.33333 3.33203 5.33333C3.70022 5.33333 3.9987 5.63181 3.9987 6ZM5.9987 6.66667C6.36689 6.66667 6.66536 6.36819 6.66536 6C6.66536 5.63181 6.36689 5.33333 5.9987 5.33333C5.63051 5.33333 5.33203 5.63181 5.33203 6C5.33203 6.36819 5.63051 6.66667 5.9987 6.66667ZM9.33203 6C9.33203 6.36819 9.03355 6.66667 8.66536 6.66667C8.29717 6.66667 7.9987 6.36819 7.9987 6C7.9987 5.63181 8.29717 5.33333 8.66536 5.33333C9.03355 5.33333 9.33203 5.63181 9.33203 6ZM9.9987 8C10.3669 8 10.6654 7.70152 10.6654 7.33333C10.6654 6.96514 10.3669 6.66667 9.9987 6.66667C9.63051 6.66667 9.33203 6.96514 9.33203 7.33333C9.33203 7.70152 9.63051 8 9.9987 8ZM7.9987 7.33333C7.9987 7.70152 7.70022 8 7.33203 8C6.96384 8 6.66536 7.70152 6.66536 7.33333C6.66536 6.96514 6.96384 6.66667 7.33203 6.66667C7.70022 6.66667 7.9987 6.96514 7.9987 7.33333ZM4.66536 8C5.03355 8 5.33203 7.70152 5.33203 7.33333C5.33203 6.96514 5.03355 6.66667 4.66536 6.66667C4.29717 6.66667 3.9987 6.96514 3.9987 7.33333C3.9987 7.70152 4.29717 8 4.66536 8ZM2.66536 7.33333C2.66536 7.70152 2.36689 8 1.9987 8C1.63051 8 1.33203 7.70152 1.33203 7.33333C1.33203 6.96514 1.63051 6.66667 1.9987 6.66667C2.36689 6.66667 2.66536 6.96514 2.66536 7.33333Z" fill="url(#paint0_linear)"/>
</g>
</g>
<defs>
<filter id="filter0_d" x="1.33203" y="1.33333" width="9.33203" height="7.66667" filterUnits="userSpaceOnUse" color-interpolation-filters="sRGB">
<feFlood flood-opacity="0" result="BackgroundImageFix"/>
<feColorMatrix in="SourceAlpha" type="matrix" values="0 0 0 0 0 0 0 0 0 0 0 0 0 0 0 0 0 0 127 0" result="hardAlpha"/>
<feOffset dy="1"/>
<feColorMatrix type="matrix" values="0 0 0 0 0 0 0 0 0 0 0 0 0 0 0 0 0 0 0.06 0"/>
<feBlend mode="normal" in2="BackgroundImageFix" result="effect1_dropShadow"/>
<feBlend mode="normal" in="SourceGraphic" in2="effect1_dropShadow" result="shape"/>
</filter>
<linearGradient id="paint0_linear" x1="1.33203" y1="1.33333" x2="1.33203" y2="8" gradientUnits="userSpaceOnUse">
<stop stop-color="white"/>
<stop offset="1" stop-color="#F0F0F0"/>
</linearGradient>
</defs>
</svg>
