<svg width="56" height="56" viewBox="0 0 56 56" fill="none" xmlns="http://www.w3.org/2000/svg">
<path fill-rule="evenodd" clip-rule="evenodd" d="M28 51.52C40.9897 51.52 51.52 40.9897 51.52 28C51.52 15.0103 40.9897 4.48001 28 4.48001C15.0103 4.48001 4.48 15.0103 4.48 28C4.48 40.9897 15.0103 51.52 28 51.52Z" fill="#F4E5FF"/>
<path fill-rule="evenodd" clip-rule="evenodd" d="M25.0864 27.4965H26.5424C26.9445 27.4965 27.2704 27.8224 27.2704 28.2245C27.2704 28.6266 26.9445 28.9525 26.5424 28.9525H25.0864V33.3205C25.0864 33.7226 24.7605 34.0485 24.3584 34.0485H21.4464C21.0444 34.0485 20.7184 33.7226 20.7184 33.3205V26.0405C20.7184 25.6384 21.0444 25.3125 21.4464 25.3125H24.3584C24.7605 25.3125 25.0864 25.6384 25.0864 26.0405V27.4965ZM22.1753 26.7686V32.5926H23.6313V28.9526C23.2292 28.9526 22.9033 28.6266 22.9033 28.2246C22.9033 27.8225 23.2292 27.4966 23.6313 27.4966V26.7686H22.1753Z" fill="#5B476B"/>
<path d="M28.7243 13.6642H27.2683C26.8662 13.6642 26.5403 13.9902 26.5403 14.3922C26.5403 14.7943 26.8662 15.1202 27.2683 15.1202H28.7243C29.1264 15.1202 29.4523 14.7943 29.4523 14.3922C29.4523 13.9902 29.1264 13.6642 28.7243 13.6642Z" fill="#5B476B"/>
<path fill-rule="evenodd" clip-rule="evenodd" d="M14.1638 48.6085H41.8278C42.2298 48.6085 42.5558 48.2825 42.5558 47.8805C42.5558 47.4784 42.2298 47.1525 41.8278 47.1525H41.0998V9.29645C41.0998 8.49233 40.4479 7.84045 39.6438 7.84045H16.3478C15.5437 7.84045 14.8918 8.49233 14.8918 9.29645V47.1525H14.1638C13.7617 47.1525 13.4358 47.4784 13.4358 47.8805C13.4358 48.2825 13.7617 48.6085 14.1638 48.6085ZM19.2589 47.1523V12.2083H36.7309V47.1523H19.2589ZM39.6433 9.29651H16.3473V47.1525H17.8033V12.2085C17.8033 11.4044 18.4552 10.7525 19.2593 10.7525H36.7313C37.5355 10.7525 38.1873 11.4044 38.1873 12.2085V47.1525H39.6433V9.29651Z" fill="#5B476B"/>
</svg>
