<svg width="32" height="33" viewBox="0 0 32 33" fill="none" xmlns="http://www.w3.org/2000/svg">
<path fill-rule="evenodd" clip-rule="evenodd" d="M15.7256 29.6661C23.1484 29.6661 29.1656 23.6488 29.1656 16.2261C29.1656 8.80343 23.1484 2.78613 15.7256 2.78613C8.30294 2.78613 2.28564 8.80343 2.28564 16.2261C2.28564 23.6488 8.30294 29.6661 15.7256 29.6661Z" fill="#F4E5FF"/>
<path d="M4.85741 27.9284H27.1559C27.3138 27.9284 27.4418 27.8004 27.4418 27.6426V13.7233C27.4418 13.5654 27.3138 13.4374 27.1559 13.4374H26.648V12.6606C26.648 12.2155 26.4596 11.8144 26.1595 11.5299C26.4628 11.3005 26.648 10.8402 26.648 10.5033V10.4471C26.648 9.58699 25.9482 8.88723 25.088 8.88723H18.0745C17.2144 8.88723 16.5146 9.58699 16.5146 10.4471V10.5033C16.5146 10.8402 16.6998 11.3005 17.003 11.5299C16.703 11.8144 16.5146 12.2155 16.5146 12.6606V13.4374H14.6447C14.6897 13.34 14.7216 13.2351 14.7322 13.1231L15.1567 9.74892H15.4184C15.5763 9.74892 15.7043 9.62091 15.7043 9.46304V7.42253C15.7043 7.26465 15.5763 7.13665 15.4184 7.13665H14.9913C15.0802 6.94171 15.1268 6.73547 15.1268 6.58513V6.53334C15.1268 5.72722 14.4709 5.07129 13.6648 5.07129H7.18994C6.38382 5.07129 5.72789 5.72722 5.72789 6.53334V6.58513C5.72789 6.73547 5.77453 6.94171 5.86343 7.13665H5.44969C5.29181 7.13665 5.16381 7.26465 5.16381 7.42253V9.46304C5.16381 9.62091 5.29181 9.74892 5.44969 9.74892H5.71138L6.13493 13.1144C6.14594 13.2299 6.17841 13.3378 6.22453 13.4374H4.85741C4.69954 13.4374 4.57153 13.5654 4.57153 13.7233V27.6426C4.57153 27.8004 4.69954 27.9284 4.85741 27.9284ZM5.14329 16.4464H15.7208V27.3567H5.14329V16.4464ZM16.2925 27.3567V16.4464H26.87V27.3567H16.2925ZM26.87 15.8746H16.2925V14.0092H26.87V15.8746ZM17.3979 11.1007C17.3027 11.1007 17.0864 10.7535 17.0864 10.5033V10.4471C17.0864 9.90233 17.5297 9.45899 18.0745 9.45899H25.088C25.6329 9.45899 26.0762 9.90233 26.0762 10.4471V10.5033C26.0762 10.7535 25.8598 11.1007 25.7646 11.1007H25.088H18.0745H17.3979ZM17.0864 12.6606C17.0864 12.1158 17.5297 11.6725 18.0745 11.6725H25.088C25.6329 11.6725 26.0762 12.1158 26.0762 12.6606V13.4374H17.0864V12.6606ZM6.29965 6.58513V6.53334C6.29965 6.04241 6.69901 5.64305 7.18994 5.64305H13.6648C14.1557 5.64305 14.5551 6.04241 14.5551 6.53334V6.58513C14.5551 6.80512 14.3749 7.11613 14.2894 7.13665H6.56841C6.47923 7.11491 6.29965 6.80476 6.29965 6.58513ZM5.73557 7.7084H6.56528H14.2894H15.1326V9.17716H5.73557V7.7084ZM6.7032 13.0516L6.28766 9.74892H14.5805L14.1639 13.0602C14.1436 13.2752 13.9652 13.4374 13.7492 13.4374H7.11889C6.90295 13.4374 6.72455 13.2752 6.7032 13.0516ZM7.11889 14.0092H13.7492H15.7208V15.8746H5.14329V14.0092H7.11889Z" fill="#5B476B"/>
<path d="M10.4318 18.9688C8.85631 18.9688 7.57446 20.2506 7.57446 21.8261C7.57446 23.4017 8.85631 24.6835 10.4318 24.6835C12.0074 24.6835 13.2892 23.4017 13.2892 21.8261C13.2892 20.2506 12.0074 18.9688 10.4318 18.9688ZM10.4318 19.5405C11.6735 19.5405 12.6849 20.5362 12.7147 21.7708C12.4825 21.8498 11.8536 21.9743 10.7557 21.569C9.61061 21.1464 8.67146 21.4374 8.15299 21.6925C8.22278 20.4945 9.21661 19.5405 10.4318 19.5405ZM10.4318 24.1118C9.33985 24.1118 8.42559 23.3416 8.20048 22.3162C8.52212 22.1175 9.41442 21.6833 10.5578 22.1053C11.5495 22.4717 12.2339 22.4599 12.6472 22.3784C12.3992 23.3723 11.5015 24.1118 10.4318 24.1118Z" fill="#5B476B"/>
<path d="M10.4319 17.2861C7.92834 17.2861 5.8916 19.3229 5.8916 21.8264C5.8916 24.3298 7.92834 26.3665 10.4319 26.3665C12.9353 26.3665 14.972 24.3298 14.972 21.8264C14.972 19.3229 12.9353 17.2861 10.4319 17.2861ZM10.4319 25.7948C8.24368 25.7948 6.46336 24.0146 6.46336 21.8264C6.46336 19.6382 8.24368 17.8579 10.4319 17.8579C12.6201 17.8579 14.4002 19.6382 14.4002 21.8264C14.4002 24.0146 12.6201 25.7948 10.4319 25.7948Z" fill="#5B476B"/>
<path d="M21.5813 18.9688C20.0057 18.9688 18.7239 20.2506 18.7239 21.8261C18.7239 23.4017 20.0057 24.6835 21.5813 24.6835C23.1568 24.6835 24.4387 23.4017 24.4387 21.8261C24.4387 20.2506 23.1568 18.9688 21.5813 18.9688ZM21.5813 24.1118C20.3209 24.1118 19.2956 23.0865 19.2956 21.8261C19.2956 20.5658 20.3209 19.5405 21.5813 19.5405C22.8416 19.5405 23.8669 20.5658 23.8669 21.8261C23.8669 23.0865 22.8416 24.1118 21.5813 24.1118Z" fill="#5B476B"/>
<path d="M21.581 17.2861C19.0775 17.2861 17.0408 19.3229 17.0408 21.8264C17.0408 24.3298 19.0775 26.3665 21.581 26.3665C24.0844 26.3665 26.1212 24.3298 26.1212 21.8264C26.1212 19.3229 24.0844 17.2861 21.581 17.2861ZM21.581 25.7948C19.3928 25.7948 17.6125 24.0146 17.6125 21.8264C17.6125 19.6382 19.3928 17.8579 21.581 17.8579C23.7692 17.8579 25.5494 19.6382 25.5494 21.8264C25.5494 24.0146 23.7692 25.7948 21.581 25.7948Z" fill="#5B476B"/>
<path d="M11.1263 10.6982H9.74169C9.58381 10.6982 9.45581 10.8262 9.45581 10.9841C9.45581 11.142 9.58381 11.27 9.74169 11.27H11.1263C11.2841 11.27 11.4122 11.142 11.4122 10.9841C11.4122 10.8262 11.2841 10.6982 11.1263 10.6982Z" fill="#5B476B"/>
<path d="M22.2602 21.0752C22.1024 21.0752 21.9744 21.2032 21.9744 21.3611V22.292C21.9744 22.4499 22.1024 22.5779 22.2602 22.5779C22.4181 22.5779 22.5461 22.4499 22.5461 22.292V21.3611C22.5461 21.2032 22.4181 21.0752 22.2602 21.0752Z" fill="#5B476B"/>
</svg>
