<svg width="64" height="64" viewBox="0 0 64 64" fill="none" xmlns="http://www.w3.org/2000/svg">
<path fill-rule="evenodd" clip-rule="evenodd" d="M32.0001 58.8801C46.8455 58.8801 58.8801 46.8455 58.8801 32.0001C58.8801 17.1547 46.8455 5.12012 32.0001 5.12012C17.1547 5.12012 5.12012 17.1547 5.12012 32.0001C5.12012 46.8455 17.1547 58.8801 32.0001 58.8801Z" fill="#F4E5FF"/>
<path fill-rule="evenodd" clip-rule="evenodd" d="M13.0596 11.8616C13.0596 10.966 13.7856 10.24 14.6812 10.24H49.5781C50.4737 10.24 51.1998 10.966 51.1998 11.8616V40.2072C51.1998 41.7104 49.9786 42.9315 48.4754 42.9315H33.0375V52.2072C33.0375 53.1028 32.3115 53.8288 31.4159 53.8288H14.6812C13.7856 53.8288 13.0596 53.1028 13.0596 52.2072V11.8616ZM14.8759 12.0563V52.0116H22.1403V12.0563H14.8759ZM45.9068 41.1144H30.3132C29.8124 41.1144 29.4054 40.7074 29.4054 40.2072V33.8515H45.7512V40.2072C45.7512 40.5251 45.8057 40.8311 45.9068 41.1144ZM40.3026 32.0343V12.0563H33.0376V32.0343H40.3026ZM23.9568 52.0116V12.0563H31.2218V32.0343H29.2106C28.315 32.0343 27.589 32.7603 27.589 33.6559V40.2071C27.589 41.7103 28.8114 42.9314 30.3133 42.9314H31.2219V52.0116H23.9568ZM47.5682 40.2071C47.5682 40.7073 47.9753 41.1143 48.4754 41.1143C48.9756 41.1143 49.3826 40.7073 49.3827 40.2071V12.0563H42.1197V32.0343H45.9466C46.8422 32.0343 47.5682 32.7603 47.5682 33.6559V40.2071Z" fill="#5B476B"/>
</svg>
