<svg width="32" height="32" viewBox="0 0 32 32" fill="none" xmlns="http://www.w3.org/2000/svg">
    <path fill-rule="evenodd" clip-rule="evenodd" d="M16.0001 29.44C23.4228 29.44 29.4401 23.4227 29.4401 16C29.4401 8.57729 23.4228 2.56 16.0001 2.56C8.57735 2.56 2.56006 8.57729 2.56006 16C2.56006 23.4227 8.57735 29.44 16.0001 29.44Z" fill="#F4E5FF"/>
    <path fill-rule="evenodd" clip-rule="evenodd" d="M6.52979 6.74165C6.52979 5.84605 7.25581 5.12003 8.1514 5.12003H23.9783C24.8739 5.12003 25.5999 5.84605 25.5999 6.74165V20.1036C25.5999 20.8552 24.9893 21.4658 24.2377 21.4658H16.5188V25.2928C16.5188 26.1884 15.7928 26.9144 14.8972 26.9144H8.15141C7.25581 26.9144 6.52979 26.1884 6.52979 25.2928V6.74165ZM7.43796 6.0282V26.0058H11.0702V6.0282H7.43796ZM22.9534 20.5572H15.1566C14.9062 20.5572 14.7027 20.3537 14.7027 20.1036V16.9258H22.8756V20.1036C22.8756 20.2626 22.9028 20.4156 22.9534 20.5572ZM20.1513 16.0172V6.0282H16.5188V16.0172H20.1513ZM11.9784 26.0058V6.0282H15.6109V16.0172H15.4161C14.5205 16.0172 13.7945 16.7432 13.7945 17.6388V20.1036C13.7945 20.8552 14.4057 21.4658 15.1567 21.4658H15.6109V26.0058H11.9784ZM23.7841 20.1036C23.7841 20.3537 23.9876 20.5572 24.2377 20.5572C24.4878 20.5572 24.6913 20.3537 24.6914 20.1036V6.0282H21.0598V16.0172H22.1625C23.0581 16.0172 23.7841 16.7432 23.7841 17.6388V20.1036Z" fill="#5B476B"/>
</svg>
