<svg width="49" height="48" viewBox="0 0 49 48" fill="none" xmlns="http://www.w3.org/2000/svg">
<path fill-rule="evenodd" clip-rule="evenodd" d="M24.4998 44.1598C35.6339 44.1598 44.6598 35.1339 44.6598 23.9998C44.6598 12.8658 35.6339 3.83984 24.4998 3.83984C13.3658 3.83984 4.33984 12.8658 4.33984 23.9998C4.33984 35.1339 13.3658 44.1598 24.4998 44.1598Z" fill="#F4E5FF"/>
<path fill-rule="evenodd" clip-rule="evenodd" d="M33.708 27.5131C33.422 25.8535 32.7787 24.3353 32.1353 22.9582C30.2052 18.7565 27.8818 14.9432 25.5943 11.4123L25.3083 10.918C24.9152 10.3178 24.4505 10 23.9144 10C23.128 10 22.6276 10.7062 22.4846 10.918C22.4846 10.918 22.4846 10.918 22.4846 10.9533L21.9842 11.7301C21.0906 13.1425 20.1613 14.6254 19.2677 16.1084C17.8738 18.4387 16.1223 21.5459 14.8356 24.8649C14.4067 25.9595 14.0135 27.054 13.9777 28.2545C13.8348 31.3617 14.9786 33.9745 17.3376 36.0224C19.1605 37.6113 21.4838 38.494 23.8786 38.494C27.3814 38.494 30.5626 36.7286 32.3855 33.7274C33.6008 31.7501 34.0654 29.6316 33.708 27.5131ZM31.242 33.0564C29.6693 35.6692 26.9171 37.1875 23.8789 37.1875C21.8058 37.1875 19.7685 36.446 18.1958 35.069C16.1584 33.3035 15.1576 31.0085 15.2648 28.325C15.3006 27.3364 15.6223 26.3831 16.0512 25.3591C17.3022 22.1107 19.0179 19.0742 20.3761 16.7791C21.2339 15.3315 22.1633 13.8485 23.0926 12.4362L23.5572 11.6947C23.5572 11.6594 23.593 11.6594 23.593 11.6241C23.6645 11.5182 23.8074 11.3416 23.8789 11.3063C23.8789 11.3063 23.9862 11.3416 24.1649 11.6241L24.4508 12.0831C26.6669 15.5433 28.9902 19.3213 30.8846 23.4524C31.4922 24.7942 32.0999 26.2065 32.3501 27.6895C32.7075 29.5255 32.3143 31.3263 31.242 33.0564ZM24.5223 33.8332C24.5223 34.1863 24.2364 34.4688 23.8789 34.4688C20.6263 34.4688 18.0171 31.8559 18.0171 28.6782C18.0171 28.3251 18.303 28.0426 18.6604 28.0426C19.0179 28.0426 19.3038 28.3251 19.3038 28.6782C19.3396 31.1498 21.3769 33.1623 23.8789 33.1623C24.2364 33.1623 24.5223 33.4801 24.5223 33.8332Z" fill="#5B476B"/>
</svg>
