<svg width="400" height="371" viewBox="0 0 400 371" fill="none" xmlns="http://www.w3.org/2000/svg">
<path d="M107.668 32.689C79.3719 46.1773 92.1874 78.1203 50.0902 118.485C44.8725 123.486 29.6885 128.832 17.4428 144.703C17.4428 144.703 9.63714 154.854 4.97747 167.158C-11.4056 210.153 16.9976 264.349 27.6882 284.7C41.7799 311.576 49.277 324.762 62.5555 333.889C94.1344 355.556 122.757 337.474 208.074 326.683C295.491 315.624 309.88 328.988 340.444 307.209C378.19 280.321 402.438 227.031 387.931 201.951C379.977 188.19 366.105 192.866 359.106 179.958C342.961 150.179 408.249 108.54 399.12 63.1326C391.439 24.9077 334.65 -6.13441 290.95 1.03646C255.121 6.91538 254.967 34.0639 215.701 43.0542C164.837 54.6816 142.69 16.0123 107.668 32.689Z" fill="url(#paint0_linear)" fill-opacity="0.4"/>
<g opacity="0.1">
<path opacity="0.1" d="M90.4064 359.231C109.116 359.231 124.282 356.949 124.282 354.134C124.282 351.319 109.116 349.037 90.4064 349.037C71.6971 349.037 56.5303 351.319 56.5303 354.134C56.5303 356.949 71.6971 359.231 90.4064 359.231Z" fill="#1A1552"/>
</g>
<g opacity="0.1">
<path opacity="0.1" d="M285.092 359.011C311.545 359.011 332.989 356.729 332.989 353.914C332.989 351.1 311.545 348.818 285.092 348.818C258.639 348.818 237.195 351.1 237.195 353.914C237.195 356.729 258.639 359.011 285.092 359.011Z" fill="#1A1552"/>
</g>
<g opacity="0.3">
<path opacity="0.3" d="M205.236 320.478C241.169 320.478 270.299 315.8 270.299 310.03C270.299 304.259 241.169 299.581 205.236 299.581C169.303 299.581 140.173 304.259 140.173 310.03C140.173 315.8 169.303 320.478 205.236 320.478Z" fill="#1A1552"/>
</g>
<g opacity="0.3">
<path opacity="0.3" d="M95.5649 304.5C125.506 304.5 149.777 302.091 149.777 299.119C149.777 296.147 125.506 293.738 95.5649 293.738C65.6242 293.738 41.3525 296.147 41.3525 299.119C41.3525 302.091 65.6242 304.5 95.5649 304.5Z" fill="#1A1552"/>
</g>
<g opacity="0.8">
<path opacity="0.8" d="M257.193 242.037L257.318 241.219L258.048 241.326L257.935 242.144L257.193 242.037ZM261.229 242.523L261.307 241.699C262.387 241.794 263.491 241.865 264.577 241.907L264.548 242.731C263.443 242.689 262.328 242.618 261.229 242.523ZM267.866 242.772V241.948C268.946 241.948 270.05 241.895 271.142 241.824L271.19 242.648C270.074 242.719 268.958 242.76 267.866 242.772ZM274.484 242.363L274.395 241.545C275.47 241.427 276.562 241.279 277.642 241.107L277.773 241.919C276.68 242.096 275.576 242.245 274.466 242.363H274.484ZM281.014 241.32L280.847 240.514C281.91 240.295 282.984 240.046 284.041 239.773L284.249 240.573C283.204 240.846 282.118 241.095 281.037 241.32H281.014ZM287.442 239.673L287.199 238.884C288.238 238.57 289.288 238.221 290.315 237.859L290.594 238.635C289.579 239.003 288.517 239.353 287.466 239.673H287.442ZM293.693 237.45L293.384 236.692C294.387 236.283 295.402 235.844 296.394 235.388L296.738 236.135C295.758 236.597 294.731 237.041 293.716 237.45H293.693ZM299.718 234.683L299.397 233.983C300.359 233.485 301.326 232.958 302.276 232.419L302.686 233.136C301.7 233.651 300.721 234.185 299.741 234.683H299.718ZM305.475 231.393L305.03 230.7C305.95 230.107 306.87 229.515 307.761 228.887L308.236 229.562C307.357 230.19 306.425 230.807 305.499 231.393H305.475ZM310.913 227.601L310.408 226.949C311.275 226.285 312.136 225.592 312.967 224.886L313.501 225.52C312.682 226.226 311.815 226.931 310.936 227.601H310.913ZM316.018 223.316L315.46 222.723C316.255 221.982 317.045 221.212 317.834 220.43L318.428 221.022C317.614 221.787 316.813 222.563 316.018 223.316ZM320.654 218.575L320.06 218.03C320.784 217.206 321.49 216.358 322.161 215.511L322.808 216.026C322.096 216.868 321.36 217.727 320.642 218.575H320.654ZM324.809 213.366L324.132 212.891C324.767 211.997 325.378 211.078 325.954 210.165L326.655 210.604C326.031 211.517 325.408 212.447 324.767 213.354L324.809 213.366ZM328.335 207.736L327.61 207.338C328.133 206.378 328.631 205.401 329.088 204.423L329.836 204.772C329.332 205.756 328.821 206.752 328.293 207.724L328.335 207.736ZM331.154 201.72L330.388 201.418C330.786 200.405 331.154 199.368 331.487 198.348L332.27 198.597C331.896 199.611 331.522 200.677 331.113 201.708L331.154 201.72ZM333.172 195.397L332.371 195.201C332.626 194.146 332.852 193.068 333.03 192.007L333.849 192.143C333.623 193.216 333.392 194.306 333.131 195.385L333.172 195.397ZM333.463 188.765C333.564 187.687 333.629 186.59 333.653 185.506H334.478C334.478 186.608 334.389 187.728 334.282 188.831L333.463 188.765ZM333.594 182.246C333.534 181.162 333.433 180.065 333.291 178.993L334.11 178.886C334.253 179.983 334.359 181.097 334.419 182.199L333.594 182.246ZM332.745 175.775C332.525 174.72 332.258 173.647 331.961 172.598L332.751 172.373C333.059 173.44 333.344 174.53 333.552 175.603L332.745 175.775ZM330.964 169.493C330.768 168.954 330.555 168.408 330.371 167.875C330.187 167.342 329.979 166.921 329.777 166.447L330.543 166.127C330.739 166.601 330.94 167.081 331.136 167.567C331.332 168.053 331.57 168.663 331.766 169.208L330.964 169.493ZM328.43 163.436C327.972 162.441 327.492 161.445 327.011 160.473L327.747 160.1C328.234 161.078 328.714 162.085 329.177 163.063L328.43 163.436ZM325.462 157.569C324.933 156.597 324.381 155.643 323.829 154.724L324.536 154.298C325.094 155.228 325.652 156.194 326.186 157.172L325.462 157.569ZM322.078 151.951C321.485 151.026 320.832 150.126 320.196 149.26L320.867 148.774C321.508 149.646 322.143 150.552 322.767 151.495L322.078 151.951ZM318.19 146.677C317.496 145.823 316.771 144.993 316.047 144.199L316.641 143.642C317.377 144.448 318.113 145.29 318.819 146.155L318.19 146.677ZM313.762 141.852C312.978 141.094 312.159 140.353 311.34 139.654L311.874 139.026C312.711 139.737 313.536 140.489 314.338 141.26L313.762 141.852ZM248.693 128.032L248.586 127.214C249.69 127.068 250.784 126.928 251.868 126.794L251.963 127.612C250.891 127.742 249.801 127.882 248.693 128.032ZM308.758 137.591C307.885 136.94 306.977 136.305 306.075 135.719L306.52 135.014C307.44 135.606 308.36 136.258 309.245 136.916L308.758 137.591ZM255.24 127.244L255.157 126.426C256.261 126.308 257.371 126.207 258.451 126.118L258.523 126.942C257.448 127.031 256.344 127.131 255.24 127.244ZM303.273 134.024C302.329 133.496 301.356 132.987 300.371 132.513L300.727 131.772C301.73 132.252 302.721 132.767 303.695 133.307L303.273 134.024ZM261.805 126.717L261.758 125.893C262.868 125.822 263.984 125.768 265.064 125.727L265.1 126.551C264.019 126.58 262.915 126.634 261.805 126.717ZM268.388 126.474V125.65C269.504 125.65 270.62 125.65 271.7 125.65V126.474C270.602 126.456 269.498 126.45 268.388 126.462V126.474ZM297.373 131.215C296.376 130.806 295.343 130.427 294.298 130.071L294.565 129.295C295.622 129.65 296.673 130.041 297.682 130.45L297.373 131.215ZM274.965 126.616L275.012 125.792C276.122 125.851 277.238 125.928 278.319 126.023L278.248 126.847C277.173 126.717 276.075 126.651 274.965 126.592V126.616ZM291.17 129.111C290.131 128.826 289.063 128.56 287.982 128.317L288.166 127.517C289.253 127.754 290.339 128.026 291.39 128.317L291.17 129.111ZM281.512 127.197L281.619 126.379C282.575 126.503 283.53 126.64 284.451 126.794L284.89 126.865L284.747 127.677L284.314 127.606C283.406 127.434 282.462 127.309 281.512 127.173V127.197Z" fill="#744DDB"/>
<path opacity="0.8" d="M116.359 268.95C115.557 268.95 114.738 268.95 113.931 268.884L113.972 268.061C115.064 268.114 116.169 268.132 117.243 268.114V268.938L116.359 268.95ZM120.591 268.748L120.514 267.93C121.606 267.83 122.692 267.681 123.755 267.498L123.897 268.31C122.817 268.487 121.701 268.635 120.591 268.736V268.748ZM110.636 268.594C109.55 268.464 108.44 268.298 107.342 268.102L107.49 267.29C108.571 267.486 109.663 267.646 110.731 267.776L110.636 268.594ZM127.18 267.587L126.972 266.792C128.028 266.514 129.079 266.2 130.094 265.826L130.367 266.603C129.311 266.976 128.236 267.308 127.156 267.587H127.18ZM104.089 267.409C103.021 267.148 101.946 266.852 100.884 266.526L101.121 265.738C102.172 266.058 103.234 266.33 104.285 266.603L104.089 267.409ZM97.7258 265.465C96.6929 265.086 95.6541 264.671 94.6391 264.232L94.9656 263.474C95.9687 263.906 96.9956 264.315 98.0107 264.659L97.7258 265.465ZM133.46 265.34L133.11 264.594C134.095 264.137 135.068 263.628 136.006 263.088L136.416 263.8C135.436 264.357 134.439 264.872 133.436 265.34H133.46ZM91.6178 262.84C90.6265 262.354 89.6352 261.832 88.6498 261.293L89.0535 260.57C90.0091 261.103 90.9885 261.619 91.962 262.099L91.6178 262.84ZM139.224 261.998L138.749 261.322C139.621 260.73 140.494 260.03 141.325 259.325L141.859 259.953C140.981 260.653 140.096 261.364 139.2 261.998H139.224ZM85.8006 259.592C84.8686 258.999 83.9367 258.407 83.0285 257.749L83.5093 257.079C84.3997 257.672 85.3198 258.318 86.2399 258.893L85.8006 259.592ZM144.293 257.69L143.699 257.097C144.453 256.344 145.201 255.538 145.919 254.726L146.548 255.266C145.83 256.107 145.064 256.931 144.293 257.69ZM80.3633 255.769C79.4907 255.094 78.6241 254.377 77.799 253.66L78.3392 253.037C79.1583 253.749 80.0131 254.448 80.8679 255.123L80.3633 255.769ZM148.626 252.664L147.967 252.172C148.608 251.307 149.237 250.394 149.837 249.482L150.531 249.932C149.932 250.868 149.297 251.763 148.626 252.664ZM75.3178 251.414C74.5224 250.643 73.7389 249.843 72.991 249.043L73.5845 248.486C74.3206 249.28 75.0923 250.068 75.8758 250.827L75.3178 251.414ZM152.259 247.093L151.54 246.684C152.069 245.754 152.591 244.776 153.084 243.786L153.82 244.16C153.333 245.161 152.781 246.145 152.271 247.093H152.259ZM70.8006 246.542C70.0942 245.683 69.4057 244.806 68.7587 243.923L69.4235 243.437C70.0646 244.302 70.7412 245.173 71.4417 246.015L70.8006 246.542ZM66.8711 241.208C66.2775 240.272 65.6839 239.318 65.1556 238.364L65.8738 237.961C66.4021 238.897 66.972 239.839 67.5656 240.758L66.8711 241.208ZM155.227 241.167L154.473 240.835C154.906 239.845 155.322 238.826 155.713 237.795L156.485 238.091C156.099 239.11 155.678 240.148 155.239 241.149L155.227 241.167ZM63.6182 235.418C63.1374 234.417 62.6863 233.392 62.2767 232.372L63.0424 232.064C63.4461 233.066 63.8912 234.073 64.3602 235.027L63.6182 235.418ZM157.601 234.962L156.817 234.701C157.162 233.67 157.488 232.615 157.791 231.56L158.586 231.791C158.29 232.834 157.963 233.901 157.613 234.944L157.601 234.962ZM61.1608 229.243C60.8224 228.182 60.5137 227.104 60.2525 226.043L61.0539 225.841C61.3091 226.89 61.6118 227.951 61.9443 228.988L61.1608 229.243ZM159.441 228.579L158.64 228.384C158.901 227.305 159.132 226.221 159.34 225.172L160.147 225.332C159.94 226.375 159.702 227.465 159.441 228.562V228.579ZM59.5877 222.76C59.4037 221.669 59.2553 220.561 59.1544 219.465L59.9736 219.388C60.0804 220.466 60.2229 221.557 60.4009 222.623L59.5877 222.76ZM58.9941 216.14C58.9941 215.909 58.9941 215.672 58.9941 215.441C58.9941 214.575 58.9941 213.663 59.0713 212.809L59.8964 212.863C59.843 213.722 59.8192 214.587 59.8192 215.441C59.8192 215.672 59.8192 215.897 59.8192 216.128L58.9941 216.14ZM60.1813 209.621L59.3622 209.514C59.5106 208.43 59.6946 207.322 59.9201 206.231L60.7274 206.397C60.4959 207.452 60.3119 208.536 60.1813 209.603V209.621ZM61.4932 203.215L60.6977 202.995C60.9886 201.935 61.2913 200.868 61.6831 199.819L62.4666 200.086C62.0986 201.099 61.7662 202.154 61.4813 203.197L61.4932 203.215ZM63.636 197.028L62.8762 196.713C63.2976 195.7 63.7606 194.681 64.2533 193.685L64.9953 194.047C64.5026 195.013 64.0456 196.014 63.6241 197.01L63.636 197.028ZM66.5327 191.149L65.8145 190.746C66.3606 189.786 66.9423 188.831 67.5418 187.901L68.2363 188.351C67.6309 189.246 67.0551 190.189 66.5208 191.131L66.5327 191.149ZM70.0942 185.655L69.4294 185.169C70.0824 184.28 70.7709 183.391 71.4773 182.55L72.1124 183.077C71.4179 183.895 70.7353 184.796 70.0942 185.637V185.655ZM74.2494 180.618L73.6558 180.055C74.4156 179.249 75.1991 178.454 76.0005 177.684L76.594 178.277C75.7986 179.017 75.021 179.806 74.279 180.6L74.2494 180.618ZM78.9981 176.102L78.4638 175.473C79.3067 174.756 80.1852 174.063 81.0697 173.405L81.5624 174.063C80.7195 174.721 79.8588 175.379 79.0277 176.084L78.9981 176.102ZM84.2513 172.184L83.8002 171.497C84.7202 170.904 85.6759 170.312 86.6375 169.766L87.0471 170.478C86.133 170.999 85.1892 171.574 84.281 172.167L84.2513 172.184ZM89.9498 168.955L89.5877 168.214C90.5849 167.734 91.6059 167.277 92.6268 166.863L92.9415 167.627C91.962 168.012 90.9589 168.463 89.9795 168.937L89.9498 168.955ZM96.0162 166.495L95.7551 165.713C96.8116 165.363 97.8861 165.049 98.9604 164.776L99.1622 165.577C98.171 165.831 97.0788 166.134 96.0459 166.477L96.0162 166.495ZM125.025 166.282C123.974 165.962 122.912 165.689 121.861 165.428L122.051 164.628C123.119 164.877 124.2 165.174 125.262 165.494L125.025 166.282ZM102.362 164.877L102.207 164.065L102.997 163.929C103.828 163.787 104.671 163.674 105.508 163.579L105.597 164.397C104.778 164.492 103.947 164.605 103.133 164.741L102.362 164.877ZM118.65 164.782C117.569 164.599 116.477 164.456 115.403 164.35L115.486 163.526C116.578 163.639 117.688 163.787 118.786 163.97L118.65 164.782ZM108.861 164.154L108.826 163.33C109.93 163.283 111.064 163.277 112.162 163.33V164.154C111.087 164.089 109.977 164.089 108.891 164.136L108.861 164.154Z" fill="#744DDB"/>
<path opacity="0.8" d="M287.336 187.704C291.182 192.386 291.313 198.697 289.022 201.335C286.831 203.847 283.822 201.394 281.382 203.575C277.554 207 282.89 214.912 279.916 219.665C276.841 224.572 269.439 218.877 263.598 222.818C256.44 227.654 262.886 239.37 256.635 245.877C250.646 252.1 234.857 251.643 226.125 240.923C218.408 231.44 218.794 217.152 224.695 212.156C231.592 206.319 242.995 215.742 248.735 209.365C253.887 203.64 247.399 193.044 253.068 189.435C257.817 186.418 263.806 192.902 270.229 189.358C274.443 187.029 274.194 182.933 278.474 182.904C281.424 182.874 284.95 184.794 287.336 187.704Z" fill="#573AA4"/>
<g opacity="0.8">
<path opacity="0.8" d="M215.518 193.576H215.482V255.583H215.518V193.576Z" fill="#381A96"/>
<path opacity="0.8" d="M217.258 193.577H215.519V255.584H217.258V193.577Z" fill="#381A96"/>
<path opacity="0.8" d="M218.99 193.576H217.257V255.583H218.99V193.576Z" fill="#381A95"/>
<path opacity="0.8" d="M220.724 193.576H218.99V255.583H220.724V193.576Z" fill="#381994"/>
<path opacity="0.8" d="M222.463 193.576H220.729V255.583H222.463V193.576Z" fill="#381993"/>
<path opacity="0.8" d="M224.202 193.576H222.463V255.583H224.202V193.576Z" fill="#381992"/>
<path opacity="0.8" d="M225.935 193.576H224.202V255.583H225.935V193.576Z" fill="#381891"/>
<path opacity="0.8" d="M227.669 193.576H225.936V255.583H227.669V193.576Z" fill="#381890"/>
<path opacity="0.8" d="M229.414 193.576H227.675V255.583H229.414V193.576Z" fill="#37188F"/>
<path opacity="0.8" d="M231.141 193.576H229.408V255.583H231.141V193.576Z" fill="#37178E"/>
<path opacity="0.8" d="M232.881 193.576H231.147V255.583H232.881V193.576Z" fill="#37178D"/>
<path opacity="0.8" d="M234.614 193.576H232.881V255.583H234.614V193.576Z" fill="#37178C"/>
<path opacity="0.8" d="M236.358 193.576H234.619V255.583H236.358V193.576Z" fill="#37168B"/>
<path opacity="0.8" d="M238.086 193.576H236.353V255.583H238.086V193.576Z" fill="#37168A"/>
<path opacity="0.8" d="M239.825 193.576H238.092V255.583H239.825V193.576Z" fill="#371689"/>
<path opacity="0.8" d="M241.564 193.576H239.825V255.583H241.564V193.576Z" fill="#371588"/>
<path opacity="0.8" d="M243.298 193.576H241.564V255.583H243.298V193.576Z" fill="#371587"/>
<path opacity="0.8" d="M245.037 193.576H243.298V255.583H245.037V193.576Z" fill="#371586"/>
<path opacity="0.8" d="M246.77 193.576H245.037V255.583H246.77V193.576Z" fill="#371485"/>
<path opacity="0.8" d="M248.51 193.576H246.771V255.583H248.51V193.576Z" fill="#371484"/>
<path opacity="0.8" d="M250.243 193.576H248.51V255.583H250.243V193.576Z" fill="#361482"/>
<path opacity="0.8" d="M251.976 193.576H250.243V255.583H251.976V193.576Z" fill="#361381"/>
<path opacity="0.8" d="M253.722 193.576H251.982V255.583H253.722V193.576Z" fill="#361380"/>
<path opacity="0.8" d="M255.449 193.576H253.716V255.583H255.449V193.576Z" fill="#36137F"/>
<path opacity="0.8" d="M257.194 193.576H255.455V255.583H257.194V193.576Z" fill="#36127E"/>
<path opacity="0.8" d="M258.921 193.576H257.188V255.583H258.921V193.576Z" fill="#36127D"/>
<path opacity="0.8" d="M260.666 193.576H258.927V255.583H260.666V193.576Z" fill="#36127C"/>
<path opacity="0.8" d="M262.399 193.576H260.66V255.583H262.399V193.576Z" fill="#36117B"/>
<path opacity="0.8" d="M264.133 193.576H262.399V255.583H264.133V193.576Z" fill="#36117A"/>
<path opacity="0.8" d="M265.872 193.576H264.133V255.583H265.872V193.576Z" fill="#361179"/>
<path opacity="0.8" d="M267.605 193.576H265.872V255.583H267.605V193.576Z" fill="#361078"/>
<path opacity="0.8" d="M269.345 193.576H267.605V255.583H269.345V193.576Z" fill="#361077"/>
<path opacity="0.8" d="M271.078 193.576H269.345V255.583H271.078V193.576Z" fill="#351076"/>
<path opacity="0.8" d="M272.811 193.576H271.078V255.583H272.811V193.576Z" fill="#350F75"/>
<path opacity="0.8" d="M274.557 193.576H272.817V255.583H274.557V193.576Z" fill="#350F74"/>
<path opacity="0.8" d="M276.284 193.576H274.551V255.583H276.284V193.576Z" fill="#350F73"/>
<path opacity="0.8" d="M278.022 193.576H276.289V255.583H278.022V193.576Z" fill="#350E72"/>
<path opacity="0.8" d="M279.756 193.576H278.022V255.583H279.756V193.576Z" fill="#350E71"/>
<path opacity="0.8" d="M279.827 193.576H279.762V255.583H279.827V193.576Z" fill="#350E71"/>
</g>
<path opacity="0.8" d="M120.793 213.04C119.743 217.875 122.325 223.257 125.376 224.217C128.64 225.248 132.137 223.559 134.921 224.507C139.426 226.042 136.232 236.413 140.678 238.043C143.759 239.169 147.172 235.672 151.482 236.093C156.634 236.603 155.637 242.973 161.08 245.617C167.663 248.799 180.395 242.446 183.15 229.995C185.387 219.867 180.496 208.138 174.513 206.485C167.918 204.666 163.727 211.149 157.803 208.743C151.879 206.337 151.731 198.004 147.279 197.548C143.439 197.151 141.266 203.937 134.998 204.802C131.133 205.335 130.213 204.838 126.397 206.23C124.976 206.822 123.723 207.751 122.746 208.939C121.769 210.126 121.099 211.534 120.793 213.04Z" fill="#744DDB"/>
<g opacity="0.8">
<path opacity="0.8" d="M140.334 215.98H140.263V234.696H140.334V215.98Z" fill="#381A96"/>
<path opacity="0.8" d="M141.835 215.978H140.333V234.693H141.835V215.978Z" fill="#381A96"/>
<path opacity="0.8" d="M143.338 215.978H141.836V234.693H143.338V215.978Z" fill="#381A95"/>
<path opacity="0.8" d="M144.84 215.978H143.338V234.693H144.84V215.978Z" fill="#381994"/>
<path opacity="0.8" d="M146.342 215.978H144.84V234.693H146.342V215.978Z" fill="#381993"/>
<path opacity="0.8" d="M147.843 215.978H146.341V234.693H147.843V215.978Z" fill="#381992"/>
<path opacity="0.8" d="M149.345 215.978H147.843V234.693H149.345V215.978Z" fill="#381891"/>
<path opacity="0.8" d="M150.846 215.978H149.345V234.693H150.846V215.978Z" fill="#381890"/>
<path opacity="0.8" d="M152.348 215.978H150.847V234.693H152.348V215.978Z" fill="#37188F"/>
<path opacity="0.8" d="M153.85 215.978H152.349V234.693H153.85V215.978Z" fill="#37178E"/>
<path opacity="0.8" d="M155.351 215.978H153.85V234.693H155.351V215.978Z" fill="#37178D"/>
<path opacity="0.8" d="M156.859 215.978H155.357V234.693H156.859V215.978Z" fill="#37178C"/>
<path opacity="0.8" d="M158.361 215.978H156.859V234.693H158.361V215.978Z" fill="#37168B"/>
<path opacity="0.8" d="M159.863 215.978H158.361V234.693H159.863V215.978Z" fill="#37168A"/>
<path opacity="0.8" d="M161.365 215.978H159.863V234.693H161.365V215.978Z" fill="#371689"/>
<path opacity="0.8" d="M162.867 215.978H161.365V234.693H162.867V215.978Z" fill="#371588"/>
<path opacity="0.8" d="M164.369 215.978H162.867V234.693H164.369V215.978Z" fill="#371587"/>
<path opacity="0.8" d="M165.87 215.978H164.368V234.693H165.87V215.978Z" fill="#371586"/>
<path opacity="0.8" d="M167.372 215.978H165.87V234.693H167.372V215.978Z" fill="#371485"/>
<path opacity="0.8" d="M168.874 215.978H167.372V234.693H168.874V215.978Z" fill="#371484"/>
<path opacity="0.8" d="M170.376 215.978H168.874V234.693H170.376V215.978Z" fill="#361482"/>
<path opacity="0.8" d="M171.884 215.978H170.382V234.693H171.884V215.978Z" fill="#361381"/>
<path opacity="0.8" d="M173.385 215.978H171.883V234.693H173.385V215.978Z" fill="#361380"/>
<path opacity="0.8" d="M174.887 215.978H173.385V234.693H174.887V215.978Z" fill="#36137F"/>
<path opacity="0.8" d="M176.389 215.978H174.887V234.693H176.389V215.978Z" fill="#36127E"/>
<path opacity="0.8" d="M177.89 215.978H176.389V234.693H177.89V215.978Z" fill="#36127D"/>
<path opacity="0.8" d="M179.392 215.978H177.891V234.693H179.392V215.978Z" fill="#36127C"/>
<path opacity="0.8" d="M180.894 215.978H179.393V234.693H180.894V215.978Z" fill="#36117B"/>
<path opacity="0.8" d="M182.395 215.978H180.894V234.693H182.395V215.978Z" fill="#36117A"/>
<path opacity="0.8" d="M183.897 215.978H182.396V234.693H183.897V215.978Z" fill="#361179"/>
<path opacity="0.8" d="M185.399 215.978H183.897V234.693H185.399V215.978Z" fill="#361078"/>
<path opacity="0.8" d="M186.901 215.978H185.399V234.693H186.901V215.978Z" fill="#361077"/>
<path opacity="0.8" d="M188.409 215.978H186.907V234.693H188.409V215.978Z" fill="#351076"/>
<path opacity="0.8" d="M189.91 215.978H188.408V234.693H189.91V215.978Z" fill="#350F75"/>
<path opacity="0.8" d="M191.412 215.978H189.91V234.693H191.412V215.978Z" fill="#350F74"/>
<path opacity="0.8" d="M192.914 215.978H191.412V234.693H192.914V215.978Z" fill="#350F73"/>
<path opacity="0.8" d="M194.416 215.978H192.914V234.693H194.416V215.978Z" fill="#350E72"/>
<path opacity="0.8" d="M195.918 215.978H194.416V234.693H195.918V215.978Z" fill="#350E71"/>
<path opacity="0.8" d="M195.942 215.978H195.918V234.693H195.942V215.978Z" fill="#350E71"/>
</g>
<path opacity="0.8" d="M255.549 118.686C255.549 118.686 268.447 149.314 257.05 164.319C245.653 179.325 233.265 182.382 233.265 182.382C233.265 182.382 224.688 165.137 231.485 147.672C238.281 130.207 244.128 127.119 244.128 127.119L246.835 131.375L248.859 122.331C248.859 122.331 250.901 119.842 255.549 118.686Z" fill="#744DDB"/>
<g opacity="0.8">
<path opacity="0.8" d="M228.451 118.152H228.428V182.862H228.451V118.152Z" fill="#381A96"/>
<path opacity="0.8" d="M229.36 118.154H228.452V182.863H229.36V118.154Z" fill="#381A96"/>
<path opacity="0.8" d="M230.268 118.153H229.359V182.862H230.268V118.153Z" fill="#381A95"/>
<path opacity="0.8" d="M231.176 118.153H230.268V182.862H231.176V118.153Z" fill="#381994"/>
<path opacity="0.8" d="M232.078 118.153H231.17V182.862H232.078V118.153Z" fill="#381993"/>
<path opacity="0.8" d="M232.986 118.153H232.078V182.862H232.986V118.153Z" fill="#381992"/>
<path opacity="0.8" d="M233.889 118.153H232.98V182.862H233.889V118.153Z" fill="#381891"/>
<path opacity="0.8" d="M234.797 118.153H233.889V182.862H234.797V118.153Z" fill="#381890"/>
<path opacity="0.8" d="M235.699 118.153H234.791V182.862H235.699V118.153Z" fill="#37188F"/>
<path opacity="0.8" d="M236.607 118.153H235.699V182.862H236.607V118.153Z" fill="#37178E"/>
<path opacity="0.8" d="M237.516 118.153H236.607V182.862H237.516V118.153Z" fill="#37178D"/>
<path opacity="0.8" d="M238.418 118.153H237.51V182.862H238.418V118.153Z" fill="#37178C"/>
<path opacity="0.8" d="M239.326 118.153H238.418V182.862H239.326V118.153Z" fill="#37168B"/>
<path opacity="0.8" d="M240.229 118.153H239.32V182.862H240.229V118.153Z" fill="#37168A"/>
<path opacity="0.8" d="M241.137 118.153H240.229V182.862H241.137V118.153Z" fill="#371689"/>
<path opacity="0.8" d="M242.039 118.153H241.131V182.862H242.039V118.153Z" fill="#371588"/>
<path opacity="0.8" d="M242.947 118.153H242.039V182.862H242.947V118.153Z" fill="#371587"/>
<path opacity="0.8" d="M243.855 118.153H242.947V182.862H243.855V118.153Z" fill="#371586"/>
<path opacity="0.8" d="M244.758 118.153H243.85V182.862H244.758V118.153Z" fill="#371485"/>
<path opacity="0.8" d="M245.666 118.153H244.758V182.862H245.666V118.153Z" fill="#371484"/>
<path opacity="0.8" d="M246.567 118.153H245.659V182.862H246.567V118.153Z" fill="#361482"/>
<path opacity="0.8" d="M247.477 118.153H246.568V182.862H247.477V118.153Z" fill="#361381"/>
<path opacity="0.8" d="M248.384 118.153H247.476V182.862H248.384V118.153Z" fill="#361380"/>
<path opacity="0.8" d="M249.286 118.153H248.378V182.862H249.286V118.153Z" fill="#36137F"/>
<path opacity="0.8" d="M250.194 118.153H249.286V182.862H250.194V118.153Z" fill="#36127E"/>
<path opacity="0.8" d="M251.097 118.153H250.188V182.862H251.097V118.153Z" fill="#36127D"/>
<path opacity="0.8" d="M252.005 118.153H251.097V182.862H252.005V118.153Z" fill="#36127C"/>
<path opacity="0.8" d="M252.907 118.153H251.999V182.862H252.907V118.153Z" fill="#36117B"/>
<path opacity="0.8" d="M253.815 118.153H252.907V182.862H253.815V118.153Z" fill="#36117A"/>
<path opacity="0.8" d="M254.724 118.153H253.815V182.862H254.724V118.153Z" fill="#361179"/>
<path opacity="0.8" d="M255.626 118.153H254.718V182.862H255.626V118.153Z" fill="#361078"/>
<path opacity="0.8" d="M256.534 118.153H255.626V182.862H256.534V118.153Z" fill="#361077"/>
<path opacity="0.8" d="M257.437 118.153H256.528V182.862H257.437V118.153Z" fill="#351076"/>
<path opacity="0.8" d="M258.345 118.153H257.437V182.862H258.345V118.153Z" fill="#350F75"/>
<path opacity="0.8" d="M259.253 118.153H258.345V182.862H259.253V118.153Z" fill="#350F74"/>
<path opacity="0.8" d="M260.155 118.153H259.247V182.862H260.155V118.153Z" fill="#350F73"/>
<path opacity="0.8" d="M261.063 118.153H260.155V182.862H261.063V118.153Z" fill="#350E72"/>
<path opacity="0.8" d="M261.966 118.153H261.058V182.862H261.966V118.153Z" fill="#350E71"/>
<path opacity="0.8" d="M262.013 118.153H261.966V182.862H262.013V118.153Z" fill="#350E71"/>
</g>
<path opacity="0.8" d="M282.925 65.1835L280.123 63.779C280.04 63.7363 279.947 63.7141 279.853 63.7141C279.759 63.7141 279.667 63.7363 279.583 63.779L276.841 65.2902C276.745 65.339 276.638 65.3611 276.531 65.3541C276.424 65.3472 276.321 65.3114 276.233 65.2506C276.145 65.1898 276.075 65.1063 276.03 65.0089C275.985 64.9116 275.968 64.8039 275.98 64.6975L276.455 61.6099C276.469 61.516 276.46 61.4202 276.429 61.3305C276.398 61.2407 276.346 61.1598 276.277 61.0943L273.997 58.949C273.921 58.8728 273.867 58.7773 273.841 58.6727C273.815 58.5681 273.818 58.4584 273.849 58.3554C273.881 58.2524 273.941 58.1599 274.021 58.0881C274.101 58.0162 274.2 57.9676 274.306 57.9474L277.399 57.4437C277.492 57.4271 277.58 57.3882 277.656 57.3305C277.731 57.2727 277.792 57.1977 277.832 57.1118L279.173 54.285C279.224 54.1894 279.299 54.1094 279.392 54.0536C279.485 53.9978 279.591 53.9683 279.699 53.9683C279.807 53.9683 279.913 53.9978 280.006 54.0536C280.098 54.1094 280.174 54.1894 280.224 54.285L281.655 57.0703C281.699 57.1533 281.763 57.2245 281.84 57.2781C281.917 57.3317 282.006 57.3661 282.1 57.3785L285.21 57.7756C285.318 57.7921 285.418 57.8377 285.501 57.9074C285.585 57.9771 285.647 58.0682 285.682 58.1709C285.717 58.2736 285.723 58.3838 285.699 58.4897C285.676 58.5955 285.624 58.6929 285.549 58.7712L283.37 60.9343C283.304 61.0021 283.254 61.0848 283.226 61.1756C283.198 61.2663 283.193 61.3624 283.21 61.4558L283.803 64.5316C283.831 64.6449 283.825 64.764 283.786 64.8738C283.746 64.9837 283.675 65.0794 283.581 65.149C283.487 65.2187 283.375 65.2591 283.258 65.2652C283.142 65.2713 283.026 65.2429 282.925 65.1835Z" fill="#9763F0"/>
<path opacity="0.8" d="M132.759 231.571C132.759 231.571 165.911 234.434 173.889 251.484C181.867 268.534 178.822 280.92 178.822 280.92C178.822 280.92 159.536 280.464 147.243 266.294C134.949 252.124 134.914 245.552 134.914 245.552L139.942 245.143L132.872 239.145C132.872 239.145 131.619 236.212 132.759 231.571Z" fill="#573AA4"/>
<g opacity="0.8">
<path opacity="0.8" d="M132.213 231.316L141.307 281.476H132.213V231.316Z" fill="#381A96"/>
<path opacity="0.8" d="M133.186 231.026L142.34 281.477H141.307L132.213 231.316V231.026H133.186Z" fill="#381A96"/>
<path opacity="0.8" d="M134.219 231.026L143.367 281.476H142.34L133.187 231.026H134.219Z" fill="#381A95"/>
<path opacity="0.8" d="M135.246 231.026L144.399 281.476H143.366L134.219 231.026H135.246Z" fill="#381994"/>
<path opacity="0.8" d="M136.279 231.026L145.432 281.476H144.399L135.246 231.026H136.279Z" fill="#381993"/>
<path opacity="0.8" d="M137.306 231.026L146.459 281.476H145.432L136.279 231.026H137.306Z" fill="#381992"/>
<path opacity="0.8" d="M138.339 231.026L147.492 281.476H146.459L137.306 231.026H138.339Z" fill="#381891"/>
<path opacity="0.8" d="M139.366 231.026L148.519 281.476H147.492L138.339 231.026H139.366Z" fill="#381890"/>
<path opacity="0.8" d="M140.398 231.026L149.551 281.476H148.518L139.365 231.026H140.398Z" fill="#37188F"/>
<path opacity="0.8" d="M141.431 231.026L150.578 281.476H149.552L140.398 231.026H141.431Z" fill="#37178E"/>
<path opacity="0.8" d="M142.459 231.026L151.612 281.476H150.579L141.432 231.026H142.459Z" fill="#37178D"/>
<path opacity="0.8" d="M143.491 231.026L152.638 281.476H151.611L142.458 231.026H143.491Z" fill="#37178C"/>
<path opacity="0.8" d="M144.518 231.026L153.671 281.476H152.638L143.491 231.026H144.518Z" fill="#37168B"/>
<path opacity="0.8" d="M145.55 231.026L154.698 281.476H153.671L144.518 231.026H145.55Z" fill="#37168A"/>
<path opacity="0.8" d="M146.578 231.026L155.731 281.476H154.698L145.551 231.026H146.578Z" fill="#371689"/>
<path opacity="0.8" d="M147.611 231.026L156.758 281.476H155.731L146.578 231.026H147.611Z" fill="#371588"/>
<path opacity="0.8" d="M148.637 231.026L157.79 281.476H156.758L147.61 231.026H148.637Z" fill="#371587"/>
<path opacity="0.8" d="M149.671 231.026L158.818 281.476H157.791L148.638 231.026H149.671Z" fill="#371586"/>
<path opacity="0.8" d="M150.697 231.026L159.85 281.476H158.817L149.67 231.026H150.697Z" fill="#371485"/>
<path opacity="0.8" d="M151.73 231.026L160.877 281.476H159.85L150.697 231.026H151.73Z" fill="#371484"/>
<path opacity="0.8" d="M152.756 231.026L161.91 281.476H160.877L151.729 231.026H152.756Z" fill="#361482"/>
<path opacity="0.8" d="M153.79 231.026L162.937 281.476H161.91L152.757 231.026H153.79Z" fill="#361381"/>
<path opacity="0.8" d="M154.817 231.026L163.97 281.476H162.937L153.79 231.026H154.817Z" fill="#361380"/>
<path opacity="0.8" d="M155.849 231.026L164.996 281.476H163.97L154.816 231.026H155.849Z" fill="#36137F"/>
<path opacity="0.8" d="M156.877 231.026L166.03 281.476H164.997L155.85 231.026H156.877Z" fill="#36127E"/>
<path opacity="0.8" d="M157.91 231.026L167.057 281.476H166.03L156.877 231.026H157.91Z" fill="#36127D"/>
<path opacity="0.8" d="M158.936 231.026L168.089 281.476H167.056L157.909 231.026H158.936Z" fill="#36127C"/>
<path opacity="0.8" d="M159.969 231.026L169.117 281.476H168.09L158.937 231.026H159.969Z" fill="#36117B"/>
<path opacity="0.8" d="M160.996 231.026L170.149 281.476H169.116L159.969 231.026H160.996Z" fill="#36117A"/>
<path opacity="0.8" d="M162.029 231.026L171.176 281.476H170.149L160.996 231.026H162.029Z" fill="#361179"/>
<path opacity="0.8" d="M163.056 231.026L172.209 281.476H171.176L162.029 231.026H163.056Z" fill="#361078"/>
<path opacity="0.8" d="M164.089 231.026L173.236 281.476H172.209L163.056 231.026H164.089Z" fill="#361077"/>
<path opacity="0.8" d="M165.116 231.026L174.269 281.476H173.236L164.089 231.026H165.116Z" fill="#351076"/>
<path opacity="0.8" d="M166.148 231.026L175.295 281.476H174.268L165.115 231.026H166.148Z" fill="#350F75"/>
<path opacity="0.8" d="M167.175 231.026L176.328 281.476H175.296L166.148 231.026H167.175Z" fill="#350F74"/>
<path opacity="0.8" d="M168.208 231.026L177.355 281.476H176.328L167.175 231.026H168.208Z" fill="#350F73"/>
<path opacity="0.8" d="M169.235 231.026L178.388 281.476H177.355L168.208 231.026H169.235Z" fill="#350E72"/>
<path opacity="0.8" d="M170.268 231.026L179.332 281.002V281.476H178.388L169.235 231.026H170.268Z" fill="#350E71"/>
<path opacity="0.8" d="M179.332 281.002L170.268 231.026H179.332V281.002Z" fill="#350E71"/>
</g>
<path opacity="0.8" d="M329.89 94.8325C329.318 94.8381 328.759 94.6643 328.292 94.3358C327.824 94.0072 327.472 93.5404 327.284 93.0013L326.768 91.5434C326.7 91.3512 326.593 91.1754 326.453 91.0274C326.313 90.8793 326.143 90.7623 325.955 90.6841C325.766 90.6051 325.562 90.5675 325.357 90.5736C325.153 90.5797 324.951 90.6295 324.768 90.7196L323.367 91.3834C322.852 91.629 322.273 91.7091 321.71 91.6127C321.148 91.5164 320.629 91.2482 320.225 90.8453C319.822 90.4423 319.553 89.9243 319.457 89.3627C319.36 88.801 319.44 88.2233 319.686 87.709L320.351 86.3104C320.439 86.127 320.486 85.9274 320.492 85.7243C320.497 85.5213 320.459 85.3195 320.382 85.1318C320.304 84.9442 320.188 84.7749 320.04 84.6349C319.893 84.4949 319.718 84.3874 319.526 84.3192L318.066 83.7977C317.527 83.6094 317.059 83.2585 316.729 82.7934C316.398 82.3284 316.221 81.7722 316.221 81.2019C316.221 80.6317 316.398 80.0755 316.729 79.6104C317.059 79.1454 317.527 78.7944 318.066 78.6062L319.526 78.0906C319.718 78.0218 319.893 77.9134 320.041 77.7725C320.188 77.6316 320.304 77.4613 320.381 77.2728C320.466 77.0866 320.509 76.8846 320.509 76.6801C320.509 76.4757 320.466 76.2737 320.381 76.0875L319.716 74.6889C319.472 74.1749 319.394 73.5981 319.491 73.0376C319.588 72.4772 319.857 71.9606 320.26 71.5587C320.663 71.1569 321.181 70.8894 321.743 70.793C322.304 70.6966 322.882 70.7761 323.396 71.0205L324.797 71.6842C324.981 71.7713 325.182 71.8188 325.385 71.8237C325.589 71.8285 325.791 71.7906 325.979 71.7124C326.167 71.6342 326.337 71.5174 326.477 71.3696C326.617 71.2218 326.724 71.0464 326.792 70.8545L327.308 69.3967C327.496 68.8575 327.848 68.3907 328.316 68.0622C328.783 67.7336 329.342 67.5599 329.914 67.5654C330.485 67.5611 331.042 67.7354 331.509 68.0639C331.975 68.3924 332.327 68.8585 332.514 69.3967L333.03 70.8545C333.098 71.0471 333.205 71.2233 333.346 71.3717C333.486 71.52 333.656 71.6371 333.845 71.7154C334.034 71.7937 334.237 71.8314 334.441 71.826C334.645 71.8206 334.846 71.7723 335.031 71.6842L336.432 71.0205C336.946 70.7743 337.524 70.6936 338.086 70.7895C338.648 70.8853 339.167 71.153 339.57 71.5556C339.973 71.9582 340.241 72.4759 340.337 73.0371C340.433 73.5983 340.352 74.1755 340.106 74.6889L339.441 76.0875C339.352 76.2715 339.303 76.4725 339.298 76.6769C339.293 76.8814 339.331 77.0845 339.411 77.2728C339.488 77.4613 339.604 77.6316 339.752 77.7725C339.899 77.9134 340.074 78.0218 340.266 78.0906L341.732 78.6062C342.269 78.7971 342.733 79.1491 343.061 79.6138C343.389 80.0786 343.566 80.6333 343.566 81.2019C343.566 81.7706 343.389 82.3253 343.061 82.79C342.733 83.2548 342.269 83.6067 341.732 83.7977L340.266 84.3192C340.074 84.3874 339.899 84.4949 339.752 84.6349C339.605 84.7749 339.488 84.9442 339.41 85.1318C339.333 85.3195 339.295 85.5213 339.301 85.7243C339.306 85.9274 339.354 86.127 339.441 86.3104L340.106 87.709C340.351 88.2227 340.43 88.7993 340.334 89.3599C340.237 89.9205 339.969 90.4375 339.567 90.8401C339.164 91.2426 338.647 91.5109 338.085 91.6082C337.524 91.7055 336.946 91.6269 336.432 91.3834L335.031 90.7196C334.847 90.6304 334.646 90.5811 334.442 90.5749C334.238 90.5686 334.034 90.6056 333.845 90.6834C333.656 90.7612 333.486 90.8781 333.346 91.0263C333.205 91.1745 333.098 91.3507 333.03 91.5434L332.514 93.0013C332.325 93.5433 331.97 94.0122 331.499 94.341C331.028 94.6698 330.465 94.8418 329.89 94.8325ZM325.397 89.7003C325.702 89.6983 326.005 89.7567 326.287 89.8721C326.589 89.9987 326.861 90.1861 327.087 90.4227C327.313 90.6593 327.487 90.94 327.599 91.2471L328.115 92.7049C328.242 93.0759 328.482 93.3979 328.801 93.626C329.121 93.854 329.504 93.9766 329.896 93.9766C330.289 93.9766 330.672 93.854 330.991 93.626C331.31 93.3979 331.55 93.0759 331.677 92.7049L332.193 91.2471C332.303 90.9394 332.476 90.6581 332.701 90.4215C332.926 90.1849 333.199 89.9983 333.501 89.8736C333.803 89.749 334.129 89.6892 334.455 89.6982C334.782 89.7071 335.104 89.7846 335.399 89.9255L336.794 90.5655C337.144 90.7308 337.537 90.7839 337.919 90.7176C338.301 90.6513 338.653 90.4688 338.928 90.1951C339.202 89.9214 339.384 89.5699 339.451 89.1885C339.517 88.8072 339.464 88.4146 339.299 88.0646L338.634 86.666C338.494 86.371 338.417 86.0499 338.409 85.7235C338.401 85.3971 338.461 85.0727 338.587 84.7711C338.712 84.4695 338.899 84.1976 339.136 83.9727C339.374 83.7479 339.655 83.5752 339.963 83.4658L341.424 82.9443C341.798 82.8206 342.124 82.5822 342.355 82.263C342.586 81.9439 342.71 81.5601 342.71 81.1664C342.71 80.7726 342.586 80.3889 342.355 80.0697C342.124 79.7506 341.798 79.5122 341.424 79.3885L339.963 78.867C339.655 78.7582 339.374 78.5862 339.137 78.3619C338.9 78.1376 338.712 77.8661 338.587 77.565C338.462 77.2639 338.401 76.9399 338.409 76.6139C338.417 76.2879 338.494 75.9672 338.634 75.6727L339.299 74.2681C339.466 73.9183 339.52 73.5253 339.454 73.1433C339.389 72.7613 339.206 72.4091 338.931 72.1354C338.656 71.8616 338.303 71.6797 337.92 71.6149C337.537 71.55 337.144 71.6053 336.794 71.7731L335.393 72.4369C335.097 72.5767 334.776 72.6532 334.449 72.6613C334.122 72.6693 333.797 72.6089 333.495 72.4838C333.193 72.3587 332.92 72.1717 332.695 71.935C332.47 71.6983 332.297 71.417 332.187 71.1094L331.671 69.6515C331.546 69.281 331.306 68.96 330.986 68.7351C330.665 68.5102 330.282 68.3932 329.89 68.4011C329.499 68.3941 329.116 68.5115 328.796 68.7363C328.475 68.961 328.235 69.2815 328.109 69.6515L327.593 71.1094C327.483 71.417 327.31 71.6983 327.085 71.935C326.86 72.1717 326.588 72.3587 326.286 72.4838C325.983 72.6089 325.659 72.6693 325.332 72.6613C325.005 72.6532 324.683 72.5767 324.388 72.4369L322.987 71.7731C322.637 71.6053 322.243 71.55 321.861 71.6149C321.478 71.6797 321.125 71.8616 320.85 72.1354C320.575 72.4091 320.392 72.7613 320.326 73.1433C320.26 73.5253 320.315 73.9183 320.482 74.2681L321.147 75.6727C321.287 75.9669 321.364 76.2872 321.372 76.6128C321.38 76.9385 321.32 77.2624 321.196 77.5634C321.071 77.8645 320.884 78.136 320.648 78.3606C320.411 78.5851 320.13 78.7576 319.823 78.867L318.357 79.3885C317.982 79.5122 317.657 79.7506 317.426 80.0697C317.195 80.3889 317.07 80.7726 317.07 81.1664C317.07 81.5601 317.195 81.9439 317.426 82.263C317.657 82.5822 317.982 82.8206 318.357 82.9443L319.823 83.4658C320.131 83.5758 320.412 83.7489 320.648 83.974C320.885 84.1991 321.071 84.4712 321.196 84.7727C321.321 85.0742 321.381 85.3985 321.372 85.7246C321.364 86.0507 321.287 86.3714 321.147 86.666L320.482 88.0646C320.316 88.4146 320.263 88.8072 320.33 89.1885C320.396 89.5699 320.579 89.9214 320.853 90.1951C321.127 90.4688 321.479 90.6513 321.861 90.7176C322.243 90.7839 322.636 90.7308 322.987 90.5655L324.388 89.9018C324.704 89.7585 325.049 89.6896 325.397 89.7003ZM329.89 87.3001C328.682 87.3001 327.501 86.9425 326.497 86.2724C325.492 85.6023 324.709 84.6499 324.247 83.5356C323.785 82.4213 323.664 81.1952 323.9 80.0122C324.135 78.8293 324.717 77.7427 325.571 76.8898C326.425 76.037 327.514 75.4562 328.699 75.2209C329.883 74.9856 331.112 75.1064 332.228 75.5679C333.344 76.0295 334.298 76.8111 334.969 77.814C335.64 78.8168 335.998 79.9958 335.998 81.2019C335.998 82.0028 335.84 82.7957 335.533 83.5356C335.226 84.2755 334.776 84.9477 334.209 85.514C333.642 86.0803 332.969 86.5295 332.228 86.8359C331.487 87.1424 330.692 87.3001 329.89 87.3001ZM329.89 75.9808C328.856 75.9797 327.844 76.2849 326.983 76.8579C326.122 77.4309 325.451 78.2459 325.055 79.1998C324.658 80.1537 324.553 81.2037 324.754 82.2169C324.956 83.2301 325.453 84.1609 326.184 84.8917C326.915 85.6225 327.847 86.1203 328.862 86.3223C329.876 86.5242 330.928 86.4212 331.884 86.0262C332.84 85.6312 333.657 84.962 334.232 84.1032C334.807 83.2445 335.114 82.2348 335.114 81.2019C335.112 79.8187 334.562 78.4925 333.582 77.5139C332.603 76.5352 331.276 75.984 329.89 75.9808Z" fill="url(#paint1_linear)"/>
<path opacity="0.8" d="M158.948 78.8138L156.153 77.4092C156.068 77.3656 155.975 77.3428 155.88 77.3428C155.784 77.3428 155.691 77.3656 155.606 77.4092L152.864 78.9145C152.769 78.9633 152.662 78.9854 152.555 78.9785C152.448 78.9715 152.345 78.9357 152.256 78.875C152.168 78.8142 152.098 78.7306 152.053 78.6333C152.009 78.5359 151.992 78.4283 152.003 78.3219L152.478 75.2342C152.492 75.1404 152.483 75.0445 152.452 74.9548C152.421 74.8651 152.369 74.7841 152.3 74.7187L150.021 72.5733C149.944 72.4972 149.89 72.4016 149.864 72.297C149.838 72.1924 149.841 72.0827 149.873 71.9797C149.905 71.8767 149.964 71.7843 150.044 71.7124C150.125 71.6405 150.223 71.5919 150.329 71.5718L153.422 71.068C153.515 71.052 153.603 71.0141 153.678 70.9574C153.754 70.9007 153.814 70.8269 153.855 70.7421L155.191 67.9152C155.241 67.8197 155.317 67.7396 155.409 67.6838C155.502 67.628 155.608 67.5985 155.716 67.5985C155.824 67.5985 155.931 67.628 156.023 67.6838C156.116 67.7396 156.191 67.8197 156.242 67.9152L157.678 70.6947C157.723 70.7776 157.786 70.8488 157.863 70.9024C157.941 70.956 158.03 70.9904 158.123 71.0028L161.234 71.3999C161.341 71.4164 161.442 71.462 161.525 71.5317C161.608 71.6014 161.671 71.6926 161.705 71.7952C161.74 71.8979 161.746 72.0082 161.723 72.114C161.699 72.2199 161.647 72.3172 161.572 72.3955L159.37 74.6179C159.304 74.685 159.255 74.7668 159.227 74.8564C159.2 74.9461 159.193 75.041 159.21 75.1335L159.803 78.2093C159.817 78.3158 159.801 78.424 159.758 78.5224C159.714 78.6207 159.645 78.7054 159.557 78.7675C159.47 78.8296 159.367 78.8667 159.259 78.8748C159.152 78.883 159.045 78.8619 158.948 78.8138Z" fill="url(#paint2_linear)"/>
<path opacity="0.8" d="M72.7653 189.067L70.5631 186.845C70.4958 186.778 70.4131 186.727 70.3222 186.698C70.2313 186.669 70.1347 186.663 70.0407 186.679L66.96 187.23C66.8558 187.24 66.7508 187.222 66.6557 187.179C66.5606 187.135 66.4788 187.067 66.4185 186.982C66.3583 186.896 66.3217 186.796 66.3126 186.692C66.3034 186.588 66.322 186.483 66.3664 186.389L67.8029 183.609C67.8466 183.525 67.8694 183.432 67.8694 183.337C67.8694 183.242 67.8466 183.148 67.8029 183.064L66.3248 180.308C66.2775 180.213 66.2565 180.107 66.2643 180.001C66.272 179.895 66.308 179.793 66.3687 179.706C66.4294 179.619 66.5124 179.55 66.6091 179.506C66.7058 179.461 66.8126 179.444 66.9184 179.455L70.011 179.959C70.1046 179.973 70.2003 179.965 70.2902 179.935C70.38 179.905 70.4614 179.855 70.5275 179.787L72.7 177.535C72.7769 177.46 72.8725 177.408 72.9769 177.383C73.0812 177.358 73.1904 177.362 73.2927 177.394C73.3949 177.427 73.4866 177.486 73.5578 177.566C73.629 177.646 73.6772 177.744 73.6972 177.849L74.1721 180.942C74.1873 181.036 74.2249 181.125 74.2817 181.202C74.3385 181.278 74.4129 181.339 74.4986 181.381L77.3181 182.744C77.4138 182.794 77.494 182.87 77.5499 182.962C77.6058 183.055 77.6353 183.161 77.6353 183.269C77.6353 183.377 77.6058 183.482 77.5499 183.575C77.494 183.667 77.4138 183.743 77.3181 183.793L74.5164 185.198C74.4329 185.241 74.3609 185.303 74.3062 185.379C74.2515 185.455 74.2157 185.543 74.2018 185.636L73.7744 188.736C73.7585 188.845 73.7125 188.947 73.6416 189.031C73.5706 189.116 73.4775 189.179 73.3727 189.213C73.2679 189.248 73.1555 189.252 73.0482 189.227C72.9409 189.201 72.843 189.146 72.7653 189.067Z" fill="url(#paint3_linear)"/>
<path opacity="0.8" d="M337.642 183.409C336.942 184.873 335.823 186.097 334.426 186.925C333.029 187.754 331.417 188.151 329.795 188.065C328.172 187.979 326.611 187.415 325.31 186.444C324.008 185.472 323.025 184.137 322.483 182.607C321.942 181.078 321.867 179.422 322.268 177.85C322.669 176.278 323.528 174.86 324.737 173.775C325.945 172.69 327.448 171.988 329.057 171.756C330.665 171.525 332.306 171.775 333.772 172.475C335.737 173.413 337.249 175.091 337.975 177.142C338.7 179.192 338.581 181.446 337.642 183.409Z" fill="url(#paint4_linear)"/>
<path opacity="0.8" d="M330.223 188.487C328.062 188.485 325.981 187.674 324.39 186.214C322.8 184.754 321.816 182.751 321.634 180.602C321.452 178.452 322.085 176.313 323.407 174.607C324.729 172.901 326.644 171.752 328.774 171.388C330.903 171.024 333.092 171.472 334.907 172.642C336.722 173.812 338.031 175.62 338.575 177.707C339.119 179.795 338.859 182.01 337.845 183.915C336.832 185.82 335.139 187.276 333.102 187.995C332.176 188.318 331.203 188.485 330.223 188.487ZM330.223 172.083C328.306 172.082 326.455 172.787 325.026 174.062C323.596 175.338 322.688 177.095 322.475 178.997C322.261 180.9 322.758 182.814 323.869 184.374C324.98 185.934 326.628 187.03 328.498 187.453C330.368 187.876 332.328 187.596 334.004 186.666C335.68 185.737 336.955 184.223 337.583 182.415C338.212 180.606 338.15 178.63 337.411 176.864C336.672 175.098 335.307 173.665 333.576 172.841C332.542 172.348 331.411 172.089 330.264 172.083H330.223Z" fill="url(#paint5_linear)"/>
<path opacity="0.8" d="M343.512 188.771C342.214 188.721 340.925 188.522 339.672 188.179C331.763 185.944 324.295 182.377 317.59 177.63C314.694 175.437 313.489 173.778 314.029 172.699C315.032 170.613 321.692 172.735 324.512 173.742L324.233 174.519C317.869 172.243 315.091 172.397 314.777 173.055C314.551 173.523 315.287 174.833 318.113 176.972C324.728 181.649 332.093 185.167 339.891 187.373C343.334 188.226 344.818 187.965 345.044 187.515C345.353 186.869 343.785 184.658 338.188 181.209L338.621 180.51C341.708 182.406 346.736 185.891 345.792 187.871C345.483 188.475 344.729 188.771 343.512 188.771Z" fill="url(#paint6_linear)"/>
<path opacity="0.8" d="M268.816 168.32C268.804 168.254 268.778 168.191 268.74 168.136C268.702 168.081 268.653 168.035 268.596 168C268.539 167.964 268.476 167.94 268.409 167.93C268.343 167.92 268.275 167.924 268.21 167.94C268.092 167.97 256.659 171.111 256.386 182.205C255.994 182.798 252.136 188.582 247.559 196.351C248.521 192.013 248.693 185.559 242.704 182.187C242.585 182.124 242.447 182.109 242.318 182.146C242.254 182.166 242.195 182.2 242.144 182.243C242.093 182.287 242.051 182.341 242.021 182.401C241.968 182.507 236.881 193.181 245.084 200.636C244.211 202.171 243.303 203.753 242.466 205.377C239.811 210.296 237.613 214.764 235.872 218.782C236.079 214.32 235.278 206.971 228.303 204.441C228.239 204.417 228.17 204.408 228.101 204.413C228.033 204.418 227.966 204.438 227.906 204.47C227.844 204.504 227.79 204.549 227.747 204.604C227.704 204.659 227.673 204.723 227.656 204.79C227.656 204.903 225.068 216.412 234.364 222.427C231.325 230.197 230.256 235.998 231.188 239.756C231.203 239.818 231.231 239.877 231.269 239.929C231.307 239.98 231.355 240.024 231.411 240.057C231.466 240.09 231.527 240.112 231.591 240.121C231.654 240.131 231.719 240.127 231.782 240.111C231.863 240.093 231.937 240.052 231.995 239.993C232.06 239.934 232.107 239.859 232.133 239.775C232.158 239.692 232.159 239.603 232.138 239.519C231.17 235.613 232.642 229.539 235.284 222.795C237.213 223.126 245.422 224.217 250.035 219.897C251.347 218.657 252.283 217.074 252.735 215.327C252.764 215.201 252.743 215.068 252.675 214.958C252.607 214.847 252.499 214.767 252.373 214.735C252.266 214.735 242.989 212.607 237.1 218.48C239.665 212.678 242.852 206.628 245.927 201.193C247.927 201.94 256.641 204.796 261.716 200.049C262.658 199.159 263.415 198.091 263.942 196.908C263.967 196.849 263.98 196.786 263.98 196.722C263.98 196.658 263.967 196.594 263.942 196.535C263.92 196.474 263.886 196.418 263.843 196.37C263.799 196.322 263.746 196.284 263.687 196.256C263.586 196.215 254.825 192.31 248.094 197.442C252.361 190.152 256.042 184.534 256.997 183.106C260.086 182.141 262.937 180.54 265.367 178.406C267.854 176.024 269.718 172.741 268.816 168.32ZM242.698 183.319C249.667 187.711 246.521 197.205 245.529 199.717C239.012 193.578 241.819 185.388 242.686 183.319H242.698ZM228.511 205.537C236.073 208.749 235.041 218.664 234.619 221.396C227.342 216.483 228.167 207.836 228.511 205.537ZM251.631 215.541C249.02 223.387 238.46 222.273 235.723 221.84C240.11 214.142 249.358 215.173 251.631 215.559V215.541ZM257.027 195.705C259.008 195.795 260.964 196.195 262.82 196.891C258.986 204.216 249.031 201.205 246.491 200.286C249.097 197.086 252.634 195.539 257.027 195.723V195.705ZM257.371 181.885C257.769 172.96 265.794 169.73 267.949 169.025C269.178 177.18 259.924 181.008 257.371 181.903V181.885Z" fill="url(#paint7_linear)"/>
<path opacity="0.8" d="M190.587 222.474C187.464 222.202 183.018 219.665 177.991 215.878C178.051 215.828 178.108 215.775 178.163 215.718C180.343 213.618 182.052 211.08 183.178 208.272C184.304 205.464 184.82 202.449 184.692 199.427C184.52 194.923 182.864 190.964 180.264 188.842C177.243 186.377 173.45 186.626 169.781 186.869C166.113 187.112 162.51 187.349 160.284 184.581C158.586 182.466 158.658 179.917 158.729 177.47C158.806 174.75 158.877 172.183 156.354 170.868C154.152 169.73 151.546 170.364 149.03 170.98C146.513 171.597 144.162 172.166 142.708 170.791C141.877 170.003 141.817 169.013 141.758 167.988C141.687 166.802 141.61 165.451 140.244 164.432C137.686 162.541 132.124 163.045 128.201 166.802L128.165 166.832C125.731 169.173 124.307 172.403 124.532 175.052C124.734 177.345 126.093 178.187 127.536 179.082C128.775 179.739 129.84 180.679 130.646 181.826C132.35 184.386 131.833 187.047 131.323 189.619C130.848 192.072 130.397 194.36 131.916 196.363C133.84 198.905 137.063 198.419 140.476 197.904C143.592 197.43 146.821 196.944 149.214 198.775C151.932 200.843 151.552 204.393 151.155 208.15C150.739 212.02 150.318 216.021 153.161 218.877C155.535 221.248 159.821 222.374 164.641 221.876C169.274 221.376 173.656 219.521 177.237 216.542C182.965 220.856 187.399 223.174 190.498 223.446C190.567 223.451 190.637 223.443 190.704 223.42C190.77 223.398 190.831 223.362 190.883 223.316C190.969 223.232 191.021 223.121 191.032 223.002C191.04 222.873 190.999 222.747 190.916 222.649C190.833 222.55 190.715 222.488 190.587 222.474ZM153.855 218.172C151.339 215.647 151.742 211.884 152.128 208.245C152.538 204.381 152.965 200.387 149.813 197.981C147.083 195.901 143.491 196.44 140.316 196.92C137.14 197.4 134.261 197.839 132.688 195.735C131.453 194.105 131.845 192.096 132.302 189.773C132.813 187.136 133.4 184.143 131.477 181.245C130.59 179.983 129.422 178.944 128.064 178.211C126.681 177.357 125.69 176.735 125.523 174.933C125.322 172.598 126.663 169.6 128.859 167.508V167.478C132.326 164.171 137.407 163.543 139.645 165.202C140.636 165.931 140.696 166.897 140.761 168.017C140.826 169.137 140.897 170.388 142.013 171.472C143.853 173.221 146.596 172.551 149.243 171.905C151.588 171.312 153.992 170.72 155.88 171.709C157.868 172.741 157.809 174.797 157.737 177.411C157.666 179.923 157.583 182.744 159.518 185.168C162.053 188.339 166.006 188.078 169.835 187.823C173.313 187.598 176.91 187.361 179.629 189.601C182.003 191.551 183.541 195.237 183.701 199.462C183.828 202.346 183.34 205.225 182.27 207.906C181.199 210.588 179.571 213.012 177.492 215.019L177.201 215.28C175.041 213.614 172.773 211.724 170.47 209.715L171.378 194.455C171.383 194.39 171.375 194.325 171.354 194.264C171.333 194.203 171.3 194.147 171.257 194.098C171.213 194.05 171.161 194.011 171.102 193.984C171.043 193.957 170.98 193.941 170.915 193.939C170.786 193.933 170.66 193.977 170.564 194.062C170.467 194.147 170.408 194.267 170.399 194.395L169.532 208.891C162.332 202.497 154.799 194.869 148.626 188.309L151.077 177.683C151.093 177.562 151.063 177.439 150.993 177.339C150.923 177.239 150.818 177.169 150.699 177.141C150.58 177.114 150.455 177.132 150.348 177.191C150.241 177.251 150.161 177.348 150.122 177.464L147.789 187.444C140.369 179.556 135.051 173.41 134.902 173.221C134.816 173.122 134.695 173.062 134.565 173.053C134.434 173.045 134.306 173.088 134.208 173.173C134.158 173.214 134.117 173.265 134.088 173.322C134.058 173.379 134.04 173.441 134.035 173.506C134.03 173.57 134.038 173.634 134.059 173.695C134.079 173.756 134.112 173.812 134.154 173.861C134.231 173.95 139.615 180.178 147.1 188.137L136.618 189.85C136.489 189.87 136.373 189.941 136.296 190.047C136.219 190.152 136.188 190.284 136.208 190.413C136.228 190.542 136.299 190.657 136.405 190.734C136.511 190.811 136.643 190.842 136.772 190.822L147.914 189.002C150.65 191.9 153.648 195.006 156.752 198.105C161.311 202.661 165.482 206.612 169.265 209.958L157.298 211.226C157.234 211.231 157.171 211.249 157.114 211.279C157.057 211.309 157.006 211.35 156.965 211.4C156.924 211.45 156.894 211.507 156.875 211.569C156.857 211.631 156.852 211.696 156.859 211.76C156.872 211.889 156.937 212.008 157.038 212.09C157.139 212.173 157.269 212.211 157.399 212.198L169.995 210.871C170.074 210.862 170.15 210.833 170.215 210.788C172.435 212.716 174.514 214.428 176.453 215.926C169.022 222.131 158.123 222.439 153.855 218.172Z" fill="url(#paint8_linear)"/>
</g>
<path d="M121.024 96.1308C121.103 96.1263 121.181 96.106 121.252 96.0712C121.323 96.0365 121.386 95.9878 121.438 95.9282C121.49 95.8685 121.53 95.7991 121.555 95.7239C121.579 95.6488 121.589 95.5695 121.582 95.4907L120.65 71.3053C120.65 70.9103 120.65 70.5606 120.65 70.2564C120.692 69.0711 120.33 65.3257 118.157 63.2455C117.568 62.6808 116.85 62.2677 116.065 62.0416C115.28 61.8155 114.452 61.7833 113.652 61.9477C109.687 62.5699 108.144 65.6279 108.375 68.3777C108.607 71.1276 110.631 73.7944 114.05 73.6818C114.608 73.6294 115.15 73.4585 115.637 73.1805C116.124 72.9026 116.546 72.5239 116.875 72.0698C116.969 71.9381 117.01 71.7756 116.989 71.6151C116.968 71.4545 116.887 71.3078 116.762 71.2046C116.702 71.1562 116.632 71.1209 116.558 71.1008C116.483 71.0808 116.405 71.0765 116.328 71.0882C116.252 71.0999 116.179 71.1274 116.113 71.1688C116.048 71.2103 115.992 71.2649 115.949 71.3291C115.719 71.6359 115.428 71.8933 115.096 72.0857C114.763 72.2781 114.395 72.4017 114.014 72.4491C111.189 72.5499 109.705 70.3453 109.533 68.2711C109.36 66.1968 110.387 63.7137 113.818 63.1685C114.448 63.0366 115.101 63.0582 115.721 63.2315C116.341 63.4048 116.91 63.7247 117.38 64.1641C119.25 65.942 119.517 69.3852 119.487 70.2031C119.487 70.5586 119.487 70.932 119.487 71.3468L120.419 95.5381C120.419 95.617 120.435 95.695 120.465 95.7677C120.496 95.8404 120.541 95.9062 120.597 95.9614C120.653 96.0166 120.72 96.06 120.794 96.0891C120.867 96.1182 120.945 96.1323 121.024 96.1308Z" fill="#501EA4"/>
<path d="M118.84 297.726H122.348C122.764 297.726 123.102 297.389 123.102 296.973L123.102 88.1058C123.102 87.6901 122.764 87.3531 122.348 87.3531H118.84C118.423 87.3531 118.086 87.6901 118.086 88.1058L118.086 296.973C118.086 297.389 118.423 297.726 118.84 297.726Z" fill="#501EA4"/>
<path d="M120.086 89.7065H121.101C121.652 89.7065 122.099 89.2608 122.099 88.7109V86.4234C122.099 85.8735 121.652 85.4277 121.101 85.4277H120.086C119.536 85.4277 119.089 85.8735 119.089 86.4234V88.7109C119.089 89.2608 119.536 89.7065 120.086 89.7065Z" fill="#501EA4"/>
<path d="M131.139 298.835H110.043C109.921 298.835 109.801 298.81 109.689 298.762C109.577 298.714 109.476 298.643 109.393 298.554C109.31 298.465 109.247 298.359 109.206 298.245C109.166 298.13 109.15 298.008 109.159 297.887C109.395 295.024 110.7 292.354 112.817 290.408C114.933 288.461 117.705 287.381 120.582 287.381C123.46 287.381 126.232 288.461 128.348 290.408C130.464 292.354 131.77 295.024 132.006 297.887C132.016 298.007 132.001 298.127 131.962 298.241C131.923 298.355 131.86 298.46 131.779 298.549C131.698 298.638 131.599 298.709 131.489 298.758C131.379 298.808 131.26 298.834 131.139 298.835Z" fill="#744DDB"/>
<path d="M169.218 220.619C169.218 220.619 144.881 257.362 144.234 308.157C144.224 308.807 144.41 309.445 144.769 309.987C145.128 310.53 145.642 310.952 146.245 311.197C146.848 311.443 147.511 311.502 148.148 311.365C148.784 311.229 149.365 310.904 149.814 310.432C155.85 304.115 166.434 293.536 179.137 284.422L169.218 220.619Z" fill="url(#paint9_linear)"/>
<path d="M240.704 220.619C240.704 220.619 265.041 257.362 265.688 308.157C265.7 308.806 265.515 309.444 265.158 309.987C264.8 310.529 264.287 310.952 263.685 311.198C263.083 311.445 262.421 311.504 261.785 311.369C261.149 311.233 260.568 310.909 260.12 310.438C250.866 300.952 240.811 292.28 230.066 284.516L240.704 220.619Z" fill="url(#paint10_linear)"/>
<g opacity="0.2">
<path opacity="0.2" d="M169.176 220.689C169.176 220.689 166.131 250.801 172.904 289.097C172.904 289.097 178.133 285.061 179.124 284.403L169.176 220.689Z" fill="black"/>
</g>
<g opacity="0.2">
<path opacity="0.2" d="M240.555 220.832C240.555 220.832 243.76 251.389 236.993 289.714C236.993 289.714 231.058 285.175 230.072 284.517L240.555 220.832Z" fill="black"/>
</g>
<path d="M233.729 267.864C232.429 274.43 231.147 280.268 229.96 284.647L204.715 284.499L179.125 284.357C177.991 279.972 176.751 274.116 175.563 267.538L233.729 267.864Z" fill="#744DDB"/>
<path d="M226.909 106.94H224.535V106.116H225.502C225.354 105.838 225.2 105.565 225.051 105.292L225.775 104.895C226.037 105.369 226.298 105.849 226.559 106.335L226.909 106.94ZM221.252 106.904H217.946V106.081H221.252V106.904ZM214.646 106.863H211.339V106.039H214.646V106.863ZM208.039 106.827H204.733V105.974H208.039V106.827ZM201.456 106.786H198.15V105.974H201.456V106.786ZM194.849 106.75H191.543V105.926H194.844L194.849 106.75ZM188.243 106.709H184.937V105.885H188.237L188.243 106.709ZM186.563 103.817L185.851 103.408C186.403 102.448 186.973 101.494 187.536 100.557L188.243 100.99C187.655 101.914 187.091 102.868 186.539 103.817H186.563ZM223.454 102.418C222.908 101.476 222.339 100.522 221.769 99.5912L222.475 99.1586C223.069 100.101 223.621 101.055 224.167 102.003L223.454 102.418ZM189.964 98.1985L189.264 97.7541C189.857 96.8296 190.451 95.8991 191.08 94.9865L191.769 95.4428C191.157 96.3555 190.552 97.28 189.964 98.1985ZM220.018 96.8059C219.424 95.8873 218.83 94.9628 218.201 94.062L218.884 93.5997C219.477 94.5064 220.119 95.4309 220.712 96.3554L220.018 96.8059ZM193.639 92.7345L192.962 92.2604C193.591 91.3655 194.244 90.4825 194.903 89.5817L195.568 90.0676C194.927 90.9506 194.262 91.8455 193.639 92.7345ZM216.325 91.3596C215.684 90.4647 215.031 89.5816 214.379 88.7045L215.037 88.2067C215.696 89.0838 216.355 89.9846 216.996 90.8795L216.325 91.3596ZM197.556 87.4482L196.903 86.9444C197.58 86.0792 198.274 85.208 198.969 84.3546L199.61 84.8761C198.916 85.7236 198.227 86.5889 197.556 87.4482ZM212.396 86.097C211.713 85.2376 211.013 84.3783 210.318 83.5427L210.954 83.0153C211.654 83.8568 212.354 84.7221 213.043 85.5873L212.396 86.097ZM201.747 82.3515L201.118 81.8182C202.014 80.7751 202.792 79.898 203.296 79.3291L203.89 79.8743C203.385 80.4432 202.643 81.3144 201.723 82.3515H201.747ZM208.181 81.0418C207.802 80.6151 207.451 80.224 207.125 79.8565C206.806 79.4925 206.369 79.2515 205.89 79.175L206.027 78.3572C206.689 78.4685 207.294 78.8007 207.742 79.2995C208.069 79.661 208.419 80.058 208.799 80.4847L208.181 81.0418Z" fill="#9A00FF"/>
<path d="M184.675 105.381C175.296 122.876 166.315 146.866 166.143 175.312C166.024 196.534 170.791 240.502 175.569 267.556L233.741 267.893C238.857 240.893 243.832 196.973 243.921 175.769C244.093 147.322 235.42 123.261 226.232 105.672L184.675 105.381Z" fill="#F4E5FF"/>
<path d="M213.41 131.742C212.792 131.741 212.199 131.495 211.762 131.058C211.325 130.622 211.079 130.03 211.077 129.413V115.557C211.086 114.942 211.335 114.354 211.77 113.918C212.206 113.483 212.794 113.233 213.41 113.222C214.027 113.231 214.617 113.48 215.053 113.916C215.49 114.352 215.739 114.941 215.749 115.557V129.413C215.738 130.028 215.488 130.616 215.051 131.05C214.615 131.485 214.026 131.733 213.41 131.742Z" fill="#D5C1F9"/>
<path d="M217.399 125.655C216.781 125.653 216.189 125.408 215.751 124.971C215.314 124.535 215.068 123.943 215.066 123.326V108.285C215.076 107.67 215.324 107.082 215.759 106.646C216.195 106.21 216.783 105.961 217.399 105.95C218.017 105.959 218.606 106.208 219.043 106.644C219.479 107.08 219.729 107.669 219.738 108.285V123.326C219.727 123.941 219.477 124.528 219.041 124.963C218.604 125.398 218.016 125.646 217.399 125.655Z" fill="#D5C1F9"/>
<path d="M221.228 105.642H214.71C212.7 105.642 211.071 107.269 211.071 109.275V118.419C211.071 120.426 212.7 122.052 214.71 122.052H221.228C223.237 122.052 224.866 120.426 224.866 118.419V109.275C224.866 107.269 223.237 105.642 221.228 105.642Z" fill="#D5C1F9"/>
<path d="M222.729 175.071C232.052 165.763 232.052 150.671 222.729 141.362C213.405 132.054 198.289 132.054 188.966 141.362C179.642 150.671 179.642 165.763 188.966 175.071C198.289 184.38 213.405 184.38 222.729 175.071Z" fill="url(#paint11_linear)"/>
<path d="M204.138 311.878C203.754 311.875 203.373 311.796 203.02 311.645C202.666 311.494 202.346 311.274 202.078 310.998C201.81 310.722 201.6 310.396 201.459 310.039C201.319 309.681 201.251 309.299 201.259 308.915C201.259 308.915 195.656 276.83 195.715 266.246C195.775 255.661 201.758 224.169 201.758 224.169C201.757 223.787 201.832 223.409 201.978 223.056C202.124 222.704 202.338 222.383 202.608 222.113C202.878 221.844 203.199 221.63 203.553 221.484C203.906 221.338 204.284 221.264 204.667 221.265C205.049 221.268 205.427 221.346 205.779 221.495C206.131 221.644 206.451 221.862 206.718 222.134C206.986 222.407 207.198 222.729 207.341 223.083C207.484 223.437 207.555 223.816 207.551 224.198C207.551 224.198 213.339 255.839 213.274 266.441C213.208 277.043 207.053 308.939 207.053 308.939C207.058 309.324 206.986 309.706 206.841 310.062C206.697 310.419 206.483 310.744 206.212 311.017C205.94 311.291 205.617 311.508 205.261 311.656C204.906 311.803 204.524 311.879 204.138 311.878Z" fill="url(#paint12_linear)"/>
<g opacity="0.2">
<path opacity="0.2" d="M226.019 105.641H226.221C235.409 123.231 244.082 147.292 243.91 175.738C243.791 196.942 238.846 240.863 233.73 267.863C232.43 274.429 231.147 280.267 229.96 284.646H215.162C215.204 284.32 223.134 281.185 224.428 276.095C229.622 255.678 238.081 201.636 236.976 174.689C235.688 143.552 231.231 134.763 224.226 118.389C223.134 115.841 220.872 110.886 218.1 105.618L226.019 105.641Z" fill="black"/>
</g>
<g opacity="0.2">
<path opacity="0.2" d="M223.543 142.237C227.657 146.769 229.866 152.708 229.714 158.823C229.562 164.937 227.059 170.759 222.725 175.081C218.391 179.404 212.557 181.896 206.433 182.042C200.308 182.187 194.362 179.975 189.827 175.863C191.996 178.253 194.629 180.178 197.566 181.522C200.503 182.866 203.683 183.6 206.912 183.68C210.142 183.76 213.354 183.185 216.354 181.988C219.354 180.792 222.079 179 224.365 176.72C226.65 174.441 228.449 171.722 229.65 168.728C230.851 165.734 231.431 162.527 231.354 159.303C231.278 156.078 230.546 152.903 229.203 149.97C227.86 147.036 225.935 144.405 223.543 142.237Z" fill="black"/>
</g>
<g opacity="0.4">
<path opacity="0.4" d="M212.472 139.902L187.506 164.835C186.851 163.034 186.469 161.147 186.372 159.234L206.869 138.771C208.782 138.868 210.671 139.25 212.472 139.902Z" fill="white"/>
</g>
<g opacity="0.4">
<path opacity="0.4" d="M216.123 141.668L189.275 168.479C188.973 167.999 188.682 167.507 188.444 166.997L214.645 140.844C215.15 141.093 215.648 141.372 216.123 141.668Z" fill="white"/>
</g>
<g opacity="0.2">
<path opacity="0.2" d="M207.053 308.974C207.053 308.974 213.215 277.079 213.274 266.476C213.333 255.874 207.546 224.233 207.546 224.233C207.551 223.852 207.48 223.473 207.337 223.119C207.195 222.765 206.984 222.442 206.717 222.17C206.449 221.897 206.13 221.68 205.779 221.531C205.427 221.381 205.049 221.303 204.667 221.3C204.667 221.3 213.464 255.566 204.139 311.878C204.521 311.879 204.9 311.804 205.254 311.659C205.607 311.513 205.928 311.299 206.199 311.03C206.47 310.76 206.685 310.439 206.831 310.087C206.978 309.734 207.053 309.356 207.053 308.974Z" fill="black"/>
</g>
<path d="M281.976 100.244C281.976 100.244 277.94 105.803 281.703 115.06C281.994 115.777 287.176 114.894 287.176 114.894C286.932 116.387 286.595 117.863 286.167 119.315C285.959 119.955 285.413 121.685 285.573 122.278C286.232 124.548 298.454 125.348 296.3 120.921C295.217 118.777 294.511 116.464 294.21 114.082C294.21 114.082 294.014 94.2347 281.976 100.244Z" fill="#D19574"/>
<path d="M304.995 246.725V251.858C305.025 252.142 304.94 252.427 304.76 252.649C304.58 252.871 304.318 253.013 304.033 253.043H289.544V252.355C289.544 252.106 289.625 251.863 289.777 251.664C289.928 251.465 290.14 251.32 290.381 251.253C292.453 250.66 295.159 248.977 297.842 246.559C302.235 242.618 304.995 246.725 304.995 246.725Z" fill="#091147"/>
<path d="M279.287 246.725V251.858C279.317 252.142 279.232 252.427 279.052 252.649C278.872 252.871 278.61 253.013 278.325 253.043H261.111V252.355C261.112 252.106 261.194 251.863 261.345 251.665C261.496 251.466 261.708 251.321 261.948 251.253C264.02 250.66 269.439 248.977 272.116 246.559C276.533 242.618 279.287 246.725 279.287 246.725Z" fill="#091147"/>
<path d="M306.39 160.515L304.995 246.725L297.843 246.583L288.238 169.475L289.503 150.671L306.39 160.515Z" fill="url(#paint13_linear)"/>
<path d="M298.846 160.751L279.287 246.742H271.95L276.859 160.514L298.846 160.751Z" fill="url(#paint14_linear)"/>
<path d="M254.285 94.2047C248.858 103.696 244.538 113.778 241.41 124.251L282.077 115.782C274.992 107.379 266.916 99.8612 258.025 93.3928C257.732 93.1817 257.398 93.0345 257.045 92.9609C256.691 92.8872 256.326 92.8887 255.973 92.9653C255.621 93.0419 255.288 93.1919 254.997 93.4054C254.706 93.619 254.464 93.8913 254.285 94.2047Z" fill="url(#paint15_linear)"/>
<path d="M291.361 141.616C286.244 141.948 276.741 122.652 276.741 122.652C276.741 122.652 268.727 118.948 267.374 118.877C266.021 118.806 273.66 117.401 276.426 116.678C278.059 116.252 275.862 113.466 276.426 112.791C276.99 112.115 281.816 117.923 281.175 119.274C280.742 120.21 289.83 134.179 290.922 134.179L291.361 141.616Z" fill="#D19574"/>
<path d="M286.339 118.686C286.339 118.686 282.724 119.433 279.317 128.88C275.357 139.861 276.657 161.243 276.657 161.243H306.337C306.337 161.243 308.96 124.145 295.516 119.166C295.516 119.166 293.86 121.17 291.39 121.033C288.921 120.897 286.339 118.686 286.339 118.686Z" fill="url(#paint16_linear)"/>
<path d="M291.164 104.197C291.164 104.197 286.89 99.9832 283.863 100.641C282.747 100.974 281.711 101.53 280.818 102.277C276.526 100.89 276.515 96.8067 277.85 95.0643C278.806 93.8198 279.987 93.0908 282.486 94.3294C282.486 94.3294 284.101 91.6804 287.063 92.2552C290.025 92.8301 290.826 94.5013 290.826 94.5013C290.826 94.5013 294.293 92.8834 296.424 94.685C297.925 95.9592 297.83 99.6987 297.83 99.6987C297.83 99.6987 300.329 100.914 300.205 102.994C300.08 105.809 299.017 106.627 299.017 106.627C299.017 106.627 300.798 113.477 293.574 113.359C292.215 113.359 291.164 108.932 291.437 104.623L291.164 104.197Z" fill="#091147"/>
<path d="M273.66 128.026L281.18 132.88C281.18 132.88 270.116 145.248 267.296 145.426C262.174 145.764 252.884 127.463 252.884 127.463C252.884 127.463 244.621 124.162 243.268 124.097C241.914 124.032 249.928 123.042 252.872 121.958C254.457 121.365 252.005 118.278 252.546 117.602C253.086 116.926 257.935 122.734 257.294 124.085C256.855 125.016 265.444 137.799 266.537 137.799C267.902 137.799 273.66 128.026 273.66 128.026Z" fill="#D19574"/>
<path d="M279.809 135.809C279.809 135.809 289.698 124.549 285.152 121.508C280.605 118.468 272.253 129.414 272.253 129.414C272.253 129.414 276.473 134.529 279.809 135.809Z" fill="url(#paint17_linear)"/>
<path d="M290.672 104.98C290.687 104.888 290.726 104.803 290.784 104.731C290.842 104.66 290.918 104.604 291.004 104.571C291.598 104.334 293.04 103.978 293.462 105.436C293.925 107.036 292.108 108.34 290.749 108.435C290.669 108.439 290.589 108.424 290.514 108.393C290.44 108.362 290.374 108.314 290.321 108.254C290.268 108.193 290.229 108.122 290.208 108.044C290.186 107.967 290.183 107.885 290.197 107.806L290.672 104.98Z" fill="#D19574"/>
<path d="M293.01 353.386C293.224 353.366 293.424 353.271 293.575 353.118C293.726 352.965 293.818 352.764 293.835 352.55L310.456 255.951C310.52 255.697 310.49 255.429 310.373 255.195C310.255 254.961 310.057 254.777 309.815 254.677C309.363 254.553 308.912 254.914 308.817 255.495L292.197 352.094C292.134 352.347 292.165 352.614 292.282 352.847C292.4 353.079 292.597 353.262 292.838 353.362C292.894 353.379 292.952 353.387 293.01 353.386Z" fill="#7B4CCC"/>
<path d="M245.244 353.387C245.461 353.365 245.662 353.268 245.813 353.111C245.964 352.955 246.055 352.751 246.069 352.534L261.954 254.536C262.014 254.283 261.981 254.018 261.861 253.787C261.741 253.556 261.542 253.376 261.301 253.28C260.844 253.161 260.398 253.529 260.309 254.109L244.419 352.107C244.361 352.361 244.395 352.627 244.515 352.858C244.634 353.088 244.832 353.27 245.072 353.37L245.244 353.387Z" fill="#7B4CCC"/>
<path d="M278.088 353.386C278.149 353.395 278.211 353.395 278.272 353.386C278.513 353.284 278.71 353.098 278.827 352.864C278.943 352.629 278.972 352.36 278.907 352.106L261.503 254.084C261.402 253.492 260.951 253.148 260.494 253.278C260.254 253.383 260.059 253.569 259.944 253.803C259.829 254.038 259.801 254.305 259.865 254.559L277.269 352.556C277.287 352.768 277.379 352.967 277.528 353.119C277.678 353.27 277.876 353.365 278.088 353.386Z" fill="#9763F0"/>
<path d="M326.156 353.387C326.213 353.396 326.271 353.396 326.328 353.387C326.571 353.29 326.77 353.109 326.889 352.877C327.008 352.644 327.039 352.377 326.975 352.124L310.67 254.932C310.575 254.34 310.129 253.984 309.672 254.109C309.432 254.21 309.235 254.392 309.116 254.625C308.998 254.857 308.966 255.123 309.025 255.377L325.331 352.569C325.353 352.779 325.448 352.975 325.598 353.124C325.748 353.273 325.946 353.366 326.156 353.387Z" fill="#9763F0"/>
<path d="M309.489 255.721C309.747 255.721 309.994 255.618 310.177 255.436C310.36 255.254 310.462 255.006 310.462 254.749C310.462 254.491 310.36 254.244 310.177 254.061C309.994 253.879 309.747 253.777 309.489 253.777L261.129 253.22C260.885 253.239 260.657 253.349 260.49 253.529C260.324 253.708 260.231 253.944 260.231 254.189C260.231 254.433 260.324 254.669 260.49 254.848C260.657 255.028 260.885 255.138 261.129 255.158L309.489 255.721Z" fill="#9763F0"/>
<path d="M264.613 273.719H312.154C312.41 273.719 312.656 273.617 312.838 273.436C313.019 273.255 313.121 273.009 313.121 272.753C313.121 272.496 313.019 272.251 312.838 272.07C312.656 271.888 312.41 271.787 312.154 271.787H264.613C264.356 271.787 264.11 271.888 263.929 272.07C263.747 272.251 263.646 272.496 263.646 272.753C263.646 273.009 263.747 273.255 263.929 273.436C264.11 273.617 264.356 273.719 264.613 273.719Z" fill="#9763F0"/>
<path d="M267.444 291.734H314.89C315.136 291.715 315.365 291.604 315.533 291.423C315.7 291.242 315.793 291.005 315.793 290.759C315.793 290.513 315.7 290.276 315.533 290.095C315.365 289.914 315.136 289.803 314.89 289.784H267.444C267.31 289.774 267.174 289.791 267.047 289.835C266.919 289.88 266.802 289.95 266.703 290.041C266.604 290.133 266.525 290.244 266.471 290.367C266.417 290.491 266.389 290.624 266.389 290.759C266.389 290.894 266.417 291.027 266.471 291.151C266.525 291.274 266.604 291.385 266.703 291.477C266.802 291.569 266.919 291.639 267.047 291.683C267.174 291.727 267.31 291.745 267.444 291.734Z" fill="#9763F0"/>
<path d="M270.555 309.738H318.125C318.369 309.719 318.597 309.609 318.764 309.429C318.93 309.25 319.022 309.014 319.022 308.769C319.022 308.525 318.93 308.289 318.764 308.109C318.597 307.93 318.369 307.82 318.125 307.8H270.555C270.31 307.82 270.082 307.93 269.916 308.109C269.75 308.289 269.657 308.525 269.657 308.769C269.657 309.014 269.75 309.25 269.916 309.429C270.082 309.609 270.31 309.719 270.555 309.738Z" fill="#9763F0"/>
<path d="M274.116 327.743H321.686C321.931 327.724 322.159 327.613 322.325 327.434C322.492 327.254 322.584 327.019 322.584 326.774C322.584 326.529 322.492 326.294 322.325 326.114C322.159 325.934 321.931 325.824 321.686 325.805H274.116C273.872 325.824 273.644 325.934 273.478 326.114C273.311 326.294 273.219 326.529 273.219 326.774C273.219 327.019 273.311 327.254 273.478 327.434C273.644 327.613 273.872 327.724 274.116 327.743Z" fill="#9763F0"/>
<path d="M211.725 361.085L210.888 360.789C210.778 360.75 210.677 360.688 210.593 360.608C210.508 360.527 210.441 360.43 210.396 360.322C210.352 360.214 210.33 360.099 210.333 359.982C210.336 359.865 210.363 359.751 210.413 359.645L210.793 358.845C210.933 358.551 210.979 358.221 210.924 357.9C210.869 357.579 210.716 357.283 210.486 357.053C210.256 356.822 209.96 356.668 209.638 356.613C209.317 356.557 208.986 356.602 208.691 356.741L207.884 357.127C207.778 357.174 207.662 357.198 207.546 357.198C207.429 357.198 207.314 357.174 207.207 357.127C207.1 357.082 207.003 357.015 206.923 356.93C206.843 356.845 206.782 356.745 206.744 356.635L206.448 355.799C206.337 355.495 206.135 355.232 205.87 355.046C205.604 354.861 205.288 354.761 204.964 354.761C204.639 354.761 204.323 354.861 204.058 355.046C203.792 355.232 203.59 355.495 203.48 355.799L203.183 356.635C203.144 356.744 203.082 356.845 203.001 356.929C202.921 357.014 202.823 357.08 202.715 357.125C202.607 357.17 202.491 357.191 202.375 357.189C202.258 357.186 202.143 357.159 202.037 357.109L201.236 356.724C200.941 356.586 200.611 356.542 200.29 356.598C199.969 356.654 199.674 356.808 199.443 357.038C199.213 357.268 199.059 357.563 199.003 357.883C198.947 358.203 198.991 358.533 199.129 358.827L199.515 359.627C199.564 359.733 199.592 359.848 199.594 359.964C199.597 360.081 199.576 360.197 199.531 360.304C199.486 360.412 199.419 360.509 199.335 360.59C199.25 360.67 199.15 360.732 199.04 360.771L198.203 361.068C197.898 361.178 197.635 361.38 197.449 361.645C197.263 361.91 197.163 362.225 197.163 362.549C197.163 362.873 197.263 363.189 197.449 363.454C197.635 363.719 197.898 363.92 198.203 364.031L199.04 364.327C199.151 364.365 199.252 364.427 199.337 364.508C199.422 364.588 199.489 364.686 199.532 364.795C199.579 364.902 199.603 365.017 199.603 365.133C199.603 365.249 199.579 365.364 199.532 365.471L199.146 366.271C199.007 366.565 198.962 366.895 199.018 367.216C199.073 367.537 199.227 367.833 199.458 368.063C199.689 368.293 199.986 368.445 200.307 368.5C200.629 368.555 200.959 368.509 201.254 368.369L202.055 367.989C202.161 367.94 202.276 367.912 202.392 367.91C202.509 367.907 202.625 367.928 202.733 367.973C202.841 368.018 202.938 368.084 203.019 368.169C203.099 368.253 203.161 368.354 203.201 368.464L203.497 369.299C203.608 369.603 203.81 369.866 204.076 370.052C204.341 370.238 204.657 370.337 204.981 370.337C205.306 370.337 205.622 370.238 205.887 370.052C206.153 369.866 206.355 369.603 206.465 369.299L206.762 368.464C206.8 368.354 206.861 368.253 206.941 368.168C207.021 368.083 207.118 368.016 207.225 367.972C207.332 367.925 207.447 367.9 207.564 367.9C207.68 367.9 207.795 367.925 207.902 367.972L208.709 368.351C209.003 368.489 209.333 368.534 209.653 368.478C209.974 368.422 210.269 368.269 210.499 368.04C210.728 367.81 210.882 367.515 210.938 367.196C210.993 366.876 210.949 366.547 210.81 366.253L210.431 365.453C210.384 365.347 210.36 365.232 210.36 365.115C210.36 364.999 210.384 364.884 210.431 364.777C210.474 364.669 210.541 364.571 210.626 364.49C210.711 364.409 210.812 364.347 210.923 364.309L211.76 364.013C212.065 363.902 212.328 363.701 212.514 363.436C212.7 363.171 212.8 362.855 212.8 362.531C212.8 362.208 212.7 361.892 212.514 361.627C212.328 361.362 212.065 361.16 211.76 361.05L211.725 361.085ZM207.949 362.585C207.949 363.171 207.775 363.744 207.449 364.231C207.123 364.718 206.66 365.098 206.117 365.322C205.575 365.547 204.978 365.605 204.402 365.491C203.827 365.377 203.298 365.094 202.883 364.68C202.468 364.266 202.185 363.738 202.071 363.163C201.956 362.588 202.015 361.992 202.239 361.451C202.464 360.909 202.844 360.446 203.333 360.121C203.821 359.795 204.394 359.622 204.981 359.622C205.769 359.622 206.524 359.934 207.08 360.489C207.637 361.045 207.949 361.799 207.949 362.585Z" fill="url(#paint18_linear)"/>
<path d="M102.035 225.05C102.035 225.05 104.837 230.455 101.293 233.531C97.7495 236.607 95.5889 228.594 95.5889 228.594L99.3344 222.668L102.035 225.05Z" fill="#1A1552"/>
<path d="M110.707 214.941C110.707 214.941 107.828 226.355 104.373 226.544C100.919 226.734 94.3594 220.529 94.3594 220.529L102.165 210.045L110.707 214.941Z" fill="#D19574"/>
<path d="M93.2622 245.579C93.2622 245.579 91.8079 255.351 93.5946 257.313C95.3813 259.275 113.474 253.84 113.474 253.84L112.601 250.575C112.601 250.575 98.2721 253.354 97.7141 252.821C97.1561 252.288 100.498 243.54 100.498 243.54L93.2622 245.579Z" fill="#D19574"/>
<path d="M96.1529 220.577C96.1529 220.577 91.0481 228.115 89.8075 228.595C89.6472 228.654 90.7929 232.151 94.3603 232.88C99.3346 233.905 99.9104 230.758 99.9104 230.758C99.9104 230.758 98.7232 229.573 98.6757 229.431C98.1889 227.931 100.456 223.374 100.456 223.374L96.1529 220.577Z" fill="#D19574"/>
<path d="M90.2639 228.44C90.2639 228.44 93.5524 232.553 96.6688 232.553C98.3842 232.553 98.6751 229.43 98.6751 229.43C99.6065 230.373 100.49 231.362 101.322 232.393C104.213 235.883 106.985 240.779 102.925 243.54C101.696 244.376 102.973 260.353 102.973 260.353H84.9039C84.9039 260.353 80.8259 245.828 82.2327 239.694C84.518 229.762 87.7412 228.434 90.2639 228.434" fill="url(#paint19_linear)"/>
<path d="M108.695 244.797C104.011 242.599 102.041 245.663 100.978 246.273C100.84 246.351 100.709 246.44 100.586 246.54C97.8676 247.677 87.8538 251.826 87.2721 251.5C86.5954 251.127 88.3049 241.674 88.3049 241.674L81.8467 245.508C81.8467 245.508 81.8467 255.477 84.1261 256.905C85.9959 258.09 97.559 251.903 101.34 249.793C101.528 249.768 101.711 249.712 101.88 249.627C102.628 249.254 102.094 248.904 105.044 248.525C107.994 248.146 104.682 247.429 104.629 247.34C104.071 246.516 108.629 247.34 108.629 247.34C108.67 247.343 108.711 247.338 108.75 247.324C108.789 247.311 108.825 247.29 108.855 247.262C108.885 247.234 108.909 247.2 108.925 247.162C108.942 247.125 108.95 247.084 108.95 247.043C108.944 246.427 109.003 244.939 108.695 244.797Z" fill="#D19574"/>
<path d="M87.4861 229.241C89.7833 230.557 89.2134 235.95 87.9966 244.898C87.9868 244.984 87.9487 245.063 87.8885 245.124C87.8283 245.185 87.7493 245.225 87.6642 245.236L81.4256 246.273C81.3894 246.278 81.3526 246.276 81.3175 246.265C81.2824 246.255 81.2498 246.238 81.2218 246.215C81.1938 246.191 81.1711 246.162 81.1551 246.129C81.139 246.097 81.1301 246.061 81.1288 246.024C81.1288 244.211 80.7489 234.29 82.7315 231.594C83.5922 230.426 86.2277 228.5 87.4861 229.241Z" fill="url(#paint20_linear)"/>
<path d="M109.74 209.298C107.639 209.577 108.06 204.64 101.477 204.64C96.9069 204.64 94.2832 206.14 92.4193 211.722C91.5527 214.33 87.6706 215.278 84.5305 218.294C82.9991 219.77 83.9725 223.035 82.4292 223.841C73.84 228.44 76.1312 236.968 80.6485 237.917C81.9069 238.177 85.7711 236.731 88.0861 234.236C89.5345 232.678 89.119 229.821 90.965 229.43C93.4343 228.908 94.2951 224.689 95.8681 223.373C99.6017 220.268 100.1 218.911 100.439 218.294C100.439 218.294 101.317 216.517 101.626 216.517C104.565 216.529 107.487 216.068 110.28 215.153C110.28 215.153 110.179 217.844 111.752 217.737C113.326 217.631 113.533 214.312 113.468 212.848C113.403 211.384 111.877 209.02 109.74 209.298Z" fill="#1A1552"/>
<path d="M116.383 254.036H104.457C104.409 254.036 104.362 254.022 104.322 253.995C104.282 253.969 104.251 253.931 104.232 253.886C104.214 253.842 104.209 253.793 104.219 253.746C104.228 253.699 104.251 253.655 104.285 253.621L119.291 239.013C119.313 238.989 119.34 238.971 119.369 238.959C119.399 238.947 119.431 238.941 119.463 238.942H131.412C131.46 238.942 131.507 238.956 131.547 238.983C131.587 239.009 131.619 239.047 131.637 239.092C131.656 239.136 131.66 239.185 131.651 239.232C131.642 239.279 131.618 239.323 131.584 239.357L116.572 253.965C116.548 253.99 116.518 254.01 116.485 254.022C116.453 254.034 116.417 254.039 116.383 254.036Z" fill="#091147"/>
<path d="M119.89 251.079C120.145 250.599 119.534 249.473 119.534 249.473C119.534 249.378 119.35 249.396 119.202 249.514C118.656 249.935 117.344 250.913 117.296 251.162C117.094 252.116 117.296 253.254 117.51 253.195C118.151 253.029 119.694 251.464 119.89 251.079Z" fill="#D19574"/>
<path d="M96.663 350.789V354.89C96.6448 355.11 96.7135 355.328 96.8545 355.497C96.9954 355.667 97.1973 355.775 97.4169 355.797H110.802V355.293C110.802 355.1 110.739 354.911 110.622 354.756C110.506 354.601 110.342 354.488 110.155 354.434C108.535 353.978 104.32 352.656 102.237 350.783C98.8296 347.696 96.663 350.789 96.663 350.789Z" fill="#091147"/>
<path d="M67.4052 344.105L65.4701 347.607C65.3461 347.789 65.2991 348.012 65.3391 348.229C65.3791 348.445 65.503 348.637 65.6838 348.763L77.3953 355.216L77.6386 354.778C77.7342 354.608 77.7715 354.412 77.7447 354.22C77.7179 354.027 77.6285 353.848 77.4903 353.711C76.3031 352.526 73.2877 349.498 72.3676 346.843C70.8658 342.493 67.4052 344.105 67.4052 344.105Z" fill="#091147"/>
<path d="M102.92 260.377H94.2356C92.3135 262.054 90.8245 264.168 89.8945 266.54C88.9645 268.913 88.6211 271.475 88.8933 274.008C89.5285 281.054 96.6456 350.766 96.6456 350.766H102.225L102.92 260.377Z" fill="url(#paint21_linear)"/>
<path d="M99.7084 260.377C99.7084 298.899 72.4033 346.843 72.4033 346.843L67.4053 344.211C67.4053 344.211 86.4951 290.815 81.7761 275.579C79.2711 267.507 85.0052 260.383 85.0052 260.383" fill="url(#paint22_linear)"/>
<path d="M101.821 217.162C101.853 217.09 101.866 217.01 101.859 216.931C101.851 216.853 101.824 216.777 101.78 216.712C101.447 216.249 100.593 215.313 99.6013 216.16C98.5032 217.091 99.1859 218.892 100.118 219.604C100.173 219.645 100.237 219.674 100.305 219.687C100.373 219.7 100.443 219.698 100.51 219.68C100.577 219.662 100.639 219.63 100.691 219.585C100.743 219.54 100.785 219.483 100.812 219.42L101.821 217.162Z" fill="#D19574"/>
<defs>
<linearGradient id="paint0_linear" x1="201.936" y1="60.4835" x2="194.747" y2="333.516" gradientUnits="userSpaceOnUse">
<stop stop-color="#BCA3FF"/>
<stop offset="1" stop-color="#5D2582"/>
</linearGradient>
<linearGradient id="paint1_linear" x1="28573.4" y1="7653.4" x2="29831.5" y2="7653.4" gradientUnits="userSpaceOnUse">
<stop stop-color="#D398FF"/>
<stop offset="1" stop-color="#DD5DB6"/>
</linearGradient>
<linearGradient id="paint2_linear" x1="9103.69" y1="3081.8" x2="9342.21" y2="3081.8" gradientUnits="userSpaceOnUse">
<stop stop-color="#DEC0F4"/>
<stop offset="1" stop-color="#DD5DB6"/>
</linearGradient>
<linearGradient id="paint3_linear" x1="7028.26" y1="5527.22" x2="7246.84" y2="5527.22" gradientUnits="userSpaceOnUse">
<stop stop-color="#B266EA"/>
<stop offset="1" stop-color="#DD5DB6"/>
</linearGradient>
<linearGradient id="paint4_linear" x1="17460.6" y1="7466.4" x2="17915.4" y2="7466.4" gradientUnits="userSpaceOnUse">
<stop stop-color="#381A96"/>
<stop offset="1" stop-color="#350E71"/>
</linearGradient>
<linearGradient id="paint5_linear" x1="18302.9" y1="7829.71" x2="18804.3" y2="7829.71" gradientUnits="userSpaceOnUse">
<stop stop-color="#6A0AA8"/>
<stop offset="1" stop-color="#DD5DB6"/>
</linearGradient>
<linearGradient id="paint6_linear" x1="33260.1" y1="7724.97" x2="34984.8" y2="7724.97" gradientUnits="userSpaceOnUse">
<stop stop-color="#6A0AA8"/>
<stop offset="1" stop-color="#DD5DB6"/>
</linearGradient>
<linearGradient id="paint7_linear" x1="37090.8" y1="35217.6" x2="40024.2" y2="35217.6" gradientUnits="userSpaceOnUse">
<stop stop-color="#6A0AA8"/>
<stop offset="1" stop-color="#DD5DB6"/>
</linearGradient>
<linearGradient id="paint8_linear" x1="47383.9" y1="28256.6" x2="54836.6" y2="28256.6" gradientUnits="userSpaceOnUse">
<stop stop-color="#6A0AA8"/>
<stop offset="1" stop-color="#DD5DB6"/>
</linearGradient>
<linearGradient id="paint9_linear" x1="26098.4" y1="53810.8" x2="28150" y2="53810.8" gradientUnits="userSpaceOnUse">
<stop stop-color="#9A00FF"/>
<stop offset="1" stop-color="#DD5DB6"/>
</linearGradient>
<linearGradient id="paint10_linear" x1="31869.3" y1="53812.3" x2="34007" y2="53812.3" gradientUnits="userSpaceOnUse">
<stop stop-color="#9A00FF"/>
<stop offset="1" stop-color="#DD5DB6"/>
</linearGradient>
<linearGradient id="paint11_linear" x1="38723.4" y1="19591.5" x2="42563.8" y2="19591.5" gradientUnits="userSpaceOnUse">
<stop stop-color="#9A00FF"/>
<stop offset="1" stop-color="#DD5DB6"/>
</linearGradient>
<linearGradient id="paint12_linear" x1="14775.8" y1="53775.8" x2="15295.2" y2="53775.8" gradientUnits="userSpaceOnUse">
<stop stop-color="#9A00FF"/>
<stop offset="1" stop-color="#DD5DB6"/>
</linearGradient>
<linearGradient id="paint13_linear" x1="305.34" y1="225.959" x2="294.547" y2="150.702" gradientUnits="userSpaceOnUse">
<stop stop-color="#7A6E99"/>
<stop offset="1" stop-color="#6C3CEB"/>
</linearGradient>
<linearGradient id="paint14_linear" x1="29343.8" y1="48012" x2="28689.5" y2="48006.2" gradientUnits="userSpaceOnUse">
<stop stop-color="#9A00FF"/>
<stop offset="1" stop-color="#9D93CF"/>
</linearGradient>
<linearGradient id="paint15_linear" x1="37138.8" y1="10261" x2="39924.8" y2="10261" gradientUnits="userSpaceOnUse">
<stop stop-color="#9A00FF"/>
<stop offset="1" stop-color="#DD5DB6"/>
</linearGradient>
<linearGradient id="paint16_linear" x1="31181.1" y1="16158.4" x2="29500.9" y2="16178.2" gradientUnits="userSpaceOnUse">
<stop stop-color="#7F70FE"/>
<stop offset="1" stop-color="#501EA4"/>
</linearGradient>
<linearGradient id="paint17_linear" x1="13792" y1="5428.93" x2="14126.6" y2="5428.93" gradientUnits="userSpaceOnUse">
<stop stop-color="#7F70FE"/>
<stop offset="1" stop-color="#501EA4"/>
</linearGradient>
<linearGradient id="paint18_linear" x1="13218.4" y1="12083.2" x2="13630.2" y2="12083.2" gradientUnits="userSpaceOnUse">
<stop stop-color="#9763F0"/>
<stop offset="1" stop-color="#744DDB"/>
</linearGradient>
<linearGradient id="paint19_linear" x1="14789.8" y1="17898.9" x2="15683.3" y2="17898.9" gradientUnits="userSpaceOnUse">
<stop stop-color="#F4E5FF"/>
<stop offset="1" stop-color="#FD9326"/>
</linearGradient>
<linearGradient id="paint20_linear" x1="5153.19" y1="9554.95" x2="5260.01" y2="9554.95" gradientUnits="userSpaceOnUse">
<stop stop-color="#F4E5FF"/>
<stop offset="1" stop-color="#FD9326"/>
</linearGradient>
<linearGradient id="paint21_linear" x1="9757.87" y1="60166.2" x2="9299.31" y2="60140" gradientUnits="userSpaceOnUse">
<stop stop-color="#7F70FE"/>
<stop offset="1" stop-color="#501EA4"/>
</linearGradient>
<linearGradient id="paint22_linear" x1="19907" y1="56764.6" x2="21664.9" y2="56764.6" gradientUnits="userSpaceOnUse">
<stop stop-color="#9D93D0"/>
<stop offset="1" stop-color="#501EA4"/>
</linearGradient>
</defs>
</svg>
